<?xml version="1.0" encoding="UTF-8"?>
<svg xmlns="http://www.w3.org/2000/svg" version="1.1" xmlns:xlink="http://www.w3.org/1999/xlink" viewBox="0 0 32 26">
  <defs>
    <style>
      .cls-1, .cls-2 {
        fill: none;
      }

      .cls-2 {
        stroke: #000;
        stroke-miterlimit: 10;
        stroke-width: .2px;
      }

      .cls-3 {
        filter: url(#outer-glow-1);
      }

      .cls-4 {
        clip-path: url(#clippath);
      }
    </style>
    <clipPath id="clippath">
      <rect class="cls-1" width="32" height="26"/>
    </clipPath>
    <filter id="outer-glow-1" x="-30.2" y="-77.1" width="217" height="125.9" filterUnits="userSpaceOnUse">
      <feOffset dx="0" dy="0"/>
      <feGaussianBlur result="blur" stdDeviation="2"/>
      <feFlood flood-color="#000" flood-opacity=".5"/>
      <feComposite in2="blur" operator="in"/>
      <feComposite in="SourceGraphic"/>
    </filter>
  </defs>
  <!-- Generator: Adobe Illustrator 28.7.1, SVG Export Plug-In . SVG Version: 1.2.0 Build 142)  -->
  <g>
    <g id="Ebene_1">
      <g id="_x31_">
        <g class="cls-4">
          <g class="cls-3">
            <path class="cls-2" d="M-29-3.2c3.2,0,3.2,5,6.5,5s3.2-5,6.5-5S-12.8,1.7-9.6,1.7-6.3-3.2-3.1-3.2.2,1.7,3.4,1.7s3.2-5,6.5-5,3.2,5,6.5,5,3.2-5,6.5-5,3.2,5,6.5,5,3.2-5,6.5-5,3.2,5,6.5,5,3.2-5,6.5-5,3.2,5,6.5,5,3.2-5,6.5-5,3.2,5,6.5,5,3.2-5,6.5-5,3.2,5,6.5,5,3.2-5,6.5-5,3.2,5,6.5,5,3.2-5,6.5-5,3.2,5,6.5,5,3.2-5,6.5-5,3.2,5,6.5,5,3.2-5,6.5-5,3.2,5,6.5,5,3.2-5,6.5-5,3.2,5,6.5,5,3.2-5,6.5-5,3.2,5,6.5,5,3.2-5,6.5-5,3.2,5,6.5,5,3.3-5,6.5-5,3.3,5,6.5,5"/>
            <path class="cls-2" d="M-29.1-.5c3.2,0,3.2,4.7,6.5,4.7S-19.4-.5-16.1-.5s3.2,4.7,6.5,4.7S-6.4-.5-3.1-.5.1,4.2,3.4,4.2,6.6-.5,9.8-.5s3.2,4.7,6.5,4.7S19.6-.5,22.8-.5s3.2,4.7,6.5,4.7S32.6-.5,35.8-.5s3.2,4.7,6.5,4.7S45.5-.5,48.8-.5s3.2,4.7,6.5,4.7S58.5-.5,61.8-.5s3.2,4.7,6.5,4.7,3.2-4.7,6.5-4.7,3.2,4.7,6.5,4.7,3.2-4.7,6.5-4.7,3.2,4.7,6.5,4.7,3.2-4.7,6.5-4.7,3.2,4.7,6.5,4.7,3.2-4.7,6.5-4.7,3.2,4.7,6.5,4.7,3.2-4.7,6.5-4.7,3.2,4.7,6.5,4.7,3.2-4.7,6.5-4.7,3.2,4.7,6.5,4.7,3.2-4.7,6.5-4.7,3.2,4.7,6.5,4.7,3.2-4.7,6.5-4.7,3.2,4.7,6.5,4.7,3.3-4.7,6.5-4.7,3.3,4.7,6.5,4.7"/>
            <path class="cls-2" d="M-29.2,2.2c3.2,0,3.2,4.4,6.5,4.4s3.2-4.4,6.5-4.4,3.2,4.4,6.5,4.4S-6.4,2.2-3.2,2.2,0,6.7,3.3,6.7s3.2-4.4,6.5-4.4,3.2,4.4,6.5,4.4,3.2-4.4,6.5-4.4,3.2,4.4,6.5,4.4,3.2-4.4,6.5-4.4,3.2,4.4,6.5,4.4,3.2-4.4,6.5-4.4,3.2,4.4,6.5,4.4,3.2-4.4,6.5-4.4,3.2,4.4,6.5,4.4,3.2-4.4,6.5-4.4,3.2,4.4,6.5,4.4,3.2-4.4,6.5-4.4,3.2,4.4,6.5,4.4,3.2-4.4,6.5-4.4,3.2,4.4,6.5,4.4,3.2-4.4,6.5-4.4,3.2,4.4,6.5,4.4,3.2-4.4,6.5-4.4,3.2,4.4,6.5,4.4,3.2-4.4,6.5-4.4,3.2,4.4,6.5,4.4,3.2-4.4,6.5-4.4,3.2,4.4,6.5,4.4,3.2-4.4,6.5-4.4,3.2,4.4,6.5,4.4,3.3-4.4,6.5-4.4,3.3,4.4,6.5,4.4"/>
            <path class="cls-2" d="M-29.2,5c3.2,0,3.2,4.2,6.5,4.2s3.2-4.2,6.5-4.2,3.2,4.2,6.5,4.2,3.2-4.2,6.5-4.2S0,9.1,3.2,9.1s3.2-4.2,6.5-4.2,3.2,4.2,6.5,4.2,3.2-4.2,6.5-4.2,3.2,4.2,6.5,4.2,3.2-4.2,6.5-4.2,3.2,4.2,6.5,4.2,3.2-4.2,6.5-4.2,3.2,4.2,6.5,4.2,3.2-4.2,6.5-4.2,3.2,4.2,6.5,4.2,3.2-4.2,6.5-4.2,3.2,4.2,6.5,4.2,3.2-4.2,6.5-4.2,3.2,4.2,6.5,4.2,3.2-4.2,6.5-4.2,3.2,4.2,6.5,4.2,3.2-4.2,6.5-4.2,3.2,4.2,6.5,4.2,3.2-4.2,6.5-4.2,3.2,4.2,6.5,4.2,3.2-4.2,6.5-4.2,3.2,4.2,6.5,4.2,3.2-4.2,6.5-4.2,3.2,4.2,6.5,4.2,3.2-4.2,6.5-4.2,3.2,4.2,6.5,4.2,3.3-4.2,6.5-4.2,3.3,4.2,6.5,4.2"/>
            <path class="cls-2" d="M-29.3,7.7c3.2,0,3.2,3.9,6.5,3.9s3.2-3.9,6.5-3.9,3.2,3.9,6.5,3.9,3.2-3.9,6.5-3.9S0,11.6,3.2,11.6s3.2-3.9,6.5-3.9,3.2,3.9,6.5,3.9,3.2-3.9,6.5-3.9,3.2,3.9,6.5,3.9,3.2-3.9,6.5-3.9,3.2,3.9,6.5,3.9,3.2-3.9,6.5-3.9,3.2,3.9,6.5,3.9,3.2-3.9,6.5-3.9,3.2,3.9,6.5,3.9,3.2-3.9,6.5-3.9,3.2,3.9,6.5,3.9,3.2-3.9,6.5-3.9,3.2,3.9,6.5,3.9,3.2-3.9,6.5-3.9,3.2,3.9,6.5,3.9,3.2-3.9,6.5-3.9,3.2,3.9,6.5,3.9,3.2-3.9,6.5-3.9,3.2,3.9,6.5,3.9,3.2-3.9,6.5-3.9,3.2,3.9,6.5,3.9,3.2-3.9,6.5-3.9,3.2,3.9,6.5,3.9,3.2-3.9,6.5-3.9,3.2,3.9,6.5,3.9,3.3-3.9,6.5-3.9,3.3,3.9,6.5,3.9"/>
            <path class="cls-2" d="M-29.3,10.4c3.2,0,3.2,3.7,6.5,3.7s3.2-3.7,6.5-3.7,3.2,3.7,6.5,3.7,3.2-3.7,6.5-3.7S-.1,14.1,3.1,14.1s3.2-3.7,6.5-3.7,3.2,3.7,6.5,3.7,3.2-3.7,6.5-3.7,3.2,3.7,6.5,3.7,3.2-3.7,6.5-3.7,3.2,3.7,6.5,3.7,3.2-3.7,6.5-3.7,3.2,3.7,6.5,3.7,3.2-3.7,6.5-3.7,3.2,3.7,6.5,3.7,3.2-3.7,6.5-3.7,3.2,3.7,6.5,3.7,3.2-3.7,6.5-3.7,3.2,3.7,6.5,3.7,3.2-3.7,6.5-3.7,3.2,3.7,6.5,3.7,3.2-3.7,6.5-3.7,3.2,3.7,6.5,3.7,3.2-3.7,6.5-3.7,3.2,3.7,6.5,3.7,3.2-3.7,6.5-3.7,3.2,3.7,6.5,3.7,3.2-3.7,6.5-3.7,3.2,3.7,6.5,3.7,3.2-3.7,6.5-3.7,3.2,3.7,6.5,3.7,3.3-3.7,6.5-3.7,3.3,3.7,6.5,3.7"/>
            <path class="cls-2" d="M-29.4,13.2c3.2,0,3.2,3.4,6.5,3.4s3.2-3.4,6.5-3.4,3.2,3.4,6.5,3.4,3.2-3.4,6.5-3.4,3.2,3.4,6.5,3.4,3.2-3.4,6.5-3.4,3.2,3.4,6.5,3.4,3.2-3.4,6.5-3.4,3.2,3.4,6.5,3.4,3.2-3.4,6.5-3.4,3.2,3.4,6.5,3.4,3.2-3.4,6.5-3.4,3.2,3.4,6.5,3.4,3.2-3.4,6.5-3.4,3.2,3.4,6.5,3.4,3.2-3.4,6.5-3.4,3.2,3.4,6.5,3.4,3.2-3.4,6.5-3.4,3.2,3.4,6.5,3.4,3.2-3.4,6.5-3.4,3.2,3.4,6.5,3.4,3.2-3.4,6.5-3.4,3.2,3.4,6.5,3.4,3.2-3.4,6.5-3.4,3.2,3.4,6.5,3.4,3.2-3.4,6.5-3.4,3.2,3.4,6.5,3.4,3.2-3.4,6.5-3.4,3.2,3.4,6.5,3.4,3.2-3.4,6.5-3.4,3.2,3.4,6.5,3.4,3.3-3.4,6.5-3.4,3.3,3.4,6.5,3.4"/>
            <path class="cls-2" d="M-29.5,15.9c3.2,0,3.2,3.1,6.5,3.1s3.2-3.1,6.5-3.1,3.2,3.1,6.5,3.1,3.2-3.1,6.5-3.1,3.2,3.1,6.5,3.1,3.2-3.1,6.5-3.1,3.2,3.1,6.5,3.1,3.2-3.1,6.5-3.1,3.2,3.1,6.5,3.1,3.2-3.1,6.5-3.1,3.2,3.1,6.5,3.1,3.2-3.1,6.5-3.1,3.2,3.1,6.5,3.1,3.2-3.1,6.5-3.1,3.2,3.1,6.5,3.1,3.2-3.1,6.5-3.1,3.2,3.1,6.5,3.1,3.2-3.1,6.5-3.1,3.2,3.1,6.5,3.1,3.2-3.1,6.5-3.1,3.2,3.1,6.5,3.1,3.2-3.1,6.5-3.1,3.2,3.1,6.5,3.1,3.2-3.1,6.5-3.1,3.2,3.1,6.5,3.1,3.2-3.1,6.5-3.1,3.2,3.1,6.5,3.1,3.2-3.1,6.5-3.1,3.2,3.1,6.5,3.1,3.2-3.1,6.5-3.1,3.2,3.1,6.5,3.1,3.3-3.1,6.5-3.1,3.3,3.1,6.5,3.1"/>
            <path class="cls-2" d="M-29.5,18.6c3.2,0,3.2,2.9,6.5,2.9s3.2-2.9,6.5-2.9,3.2,2.9,6.5,2.9,3.2-2.9,6.5-2.9,3.2,2.9,6.5,2.9,3.2-2.9,6.5-2.9,3.2,2.9,6.5,2.9,3.2-2.9,6.5-2.9,3.2,2.9,6.5,2.9,3.2-2.9,6.5-2.9,3.2,2.9,6.5,2.9,3.2-2.9,6.5-2.9,3.2,2.9,6.5,2.9,3.2-2.9,6.5-2.9,3.2,2.9,6.5,2.9,3.2-2.9,6.5-2.9,3.2,2.9,6.5,2.9,3.2-2.9,6.5-2.9,3.2,2.9,6.5,2.9,3.2-2.9,6.5-2.9,3.2,2.9,6.5,2.9,3.2-2.9,6.5-2.9,3.2,2.9,6.5,2.9,3.2-2.9,6.5-2.9,3.2,2.9,6.5,2.9,3.2-2.9,6.5-2.9,3.2,2.9,6.5,2.9,3.2-2.9,6.5-2.9,3.2,2.9,6.5,2.9,3.2-2.9,6.5-2.9,3.2,2.9,6.5,2.9,3.3-2.9,6.5-2.9,3.3,2.9,6.5,2.9"/>
            <path class="cls-2" d="M-29.6,21.4c3.2,0,3.2,2.6,6.5,2.6s3.2-2.6,6.5-2.6,3.2,2.6,6.5,2.6,3.2-2.6,6.5-2.6,3.2,2.6,6.5,2.6,3.2-2.6,6.5-2.6,3.2,2.6,6.5,2.6,3.2-2.6,6.5-2.6,3.2,2.6,6.5,2.6,3.2-2.6,6.5-2.6,3.2,2.6,6.5,2.6,3.2-2.6,6.5-2.6,3.2,2.6,6.5,2.6,3.2-2.6,6.5-2.6,3.2,2.6,6.5,2.6,3.2-2.6,6.5-2.6,3.2,2.6,6.5,2.6,3.2-2.6,6.5-2.6,3.2,2.6,6.5,2.6,3.2-2.6,6.5-2.6,3.2,2.6,6.5,2.6,3.2-2.6,6.5-2.6,3.2,2.6,6.5,2.6,3.2-2.6,6.5-2.6,3.2,2.6,6.5,2.6,3.2-2.6,6.5-2.6,3.2,2.6,6.5,2.6,3.2-2.6,6.5-2.6,3.2,2.6,6.5,2.6,3.2-2.6,6.5-2.6,3.2,2.6,6.5,2.6,3.3-2.6,6.5-2.6,3.3,2.6,6.5,2.6"/>
            <path class="cls-2" d="M-29.6,24.1c3.2,0,3.2,2.3,6.5,2.3s3.2-2.3,6.5-2.3,3.2,2.3,6.5,2.3,3.2-2.3,6.5-2.3,3.2,2.3,6.5,2.3,3.2-2.3,6.5-2.3,3.2,2.3,6.5,2.3,3.2-2.3,6.5-2.3,3.2,2.3,6.5,2.3,3.2-2.3,6.5-2.3,3.2,2.3,6.5,2.3,3.2-2.3,6.5-2.3,3.2,2.3,6.5,2.3,3.2-2.3,6.5-2.3,3.2,2.3,6.5,2.3,3.2-2.3,6.5-2.3,3.2,2.3,6.5,2.3,3.2-2.3,6.5-2.3,3.2,2.3,6.5,2.3,3.2-2.3,6.5-2.3,3.2,2.3,6.5,2.3,3.2-2.3,6.5-2.3,3.2,2.3,6.5,2.3,3.2-2.3,6.5-2.3,3.2,2.3,6.5,2.3,3.2-2.3,6.5-2.3,3.2,2.3,6.5,2.3,3.2-2.3,6.5-2.3,3.2,2.3,6.5,2.3,3.2-2.3,6.5-2.3,3.2,2.3,6.5,2.3,3.3-2.3,6.5-2.3,3.3,2.3,6.5,2.3"/>
          </g>
        </g>
      </g>
    </g>
  </g>
</svg>