<?xml version="1.0" encoding="UTF-8"?>
<svg id="Layer_1" xmlns="http://www.w3.org/2000/svg" version="1.1" xmlns:xlink="http://www.w3.org/1999/xlink" viewBox="0 0 2867.5 3734">
  <!-- Generator: Adobe Illustrator 29.2.0, SVG Export Plug-In . SVG Version: 2.1.0 Build 108)  -->
  <defs>
    <style>
      .st0 {
        fill: url(#linear-gradient2);
      }

      .st1 {
        mask: url(#mask-5);
      }

      .st2 {
        mask: url(#mask-1);
      }

      .st3 {
        mask: url(#mask-6);
      }

      .st4 {
        mask: url(#mask);
      }

      .st5 {
        fill: url(#linear-gradient1);
      }

      .st6 {
        mask: url(#mask-2);
      }

      .st7 {
        fill: url(#linear-gradient4);
      }

      .st8 {
        fill: url(#linear-gradient5);
      }

      .st9 {
        fill: url(#linear-gradient3);
      }

      .st10, .st11, .st12 {
        fill-rule: evenodd;
      }

      .st13 {
        fill: url(#linear-gradient6);
      }

      .st14 {
        mask: url(#mask-4);
      }

      .st11 {
        opacity: 0;
      }

      .st15 {
        fill: url(#linear-gradient);
      }

      .st16 {
        mask: url(#mask-3);
      }

      .st12 {
        opacity: .3;
      }
    </style>
    <linearGradient id="linear-gradient" x1="-942.1" y1="3552.2" x2="-723.4" y2="3311.4" gradientTransform="translate(2453.6 -145.8)" gradientUnits="userSpaceOnUse">
      <stop offset="0" stop-color="#4d4d4d"/>
      <stop offset="1" stop-color="#000"/>
    </linearGradient>
    <mask id="mask" x="1409.2" y="3169.4" width="325.8" height="340.8" maskUnits="userSpaceOnUse">
      <rect class="st15" x="1409.2" y="3169.4" width="325.8" height="340.8"/>
    </mask>
    <linearGradient id="linear-gradient1" x1="-991.9" y1="3501.2" x2="-1054.3" y2="3613.7" gradientTransform="translate(2295.4 -4.2)" gradientUnits="userSpaceOnUse">
      <stop offset="0" stop-color="#0d0d0d"/>
      <stop offset="1" stop-color="#4d4d4d"/>
    </linearGradient>
    <mask id="mask-1" x="1149.6" y="3437.4" width="204.7" height="305" maskUnits="userSpaceOnUse">
      <rect class="st5" x="1149.6" y="3437.4" width="204.7" height="305"/>
    </mask>
    <linearGradient id="linear-gradient2" x1="-936.2" y1="2953.9" x2="-623.3" y2="2816.2" gradientTransform="translate(2425.8 -1066.4)" gradientUnits="userSpaceOnUse">
      <stop offset="0" stop-color="#333"/>
      <stop offset="1" stop-color="#000"/>
    </linearGradient>
    <mask id="mask-2" x="1363.5" y="1652.2" width="530.6" height="348.3" maskUnits="userSpaceOnUse">
      <rect class="st0" x="1363.5" y="1652.2" width="530.6" height="348.3"/>
    </mask>
    <linearGradient id="linear-gradient3" x1="-783.3" y1="1992.1" x2="-980.1" y2="2586.5" gradientTransform="translate(2160.1 -1755.4)" gradientUnits="userSpaceOnUse">
      <stop offset="0" stop-color="#404040"/>
      <stop offset="1" stop-color="#8c8c8c"/>
    </linearGradient>
    <mask id="mask-3" x="881.3" y="16.3" width="854.1" height="854.1" maskUnits="userSpaceOnUse">
      <rect class="st9" x="881.3" y="16.3" width="854.1" height="854.1"/>
    </mask>
    <linearGradient id="linear-gradient4" x1="-929.4" y1="2542.9" x2="-712.8" y2="2364.2" gradientTransform="translate(2433.7 -1653.8)" gradientUnits="userSpaceOnUse">
      <stop offset="0" stop-color="#4d4d4d"/>
      <stop offset="1" stop-color="#8c8c8c"/>
    </linearGradient>
    <mask id="mask-4" x="1297.5" y="569.8" width="531.2" height="541.6" maskUnits="userSpaceOnUse">
      <rect class="st7" x="1297.5" y="569.8" width="531.2" height="541.6"/>
    </mask>
    <linearGradient id="linear-gradient5" x1="-250.1" y1="2115.6" x2="-651.1" y2="2452.4" gradientTransform="translate(2725.2 -1955)" xlink:href="#linear-gradient3"/>
    <mask id="mask-5" x="1882.5" y="31.5" width="872.6" height="520.9" maskUnits="userSpaceOnUse">
      <rect class="st8" x="1882.5" y="31.5" width="872.6" height="520.9"/>
    </mask>
    <linearGradient id="linear-gradient6" x1="-1242.2" y1="2873.4" x2="-1258.9" y2="3052.7" gradientTransform="translate(1611.9 -767.1)" gradientUnits="userSpaceOnUse">
      <stop offset="0" stop-color="#4d4d4d"/>
      <stop offset="1" stop-color="#262626"/>
    </linearGradient>
    <mask id="mask-6" x="28.8" y="2088.1" width="647.8" height="403.2" maskUnits="userSpaceOnUse">
      <rect class="st13" x="28.8" y="2088.1" width="647.8" height="403.2"/>
    </mask>
  </defs>
  <polygon class="st12" points="1856.6 3095.9 2138.1 3800.4 1593.1 3810.3 1468.9 3730.1 1630.5 3464 1598.8 3442.2 1856.6 3095.9"/>
  <polygon class="st11" points="2131.5 3535.8 1976.3 3289.2 2092.1 3262.2 2131.5 3535.8"/>
  <g class="st4">
    <polygon class="st10" points="1409.2 3433.4 1482 3510.2 1735 3169.4 1409.2 3433.4"/>
  </g>
  <g class="st2">
    <polygon class="st10" points="1149.6 3437.4 1354.3 3476.7 1261.8 3742.4 1149.6 3437.4"/>
  </g>
  <polygon class="st12" points="1147.7 3405.9 498.2 2669.8 191.2 3307.5 403.8 3472.8 273.9 3729.9 1147.7 3405.9"/>
  <polygon class="st12" points="1289.4 3083.1 1431.1 3235.6 1460.6 3099.8 1796.1 3043.8 1486.2 2902.1 1458.1 3097.9 1289.4 3083.1"/>
  <polygon class="st12" points="1449 2456 1860.1 3107.1 1612.3 2434.4 1449 2456"/>
  <polygon class="st12" points="1921.8 2283.2 1882.2 3030.1 2228.8 2678.8 1921.8 2283.2"/>
  <polygon class="st12" points="1073.4 2846.9 1348.9 2508.4 882.5 2571.4 817.5 2799.7 1073.4 2846.9"/>
  <polygon class="st12" points="1644.8 2401.9 1912.5 2273.9 1872.9 3020.8 1644.8 2401.9"/>
  <polygon class="st12" points="1229.2 2524.6 1485.2 2399.6 1205.7 2006 789.5 2447.8 1019.7 2471.4 1229.2 2524.6"/>
  <polygon class="st12" points="2214.8 2697.4 2604 3499.7 2222.2 3448.5 2188.8 3633.5 2204.2 3078.6 2171.8 3076.5 2214.8 2697.4"/>
  <polygon class="st12" points="2392.6 2946.5 2794.8 2733.9 2794.8 3379.4 2392.6 2946.5"/>
  <polygon class="st12" points="2076.6 2169 2318.7 2623.6 2289.2 2627.7 2017.3 2277.4 2076.6 2169"/>
  <polygon class="st12" points="1680 2156.5 1828.1 2053.7 1747.4 1947.4 2003.3 1831.3 2278.8 1943.5 1790.4 2302.4 1680 2156.5"/>
  <polygon class="st12" points="916.9 2135.9 1149.1 1925.3 881.5 1964.6 916.9 2135.9"/>
  <polygon class="st12" points="490 2170 822.6 1929.9 893.5 2103.1 840.3 2052.9 583.5 2366.8 490 2170"/>
  <path class="st12" d="M1724.8,1478.5l39.4,240.1,590.4,161.4,3.9-179.1s-498-23.7-513.7-15.7c-15.6,7.9-120.1-206.6-120.1-206.6"/>
  <g class="st6">
    <polygon class="st10" points="1363.5 2000.4 1808.5 1652.2 1894 1821 1363.5 2000.4"/>
  </g>
  <polygon class="st12" points="1236.7 1712.7 1526.6 1803.5 1500.4 1706.8 1236.7 1712.7"/>
  <polygon class="st12" points="1333.1 1232.5 1407.9 1598.6 1518.1 1271.9 1333.1 1232.5"/>
  <polygon class="st12" points="2243.1 1734 2162.4 1468.3 1991.2 1517.5 1999.1 1210.5 2310 1017.6 2243.1 1734"/>
  <polygon class="st12" points="313.7 1921.4 725 1868.2 624.6 1374.2 479 1728.5 313.7 1921.4"/>
  <polygon class="st12" points="1353.6 1565.7 672.7 1506.7 733.7 1402.4 1353.6 1565.7"/>
  <g class="st16">
    <polygon class="st10" points="1105.6 28.1 881.3 614.6 1208 650 1243.4 870.4 1735.4 16.3 1105.6 28.1"/>
  </g>
  <g class="st14">
    <polygon class="st10" points="1297.5 1047.1 1828.7 569.8 1457 1111.4 1297.5 1047.1"/>
  </g>
  <polygon class="st12" points="2817.8 579.2 1975.4 541.8 2825.6 205.2 2817.8 579.2"/>
  <g class="st1">
    <polygon class="st10" points="2365.4 37.4 1882.5 552.4 2755.1 31.5 2365.4 37.4"/>
  </g>
  <polygon class="st12" points="1982.6 1135.9 2262.1 952.9 1928.7 614.4 1769.3 844.7 1840.9 1063.1 1982.6 1135.9"/>
  <polygon class="st12" points="517.1 12.4 717.9 1000.3 629.3 1067.2 235.7 138.3 517.1 12.4"/>
  <polygon class="st12" points="1693.6 137.2 1902.2 503.3 1555.9 379.3 1693.6 137.2"/>
  <g class="st3">
    <polygon class="st10" points="676.6 2415.3 449.4 2304.6 490.7 2127.5 217.2 2088.1 32.1 2308.5 28.8 2491.3 676.6 2415.3"/>
  </g>
  <polygon class="st11" points="217.2 2088.1 463.7 2243.2 490.7 2127.5 217.2 2088.1"/>
  <polygon class="st12" points="436.4 953.6 31.9 466.1 26.2 1410.2 72.3 1625.2 318.8 1546.7 198.3 1327 436.4 953.6"/>
  <polygon class="st11" points="135.9 469.5 277.4 738.3 292.9 537.7 135.9 469.5"/>
  <polygon class="st12" points="2363.9 1564.4 2775.1 2215.5 2527.2 1542.8 2363.9 1564.4"/>
  <polygon class="st12" points="2598.4 1586.2 2866.1 1458.2 2826.5 2205.1 2598.4 1586.2"/>
  <polygon class="st12" points="2820.9 2217.5 2829.1 2615.4 2762.2 2706 2458.1 2812.2 2820.9 2217.5"/>
  <polygon class="st12" points="2433.9 465.3 2686 1267.7 2438.6 1216.5 2417 1401.5 2427 846.6 2406 844.4 2433.9 465.3"/>
</svg>