<?xml version="1.0" encoding="UTF-8" standalone="no"?>
            <svg width="200" height="200" viewBox="0 0 200 200" xmlns="http://www.w3.org/2000/svg">
                <defs>
                  <pattern id="Pattern_spized_pattern_1_2" x="0" y="0" width="500.0000126043627" height="578.3783811092304" patternTransform="scale(0.3457943908906732)" patternUnits="userSpaceOnUse">
                    <svg xmlns:svg="http://www.w3.org/2000/svg" xmlns="http://www.w3.org/2000/svg" version="1.1" id="svg_patternspizd_patterns_57" xml:space="preserve" width="500.0000126043627" height="578.3783811092304" viewBox="0 0 500.0000126043627 578.3783811092304">
  
      <path id="path445" d="M0 0h94.2568v0l38.8513 67.5676v0l38.8514 67.5675H250v0h78.0405l38.8514-67.5675v0 0 0L405.7432 0V0H500V9.4595H421.9595L383.1081 77.027v0 0 0l-38.8513 67.5676 38.8513 67.5676 38.8514 67.5675H500v18.9189 0 0h-78.0405l-38.8514 67.5676v0 0 0l-38.8513 67.5676 38.8513 67.5676 38.8514 67.5675H500v0 9.4595H405.7432L366.8919 510.8108 328.0405 443.2432H250v0 0h-78.0405l-38.8514 67.5676v0 0L94.2568 578.3784H0v-9.4595h78.0405l38.8514-67.5675v0l38.8513-67.5676-38.8513-67.5676v0L78.0405 298.6486v0H0v-18.9189 0h78.0405l38.8514-67.5675v0L155.7432 144.5946 116.8919 77.027v0L78.0405 9.4595v0H0v0z m366.8919 356.4189v0l38.8513-67.5675-38.8513-67.5676-38.8514-67.5676H250v0 0h-78.0405l-38.8514 67.5676v0 0l-38.8513 67.5676 38.8513 67.5675v0l38.8514 67.5676H250v0h78.0405z" stroke="none" fill="black" stroke-width="0"/></svg>
                  </pattern>
                </defs>
              <rect width="200" height="200" fill="url(#Pattern_spized_pattern_1_2)" />
            </svg>