<?xml version="1.0" encoding="UTF-8"?>
<svg xmlns="http://www.w3.org/2000/svg" version="1.1" xmlns:xlink="http://www.w3.org/1999/xlink" viewBox="0 0 32 26">
  <defs>
    <style>
      .cls-1 {
        fill: none;
      }

      .cls-2 {
        isolation: isolate;
      }

      .cls-3 {
        mix-blend-mode: overlay;
      }

      .cls-4 {
        clip-path: url(#clippath);
      }
    </style>
    <clipPath id="clippath">
      <rect class="cls-1" width="32" height="26"/>
    </clipPath>
  </defs>
  <!-- Generator: Adobe Illustrator 28.7.1, SVG Export Plug-In . SVG Version: 1.2.0 Build 142)  -->
  <g class="cls-2">
    <g id="Ebene_1">
      <g id="_x32_">
        <g class="cls-4">
          <g class="cls-3">
            <polygon points="77.7 22.7 71.8 24.7 66 22.7 60.1 24.7 54.3 22.7 48.4 24.7 42.6 22.7 36.7 24.7 30.9 22.7 25 24.7 19.2 22.7 13.3 24.7 7.5 22.7 1.6 24.7 -4.2 22.7 -10.1 24.7 -15.9 22.7 -21.8 24.7 -27.6 22.7 -33.3 24.6 -33.3 25.4 -27.6 23.5 -21.8 25.5 -15.9 23.5 -10.1 25.5 -4.2 23.5 1.6 25.5 7.5 23.5 13.3 25.5 19.2 23.5 25 25.5 30.9 23.5 36.7 25.5 42.6 23.5 48.4 25.5 54.3 23.5 60.1 25.5 66 23.5 71.8 25.5 77.7 23.5 83.4 25.4 83.4 24.6 77.7 22.7"/>
            <polygon points="77.7 20.6 71.8 22.7 66 20.6 60.1 22.7 54.3 20.6 48.4 22.7 42.6 20.6 36.7 22.7 30.9 20.6 25 22.7 19.2 20.6 13.3 22.7 7.5 20.6 1.6 22.7 -4.2 20.6 -10.1 22.7 -15.9 20.6 -21.8 22.7 -27.6 20.6 -33.3 22.6 -33.3 23.4 -27.6 21.5 -21.8 23.5 -15.9 21.5 -10.1 23.5 -4.2 21.5 1.6 23.5 7.5 21.5 13.3 23.5 19.2 21.5 25 23.5 30.9 21.5 36.7 23.5 42.6 21.5 48.4 23.5 54.3 21.5 60.1 23.5 66 21.5 71.8 23.5 77.7 21.5 83.4 23.4 83.4 22.6 77.7 20.6"/>
            <polygon points="77.7 18.6 71.8 20.6 66 18.6 60.1 20.6 54.3 18.6 48.4 20.6 42.6 18.6 36.7 20.6 30.9 18.6 25 20.6 19.2 18.6 13.3 20.6 7.5 18.6 1.6 20.6 -4.2 18.6 -10.1 20.6 -15.9 18.6 -21.8 20.6 -27.6 18.6 -33.3 20.6 -33.3 21.4 -27.6 19.5 -21.8 21.5 -15.9 19.5 -10.1 21.5 -4.2 19.5 1.6 21.5 7.5 19.5 13.3 21.5 19.2 19.5 25 21.5 30.9 19.5 36.7 21.5 42.6 19.5 48.4 21.5 54.3 19.5 60.1 21.5 66 19.5 71.8 21.5 77.7 19.5 83.4 21.4 83.4 20.6 77.7 18.6"/>
            <polygon points="77.7 16.6 71.8 18.6 66 16.6 60.1 18.6 54.3 16.6 48.4 18.6 42.6 16.6 36.7 18.6 30.9 16.6 25 18.6 19.2 16.6 13.3 18.6 7.5 16.6 1.6 18.6 -4.2 16.6 -10.1 18.6 -15.9 16.6 -21.8 18.6 -27.6 16.6 -33.3 18.6 -33.3 19.4 -27.6 17.4 -21.8 19.5 -15.9 17.4 -10.1 19.5 -4.2 17.4 1.6 19.5 7.5 17.4 13.3 19.5 19.2 17.4 25 19.5 30.9 17.4 36.7 19.5 42.6 17.4 48.4 19.5 54.3 17.4 60.1 19.5 66 17.4 71.8 19.5 77.7 17.4 83.4 19.4 83.4 18.6 77.7 16.6"/>
            <polygon points="77.7 14.6 71.8 16.6 66 14.6 60.1 16.6 54.3 14.6 48.4 16.6 42.6 14.6 36.7 16.6 30.9 14.6 25 16.6 19.2 14.6 13.3 16.6 7.5 14.6 1.6 16.6 -4.2 14.6 -10.1 16.6 -15.9 14.6 -21.8 16.6 -27.6 14.6 -33.3 16.6 -33.3 17.4 -27.6 15.4 -21.8 17.4 -15.9 15.4 -10.1 17.4 -4.2 15.4 1.6 17.4 7.5 15.4 13.3 17.4 19.2 15.4 25 17.4 30.9 15.4 36.7 17.4 42.6 15.4 48.4 17.4 54.3 15.4 60.1 17.4 66 15.4 71.8 17.4 77.7 15.4 83.4 17.4 83.4 16.6 77.7 14.6"/>
            <polygon points="77.7 12.6 71.8 14.6 66 12.6 60.1 14.6 54.3 12.6 48.4 14.6 42.6 12.6 36.7 14.6 30.9 12.6 25 14.6 19.2 12.6 13.3 14.6 7.5 12.6 1.6 14.6 -4.2 12.6 -10.1 14.6 -15.9 12.6 -21.8 14.6 -27.6 12.6 -33.3 14.5 -33.3 15.4 -27.6 13.4 -21.8 15.4 -15.9 13.4 -10.1 15.4 -4.2 13.4 1.6 15.4 7.5 13.4 13.3 15.4 19.2 13.4 25 15.4 30.9 13.4 36.7 15.4 42.6 13.4 48.4 15.4 54.3 13.4 60.1 15.4 66 13.4 71.8 15.4 77.7 13.4 83.4 15.4 83.4 14.5 77.7 12.6"/>
            <polygon points="77.7 10.6 71.8 12.6 66 10.6 60.1 12.6 54.3 10.6 48.4 12.6 42.6 10.6 36.7 12.6 30.9 10.6 25 12.6 19.2 10.6 13.3 12.6 7.5 10.6 1.6 12.6 -4.2 10.6 -10.1 12.6 -15.9 10.6 -21.8 12.6 -27.6 10.6 -33.3 12.5 -33.3 13.3 -27.6 11.4 -21.8 13.4 -15.9 11.4 -10.1 13.4 -4.2 11.4 1.6 13.4 7.5 11.4 13.3 13.4 19.2 11.4 25 13.4 30.9 11.4 36.7 13.4 42.6 11.4 48.4 13.4 54.3 11.4 60.1 13.4 66 11.4 71.8 13.4 77.7 11.4 83.4 13.3 83.4 12.5 77.7 10.6"/>
            <polygon points="77.7 8.5 71.8 10.6 66 8.5 60.1 10.6 54.3 8.5 48.4 10.6 42.6 8.5 36.7 10.6 30.9 8.5 25 10.6 19.2 8.5 13.3 10.6 7.5 8.5 1.6 10.6 -4.2 8.5 -10.1 10.6 -15.9 8.5 -21.8 10.6 -27.6 8.5 -33.3 10.5 -33.3 11.3 -27.6 9.4 -21.8 11.4 -15.9 9.4 -10.1 11.4 -4.2 9.4 1.6 11.4 7.5 9.4 13.3 11.4 19.2 9.4 25 11.4 30.9 9.4 36.7 11.4 42.6 9.4 48.4 11.4 54.3 9.4 60.1 11.4 66 9.4 71.8 11.4 77.7 9.4 83.4 11.3 83.4 10.5 77.7 8.5"/>
            <polygon points="77.7 6.5 71.8 8.5 66 6.5 60.1 8.5 54.3 6.5 48.4 8.5 42.6 6.5 36.7 8.5 30.9 6.5 25 8.5 19.2 6.5 13.3 8.5 7.5 6.5 1.6 8.5 -4.2 6.5 -10.1 8.5 -15.9 6.5 -21.8 8.5 -27.6 6.5 -33.3 8.5 -33.3 9.3 -27.6 7.4 -21.8 9.4 -15.9 7.4 -10.1 9.4 -4.2 7.4 1.6 9.4 7.5 7.4 13.3 9.4 19.2 7.4 25 9.4 30.9 7.4 36.7 9.4 42.6 7.4 48.4 9.4 54.3 7.4 60.1 9.4 66 7.4 71.8 9.4 77.7 7.4 83.4 9.3 83.4 8.5 77.7 6.5"/>
            <polygon points="77.7 4.5 71.8 6.5 66 4.5 60.1 6.5 54.3 4.5 48.4 6.5 42.6 4.5 36.7 6.5 30.9 4.5 25 6.5 19.2 4.5 13.3 6.5 7.5 4.5 1.6 6.5 -4.2 4.5 -10.1 6.5 -15.9 4.5 -21.8 6.5 -27.6 4.5 -33.3 6.5 -33.3 7.3 -27.6 5.3 -21.8 7.4 -15.9 5.3 -10.1 7.4 -4.2 5.3 1.6 7.4 7.5 5.3 13.3 7.4 19.2 5.3 25 7.4 30.9 5.3 36.7 7.4 42.6 5.3 48.4 7.4 54.3 5.3 60.1 7.4 66 5.3 71.8 7.4 77.7 5.3 83.4 7.3 83.4 6.5 77.7 4.5"/>
            <polygon points="77.7 2.5 71.8 4.5 66 2.5 60.1 4.5 54.3 2.5 48.4 4.5 42.6 2.5 36.7 4.5 30.9 2.5 25 4.5 19.2 2.5 13.3 4.5 7.5 2.5 1.6 4.5 -4.2 2.5 -10.1 4.5 -15.9 2.5 -21.8 4.5 -27.6 2.5 -33.3 4.5 -33.3 5.3 -27.6 3.3 -21.8 5.3 -15.9 3.3 -10.1 5.3 -4.2 3.3 1.6 5.3 7.5 3.3 13.3 5.3 19.2 3.3 25 5.3 30.9 3.3 36.7 5.3 42.6 3.3 48.4 5.3 54.3 3.3 60.1 5.3 66 3.3 71.8 5.3 77.7 3.3 83.4 5.3 83.4 4.5 77.7 2.5"/>
            <polygon points="77.7 .5 71.8 2.5 66 .5 60.1 2.5 54.3 .5 48.4 2.5 42.6 .5 36.7 2.5 30.9 .5 25 2.5 19.2 .5 13.3 2.5 7.5 .5 1.6 2.5 -4.2 .5 -10.1 2.5 -15.9 .5 -21.8 2.5 -27.6 .5 -33.3 2.4 -33.3 3.3 -27.6 1.3 -21.8 3.3 -15.9 1.3 -10.1 3.3 -4.2 1.3 1.6 3.3 7.5 1.3 13.3 3.3 19.2 1.3 25 3.3 30.9 1.3 36.7 3.3 42.6 1.3 48.4 3.3 54.3 1.3 60.1 3.3 66 1.3 71.8 3.3 77.7 1.3 83.4 3.3 83.4 2.4 77.7 .5"/>
          </g>
        </g>
      </g>
    </g>
  </g>
</svg>