<?xml version="1.0" encoding="UTF-8"?>
<svg xmlns="http://www.w3.org/2000/svg" version="1.1" xmlns:xlink="http://www.w3.org/1999/xlink" viewBox="0 0 32 26">
  <defs>
    <style>
      .cls-1 {
        fill: none;
      }

      .cls-2 {
        clip-path: url(#clippath-1);
      }

      .cls-3 {
        clip-path: url(#clippath);
      }
    </style>
    <clipPath id="clippath">
      <rect class="cls-1" x=".1" y="-.1" width="32.1" height="26.4"/>
    </clipPath>
    <clipPath id="clippath-1">
      <rect class="cls-1" x="-67.9" y="-89.7" width="128.6" height="128.6"/>
    </clipPath>
  </defs>
  <!-- Generator: Adobe Illustrator 28.7.1, SVG Export Plug-In . SVG Version: 1.2.0 Build 142)  -->
  <g>
    <g id="Ebene_1">
      <g id="_x33_">
        <g class="cls-3">
          <g class="cls-2">
            <g>
              <path d="M42.2-.6c-.1-.2-.2-.3-.4-.5,0,0,0-.1,0-.2,0,0,0,0,.1,0,.1,0,.3,0,.4.1,0,0,.2,0,.2-.2,0,0,0-.1,0-.2,0,0,0,0-.1,0-.2,0-.4-.1-.6-.2-.2,0-.3-.2-.4-.3-.1-.2-.3-.4-.4-.6,0,0-.2-.2-.3-.2-.2,0-.2-.2,0-.4,0,0,0,0,0,0,0-.1,0-.2,0-.3-.1,0-.2,0-.3,0-.1.1-.2.3-.3.4,0,.1,0,.2-.2.3-.1,0-.2-.2-.4-.2-.1,0-.3,0-.5-.1,0,0-.1,0-.2,0,0,0-.1-.2,0-.3.3-.5.6-.6,1-.4,0,0,.2,0,.3.1.2,0,.3,0,.4,0,.1-.1.3-.2.5-.2,0,0,.1,0,.2-.1,0-.1.2-.2.3-.2,0,0,.2,0,.2,0,.2-.1.4,0,.6,0,0,0,.1,0,.2,0,0,0,.1,0,.1-.1,0,0,0-.1,0-.2,0-.2,0-.3,0-.5,0,0,0-.1,0-.2,0,0,.1,0,.2.2,0,.1,0,.3.1.4,0,0,0,0,.1.1,0-.2,0-.3.2-.4.1-.2.3-.2.4,0,.1.1.2.3.3.4.2.2.4.4.7.5.2,0,.4.2.6.2,0-.2-.1-.3-.1-.5,0,0,0-.1,0-.2,0,0,.1,0,.2,0,.2.1.3.2.4.3.1,0,.1-.1.1-.2,0-.4-.2-.8-.4-1.1,0-.1-.2-.2-.3-.3-.1,0-.1-.2,0-.3.1,0,.2-.2.4-.3,0,0,0,.1.1.2,0,.2.2.4.5.5.2,0,.4.2.4.4.1.3.3.3.6.2.1,0,.2,0,.2.2,0,.2,0,.3-.3.4-.2,0-.4.2-.6.3,0,0,0,0,0,.2.1.2.3.3.5.4.1,0,.3,0,.4,0,.1-.1.2-.2.3-.3,0-.1.2-.2.4-.1.1,0,.2,0,.3,0,0,0,0,0,0,0,0,0,0-.1,0-.2,0,0-.1,0-.2-.1,0,0-.1-.2-.1-.3,0,0,0-.2,0-.2,0-.4,0-.6-.3-.8-.1-.1-.2-.2-.3-.3,0,0,0-.3.1-.3,0,0,.2,0,.3,0,.1,0,.2,0,.3.1.3.2.5.1.7,0,.1,0,.2-.2.2-.3,0,0,0-.1,0-.2,0-.2.1-.4.3-.4,0,0,.1,0,.2,0,0-.1,0-.2,0-.4,0,0,.1,0,.2,0,.2,0,.3-.2.3-.4,0,0,0-.2,0-.3-.1-.2-.2-.3-.4-.5,0,0-.1,0-.2,0,0,0-.1,0-.2,0,0,0,0-.2,0-.3.2-.2.3-.4.6-.5.1,0,.3-.1.3-.3,0,0,0,0,0-.1-.3-.1-.3-.3-.3-.6,0-.3.2-.6.5-.8.3-.2.5-.2.8,0,.2.2.3.1.5,0,0,0,.2-.2.3-.2,0,0,.2,0,.3,0,0,0,.1.1.1.2,0,0,0,0,0,0-.2.3-.2.6,0,.9,0,0,0,.2,0,.3,0,.2.2.3.4.4.1,0,.2,0,.3.1.4.1.5,0,.6-.3,0-.1,0-.2,0-.4.2,0,.3,0,.4,0,.2-.1.4-.3.5-.4,0-.1,0-.2,0-.3,0,0-.2-.2-.2-.3,0,0-.2-.1-.3,0-.1,0-.2.2-.3.2,0,0-.2,0-.2,0,0,0,0-.1,0-.2,0-.1.1-.3.2-.4,0-.1.1-.3.2-.4,0-.2.2-.3.4-.4.2-.1.4,0,.5.2,0,0,0,.2,0,.3,0,.3.2.5.5.6.1,0,.2.2.2.4,0,.2-.1.4-.3.6-.1.1-.3.3-.4.4-.1,0,0,.3.1.3.2,0,.3,0,.5,0,.1,0,0,.2,0,.3,0,.2,0,.4,0,.5,0,.2-.3.2-.4.3,0,0,0,0,0,0-.1.1-.2.3-.3.4-.1.1-.3.2-.4.3,0,0,.1,0,.1,0,.4,0,.7,0,1,0,.2,0,.4,0,.6-.2.1-.1.3-.3.4-.4.2-.3.1-.7-.2-.9,0,0-.1,0-.2,0-.1,0-.1-.2,0-.3,0-.1.2-.2.3-.3.3-.2.3-.2.5-.5.1,0,.1,0,.1.1,0,.1,0,.2,0,.3,0,.3,0,.5,0,.8,0,.3,0,.6,0,.9-.1.3-.1.6,0,.8,0,0,0,.1,0,.2,0,.2,0,.3,0,.4-.2.2-.4.5-.6.7,0,0-.1,0-.2,0,0,0,0-.1,0-.2,0-.1,0-.3.1-.4,0,0,0-.2,0-.2,0,0,0-.2-.2-.1-.3.1-.5,0-.8,0-.1,0-.3,0-.5,0,0,0-.2,0-.2,0,0,0,0,0,0,.1,0,0,0,.1,0,.1.3,0,.4.2.5.4,0,.2.2.3.5.4.2,0,.3.2.2.5,0,.1,0,.3-.1.4,0,.2,0,.4.2.5.1.1.3,0,.4-.1,0-.1,0-.3,0-.4,0-.2.2-.4.4-.3.1,0,.2,0,.3.1.1,0,.2.2.1.3,0,.1-.1.3,0,.4,0,.2.2.3.4.4,0,0,.2.1.3.2,0,0,0,.2,0,.2,0,0,0,0-.1,0,0,0-.1,0-.3,0,0,.1-.1.2-.2.4,0,.1-.2.2-.3.3,0,0,0,.1.1.2.3.2.4.6.3.9,0,.2,0,.5-.1.7,0,.2,0,.3.2.4.2,0,.5.2.7.3.1,0,.2.1.3.2.1,0,0,.3,0,.4,0,0,0,0-.1,0-.4,0-.5.3-.7.6,0,.2.2.3.3.4.1.1.1.3,0,.4,0,.1,0,.2-.1.3-.1.4-.1.4-.5.2-.1,0-.2.3-.4.2-.3,0-.4.2-.5.4,0,0,0,.2,0,.2,0,0,.1,0,.2,0,.2,0,.4,0,.6,0,0,0,.2,0,.3,0,.2-.1.4-.1.6,0,0,0,.2,0,.2,0,.2,0,.4,0,.5.3,0,0,0,.1.1.1,0,0,.2,0,.2,0,.2,0,.3-.3.5-.2.1,0,.2.3.3.4.2.1.2.3.2.5,0,0,0,.1,0,.2,0,.2.2.2.3.2.1,0,.3-.1.3-.2,0-.3,0-.5.1-.7,0-.2-.1-.4-.3-.5,0,0-.1,0-.2,0-.2,0-.3,0-.5-.1-.2-.1-.3-.1-.5,0,0,0-.1,0-.2,0,0,0-.2,0-.2-.2,0,0,0-.1,0-.2,0-.2,0-.4,0-.6,0-.4,0-.7.2-1,0,0,.1-.2.1-.3,0-.2.2-.2.3-.4-.6-.3-.6-.4-.5-.9.2-.1.3.2.5.1,0-.1,0-.2,0-.4,0,0,.1,0,.2,0,.2,0,.4,0,.5-.2,0,0,.1-.1.2-.1.3,0,.5,0,.7,0,.2,0,.4,0,.6.2,0,0,.2.2.3.2.3,0,.4.2.5.4,0,.2.2.2.3.1.1,0,.2-.2.3-.3,0-.1,0-.2,0-.3-.1-.3,0-.6.3-.8,0,0,.2,0,.2,0,0,0,0,.1,0,.2,0,.1,0,.2-.1.3,0,.3,0,.5.2.7,0,0,.1,0,.2,0,0,0,0-.1,0-.1,0-.1,0-.2,0-.3q.4-.4.6-.8c0,0-.2-.2-.3-.3,0,0,0-.2,0-.3,0-.1,0-.2.2-.2.1,0,.2,0,.3,0,0-.2.2-.3.2-.4V-.8c0,0-.1-.2-.3,0,0,0,0,.2,0,.3,0,.2,0,.3-.2.5,0,0-.1.1-.2.2-.4.3-.8.5-1.3.3,0,.1-.2.2-.2.3,0,0-.1,0-.1-.1,0-.2-.2-.2-.4-.1-.2,0-.4.1-.5.2-.2,0-.4,0-.6,0-.1,0-.2-.2-.2-.3,0-.1,0-.3,0-.4,0-.1-.1-.3-.2-.3-.2,0-.3,0-.4.2,0,0,.1,0,.2,0,0,0,.1,0,.2.1,0,0,0,.2,0,.2,0,0-.2,0-.3.1-.2.1-.3.3-.4.5,0,.1,0,.3,0,.4.1.2.2.5.3.7,0,0,.2,0,.2,0,.2-.3.5-.5.7-.7.3.1.5.3.8.4,0,0,.1-.2.2-.3.1-.2.3-.2.5-.1,0,0,.2,0,.3.1.3.2.3.2.7.2,0,.1,0,.2.1.4,0,0,0,0,0,0q.2-.4.6-.5c-.3-.4-.4-.5-.8-.3,0,0-.2,0-.3,0,0,0-.1,0-.1,0,0,0,0-.1,0-.2.3-.3.8-.4,1.2-.1.2.1.3.3.5.4v4.6c-.1.2-.1.3,0,.5v38.6h-24.8c-.2-.1-.4-.1-.6,0h-.5c0-.1,0-.2,0-.3,0-.3.1-.6.1-.9,0-.3-.2-.5-.4-.4-.2,0-.4.1-.5.2,0,0,0,0,0,.1.6.4.7.6.5,1.2h-3.4c-.1-.2-.1-.2-.4,0h-.2s0,0,0-.1c-.2-.2-.3-.2-.4,0,0,0,0,0,0,0h-1.1c-.1,0-.3-.1-.4-.1-.5,0-1,0-1.6,0-.1,0-.3,0-.4.1h-.5c-.2-.1-.4-.1-.6,0h-.6c-.1-.2-.2-.4-.3-.5,0,0-.1,0-.2,0,0,0-.1,0-.1.2,0,.2,0,.3,0,.5h-3.9c0-.2,0-.4,0-.6,0-.1,0-.3.2-.3,0,0,.2,0,.3,0,.1,0,.2.2.3.3,0,0,.1,0,.2,0,.1-.1,0-.2,0-.4,0-.2.1-.3.3-.2.2.1.4.2.5.3.1,0,.3.2.4.3.1,0,.1,0,.2-.2,0-.1,0-.3,0-.4,0-.1,0-.2,0-.3.1-.3.2-.6.3-.9,0-.1.2-.2.3-.2.1,0,.2,0,.3,0,0,0,.2,0,.3,0,.2,0,.3-.2.3-.4,0-.2,0-.4,0-.6,0,0-.1,0-.2,0-.1,0-.2.2-.3.2-.1,0-.2,0-.2-.2,0,0,0,0,0-.1,0,0,0-.2,0-.3,0,0-.3,0-.4,0-.1.1-.3.3-.4.4-.2,0-.3,0-.5-.2-.2-.2-.2-.5,0-.7,0,0,.1,0,.2,0,.6,0,1.1-.1,1.7,0,.2,0,.4,0,.6,0,.1,0,.3,0,.3-.3,0,0-.1,0-.2,0-.1,0-.2-.2,0-.2.2-.2.4-.4.7-.7,0,0,.2,0,.3,0,0,.1.1.2.2.3,0,.1.2.1.3,0,.1-.3.4-.6.3-1,0-.1,0-.2.2-.2,0,0,.1,0,.2,0,0-.1,0-.2,0-.2,0-.1-.2-.2-.3-.2-.2,0-.4-.1-.5-.3-.1-.2-.3-.4-.5-.5-.3-.2-.3-.6-.2-.9,0,0,.1-.2.2-.1.3,0,.4,0,.6-.2.1-.1.2,0,.3,0,0,0,0,.2.1.2,0,0,.1,0,.1,0,.1-.2.3-.4.4-.6.1-.2.1-.3,0-.5-.2-.3-.3-.5-.5-.8,0,0,0-.2,0-.3,0,0,0,0,0,0,0,0,0,0,.1,0,.2.2.5.4.5.7,0,.2.2.3.3.5.1.2.1.3,0,.5,0,0,0,.2,0,.3,0,0,0,.2,0,.3-.1.1-.2.3-.4.5,0,0,0,.2-.1.3,0,0,0,.2.1.2,0,0,.1,0,.2,0,.4,0,.7,0,1.1-.2.1,0,.1-.2,0-.3,0,0,0,0,0,0-.1,0-.3-.2-.2-.4,0-.2.3-.4.6-.4,0,0,.2,0,.2,0,.1,0,.2,0,.2-.1,0,0,0-.2,0-.2-.1-.1-.3-.2-.3-.4,0-.1-.2,0-.3-.1,0,0-.1-.2,0-.2.2-.2.4-.3.6-.1.1.1.3.2.4.3.2.2.5,0,.5-.2,0-.3,0-.6,0-.9-.2-.1-.4.1-.5,0,0-.2,0-.2.1-.4,0,0,0-.2,0-.3,0,0,0-.1,0-.2,0,0,.1,0,.2,0,.5,0,.7-.3.7-.7,0-.2-.2-.2-.4-.3-.1,0-.3-.2-.4-.3,0,0,0-.2,0-.3q.2-.2.3-.6c.2-.1.5-.2.6-.5,0-.1.2-.2.4-.2.1,0,.3,0,.4,0,.2-.3.1-.6,0-.8,0-.1-.2-.2-.3-.2-.2,0-.3,0-.5,0,0-.1,0-.2,0-.2.2-.2.3-.4.3-.7,0,0,0-.1,0-.2.2-.3.5-.3.7,0,0,.1.1.2.2.4,0,.2,0,.3.2.4.2.2.2.2.2.7-.1,0-.2,0-.3,0-.1.1,0,.3,0,.5,0,.3.1.7.1,1,0,0,0,.1,0,.2,0,0,.2.1.2,0,.2-.2.4-.5.3-.9-.1-.2,0-.5.2-.6,0,0,.2,0,.2,0,0,0,0,0,0,0,.1.3.3.6.4.9,0,.3.2.6,0,.9.1,0,.2,0,.2,0,0,0,.1,0,.2-.2,0,0,0-.2,0-.2-.1-.4,0-.7.2-1,0,0,0-.1,0-.1q-.3-.4-.2-1c0-.1-.1-.2-.2-.4,0-.1,0-.2,0-.3,0-.1.1-.2.3-.2,0,0,.1,0,.2,0,0,0,.2,0,.2-.1,0,0,0-.2,0-.2-.1,0-.2-.1-.4-.2.2-.2.6,0,.8-.2-.2-.6-.2-.6-.2-1.5.2,0,.1.2.2.3.1.4.8.4.9,0,0,0,0-.2.1-.3,0,0,0-.1,0-.2.5,0,.6,0,1,.4.1-.2.1-.3,0-.5-.1-.3-.3-.5-.5-.7,0,0-.1,0-.2-.1-.1,0-.2,0-.3-.1,0,0,0-.2,0-.2.2-.2.2-.5.1-.8,0-.2,0-.3-.1-.5,0,0,0-.1-.2-.1,0,0-.1,0-.2.1,0,.1,0,.2,0,.3,0,.1.1.2.2.4,0,.1,0,.3-.1.4-.1,0-.3,0-.4.1-.5,0-.5,0-.6.6,0,0,0,.2,0,.3,0,0,0,0,0,0-.1,0-.1,0-.2-.1,0-.2-.1-.4-.2-.6-.3,0-.7,0-1-.1,0-.1,0-.2.1-.3.1,0,.2-.2.2-.3,0-.3.2-.3.4,0,0,0,.1.1.2.2.1,0,.3,0,.4,0,0,0,.1-.2.1-.3,0-.1,0-.3,0-.4,0,0,.1,0,.1,0,.2,0,.2.1.3,0,.1-.2,0-.4,0-.5-.1,0-.3,0-.4-.1,0,0,0,0,0,0,0,0,0-.1,0-.1.1,0,.3,0,.4,0,.2,0,.3,0,.4-.2.1-.3.4-.4.7-.3,0,0,.1,0,.2,0,0,0,0-.1,0-.2-.1,0-.2,0-.3-.1-.2,0-.4-.2-.6-.3-.1-.1-.1-.3,0-.4.1-.1.3-.2.5-.1.3,0,.4-.1.5-.4.1-.3.1-.5,0-.7.1-.2.3-.4.3-.6,0-.3-.1-.5-.3-.8,0,0,0,0-.1.1,0,.2,0,.3-.2.5-.1.1-.2.3,0,.5,0,0,0,.1,0,.2,0,0-.1.2-.2.2,0,0-.1,0-.2,0-.7-.1-.8-.2-.4-.9,0,0,0-.1.1-.2.1-.3.1-.5-.1-.7,0,0,0,0,0-.2.3-.5.2-1,.3-1.5,0-.2,0-.5.2-.7.1-.2.2-.4,0-.7,0-.1,0-.3-.1-.4,0-.2-.1-.3,0-.5,0-.2,0-.4-.1-.5,0-.1-.1-.3-.2-.4,0-.3,0-.3.2-.6,0-.1,0-.2-.2-.2-.2-.2,0-.4.2-.5.2,0,.3,0,.4.1.1.1.3.3.4.4,0,0,.2.2.4.1,0-.1,0-.2,0-.4,0,0,0,0,.1,0,.1,0,.3,0,.3-.2.1-.2.2-.5.3-.8-.1,0-.3-.2-.4-.3,0-.3,0-.5,0-.8,0-.2.1-.3.3-.3.1,0,.2,0,.2.1,0,.4.4.6.3,1.1,0,0,0,.1,0,.1.1,0,.2.2.3.2,0,0,.2,0,.2-.1,0,0,0-.2,0-.2,0-.1,0-.2.2-.2.1,0,.2,0,.3,0q.5.1,1-.2c0-.1-.1-.1-.2-.2,0,0-.2-.1-.2-.2,0,0,0-.2,0-.4.3,0,.5,0,.8.1.1,0,.3.1.4.2,0,0,.2.2.3.2,0,0,.2,0,.2,0,.1,0,.1-.1.1-.2,0,0,0-.2,0-.3.2,0,.5,0,.7-.2,0,0,.2-.1.2-.2,0-.2.2-.3.4-.5,0-.2,0-.2-.1-.3-.1-.2-.1-.4,0-.7.4,0,.8,0,1.1,0,0,.1,0,.2,0,.2,0,0,0,.2-.1.3q-.2.4.2.8s0,0,0,0c0,0,0,0,0,.1,0,.6-.1.4.2.9,0,0,0,.1,0,.2q.2.3.5,0s0,0,0,0c0,0,0,0,.1,0,0,0,0,.1,0,.1,0,.1,0,.2-.1.3,0,.1-.2.3-.3.4-.2.3-.3.3-.7,0,0,0-.1-.1,0-.3,0,0,0-.2,0-.3,0-.1,0-.2-.1-.2,0,0-.2,0-.3,0,0,.1-.2.3-.3.5.2.3.4.6.5.9,0,0,0,.2.1.2.2.2.4.4.5.6,0,0,.2,0,.3,0,.1,0,.2-.2.3-.2.2-.1.2-.3.2-.5,0,0,0-.2,0-.2,0-.2,0-.3.2-.4,0,0,.1,0,.2-.1.2-.1.2-.2.2-.4,0-.3,0-.6-.1-.9,0,0,0-.2,0-.3,0-.4.2-.5.5-.4,0,0,.2,0,.3,0,0,0,0,.1.1.2,0,.2.1.4.4.5,0,0,.1,0,.1,0,0,0,0,.1,0,.2,0,.1-.1.2-.1.3,0,.1,0,.2,0,.4-.2,0-.3.2-.5.2-.1,0-.1.2,0,.3.1.1.3.2.4.4.1.1.3.2.4.1,0,0,0,0,.1,0,.5-.2.5-.1.8.2,0,0,.2.2.2.3,0,0,.2,0,.3,0,0,0,0-.2,0-.2-.1-.3-.3-.5-.4-.8,0,0,.1,0,.2,0,.1,0,.2,0,.3.1,0,0,.1-.1.1-.2,0-.2.2-.4.3-.6.2-.2,0-.5-.3-.6-.2,0-.3,0-.3.3,0,0,0,.2,0,.3,0,0,0,.1-.1.2,0,0-.2,0-.2,0,0,0,0,0,0-.1,0-.3-.2-.4-.4-.6-.1,0-.3-.2-.4-.3-.1,0-.1-.3,0-.4.1-.1.2-.2.4-.3.1-.1.2-.2.2-.4,0-.2,0-.3.1-.5-.1-.1-.3,0-.5-.1,0,0-.1-.1-.1-.2,0,0,0-.1.1-.2.1,0,.3,0,.5,0,.2,0,.3,0,.5.1,0,0,.2-.1.3-.2.1,0,.3.1.4.2.1-.1,0-.3,0-.4,0-.2,0-.3.2-.4,0,0,.2,0,.2,0,0,0,.1.1.1.2,0,.2,0,.3,0,.5,0,0,.1.2.2.1.1,0,.2-.1.3-.2.1.1.3.2.4.3,0,0,.2,0,.3,0,0-.3.1-.5,0-.8,0,0-.2,0-.2,0-.2,0-.3,0-.5,0-.2-.2-.3-.3-.6-.3,0,0-.1,0-.2,0-.1,0-.2-.2-.2-.3,0-.1,0-.3.2-.3.2,0,.3,0,.5-.2.3-.1.3-.1.6.2.1,0,.2,0,.2-.1.1-.2.2-.5.3-.7.1,0,.2,0,.2.2,0,.3,0,.6-.2.9-.3.4-.2.6.3.6,0,0,.2,0,.3,0,.1,0,.2.1.2.4h-.3c0,.2-.1.4-.2.6,0,0,0,.1,0,.2,0,0,.2,0,.2,0,.1,0,.2-.1.4-.2.1,0,.3.1.4.2,0,0,.1,0,.2,0,0,0,0-.1,0-.2,0,0,0-.1,0-.2,0,0-.2-.2,0-.3.1,0,.2,0,.3,0,0,0,.1,0,.1,0,0,0,0-.2,0-.2,0,0-.2-.2-.3-.3-.1,0-.2-.2,0-.3.2-.4.1-.6-.2-.8-.2-.1-.3-.3-.4-.5,0-.2.2-.1.3-.2.1-.1.2-.3,0-.4-.1-.2-.3-.3-.5-.4-.2,0-.5-.1-.7-.2-.2-.1-.3-.3-.3-.5.2-.6,0-1.1-.1-1.6,0-.2-.1-.4-.1-.6,0-.3-.1-.6-.4-.8-.2-.2-.3-.4-.2-.6,0,0,0-.1,0-.2,0-.1-.2,0-.3-.1-.1,0-.2,0-.3-.1,0,0,0-.2,0-.2,0,0,0,0,.1,0,.2,0,.2-.2.3-.3,0-.3.3-.5.6-.7,0,0,.2,0,.3,0,0,0,0,0,0,0,0,0,0,0,0,.1,0,0-.1,0-.2.1-.1,0-.3,0-.3.2,0,.1.1.2.2.2.2.1.3.2.5.3,0,0,.2.1.3.2.1.1.1.2,0,.4-.1.2-.2.3-.3.5,0,.1,0,.2.1.2,0,0,.1.2.1.2,0,.2,0,.4.2.6,0,.2.2.3.3.5.2.2.4.1.5-.2,0,0,0-.2,0-.3,0-.1.2-.2.3-.1.2,0,.3.1.5.2,0,0,0,0,0,0,0,0,0,0,0-.1-.3-.2-.4-.6-.8-.6-.1,0-.2-.1-.1-.3,0,0,0-.2,0-.3-.2-.3-.5-.5-.7-.8,0-.2.2-.2.3-.3.2-.2.3-.4.2-.7-.1-.3-.2-.7-.6-.8-.1,0-.2-.2-.2-.3,0-.2-.1-.3-.3-.4-.3,0-.3-.3-.4-.5,0-.2-.1-.2-.3,0,0,0,0,0,0,0,0,0-.2,0-.2,0-.3-.1-.5-.3-.7-.5,0,0,0-.2,0-.2,0,0,0,0,0,0q.4-.2.4-.6s0,0,0-.1c0-.1,0-.3-.2-.3-.2,0-.3-.1-.5,0,0,0-.1,0-.2,0,0,0-.1-.2,0-.3,0,0,0,0,.1-.1,0,0,.1,0,.2-.2,0,0,0-.2,0-.3-.1,0-.2-.1-.3-.2-.3,0-.6-.2-.8-.4-.2-.1-.3-.1-.4,0,0,0-.2.1-.3.2-.2.2-.2.4-.2.6,0,0,0,.2.1.2.5.2.8.5,1.1.9,0,0,.1.1.2.1,0,0,0,0,0,.1,0,.4,0,.7.5.9.2,0,.2.2.3.4,0,.2,0,.4.1.6,0,0,0,.2,0,.2,0,0-.2,0-.2,0-.2-.2-.3-.4-.6-.6,0,0-.1-.2-.1-.2,0,0,0-.2-.1-.3-.1,0-.2,0-.3,0,0,0,0,0,0,0,0-.1,0-.2,0-.3,0-.1,0-.2,0-.3,0,0,0-.2,0-.3,0-.2-.1-.2-.2-.2-.2,0-.3.2-.4.4,0,.1,0,.3-.1.4-.1,0-.2,0-.3,0,0,.1,0,.2,0,.3,0,.1-.1.2-.3.1-.3-.1-.6-.3-.7-.6,0,0,0-.2-.1-.2-.1-.1-.4-.1-.5,0,0,0,0,.2,0,.2,0,0,.1,0,.2,0,.2,0,.3.1.3.3,0,.1,0,.3-.1.3-.3,0-.4.1-.5.4-.2,0-.3,0-.5,0,0,0,0,.1,0,.2,0,.2,0,.4,0,.6,0,0,0,.2,0,.2,0,0,.1,0,.2,0,0,0,0,0,.1-.1,0,0,.2,0,.2,0,0,.2,0,.5,0,.7,0,.1,0,.3,0,.4,0,.3.1.4.4.5,0,0,.2,0,.2-.1,0,0,0-.1,0-.2,0-.1,0-.3,0-.4.1-.2.3-.5.4-.7,0-.2,0-.3-.1-.5.1-.2.3-.4.5-.5,0,0,.1,0,.2-.1.1,0,.2,0,.2.2,0,0,0,.2,0,.2,0,.2,0,.4,0,.5,0,0,0,.1,0,.1,0,.1-.1.2-.2.2-.3.1-.4.3-.6.5,0,.1,0,.2,0,.3,0,0,.2.2.2.3.2.2.3.2.6,0,0,0,0,0,.1,0q0,.2,0,.7c-.2,0-.4,0-.6,0-.2,0-.3.2-.5.3,0,0-.2,0-.2-.1-.1-.1-.3-.2-.5-.1-.1,0-.2,0-.3,0-.3-.1-.5-.1-.8-.1,0,0-.1,0-.2,0-.1,0-.2-.1-.3-.2,0,0,0,0-.1,0-.1,0-.2.2-.4.1-.2,0-.2.2-.4.2,0,0,0,0,0-.1,0-.2-.1-.4-.2-.7-.2-.4-.3-.9,0-1.3.1-.2,0-.4,0-.7,0,0-.1,0-.2,0-.2,0-.3.2-.3.4,0,0,0,.2,0,.3,0,0-.1.1-.2.1,0,0-.2,0-.2,0,0,0-.1-.2-.2-.3,0-.1,0-.2,0-.3,0,0,.1-.2.1-.2,0,0,0-.2,0-.3-.2-.3-.5-.4-.8-.4,0,0-.1,0-.2,0-.1.2-.3.3-.4.5,0,.2,0,.4.2.4.1,0,.2,0,.3,0,.2.1.3.3.3.6,0,.1,0,.2-.1.3-.1,0-.3.2-.5.3,0-.1-.1-.2-.2-.3,0-.1,0-.2-.1-.3,0,0,0,0-.1,0,0,0,0,0,0,0,0,.1,0,.3.1.4.1.4,0,.6-.3.8-.3.1-.5.4-.6.6-.1.2-.3.4-.6.4,0,0,0,0-.1-.1ZM55.3,43c0,.1,0,.3.3.4,0-.2-.2-.3-.3-.4,0,0,.1-.2.2-.3.2-.2.2-.4.2-.6,0,0,0-.1-.2-.2,0,.3-.2.4-.3.6,0,0,0,.2,0,.2,0,0,.1.1.2.2ZM44,25.7c0,0-.2,0-.3,0-.2,0-.4,0-.5-.3,0-.2,0-.4.2-.5,0,0,.1,0,.2-.1,0,0,0,0,0-.1,0,0,0,0,0,0-.2,0-.4.1-.6.1-.5,0-.9,0-1.3-.3-.2-.1-.3,0-.4.1,0,.1-.1.2,0,.3,0,0,.2,0,.3-.1,0,0,.1.2.2.2,0,0,.2,0,.3.1,0,0,.1.2,0,.2,0,0-.1.1-.2.2,0,0-.2.1-.2.2,0,.3-.3.4-.4.7.1.2.2.4.4.6.3,0,.5.1.6.4,0,.2.2.3.4.4.2.2.3.2.7.2-.5-.2-.7-.4-.9-.9,0-.1.1-.2,0-.4,0-.1-.1-.3-.2-.4,0,0,0,0,0,0-.1-.3,0-.5.2-.7,0,0,.3,0,.3,0,0,.1,0,.2,0,.3,0,.2,0,.5,0,.7,0,.2,0,.3,0,.5,0,0,0,.1.2,0,0-.2,0-.3-.1-.5,0-.3,0-.6.4-.7.2,0,.3-.2.4-.4.2,0,.3,0,.5,0,0,.1,0,.2,0,.4,0,.1,0,.2.1.3,0,0,0,0,0,0,0,0,.1,0,.1-.1,0-.3,0-.7-.1-1,0-.2-.3-.3-.5-.3-.2,0-.2.2-.2.3,0,0,0,.2,0,.3ZM47,15.7c0,0,0,.1,0,.2,0,.5.2.5.6.4.2,0,.3-.1.3-.3,0,0,0-.1.2-.1,0,0,0,.2,0,.3,0,.2,0,.3-.1.5,0,.1,0,.2.2.2.1,0,.3,0,.4,0,.1,0,.3.1.4,0,.2-.5.2-.7-.2-1,0,0-.2-.1-.2-.2-.2-.2-.5-.3-.8-.2-.3,0-.5.1-.8.2.1-.5.2-.5.6-.6.1,0,.3,0,.4,0,0,0,.2-.2,0-.2-.2-.2-.4-.5-.7-.4-.2,0-.3,0-.5-.2-.2-.2-.5-.3-.8-.4,0,0-.1,0-.2,0,0,0,0,.2,0,.3,0,0,.2,0,.3.1.2,0,.2.2.2.4,0,.3-.2.6-.3.9,0,0-.1,0-.2,0,0,0-.1,0-.1-.1,0,0,0-.2,0-.3,0,0-.2-.1-.3-.2,0,0-.2-.2-.2-.2,0,.3,0,.3,0,.4.1.2.2.4.1.6,0,.4,0,.8.2,1.3,0,0,0,0,0,.1,0,0,0,0,0,0,0,0,0,0-.1,0,0,0-.1,0-.1.2,0,0,.1.1.2,0,.1,0,.2,0,.3-.2.2-.3.5-.4.8-.3,0,0,.2,0,.2-.1-.1-.2-.2-.4-.3-.6-.1-.2,0-.5,0-.7.1-.2.3,0,.5,0ZM54.4,23.8h0c0,0,0,.2.1.3.2.2.4.3.6.5.4-.2.4-.2.4-.4.1-.3.2-.6.4-.9.2-.4.3-.8.3-1.2,0,0,0,0,0-.1,0-.3.2-.4.4-.5.2,0,.3,0,.5-.1.2,0,.3-.2.3-.4,0-.2.1-.4.3-.5,0,0,0,0,0-.1,0-.1,0-.3,0-.4,0,0,0,0-.1-.1,0,.1-.2.3-.3.4-.1,0-.3,0-.5,0,0,0,0,.1,0,.2,0,.2,0,.4,0,.5,0,.1-.2.2-.3.3,0,0-.2.1-.3.2-.3.2-.5.4-.4.8,0,0,0,.1,0,.2,0,0,0,.2,0,.2-.1,0-.2,0-.2-.1,0,0,0,0-.2,0-.2.2-.3.5-.5.5-.3,0-.5,0-.7-.3,0-.1,0-.2,0-.3,0-.2,0-.3-.2-.3-.2,0-.4,0-.6-.2,0,0-.2-.2-.3-.2-.1-.1-.2-.4,0-.5,0,0,.2-.2.2-.3,0,0,0-.1,0-.2-.2,0-.4,0-.6,0-.2,0-.4-.1-.6-.2-.2.1-.4.3-.6.4,0,0,0,0,0,0,0,0,0,.1,0,.1.4,0,.6.3,1,.4,0,0,.2.1.2.2,0,0,0,.2,0,.2-.2,0-.5.2-.7,0,0,0,0-.1-.2,0,0,0,0,.2,0,.3,0,0,0,.2,0,.2-.2.2-.1.4-.2.6-.2,0-.4,0-.6.1,0,0-.1,0,0,.2,0,0,.1,0,.2,0,.2,0,.3,0,.5.1,0,0,0,.1.1.2,0,0,.2.1.3,0,.2,0,.3-.1.3-.3,0,0,0-.2,0-.3,0-.2.1-.3.3-.4.1,0,.3,0,.3,0,0,.1,0,.2,0,.3,0,0,0,.1,0,.2,0,0,.2.1.2.2,0,0,.2,0,.2.1.1,0,.3-.1.4-.2,0,0,.2,0,.2,0,0,0,0,.2,0,.3,0,0-.1.1-.2.2,0,0-.2,0-.2.1,0,.2.2.2.3.2.2,0,.4,0,.6,0ZM43.3,16c0,.2.2.1.3.2,0,0,.2,0,.1.2,0,0-.1,0-.2.1-.3.2-.4,0-.6-.2,0-.1,0-.3,0-.4,0-.2,0-.3,0-.5,0-.2,0-.4-.3-.5-.1,0-.3,0-.4-.1-.2,0-.3,0-.4-.3-.1-.1,0-.3,0-.5,0-.1,0-.2-.2-.2-.1,0-.3,0-.4,0-.2,0,0-.2-.1-.4,0,0,0,0,0,0,0,0-.1-.1-.2-.2,0,0-.2,0-.3,0-.1.2-.3.4-.5.5,0,0,0,.2,0,.3,0,.1.2.2.4.2.2,0,.4,0,.6.2,0,.1.3.2.4.3,0,0,.2,0,.3.1.2,0,.2.3,0,.4-.1,0-.3.2-.4.3-.2.1-.3.3-.2.5.1,0,.2,0,.2,0,.3-.1.5-.3.7-.6,0,0,0,0,0,0,0,0,.2,0,.2,0,0,0,0,.1.1.2,0,0,0,.2,0,.2-.2.3-.2.6-.3.9,0,.1,0,.3,0,.4,0,0,0,.1.2.1,0,0,.1,0,.1-.2,0-.1,0-.2,0-.3,0,0,.1-.1.2-.1.5.2.8.6.7,1.1,0,.1,0,.3-.1.3-.3.2-.3.5-.5.8,0,.1,0,.3,0,.5.1.4.1.4-.3.6-.2,0-.2.2,0,.3,0,0,.2.1.2.2,0,0,0,.2,0,.3,0,0-.1,0-.2,0-.2,0-.3.2-.2.4,0,0,0,.2.2.2.5.4,1,.6,1.6.4,0,0,0,0,.1,0,0,0,0,0,0-.1,0,0,0-.1-.1-.2,0,0-.1,0-.2,0-.2,0-.3-.2-.3-.4,0-.2.2-.4.4-.6,0,0,.2-.2.2-.3,0-.2.1-.4.3-.6,0,0,0-.2,0-.3,0,0-.2,0-.3,0-.2.1-.3.3-.3.5,0,.1,0,.3,0,.4,0,0-.1.1-.2.1,0,0-.2,0-.1-.2,0-.3-.1-.6-.3-.8,0,0-.1-.1-.1-.2,0,0,0-.1,0-.2,0,0,0-.1,0-.1,0,0,.1,0,.2,0,0,0,0,0,.1.1,0,0,0,0,0,0,0,0,.1,0,.2,0,0,0,0-.1,0-.1-.1-.3,0-.6,0-.8.1-.2.1-.5,0-.7,0,0,0-.1,0-.2q.2-.3.7-.5c0-.1-.2-.2-.3-.3.2-.3.2-.6,0-.9,0-.2,0-.3,0-.4,0,0,0-.2-.1-.1,0,0-.2,0-.3.1-.1.3-.3.5-.5.8ZM51.8,31c-.5,0-.8,0-1.1-.3,0,0-.2-.1-.3-.1,0,0-.1,0-.1,0,0,0,0,0,0,.1.1.2.3.3.5.4.2.1.4.2.6.3.2,0,.3.2.5.3.2.1.3.2.5.3.1-.1.2-.2.3-.3.1,0,.2-.1.4-.2,0,0,.1,0,.2-.1,0,0,.1-.1.2-.2,0,0,0,0,.1,0,0,0,.2,0,.2,0,0,0,0,.1,0,.2,0,.1-.2.3-.3.4,0,0,0,.1,0,.2,0,0,.1,0,.2,0,.3-.2.6-.4.9-.7,0-.4.2-.8.3-1.1,0-.1.1-.2.2-.3,0,0,.2,0,.3-.1.1,0,.2-.2,0-.4-.1-.1-.3-.3-.4-.4,0-.1,0-.2.1-.3.1-.4,0-.6-.4-.8,0,0,0,0,0,.1,0,.2-.2.3-.4.4-.3,0-.4.3-.5.6,0,.2,0,.3.3.3.1,0,.2,0,.3-.1,0,0,.1,0,.2-.1.2.5.2.6-.2,1.2,0,.1.1.2.2.3,0,0,0,.2-.1.2-.3,0-.6,0-.9.1-.1,0-.2,0-.2.2,0,0-.1.1-.2.2-.1,0-.2,0-.4,0-.1,0-.2,0-.4,0,0-.2,0-.3,0-.4,0,0,0-.2,0-.2,0,0,0,0-.1,0,0,0,0,0,0,0,0,.1,0,.3-.1.5ZM59.7,6.3q-.1.6.2,1.1s0,0,0,.1c0,.2,0,.3.1.3,0,0,.2,0,.2,0,.1,0,.3-.2.2-.3-.1-.3,0-.6,0-.9,0,0,.2,0,.2,0,.3,0,.5,0,.6-.2.1-.1.2-.2.4-.4,0,0,.1-.1.1-.2,0-.3-.1-.6-.4-.6-.2,0-.3,0-.4.3,0,0,0,0,0,.1,0,0-.1.1-.2,0,0,0-.2-.1-.3-.2-.1,0-.2-.2-.3-.3,0,0-.1,0-.1,0,0,0,0,.1,0,.2,0,.2-.2.3-.4.2-.2-.1-.3-.3-.2-.5,0,0,0,0,0,0,0,0,0,0-.1,0-.1,0-.3,0-.4.1,0,0-.2,0-.2,0,0-.3.1-.6.3-.9,0-.2,0-.3-.2-.4-.2,0-.4-.2-.6-.2,0,0-.2-.1-.3,0,0,0,0,.2,0,.3,0,0,0,.1,0,.2.2.3.2.6,0,.8,0,0,0,.1,0,.3.2,0,.3.2.5.3.3,0,.6.3.8.6,0,.2.2.2.4.3,0,0,.1,0,.2,0ZM47.9,19.5s0,0,0,0c.3,0,.6-.1.8-.4,0-.2.2-.2.4-.3.2,0,.4,0,.6-.1,0,0,.2,0,.3,0,.1,0,.2-.2.2-.3,0,0,0-.2-.1-.3,0,0,0-.2,0-.3,0-.1-.1-.2-.3-.3,0,0-.2,0-.3.2,0,.2-.2.4-.2.5,0,.1-.2.2-.3.2-.3,0-.5,0-.7,0-.4.1-.7,0-1-.3,0,0,0,0-.2-.2,0,.4-.3.6-.5.8,0,0-.1.2-.2.2,0,.2,0,.4.2.4.2,0,.4.2.6.4.3.3.8.3,1.3.1,0-.2-.3-.2-.4-.4ZM41.4,44.1c0,0,0,.1,0,.2,0,0,0,.1,0,.2,0,0,.1,0,.2,0,.2,0,.4,0,.5-.2.2-.2.4-.3.6-.4,0,0,.2-.1.2-.2,0,0,0-.2,0-.3-.1,0-.2-.1-.4,0-.2,0-.4,0-.5-.2,0,0-.1-.2-.2-.2-.2,0-.5-.2-.7-.1-.1,0-.2,0-.3,0-.2,0-.4,0-.5-.3-.1-.2-.2-.3-.4-.4,0,0-.2,0-.3,0-.2,0-.3.3-.2.5,0,0,0,0,0,0,0,0,.1,0,.2,0,.1,0,.2,0,.3.2,0,.1,0,.3,0,.4.1,0,.2.1.3.2.2.2.3.4.3.7,0,0,0,.2,0,.3,0,.1.2.2.3.1.1,0,.3-.2.5-.3ZM50.1,16.6c0,.2,0,.3,0,.5,0,0,0,.2.1.2,0,0,.1,0,.2,0,0,0,0,0,.1-.1,0-.1,0-.2,0-.3,0-.3.4-.4.6-.3.4.2.9.3,1.2.5.2.1.4.2.7,0,0,0,.1,0,.2,0,0,0,.1,0,.2.1.2.2.4,0,.5,0,.2-.2.2-.4,0-.6-.1-.1-.3-.2-.4-.1-.1,0-.2.1-.3.2-.1,0-.2,0-.3,0,0,0-.1-.2,0-.3,0-.1.1-.2.2-.3,0-.1,0-.3-.2-.3-.1,0-.2,0-.2.2,0,0,0,.2,0,.3,0,0,0,0-.1.1-.1-.2-.2-.3-.3-.4,0,0-.1-.2-.2-.1,0,0,0,.1-.1.2,0,0,0,0,0,.1,0,0,0,0,0,0-.4-.2-.7-.2-1,0-.1,0-.2.1-.4.2-.2,0-.3-.1-.5-.2-.2,0-.3-.2-.3-.4,0-.1,0-.3,0-.4,0,0,0,0,0,0,0,0-.1,0-.1.1.1.3.1.7.2,1.1,0,0,0,0,0,0,.1,0,.3,0,.5-.1ZM59.2,8.5c-.2,0-.3.2-.4.2,0,0-.2,0-.3,0-.1,0-.1-.2,0-.3,0,0,0,0,0,0,.3,0,.4-.3.5-.5,0,0,.1-.1.2-.2.3-.3.3-.4,0-.6,0,0,0,0-.1,0-.2-.1-.2-.2-.1-.4,0,0,0-.1,0-.2-.2,0-.3,0-.5,0-.1.1-.2.3-.2.4,0,.3,0,.5-.2.7-.1.1-.2.3-.1.4,0,.2,0,.3-.1.5,0,.1-.1.2-.1.3,0,.1,0,.2,0,.3,0,.2.2.3.4.2,0,0,0,0,.1,0,.3-.3.6-.2,1-.1.2,0,.4.1.6.1,0,0,.1,0,.2,0,.1,0,.2-.2.2-.3,0-.1,0-.3-.2-.3,0,0,0,0-.1,0,0,0-.1,0-.1,0-.1.1-.3.1-.4,0,0,0-.2-.2-.3-.3ZM38.5,38c0,.2.1.5.3.7.1.1.3.2.4.2,0,0,.2,0,.3,0,.3-.1.6-.2.9-.2,0,0,.2,0,.3,0,0,0,.1-.1.1-.2,0,0,0-.2,0-.3-.1-.3-.3-.5-.4-.8-.2,0-.5,0-.7,0-.1,0-.2,0-.3.2,0,0,0,.2-.1.3,0,.2-.2.2-.4.2-.1,0-.2,0-.4,0ZM62.9,4.2c0-.3.3-.4.1-.7-.3.2-.6.3-.6.7,0,.1-.1.1-.2.1,0,0-.1,0-.2,0,.2.1.3.2.5.3,0,0,.1.2,0,.3,0,0-.1.1-.2.2-.3.2-.3.4,0,.5,0,0,.1,0,.2,0,.2,0,.3,0,.5-.1.2-.2.3-.2.5,0,0,0,.2.1.2.2,0,0,0,.1.1.2,0,0,.1,0,.1,0,0,0,0-.1,0-.2,0-.2-.1-.4-.4-.5-.2,0-.3,0-.5-.2-.3-.2-.3-.3,0-.6,0,0,0,0,0,0,0,0,0,0,0-.1-.1,0-.2-.1-.4-.2ZM56.2,24.9s0,0,0,0c0,.1,0,.3,0,.4,0,.2,0,.4-.1.6-.1.2-.3.2-.5,0-.1-.1-.3-.2-.3-.4,0-.2,0-.4.2-.5,0,0,0,0,0-.1-.2,0-.3,0-.5,0-.2,0-.3-.1-.5-.2,0,0,0,0-.1,0,0,0-.1,0-.2.1,0,.4,0,.6.4.7.2,0,.4.1.5.3,0,0,.1.1.2.2.2.2.4.3.7.2,0,0,.1,0,.2,0,0,0,.2,0,.2-.2.1-.2.2-.5.4-.7-.1,0-.2-.1-.3-.2,0,0-.1-.2-.2-.3ZM33.7,37.4c0,0,0,0,0,0,.3,0,.4.2.4.6,0,.1,0,.3,0,.4,0,.2.3.2.4,0,0,0,0-.2,0-.3,0-.2,0-.3-.1-.5,0-.2,0-.3-.2-.4-.1,0-.2-.2-.2-.4,0,0,0-.2,0-.2,0-.3-.3-.5-.6-.5-.1,0-.3,0-.3.1,0,.1.1.2.2.2,0,0,0,0,0,0,.3,0,.3.3.3.5,0,.2,0,.3,0,.4ZM48.9,15.1c.3-.2.5-.4.8-.6,0,0,0,0,0,0,0,0,0-.2,0-.3,0,0-.1,0-.2,0,0,0,0,0,0,0-.1,0-.3,0-.3-.1,0,0,0-.1,0-.2-.1-.3-.2-.3-.6-.5,0,.2-.1.5-.2.7,0,.2,0,.3.2.4.2,0,.4.3.5.6ZM53.9,10.7c.3,0,.6,0,.8.1,0,0,.2,0,.2,0,0,0,.2,0,.1-.2-.1,0-.2-.1-.4-.2-.3-.1-.4-.4-.5-.7,0,0,0-.2,0-.3,0-.3,0-.6-.1-.9,0,0,0-.2-.2-.2-.1,0-.2,0-.2.1,0,.1-.1.2,0,.4,0,0,0,.1.1.2.1.2.2.4.2.6,0,.3,0,.5.1.9ZM51.5,27.3c0-.2.3-.4.3-.6-.2,0-.4-.1-.6-.1-.3,0-.6,0-.8.3,0,.2.1.5,0,.7,0,0,0,0,0,0,0,0,0,0,0,0,0,0,.1,0,.2-.1.2-.3.4-.4.7-.2,0,0,0,0,.1,0ZM53.1,26.7c0,.1.1.2.2.3.1.2.1.3,0,.5,0,.1-.1.2-.2.4,0,0,0,0,0,0,0,0,0,0,.1,0,.2,0,.4-.2.4-.5,0-.1,0-.2,0-.3,0-.3,0-.5.3-.6,0,0,0-.1.1-.2,0,0-.1-.1-.2-.1-.1,0-.2,0-.3,0-.2.1-.3.2-.5.4ZM36,33.8c0,.2,0,.3-.1.5,0,0,0,.2,0,.3,0,.2,0,.3.3.4.1,0,.3,0,.4-.1,0-.2,0-.3.1-.4,0-.2,0-.3-.1-.4-.2,0-.3-.2-.5-.3ZM49.9,37.3c0,0,0,0-.1.1-.1.3-.3.4-.6.4,0,0-.2,0-.2,0,0,0-.1,0-.1.2,0,0,0,.1.2.2,0,0,0,0,0,0,.3,0,.7,0,1,0,0,0,.2,0,.3,0,.1,0,.2-.2,0-.3-.2-.1-.3-.3-.5-.4ZM58.5,30.9c.2,0,.4,0,.6,0,0,0,.1-.1.1-.2,0-.2,0-.5,0-.7,0,0,0,0,0-.1-.2,0-.3,0-.5,0-.2,0-.3.1-.2.3,0,.2,0,.3,0,.5,0,0,0,.1,0,.2ZM55.8,35.9c0,0-.1,0-.2,0-.1,0-.2.1-.2.2,0,.1.1.3.2.3,0,0,.2,0,.2,0,.3,0,.5,0,.7,0,.1,0,.2,0,.3,0,0,0,.1,0,.2-.1,0,0,0-.1,0-.2,0-.1-.2-.1-.3,0-.2.1-.4,0-.6,0,0,0-.1-.1-.2-.2,0,0-.1,0-.2,0ZM54.5-9.6c0,0,0,0,0,0,0-.1,0-.2-.2-.2,0,0-.2,0-.2.1,0,.2-.2.4,0,.6.1.2,0,.4-.1.6,0,0,0,.1,0,.2,0,0,.1,0,.2,0,.2,0,.3-.2.3-.4,0-.3,0-.6,0-1ZM40.3,26.2c0,0-.1.2-.2.3-.3.1-.5.4-.7.6-.2.2-.4.4-.5.7,0,0,0,.1,0,.2.3,0,.5-.2.6-.5.1-.2.3-.5.5-.6,0,0,.2-.2.2-.3,0,0,.1-.2,0-.3ZM49.9,34.7c0,.1,0,.2,0,.3,0,.1,0,.3.2.4,0,.1.2.1.4,0,.1-.1.2-.3,0-.4-.1-.2-.3-.4-.3-.6,0,0,0-.1-.1-.2,0,0-.2,0-.2.2,0,.1,0,.2,0,.3ZM45.2,20.7c0-.2-.2-.3-.4-.2-.2,0-.4.3-.5.5,0,.2,0,.4.3.4.4,0,.6-.2.6-.6ZM52.6,13.6c.2,0,.3-.2.4-.4,0-.2.2-.3.3-.4.1,0,0-.2,0-.3,0,0-.1,0-.2,0-.1,0-.3,0-.4,0-.2.5-.2.6-.2,1.1ZM41.1,16.9c-.1.4-.4.8-.5,1.1,0,0,0,.2,0,.2,0,0,0,.1.1.1,0,0,.1,0,.1,0,0-.2.2-.4.4-.6,0,0,.1-.2,0-.3,0-.2,0-.3-.3-.6ZM35,35.8c0-.2-.2-.3-.3-.3-.2.1-.4.3-.4.6,0,0,0,.1,0,.2,0,.1.3.1.4,0,.2-.2.2-.4.3-.6ZM56.4,10.9c0-.2,0-.4-.3-.5,0,0-.2,0-.2,0,0,.2,0,.3,0,.5,0,.1,0,.3,0,.4.1,0,.2,0,.3,0,.1,0,.2-.2.2-.3ZM56.4,27.7c0,0-.1,0-.2,0-.2.1-.4.3-.6.5,0,0,0,.2,0,.2,0,.1.1.1.2.2.2,0,.3,0,.4-.2,0-.2.1-.4.2-.7ZM52.4-8.4c0,0-.1,0-.2.1-.2.1-.1.3,0,.4.3,0,.5.2.6.5,0,0,.1.1.2.2,0,0,0,0,0,0,0,0,0,0,0,0,0,0,0-.2,0-.3-.2-.2-.4-.5-.6-.7,0,0,0,0-.1,0ZM47,43.6c0-.2,0-.2,0-.2,0-.3,0-.5.3-.6,0,0,0,0,0,0,0,0,.1-.1,0-.2,0,0-.1-.1-.2-.1-.4,0-.7.4-.5.7,0,.1.1.2.2.5ZM47.1,22.5c-.2,0-.5,0-.7,0,0,0-.1,0-.2.1,0,0,0,.2,0,.2.2.1.3.2.5,0,.1,0,.2-.1.3-.2,0,0,.1-.1,0-.2,0,0,0,0-.1,0ZM47.3,29.7c.1,0,.2,0,.3-.1,0,0,0-.2,0-.3-.1-.1-.2-.2-.4-.3,0,0-.2,0-.3,0,0,0,0,.2-.1.3,0,0,0,.2.1.2.1,0,.3,0,.4,0ZM58.9,9.7c0,0-.1,0-.1,0-.4,0-.6.5-.4.8,0,0,.1,0,.2,0,0,0,.1,0,.1-.1,0-.2.1-.5.2-.7ZM46.3,17.4c-.3.2-.5.3-.6.4,0,0,0,.2,0,.3,0,.1.2.3.3.3.1,0,.2,0,.2-.1,0-.2.2-.3.2-.5,0,0,0-.1,0-.3ZM53.3,37.7s0,0-.1,0c0,0,0,0-.1,0-.1,0-.1.2,0,.3,0,0,0,0,0,0,.2.2.5.4.5.7,0,0,0,0,0,0,0,0,0,0,0,0,0,0,0-.1,0-.2-.1-.3-.1-.5-.1-.8,0,0-.1-.2-.2-.2ZM52.1,15.4c0-.2,0-.4,0-.6,0-.1,0-.2,0-.3,0,0,0,0-.1,0,0,0-.1,0-.1,0,0,.2-.1.5-.2.7,0,0,0,0,0,0,.1.1.2.2.4.1ZM45.9,19.1c0,0,0-.2-.2-.3,0,0-.3,0-.4.1,0,0,0,.1-.1.2,0,.2,0,.3.2.4.2,0,.3,0,.4-.2,0,0,0-.1,0-.3ZM42.5,18.8c0-.1,0-.2,0-.3,0-.1.2-.2.2-.3,0,0,0,0,0-.1,0,0,0-.2-.1-.2-.3,0-.4,0-.5.4,0,.3,0,.4.3.5ZM38.3,35.5s0,0,0,0c.2-.2.4-.5.6-.7-.2-.2-.3-.2-.4-.2-.2,0-.3.2-.3.4,0,.2,0,.3,0,.5ZM50,12.4c0,0,0-.1,0-.1,0-.2,0-.3-.1-.3,0,0-.2,0-.2.1-.2.2-.2.4,0,.6,0,0,.1.1.2.1,0,0,.2,0,.2-.1,0-.1,0-.2.1-.3ZM43,41.7s.1,0,.1,0c.1-.2.3-.5.4-.7,0,0,0,0,0,0,0,0,0,0-.1,0-.3.1-.5.3-.6.6,0,0,0,.1,0,.2,0,0,0,0,.1,0ZM39.8,34.2c0,0,.1,0,.2,0,0,0,.1,0,.1,0,0,0,0-.1,0-.1-.1,0-.3-.2-.4-.3,0,0-.2-.1-.2,0,0,0,0,.1,0,.2,0,.2,0,.3.3.4,0,0,.1,0,.2,0ZM57.9,14.1c.2.1.3.2.4.3.1,0,0,.3.3.3,0-.2.1-.4.2-.6,0,0,0-.2,0-.2-.2,0-.5.1-.8.2ZM50.7-7.7c.1,0,.2,0,.4,0,0,0,.1-.1.1-.2,0,0,0-.1-.1-.2-.1,0-.3,0-.4,0,0,0-.1,0-.1,0,0,0-.1.2,0,.3,0,0,.1.1.2.1,0,0,0,0,0,0ZM55.8-4.1s-.1.1-.1.2c0,.2.1.4.3.5,0,0,.2,0,.3,0,0,0,.1-.1,0-.2-.1-.2-.3-.3-.4-.5,0,0,0,0-.1,0ZM36,35.7c0,0-.2,0-.4.1,0,0,0,.1,0,.2,0,0,0,.1.2.1.2,0,.4,0,.6-.2,0,0,0,0,0-.1,0,0,0,0,0,0,0,0-.2,0-.3,0ZM40.1,41.9c.1-.2.2-.5.3-.7,0,0,0,0,0,0,0,0,0,0-.1,0-.2,0-.3.2-.4.3,0,0,0,.2,0,.3,0,.1,0,.3.3.3ZM57.7,29.2c0-.2,0-.4-.2-.6,0,0-.1,0-.2,0,0,0,0,0-.1.1,0,.3,0,.5.4.6,0,0,0,0,.1,0ZM31,41.1c.2,0,.3-.2.4-.4,0,0,0,0,0-.1,0-.1-.3-.2-.5-.1-.1,0,0,.2,0,.3,0,0,0,.2,0,.3ZM54.2,15.3c.2.2.1.5,0,.7,0,0,0,0,0,0,0,0,.1.1.2,0,0,0,.1-.1.1-.2,0-.2,0-.5-.1-.7,0,0-.1-.1-.3,0ZM44.1,41.8c.2.2.4.2.7.2.1,0,.3,0,.3-.2,0,0,0,0,0-.1-.3,0-.6.1-.9.2ZM38.4,31.4s0,0,0,0c0,.1,0,.2.2.2,0,0,.1,0,.2-.1,0-.2,0-.3,0-.5,0,0,0-.1-.1-.2,0,0-.1,0-.1.2,0,0,0,.2,0,.3ZM56.7,37.4c0,0,0,0,0,0-.2.2-.2.5,0,.8,0,0,.1,0,.1,0,.1,0,.2-.2.1-.3,0-.2,0-.3-.1-.5ZM51.9,27.6c.4,0,.6,0,.8-.1,0,0,0,0,0,0,0,0,0-.1-.1-.1-.1,0-.2,0-.3,0-.1,0-.3.2-.4.3ZM30.5,43c-.1.2,0,.3,0,.5,0,.1.2.2.4.2,0,0,.1,0,.1,0,0,0,0,0,0-.1-.1-.2-.3-.3-.5-.6ZM61.4,8c.2-.2.2-.3.3-.5,0-.1,0-.2-.2-.2-.2,0-.3.2-.2.4,0,0,.1.2.2.3ZM36.6,39.9c0,0,0,0,0,.1,0,0,0,0,0,0,0,0,0,0,.1,0,.2,0,.2-.2.3-.4,0,0,0-.2-.2-.2,0,0-.2,0-.2.1,0,.1,0,.3,0,.3ZM50.6,18.5s0,0,0,0c.2,0,.5-.2.5-.4,0,0,0,0-.1,0-.2,0-.4.2-.4.4ZM51.3,14.1c0,0,0-.1-.1-.1-.2,0-.4.1-.5.3,0,0,0,0,0,.1,0,0,.3.1.4,0,0,0,.1-.2.2-.3ZM51.6,30c0,0,0-.2-.2-.3,0,0-.2,0-.2,0,0,.2,0,.4.3.4,0,0,.2,0,.1-.2ZM44.8,19s0,0,.1-.1c0,0,0-.1,0-.1-.1,0-.2,0-.4-.1,0,0,0,0-.1,0,0,0,0,0,0,.1,0,.1.2.2.4.2ZM50.5,16c0,0,.1,0,.1-.2,0-.2-.2-.3-.4-.3,0,0-.1,0,0,.1,0,.2.2.3.4.3ZM57,9.1s0,0,.1,0c0,0,.1,0,.2-.1,0,0,0-.1,0-.2,0,0-.2,0-.3,0,0,0,0,.1,0,.2,0,0,0,0,.1.1,0,0,0,0,.1,0ZM47.4,36.3c0-.4,0-.6,0-.8,0,0,0-.2,0-.2,0,0,0,0,0,0,0,0-.1,0-.1,0,0,.3,0,.6.1,1.1ZM40.4,24.2c0,.3.1.5.3.6,0,0,.1,0,.2,0,0,0,0-.1,0-.2,0-.2-.2-.3-.5-.4ZM53.2,19.4c0,0,.2-.1.3-.2.1-.1.1-.2,0-.4,0,0,0,0-.1,0,0,0,0,0,0,0,0,.2-.1.3-.1.6ZM56.1,9.5c0,0-.2.1-.2.2,0,.1.1.2.2.2,0,0,.2,0,.2-.2,0-.1-.1-.2-.2-.2ZM58.6,11.9c-.2,0-.3,0-.4.2,0,0,0,0,0,.1.1.1.3.1.4,0,0,0,0-.1,0-.2,0,0,0,0-.1,0ZM53.4,43.4s0-.1,0-.2c0,0,0-.1-.2-.1,0,0-.1,0-.1,0,0,0,0,.2,0,.2,0,0,.1.1.2.2,0,0,0,0,.1,0,0,0,0,0,0-.1ZM57,32.1c-.2,0-.3,0-.5,0,0,0,0,0,0,0,0,.1.1.2.2.4.2,0,.3-.3.3-.5ZM47.3,20.4c-.3-.1-.4-.1-.5,0,0,0,0,.2,0,.2,0,0,.1,0,.2,0,0,0,.2-.2.3-.3ZM30.5,41.8s0,0,0,0c-.2,0-.4,0-.4.2,0,0,0,.1,0,.1.2.1.4,0,.4-.2ZM52.9,15.1s0,0,0,0c0-.2,0-.4-.2-.4,0,0-.1,0-.1,0,0,.2,0,.4.2.4ZM49.5,13.6c.2,0,.2-.1.3-.2,0,0,0-.2,0-.2,0,0-.1,0-.2,0-.1,0-.2.1-.2.3,0,0,0,0,0,.1ZM50.4,19.9c0,0,0,0,0,0,.2,0,.2-.3.1-.4,0,0-.2,0-.2,0,0,0-.2.2-.1.3,0,0,0,.1.1.2ZM57,22.6s0,0,.1.1c0,0,0,0,0,0,0-.1.1-.2.1-.3,0,0,0-.1,0-.1,0,0-.2,0-.2,0,0,.1,0,.2,0,.3ZM63.5,9.8c0,0,.2,0,.2-.1,0,0,0-.2,0-.2-.1,0-.2,0-.3,0,0,0,0,.1,0,.2,0,0,0,.1.2.2ZM58.6,23.8c0-.1,0-.2-.2-.2,0,0-.1,0-.2.1,0,.1,0,.2.2.2,0,0,.2,0,.2-.2ZM52.8,42.6c0-.1,0-.3-.2-.3,0,0,0,0,0,0,0,.1,0,.3,0,.3,0,0,.2,0,.2-.1ZM49.3,19.8c0-.1-.1-.2-.2-.2,0,0-.1,0-.2,0,0,0,0,0,0,.1,0,.2.2.2.4.1,0,0,0,0,0,0ZM46.1,40.8c-.2,0-.3,0-.3.2,0,0,0,.1.2.1.1,0,.2,0,.2-.2,0,0,0-.1-.1-.1ZM51.6,17.5c0,0,0-.2,0-.2-.1,0-.2,0-.3.2,0,0,0,.1,0,.2.1,0,.2,0,.3-.2ZM63.3,2.8c-.3,0-.4,0-.5,0,0,0,0,0-.1.1,0,0,0,0,0,0,.2,0,.3,0,.6,0ZM40.7,32.5s0,0,0,0c0,0,0,0,0-.1,0,0,0-.1,0-.1,0,0-.1,0-.2,0,0,0,0,.2,0,.2,0,0,.1,0,.1,0ZM48.2,41.8c.1,0,.2,0,.2-.1,0,0,0-.1,0-.1,0,0-.2,0-.2,0,0,0,0,.1,0,.1,0,0,.1,0,.1,0ZM41.3,15.2c0,0,0-.1-.1-.2,0,0-.1-.1-.2,0,0,0,0,0,0,0,0,.1,0,.2.1.2,0,0,.1,0,.2,0,0,0,0,0,.1,0ZM56.3,14.4c0,0,0,0,0,.1,0,0,0,0,0,0,.1,0,.2-.2.2-.4,0,0-.1,0-.1,0,0,0-.1.2-.2.3ZM60.7,14s0,0,0,0c0,0,0,0,0,0,0,.1,0,.2.2.3,0,0,0,0,0,0,0-.1,0-.2,0-.3,0,0,0,0-.1,0ZM62.1,8.3c0,0,.1,0,.2,0,0,0,0,0,0-.1,0,0,0,0,0,0,0,0-.1,0-.2,0,0,0-.1,0-.1.2,0,0,0,0,.1,0ZM42.4,29.9c0,.2.2.1.4.2,0,0,.1,0,.2,0,0,0,0,0,0,0,0,0,0,0,0,0-.2-.1-.4,0-.6,0ZM40.2,17s0,0,0,0c0,.1,0,.3.2.3,0,0,.1,0,.1,0,0-.1,0-.3-.2-.3ZM62,42.7c-.1,0-.1.1-.1.2,0,0,0,.1.1.1,0,0,.2-.1.1-.2,0,0,0,0-.1,0ZM42.2,28.2c0,0-.1-.1-.2-.1,0,0-.1,0-.1.2,0,0,.1.1.2.1,0,0,0,0,.1-.1ZM43.9,13.3c.1,0,.2,0,.2-.2,0,0,0-.1-.1-.1-.1,0-.2.1-.2.2,0,0,0,0,0,0ZM54.6-.5s0,0,0-.1c0,0,0,0,0,0,0,0,0,0,0,0,0,0,0,.2,0,.3,0,0,0,0,0,0,0,0,0,0,0-.1ZM51.5,38s0,0,0,.1c0,0,0,.1.2.1,0,0,0,0,.1,0,0,0,0-.2-.2-.1ZM52.4,8.9s0,0,0,0c0,0,0-.1-.1-.2,0,0-.1,0-.1,0,0,0,0,.2.1.2ZM42.9,23.3c0,0-.1,0-.1,0,0,0,0,0,0,.1,0,0,.1,0,.2,0,0,0,0,0,0,0,0,0,0,0,0-.1ZM45,27.4c0,0-.1-.1-.1-.1,0,0,0,0-.1,0,0,0,0,0,.1.1,0,0,0,0,.1,0ZM42.5,30.4c0,0,0-.1-.1-.1,0,0-.1,0,0,0,0,0,0,0,0,.1,0,0,0,0,.1,0ZM62.3,9.2c0,0-.1-.1-.1-.1,0,0,0,0-.1.1,0,0,0,0,.1.1,0,0,0,0,.1-.1ZM57.5,32s0,0,0-.1c0,0,0,0,0-.1,0,0-.1,0-.1,0,0,0,0,.1,0,.2,0,0,0,0,0,0ZM40.7,35.5c-.1,0-.2,0-.2.1,0,0,0,0,.1,0,0,0,.2,0,.1-.1,0,0,0,0-.1,0ZM55.3,30.4c0,0-.1,0-.1-.1,0,0,0,0,0,.1,0,0,0,0,0,.1,0,0,0,0,.1-.2ZM40.9,30.1s0,0,0,0c0,0,0,0,0,0,0,0,0,.1-.1.2,0,0,0,0,0,0,0,0,0,0,0,0,0,0,0,0,0-.1ZM47.3,32.4c0,0,0,0,.1-.1,0,0,0,0,0,0,0,0-.1,0-.1,0,0,0,0,0,0,.2ZM41.3,29.1c0,0,0,.1,0,.2,0,0,0,0,0,0,0,0,0,0,0,0,0,0,0-.1,0-.2,0,0,0,0,0,0ZM51.4,24s0,0,.1,0c0,0,0,0,0,0,0,0,0,0-.1,0,0,0,0,0,.1,0ZM47.9,23c0,0,.1,0,0-.1,0,0,0,0-.1-.1,0,0-.2,0-.1.1,0,0,0,0,.1.1ZM42.7,22.8c0,0-.1,0-.1.1,0,0,0,0,0,0,0,0,.1,0,.1,0,0,0,0,0,0-.2ZM53.5,42.7s0,0,0-.1c0,0,0,0,0,0,0,0-.2,0-.1.1,0,0,0,0,0,0ZM49.9-6.7c0,0,0-.1-.1-.1,0,0,0,0,0,0,0,0,0,0,0,0,0,0,0,0,.1,0ZM39,29s0,0,0,0c0,0,0,0-.1,0,0,0,0,0,0,0,0,0,0,0,.1,0ZM36.9,40.7c0,0,0-.1-.2-.1,0,0,0,0,0,0,0,0,0,.1.2.1,0,0,0,0,0,0ZM42.4,23.9s0,0,0,0c0,0,0,0,0,.1,0,0,0,0,0,0,0,0,0,0,0-.1ZM48.3,17.3s0,0,0,0c0,0,0,0,0,0,0,0,0,0,0,0,0,0,0,0,0,0ZM58.9,29.1s0,0,0-.1c0,0,0,0,0,0,0,0,0,0,0,0,0,0,0,0,0,0ZM48.9,35.6s0,0,0,0c0,0,0,0,0,0,0,0,0,0,0,0,0,0,0,0,0,0ZM57.8,22.6s0,0,0,0c0,0,0,0,0,.1,0,0,0,0,0,0,0,0,0,0,.1-.1ZM43.2,23.9s0,0,0,0c0,0,0,0-.1,0,0,0,0,0,0,0,0,0,0,0,.1,0ZM46.6,26s0,0,0,0c0,0,0,0,0,0,0,0,0,0,0,0,0,0,0,0,0,0ZM63,25.3s0,0,0,0c0,0,0,0,0,0,0,0,0,0,0,0,0,0,0,0,0,0ZM44.4,23.9s0,0,0,0c0,0,0,0,0,0,0,0,0,0,0,0,0,0,0,0,0,0ZM59.6,22.1s0,0,0,0c0,0,0,0,0,0,0,0,0,0,0,0,0,0,0,0,0,0ZM54.8,35.5s0,0,0,0c0,0,0,0,0,0,0,0,0,0,0,0h0ZM50.8,28.5s0,0,0,0c0,0,0,0,0,0,0,0,0,0,0,0,0,0,0,0,0,0ZM56.9,30.7s0,0,0,0c0,0,0,0,0,0,0,0,0,0,0,0,0,0,0,0,0,0ZM52.1,29.3s0,0,0,0c0,0,0,0,0,0,0,0,0,0,0,0,0,0,0,0,0,0ZM41.6,17.3s0,0,0,0c0,0,0,0,0,0,0,0,0,0,0,0,0,0,0,0,0,0Z"/>
              <path d="M.8,15.6c0,0-.1.2-.2.3-.2,0-.2-.2-.3-.3,0,0-.2-.1-.3,0-.2,0-.4.2-.5.5,0,0,0,.2,0,.2,0,.2-.2.3-.4.3,0,0-.1,0-.2,0-.3,0-.6,0-.9-.2-.1-.1-.4-.2-.6-.1-.4,0-.7-.1-1.1-.3-.2,0-.4-.3-.5-.5-.3-.7-.5-1.4-.2-2.1,0,0,0,0,0,0,.1,0,.1.2.2.3,0,.1,0,.2,0,.4.3.2.6.4,1,.5.3,0,.5.2.8.4.4.2.7.1.9-.3.2-.5.2-1,0-1.4,0-.1-.1-.2-.2-.3-.1-.1-.2-.3-.2-.4,0-.4,0-.7,0-1.1,0,0,0-.1.1-.2.2.1.3.3.4.4,0,.1,0,.2-.1.3-.3.4-.2.8.1,1,0,0,.1,0,.2,0,.1,0,.2-.1.2-.2,0-.1,0-.2,0-.3,0,0,0-.2.1-.2,0,0,.2,0,.2,0,0,0,.2.2.2.2.3.3.6.6,1.1.6,0,0,.2,0,.3.1.3.4.6.7.5,1.3,0,.1,0,.3.1.4.4.3.5.8.4,1.2,0,.2,0,.3,0,.5,0,.2-.3.3-.4.1-.1-.1-.3-.2-.4-.4-.3-.2-.3-.2-.7-.3Z"/>
              <path d="M8.6,16.1c.2.2.4.5.7.7,0,0,.1,0,.2.1,0,0,.2,0,.3,0,0,0,0-.2,0-.3,0-.1-.1-.2-.2-.4,0,0,0-.2,0-.2,0,0,.2,0,.3,0,.1.1.2.2.3.4,0,0,0,.1,0,.2.1,0,.2-.1.3-.2,0,0,.2-.1.3-.1.4,0,.9,0,1.3,0,0,0,0,0,0,.1,0,.2.1.4.3.4.2,0,.4.1.6,0,.1,0,.3-.1.4-.2,0,0,.2,0,.3-.1.2,0,.4,0,.4.3,0,0,0,.2,0,.2,0,.2,0,.4.1.7.2.3.2.4-.1.6,0,0-.1,0-.2,0-.1,0-.2,0-.4-.1-.2,0-.4,0-.5.2,0,0,0,.1,0,.2,0,.2-.2.2-.3.3-.2,0-.3,0-.4-.2,0,0,0,0,0-.1,0-.2-.2-.2-.3-.2,0,0-.2.1-.2.2,0,0,0,.1-.1.2-.2-.1-.3-.3-.2-.4,0-.1.1-.3,0-.4,0,0,0,0,0,0,0,0-.1,0-.2,0,0,0,0,0,0,0,0,.3-.3.3-.5.3,0,0-.2,0-.3,0-.3,0-.5-.2-.5-.5,0-.1,0-.2-.2-.3-.1,0-.3,0-.4,0,0,0,0,0-.1.1-.2.3-.3.4-.7.2-.3,0-.6-.2-1-.1,0,0-.2,0-.2,0-.2-.2-.5-.2-.7-.2-.3,0-.5-.1-.6-.3,0-.1-.2-.2-.3-.3,0-.1-.1-.2-.2-.4,0,0,0-.2.1-.2.2,0,.4,0,.6,0,.2,0,.4,0,.6-.1.3-.1.4-.3.4-.6,0-.3,0-.6,0-.9,0,0,0-.2,0-.3,0,0,0,0,0,0,0,0,0,0,.1,0,.2.3.4.5.3.9,0,.1-.1.3-.1.4,0,.2,0,.3,0,.5,0,.2.2.3.4.2.2,0,.3-.1.5-.2ZM10.8,17.9c0,0,.1,0,.1,0,0,0,.2,0,.2-.1,0-.1,0-.2,0-.3,0,0-.2-.1-.3-.1-.1,0-.2,0-.3,0,0,0-.1.1-.1.2,0,0,0,.1.1.1.1,0,.3,0,.4.1Z"/>
              <path d="M4,3.2c0,0,.1-.1.2-.2,0,0,.2,0,.2,0,.2,0,.2-.1.2-.3,0,0,0-.2,0-.2,0-.3.1-.4.4-.4.1,0,.2,0,.3,0,.3,0,.5,0,.7-.3,0,0,.1-.2.2-.3.1-.2.4-.2.6,0,0,0,.1.2.2.3,0,.2.2.3.4.2.4,0,.6,0,.8.4.2.3.4.4.7.6.2.1.4.2.6.3,0,0,.1.1.2.2,0,0,0,.2,0,.2,0,0,0,0-.1,0-.5-.1-.9,0-1.4.2,0,0-.1,0-.2,0-.2,0-.5,0-.6-.3,0-.1,0-.3,0-.4-.1-.4-.4-.6-.7-.7-.3,0-.7.1-.7.4,0,0,0,.2,0,.2,0,.1.1.2.2.3.1.2,0,.3,0,.5-.2.2-.3.2-.5,0-.1,0-.2-.2-.3-.3-.2-.1-.3-.1-.5,0-.1.1-.3.3-.4.4,0,0-.2,0-.2,0,0-.2,0-.4,0-.7Z"/>
              <path d="M23.1,5.2c-.2,0-.4,0-.6,0-.2,0-.4,0-.6-.1,0,0-.1,0-.1-.1,0,0,0-.2,0-.2,0,0,.2-.1.3-.1.2,0,.4-.1.6-.3.1-.1.3-.2.4-.2.1,0,.2-.2.2-.3,0-.3,0-.6,0-.9,0-.3-.2-.6-.4-.8-.1-.1-.2-.3-.3-.4-.1-.3,0-.7.4-.7,0,0,.2,0,.2,0,.2.1.5.3.7.4.1,0,.2.2.3.3.1.2.4.3.4.6,0,.2-.2.4-.3.5,0,.1-.1.2-.2.4,0,.2,0,.3,0,.5,0,0,.2.2.3.3.3.2.3.5.3.8,0,.3-.2.6-.5.7-.3,0-.6,0-.8-.2,0,0-.1-.1-.2-.2Z"/>
              <path d="M-2.5,20.7c.4,0,.7.1.9.5.1.3.3.4.6.6.2.1.5.2.7.4.2.1.3.4.5.5.2.1.4.3.6.4,0,0,.1.1.2.2,0,.1,0,.3,0,.4-.1.1-.3.1-.4,0,0,0,0,0,0,0-.2-.3-.5-.3-.8-.2-.2,0-.4.1-.6,0-.1,0-.3,0-.4,0-.1,0-.3,0-.4-.1-.1,0-.2-.2,0-.4,0,0,0,0,0,0,.1-.2.1-.3,0-.5-.1-.1-.2-.2-.4-.1-.1,0-.3,0-.5,0-.3,0-.4,0-.4-.4,0-.2,0-.3,0-.5,0-.5.1-.7.6-.7,0,0,.2,0,.3,0Z"/>
              <path d="M31.3,24.6c0-.1,0-.2,0-.3,0-.3-.1-.4-.4-.5-.1,0-.2,0-.4,0-.2,0-.3,0-.4-.2-.1-.3-.3-.6-.6-.8,0,0,0-.2,0-.3.3-.2.6-.2,1-.1.3,0,.5.3.6.5,0,0,0,.1,0,.2,0,0,0,.2,0,.3,0,.1,0,.3.2.2.2,0,.5-.1.7-.2,0,0,.1-.2.2-.3,0-.1,0-.1.3-.3,0,0,0,.1,0,.2,0,.3,0,.6.2.8.2.4.3.9.3,1.4,0,0,0,.1,0,.2,0,.3-.4.4-.6.4-.3,0-.5-.2-.7-.5-.1-.2-.3-.3-.4-.5Z"/>
              <path d="M15.5,2.7c-.3-.4-.4-.8-.4-1.2,0,0,.1,0,.2-.1.2,0,.3-.2.3-.3.2-.3.3-.5.5-.8,0-.1.1-.2.3-.2.2,0,.3.1.3.3,0,.3.2.5.4.7,0,0,.2.2.2.3,0,.4.1.7.4,1,0,0,0,0,0,.1,0,.1,0,.3-.2.4-.3.1-.6.1-.9,0-.1,0-.3,0-.4-.1-.2-.1-.4-.1-.6,0,0,0-.1,0-.2,0Z"/>
              <path d="M19.6,1.9c0,0-.2,0-.2,0-.2-.2-.4-.2-.6-.1-.1,0-.2,0-.3,0-.3,0-.5-.1-.5-.4,0-.3-.1-.5-.3-.6-.4-.7-.7-1.4-.4-2.3.1-.4.4-.5.7-.3.3.1.5.3.8.4.2.1.2.4,0,.5-.1.1-.3.2-.4.3-.5.5-.5.6,0,1.1.1.1.3.2.4.4.2.3.4.5.8.5.1,0,.2.1.2.2,0,0,0,.1,0,.4Z"/>
              <path d="M7.4,28.7c0-.2,0-.2.2-.3,0,0,.1-.1,0-.2,0,0,0,0-.2,0,0,0-.1,0-.2,0,0,0,0-.2,0-.2,0-.2,0-.4-.3-.5v-.3c-.1-.1-.2-.3-.3-.4,0,0,0-.2,0-.3,0,0,.2,0,.3-.1,0-.1-.1-.2-.2-.3,0,0,0-.2.1-.3,0,0,0-.1,0-.1,0-.1-.1-.2,0-.3,0-.1.1-.2.3-.3.2,0,.4,0,.4.2,0,0,0,.2,0,.3,0,.2,0,.5-.1.6.1.2.2,0,.4.1,0,.2.2.4.2.6q-.5.2-.5.6c0,0,.2,0,.3,0,.2-.1.5-.1.7,0,.2,0,.3.1.3.3,0,.2,0,.3-.2.3,0,0,0,0-.1,0-.1,0-.3-.2-.4,0,0,.1,0,.2.1.4,0,0,0,0,0,.1,0,0,0,.2-.1.2-.2,0-.5.1-.7,0Z"/>
              <path d="M17.1,27.6c0,0,0-.2,0-.2,0-.3,0-.4-.2-.5-.2,0-.4-.1-.7,0-.2,0-.5,0-.8,0-.1,0-.2,0-.3,0-.3-.1-.3-.5,0-.7,0,0,0,0,.1,0,.2,0,.4,0,.6,0,0,0,.2,0,.2,0,.3.2.6.3.9.2,0,0,.2,0,.3,0,0,.2.2.3.5.4.2,0,.4.2.4.4,0,.2.1.4.2.6,0,.1,0,.2,0,.3,0,.2-.3.3-.4.2-.2-.1-.5-.3-.7-.5Z"/>
              <path d="M10.3,23c-.2,0-.4,0-.6,0-.1-.1-.1-.3,0-.4,0-.3,0-.7,0-1,0,0,0-.2,0-.3,0-.2,0-.3.2-.4.3-.2.4-.5.4-.9,0,0,0-.2,0-.2,0,0,.1,0,.2,0,.2,0,.4.3.3.5,0,0-.1.2-.1.3,0,0,0,.2,0,.3,0,.2,0,.5,0,.7,0,.2,0,.3.1.4.1.1.3.2.4.3,0,0,.1.2.1.2,0,0,0,.1,0,.1,0,0-.2,0-.2,0,0,0,0-.2-.1-.2,0,0-.1-.1-.2-.1,0,0-.1,0-.1.2,0,.1,0,.2,0,.3,0,.1,0,.2-.1.3Z"/>
              <path d="M30.2,3.6c0,0-.1.1-.2.2-.2,0-.4-.2-.6-.3,0,0,0,0,0-.1,0,0,0-.1,0-.1,0,0,.1,0,.2,0,.1,0,.1-.2.1-.3,0-.1-.1-.2-.3-.2-.1,0-.2,0-.3,0-.1,0-.3.3-.5,0,0-.2.2-.2.3-.3.2-.2.5-.3.8-.5,0-.3.2-.6.1-1,0,0,0-.1,0-.2,0-.1.1-.2.2-.2,0,0,0,.1.1.2,0,.2,0,.4,0,.6,0,.2,0,.4.2.5.1.2.2.3.1.5,0,.2,0,.4.2.6,0,0,.1.2.2.3,0,0,0,.2,0,.3,0,0-.2,0-.3,0-.1,0-.2-.2-.4-.3Z"/>
              <path d="M30.7,14.7c0,.2,0,.5-.2.7-.2.2-.4.3-.6.2-.2,0-.3,0-.5,0-.1,0-.3,0-.4,0-.1,0-.3,0-.4-.2-.1-.1-.1-.3,0-.4.3-.2.5-.4.6-.7.1-.2.3-.3.4-.4.1,0,.2-.1.4-.1.4,0,.6.1.6.5,0,0,0,.1,0,.2Z"/>
              <path d="M20.7,15.5c-.2-.3-.2-.6-.4-.9-.2-.5,0-.9,0-1.3,0,0,0-.1,0-.2.2-.2.4-.5.6-.7,0-.1.3,0,.4,0,0,0,.1.2.1.3,0,.2,0,.4.2.6,0,.2,0,.3,0,.5,0,.2-.1.3-.3.3-.3,0-.4.2-.5.5,0,.3-.2.6-.3,1Z"/>
              <path d="M5,7.3c-.2,0-.3,0-.4,0,0,.1-.2.2-.3.4,0,.1-.2.2-.4.2-.3,0-.5,0-.7,0-.2,0-.2-.2-.2-.4,0-.2.1-.4.2-.6,0,0,0-.1.1-.2,0,0,.1,0,.2.1,0,0,0,0,.1.1.2,0,.2-.3.3-.4,0,0,.1-.2.2-.3,0,0,.2,0,.2,0,.3.2.6.4.7.7,0,0,0,.2,0,.3Z"/>
              <path d="M13.5,8.3c-.1.4-.2.8-.3,1.2,0,.1,0,.2.1.3,0,0,.1,0,.2,0,.2,0,.2.3,0,.5,0,0-.2.1-.2.1,0,0-.2,0-.2-.2,0-.4-.2-.8,0-1.2,0-.2,0-.3,0-.5,0-.3,0-.6-.1-.9.4-.1.8-.3,1.2-.4.2,0,.3,0,.5,0,.2.1.3.2.5.3,0,0,.1.2.1.2,0,0,0,.1,0,.1,0,0,0,0-.1,0-.1,0-.2-.2-.3-.3-.2-.2-.3-.2-.6-.2-.2,0-.4,0-.6.1-.2,0-.2.2-.2.4,0,0,0,.2.1.2Z"/>
              <path d="M13.4,26.7c0,.2,0,.3,0,.5,0,.1,0,.2-.2.2,0,0-.2,0-.2,0,0-.1-.1-.2-.2-.4,0-.3.2-.5.2-.8,0,0-.2,0-.2,0,0,0-.1.2-.2.3-.1.2-.3.2-.5.2,0,0-.2,0-.2-.2,0,0,0,0,0,0,0-.5.2-.7.7-.7.2,0,.3,0,.5,0,.1,0,.3,0,.4.1,0,0,.1.2.2.3,0,.1,0,.3-.1.4,0,0-.2.1-.3.2Z"/>
              <path d="M28.2,17.8c-.4,0-.6-.2-.6-.6,0-.4.3-.7.6-.7,0,0,.2,0,.3,0,.3.2.5.6.3.9-.2.2-.4.4-.6.4Z"/>
              <path d="M30.6,19c0,.4,0,.7-.4.9,0,0-.2,0-.2,0,0,0,0-.1,0-.2,0,0,.1-.2.2-.2,0-.1,0-.2,0-.3-.2-.1-.4-.2-.7-.3,0,0-.1,0-.2-.1,0,0,0-.1,0-.1.2-.2.4-.4.6-.6,0,0,.2,0,.3,0,0,0,.1.1.2.2.1.3.2.6.2.8Z"/>
              <path d="M1.6,9.7c-.3.2-.6,0-.8,0-.3,0-.3,0-.6-.2,0-.2,0-.5.1-.7,0-.2.3-.2.4-.1,0,0,.1,0,.2.1,0,0,0,0,.1,0,.2,0,.2-.3.4-.3.2.3.2.3.1,1Z"/>
              <path d="M8.6,23.2c.2.4.4.7.7,1,0,0,0,0,0,.1,0,.2,0,.5.1.7,0,0,0,0,0,.1-.1,0-.2-.1-.3-.2,0,0,0,0,0,0,0,.1,0,.3,0,.4,0,0,0,.1,0,.1,0,0-.1,0-.2,0,0,0,0,0,0-.1,0-.1,0-.3-.1-.4,0-.2-.1-.5,0-.7.1-.2,0-.4,0-.6,0,0,0-.1-.1-.2,0-.1,0-.2.1-.2h0Z"/>
              <path d="M18.9,4.2c.1-.1.2-.3.3-.4.1-.2.1-.4,0-.5,0,0-.2-.2-.2-.2,0,0,0-.1,0-.2,0,0,0,0,.1,0,.2,0,.3,0,.4.2.2.4.3.8.3,1.2,0,.3,0,.6-.3.8,0,0,0,0-.2,0,0,0,0,0,0,0,0,0,0,0,0-.1q0-.4-.4-.6Z"/>
              <path d="M32.1,12.2c.1,0,.3,0,.4,0,.1,0,.2,0,.3-.1,0,0,0,.1,0,.2,0,.3-.2.6-.3.9,0,.1,0,.3-.2.4,0,.1-.3.2-.4,0-.1-.1-.2-.2-.1-.4,0-.3.2-.7.2-1Z"/>
              <path d="M29.9,7.3s0-.1,0-.2c0-.2.2-.2.4-.2,0,0,0,0,.1,0,.2.1.4.3.5.4.1.1.1.3,0,.4,0,.2-.2.3-.3.3,0,0,0,0,0,0-.5,0-.7-.2-.7-.8Z"/>
              <path d="M22.6,9.4c.1,0,.2,0,.2,0,.3-.1.4-.2.3-.5,0,0,0-.1,0-.2,0-.2,0-.4.3-.4.2,0,.3,0,.5.2.2.2.3.5,0,.6-.2.1-.4.3-.6.5-.2.2-.3.2-.7,0Z"/>
              <path d="M3.3,22.8c0,0,.1,0,.2,0,0,0,.1,0,.1,0,.1,0,.1.2.1.3,0,.1-.1.3-.2.3-.2,0-.4.1-.7.2-.2,0-.5-.1-.7-.2,0,0-.1-.1-.1-.2,0,0,0-.1.1-.2,0,0,.1,0,.2,0,.1,0,.2,0,.3-.1.2-.3.3-.3.5,0,0,0,.1,0,.2.1Z"/>
              <path d="M2.8,6.1c-.2,0-.3,0-.5-.2-.2-.2-.4-.4-.5-.5,0,0,0-.2.1-.3.2,0,.3,0,.4,0,0,0,.2,0,.3,0,.4,0,.6.3.4.6,0,.1-.1.2-.3.2Z"/>
              <path d="M3.5,8.4c0,0,.2-.2.2-.2.3-.1.6-.2.9-.4,0,0,.1,0,.2,0,0,0,0,.1,0,.2,0,.3-.2.5-.4.8,0,0,0,0,0,0-.1,0-.3,0-.4,0-.2-.1-.3-.3-.5-.5Z"/>
              <path d="M6.7,23c-.3,0-.4,0-.6,0-.1,0-.2,0-.3,0,0,0-.2-.1-.2-.2,0,0,.1-.2.2-.1.3,0,.7,0,1,0,.2,0,.5,0,.7,0,0,0,.1,0,.1.1,0,0,0,0,0,.1,0,0,0,0,0,0-.2,0-.3.2-.3.4,0,0-.1.1-.2,0,0,0-.2-.2-.3-.3Z"/>
              <path d="M5,16.3c-.2,0-.4-.2-.4-.4,0-.2,0-.4.2-.4.2,0,.4-.1.5-.2.2,0,.4.2.4.4,0,.4-.3.7-.8.7Z"/>
              <path d="M11.8,25.3c0,0-.1,0-.2,0-.2-.1-.4-.3-.6-.4,0,0,0-.2,0-.3,0,0,.2,0,.3,0,.5.2.9,0,1.2-.2,0,0,0,0,0,0,0,0,0,0,.1,0,0,0,0,.1,0,.2,0,0,0,.1,0,.2-.2.2-.4.4-.7.6,0,0-.2,0-.3.1Z"/>
              <path d="M2.6,21.1c0-.2,0-.4,0-.6,0-.1,0-.2.2-.2.1,0,.2,0,.3.2,0,0,0,.2,0,.3.2.4,0,.7-.2,1,0,0-.2,0-.2,0-.1-.2-.2-.4-.2-.6Z"/>
              <path d="M17.4,16.9c0-.2,0-.4,0-.5.1,0,.2,0,.2,0,.2.2.3.2.6.3,0,0,.1,0,.2,0,0,0,.2.1.2.2,0,0,0,.1-.1.2-.3.2-.6.2-.9,0,0,0-.1-.1-.2-.2Z"/>
              <path d="M28.1,22.2c.1.1.2.2.4.3,0,0,0,.1.1.2,0,.1-.1.1-.2.1-.2,0-.4,0-.6,0-.1,0-.3,0-.4,0-.2-.1-.4-.2-.6-.4,0,0-.1-.1,0-.2,0,0,.1,0,.2,0,0,0,.2,0,.2,0,.3.2.5.2.8,0,0,0,0,0,.2,0Z"/>
              <path d="M18.2,14.2c0,0,0-.1,0-.1,0-.3.3-.6.6-.7,0,0,.2,0,.3,0,0,0,0,0,.1.1.1.3.3.5.6.7,0,0,0,.1,0,.2,0,0-.1.1-.2.1-.1,0-.2-.1-.3-.2-.1-.2-.2-.4-.4-.5,0,0-.2,0-.2,0,0,.1-.1.2-.2.3,0,0,0,0-.2,0Z"/>
              <path d="M16.8,22.3c0,0-.2,0-.2,0-.2,0-.3,0-.3-.3,0-.2,0-.3.1-.5,0,0,.1,0,.2-.1.2,0,.4-.2.6,0,.2.2.2.4.2.7,0,.1-.1.2-.2.2,0,0-.2,0-.3,0ZM17.1,21.7s0,0,0-.1c-.1,0-.4,0-.5.1,0,0,0,0,0,.1.1.1.3.2.4,0,0,0,0,0,0-.1Z"/>
              <path d="M32.3.9c.3.3.6.5.8.7,0,0,0,0,0,.1,0,0,0,0,0,0-.2,0-.3,0-.5,0,0,0-.1,0-.2,0,0,0,0,0,0,0,0,0-.1.2-.3.2-.1,0-.2-.2-.2-.4,0-.3.1-.5.4-.7Z"/>
              <path d="M22.8,6.6c-.3,0-.5-.1-.7-.2-.3-.1-.3-.4-.3-.6,0-.1.2-.2.3-.1,0,0,0,0,0,0q.3.3.6.3c0,.2,0,.4-.1.6Z"/>
              <path d="M28,19.2c-.2,0-.3,0-.5-.2,0,0,0-.3,0-.3.2-.1.5-.2.8-.2,0,0,.2,0,.2.1,0,0,0,.2,0,.3-.1.2-.3.2-.6.2Z"/>
              <path d="M21,1.1c0,.3-.3.5-.6.5,0,0-.2-.2-.2-.3,0-.2,0-.5.1-.7,0-.1.3-.1.3,0,.2.2.2.3.3.5Z"/>
              <path d="M17.7,5.5c-.2,0-.2-.1-.3-.2-.1-.2-.3-.3-.5-.3,0,0-.2,0-.2,0-.3,0-.4-.4-.2-.6,0,0,.2-.1.3,0,.5.3.8.6.9,1.2Z"/>
              <path d="M.3,20.7c0,0,0,.1,0,.2,0,.1-.2.2-.3,0-.2-.2-.4-.5-.4-.9,0,0,0-.1,0-.2,0,0,.2,0,.3,0,.3.2.4.5.4.8Z"/>
              <path d="M17.3,24.5c0,.4,0,.7.1,1-.1,0-.2,0-.2,0-.2-.2-.5-.4-.7-.6,0,0,0-.2,0-.3.2-.1.4-.2.7-.1Z"/>
              <path d="M13.9,23.8c-.2,0-.4.2-.5.4,0,0-.2,0-.3,0,0-.1-.1-.3-.1-.4,0-.2,0-.3.3-.3.1,0,.3,0,.4,0,.1,0,.2.1.2.4Z"/>
              <path d="M8.2,22.4c0-.2-.1-.3-.2-.4-.1-.3.1-.5.3-.6,0,0,.2,0,.2.1,0,.2,0,.4.1.6-.2,0-.3.2-.5.3Z"/>
              <path d="M20.9,22.6s0,0-.1,0c0,0-.2,0-.3-.1-.2-.1-.4-.3-.6-.4,0,0-.1-.1,0-.2,0-.1.1-.1.2-.1,0,0,.2,0,.3,0,.2.2.4.4.6.6,0,0,0,0,0,.1Z"/>
              <path d="M12.7,25.2s0,0,0,0c.4,0,.6-.2.9-.4,0,0,.1,0,.2,0,0,0,.1.1,0,.2,0,.4-.6.7-.9.6-.1,0-.2,0-.3-.1,0,0,0,0,0,0Z"/>
              <path d="M2.2,2c.1.2.2.4.1.6,0,.2,0,.4,0,.6,0,.1-.1.2-.2.2-.1,0-.2-.1-.2-.3,0,0,0-.2,0-.3.1-.2.2-.5.2-.8,0,0,0,0,.1-.1Z"/>
              <path d="M20.6,7.9c.3,0,.4.1.6,0,0,0,.2,0,.2.1,0,.2,0,.5-.2.6-.1.1-.3,0-.3,0,0-.2-.1-.4-.3-.7Z"/>
              <path d="M0,.3C0,.2,0,0,.1-.1c0-.2.2-.3.4-.1.1,0,.2.2.1.4,0,.1-.1.3-.2.4,0,0-.1.1-.2.1C0,.6,0,.5,0,.4c0,0,0,0,0,0Z"/>
              <path d="M26,12.5c-.2.1-.4.3-.6.4-.1,0-.3,0-.3-.1,0,0,0-.2,0-.3,0-.2.1-.2.3-.2.1,0,.3,0,.4,0,.1,0,.2,0,.2.2Z"/>
              <path d="M9.2,25.9s.1,0,.2.2c0,0,0,.2,0,.2-.2.1-.4.3-.6.4-.1,0-.2,0-.3,0,0-.1,0-.3,0-.3.2-.1.4-.2.6-.3,0,0,0,0,.1,0Z"/>
              <path d="M12.2,21.5c.2.2.5.3.7.4,0,0,.1.1.1.2,0,0-.1.1-.2,0-.3-.1-.5,0-.8,0,0,0,0,0,0,0,0,0,0,0,0-.1.1-.2.2-.3.4-.5Z"/>
              <path d="M32.8,14.4c0,0,0,.1,0,.1,0,.1-.1.3-.2.4,0,.1-.1.2-.3.2-.2,0-.4,0-.4,0,0-.2.1-.2.2-.3.2-.2.3-.3.5-.5,0,0,0,0,.1,0Z"/>
              <path d="M31.4,26.6c-.2,0-.3-.1-.3-.3,0,0,0-.2,0-.2.1-.2.3-.3.5-.4,0,0,.1,0,.1.2-.1.2-.2.4-.3.7Z"/>
              <path d="M22.2,16.5s0,0,0,0c0,0,0,0-.1,0-.3-.1-.5-.3-.7-.5,0,0,0-.1,0-.2,0,0,0,0,0,0,.4,0,.7.3.8.6,0,0,0,0,0,0Z"/>
              <path d="M13.3,13.3c-.1,0-.2,0-.2-.1,0-.4,0-.8,0-1.1,0,0,0,0,.1,0,0,0,.1,0,.1,0,0,.2,0,.3,0,.5,0,.1-.1.3-.1.4,0,.1,0,.2,0,.4Z"/>
              <path d="M8.8,20.6s0,0,0,0c0,0,0,0,0-.1,0-.2,0-.4-.2-.5,0,0,0-.1,0-.1,0,0,0,0,.1-.1.3-.1.6,0,.5.4,0,.2,0,.3-.1.4,0,0,0,0,0,0Z"/>
              <path d="M19.3,12.6c0,0,0-.1,0-.2,0,0,.2-.1.2,0,.2.1.3.3.3.6,0,0,0,.1,0,.2,0,0-.1,0-.2.1,0,0-.1,0-.1,0,0-.2-.1-.4-.2-.5Z"/>
              <path d="M-.2,2.2s.1,0,.1,0c.1.2.2.4.4.6,0,0,0,0,0,.1,0,0-.1,0-.1,0-.3,0-.5-.3-.5-.5,0-.1,0-.2.2-.3Z"/>
              <path d="M15,24.1c.2.1.2.3.1.4,0,.2,0,.4,0,.6,0,0,0,.1,0,.1,0,0-.1,0-.2,0-.2-.2-.2-.4-.2-.6,0-.2.1-.3.2-.5Z"/>
              <path d="M26.1,11.1c0,0,0-.2.2-.3,0,0,.2,0,.3,0,0,.2,0,.3,0,.5,0,0-.1.1-.2.2-.1,0-.2,0-.2-.2,0,0,0-.1,0-.2Z"/>
              <path d="M10.9,26.5c0-.3.1-.4.4-.5,0,0,.1,0,.2,0,0,0,0,.1,0,.1-.1.1-.2.3-.2.5,0,0,0,.2-.1.1,0,0,0,0-.1-.1,0,0,0-.2,0-.2Z"/>
              <path d="M17.2,23c0,0-.1.2-.2.2-.2,0-.4,0-.6,0,0,0,0,0,0,0,0,0,0,0,0-.1,0,0,0,0,0,0,.2,0,.4-.2.6-.2,0,0,.2,0,.2.2Z"/>
              <path d="M8.3,7.9c.2-.2.3-.2.4-.1,0,0,.1.1.2.2,0,.1,0,.2,0,.3,0,0,0,0,0,0,0,0,0,0-.1,0-.2-.1-.3-.4-.5-.5Z"/>
              <path d="M9.9,9.2c0-.1,0-.2.1-.4,0,0,0,0,.2,0,0,0,0,0,0,0,0,.2,0,.5,0,.7,0,0,0,0,0,0,0,0-.1,0-.1,0,0,0,0-.2,0-.3Z"/>
              <path d="M14.2,23.1c.1,0,.3-.2.4-.3.1-.1.2-.2.3-.4.2.2.1.4,0,.6-.2.2-.5.3-.6.1Z"/>
              <path d="M28.6,1.3s0,0-.1,0c-.3,0-.4-.2-.5-.5,0,0,0-.1,0-.2,0,0,.1,0,.2,0,.2.1.3.3.4.5,0,0,0,0,0,.1Z"/>
              <path d="M14.6,25.8s0,0,0,0c0,0,0,0-.1,0-.2-.1-.3-.3-.3-.5,0,0,0-.1,0-.2,0,0,.2,0,.3,0,.1.1.2.4.2.6Z"/>
              <path d="M2.7,24.4c-.1,0-.3-.2-.2-.3,0-.1.2-.2.3-.3,0,0,.2,0,.3.2,0,.2-.2.4-.4.4Z"/>
              <path d="M16.6,18.3c0,.2-.2.3-.3.4,0,0-.1,0-.2.1,0,0-.2-.1-.2-.2,0,0,0-.2,0-.2,0-.2.2-.2.4-.2,0,0,0,0,.1.1Z"/>
              <path d="M25.5,18.5c0,0,.2,0,.2,0,0,0,0,.2,0,.2-.1,0-.2.1-.4.1-.1,0-.2,0-.2-.2,0,0,0-.2.2-.2,0,0,.1,0,.2,0Z"/>
              <path d="M17.7,12.1c.1,0,.3,0,.4,0,0,0,.2,0,.3,0,.1.1.1.2,0,.3,0,.1-.2.1-.3.1-.2,0-.3-.2-.4-.4Z"/>
              <path d="M28.3,7.2s0,0,0,0c-.2.2-.4.3-.6.3,0,0-.1,0-.1,0,0,0,0,0,0-.1.2-.2.4-.3.7-.3,0,0,0,0,0,0,0,0,0,0,0,0Z"/>
              <path d="M31,1.6c0,0,0,.1,0,.1,0,0,0,0-.1,0,0,0-.1,0-.1-.1,0-.2-.1-.3,0-.5,0,0,0-.1.1-.1,0,0,.1,0,.1,0,0,.1,0,.3.1.4Z"/>
              <path d="M6.9,14.7s0,0,0,0c-.2.1-.5,0-.6-.2,0,0,0-.2.2-.2.2,0,.3.1.4.3,0,0,0,0,0,0Z"/>
              <path d="M20.3,17.4s0,0,.1,0c.2.2.4.3.6.5,0,0,0,0,0,.1,0,0,0,0,0,0,0,0,0,0-.1,0-.2-.1-.4-.3-.5-.5,0,0,0,0,0-.1Z"/>
              <path d="M17.8,23.1c.5-.2.6-.1.8.1,0,0,0,.1,0,.2,0,0-.1,0-.1,0-.1,0-.2-.1-.4-.2,0,0-.1,0-.3-.2Z"/>
              <path d="M26.2,23c0-.2-.2-.3-.2-.4,0-.1,0-.2,0-.3.1,0,.2,0,.3,0,.3.2.3.3,0,.6,0,0,0,0,0,0Z"/>
              <path d="M21.2,10.5c-.2-.1-.3-.3-.3-.4,0-.1.1-.2.3-.2.1,0,.2.1.2.2,0,.1-.1.3-.2.5Z"/>
              <path d="M3.3,19.3s0,0,.1,0c0,0,.1,0,.1.2,0,0,0,.1,0,.1,0,0-.1,0-.2,0-.1,0-.3,0-.3-.2,0-.1.1-.2.4-.2Z"/>
              <path d="M22.8,10.8c0,.1,0,.2-.2.3-.2,0-.3-.1-.3-.3,0,0,0-.2.2-.2.2,0,.3,0,.3.2Z"/>
              <path d="M13,6c0,0,0-.1,0-.2,0,0,0,0,0,0,0,0,0,0,.1,0,.1.1.2.3.1.4,0,0,0,.1,0,.1,0,0-.2,0-.2,0,0,0,0-.2-.1-.3Z"/>
              <path d="M20.8,2s.1,0,.2,0c0,0,.1,0,.2.1,0,.1,0,.2-.1.2-.2,0-.3,0-.4-.1,0-.1,0-.2.2-.3Z"/>
              <path d="M26,15.9c.1,0,.2,0,.3.1,0,0,0,.1,0,.1,0,0,0,.1-.1.1,0,0-.2,0-.3,0-.2,0-.3-.1-.2-.2,0,0,.1-.1.2-.2Z"/>
              <path d="M14.1,8.8c.3,0,.5.1.7.2,0,0,0,0,0,.1,0,0,0,0,0,0,0,0,0,0,0,0-.2,0-.4,0-.6-.4Z"/>
              <path d="M6,.2s0,0,.1,0c.1,0,.2.2.2.3,0,.1,0,.2-.1.2,0,0-.1,0-.2-.1,0-.1,0-.3,0-.4,0,0,0,0,0,0Z"/>
              <path d="M31.4,21.4c0,.1-.1.2-.3.2,0,0-.2,0-.2-.2,0-.2.1-.3.3-.3,0,0,.2.1.2.2Z"/>
              <path d="M6.4,19.8s0,.1-.1.2c0,0-.2,0-.3-.1,0,0,0-.1,0-.2,0,0,0,0,.1-.1.1,0,.2,0,.3,0,0,0,0,.1,0,.2Z"/>
              <path d="M7.6,10.1c0,0-.2,0-.3-.1,0,0,0-.1,0-.2,0,0,0,0,.1,0,.1,0,.3,0,.4,0,0,0,0,0,0,.1,0,0,0,0-.1.1,0,0,0,0-.2,0Z"/>
              <path d="M17.7,21.1c-.2,0-.4-.2-.6-.4,0,0,0,0,0-.1,0,0,0,0,0,0,.3,0,.4.2.5.5,0,0,0,0,0,0Z"/>
              <path d="M13.8,12.6c0,0,.2.1.3.2,0,0,0,.1,0,.2,0,0,0,0-.1,0,0,0-.1,0-.2,0-.1,0-.2-.2-.1-.2,0,0,.1,0,.2-.1Z"/>
              <path d="M17.7,6.1c0,.2,0,.4-.2.5,0,0,0,0-.1,0,0,0,0,0,0,0,0-.1,0-.3.1-.4,0,0,0,0,.1,0,0,0,0,0,.1,0Z"/>
              <path d="M2.2,26.4s0,0,0,0c-.2,0-.4-.3-.3-.4,0,0,0,0,0,0,.2,0,.4.1.5.3,0,0,0,0,0,.1Z"/>
              <path d="M26.9,3s0,0-.1.1c-.1,0-.3-.1-.2-.3,0,0,0-.1.2-.1.1,0,.2.1.2.3Z"/>
              <path d="M28.1,6.2c.2,0,.4.2.5.4,0,0,0,0,0,.1,0,0,0,0,0,0-.2,0-.4-.2-.4-.4,0,0,0,0,0-.1Z"/>
              <path d="M27,19s0,0,0,.1c0,0,0,0-.1.1,0,0-.1,0-.2-.1,0,0,0-.2,0-.2,0,0,0-.1.1-.2,0,0,.2,0,.2.2,0,0,0,0,0,0Z"/>
              <path d="M8.6,23.2c0-.2.1-.3.3-.4.1,0,.2,0,.3.1,0,0,0,.2-.1.2-.1,0-.3,0-.4,0h0Z"/>
              <path d="M7.7,9.3s0,0-.1,0c0,0,0-.1,0-.2,0-.1.2-.2.4-.2,0,0,0,0,.1,0,0,0,0,.1,0,.1,0,.1-.2.2-.3.3Z"/>
              <path d="M22.7,23.8s0,0,.1,0c.1,0,.2.1.2.3,0,0,0,0,0,0-.1,0-.2,0-.3,0,0,0,0,0,0,0,0,0,0-.2.1-.2Z"/>
              <path d="M26.5,9.1c0,0,.1.1,0,.1,0,0,0,.2-.1.3,0,.1-.3.1-.3,0,0-.1,0-.2,0-.2,0,0,.1-.1.2-.2Z"/>
              <path d="M13.2,7s0,0,0,0c0,.2-.2.3-.4.2,0,0,0,0,0,0,0-.2.2-.3.4-.3,0,0,0,0,.1,0Z"/>
              <path d="M26.7,6.8s0,0,0,0c.2,0,.2.2.2.4,0,0-.1.2-.2.1-.1,0-.2-.2-.2-.3,0,0,0,0,0-.1Z"/>
              <path d="M18.7,0c0,0-.1,0-.1-.1,0-.2,0-.3.2-.3,0,0,.2,0,.2.1,0,.1,0,.2-.2.3,0,0,0,0,0,0Z"/>
              <path d="M15.5,20.2c0,0,0-.1,0-.2,0,0,0,0,0,0,0,.1.1.2.2.3,0,0,0,.1,0,.1,0,0-.1,0-.2,0,0,0-.1-.2-.2-.3Z"/>
              <path d="M22.9,16.1s.1,0,.1.1c0,.1,0,.3,0,.4,0,0-.1,0-.2,0-.1-.1-.1-.3,0-.4,0,0,0,0,.1,0Z"/>
              <path d="M28,12.2c.2,0,.3.2.3.3,0,0-.1.1-.2,0,0,0-.2-.1-.2-.2,0,0,0-.2.1-.2Z"/>
              <path d="M32.2,21.6s0,0,0,.1c0,0-.1,0-.2,0-.1,0-.1-.2-.1-.4,0,0,.1-.1.2,0,.1,0,.2.2.2.4Z"/>
              <path d="M3.2,4.8c.1,0,.2,0,.2.2,0,.1,0,.2,0,.3,0,0,0,0,0,0-.1,0-.2,0-.2-.2,0-.1,0-.3,0-.3,0,0,0,0,0,0Z"/>
              <path d="M15,14.8c0,0,0,.2-.2.3,0,0-.1,0-.2,0,0,0,0,0,0-.1,0-.1,0-.2.2-.3,0,0,.1,0,.2,0,0,0,0,0,0,.1Z"/>
              <path d="M21,20.2c-.1.2-.2.4-.2.6,0,0,0,0-.1,0,0,0,0,0,0,0,0-.2,0-.3.2-.5,0,0,.1,0,.2,0Z"/>
              <path d="M15,15.8c0,0,0,.1,0,.2,0,.1-.1.2-.1.3-.2,0-.2-.1-.2-.2,0-.2.2-.2.4-.2Z"/>
              <path d="M24,7.7s0,.1,0,.2c0,0-.1.1-.2,0,0,0-.1,0-.1-.2,0-.1,0-.2.2-.3,0,0,0,0,0,0,0,0,0,0,0,0,0,0,0,0,0,.1Z"/>
              <path d="M24.8,9.4c0,0,0,.1,0,.1,0,0-.2,0-.2,0,0-.1-.1-.2,0-.4,0,0,0,0,0,0,0,0,0,0,0,0,0,0,0,.2,0,.2Z"/>
              <path d="M18.9,18.5c0,0,0-.1,0-.2.1-.2.3-.2.5-.2,0,0,0,0,0,0,0,.2-.3.3-.4.3Z"/>
              <path d="M14.9,18.7c.2,0,.3,0,.3.2,0,0,0,.1-.1.2-.1,0-.3,0-.3-.2,0,0,0-.1.1-.1Z"/>
              <path d="M26.2,14.7s0-.1,0-.2c0,0,0,0,.1,0,0,0,.1,0,0,.1,0,.1,0,.2-.1.3,0,0,0,0,0,0,0,0,0,0,0,0,0,0,0,0,0-.1Z"/>
              <path d="M18.4,19.1s0,0,0,0c0-.1,0-.3,0-.4,0,0,0,0,0,0,0,.1,0,.3,0,.4,0,0,0,0,0,0Z"/>
              <path d="M29,14.1s-.1,0-.2-.2c0-.1,0-.2.2-.3.1,0,.2,0,.2.2,0,.1,0,.2-.2.2Z"/>
              <path d="M25.9,4.6c.2,0,.3,0,.4.2,0,0,0,0,0,.1,0,0-.1,0-.1,0-.1,0-.2,0-.3-.2,0,0,0,0,0,0,0,0,0,0,0,0Z"/>
              <path d="M7.5,21.3c0,0,.1,0,.2,0,0,0,0,.2,0,.3,0,0,0,0,0,0-.2,0-.3-.2-.2-.3,0,0,0,0,.1,0Z"/>
              <path d="M29.9,12.6c0,.1-.2.2-.3.2,0,0,0,0-.1-.1,0-.1,0-.2.1-.2,0,0,.2,0,.3,0,0,0,0,0,0,0Z"/>
              <path d="M24.9,16.8c0,.2-.1.2-.3.2,0,0-.1,0-.1-.2,0-.1.1-.2.2-.2,0,0,0,0,.1.1Z"/>
              <path d="M10.3,11.2c.2,0,.3.3.2.4,0,0,0,0,0,0-.2,0-.2-.2-.2-.4,0,0,0,0,0,0Z"/>
              <path d="M18.5,25.2s0,0,0-.1c0,0,0,0,0,0,0,0,.1,0,.1,0,0,.1,0,.2,0,.3,0,0,0,0-.1,0,0,0,0,0-.1-.1,0,0,0,0,0-.1Z"/>
              <path d="M14.4,22.5s0,0-.1.1c-.1,0-.2,0-.2-.2,0,0,0-.1.1-.1.1,0,.2,0,.2.2Z"/>
              <path d="M22.3,7.3s0,0,0,0c0-.1,0-.3.2-.3,0,0,.1,0,.1,0,0,.1,0,.3-.2.3,0,0,0,0,0,0Z"/>
              <path d="M19.8,22.6c-.2,0-.3,0-.4-.2,0,0,0-.1,0-.1.2,0,.3,0,.4.2,0,0,0,0,0,.1Z"/>
              <path d="M18.4,10.7s0,0,0,.1c0,0,0,0-.1,0,0,0,0,0,0,0,0-.1,0-.3,0-.3,0,0,0,0,0,0,.1,0,.2.1.2.3Z"/>
              <path d="M28.7,25.7c.2,0,.2,0,.2.2,0,0,0,.1-.1.2-.1,0-.3-.1-.2-.2,0,0,0-.1.1-.1Z"/>
              <path d="M4.4,21.9c0,.2-.1.3-.3.4,0,0,0,0,0,0,0-.2,0-.4.2-.4,0,0,0,0,.1,0Z"/>
              <path d="M3.7,9.5s0,0,.1,0c0,0,.1.2,0,.3,0,0,0,.1-.1.2,0,0-.1,0-.1-.1,0,0,0-.2,0-.3,0,0,0,0,0,0Z"/>
              <path d="M31.7,4.7c0,.2-.1.3-.3.3,0,0,0,0,0,0,0,0,0,0,0-.1,0,0,.2-.2.3-.2,0,0,0,0,0,0,0,0,0,0,0,0Z"/>
              <path d="M1.5,21.3c0,.2,0,.3-.2.3,0,0-.1,0-.2-.1,0-.1.1-.3.2-.3,0,0,.1,0,.1.1Z"/>
              <path d="M20.8,23.6s0,0,0,0c0-.2.2-.2.3-.3,0,0,.1,0,.1,0,0,0,0,.1,0,.1,0,0-.2.2-.3.3,0,0,0,0-.1,0Z"/>
              <path d="M24.8,18.9c0,0,0,.2-.1.2-.1,0-.2-.1-.2-.2,0,0,0-.1.1-.1.1,0,.2,0,.2.2Z"/>
              <path d="M15.4,14.3s0,0,0,0c0,0,0,0-.1,0,0,0-.2,0-.2-.2,0,0,0-.1,0-.1.2,0,.3,0,.3.2Z"/>
              <path d="M25.2,25.1c0,.2-.2.3-.3.2,0,0,0,0,0,0,0-.1.1-.3.2-.2,0,0,0,0,.1,0Z"/>
              <path d="M21.6,24.8c0,.1,0,.2-.2.2,0,0-.2,0-.2-.1,0-.1,0-.2.2-.2,0,0,.1,0,.2,0Z"/>
              <path d="M6.9,24.4s0,0,0,0c0,.1-.1.2-.3.3,0,0,0,0-.1,0,0,0,0,0,0,0,0-.1.1-.2.3-.3,0,0,0,0,0,0Z"/>
              <path d="M18.4,24.6s0,0-.1,0c0,0,0-.2,0-.3,0,0,.1,0,.1,0,0,.1,0,.3,0,.3Z"/>
              <path d="M26,19c.2,0,.3,0,.3.2,0,0,0,.2-.1.2-.1,0-.2,0-.2-.2,0,0,0-.1,0-.1Z"/>
              <path d="M25.7,17.5s0,0-.1,0c-.1,0-.2,0-.2-.2,0,0,0,0,0,0,0,0,.1,0,.2,0,0,0,.1,0,.2.1,0,0,0,0,0,0Z"/>
              <path d="M19.8,16.3s0,0,0,0c-.1,0-.3,0-.3-.2,0,0,0,0,0-.1,0,0,0,0,0,0,.2,0,.3.1.3.3Z"/>
              <path d="M5.5,14.4c0,0-.1,0-.1-.1,0,0,0-.2,0-.2,0,0,.2,0,.2,0,0,0,0,.1,0,.1,0,0-.1,0-.2.1Z"/>
              <path d="M9.4,10.8c0,.1,0,.2-.2.2,0,0-.2-.1-.1-.2,0,0,.1-.2.2-.1,0,0,0,0,.1.1Z"/>
              <path d="M14.1,6.7c0,0,0,.1-.1.2,0,0-.2,0-.2,0,0,0,0-.2,0-.2,0,0,.1,0,.1,0,0,0,0,0,.1.1Z"/>
              <path d="M24.8,7.7s0,0,.1,0c0,0,0,0,0,0,0,0,0,.1,0,.1,0,0-.2,0-.2,0,0,0,0,0,0-.1,0,0,0,0,0,0,0,0,0,0,.1,0Z"/>
              <path d="M30.9,6.2s0,0-.1,0c-.1,0-.2,0-.2-.2,0,0,0-.1.1-.1.1,0,.2,0,.2.2Z"/>
              <path d="M31,13.2c0,0,0,.2-.1.2,0,0-.1,0-.1,0,0,0,0-.1,0-.2,0,0,0,0,.1,0,0,0,.1,0,.2.1Z"/>
              <path d="M4.8-.1c0,.1-.1.2-.2.2,0,0-.1,0-.1-.2,0,0,.1-.2.2-.1,0,0,0,0,.1.1Z"/>
              <path d="M15.8,25.1c0,0-.1-.1-.1-.2,0,0,0-.1,0-.2,0,0,0,0,.1,0,.1,0,.1.2,0,.3,0,0,0,0-.1,0Z"/>
              <path d="M30,16.8s0,0,0,0c-.1,0-.2,0-.3-.2,0,0,0,0,0-.1,0,0,0,0,0,0,0,0,.2.1.3.2,0,0,0,0,0,0Z"/>
              <path d="M17.5,23.6c0,0,0,.1,0,.2,0,0,0,0,0,0,0,0-.1,0-.1,0,0,0,0-.1,0-.2,0,0,0-.1.1-.1,0,0,.1,0,.2.1Z"/>
              <path d="M12.2,19.8c0,.1-.2.2-.3.1,0,0,0,0,0,0,0,0,0-.1,0-.1,0,0,.2,0,.3,0,0,0,0,0,0,0Z"/>
              <path d="M29.2,20.1s.1,0,.1,0c0,0,0,0,0,.1,0,0,0,.1-.2,0,0,0-.1,0-.2,0,0,0,0,0,0,0,0,0,0,0,0,0,0,0,0,0,0,0Z"/>
              <path d="M22.8,20.7c0,0,0,.1,0,.1,0,0-.1,0-.2,0,0,0,0,0,0-.1,0,0,0-.1,0-.1,0,0,0,0,.1,0,0,0,0,.1.1.1Z"/>
              <path d="M29.9,21.3c0,0,0,.1-.1.1,0,0-.1,0,0-.2,0,0,0,0,.1-.1,0,0,.1,0,.1.1Z"/>
              <path d="M10.6.4c0,0,.1,0,.2.1,0,0,0,.2-.1.2,0,0,0,0-.1-.1,0,0,0-.2,0-.2Z"/>
              <path d="M28.7,3.7c-.2,0-.3,0-.4-.2,0,0,0,0,0,0,0,0,0,0,0,0,.2,0,.3.1.3.3Z"/>
              <path d="M24.6,12.4c0,0,0-.1,0-.2,0,0,0,0,0,0,0,.1,0,.3,0,.4,0,0,0,0,0,0,0,0,0-.1,0-.2Z"/>
              <path d="M21.3,5.3c0,0,0,.1,0,.2,0,0,0,0,0,0,0,0,0,0,0,0,0,0,0-.2,0-.2,0,0,.1,0,.1,0,0,0,0,0,0,.1Z"/>
              <path d="M19.9,8.6c-.1,0-.2,0-.2-.1,0,0,0,0,.1-.1.1,0,.2,0,.2.1,0,0,0,0,0,.1Z"/>
              <path d="M18.3,6.2s0,0,0,0c0,0,0-.2,0-.2,0,0,0,0,.1,0,0,0,0,0,0,0,0,0,0,.2-.1.2,0,0,0,0,0,0Z"/>
              <path d="M20.3,7.1c0,0,0,.1-.1.1,0,0-.2,0-.1-.1,0,0,0,0,.1-.1,0,0,.1,0,.2.1Z"/>
              <path d="M25.1,7.4c-.1,0-.1-.1-.1-.2,0,0,0-.1,0-.1,0,0,.1,0,.1.1,0,0,0,.2,0,.2Z"/>
              <path d="M16.8,8.5c0,.1-.1.2-.2.1,0,0,0,0,0,0,0-.1.1-.2.2-.1,0,0,0,0,0,0Z"/>
              <path d="M25.4,10.4s0,0-.1,0c0,0-.1,0-.1-.2,0,0,0,0,.1-.1,0,0,.1,0,.1.2Z"/>
              <path d="M7.5,11s0,0,0,.1c0,0,0,0,0,0,0,0,0-.2,0-.3,0,0,0,0,0,0,0,0,0,0,0,.1Z"/>
              <path d="M16.2,12.1s0,0-.1,0c0,0-.2,0-.2-.2,0,0,0,0,.1-.1.1,0,.2,0,.2.2Z"/>
              <path d="M5.2,16.7c0,0,0,.1-.1.1,0,0-.1,0-.1,0,0,0,0-.2,0-.2,0,0,.1,0,.2,0Z"/>
              <path d="M24.8,24s0,0,0,0c0,0,0-.2,0-.3,0,0,0,0,0,0,0,0,0,.2,0,.3Z"/>
              <path d="M4.7,21c0,0-.1.2-.2.1,0,0,0,0,0,0,0-.1.1-.2.2-.1,0,0,0,0,0,0Z"/>
              <path d="M17.2,19.6c0,.1,0,.2-.2.2,0,0,0,0,0-.1,0,0,0-.2.1-.2,0,0,0,0,.1,0Z"/>
              <path d="M18.6,20.5c0,0-.1.1-.2.2,0,0,0,0-.1,0,0,0,0-.2.1-.2,0,0,0,0,.2.1Z"/>
              <path d="M4.4,22.8c0,.1-.1.2-.2.1,0,0,0,0,0-.1,0,0,.1-.1.2,0,0,0,0,0,0,.1Z"/>
              <path d="M3,17.7c0,.1,0,.2-.1.2,0,0-.1,0-.1-.1,0,0,0-.2.1-.2,0,0,0,0,.1,0Z"/>
              <path d="M19.8,24s0,0,0,0c0,0,0,0-.1,0,0,0,0,0,0-.1,0,0,.1,0,.1,0,0,0,0,0,.1,0Z"/>
              <path d="M5.7,25s0,0-.1,0c0,0-.1,0-.1-.2,0,0,0,0,.1,0,0,0,.1,0,.1.2Z"/>
              <path d="M10.7,25s0,0,0,0c0,0-.2,0-.2-.1,0,0,0,0,0,0,0,0,.2,0,.2.1Z"/>
              <path d="M19.9,25.2s-.1,0-.1,0c0,0,0-.1-.1-.2,0,0,0,0,0,0,0,0,.2,0,.2.2Z"/>
              <path d="M12.1,15.3s0,0-.1,0c0,0-.2,0-.2-.1,0,0,0-.1,0-.1,0,0,.1,0,.2.1Z"/>
              <path d="M16.3,15.2c0,0-.1.1-.1,0,0,0,0,0-.1,0,0,0,0,0,.1,0,0,0,0,0,.1,0Z"/>
              <path d="M4.2,13.2c0,0-.1.1-.2.2,0,0-.1,0-.1,0,0,0,0-.1.1-.2,0,0,0,0,.1,0Z"/>
              <path d="M23.3,12c.1,0,.2,0,.2.1,0,0,0,.1,0,.1,0,0-.2,0-.2-.1,0,0,0,0,0-.1Z"/>
              <path d="M30.2,10.5c0,.1,0,.2-.1.2,0,0-.1,0-.1,0,0,0,0-.2.1-.2,0,0,0,0,.1,0Z"/>
              <path d="M.9,8.4c0,0-.1,0-.1,0,0,0,0,0-.1,0,0,0,0,0,.1,0,0,0,0,0,.1,0Z"/>
              <path d="M12.6,8.2c0,0-.1.1-.2.1,0,0-.1,0-.1-.2,0,0,0-.1.1,0,0,0,0,0,.2.1Z"/>
              <path d="M29.1,5.9s0,0,0-.1c0,0,0-.2.1-.2,0,0,.1,0,.1,0,0,0,0,.1-.1.2Z"/>
              <path d="M19,5.6s0,0,0,.1c0,0,0,.2-.1.2,0,0,0,0-.1,0,0,0,0-.1.1-.2Z"/>
              <path d="M19.8,5.5c0,0,.2-.1.2-.2,0,0,0,0,.1,0,0,0,0,.2,0,.2,0,0-.2,0-.3.1,0,0,0,0,0,0Z"/>
              <path d="M25.1,2.1c0,0-.1.1-.2.1,0,0,0,0-.1,0,0,0,0-.1.1-.2,0,0,0,0,.2.1Z"/>
              <path d="M4,24.9c0,0,0,.1,0,.2,0,0,0,0-.1,0,0,0,0,0,0,0,0,0,0,0,0-.2Z"/>
              <path d="M22.3,24.9c0,0-.1,0-.1,0,0,0,0,0-.1,0,0,0,0,0,.1,0,0,0,0,0,.1.1Z"/>
              <path d="M12.1,24s0,0,0-.1c0,0,0,0,.1,0,0,0,0,0,0,.1,0,0,0,0-.1,0Z"/>
              <path d="M21.2,21.7s0,0,0,0c0,0,0,0,0,0,0,0,0,0,0,0,0,0,0,0-.1,0,0,0,0,0,0-.1,0,0,0,0,.1,0Z"/>
              <path d="M13.3,21.4c0,0,.1.1,0,.2,0,0-.1,0-.1,0,0,0,0,0,0-.1,0,0,0,0,.1,0Z"/>
              <path d="M6.3,21.4c0,0,0,.1,0,.2,0,0,0,0-.1,0,0,0,0,0,0,0,0,0,0,0,0-.2Z"/>
              <path d="M10.9,21.4s0,0-.1,0c0,0-.1,0,0-.2,0,0,0,0,0,0,0,0,.1,0,.1.2Z"/>
              <path d="M15.8,17.9c0,0,0,.1-.1.1,0,0-.2,0-.1-.1,0,0,0-.1.1-.1,0,0,0,0,.1,0Z"/>
              <path d="M18.5,17.6s0,0,0,0c0,0-.2,0-.1-.1,0,0,0,0,0,0,0,0,0,0,.1,0Z"/>
              <path d="M21,3c0,0-.1,0-.2,0,0,0,0,0,0,0,0,0,.1,0,.2,0,0,0,0,0,0,0Z"/>
              <path d="M14.7,17.6s0,0,0,0c0,0,0,0-.1,0,0,0,0,0,0-.1,0,0,0,0,.1,0Z"/>
              <path d="M21.1,17.3s0,0,0,0c0,0,0,0,0-.1,0,0,.1,0,.1,0,0,0,0,0,0,.1Z"/>
              <path d="M25.2,14.3c0,0,.1,0,.1.1,0,0,0,0,0,.1,0,0,0,0,0-.1,0,0,0,0,0-.1Z"/>
              <path d="M30.1,4.2s.1,0,.1.1c0,0,0,.2-.1.1,0,0,0,0,0-.1,0,0,0,0,.1-.1Z"/>
              <path d="M9.1,4.6c0,0,.1,0,.1.1,0,0,0,0,0,.1,0,0,0,0,0,0,0,0,0,0,0-.2Z"/>
              <path d="M17,11.3s0,.1-.1.1c0,0,0,0-.1,0,0,0,0,0,.1,0,0,0,0,0,0,0Z"/>
              <path d="M16.6,10.1c0,0-.2,0-.2,0,0,0,0,0,0-.1,0,0,0,0,0,0,0,0,0,0,0,.2Z"/>
              <path d="M25.9,6.2s0,0,0,.1c0,0,0,0-.1,0,0,0,0,0,0-.1,0,0,0,0,.1,0Z"/>
              <path d="M1.6,6.2c0,0,.1,0,.1.1,0,0,0,0,0,.1,0,0,0,0,0-.1,0,0,0,0,0-.1Z"/>
              <path d="M25.9,7.5c0,0,0,0-.1.1,0,0,0,0,0-.1,0,0,0,0,0,0,0,0,0,0,.1,0Z"/>
              <path d="M31.7,7.3s0,0,0,0c-.1,0-.1-.1-.2-.2,0,0,0,0,0,0,0,0,0,0,0,0,0,0,0,.1.1.2Z"/>
              <path d="M30.1,9s0,0,0,0c0,0,0-.1.1-.1,0,0,0,0,0,0,0,0,0,.1-.1.2Z"/>
              <path d="M10.4,10.2c0,0-.1,0-.2,0,0,0,0,0,0-.1,0,0,0,0,0,0,0,0,0,0,.1,0Z"/>
              <path d="M21.9,23.1c0,0,0,0,0,.1,0,0,0,0-.1,0,0,0,0,0,0,0,0,0,0,0,.1,0Z"/>
              <path d="M21.1,12s0,0,0-.1c0,0,0,0,0,0,0,0,0,0,0,.1,0,0,0,0-.1,0Z"/>
              <path d="M29.8,5.1s0,0,0,0c0,0,0,0-.1-.1,0,0,0,0,0,0,0,0,0,0,.1,0Z"/>
              <path d="M9.3,13s0,0-.1-.1c0,0,0,0,0,0,0,0,0,0,.1,0,0,0,0,0,0,.1Z"/>
              <path d="M15.5,20.9c0,0,0,.1-.1.1,0,0,0,0-.1,0,0,0,0,0,0,0,0,0,0,0,.2,0Z"/>
              <path d="M24.3,19.5s0,0,.1,0c0,0,0,0,0,0,0,0,0,0,0-.1,0,0,0,0,0,0Z"/>
              <path d="M16.7,13.6s0,0,0,0c0,0,0,0-.1-.1,0,0,0,0,0,0,0,0,0,0,.1,0Z"/>
              <path d="M3,18.8c0,0,0,.1,0,.2,0,0,0,0-.1,0,0,0,0,0,0,0,0,0,0,0,.1-.1Z"/>
              <path d="M3.7,18.4c0,0,0,.1,0,.2,0,0,0,0,0,0,0,0,0,0,0-.2,0,0,0,0,.1,0Z"/>
              <path d="M18,4.4c0,0-.1,0-.1,0,0,0,0,0,0-.1,0,0,0,0,0,0,0,0,0,0,0,.1Z"/>
              <path d="M22.9,17.8s0,0-.1,0c0,0,0,0,0-.1,0,0,0,0,0,0,0,0,0,0,0,.1Z"/>
              <path d="M25.1,14.9s0,0,0,0c0,0-.2,0-.1-.1,0,0,0,0,0,0,0,0,.2,0,.2.1Z"/>
              <path d="M24,16.6c0,0-.1,0-.2,0,0,0,0,0,0-.1,0,0,0,0,0,0,0,0,0,0,.1.1Z"/>
              <path d="M20.5,16.6s0,0-.1,0c0,0,0,0,0,0,0,0,0,0,.1,0,0,0,0,0,0,0Z"/>
              <path d="M24.9,16.1s0,0,0,0c0,0,0,0,0,0,0,0,0,0,0,0,0,0,0,0,0,0Z"/>
              <path d="M27.6,15.3s0,0,0,0c0,0,0,0,0,0,0,0,0,0,0,0,0,0,0,0,0,0Z"/>
              <path d="M28.7,18.1s0,0,0,0c0,0,0,0,0,0,0,0,0,0,0,0,0,0,0,0,0,0Z"/>
              <path d="M21.6,18.3s0,0,0,0c0,0,0,0,0,0,0,0,0,0,0,0,0,0,0,0,0,0Z"/>
              <path d="M23.9,18.4s0,0-.1,0c0,0,0,0,0,0,0,0,0,0,.1,0,0,0,0,0,0,.1Z"/>
              <path d="M26,14s0,0,0,0c0,0,0,0,0,0,0,0,0,0,0,0,0,0,0,0,0,0Z"/>
              <path d="M1.3,8.4s0,0,0,0c0,0,0,0,0,0,0,0,0,0,0,0,0,0,0,0,0,0Z"/>
              <path d="M22.8,19.2s0,0,0,0c0,0,0,0,0,0,0,0,0,0,0,0,0,0,0,0,0,0Z"/>
              <path d="M17.7,19.4s0,0-.1,0c0,0,0,0,0,0,0,0,0,0,0-.1,0,0,0,0,0,0Z"/>
              <path d="M11.1,2.2s0,0,0,0c0,0,0,0,0-.1,0,0,0,0,0,0,0,0,0,0,.1,0Z"/>
              <path d="M17.6,13.1s0,0,0,0c0,0,0,0,0,0,0,0,0,0,0,0,0,0,0,0,0,0Z"/>
              <path d="M28.6,13s0,0,0,0c0,0,0,0,0,0,0,0,0,0,0,0,0,0,0,0,0,0Z"/>
              <path d="M15.7,21.4s0,0,0,0c0,0,0,0,0,0,0,0,0,0,0,0,0,0,0,0,0,0Z"/>
              <path d="M1.6,1.3c0,0,0-.1,0-.2,0,0,0,0,0,0,0,0,0,0,0,0,0,0,0,0,0,0Z"/>
              <path d="M15.7,23.2s0,0-.1,0c0,0,0,0,0,0,0,0,0,0,.1,0,0,0,0,0,0,.1Z"/>
              <path d="M11.5,23.3s0,0-.1,0c0,0,0,0,0,0,0,0,0,0,.1,0,0,0,0,0,0,.1Z"/>
              <path d="M16.3,23.8s0,0,0,0c0,0,0,0,0,0,0,0,0,0,0,0,0,0,0,0,0-.1Z"/>
              <path d="M28.2,25s0,0,0,0c0,0,0,0,0,0,0,0,0,0,0,0,0,0,0,0,0,0Z"/>
              <path d="M21.8,25.8s0,0,0,0c0,0,0,0,0,0,0,0,0,0,0,0,0,0,0,0,0,0Z"/>
              <path d="M20.8,25.6s0,0,0,0c0,0,0,0,0,0,0,0,0,0,0,0,0,0,0,0,0,0Z"/>
              <path d="M20.5,9.8s0,0,0,0c0,0,0,0,0,0,0,0,0,0,0,0,0,0,0,0,0,0Z"/>
              <path d="M30.8,10.8s0,0,0,0c0,0,0,0,0,0,0,0,0,0,0,0,0,0,0,0,0,0Z"/>
              <path d="M30.8,9.6s0,0,0,0c0,0,0,0,0,0,0,0,0,0,0,0,0,0,0,0,0,0Z"/>
              <path d="M9.6,23.5s0,0,0,0c0,0,0,0,0,0,0,0,0,0,0,0,0,0,0,0,0,0Z"/>
              <path d="M20,23.2s0,0,0,0c0,0,0,0,0,0,0,0,0,0,0,0,0,0,0,0,0,0Z"/>
              <path d="M24.1,12.3s0,0,0,0c0,0,0,0,.1,0,0,0,0,0,0,0,0,0,0,0,0,0Z"/>
              <path d="M26,20.8s0,0,0,0c0,0,0,0,0,0,0,0,0,0,0,0,0,0,0,0,0,0Z"/>
              <path d="M14.9,13.3s0,0,0,0c0,0,0,0,0,0,0,0,0,0,0,0,0,0,0,0,0,0Z"/>
              <path d="M20.6,19.2s0,0,0,0c0,0,0,0,.1,0,0,0,0,0,0,0,0,0,0,0,0,0Z"/>
              <path d="M10.6,19.1s0,0,0,0c0,0,0,0,0,0,0,0,0,0,0,0,0,0,0,0,0,0Z"/>
              <path d="M6.7,8.5s0,0,0,0c0,0,0,0,0,0,0,0,0,0,0,0,0,0,0,0,0,0Z"/>
              <path d="M11.8,24s0,0,0,0c0,0,0,0,0,0,0,0,0,0,0,0,0,0,0,0,0,0Z"/>
              <path d="M32.1,22.4s0,0,0,0c0,0,0,0,0,0,0,0,0,0,0,0,0,0,0,0,0,0Z"/>
              <path d="M14.6,21.8s0,0,0,0c0,0,0,0,0,0,0,0,0,0,0,0,0,0,0,0,0,0Z"/>
              <path d="M6.9,21.6s0,0,0,0c0,0,0,0,0,0,0,0,0,0,0,0,0,0,0,0,0,0Z"/>
              <path d="M2.4,20.7s0,0,0,0c0,0,0,0,0,0,0,0,0,0,0,0Z"/>
              <path d="M23.3,19.5s0,0,0,0h0s0,0,0,0Z"/>
              <path d="M7.9,19.3s0,0,0,0c0,0,0,0,0,0,0,0,0,0,0,0,0,0,0,0,0,0Z"/>
              <path d="M31.9,18.9s0,0,0,0c0,0,0,0,0,0,0,0,0,0,0,0,0,0,0,0,0,0Z"/>
              <path d="M23,18.9s0,0,0,0c0,0,0,0,0,0,0,0,0,0,0,0,0,0,0,0,0,0Z"/>
              <path d="M24.2,17.3s0,0,0,0c0,0,0,0,0,0,0,0,0,0,0,0,0,0,0,0,0,0Z"/>
              <path d="M25.7,16.7s0,0,0,0c0,0,0,0,0,0,0,0,0,0,0,0,0,0,0,0,0,0Z"/>
              <path d="M24.4,16.3s0,0,0,0c0,0,0,0,0,0,0,0,0,0,0,0,0,0,0,0,0,0Z"/>
              <path d="M20.6,16.2s0,0,0,0c0,0,0,0,0,0,0,0,0,0,0,0,0,0,0,0,0,0Z"/>
              <path d="M23,15.7s0,0,0,0c0,0,0,0,0,0,0,0,0,0,0,0,0,0,0,0,0,0Z"/>
              <path d="M23.5,15.5s0,0,0,0c0,0,0,0,0,0,0,0,0,0,0,0,0,0,0,0,0,0Z"/>
              <path d="M4.3,15.1s0,0,0,0c0,0,0,0,0,0,0,0,0,0,0,0,0,0,0,0,0,0Z"/>
              <path d="M26.9,13.8s0,0,0,0c0,0,0,0,0,0,0,0,0,0,0,0Z"/>
              <path d="M16.1,13.7s0,0,0,0c0,0,0,0,0,0,0,0,0,0,0,0Z"/>
              <path d="M5.6,12.6s0,0,0,0c0,0,0,0,0,0,0,0,0,0,0,0Z"/>
              <path d="M27,12.2s0,0,0,0c0,0,0,0,0,0,0,0,0,0,0,0h0Z"/>
              <path d="M9.5,12.2s0,0,0,0c0,0,0,0,0,0,0,0,0,0,0,0,0,0,0,0,0,0Z"/>
              <path d="M10.9,12s0,0,0,0c0,0,0,0,0,0,0,0,0,0,0,0h0Z"/>
              <path d="M22,11.4s0,0,0,0c0,0,0,0,0,0,0,0,0,0,0,0,0,0,0,0,0,0Z"/>
              <path d="M27,9.3s0,0,0,0c0,0,0,0,0,0,0,0,0,0,0,0,0,0,0,0,0,0Z"/>
              <path d="M28.3,8.6s0,0,0,0c0,0,0,0,0,0,0,0,0,0,0,0h0Z"/>
              <path d="M8.3,7.2s0,0,0,0c0,0,0,0,0,0,0,0,0,0,0,0,0,0,0,0,0,0Z"/>
              <path d="M26.3,1.7s0,0,0,0c0,0,0,0,0,0,0,0,0,0,0,0,0,0,0,0,0,0Z"/>
              <path d="M31.7,1.2s0,0,0,0c0,0,0,0,0,0,0,0,0,0,0,0Z"/>
              <path d="M31.2.7s0,0,0,0c0,0,0,0,0,0,0,0,0,0,0,0,0,0,0,0,0,0Z"/>
            </g>
          </g>
        </g>
      </g>
    </g>
  </g>
</svg>