<?xml version="1.0" encoding="utf-8"?>
<!-- Generator: Adobe Illustrator 22.0.0, SVG Export Plug-In . SVG Version: 6.00 Build 0)  -->
<svg version="1.1" id="Layer_1" xmlns="http://www.w3.org/2000/svg" xmlns:xlink="http://www.w3.org/1999/xlink" x="0px" y="0px"
	 viewBox="0 0 864 864" style="enable-background:new 0 0 864 864;" xml:space="preserve">
<path d="M857.6,641.5c-20.4-20.4-40.7-40.7-61.1-61.1c-0.9-0.9-1.8-1.8-2.9-2.5c-1-0.6-2.5-0.5-3.5,0.3c-2.9,2.5-5.7,5.1-8.4,7.8
	c-17.2,17.2-34.4,34.4-51.6,51.6c-2.7,2.7-5.6,5.2-8.5,7.7c-1,0.9-2.3,0.7-3.5-0.2c-1.5-1.2-3-2.4-4.4-3.7
	c-19.9-19.9-39.8-39.8-59.7-59.8c-1.3-1.3-2.3-3-3.4-4.6c-0.3-0.5-0.6-1.4-0.4-1.7c1.6-2,3.2-4,5-5.8c17.2-17.2,34.4-34.4,51.5-51.6
	c3.6-3.6,7.1-7.3,10.7-11c1.4-1.4,1.5-3.8,0.1-5.2c-7.6-7.8-15.2-15.5-22.9-23.2c-13.1-13.2-26.2-26.2-39.3-39.4
	c-1.8-1.8-3.4-3.8-4.9-5.8c-0.3-0.3,0.1-1.2,0.3-1.8c0.9-2.5,2.8-4.2,4.6-6c19-19,38-38,57-57c1.8-1.8,3.8-3.4,5.8-5
	c1.1-0.9,2.4-1,3.5-0.2c1.1,0.7,2.2,1.4,3.1,2.3c20.4,20.3,40.8,40.7,61.1,61.1c0.9,0.9,1.6,2,2.5,2.9c1.4,1.7,1.7,3.9,0.6,5.1
	c-5.3,5.5-10.6,11.1-16,16.5c-14.9,15-29.9,29.9-44.8,44.8c-1.4,1.4-2.7,2.7-4,4.1c-2.6,2.9-3.2,5.2-0.1,8.3
	c20.8,20.8,41.6,41.6,62.4,62.4c0.9,0.9,2,1.6,3,2.4c1.2,1,4.3,1.1,5.4,0.1c1.4-1.3,3-2.4,4.4-3.7c19.5-19.4,38.9-38.9,58.4-58.4
	c1.3-1.3,2.4-2.9,3.6-4.4c1-1.2,1-4.2-0.1-5.4c-2.6-2.8-5.1-5.7-7.8-8.4c-17.2-17.2-34.4-34.4-51.5-51.6c-2.2-2.3-4.2-4.7-6.2-7.2
	c-0.8-1-0.6-2.3,0-3.6c1.5-2.9,3.9-5,6.1-7.3c17.2-17.2,34.4-34.4,51.6-51.6c2.7-2.7,5.3-5.6,7.9-8.4c1.4-1.6,1.7-3.8,0.5-5.1
	c-1.7-1.9-3.2-4-5-5.8c-19.9-19.9-39.8-39.8-59.8-59.7c-0.9-0.9-1.9-1.8-2.9-2.5c-1-0.7-2.5-0.8-3.5,0.1c-3.4,2.9-6.6,6-9.8,9.2
	c-16.8,16.7-33.5,33.5-50.3,50.2c-2.7,2.7-5.6,5.2-8.5,7.7c-1.1,0.9-2.3,0.9-3.5-0.1c-1.5-1.2-3.1-2.3-4.4-3.6
	c-15.9-15.8-31.7-31.6-47.5-47.5c-4.5-4.5-9.1-9-13.5-13.7c-1.3-1.3-2-3.2-3.1-5c2.7-2.9,5.3-5.8,8-8.5
	c15.8-15.9,31.7-31.7,47.5-47.5c4.1-4.1,8-8.2,12.1-12.4c1.3-1.4,1.5-4,0.4-5.2c-2.6-2.8-5.2-5.6-8-8.3
	c-17.6-17.7-35.3-35.3-52.9-53c-2.2-2.3-4.3-4.7-6.3-7.2c-0.3-0.3-0.2-1.3,0.1-1.7c1-1.6,1.9-3.4,3.2-4.7
	c20.3-20.4,40.7-40.8,61.1-61.1c0.5-0.5,0.9-0.9,1.4-1.3c0.5-0.4,1-0.7,1.5-1.2c1.3-1.1,3.7-0.9,5.2,0.6
	c21.3,21.2,42.6,42.4,63.9,63.7c0.9,0.9,1.5,2.1,2.1,3.1c0.8,1.3,0.7,2.4-0.1,3.5c-4,5.1-8.7,9.3-13.2,13.9
	c-15.8,15.9-31.7,31.7-47.5,47.5c-1.4,1.4-2.7,2.7-4,4.1c-2.7,2.8-2.9,5.8-0.4,8.3c20.8,20.8,41.6,41.6,62.5,62.4
	c0.9,0.9,2,1.6,2.9,2.4c1.3,1.1,4.2,1.2,5.4,0.3c1-0.8,2.1-1.5,3-2.4c20.4-20.3,40.7-40.7,61.1-61.1c0.9-0.9,1.6-2,2.4-3
	c1.1-1.3,1.2-4.2,0.1-5.4c-2.6-2.8-5.1-5.7-7.8-8.5c-17.2-17.2-34.4-34.4-51.5-51.6c-2.2-2.3-4.3-4.7-6.3-7.2
	c-0.8-1-0.8-2.3-0.1-3.6c1.7-3.5,4.7-6,7.4-8.7c17.6-17.7,35.3-35.3,52.9-53c2.2-2.3,4.6-4.4,6.2-7.3c0.7-1.2,0.7-2.3-0.3-3.5
	c-0.8-1-1.4-2.2-2.3-3.1c-20.8-20.8-41.6-41.6-62.5-62.4c-0.9-0.9-2-1.8-3.1-2.1c-1.1-0.3-2.7-0.4-3.6,0.2c-2.6,1.9-5,4-7.3,6.2
	c-16.3,16.3-32.6,32.6-48.9,48.8c-3.6,3.6-7.3,7.1-11,10.7c-1.5,1.4-3.9,1.6-5.1,0.4c-3.3-3.1-6.6-6.1-9.8-9.2
	c-16.3-16.3-32.6-32.6-48.9-48.8c-2.7-2.7-5.6-5.2-8.5-7.8c-1.2-1.1-4.2-1.1-5.3-0.1c-3.3,3.1-6.6,6-9.8,9.2
	c-16.8,16.7-33.5,33.5-50.3,50.2c-2.3,2.3-4.7,4.3-7.1,6.4c-1.1,1-4,0.7-5.2-0.5c-3.7-3.6-7.4-7.1-11-10.7
	c-16.3-16.3-32.6-32.6-48.9-48.8c-2.3-2.2-4.7-4.3-7.3-6.2c-0.8-0.6-2.7-0.6-3.5,0c-2.6,1.8-5,3.9-7.3,6.2
	c-16.3,16.2-32.6,32.6-48.9,48.8c-3.6,3.6-7.3,7.2-11,10.7c-1.6,1.5-3.9,1.8-5.1,0.7c-3.3-3-6.6-6-9.8-9.2
	c-16.3-16.3-32.6-32.6-48.9-48.8c-2.7-2.7-5.6-5.2-8.4-7.8c-1.3-1.2-4.1-1.3-5.3-0.3c-2.8,2.6-5.7,5.1-8.4,7.8
	c-16.8,16.7-33.5,33.5-50.3,50.2c-2.7,2.7-5.6,5.2-8.4,7.8c-1.2,1.1-4,0.9-5.2-0.3c-3.7-3.5-7.4-7-11.1-10.6
	c-16.3-16.3-32.6-32.6-48.9-48.8c-2.3-2.2-4.7-4.3-7.2-6.3c-1-0.8-2.5-1-3.6-0.2c-2.6,1.9-5,3.9-7.3,6.1
	c-17.7,17.6-35.3,35.3-53,52.9c-2.7,2.7-5.6,5.2-8.5,7.7c-1,0.9-2.3,0.9-3.5-0.2c-3.8-3.4-7.6-6.8-11.2-10.4
	C114.6,42.5,98.4,26.2,82,9.9c-2.3-2.3-4.7-4.3-7-6.5c-1.4-1.3-4.1-1.5-5.3-0.5c-1.4,1.3-3,2.4-4.4,3.7
	C45.4,26.5,25.5,46.4,5.6,66.4c-0.9,0.9-1.6,1.9-2.5,2.9c-1.4,1.6-1.7,3.8-0.6,5.1c2.6,2.8,5,5.8,7.7,8.5
	c16.7,16.8,33.5,33.5,50.2,50.3c2.7,2.7,5.2,5.6,7.8,8.4c1.2,1.3,1.2,4.1,0.2,5.2c-3.5,3.7-7,7.5-10.6,11.1
	c-16.3,16.3-32.6,32.6-48.8,48.9c-2.2,2.3-4.3,4.7-6.4,7.1c-1,1.1-0.8,4,0.4,5.3c2.6,2.8,5.2,5.7,7.9,8.4
	c16.7,16.8,33.5,33.5,50.2,50.3c2.7,2.7,5.2,5.6,7.7,8.5c0.8,1,0.9,2.4,0,3.5c-2,2.5-4,5-6.2,7.2c-16.2,16.3-32.6,32.6-48.8,48.9
	c-3.2,3.2-6.3,6.3-9.4,9.6c-3.3,3.4-3.2,5.9,0.4,9.7c2.7,2.8,5.4,5.5,8.1,8.2c15.8,15.8,31.7,31.7,47.5,47.5
	c2.7,2.7,5.3,5.6,7.9,8.4c1.3,1.4,1.4,4.1,0.3,5.2c-3.1,3.2-6.1,6.6-9.2,9.7c-16.7,16.8-33.5,33.5-50.2,50.3
	c-2.2,2.3-4.3,4.7-6.4,7.1c-1.1,1.2-0.9,4,0.3,5.3c2.6,2.8,5.1,5.7,7.8,8.4c16.7,16.8,33.5,33.5,50.2,50.3c2.7,2.7,5.2,5.6,7.7,8.5
	c0.9,1,0.9,2.3,0.1,3.5c-2.6,4.5-6.7,7.7-10.3,11.3C42,605.9,25.2,622.7,8.5,639.4c-2.2,2.3-4.6,4.4-6.2,7.2
	c-0.8,1.3-0.7,2.2,0.1,3.5c2.1,3.3,5,5.8,7.7,8.5c16.7,16.8,33.5,33.5,50.2,50.3c2.7,2.7,5.3,5.6,7.9,8.4c1.3,1.4,1.5,4.1,0.5,5.2
	c-3.1,3.3-6,6.6-9.2,9.8C42.7,749.1,26,765.8,9.3,782.6c-2.2,2.3-4.3,4.7-6.4,7.1C1.7,791,1.8,793.6,3,795c0.8,1,1.5,2.1,2.4,3
	c19.9,19.9,39.8,39.8,59.7,59.7c1.3,1.3,3,2.4,4.5,3.6c1.1,0.9,4.1,0.7,5.4-0.3c0.5-0.4,1.2-0.6,1.6-1.1
	c21.7-21.7,43.4-43.5,65-65.3c1.2-1.2,1.1-3.9-0.2-5.2c-17.6-17.7-35.2-35.4-52.8-53.1c-4.5-4.5-8.9-9.2-13.3-13.8
	c-1.2-1.3-1-3.5,0.4-5.1c0.8-1,1.6-2,2.5-2.9c19.9-19.9,39.8-39.8,59.7-59.7c1.3-1.3,3-2.4,4.5-3.6c1.2-0.9,2.4-0.9,3.5,0
	c1,0.8,2.1,1.4,3,2.3c20.4,20.3,40.8,40.7,61.1,61.1c1.3,1.3,2.2,3.1,3.2,4.7c0.3,0.5,0.7,1.4,0.4,1.8c-1.5,2-3.1,4.1-4.8,5.9
	c-17.6,17.7-35.3,35.3-52.9,53c-2.3,2.3-4.5,4.5-6.7,6.8c-0.9,0.9-1.6,1.9-2.5,2.9c-1,1.2-1,4,0.3,5.3
	c21.7,21.7,43.4,43.5,65.1,65.2c0.4,0.4,1.1,0.6,1.6,1c1,0.7,4.4,0.5,5.4-0.4c2.4-2.1,4.8-4.2,7.1-6.4
	c16.3-16.3,32.6-32.6,48.9-48.8c3.2-3.2,6.4-6.2,9.7-9.3c1.6-1.5,5.2-1.3,7,0.4c2.3,2.2,4.7,4.4,6.9,6.7
	c16.8,16.7,33.5,33.5,50.3,50.2c2.7,2.7,5.7,5.1,8.5,7.7c1.1,1,4.2,0.9,5.4-0.2c1.9-1.7,4-3.2,5.8-5c19-19,38-38,57-57
	c1.4-1.4,2.6-2.8,3.9-4.2c1.3-1.4,1.3-3.9,0-5.2c-9.4-9.6-18.9-19.1-28.3-28.7c-11.7-11.8-23.5-23.5-35.3-35.3
	c-1.3-1.4-2.5-2.9-3.6-4.5c-0.2-0.4,0.1-1.3,0.4-1.8c1-1.6,2-3.3,3.3-4.6c19.9-20,39.8-39.9,59.7-59.8c1.3-1.3,2.9-2.5,4.4-3.6
	c1.2-0.9,2.4-0.9,3.5-0.1c1,0.7,2.2,1.4,3.1,2.3c20.4,20.3,40.8,40.7,61.1,61.1c0.9,0.9,1.6,2,2.4,2.9c1.4,1.6,1.6,3.9,0.4,5.1
	c-6.2,6.4-12.4,12.9-18.7,19.2c-14,14.1-28,28.1-42.1,42.1c-1.8,1.8-3.5,3.8-5.2,5.6c-1.2,1.3-1.2,4,0.1,5.3
	c21.7,21.8,43.3,43.5,65,65.2c0.4,0.4,1.1,0.6,1.6,1c1.1,0.8,4.4,0.8,5.4-0.2c4.2-3.9,8.5-7.8,12.5-11.8
	c16.3-16.2,32.6-32.6,48.9-48.8c1.8-1.8,3.8-3.4,5.9-4.8c0.9-0.5,2.5-0.2,3.6,0.1c2.5,0.9,4.1,3,5.9,4.8
	c17.7,17.6,35.3,35.3,53,52.9c2.7,2.7,5.7,5.2,8.5,7.7c1.1,1,4.3,0.9,5.4,0c1.5-1.2,3.1-2.3,4.4-3.7c19.9-19.9,39.8-39.8,59.7-59.7
	c0.9-0.9,1.7-1.9,2.6-2.8c1.3-1.5,1.5-3.9,0.2-5.2c-6.7-6.9-13.4-13.7-20.2-20.5c-14-14.1-28.1-28.1-42-42.1
	c-1.8-1.8-3.4-3.8-4.9-5.8c-0.3-0.3,0-1.2,0.2-1.7c0.9-2.5,2.8-4.2,4.6-6c19-19,38-38,57-57c1.8-1.8,3.8-3.4,5.8-5
	c1.1-0.9,2.4-1,3.5-0.3c1.1,0.7,2.2,1.4,3.1,2.2c20.4,20.3,40.8,40.7,61.1,61c0.5,0.5,0.9,0.9,1.3,1.4c2.9,3.1,3.1,5.7,0.6,8.2
	c-4.9,5-9.9,10-14.8,15C757.9,754,743,768.9,728,783.9c-1.4,1.4-2.7,2.7-4,4.1c-2.5,2.8-3.3,5.1-0.2,8.3
	c20.8,20.8,41.6,41.6,62.5,62.4c0.9,0.9,2,1.6,3,2.3c1.1,0.9,4.4,0.9,5.4,0c1-0.8,2.1-1.5,3-2.3c20.4-20.3,40.7-40.7,61.1-61.1
	c0.9-0.9,1.5-2,2.3-3c0.9-1.2,0.8-4.2-0.3-5.4c-3.1-3.2-6.1-6.6-9.2-9.7c-16.7-16.8-33.5-33.5-50.2-50.3c-2.2-2.3-4.3-4.7-6.1-7.3
	c-0.6-0.8-0.4-2.6,0.1-3.5c0.9-1.7,2.2-3.2,3.5-4.5c11.3-11.4,22.6-22.7,33.9-34c8.6-8.6,17.2-17.2,25.7-25.9c1.3-1.3,2.3-3,3.4-4.6
	c0.3-0.4,0.4-1.2,0.2-1.7C861.3,645.2,859.5,643.3,857.6,641.5z M220.1,141.1c0.4-0.5,0.7-1.1,1.1-1.5
	c21.2-21.2,42.5-42.4,63.8-63.5c1.2-1.2,4.2-1.4,5.3-0.5c0.5,0.4,1.1,0.7,1.6,1.1c0.5,0.4,1,0.8,1.4,1.3
	c20.3,20.3,40.6,40.6,60.9,61c1.3,1.3,2.2,3,3.1,4.4c0,1,0.1,1.6,0,2.2c-0.2,0.6-0.5,1.2-0.9,1.7c-21.2,21.3-42.4,42.5-63.6,63.7
	c-0.9,0.9-2,1.7-3.2,2c-1.1,0.3-2.7,0.3-3.6-0.3c-2.1-1.4-4.1-3-5.9-4.8c-18.5-18.5-37.1-37-55.6-55.5c-1.4-1.4-2.6-2.8-3.9-4.2
	C218.6,146,218.4,143,220.1,141.1z M74.3,287.3c1.6-2,3.2-4,5-5.8c15.8-15.9,31.6-31.7,47.4-47.5c5-5,9.8-10,14.7-15.1
	c1.4-1.4,1.4-3.8,0.2-5.2c-3.1-3.2-6.2-6.5-9.3-9.6c-17.2-17.2-34.4-34.3-51.5-51.5c-2.2-2.3-4.3-4.7-6.3-7.2
	c-0.3-0.3-0.1-1.2,0.2-1.7c0.5-1.1,1-2.4,1.9-3.3c4.4-4.6,8.9-9.2,13.4-13.7c16.3-16.3,32.5-32.5,48.9-48.7c1.3-1.3,3-2.2,4.4-3.2
	c0.9,0.1,1.6,0,2.1,0.3c1.1,0.6,2.2,1.3,3.1,2.2c20.8,20.8,41.6,41.5,62.4,62.4c0.9,0.9,1.5,2,2.2,3.1c0.8,1.2,0.9,2.5,0,3.5
	c-2.1,2.4-4.1,4.9-6.4,7.1c-18,18.1-36.2,36.1-54.2,54.3c-2.2,2.3-4.3,4.7-6.3,7.2c-0.3,0.4-0.3,1.3-0.1,1.8
	c0.4,1.2,0.7,2.6,1.5,3.4c21.2,21.3,42.4,42.5,63.7,63.7c0.9,0.9,2,1.7,3.2,2c1.1,0.3,2.8,0.4,3.6-0.1c2.6-1.8,5-3.9,7.3-6.2
	c17.2-17.1,34.4-34.3,51.6-51.5c2.7-2.7,5.6-5.2,8.4-7.8c1.1-1.1,4.1-1.1,5.4-0.1c0.5,0.4,1.1,0.6,1.6,1.1
	c21.2,21.2,42.5,42.5,63.7,63.7c0.4,0.4,0.7,1,1.1,1.6c0.7,1.1,0.8,2.3,0.1,3.6c-0.3,0.6-0.6,1.2-1,1.6
	c-21.7,21.7-43.4,43.4-65.1,65c-1.4,1.4-3.9,1.5-5.2,0.4c-1.4-1.3-3-2.4-4.3-3.8c-5.5-5.4-10.9-10.8-16.3-16.2
	c-15.4-15.3-30.8-30.7-46.2-46c-1.3-1.3-3.9-1.5-5.1-0.3c-2.8,2.6-5.6,5.2-8.4,7.9c-17.2,17.2-34.3,34.3-51.5,51.5
	c-2.3,2.3-4.6,4.4-6.9,6.6c-1.5,1.4-3.8,1.6-5.1,0.5c-1.4-1.3-3-2.4-4.3-3.8c-19.9-19.9-39.8-39.8-59.6-59.7c-1.3-1.3-2.3-3-3.3-4.6
	C74.3,288.5,74,287.6,74.3,287.3z M356.5,722.8c-1.7,1.9-3.4,3.8-5.2,5.6c-18,18.1-36.1,36.1-54.2,54.2c-2.2,2.2-4.7,4.3-7.3,6.1
	c-0.8,0.6-2.6,0.5-3.6,0c-1.7-0.8-3.3-2-4.6-3.3c-7.3-7.2-14.5-14.4-21.7-21.6c-11.7-11.7-23.5-23.5-35.2-35.2
	c-1.8-1.8-3.4-3.8-5.1-5.7c-1-1.1-0.9-4,0.2-5.3c0.4-0.5,0.6-1.1,1.1-1.6c21.2-21.2,42.5-42.4,63.7-63.6c1-1,2.2-1.4,3.4-1.3
	c0.6,0.1,1.3,0.1,1.8,0.4c1.1,0.7,2.1,1.4,3,2.3c20.3,20.3,40.7,40.6,61,60.9c0.9,0.9,1.6,2,2.5,2.9
	C357.5,718.8,357.6,721.7,356.5,722.8z M356.9,577.9c-0.3,0.6-0.6,1.2-1,1.6c-21.7,21.7-43.4,43.3-65.1,65c-1.4,1.4-3.9,1.5-5.2,0.3
	c-1.4-1.3-3-2.4-4.3-3.8c-5.9-5.8-11.8-11.7-17.7-17.6c-14.9-14.9-29.9-29.7-44.8-44.6c-1.3-1.3-3.9-1.4-5.1-0.3
	c-2.8,2.6-5.6,5.2-8.3,7.9c-16.7,16.7-33.4,33.4-50.2,50.1c-2.7,2.7-5.5,5.3-8.3,8c-1.5,1.4-3.8,1.6-5.1,0.5c-1-0.8-2-1.6-2.9-2.5
	c-20.4-20.3-40.7-40.6-61-61c-1.3-1.3-2.3-3-3.3-4.6c-0.3-0.5-0.5-1.4-0.3-1.7c1.6-2,3.2-4,5-5.8c16.2-16.3,32.5-32.6,48.8-48.8
	c4.5-4.5,8.9-9.1,13.4-13.7c1.4-1.4,1.4-3.8,0.1-5.2c-3.1-3.2-6.2-6.5-9.3-9.6c-17.2-17.2-34.4-34.3-51.5-51.5
	c-2.2-2.3-4.3-4.7-6.3-7.2c-0.3-0.3-0.1-1.2,0.2-1.7c0.5-1.1,1.1-2.4,1.9-3.3c4-4.2,8-8.2,12.1-12.3c16.7-16.7,33.5-33.4,50.2-50.1
	c1.4-1.3,2.8-2.7,4.7-3.1c0.5-0.1,1.2,0,1.7,0.3c1.1,0.6,2.2,1.3,3.1,2.2c20.8,20.8,41.6,41.5,62.3,62.4c1.3,1.3,2,3.2,2.9,4.6
	c-0.3,0.8-0.3,1.5-0.7,1.9c-2.1,2.4-4.1,4.9-6.4,7.1c-17.1,17.2-34.3,34.3-51.5,51.5c-2.7,2.7-5.3,5.5-8,8.3
	c-1.6,1.7-1.4,4.9,0.4,6.9c0.4,0.5,0.9,0.9,1.3,1.4c20.3,20.3,40.7,40.7,61,61c1.3,1.3,2.9,2.4,4.6,3.4c1.2,0.7,2.6,0.6,3.6-0.2
	c2.5-2,5-4,7.2-6.2c17.2-17.1,34.4-34.3,51.6-51.5c2.7-2.7,5.6-5.2,8.4-7.8c1.2-1.1,4.1-1.1,5.4,0c1,0.8,2.1,1.5,3,2.4
	c20.4,20.3,40.7,40.7,61,61c0.9,0.9,1.6,2,2.3,3C357.6,575.4,357.6,576.7,356.9,577.9z M356.6,434.6c-1.7,1.9-3.3,3.9-5.1,5.7
	c-18,18.1-36.1,36.1-54.2,54.2c-2.2,2.2-4.7,4.3-7.3,6.1c-0.9,0.6-2.5,0.5-3.6,0.2c-1.2-0.3-2.3-1.2-3.2-2c-4.2-4-8.3-8-12.3-12.1
	c-15.4-15.3-30.7-30.7-46-46.1c-1.8-1.8-3.4-3.8-5.1-5.7c-1-1.1-0.9-4.1,0-5.3c0.4-0.5,0.6-1.1,1.1-1.6
	c21.2-21.2,42.4-42.4,63.7-63.6c0.4-0.4,1-0.9,1.6-1c1.2-0.2,2.7-0.6,3.6-0.1c1.7,0.9,3.1,2.2,4.5,3.5
	c19.9,19.8,39.8,39.7,59.6,59.6c1.3,1.3,2.3,3,3.3,4.6c0.3,0.5,0.3,1.2,0.5,1.8C357.2,433.5,357,434.1,356.6,434.6z M430,214.5
	c-1.9-2.5-4.2-4.8-6.4-7.1c-17.6-17.6-35.2-35.3-52.8-52.9c-2.7-2.7-5.2-5.6-7.8-8.4c-0.8-0.9-0.9-2.3,0-3.5c1.6-2,3.2-4,5-5.8
	c19-19,37.9-38,56.9-56.9c1.4-1.4,2.8-2.6,4.3-3.9c1.5-1.4,3.9-1.6,5.2-0.5c1.4,1.3,3,2.4,4.3,3.8c19.9,19.9,39.8,39.8,59.6,59.7
	c1.3,1.3,2.2,3.1,3.1,4.7c0.3,0.5,0.4,1.4,0.2,1.7c-1.5,2-3.1,4.1-4.9,5.9c-13.5,13.6-27.1,27.1-40.6,40.7
	c-6.8,6.8-13.5,13.6-20.3,20.4c-2,2-2.3,5.1-0.6,6.8c21.6,21.7,43.3,43.4,65,65.1c2.3,2.3,5.9,2,8.5-0.4c1.4-1.3,2.8-2.6,4.2-4
	c5-5,9.9-9.9,14.9-14.9c15-14.9,29.9-29.7,44.9-44.6c1.8-1.7,5.2-1.7,7,0c0.5,0.4,1,0.8,1.4,1.3c0.9,0.9,1.9,1.7,2.8,2.6
	c18.5,18.5,37.1,37,55.6,55.6c1.8,1.8,3.4,3.8,5.2,5.6c1.1,1.1,1,4,0,5.2c-0.8,1-1.5,2-2.4,2.9c-20.3,20.3-40.7,40.7-61,61
	c-1.3,1.3-3.1,2.1-4.3,2.9c-1.1-0.1-1.9,0-2.3-0.3c-2.4-2-4.9-4.1-7.2-6.3c-17.2-17.1-34.4-34.3-51.5-51.5c-3.2-3.2-6.4-6.2-9.7-9.3
	c-0.9-0.8-2.4-1-3.5-0.1c-3.4,2.9-6.7,5.9-9.8,9.1c-16.8,16.7-33.4,33.4-50.2,50.1c-2.3,2.3-4.6,4.5-6.9,6.7
	c-2.6,2.5-4.9,2.2-8.1-0.8c-1.4-1.3-2.8-2.7-4.1-4c-18.1-18.1-36.2-36.1-54.2-54.2c-2.2-2.3-4.3-4.7-6.3-7.2c-1-1.2-0.9-2.4,0-3.4
	c3.5-3.7,7-7.5,10.6-11.1c17.6-17.7,35.2-35.3,52.8-52.9c1.3-1.4,2.8-2.7,3.7-4.4C430.5,217.1,430.5,215.2,430,214.5z M645.2,433.5
	c-0.2,0.6-0.5,1.2-0.9,1.7c-21.2,21.3-42.4,42.5-63.6,63.7c-1.2,1.2-3.3,1.7-4.6,2.3c-1.1-0.3-1.8-0.3-2.3-0.7
	c-2-1.6-4.1-3.1-5.9-4.8c-18.5-18.5-37.1-37-55.5-55.5c-1.8-1.8-3.3-3.8-4.9-5.8c-0.8-1-0.9-2.3-0.2-3.6c0.6-1.1,1.2-2.3,2-3.2
	c21.2-21.2,42.5-42.4,63.8-63.5c1.2-1.2,4.1-1.4,5.3-0.4c0.5,0.4,1.1,0.7,1.6,1.1c0.5,0.4,1,0.8,1.4,1.3
	c20.3,20.3,40.6,40.6,60.9,61c1.4,1.4,2.6,2.8,3,4.8C645.3,432.3,645.3,433,645.2,433.5z M506.1,578.3c-1.2-1.2-3.4-0.8-5.1,0.8
	c-4.6,4.4-9.2,8.9-13.7,13.4c-16.7,16.7-33.5,33.4-50.2,50.1c-1.3,1.3-3,2.3-4.6,3.3c-0.3,0.2-1.2-0.3-1.7-0.5
	c-0.6-0.3-1.2-0.5-1.6-1c-21.7-21.7-43.4-43.3-65.1-65c-0.4-0.4-0.8-1-1.1-1.5c-0.8-1.3-1-2.5-0.1-3.4c3-3.3,6-6.6,9.2-9.8
	c18-18.1,36.1-36.2,54.2-54.3c1.3-1.4,2.8-2.7,3.7-4.3c0.5-0.9,0.7-2.8,0.2-3.5c-1.9-2.5-4.2-4.8-6.4-7.1
	c-17.6-17.6-35.2-35.3-52.8-52.9c-2.7-2.7-5.2-5.6-7.8-8.4c-0.9-1-0.9-2.2-0.1-3.5c0.7-1.1,1.4-2.2,2.3-3.1
	c20.8-20.8,41.6-41.6,62.3-62.4c0.4-0.4,1-0.8,1.5-1.2c1.6-1.5,3.9-1.8,5.1-0.7c0.9,0.9,2.1,1.5,3,2.4c20.4,20.3,40.7,40.6,61,61
	c1.3,1.3,2.2,3.1,3.2,4.7c0.3,0.5,0.5,1.4,0.3,1.7c-1.1,1.6-2.2,3.2-3.5,4.5c-10.8,10.9-21.7,21.7-32.5,32.6
	c-9.9,10-19.9,19.9-29.8,29.9c-2.1,2.1-2.5,5.1-0.8,6.8c21.6,21.7,43.3,43.5,64.9,65.2c2.3,2.3,5.9,2.1,8.5-0.3
	c1.4-1.3,2.8-2.6,4.2-4c4.1-4.1,8.1-8.1,12.2-12.2c14.5-14.5,28.9-28.9,43.4-43.4c1.8-1.8,3.8-3.5,5.9-4.8c0.9-0.6,2.5-0.5,3.6-0.1
	c2.5,0.8,4.2,2.9,5.9,4.7c19,19,38,37.9,56.9,56.9c1.4,1.4,2.6,2.8,3.9,4.2c1.1,1.2,1.1,4.1,0.1,5.2c-0.8,1-1.5,2.1-2.4,3
	c-20.3,20.3-40.6,40.7-61,61c-1.3,1.3-3.1,2.1-4.3,2.9c-1.1-0.1-1.9,0.1-2.3-0.2c-2.5-2-4.9-4-7.2-6.3
	c-17.2-17.1-34.4-34.3-51.5-51.5C512.6,584.5,509.3,581.4,506.1,578.3z M645.2,721.4c-0.2,0.6-0.5,1.2-0.9,1.7
	c-21.2,21.3-42.4,42.5-63.6,63.7c-0.9,0.9-2,1.7-3.2,2c-1.1,0.3-2.7,0.3-3.6-0.3c-2.1-1.3-4.1-3-5.9-4.8
	c-18.6-18.5-37.1-37-55.6-55.5c-1.4-1.4-2.6-2.8-3.9-4.2c-1.9-2-2-5-0.4-6.9c0.4-0.5,0.7-1.1,1.1-1.5c21.2-21.2,42.5-42.4,63.8-63.5
	c1.2-1.2,4.2-1.4,5.3-0.5c0.5,0.4,1.1,0.7,1.6,1.1c0.5,0.4,1,0.8,1.4,1.3c20.3,20.3,40.7,40.6,60.9,61c1.3,1.3,2.2,3,3,4.2
	C645.2,720.2,645.4,720.9,645.2,721.4z M644.7,146.4c-0.8,1-1.5,2.1-2.4,3c-20.3,20.3-40.6,40.6-61,60.9c-1.3,1.3-3.1,2-4.3,2.7
	c-1.2,0-2,0.3-2.4,0c-2.1-1.5-4.2-2.9-6-4.6c-19-18.9-38-37.9-56.9-56.9c-1.3-1.3-2.5-2.9-3.8-4.3c-1-1.1-1.1-4.2-0.2-5.3
	c0.4-0.5,0.6-1.1,1.1-1.6c21.2-21.2,42.4-42.5,63.7-63.6c0.8-0.8,2.1-1.2,3.3-1.6c0.5-0.2,1.4-0.1,1.9,0.2c1.1,0.6,2.2,1.3,3.1,2.2
	c20.8,20.7,41.6,41.5,62.3,62.3c0.4,0.4,0.8,1,1.2,1.5C645.4,142.7,645.7,145.3,644.7,146.4z"/>
</svg>
