<?xml version="1.0" encoding="utf-8"?>
<!-- Generator: Adobe Illustrator 22.0.0, SVG Export Plug-In . SVG Version: 6.00 Build 0)  -->
<svg version="1.1" id="Layer_1" xmlns="http://www.w3.org/2000/svg" xmlns:xlink="http://www.w3.org/1999/xlink" x="0px" y="0px"
	 viewBox="0 0 864 864" style="enable-background:new 0 0 864 864;" xml:space="preserve">
<path d="M0.6,114c-0.1-0.6-0.5-1.2-0.5-1.8c0-17.9,0-35.8,0.1-53.7c0-2,1-3.7,2.3-5.1c1.3-1.4,2.7-2.7,4.2-4
	c3.9-3.3,7.8-6.6,11.8-9.8C32.7,27.8,47,16,61.3,4.2c1.5-1.2,2.8-2.6,4.2-3.9c5.1,0,10.2,0,15.4,0c0.1,2,1.3,3.5,2.8,4.8
	c18.7,15.4,37.4,30.7,56.1,46.1c0.5,0.4,1.1,0.7,1.6,1c1.4,1,3.9,0.9,5.3-0.2c3.5-2.7,7.1-5.4,10.5-8.3
	c14.3-11.7,28.6-23.4,42.8-35.2c2-1.6,4-3.2,5.7-5c0.8-0.8,1.2-2.2,1.8-3.3c5.1,0,10.2,0,15.4,0c0.8,1,1.4,2.2,2.4,2.9
	C244,18.6,262.8,34,281.5,49.4c1.5,1.2,3.1,2.4,4.8,3.1c1,0.4,2.7,0.4,3.6-0.2c3.7-2.5,7.2-5.2,10.7-8c17.7-14.6,35.7-28.8,53-44
	c5.1,0,10.2,0,15.4,0c0.1,2,1.3,3.5,2.8,4.8c18.7,15.4,37.4,30.7,56.1,46.1c0.5,0.4,1.1,0.7,1.6,1c1.4,1,3.9,0.9,5.3-0.2
	c3.5-2.7,7.1-5.4,10.5-8.3c14.3-11.7,28.6-23.4,42.8-35.2c2-1.6,4-3.2,5.7-5c0.8-0.8,1.2-2.2,1.8-3.3c5.1,0,10.2,0,15.4,0
	c0.8,1,1.4,2.2,2.4,2.9C532,18.6,550.8,34,569.5,49.4c1.5,1.2,3.1,2.4,4.8,3.1c1,0.4,2.7,0.4,3.6-0.2c3.7-2.5,7.2-5.2,10.7-8
	c17.7-14.6,35.7-28.8,53-44c5.1,0,10.2,0,15.4,0c0.1,2,1.3,3.5,2.8,4.8c18.7,15.4,37.4,30.7,56.1,46.1c0.5,0.4,1.1,0.7,1.6,1
	c1.4,1,3.9,0.9,5.3-0.2c3.5-2.7,7.1-5.4,10.5-8.3c14.3-11.7,28.6-23.4,42.8-35.2c2-1.6,4-3.2,5.7-5c0.8-0.8,1.2-2.2,1.8-3.3
	c5.1,0,10.2,0,15.4,0c1.2,2.3,3.3,3.8,5.3,5.4c15.8,13,31.6,26,47.4,39c3.4,2.8,6.7,5.9,10,8.9c1.4,1.3,2.2,3.2,2.2,5.1
	c0.1,11.5,0.3,23,0.2,34.5c-0.1,7,0.9,14.1-0.8,21c-0.3,1.1-1.6,1.8-3,1.8c-2-0.1-3.5-1.4-5-2.6c-12.4-10.1-24.7-20.3-37.1-30.4
	c-7.4-6.1-14.8-12.2-22.4-18.1c-3.1-2.5-4.5-2.6-8.6,0.4c-2.1,1.5-4,3.1-6,4.8c-16.8,13.8-33.6,27.7-50.4,41.5
	c-3,2.4-5.7,5.1-9.3,6.7c-1.2,0.6-2.5,0.7-3.6-0.1c-3.1-2.2-6.3-4.4-9.2-6.8c-16.3-13.4-32.6-26.8-48.9-40.2c-3-2.4-6.1-4.7-9.1-7
	c-1.5-1.1-3.9-1.2-5.3-0.2c-5.5,4.4-11.1,8.6-16.6,13.1c-14.9,12.1-29.6,24.4-44.5,36.5c-2,1.6-4.1,3-6.2,4.5
	c-1.1,0.8-4.1,0.5-5.4-0.5c-2-1.5-4.1-3.1-6.1-4.7c-12.4-10.1-24.7-20.3-37.1-30.4c-6.9-5.7-13.9-11.3-20.8-17
	c-3.7-3-6.2-2.9-10.2,0.4c-16.8,13.8-33.6,27.6-50.4,41.4c-4.4,3.6-9,7.1-13.6,10.6c-1.2,0.9-4.1,0.9-5.4-0.1
	c-3.1-2.3-6.2-4.6-9.1-7c-16.3-13.4-32.6-26.8-48.9-40.2c-3-2.4-6.1-4.6-9.2-6.8c-1.2-0.8-2.5-0.9-3.6-0.2c-3.1,2.2-6.3,4.4-9.3,6.8
	c-16.8,13.8-33.6,27.6-50.4,41.4c-2.5,2-5,3.9-7.6,5.8c-1.5,1.1-4.2,1.3-5.4,0.4c-2.6-1.9-5.2-3.7-7.7-5.7
	c-16.8-13.8-33.6-27.6-50.5-41.4c-3-2.4-6.1-4.7-9.1-7c-1.4-1-3.8-0.9-5.3,0.3c-2.6,1.9-5.2,3.8-7.6,5.8
	c-16.8,13.8-33.6,27.7-50.4,41.4c-3,2.4-6.2,4.5-9.3,6.7c-1.1,0.8-2.5,0.8-3.6,0c-3.1-2.2-6.3-4.3-9.3-6.7
	c-16.3-13.4-32.6-26.8-48.9-40.2c-3-2.4-6.1-4.7-9.1-7c-1.6-1.2-3.9-1.4-5.3-0.3C64,68.4,58.4,72.6,53,77
	c-13.9,11.3-27.7,22.7-41.5,34.1c-2,1.6-4.1,3-6.2,4.5C3.8,116.6,0.8,115.6,0.6,114z M859.9,771.6c-20.7-17.1-41.5-34.2-62.2-51.3
	c-0.5-0.4-1-0.8-1.6-1.1c-0.5-0.3-1.2-0.5-1.7-0.9c-1.2-0.7-4.2-0.7-5.5,0.3c-4.6,3.5-9.2,6.9-13.6,10.5
	c-16.3,13.4-32.6,26.8-49,40.2c-1.5,1.2-3.2,2-4.9,2.9c-1.1,0.6-2.5,0.5-3.7-0.2c-2.2-1.4-4.3-2.7-6.3-4.3
	c-17.8-14.6-35.6-29.2-53.4-43.8c-2.5-2-5.1-3.8-7.7-5.6c-1.1-0.8-4.4-0.5-5.5,0.3c-2.6,1.9-5.1,3.8-7.6,5.8
	c-14.3,11.8-28.7,23.6-43,35.3c-3.5,2.8-6.9,5.7-10.4,8.5c-6.8,5.4-8.8,5.5-15,0.5c-3-2.4-5.9-4.9-8.9-7.3c-15.8-13-31.6-26-47.5-39
	c-2-1.6-4.1-3-6.4-4.2c-1-0.5-2.7-0.6-3.7-0.2c-2.3,1.1-4.5,2.5-6.4,4c-17.8,14.6-35.6,29.2-53.4,43.8c-2.5,2-5.1,3.9-7.6,5.8
	c-1.2,0.9-4.4,0.9-5.5,0.1c-2.6-1.9-5.2-3.7-7.7-5.7c-17.8-14.6-35.6-29.2-53.5-43.8c-2-1.6-4.2-2.9-6.3-4.2
	c-1.2-0.7-2.5-0.5-3.7-0.1c-2.5,0.8-4.4,2.5-6.4,4.2c-16.8,13.8-33.6,27.7-50.4,41.4c-3.5,2.8-7.1,5.4-10.7,8
	c-1.2,0.9-4.3,0.9-5.5,0.1c-2.1-1.5-4.3-2.8-6.2-4.4c-9.4-7.7-18.8-15.4-28.2-23.1c-9.4-7.7-18.8-15.5-28.2-23.1
	c-1.5-1.2-3.2-2.2-4.9-2.9c-1.1-0.4-2.7-0.5-3.7,0.1c-2.8,1.6-5.4,3.4-7.9,5.4c-17.3,14.2-34.6,28.4-51.9,42.6
	c-2.5,2-5.1,3.8-7.7,5.6c-1.1,0.8-4.2,0.7-5.5-0.2c-2.6-1.9-5.2-3.7-7.7-5.7c-17.8-14.6-35.6-29.2-53.4-43.8c-2-1.6-3.9-3.3-6.4-4.1
	c-1.3-0.4-2.5-0.5-3.7,0.2c-1.1,0.6-2.4,1.1-3.3,1.9c-20.8,17-41.5,34.1-62.3,51.2c-0.5,0.4-0.9,0.9-1.4,1.3c-1.6,1.3-2.5,3.1-2.5,5
	c-0.3,8.9-0.5,17.9-0.7,26.8c0.1,0,0.1,0,0.2,0c0,5.8,0,11.5,0,17.3c0,3.2,0.1,6.4,0.2,9.6c0.1,2.5,1.2,4.2,2.7,4.4
	c2.1,0.3,3.6-0.7,5.1-1.8c3-2.4,6-4.8,9-7.2c14.8-12.2,29.6-24.4,44.5-36.6c2.5-2,5.1-3.9,7.6-5.8c1.1-0.8,4.4-0.9,5.5-0.2
	c2.1,1.5,4.2,2.9,6.2,4.5c17.8,14.6,35.6,29.2,53.4,43.8c2.5,2,5.1,3.8,7.8,5.6c1.1,0.8,2.5,0.8,3.6,0.2c1.2-0.5,2.4-1,3.4-1.8
	c7-5.6,13.9-11.3,20.8-17c12.4-10.2,24.7-20.3,37.1-30.4c2-1.6,4.1-3,6.2-4.5c1.3-1,4.3-1.1,5.5-0.2c3.1,2.2,6.3,4.4,9.2,6.8
	c17.3,14.2,34.6,28.4,51.9,42.6c2,1.6,4.1,3,6.4,4.1c1,0.5,2.6,0.5,3.7,0.1c3.1-1,5.5-3.2,7.9-5.3c16.8-13.8,33.6-27.6,50.4-41.4
	c3-2.4,6.1-4.7,9.1-7c1.1-0.8,4.4-0.8,5.5,0c2.1,1.5,4.2,2.9,6.2,4.5c17.8,14.6,35.6,29.2,53.4,43.8c2.5,2,5.2,3.7,7.8,5.5
	c1.2,0.8,2.4,0.6,3.7,0.1c2.5-0.9,4.4-2.6,6.3-4.3c16.8-13.8,33.6-27.6,50.4-41.4c3.5-2.8,7.1-5.4,10.7-8.1c1.2-0.9,4.3-1,5.5-0.1
	c2.6,1.9,5.3,3.6,7.7,5.6c9.4,7.7,18.8,15.4,28.2,23.2c8.9,7.3,17.8,14.6,26.7,21.9c1.5,1.2,3.2,2.2,4.9,2.9c1.1,0.4,2.6,0.4,3.7,0
	c3.1-1,5.5-3.3,7.9-5.3c16.8-13.8,33.6-27.6,50.4-41.4c3-2.4,6.1-4.6,9.2-6.9c1.1-0.8,4.3-0.7,5.5,0.1c2.1,1.5,4.2,2.9,6.2,4.5
	c17.8,14.6,35.6,29.2,53.4,43.8c2.5,2,4.8,4.2,7.8,5.5c1.3,0.5,2.5,0.7,3.7-0.1c2.1-1.4,4.3-2.7,6.3-4.3
	c17.8-14.6,35.6-29.2,53.4-43.8c2.5-2,5.1-3.8,7.7-5.7c1.2-0.8,4.3-0.8,5.5,0.1c3.1,2.3,6.2,4.5,9.2,6.9
	c14.9,12.2,29.7,24.4,44.5,36.6c2.5,2,4.9,4.1,7.5,6c1,0.8,2.2,1.2,3.3,1.8c1.5,0.9,4.3-0.4,4.4-2.1c1.2-17.9,0.5-35.8,0.4-53.7
	C864,776.5,862.5,773.8,859.9,771.6z M-0.1,517c0,7.7,0,15.4,0,23c0,1.9,0.4,3.8,0.6,5.7c0.2,1.6,3,2.9,4.5,1.8
	c2.6-1.8,5.3-3.5,7.8-5.5c16.3-13.4,32.6-26.8,48.9-40.2c2.5-2,5.1-3.8,7.7-5.7c1.1-0.8,4.2-0.7,5.5,0.3c2.1,1.5,4.2,2.9,6.2,4.5
	c18.3,15,36.6,30,54.9,45c2,1.6,3.9,3.3,6.4,4.2c1.3,0.5,2.5,0.7,3.7-0.1c2.1-1.4,4.3-2.7,6.3-4.3c17.8-14.6,35.6-29.2,53.4-43.8
	c2.5-2,5.1-3.8,7.7-5.7c1.1-0.8,4.4-0.7,5.5,0.2c3.6,2.7,7.2,5.3,10.6,8.2c15.8,13,31.6,26,47.4,39c2.5,2,5.1,3.8,7.7,5.7
	c1.7,1.2,5.4,1.1,7.2-0.4c3.5-2.7,7.1-5.4,10.6-8.3c15.8-13,31.6-26,47.4-39c2.5-2,5.2-3.7,7.7-5.6c1.2-0.8,4.1-0.6,5.5,0.4
	c2.1,1.5,4.2,2.9,6.1,4.6c13.9,11.4,27.7,22.7,41.5,34.1c5.4,4.5,10.9,8.9,16.4,13.3c3.4,2.7,6.6,2.5,10.3-0.5c2-1.6,4-3.3,5.9-4.9
	c13.4-11,26.7-21.9,40.1-32.9c4.9-4.1,9.9-8.1,14.9-12.1c4.4-3.5,7.1-3.4,11.9,0.5c2,1.6,4,3.2,6,4.8c15.3,12.6,30.6,25.2,46,37.8
	c3,2.4,6,4.8,9,7.2c2.6,2,6.5,2.3,8.9,0.4c3.5-2.7,7.1-5.5,10.6-8.3c15.8-13,31.6-26,47.4-39c2.5-2,5.2-3.7,7.8-5.5
	c1.1-0.8,2.4-0.8,3.7-0.2c1.7,0.9,3.4,1.8,4.9,2.9c14.4,11.7,28.7,23.5,43.1,35.3c5.9,4.9,11.9,9.7,17.9,14.5
	c2.8,2.2,6.3,2.4,8.8,0.4c7-5.6,13.9-11.2,20.9-16.9c12.9-10.5,25.7-21.1,38.6-31.7c2-1.6,4.1-3.1,6.3-4.3c1-0.5,2.7-0.7,3.6-0.2
	c2.3,1.1,4.5,2.4,6.5,4c15.9,12.9,31.7,26,47.5,39c2.5,2,4.9,4.1,7.4,6.1c1,0.8,2,1.5,3.1,2.2c1.2,0.7,2.4,0.7,3.6,0.5
	c1.5-0.3,2.2-1.2,2.3-2.7c0.9-17.3,0.3-34.5,0.4-51.8c0-4.1-1.4-7.4-4.6-10c-20.8-17-41.5-34.1-62.3-51.2c-1-0.8-2.1-1.5-3.3-1.8
	c-1.2-0.3-2.6-0.5-3.7-0.1c-3.1,1-5.4,3.3-7.9,5.3c-17.3,14.2-34.6,28.4-51.9,42.6c-2.5,2-5.1,3.8-7.7,5.7c-1.1,0.8-4.3,0.8-5.5,0
	c-2.6-1.9-5.2-3.7-7.7-5.7c-17.8-14.6-35.6-29.2-53.5-43.8c-2-1.6-4.2-2.9-6.4-4.2c-1.2-0.7-2.6-0.7-3.7,0c-2.2,1.3-4.4,2.6-6.4,4.2
	c-17.3,14.2-34.6,28.4-51.9,42.6c-3,2.4-6.1,4.6-9.2,6.8c-1.2,0.8-4.5,0.8-5.5,0c-3-2.4-6.2-4.5-9.2-6.9c-15.8-13-31.6-26-47.5-39
	c-3-2.4-6-4.7-9.1-7c-1.7-1.3-5.4-1.2-7.2,0.3c-5,3.9-10.1,7.9-15,11.9c-14.8,12.2-29.6,24.4-44.5,36.5c-2,1.6-4.2,2.9-6.2,4.4
	c-1.2,0.8-4.1,0.6-5.5-0.3c-2.1-1.5-4.2-2.9-6.2-4.5c-17.3-14.2-34.6-28.4-51.9-42.6c-2.5-2-5.1-3.9-7.6-5.8
	c-1.8-1.3-5.3-1.2-7.2,0.3c-2,1.6-4.1,3-6.1,4.7c-14.3,11.8-28.6,23.6-43,35.4c-4.4,3.7-8.9,7.3-13.4,10.9c-3.8,3-7.1,3.2-10.4,0.5
	c-3.5-2.8-7-5.6-10.5-8.4c-15.3-12.6-30.6-25.2-45.9-37.8c-2.5-2-5.1-3.8-7.7-5.7c-1.1-0.8-4.4-1-5.5-0.2c-3.1,2.2-6.3,4.4-9.3,6.8
	c-17.3,14.2-34.6,28.4-51.9,42.6c-2,1.6-3.9,3.3-6.3,4.3c-1.3,0.6-2.4,0.6-3.7,0.1c-2.5-0.9-4.4-2.5-6.4-4.2
	c-17.8-14.6-35.6-29.2-53.4-43.8c-2.5-2-5.1-3.8-7.7-5.7c-1.2-0.9-4.4-1-5.5-0.2c-2.6,1.9-5.3,3.6-7.7,5.6
	c-16.8,13.8-33.6,27.6-50.4,41.5c-12.1,10-11.2,7.6-11.4,24.1C-0.2,506.8-0.2,511.9-0.1,517C-0.1,517-0.1,517-0.1,517z M860.3,340
	c-2.4-2.1-4.8-4.2-7.3-6.3c-15.3-12.6-30.6-25.2-45.9-37.8c-4-3.2-8-6.3-12-9.5c-1.3-1-4.3-1.2-5.4-0.4c-2.1,1.5-4.2,2.9-6.2,4.5
	c-15.8,13-31.6,26-47.4,39c-4.4,3.6-9,7.1-13.6,10.6c-1.3,1-3.9,0.9-5.3-0.2c-3-2.3-6.1-4.6-9.1-7c-16.8-13.8-33.6-27.6-50.4-41.4
	c-2.5-2-5.1-3.8-7.8-5.6c-1.2-0.8-2.4-0.7-3.6-0.1c-4.1,2-7.3,5.2-10.8,8c-17.3,14.2-34.6,28.4-51.9,42.6c-2,1.6-4.2,2.9-6.3,4.2
	c-0.5,0.3-1.4,0.4-1.9,0.1c-1.7-0.8-3.5-1.5-5-2.7c-16.4-13.3-32.6-26.8-49-40.1c-4.9-4-10.1-7.9-15.1-11.8c-1.3-1-3.8-0.8-5.4,0.3
	c-2.6,1.9-5.1,3.8-7.6,5.8c-16.3,13.4-32.6,26.8-48.9,40.2c-3.5,2.8-7.1,5.4-10.7,8c-1.1,0.8-2.4,0.8-3.6,0
	c-3.1-2.2-6.3-4.4-9.2-6.8c-16.8-13.8-33.6-27.6-50.4-41.4c-2.5-2-5.1-3.9-7.6-5.8c-1.5-1.1-4.1-1.2-5.4-0.2
	c-5,3.9-10.1,7.8-15.1,11.8c-15.4,12.5-30.6,25.2-46,37.7c-2,1.6-4.1,3-6.2,4.5c-1.2,0.9-4,0.6-5.4-0.4c-2.5-2-5.1-3.9-7.6-5.9
	c-13.8-11.4-27.7-22.8-41.5-34.1c-5.4-4.5-11-8.8-16.5-13.2c-2-1.6-4.9-1.5-7.1,0.2c-8.5,6.8-16.9,13.6-25.3,20.5
	c-11.9,9.7-23.7,19.5-35.6,29.2c-2,1.6-4.2,2.8-6.4,4.1c-0.4,0.3-1.2,0.2-1.8,0c-2.5-0.7-4.5-2.4-6.5-4
	c-16.8-13.8-33.6-27.6-50.4-41.4c-3-2.4-5.9-4.9-8.9-7.3c-4.2-3.3-6.4-3.4-10.2-0.4c-4.5,3.6-9,7.2-13.4,10.8
	c-12.4,10.1-24.7,20.3-37.1,30.5c-3.9,3.2-7.9,6.5-11.8,9.8c-3,2.6-5,5.7-5,9.9c0.1,16.6,0,33.3,0,49.9c0,1.2,0.3,2.5,0.7,3.7
	c0.4,1.1,1.7,2.2,2.9,1.8c1.8-0.5,3.5-1.5,5-2.7c14.4-11.7,28.7-23.5,43-35.2c5.4-4.5,10.9-8.8,16.5-13.2c2.8-2.2,5.2-2,8.5,0.6
	c3,2.4,6,4.8,9,7.2c16.3,13.4,32.6,26.8,48.9,40.2c2.5,2,4.8,4.1,7.8,5.5c1.3,0.6,2.5,0.7,3.6-0.2c3.6-2.7,7.3-5.2,10.7-8
	c16.3-13.4,32.6-26.8,48.9-40.2c2.5-2,5.1-3.8,7.7-5.7c1.4-1,4-1,5.4,0c3,2.3,6.1,4.6,9.1,7c17.3,14.2,34.6,28.4,51.9,42.6
	c2,1.6,4.1,3.1,6.3,4.3c1,0.5,2.7,0.7,3.6,0.2c2.3-1.2,4.4-2.7,6.3-4.3c14.8-12.1,29.6-24.4,44.5-36.5c5.4-4.5,11-8.8,16.5-13.1
	c1.6-1.3,4-1.5,5.3-0.5c3.1,2.3,6.2,4.5,9.2,6.9c16.3,13.4,32.6,26.8,48.9,40.2c3,2.4,6.1,4.7,9.1,7c1.2,0.9,4.1,0.8,5.4-0.2
	c3.5-2.7,7.1-5.4,10.6-8.3c15.8-13,31.6-26,47.4-39c2.5-2,5-4,7.5-5.9c2.3-1.7,4.9-1.8,7-0.1c7,5.6,14,11.2,20.9,16.8
	c13.4,10.9,26.7,21.9,40,32.9c2,1.6,4.2,2.9,6.4,4.2c0.5,0.3,1.3,0.1,1.9,0c1.9-0.3,3.5-1.4,5-2.6c15.8-13,31.6-26,47.5-38.9
	c5.4-4.4,11-8.7,16.6-13c1.3-1.1,3.6-0.9,5.3,0.4c3.1,2.3,6.1,4.6,9.1,7c16.8,13.8,33.6,27.6,50.4,41.4c2.5,2,5.2,3.7,7.8,5.5
	c1.2,0.8,2.4,0.6,3.6,0c4-2.1,7.3-5.2,10.7-8c17.3-14.2,34.6-28.5,51.9-42.6c1.9-1.6,4.2-2.8,6.4-4.1c0.5-0.3,1.4-0.5,1.9-0.3
	c1.7,0.9,3.4,1.7,4.9,2.9c14.4,11.7,28.7,23.5,43,35.3c5.4,4.5,10.9,8.9,16.5,13.2c1,0.7,2.3,1.3,3.5,1.4c1.4,0.1,2.6-0.9,2.8-2
	c1.6-9.5,0.3-19.1,0.8-27.1c0-7.4,0-13.1,0-18.9c0-2.6-0.1-5.1-0.1-7.7C864.1,345,862.8,342.2,860.3,340z M860.7,196.4
	c-1.4-1.3-2.8-2.6-4.3-3.8c-12.8-10.6-25.7-21.2-38.5-31.7c-6.4-5.3-12.8-10.6-19.3-15.8c-1.5-1.2-3.2-2.2-4.9-2.9
	c-1.1-0.4-2.7-0.5-3.7,0.1c-2.8,1.6-5.4,3.4-7.9,5.4c-16.4,13.3-32.7,26.8-49,40.2c-2.5,2-4.9,4.1-7.4,6.1c-1,0.8-2.2,1.3-3.2,2
	c-1.2,0.8-4.3,0.7-5.5-0.2c-7.5-5.9-15.1-11.9-22.5-17.9c-13.4-10.9-26.7-21.9-40.1-32.8c-1.5-1.2-3.2-2-4.9-2.9
	c-1.2-0.7-2.4-0.4-3.7,0.1c-3,1.2-5.4,3.5-7.8,5.5c-17.3,14.2-34.6,28.5-51.9,42.6c-2.5,2-5.2,3.7-7.8,5.5c-1.1,0.8-4.3,0.6-5.5-0.3
	c-2.6-1.9-5.2-3.7-7.7-5.7c-15.8-13-31.6-26-47.4-39c-3-2.4-6-4.8-9-7.2c-2.7-2.1-6.5-2.3-8.9-0.5c-4,3.1-8.1,6.3-12,9.5
	c-15.8,13-31.6,26-47.5,39c-2,1.6-4.2,2.9-6.3,4.3c-1.2,0.8-2.4,0.7-3.7,0.2c-2.5-0.9-4.4-2.5-6.4-4.1
	c-17.8-14.6-35.6-29.2-53.4-43.8c-2.5-2-5.1-3.8-7.7-5.7c-1.3-0.9-4.3-1.1-5.5-0.3c-2.6,1.9-5.3,3.6-7.7,5.6
	c-16.8,13.8-33.6,27.6-50.4,41.4c-2.5,2-5,3.9-7.6,5.8c-1.9,1.4-5.5,1.5-7.2,0.2c-3.1-2.3-6.1-4.6-9.1-7c-15.8-13-31.6-26-47.5-39
	c-3-2.4-6.1-4.6-9.2-6.9c-1.1-0.8-4.3-0.8-5.5,0c-3.1,2.2-6.3,4.4-9.2,6.8c-17.3,14.2-34.6,28.4-51.9,42.6c-2,1.6-3.9,3.3-6.4,4.2
	c-1.2,0.5-2.5,0.6-3.7-0.1c-2.2-1.3-4.4-2.6-6.3-4.2C122.3,181,109,170,95.6,159c-5.9-4.9-11.9-9.7-17.9-14.5
	c-1-0.8-2.1-1.4-3.2-2.1c-1.1-0.8-4.3-0.7-5.5,0c-6,3.8-11.1,8.6-16.5,13.1c-16.3,13.4-32.6,26.8-48.9,40.3c-2,1.7-3.2,3.9-3.5,6.6
	C0.1,203,0,203.7,0,204.3c0,17.3,0.1,34.5,0.1,51.8c0,1.4,0.7,2.4,1.6,3.2c1,1,3.4,0.7,5.3-0.7c2-1.6,4.1-3.1,6.1-4.7
	c15.3-12.6,30.6-25.2,46-37.8c3-2.4,6-4.8,9-7.1c2.5-1.9,6-1.7,8.8,0.6c2,1.6,4,3.2,6,4.8c15.8,13,31.6,26,47.5,39
	c3,2.4,6,4.8,9,7.2c2.9,2.2,6.3,2.4,8.8,0.5c2.5-2,5-3.9,7.5-6c16.3-13.4,32.6-26.8,49-40.2c2.5-2,5-4,7.5-5.9
	c2-1.5,5.5-1.7,7.2-0.5c2.6,1.9,5.2,3.8,7.6,5.8c16.3,13.4,32.6,26.8,48.9,40.2c3,2.4,6.1,4.7,9.2,6.9c1.7,1.2,3.9,1.1,5.4,0.2
	c3.3-2,6.4-4.2,9.3-6.6c16.8-13.8,33.6-27.7,50.4-41.4c2.5-2,5.2-3.7,7.8-5.5c1.1-0.8,2.4-0.6,3.7-0.2c2.5,0.9,4.4,2.6,6.4,4.2
	c17.8,14.6,35.6,29.2,53.4,43.8c2.5,2,5.1,3.9,7.6,5.7c1.4,1,4.2,1.2,5.4,0.3c3.6-2.7,7.2-5.3,10.7-8.1c16.3-13.4,32.6-26.8,49-40.1
	c2.5-2,5.1-3.9,7.8-5.5c0.9-0.6,2.7-0.6,3.6-0.2c2.3,1.1,4.5,2.5,6.4,4c17.3,14.2,34.6,28.4,51.9,42.6c3,2.4,6.1,4.6,9.2,6.9
	c1.7,1.2,3.9,1,5.4,0c3.2-2,6.4-4.3,9.3-6.7c16.8-13.8,33.6-27.6,50.4-41.4c2.5-2,4.8-4.2,7.8-5.5c1.2-0.5,2.5-0.7,3.7,0
	c2.2,1.3,4.4,2.6,6.3,4.2c17.8,14.6,35.6,29.2,53.4,43.8c2.5,2,5.1,3.8,7.7,5.7c1.3,1,4.2,1,5.4,0.2c2.1-1.5,4.2-2.9,6.2-4.5
	c13.9-11.3,27.7-22.7,41.5-34.1c4.4-3.7,8.9-7.3,13.4-10.9c1.5-1.2,3.1-2.3,4.6-3.4c1.8-1.4,5.5-1.5,7.2-0.2
	c10,8,19.9,16.1,29.8,24.2c8.9,7.3,17.8,14.6,26.7,21.9c2,1.6,4.1,3.1,6.2,4.5c1.2,0.8,2.4,0.7,3.6,0.3c1.5-0.4,2.1-1.2,2.1-2.8
	c0.1-8.9,0.4-17.9,0.5-25.2c-0.1-10.6-0.3-19.6-0.4-28.5C863.9,200.4,862.6,198.2,860.7,196.4z M-0.1,659.3c0,9.5,0,17.2,0,24.8
	c0,1.9,0.4,3.8,0.6,5.7c0.2,1.7,3,2.9,4.5,1.8c2.1-1.5,4.3-2.8,6.2-4.4c13.9-11.3,27.7-22.8,41.5-34.1c5.4-4.4,11-8.7,16.5-13.1
	c1.3-1.1,3.8-1,5.3,0.1c3.1,2.3,6.2,4.6,9.1,7c16.3,13.4,32.6,26.8,48.9,40.2c3,2.4,6.1,4.6,9.2,6.8c1.1,0.8,2.4,0.7,3.6,0.1
	c3.6-1.6,6.4-4.3,9.3-6.7c16.8-13.8,33.6-27.6,50.4-41.4c2.5-2,5.1-3.9,7.6-5.8c1.7-1.3,4-1.4,5.3-0.4c2.6,1.9,5.2,3.7,7.7,5.7
	c17.3,14.2,34.6,28.4,51.9,42.6c2.5,2,5.1,3.8,7.7,5.7c1.4,1,3.9,0.9,5.4-0.2c2.6-1.9,5.1-3.8,7.6-5.8c15.3-12.6,30.6-25.2,46-37.8
	c4.4-3.6,8.7-7.6,13.7-10.5c1.2-0.7,2.4-0.8,3.6,0c3.1,2.2,6.3,4.3,9.3,6.8c16.3,13.4,32.6,26.8,48.9,40.2c3,2.4,6.1,4.7,9.1,7
	c1.4,1,4.2,1.2,5.4,0.3c3.6-2.7,7.2-5.3,10.6-8.1c15.8-13,31.6-26,47.4-39c2.5-2,5-4,7.5-6c2.7-2.1,5.5-2,8.6,0.5
	c7,5.6,13.9,11.3,20.8,17c12.9,10.5,25.7,21.1,38.6,31.6c2,1.6,4.1,3.1,6.3,4.3c1,0.5,2.7,0.4,3.6-0.1c2.7-1.6,5.3-3.6,7.8-5.6
	c18.3-15,36.6-30,54.9-45c2-1.6,4.2-2.9,6.4-4.2c0.4-0.3,1.2-0.1,1.8,0.1c2.5,0.7,4.5,2.3,6.5,4c16.8,13.8,33.6,27.6,50.4,41.4
	c3,2.4,5.9,4.9,8.9,7.3c4.1,3.3,6.4,3.4,10.2,0.4c3.5-2.8,7-5.6,10.5-8.4c15.3-12.6,30.6-25.2,45.9-37.8c2.5-2,5-3.9,7.6-5.8
	c2.2-1.7,4.6-1.5,7,0.3c2,1.6,4.1,3.1,6,4.7c12.9,10.5,25.7,21.1,38.6,31.7c4.4,3.7,8.9,7.3,13.4,10.9c1.5,1.2,3.1,2.3,4.7,3.3
	c1.2,0.8,2.4,0.7,3.6,0.1c1.2-0.5,1.9-1.4,1.9-2.9c0-17.9,0.1-35.8,0.1-53.7c0-2.7-1.5-4.8-3.4-6.6c-0.9-0.9-1.8-1.8-2.8-2.6
	c-20.3-16.6-40.5-33.3-60.8-49.9c-1-0.8-2.1-1.6-3.3-1.9c-1.1-0.3-2.7-0.5-3.6,0c-2.7,1.6-5.3,3.5-7.8,5.6
	c-17.8,14.6-35.6,29.2-53.4,43.8c-2.5,2-5.2,3.7-7.9,5.4c-0.4,0.3-1.2,0.2-1.8,0.1c-2.6-0.6-4.5-2.3-6.5-3.9
	c-17.3-14.2-34.6-28.4-51.9-42.6c-3-2.4-6-4.8-9-7.2c-2.9-2.2-5.3-2.1-8.6,0.5c-5,4-10,8-14.9,12.1c-14.8,12.2-29.6,24.4-44.5,36.5
	c-2,1.6-4,3.2-6.3,4.4c-0.9,0.5-2.7,0.4-3.6-0.2c-2.7-1.7-5.3-3.6-7.7-5.6c-18.3-15-36.6-30-54.9-45c-2-1.6-4.2-2.9-6.4-4.2
	c-0.4-0.3-1.2,0-1.9,0.1c-2.6,0.6-4.5,2.3-6.5,3.9c-16.3,13.4-32.6,26.8-48.9,40.2c-4.4,3.6-9.1,7-13.6,10.6c-1.3,1-3.6,0.8-5.3-0.5
	c-3-2.3-6.1-4.6-9.1-7.1c-16.8-13.8-33.6-27.6-50.4-41.4c-2.5-2-4.9-4.1-7.8-5.5c-1.3-0.6-2.5-0.7-3.6,0.2
	c-4.6,3.5-9.2,6.8-13.7,10.5c-15.9,12.9-31.6,26-47.4,39c-2,1.6-4.1,3.1-6.1,4.6c-1.4,1.1-4,1.1-5.4,0c-3.1-2.3-6.1-4.6-9.1-7
	c-16.8-13.8-33.6-27.6-50.4-41.4c-2.5-2-5.1-3.8-7.7-5.6c-1-0.7-2.5-0.9-3.6-0.2c-2.2,1.3-4.3,2.7-6.3,4.3
	c-15.3,12.5-30.6,25.2-46,37.7c-4,3.2-7.9,6.5-11.9,9.7c-5.7,4.6-7,4.5-13.2-0.4c-3-2.4-5.9-4.9-8.9-7.3
	c-15.3-12.6-30.6-25.2-45.9-37.8c-2.5-2-5.1-3.8-7.7-5.7c-1.3-1-4.1-0.9-5.4,0.1c-4.5,3.5-9.1,7-13.6,10.7
	c-10.9,8.9-21.8,17.8-32.6,26.8c-7.3,6.1-15.3,11.6-21.6,18.9C-1.9,640.7,0.8,651-0.1,659.3z M71.9,861.4c-0.4-0.2-1,0.3-1.6,0.4
	c0.1,0.5-0.1,1.2,0.2,1.4c0.4,0.3,1.2,0.6,1.6,0.4C73.6,862.9,73.5,862,71.9,861.4z M216.6,861.4c-1.7-0.1-2.4,0.6-1.7,1.6
	c0.2,0.4,1.1,0.4,1.6,0.6c0.5-0.3,0.9-0.7,1.4-1C217.4,862.2,217,861.5,216.6,861.4z M360.4,861.4c-0.5-0.2-1.4-0.1-1.7,0.2
	c-0.9,1.2-0.4,2,1.2,2c0.5,0,1-0.6,1.4-1C361.1,862.2,360.9,861.6,360.4,861.4z M503.4,861.5c-1.6,0.7-1.4,1.5,0.4,2.1
	c0.5,0.1,1.1-0.3,1.6-0.5c-0.1-0.5,0-1.2-0.3-1.4C504.7,861.4,503.9,861.3,503.4,861.5z M791.4,861.5c-1.6,0.7-1.4,1.5,0.4,2.1
	c0.5,0.1,1.1-0.3,1.6-0.5c-0.1-0.5,0-1.2-0.3-1.4C792.7,861.4,791.9,861.3,791.4,861.5z M647.2,861.4c-0.5,0.1-0.9,0.7-1.3,1.1
	c0.4,0.4,0.8,1,1.3,1.1c0.5,0.1,1.2-0.1,1.6-0.5c0.2-0.2,0-0.9,0-1.3C648.3,861.7,647.7,861.3,647.2,861.4z"/>
</svg>
