<?xml version="1.0" encoding="UTF-8"?>
<svg id="Ebene_1" xmlns="http://www.w3.org/2000/svg" version="1.1" xmlns:xlink="http://www.w3.org/1999/xlink" viewBox="0 0 5970.6 5811.9">
  <!-- Generator: Adobe Illustrator 29.2.0, SVG Export Plug-In . SVG Version: 2.1.0 Build 108)  -->
  <defs>
    <style>
      .st0 {
        fill: #fff;
        fill-rule: evenodd;
      }

      .st1 {
        fill: none;
      }

      .st2 {
        clip-path: url(#clippath-1);
      }

      .st3 {
        clip-path: url(#clippath);
      }
    </style>
    <clipPath id="clippath">
      <path class="st1" d="M5361.7,4139.1h-1978.7c.8-75.3-1-150.7-.2-226,3-279.3,15.5-560.1,12-839.1-3-236.3-19.3-471.7-32.1-707.8.8-6.4,48.3-42,57.9-54.2,107.9-136.2,60.4-409.1,24.4-567.3-22-96.5-50.8-191.4-86-283.7,71.5-30.6,142.8-60.4,216.8-85.1,129.3-43.1,262.4-75.7,393.1-114.6,11.1.6,37.6,48.4,47.6,59.7,99.7,112.8,291.3,105.6,432,100,102.1-4.1,201.1-16.5,273.8-93.9,11.3-12.1,42.3-65.2,53.5-65.9,203.1,62.5,415.3,105.6,605.6,202.2,2.4,7.1-39.8,121.8-45.6,141.4-54.2,182.7-137,540.5-15.8,703.3,15.1,20.2,59,44.4,61.9,66-15.4,227.9-26.9,455.7-32,683.9-1,42.9-.1,84.9,0,127.6.9,318.2,10.2,635.4,11.8,953.5Z"/>
    </clipPath>
    <clipPath id="clippath-1">
      <path class="st1" d="M571.6,4042.2c.8-57.9-1-116.1-.2-174.1,5.5-366.2,22.2-733.5,8.3-1099.3-6.2-163.5-16.7-328.2-28.5-491.6-.2-5,1-8.2,4.3-11.9,5.1-5.7,48.3-24.1,59.8-32.2,172.7-120.5,93-380.5,40.3-547.5-21.1-66.9-48.4-131.5-71.8-197.5,188.8-99.3,398.2-149.6,597.5-223.6,18.7,43.6,28.8,92.3,45.8,137.4,62.5,166,174.3,313.4,336.9,389.2,206.7-104,323.4-307.5,374.7-527.2,200,73.6,412,122.5,599.2,226.5-43.9,120-90.5,240.1-116.8,365.9-28.5,135.9-40.9,286.7,85.5,376.8,15.2,10.8,60.3,23.3,63.6,40.3l-12.1,183.6c-26.3,517-21.8,1037.3-8,1555.3.2,6.3,8.3,29.8-1.8,29.8H571.6Z"/>
    </clipPath>
  </defs>
  <g class="st3">
    <g>
      <path class="st0" d="M3608.2,2898c176.8,127.3,164.2,307,127.7,517.3-42.8,264.5,3.8,534.5,25.4,791.9-135.8,9.7-346,12.2-481.8,21.9-25.3-444.1-50.5-888.2-75.8-1332.3,0,0,238.9-14.1,347.2-14.2,30.1,0,56.9,15.9,57.4,15.4"/>
      <path class="st0" d="M5132.8,2898c-176.8,127.3-164.2,307-127.7,517.3,42.8,264.5-3.8,534.5-25.4,791.9,135.8,9.7,346,12.2,481.8,21.9,25.3-444.1,50.5-888.2,75.8-1332.3,0,0-238.9-14.1-347.2-14.2-30.1,0-56.9,15.9-57.3,15.4"/>
    </g>
  </g>
  <g class="st2">
    <g>
      <path class="st0" d="M798.4,2801c176.8,127.3,164.2,307,127.7,517.3-42.8,264.5,3.8,534.5,25.4,791.9-135.8,9.7-346,12.2-481.8,21.9-25.3-444.1-50.5-888.2-75.8-1332.3,0,0,238.9-14.1,347.2-14.2,30.1,0,56.9,15.9,57.4,15.4"/>
      <path class="st0" d="M2323,2801c-176.8,127.3-164.2,307-127.7,517.3,42.8,264.5-3.8,534.5-25.4,791.9,135.8,9.7,346,12.2,481.8,21.9,25.3-444.1,50.5-888.2,75.8-1332.3,0,0-238.9-14.1-347.2-14.2-30.1,0-56.9,15.9-57.3,15.4"/>
    </g>
  </g>
  <path class="st1" d="M2359.6,4974.7l-114.2,359.9c-78.5-3.2-157.1-2.4-235.6-4.1-77.8-1.7-157.7-7.3-235.5-8.4-393.2-5.2-786.7,1.4-1178.8,12.4l-118.7-357.6c54.2-22.3,108.7-44.4,160.9-71.4,294.5-152.7,455.3-397.6,832.1-366.1,314,26.3,463.3,293.5,740,395.3,48.6,17.9,99.1,30,149.8,40Z"/>
  <path class="st1" d="M5385.7,5050.6l-118.4,360c-74.5-2.7-149.1-2.4-223.6-4.1-393.3-8.9-785.6-8.2-1178.9,0-82.4,1.7-164.9,1.5-247.4,4l-118.6-357.9c51.6-12,104.1-23.7,154-42,328.1-119.7,435.6-419.2,847.5-396,355.6,20,558.3,341.1,885.3,435.9Z"/>
  <rect class="st1" x="2359.7" y="617.4" width="1071.3" height="87.9"/>
  <path class="st1" d="M3950.7,657.4c12.6-29,34.8-58.7,54-83.9h793.5c-2.6,26.3,3.5,58.6,0,83.9-276.2,3.5-569.8,3.5-847.4,0Z"/>
  <path class="st1" d="M1576.2,657.4c-276.2,3.5-569.8,3.5-847.4,0-3.5-25.4,2.6-57.7,0-83.9h793.5c18.4,27,38.8,55.2,54,83.9Z"/>
</svg>