<?xml version="1.0" encoding="UTF-8"?>
<svg id="Ebene_1" xmlns="http://www.w3.org/2000/svg" version="1.1" xmlns:xlink="http://www.w3.org/1999/xlink" viewBox="0 0 5970.6 5811.9">
  <!-- Generator: Adobe Illustrator 29.2.0, SVG Export Plug-In . SVG Version: 2.1.0 Build 108)  -->
  <defs>
    <style>
      .st0 {
        clip-path: url(#clippath-6);
      }

      .st1 {
        clip-path: url(#clippath-7);
      }

      .st2 {
        clip-path: url(#clippath-4);
      }

      .st3, .st4 {
        fill: none;
      }

      .st5 {
        clip-path: url(#clippath-1);
      }

      .st6 {
        clip-path: url(#clippath-5);
      }

      .st7 {
        opacity: .3;
      }

      .st8 {
        clip-path: url(#clippath-3);
      }

      .st4 {
        clip-rule: evenodd;
      }

      .st9 {
        opacity: .3;
      }

      .st10 {
        clip-path: url(#clippath-2);
      }

      .st11 {
        clip-path: url(#clippath);
      }
    </style>
    <clipPath id="clippath">
      <path class="st3" d="M5361.7,4139.1h-1978.7c.8-75.3-1-150.7-.2-226,3-279.3,15.5-560.1,12-839.1-3-236.3-19.3-471.7-32.1-707.8.8-6.4,48.3-42,57.9-54.2,107.9-136.2,60.4-409.1,24.4-567.3-22-96.5-50.8-191.4-86-283.7,71.5-30.6,142.8-60.4,216.8-85.1,129.3-43.1,262.4-75.7,393.1-114.6,11.1.6,37.6,48.4,47.6,59.7,99.7,112.8,291.3,105.6,432,100,102.1-4.1,201.1-16.5,273.8-93.9,11.3-12.1,42.3-65.2,53.5-65.9,203.1,62.5,415.3,105.6,605.6,202.2,2.4,7.1-39.8,121.8-45.6,141.4-54.2,182.7-137,540.5-15.8,703.3,15.1,20.2,59,44.4,61.9,66-15.4,227.9-26.9,455.7-32,683.9-1,42.9-.1,84.9,0,127.6.9,318.2,10.2,635.4,11.8,953.5Z"/>
    </clipPath>
    <clipPath id="clippath-1">
      <path class="st4" d="M5020.9,2508v-51.7l213.1-120.6v256c-13.5,1.1-25.3,8.1-32.6,18.5l-180.4-102.1ZM4823.4,2503.9v-51.7l-220.5-124.8v-51.7l269.6-152.6c9.9,14.5,26.8,24,45.9,24s36-9.5,45.9-24l269.6,152.6v51.7l-218.6,123.7-1.8,1v51.7l-95.1-53.8-95.1,53.8ZM4635.6,2610.2c-7.3-10.3-19.1-17.4-32.6-18.5v-256l213.1,120.6v51.7l-180.4,102.1ZM4283.7,2155.1l176.8,100c-2.7,5.6-4.2,11.9-4.2,18.5,0,23.9,19.8,43.4,44.2,43.4s28.3-7.4,36.3-18.6l58.7,33.2v260.1c-13.5,1.1-25.3,8.1-32.6,18.5l-279.2-158v-297.1ZM4464.1,2248.9l-180.4-102.1v-51.7l213.1-120.6v256c-13.5,1.1-25.3,8.1-32.6,18.5ZM4816,1785.4l-180.4,102.1c-7.3-10.3-19.1-17.4-32.6-18.5v-256l213.1,120.6v51.7ZM5013.5,1781.3l-95.1-53.8-95.1,53.8v-51.7l-220.5-124.8v-51.7l269.6-152.6c9.9,14.5,26.8,24,45.9,24,19.1,0,36-9.5,45.9-24l269.6,152.6v51.7l-218.6,123.7-1.8,1v51.7ZM5201.4,1887.5l-180.4-102.1v-51.7l213.1-120.6v256c-13.5,1.1-25.3,8.1-32.6,18.5ZM5020.9,1793.8l176.8,100c-2.7,5.6-4.2,11.9-4.2,18.5,0,23.9,19.8,43.4,44.2,43.4,15,0,28.3-7.4,36.3-18.6l58.7,33.2v260.1c-13.5,1.1-25.3,8.1-32.6,18.5l-279.2-158v-297.1ZM4823.4,1789.6l95.1-53.8,95.1,53.8v305.4l282.9,160.1c-2.7,5.6-4.2,11.9-4.2,18.5s1.5,12.9,4.2,18.5l-55.1,31.2v-51.7l-273.3-154.7c3.6-7.2,5.7-15.3,5.7-23.9,0-29.9-24.8-54.2-55.3-54.2s-55.3,24.3-55.3,54.2c0,8.6,2,16.7,5.7,23.9l-271.4,153.6-1.8,1v51.7l-55.1-31.2c2.7-5.6,4.2-11.9,4.2-18.5s-1.5-12.9-4.2-18.5l281-159,1.8-1v-305.4ZM4639.2,1893.8l176.7-100v297.1l-279.2,158c-7.3-10.3-19.1-17.4-32.6-18.5v-260.1l58.7-33.2c8,11.3,21.3,18.6,36.3,18.6,24.4,0,44.2-19.4,44.2-43.4s-1.5-12.9-4.2-18.5ZM4460.4,1532.5c-2.7,5.6-4.2,11.9-4.2,18.5,0,23.9,19.8,43.4,44.2,43.4s28.3-7.4,36.3-18.6l58.7,33.2v260.1c-13.5,1.1-25.3,8.1-32.6,18.5l-279.2-158v-297.1l176.8,100ZM4086.1,2150.9v305.4l-1.8,1-281,159c2.7,5.6,4.2,11.9,4.2,18.5s-1.5,12.9-4.2,18.5l55.1,31.2v-51.7l1.8-1,271.4-153.6c-3.6-7.2-5.7-15.3-5.7-23.9,0-29.9,24.8-54.2,55.3-54.2h0c30.5,0,55.3,24.3,55.3,54.2s-2,16.7-5.7,23.9l273.3,154.7v51.7l55.1-31.2c-2.7-5.6-4.2-11.9-4.2-18.5s1.5-12.9,4.2-18.5l-282.9-160.1v-305.4l-95.1-53.8-95.1,53.8ZM3865.7,1966.1l220.5,124.8v51.7l95.1-53.8,95.1,53.8v-51.7l1.8-1,218.6-123.7v-51.7l-269.6-152.6c-9.9,14.5-26.8,24-45.9,24v-50h0v50c-19.1,0-36-9.5-45.9-24l-269.6,152.6v51.7ZM4078.8,2146.7v-51.7l-213.1-120.6v256c13.5,1.1,25.3,8.1,32.6,18.5l180.4-102.1ZM3799.6,2610.2l279.2-158v-297.1l-176.7,100c2.7,5.6,4.2,11.9,4.2,18.5,0,23.9-19.8,43.4-44.2,43.4s-28.3-7.4-36.3-18.6l-58.7,33.2v260.1c13.5,1.1,25.3,8.1,32.6,18.5ZM3546.5,2508v-51.7l213.1-120.6v256c-13.5,1.1-25.3,8.1-32.6,18.5l-180.4-102.1ZM3726.9,1887.5l-180.4-102.1v-51.7l213.1-120.6v256c-13.5,1.1-25.3,8.2-32.6,18.5ZM4078.8,1432.5v297.1l-279.2,158c-7.3-10.3-19.1-17.4-32.6-18.5v-260.1l58.7-33.2c8,11.3,21.3,18.6,36.3,18.6,24.4,0,44.2-19.4,44.2-43.4s-1.5-12.9-4.2-18.5l176.7-100ZM3803.3,1893.8l281-159,1.8-1v-305.4l95.1-53.8,95.1,53.8v305.4l282.9,160.1c-2.7,5.6-4.2,11.9-4.2,18.5s1.5,12.9,4.2,18.5l-55.1,31.2v-51.7l-273.3-154.7c3.6-7.2,5.7-15.3,5.7-23.9,0-29.9-24.8-54.2-55.3-54.2h0c-30.5,0-55.3,24.3-55.3,54.2,0,8.6,2,16.7,5.7,23.9l-271.4,153.6-1.8,1v51.7l-55.1-31.2c2.7-5.6,4.2-11.9,4.2-18.5s-1.5-12.9-4.2-18.5ZM3546.5,1793.8l176.8,100c-2.7,5.6-4.2,11.9-4.2,18.5,0,23.9,19.8,43.4,44.2,43.4,15,0,28.3-7.4,36.3-18.6l58.7,33.2v260.1c-13.5,1.1-25.3,8.1-32.6,18.5l-279.2-158v-297.1ZM5020.9,3953.3v-51.7l213.1-120.6v255.9c-13.5,1.1-25.3,8.1-32.6,18.5l-180.4-102.1ZM4823.4,3949.1v-51.7l-220.5-124.8v-51.7l269.6-152.6c9.9,14.5,26.8,24,45.9,24s36-9.5,45.9-24l269.6,152.6v51.7l-218.6,123.7-1.8,1v51.7l-95.1-53.8-95.1,53.8ZM4635.6,4055.4c-7.3-10.3-19.1-17.4-32.7-18.5v-256l213.1,120.6v51.7l-180.4,102.1ZM4283.7,3600.3l176.8,100c-2.7,5.6-4.2,11.9-4.2,18.5,0,23.9,19.8,43.4,44.2,43.4s28.3-7.4,36.3-18.6l58.7,33.2v260.1c-13.5,1.1-25.3,8.1-32.6,18.5l-279.2-158v-297.1ZM4464.1,3694.1l-180.4-102.1v-51.7l213.1-120.6v255.9c-13.5,1.1-25.3,8.1-32.6,18.5ZM5300.1,2971.5l-279.2-158v-297.1l176.8,100c-2.7,5.6-4.2,11.9-4.2,18.5,0,23.9,19.8,43.4,44.2,43.4s28.3-7.4,36.3-18.6l58.7,33.2v260.1c-13.5,1.1-25.3,8.1-32.6,18.5ZM4816,3230.7l-180.4,102.1c-7.3-10.3-19.1-17.4-32.7-18.5v-256l213.1,120.6v51.7ZM5013.5,3226.5l-95.1-53.8-95.1,53.8v-51.7l-220.5-124.8v-51.7l269.6-152.6c9.9,14.5,26.8,24,45.9,24s36-9.5,45.9-24l269.6,152.6v51.7l-218.6,123.7-1.8,1v51.7ZM5201.4,3332.8l-180.4-102.1v-51.7l213.1-120.6v256c-13.5,1.1-25.3,8.1-32.6,18.5ZM5020.9,3239l176.8,100c-2.7,5.6-4.2,11.9-4.2,18.5,0,23.9,19.8,43.4,44.2,43.4s28.3-7.4,36.3-18.6l58.7,33.2v260.1c-13.5,1.1-25.3,8.1-32.6,18.5l-279.2-158v-297.1ZM4823.4,3234.8l95.1-53.8,95.1,53.8v305.4l282.9,160.1c-2.7,5.6-4.2,11.9-4.2,18.5s1.5,12.9,4.2,18.5l-55.1,31.2v-51.7l-273.3-154.7c3.6-7.2,5.7-15.3,5.7-23.9,0-29.9-24.8-54.2-55.3-54.2s-55.3,24.3-55.3,54.2c0,8.6,2,16.7,5.7,23.9l-271.4,153.6-1.8,1v51.7l-55.1-31.2c2.7-5.6,4.2-11.9,4.2-18.5s-1.5-12.9-4.2-18.5l281-159,1.8-1v-305.4ZM4639.2,3339l176.7-100v297.1l-279.2,158c-7.3-10.3-19.1-17.4-32.7-18.5v-260.1l58.8-33.3c8,11.3,21.3,18.6,36.3,18.6,24.4,0,44.2-19.4,44.2-43.4s-1.5-12.9-4.2-18.5ZM4283.7,2877.7l176.8,100c-2.7,5.6-4.2,11.9-4.2,18.5,0,23.9,19.8,43.4,44.2,43.4s28.3-7.4,36.3-18.6l58.7,33.2v260.1c-13.5,1.1-25.3,8.1-32.6,18.5l-279.2-158v-297.1ZM4464.1,2971.5l-180.4-102.1v-51.7l207.5-117.4,5.6-3.2v256c-13.5,1.1-25.3,8.1-32.6,18.5ZM4816,2700.2v113.3l-279.2,158c-7.3-10.3-19.1-17.4-32.7-18.5v-260.1l58.8-33.2c8,11.3,21.3,18.6,36.3,18.6,24.4,0,44.2-19.4,44.2-43.4s-1.5-12.9-4.2-18.5l176.7-100v183.8ZM4821.5,2818.7l1.8-1v-305.4l95.1-53.8,95.1,53.8v305.4l282.9,160.1c-2.7,5.6-4.2,11.9-4.2,18.5s1.5,12.9,4.2,18.5l-55.1,31.2v-51.7l-273.3-154.7c3.6-7.2,5.7-15.3,5.7-23.9,0-29.9-24.8-54.2-55.3-54.2-30.5,0-55.3,24.3-55.3,54.2,0,8.6,2,16.7,5.7,23.9l-271.4,153.6-1.8,1v51.7l-55.1-31.2c2.7-5.6,4.2-11.9,4.2-18.5s-1.5-12.9-4.2-18.5l281-159ZM4086.1,3596.1v305.4l-1.8,1-281,159c2.7,5.6,4.2,11.9,4.2,18.5s-1.5,12.9-4.2,18.5l55.1,31.2v-51.7l1.8-1,271.4-153.6c-3.6-7.2-5.7-15.3-5.7-23.9,0-29.9,24.8-54.2,55.3-54.2h0c30.5,0,55.3,24.3,55.3,54.2s-2,16.7-5.7,23.9l273.3,154.7v51.7l55.1-31.2c-2.7-5.6-4.2-11.9-4.2-18.5s1.5-12.9,4.2-18.5l-282.9-160.1v-305.4l-95.1-53.8-95.1,53.8ZM3865.7,3411.3l220.5,124.8v51.7l95.1-53.8,95.1,53.8v-51.7l1.8-1,218.6-123.7v-51.7l-269.6-152.6c-9.9,14.5-26.8,24-45.9,24v-50h0v50c-19.1,0-36-9.5-45.9-24l-269.6,152.6v51.7ZM4078.8,3592v-51.7l-213.1-120.6v255.9c13.5,1.1,25.3,8.1,32.7,18.5l180.4-102.1ZM3799.6,4055.4l279.2-158v-297.1l-176.7,100c2.7,5.6,4.2,11.9,4.2,18.5,0,23.9-19.8,43.4-44.2,43.4s-28.3-7.4-36.3-18.6l-58.8,33.2v260.1c13.5,1.1,25.3,8.1,32.6,18.5ZM3546.5,3953.3v-51.7l213.1-120.6v256c-13.5,1.1-25.3,8.1-32.6,18.5l-180.4-102.1ZM3825.7,2971.5l-279.2-158v-297.1l176.8,100c-2.7,5.6-4.2,11.9-4.2,18.5,0,23.9,19.8,43.4,44.2,43.4s28.3-7.4,36.3-18.6l58.7,33.2v260.1c-13.5,1.1-25.3,8.1-32.6,18.5ZM3726.9,3332.8l-180.4-102.1v-51.7l213.1-120.6v256c-13.5,1.1-25.3,8.1-32.6,18.5ZM4078.8,2877.7v297.1l-279.2,158c-7.3-10.3-19.1-17.4-32.6-18.5v-260.1l58.8-33.2c8,11.3,21.3,18.6,36.3,18.6,24.4,0,44.2-19.4,44.2-43.4s-1.5-12.9-4.2-18.5l176.7-100ZM3871.3,2700.2l207.5,117.4v51.7l-180.4,102.1c-7.3-10.3-19.1-17.4-32.7-18.5v-255.9l5.6,3.2ZM4086.1,2865.2v-51.7l-200.1-113.3-20.3-11.5v-51.7l269.6-152.6c9.9,14.5,26.8,24,45.9,24v-50h0v50c19.1,0,36-9.5,45.9-24l269.6,152.6v51.7l-20.3,11.5-198.3,112.2-1.8,1v51.7l-95.1-53.8-95.1,53.8ZM3803.3,3339l281-159,1.8-1v-305.4l95.1-53.8,95.1,53.8v305.4l282.9,160.1c-2.7,5.6-4.2,11.9-4.2,18.5s1.5,12.9,4.2,18.5l-55.1,31.2v-51.7l-273.3-154.7c3.6-7.2,5.7-15.3,5.7-23.9,0-29.9-24.8-54.2-55.3-54.2h0c-30.5,0-55.3,24.3-55.3,54.2,0,8.6,2,16.7,5.7,23.9l-271.4,153.6-1.8,1v51.7l-55.1-31.2c2.7-5.6,4.2-11.9,4.2-18.5s-1.5-12.9-4.2-18.5ZM3546.5,3239l176.8,100c-2.7,5.6-4.2,11.9-4.2,18.5,0,23.9,19.8,43.4,44.2,43.4s28.3-7.4,36.3-18.6l58.7,33.2v260.1c-13.5,1.1-25.3,8.1-32.6,18.5l-279.2-158v-297.1ZM3240.2,1433.9l106.9-60.5,1.8-1v-117.4h-7.4v113.3l-101.4,57.4v8.3ZM5500.8,1334.4l-140.3-79.4h-14.7l155.1,87.8v-8.3ZM5340.1,2637l160.7-90.9v-8.3l-166.2,94.1-1.8,1v51.7l-55.1-31.2c2.7-5.6,4.2-11.9,4.2-18.5s-1.5-12.9-4.2-18.5l223.1-126.3v-8.3l-226.8,128.3c-7.3-10.3-19.1-17.4-32.6-18.5v-260.1l58.7-33.2c8,11.3,21.3,18.6,36.3,18.6,24.4,0,44.2-19.4,44.2-43.4s-1.5-12.9-4.2-18.5l124.3-70.4v-8.3l-128,72.4c-7.3-10.3-19.1-17.4-32.6-18.5v-256l160.7,90.9v-8.3l-160.7-90.9v-51.7l160.7-90.9v-8.3l-166.2,94-1.8,1v51.7l-55.1-31.2c2.7-5.6,4.2-11.9,4.2-18.5s-1.5-12.9-4.2-18.5l223.1-126.3v-8.3l-226.8,128.3c-7.3-10.3-19.1-17.4-32.6-18.5v-260.1l58.7-33.2c8,11.3,21.3,18.6,36.3,18.6,24.4,0,44.2-19.4,44.2-43.4s-1.5-12.9-4.2-18.5l124.3-70.4v-8.3l-128,72.4c-7.3-10.3-19.1-17.4-32.6-18.5v-252.8h-7.4v252.8c-13.5,1.1-25.3,8.1-32.6,18.5l-279.2-158v-113.3h-7.4v117.4l282.9,160.1c-2.7,5.6-4.2,11.9-4.2,18.5s1.5,12.9,4.2,18.5l-55.1,31.2v-51.7l-273.3-154.7c3.6-7.2,5.7-15.3,5.7-23.9,0-29.9-24.8-54.2-55.3-54.2s-55.3,24.3-55.3,54.2c0,8.6,2,16.7,5.7,23.9l-271.4,153.6-1.8,1v51.7l-55.1-31.2c2.7-5.6,4.2-11.9,4.2-18.5s-1.5-12.9-4.2-18.5l281-159,1.8-1v-117.4h-7.4v113.3l-279.2,158c-7.3-10.3-19.1-17.4-32.6-18.5v-252.8h-7.4v252.8c-13.5,1.1-25.3,8.1-32.6,18.5l-180.4-102.1v-51.7l207.5-117.4h-14.7l-198.3,112.2-1.8,1v51.7l-95.1-53.8-95.1,53.8v-51.7l-200.1-113.3h-14.7l207.5,117.4v51.7l-180.4,102.1c-7.3-10.3-19.1-17.4-32.6-18.5v-252.8h-7.4v252.8c-13.5,1.1-25.3,8.1-32.6,18.5l-279.2-158v-113.3h-7.4v117.4l282.9,160.1c-2.7,5.6-4.2,11.9-4.2,18.5s1.5,12.9,4.2,18.5l-55.1,31.2v-51.7l-273.3-154.7c3.6-7.2,5.7-15.3,5.7-23.9,0-29.9-24.8-54.2-55.3-54.2s-55.3,24.3-55.3,54.2,2,16.7,5.7,23.9l-154.2,87.3v8.3l157.9-89.3c9.9,14.5,26.8,24,45.9,24,19.1,0,36-9.5,45.9-24l269.6,152.6v51.7l-218.6,123.7-1.8,1v51.7l-95.1-53.8-95.1,53.8v-51.7l-108.7-61.5v8.3l101.4,57.4v51.7l-101.4,57.4v8.3l101.4-57.4v297.1l-101.4,57.4v8.3l106.9-60.5,1.8-1v-305.4l95.1-53.8,95.1,53.8v305.4l282.9,160.1c-2.7,5.6-4.2,11.9-4.2,18.5s1.5,12.9,4.2,18.5l-55.1,31.2v-51.7l-273.3-154.7c3.6-7.2,5.7-15.3,5.7-23.9,0-29.9-24.8-54.2-55.3-54.2s-55.3,24.3-55.3,54.2,2,16.7,5.7,23.9l-154.2,87.3v8.3l157.9-89.3c9.9,14.5,26.8,24,45.9,24s36-9.5,45.9-24l269.6,152.6v51.7l-218.6,123.7-1.8,1v51.7l-95.1-53.8-95.1,53.8v-51.7l-108.7-61.5v8.3l101.4,57.4v51.7l-101.4,57.4v8.3l101.4-57.4v297.1l-101.4,57.4v8.3l106.9-60.5,1.8-1v-305.4l95.1-53.8,95.1,53.8v305.4l282.9,160.1c-2.7,5.6-4.2,11.9-4.2,18.5s1.5,12.9,4.2,18.5l-55.1,31.2v-51.7l-273.3-154.7c3.6-7.2,5.7-15.3,5.7-23.9,0-29.9-24.8-54.2-55.3-54.2-30.5,0-55.3,24.3-55.3,54.2s2,16.7,5.7,23.9l-154.2,87.3v8.3l157.9-89.3c9.9,14.5,26.8,24,45.9,24s36-9.5,45.9-24l269.6,152.6v51.7l-218.6,123.7-1.8,1v51.7l-95.1-53.8-95.1,53.8v-51.7l-108.7-61.5v8.3l101.4,57.4v51.7l-101.4,57.4v8.3l101.4-57.4v297.1l-101.4,57.4v8.3l106.9-60.5,1.8-1v-305.4l95.1-53.8,95.1,53.8v305.4l282.9,160.1c-2.7,5.6-4.2,11.9-4.2,18.5s1.5,12.9,4.2,18.5l-55.1,31.2v-51.7l-273.3-154.7c3.6-7.2,5.7-15.3,5.7-23.9,0-29.9-24.8-54.2-55.3-54.2s-55.3,24.3-55.3,54.2,2,16.7,5.7,23.9l-154.2,87.3v8.3l157.9-89.3c9.9,14.5,26.8,24,45.9,24s36-9.5,45.9-24l269.6,152.6v51.7l-218.6,123.7-1.8,1v51.7l-95.1-53.8-95.1,53.8v-51.7l-108.7-61.5v8.3l101.4,57.4v51.7l-101.4,57.4v8.3l101.4-57.4v183.8h7.4v-188l95.1-53.8,95.1,53.8v188h7.4v-183.8l176.8,100c-2.7,5.6-4.2,11.9-4.2,18.5,0,23.9,19.8,43.4,44.2,43.4s28.3-7.4,36.3-18.6l58.7,33.2v7.3h7.4v-3.2l5.6,3.2h14.7l-20.3-11.5v-51.7l269.6-152.6c9.9,14.5,26.8,24,45.9,24v-50h0v50c19.1,0,36-9.5,45.9-24l269.6,152.6v51.7l-20.3,11.5h14.7l5.6-3.2v3.2h7.4v-7.3l58.8-33.2c8,11.3,21.3,18.6,36.3,18.6,24.4,0,44.2-19.4,44.2-43.4s-1.5-12.9-4.2-18.5l176.7-100v183.8h7.4v-188l95.1-53.8,95.1,53.8v188h7.4v-183.8l176.8,100c-2.7,5.6-4.2,11.9-4.2,18.5,0,23.9,19.8,43.4,44.2,43.4s28.3-7.4,36.3-18.6l58.7,33.2v7.3h7.4v-3.2l5.6,3.2h14.7l-20.3-11.5v-51.7l160.7-90.9v-8.3l-166.2,94-1.8,1v51.7l-55.1-31.2c2.7-5.6,4.2-11.9,4.2-18.5s-1.5-12.9-4.2-18.5l223.1-126.3v-8.3l-226.8,128.3c-7.3-10.3-19.1-17.4-32.6-18.5v-260.1l58.8-33.2c8,11.3,21.3,18.6,36.3,18.6,24.4,0,44.2-19.4,44.2-43.4s-1.5-12.9-4.2-18.5l124.3-70.4v-8.3l-128,72.4c-7.3-10.3-19.1-17.4-32.6-18.5v-255.9l160.7,90.9v-8.3l-160.7-90.9v-51.7l160.7-90.9v-8.3l-166.2,94.1-1.8,1v51.7l-55.1-31.2c2.7-5.6,4.2-11.9,4.2-18.5s-1.5-12.9-4.2-18.5l223.1-126.3v-8.3l-226.8,128.3c-7.3-10.3-19.1-17.4-32.6-18.5v-260.1l58.8-33.2c8,11.3,21.3,18.6,36.3,18.6,24.4,0,44.2-19.4,44.2-43.4s-1.5-12.9-4.2-18.5l124.3-70.4v-8.3l-128,72.4c-7.3-10.3-19.1-17.4-32.6-18.5v-255.9l5.6,3.2,155.1,87.8v-8.3l-140.3-79.4-20.3-11.5v-51.7Z"/>
    </clipPath>
    <clipPath id="clippath-2">
      <rect class="st3" x="3240.2" y="1255" width="2260.6" height="2890.5"/>
    </clipPath>
    <clipPath id="clippath-3">
      <rect class="st3" x="3240.2" y="1255" width="2260.6" height="2890.5"/>
    </clipPath>
    <clipPath id="clippath-4">
      <path class="st3" d="M571.6,4042.2c.8-57.9-1-116.1-.2-174.1,5.5-366.2,22.2-733.5,8.3-1099.3-6.2-163.5-16.7-328.2-28.5-491.6-.2-5,1-8.2,4.3-11.9,5.1-5.7,48.3-24.1,59.8-32.2,172.7-120.5,93-380.5,40.3-547.5-21.1-66.9-48.4-131.5-71.8-197.5,188.8-99.3,398.2-149.6,597.5-223.6,18.7,43.6,28.8,92.3,45.8,137.4,62.5,166,174.3,313.4,336.9,389.2,206.7-104,323.4-307.5,374.7-527.2,200,73.6,412,122.5,599.2,226.5-43.9,120-90.5,240.1-116.8,365.9-28.5,135.9-40.9,286.7,85.5,376.8,15.2,10.8,60.3,23.3,63.6,40.3l-12.1,183.6c-26.3,517-21.8,1037.3-8,1555.3.2,6.3,8.3,29.8-1.8,29.8H571.6Z"/>
    </clipPath>
    <clipPath id="clippath-5">
      <path class="st4" d="M2211.1,2460.9v-51.7l213.1-120.6v256c-13.5,1.1-25.3,8.1-32.6,18.5l-180.4-102.1ZM2013.6,2456.7v-51.7l-220.5-124.8v-51.7l269.6-152.6c9.9,14.5,26.8,24,45.9,24s36-9.5,45.9-24l269.6,152.6v51.7l-218.6,123.7-1.8,1v51.7l-95.1-53.8-95.1,53.8ZM1825.8,2563c-7.3-10.3-19.1-17.4-32.6-18.5v-256l213.1,120.6v51.7l-180.4,102.1ZM1473.9,2107.9l176.8,100c-2.7,5.6-4.2,11.9-4.2,18.5,0,23.9,19.8,43.4,44.2,43.4s28.3-7.4,36.3-18.6l58.7,33.2v260.1c-13.5,1.1-25.3,8.1-32.6,18.5l-279.2-158v-297.1ZM1654.3,2201.7l-180.4-102.1v-51.7l213.1-120.6v256c-13.5,1.1-25.3,8.1-32.6,18.5ZM2006.2,1738.3l-180.4,102.1c-7.3-10.3-19.1-17.4-32.6-18.5v-256l213.1,120.6v51.7ZM2203.8,1734.1l-95.1-53.8-95.1,53.8v-51.7l-220.5-124.8v-51.7l269.6-152.6c9.9,14.5,26.8,24,45.9,24,19.1,0,36-9.5,45.9-24l269.6,152.6v51.7l-218.6,123.7-1.8,1v51.7ZM2391.6,1840.4l-180.4-102.1v-51.7l213.1-120.6v256c-13.5,1.1-25.3,8.1-32.6,18.5ZM2211.1,1746.6l176.8,100c-2.7,5.6-4.2,11.9-4.2,18.5,0,23.9,19.8,43.4,44.2,43.4,15,0,28.3-7.4,36.3-18.6l58.7,33.2v260.1c-13.5,1.1-25.3,8.1-32.6,18.5l-279.2-158v-297.1ZM2013.6,1742.5l95.1-53.8,95.1,53.8v305.4l282.9,160.1c-2.7,5.6-4.2,11.9-4.2,18.5s1.5,12.9,4.2,18.5l-55.1,31.2v-51.7l-273.3-154.7c3.6-7.2,5.7-15.3,5.7-23.9,0-29.9-24.8-54.2-55.3-54.2s-55.3,24.3-55.3,54.2c0,8.6,2,16.7,5.7,23.9l-271.4,153.6-1.8,1v51.7l-55.1-31.2c2.7-5.6,4.2-11.9,4.2-18.5s-1.5-12.9-4.2-18.5l281-159,1.8-1v-305.4ZM1829.5,1846.6l176.7-100v297.1l-279.2,158c-7.3-10.3-19.1-17.4-32.6-18.5v-260.1l58.7-33.2c8,11.3,21.3,18.6,36.3,18.6,24.4,0,44.2-19.4,44.2-43.4s-1.5-12.9-4.2-18.5ZM1650.7,1485.3c-2.7,5.6-4.2,11.9-4.2,18.5,0,23.9,19.8,43.4,44.2,43.4s28.3-7.4,36.3-18.6l58.7,33.2v260.1c-13.5,1.1-25.3,8.1-32.6,18.5l-279.2-158v-297.1l176.8,100ZM1276.4,2103.8v305.4l-1.8,1-281,159c2.7,5.6,4.2,11.9,4.2,18.5s-1.5,12.9-4.2,18.5l55.1,31.2v-51.7l1.8-1,271.4-153.6c-3.6-7.2-5.7-15.3-5.7-23.9,0-29.9,24.8-54.2,55.3-54.2h0c30.5,0,55.3,24.3,55.3,54.2s-2,16.7-5.7,23.9l273.3,154.7v51.7l55.1-31.2c-2.7-5.6-4.2-11.9-4.2-18.5s1.5-12.9,4.2-18.5l-282.9-160.1v-305.4l-95.1-53.8-95.1,53.8ZM1055.9,1918.9l220.5,124.8v51.7l95.1-53.8,95.1,53.8v-51.7l1.8-1,218.6-123.7v-51.7l-269.6-152.6c-9.9,14.5-26.8,24-45.9,24v-50h0v50c-19.1,0-36-9.5-45.9-24l-269.6,152.6v51.7ZM1269,2099.6v-51.7l-213.1-120.6v256c13.5,1.1,25.3,8.1,32.6,18.5l180.4-102.1ZM989.8,2563l279.2-158v-297.1l-176.7,100c2.7,5.6,4.2,11.9,4.2,18.5,0,23.9-19.8,43.4-44.2,43.4s-28.3-7.4-36.3-18.6l-58.7,33.2v260.1c13.5,1.1,25.3,8.1,32.6,18.5ZM736.7,2460.9v-51.7l213.1-120.6v256c-13.5,1.1-25.3,8.1-32.6,18.5l-180.4-102.1ZM917.1,1840.4l-180.4-102.1v-51.7l213.1-120.6v256c-13.5,1.1-25.3,8.2-32.6,18.5ZM1269,1385.3v297.1l-279.2,158c-7.3-10.3-19.1-17.4-32.6-18.5v-260.1l58.7-33.2c8,11.3,21.3,18.6,36.3,18.6,24.4,0,44.2-19.4,44.2-43.4s-1.5-12.9-4.2-18.5l176.7-100ZM993.5,1846.6l281-159,1.8-1v-305.4l95.1-53.8,95.1,53.8v305.4l282.9,160.1c-2.7,5.6-4.2,11.9-4.2,18.5s1.5,12.9,4.2,18.5l-55.1,31.2v-51.7l-273.3-154.7c3.6-7.2,5.7-15.3,5.7-23.9,0-29.9-24.8-54.2-55.3-54.2h0c-30.5,0-55.3,24.3-55.3,54.2,0,8.6,2,16.7,5.7,23.9l-271.4,153.6-1.8,1v51.7l-55.1-31.2c2.7-5.6,4.2-11.9,4.2-18.5s-1.5-12.9-4.2-18.5ZM736.7,1746.6l176.8,100c-2.7,5.6-4.2,11.9-4.2,18.5,0,23.9,19.8,43.4,44.2,43.4,15,0,28.3-7.4,36.3-18.6l58.7,33.2v260.1c-13.5,1.1-25.3,8.1-32.6,18.5l-279.2-158v-297.1ZM2211.1,3906.1v-51.7l213.1-120.6v255.9c-13.5,1.1-25.3,8.1-32.6,18.5l-180.4-102.1ZM2013.6,3902v-51.7l-220.5-124.8v-51.7l269.6-152.6c9.9,14.5,26.8,24,45.9,24s36-9.5,45.9-24l269.6,152.6v51.7l-218.6,123.7-1.8,1v51.7l-95.1-53.8-95.1,53.8ZM1825.8,4008.2c-7.3-10.3-19.1-17.4-32.7-18.5v-256l213.1,120.6v51.7l-180.4,102.1ZM1473.9,3553.2l176.8,100c-2.7,5.6-4.2,11.9-4.2,18.5,0,23.9,19.8,43.4,44.2,43.4s28.3-7.4,36.3-18.6l58.7,33.2v260.1c-13.5,1.1-25.3,8.1-32.6,18.5l-279.2-158v-297.1ZM1654.3,3646.9l-180.4-102.1v-51.7l213.1-120.6v255.9c-13.5,1.1-25.3,8.1-32.6,18.5ZM2490.3,2924.3l-279.2-158v-297.1l176.8,100c-2.7,5.6-4.2,11.9-4.2,18.5,0,23.9,19.8,43.4,44.2,43.4s28.3-7.4,36.3-18.6l58.7,33.2v260.1c-13.5,1.1-25.3,8.1-32.6,18.5ZM2006.2,3183.5l-180.4,102.1c-7.3-10.3-19.1-17.4-32.7-18.5v-256l213.1,120.6v51.7ZM2203.8,3179.3l-95.1-53.8-95.1,53.8v-51.7l-220.5-124.8v-51.7l269.6-152.6c9.9,14.5,26.8,24,45.9,24s36-9.5,45.9-24l269.6,152.6v51.7l-218.6,123.7-1.8,1v51.7ZM2391.6,3285.6l-180.4-102.1v-51.7l213.1-120.6v256c-13.5,1.1-25.3,8.1-32.6,18.5ZM2211.1,3191.9l176.8,100c-2.7,5.6-4.2,11.9-4.2,18.5,0,23.9,19.8,43.4,44.2,43.4s28.3-7.4,36.3-18.6l58.7,33.2v260.1c-13.5,1.1-25.3,8.1-32.6,18.5l-279.2-158v-297.1ZM2013.6,3187.7l95.1-53.8,95.1,53.8v305.4l282.9,160.1c-2.7,5.6-4.2,11.9-4.2,18.5s1.5,12.9,4.2,18.5l-55.1,31.2v-51.7l-273.3-154.7c3.6-7.2,5.7-15.3,5.7-23.9,0-29.9-24.8-54.2-55.3-54.2s-55.3,24.3-55.3,54.2c0,8.6,2,16.7,5.7,23.9l-271.4,153.6-1.8,1v51.7l-55.1-31.2c2.7-5.6,4.2-11.9,4.2-18.5s-1.5-12.9-4.2-18.5l281-159,1.8-1v-305.4ZM1829.5,3291.9l176.7-100v297.1l-279.2,158c-7.3-10.3-19.1-17.4-32.7-18.5v-260.1l58.8-33.3c8,11.3,21.3,18.6,36.3,18.6,24.4,0,44.2-19.4,44.2-43.4s-1.5-12.9-4.2-18.5ZM1473.9,2830.5l176.8,100c-2.7,5.6-4.2,11.9-4.2,18.5,0,23.9,19.8,43.4,44.2,43.4s28.3-7.4,36.3-18.6l58.7,33.2v260.1c-13.5,1.1-25.3,8.1-32.6,18.5l-279.2-158v-297.1ZM1654.3,2924.3l-180.4-102.1v-51.7l207.5-117.4,5.6-3.2v256c-13.5,1.1-25.3,8.1-32.6,18.5ZM2006.2,2653.1v113.3l-279.2,158c-7.3-10.3-19.1-17.4-32.7-18.5v-260.1l58.8-33.2c8,11.3,21.3,18.6,36.3,18.6,24.4,0,44.2-19.4,44.2-43.4s-1.5-12.9-4.2-18.5l176.7-100v183.8ZM2011.7,2771.5l1.8-1v-305.4l95.1-53.8,95.1,53.8v305.4l282.9,160.1c-2.7,5.6-4.2,11.9-4.2,18.5s1.5,12.9,4.2,18.5l-55.1,31.2v-51.7l-273.3-154.7c3.6-7.2,5.7-15.3,5.7-23.9,0-29.9-24.8-54.2-55.3-54.2-30.5,0-55.3,24.3-55.3,54.2,0,8.6,2,16.7,5.7,23.9l-271.4,153.6-1.8,1v51.7l-55.1-31.2c2.7-5.6,4.2-11.9,4.2-18.5s-1.5-12.9-4.2-18.5l281-159ZM1276.4,3549v305.4l-1.8,1-281,159c2.7,5.6,4.2,11.9,4.2,18.5s-1.5,12.9-4.2,18.5l55.1,31.2v-51.7l1.8-1,271.4-153.6c-3.6-7.2-5.7-15.3-5.7-23.9,0-29.9,24.8-54.2,55.3-54.2h0c30.5,0,55.3,24.3,55.3,54.2s-2,16.7-5.7,23.9l273.3,154.7v51.7l55.1-31.2c-2.7-5.6-4.2-11.9-4.2-18.5s1.5-12.9,4.2-18.5l-282.9-160.1v-305.4l-95.1-53.8-95.1,53.8ZM1055.9,3364.2l220.5,124.8v51.7l95.1-53.8,95.1,53.8v-51.7l1.8-1,218.6-123.7v-51.7l-269.6-152.6c-9.9,14.5-26.8,24-45.9,24v-50h0v50c-19.1,0-36-9.5-45.9-24l-269.6,152.6v51.7ZM1269,3544.8v-51.7l-213.1-120.6v255.9c13.5,1.1,25.3,8.1,32.7,18.5l180.4-102.1ZM989.8,4008.2l279.2-158v-297.1l-176.7,100c2.7,5.6,4.2,11.9,4.2,18.5,0,23.9-19.8,43.4-44.2,43.4s-28.3-7.4-36.3-18.6l-58.8,33.2v260.1c13.5,1.1,25.3,8.1,32.6,18.5ZM736.7,3906.1v-51.7l213.1-120.6v256c-13.5,1.1-25.3,8.1-32.6,18.5l-180.4-102.1ZM1015.9,2924.3l-279.2-158v-297.1l176.8,100c-2.7,5.6-4.2,11.9-4.2,18.5,0,23.9,19.8,43.4,44.2,43.4s28.3-7.4,36.3-18.6l58.7,33.2v260.1c-13.5,1.1-25.3,8.1-32.6,18.5ZM917.1,3285.6l-180.4-102.1v-51.7l213.1-120.6v256c-13.5,1.1-25.3,8.1-32.6,18.5ZM1269,2830.5v297.1l-279.2,158c-7.3-10.3-19.1-17.4-32.6-18.5v-260.1l58.8-33.2c8,11.3,21.3,18.6,36.3,18.6,24.4,0,44.2-19.4,44.2-43.4s-1.5-12.9-4.2-18.5l176.7-100ZM1061.5,2653.1l207.5,117.4v51.7l-180.4,102.1c-7.3-10.3-19.1-17.4-32.7-18.5v-255.9l5.6,3.2ZM1276.4,2818v-51.7l-200.1-113.3-20.3-11.5v-51.7l269.6-152.6c9.9,14.5,26.8,24,45.9,24v-50h0v50c19.1,0,36-9.5,45.9-24l269.6,152.6v51.7l-20.3,11.5-198.3,112.2-1.8,1v51.7l-95.1-53.8-95.1,53.8ZM993.5,3291.9l281-159,1.8-1v-305.4l95.1-53.8,95.1,53.8v305.4l282.9,160.1c-2.7,5.6-4.2,11.9-4.2,18.5s1.5,12.9,4.2,18.5l-55.1,31.2v-51.7l-273.3-154.7c3.6-7.2,5.7-15.3,5.7-23.9,0-29.9-24.8-54.2-55.3-54.2h0c-30.5,0-55.3,24.3-55.3,54.2,0,8.6,2,16.7,5.7,23.9l-271.4,153.6-1.8,1v51.7l-55.1-31.2c2.7-5.6,4.2-11.9,4.2-18.5s-1.5-12.9-4.2-18.5ZM736.7,3191.9l176.8,100c-2.7,5.6-4.2,11.9-4.2,18.5,0,23.9,19.8,43.4,44.2,43.4s28.3-7.4,36.3-18.6l58.7,33.2v260.1c-13.5,1.1-25.3,8.1-32.6,18.5l-279.2-158v-297.1ZM430.4,1386.8l106.9-60.5,1.8-1v-117.4h-7.4v113.3l-101.4,57.4v8.3ZM2691,1287.2l-140.3-79.4h-14.7l155.1,87.8v-8.3ZM2530.4,2589.8l160.7-90.9v-8.3l-166.2,94.1-1.8,1v51.7l-55.1-31.2c2.7-5.6,4.2-11.9,4.2-18.5s-1.5-12.9-4.2-18.5l223.1-126.3v-8.3l-226.8,128.3c-7.3-10.3-19.1-17.4-32.6-18.5v-260.1l58.7-33.2c8,11.3,21.3,18.6,36.3,18.6,24.4,0,44.2-19.4,44.2-43.4s-1.5-12.9-4.2-18.5l124.3-70.4v-8.3l-128,72.4c-7.3-10.3-19.1-17.4-32.6-18.5v-256l160.7,90.9v-8.3l-160.7-90.9v-51.7l160.7-90.9v-8.3l-166.2,94-1.8,1v51.7l-55.1-31.2c2.7-5.6,4.2-11.9,4.2-18.5s-1.5-12.9-4.2-18.5l223.1-126.3v-8.3l-226.8,128.3c-7.3-10.3-19.1-17.4-32.6-18.5v-260.1l58.7-33.2c8,11.3,21.3,18.6,36.3,18.6,24.4,0,44.2-19.4,44.2-43.4s-1.5-12.9-4.2-18.5l124.3-70.4v-8.3l-128,72.4c-7.3-10.3-19.1-17.4-32.6-18.5v-252.8h-7.4v252.8c-13.5,1.1-25.3,8.1-32.6,18.5l-279.2-158v-113.3h-7.4v117.4l282.9,160.1c-2.7,5.6-4.2,11.9-4.2,18.5s1.5,12.9,4.2,18.5l-55.1,31.2v-51.7l-273.3-154.7c3.6-7.2,5.7-15.3,5.7-23.9,0-29.9-24.8-54.2-55.3-54.2s-55.3,24.3-55.3,54.2c0,8.6,2,16.7,5.7,23.9l-271.4,153.6-1.8,1v51.7l-55.1-31.2c2.7-5.6,4.2-11.9,4.2-18.5s-1.5-12.9-4.2-18.5l281-159,1.8-1v-117.4h-7.4v113.3l-279.2,158c-7.3-10.3-19.1-17.4-32.6-18.5v-252.8h-7.4v252.8c-13.5,1.1-25.3,8.1-32.6,18.5l-180.4-102.1v-51.7l207.5-117.4h-14.7l-198.3,112.2-1.8,1v51.7l-95.1-53.8-95.1,53.8v-51.7l-200.1-113.3h-14.7l207.5,117.4v51.7l-180.4,102.1c-7.3-10.3-19.1-17.4-32.6-18.5v-252.8h-7.4v252.8c-13.5,1.1-25.3,8.1-32.6,18.5l-279.2-158v-113.3h-7.4v117.4l282.9,160.1c-2.7,5.6-4.2,11.9-4.2,18.5s1.5,12.9,4.2,18.5l-55.1,31.2v-51.7l-273.3-154.7c3.6-7.2,5.7-15.3,5.7-23.9,0-29.9-24.8-54.2-55.3-54.2s-55.3,24.3-55.3,54.2,2,16.7,5.7,23.9l-154.2,87.3v8.3l157.9-89.3c9.9,14.5,26.8,24,45.9,24,19.1,0,36-9.5,45.9-24l269.6,152.6v51.7l-218.6,123.7-1.8,1v51.7l-95.1-53.8-95.1,53.8v-51.7l-108.7-61.5v8.3l101.4,57.4v51.7l-101.4,57.4v8.3l101.4-57.4v297.1l-101.4,57.4v8.3l106.9-60.5,1.8-1v-305.4l95.1-53.8,95.1,53.8v305.4l282.9,160.1c-2.7,5.6-4.2,11.9-4.2,18.5s1.5,12.9,4.2,18.5l-55.1,31.2v-51.7l-273.3-154.7c3.6-7.2,5.7-15.3,5.7-23.9,0-29.9-24.8-54.2-55.3-54.2s-55.3,24.3-55.3,54.2,2,16.7,5.7,23.9l-154.2,87.3v8.3l157.9-89.3c9.9,14.5,26.8,24,45.9,24s36-9.5,45.9-24l269.6,152.6v51.7l-218.6,123.7-1.8,1v51.7l-95.1-53.8-95.1,53.8v-51.7l-108.7-61.5v8.3l101.4,57.4v51.7l-101.4,57.4v8.3l101.4-57.4v297.1l-101.4,57.4v8.3l106.9-60.5,1.8-1v-305.4l95.1-53.8,95.1,53.8v305.4l282.9,160.1c-2.7,5.6-4.2,11.9-4.2,18.5s1.5,12.9,4.2,18.5l-55.1,31.2v-51.7l-273.3-154.7c3.6-7.2,5.7-15.3,5.7-23.9,0-29.9-24.8-54.2-55.3-54.2-30.5,0-55.3,24.3-55.3,54.2s2,16.7,5.7,23.9l-154.2,87.3v8.3l157.9-89.3c9.9,14.5,26.8,24,45.9,24s36-9.5,45.9-24l269.6,152.6v51.7l-218.6,123.7-1.8,1v51.7l-95.1-53.8-95.1,53.8v-51.7l-108.7-61.5v8.3l101.4,57.4v51.7l-101.4,57.4v8.3l101.4-57.4v297.1l-101.4,57.4v8.3l106.9-60.5,1.8-1v-305.4l95.1-53.8,95.1,53.8v305.4l282.9,160.1c-2.7,5.6-4.2,11.9-4.2,18.5s1.5,12.9,4.2,18.5l-55.1,31.2v-51.7l-273.3-154.7c3.6-7.2,5.7-15.3,5.7-23.9,0-29.9-24.8-54.2-55.3-54.2s-55.3,24.3-55.3,54.2,2,16.7,5.7,23.9l-154.2,87.3v8.3l157.9-89.3c9.9,14.5,26.8,24,45.9,24s36-9.5,45.9-24l269.6,152.6v51.7l-218.6,123.7-1.8,1v51.7l-95.1-53.8-95.1,53.8v-51.7l-108.7-61.5v8.3l101.4,57.4v51.7l-101.4,57.4v8.3l101.4-57.4v183.8h7.4v-188l95.1-53.8,95.1,53.8v188h7.4v-183.8l176.8,100c-2.7,5.6-4.2,11.9-4.2,18.5,0,23.9,19.8,43.4,44.2,43.4s28.3-7.4,36.3-18.6l58.7,33.2v7.3h7.4v-3.2l5.6,3.2h14.7l-20.3-11.5v-51.7l269.6-152.6c9.9,14.5,26.8,24,45.9,24v-50h0v50c19.1,0,36-9.5,45.9-24l269.6,152.6v51.7l-20.3,11.5h14.7l5.6-3.2v3.2h7.4v-7.3l58.8-33.2c8,11.3,21.3,18.6,36.3,18.6,24.4,0,44.2-19.4,44.2-43.4s-1.5-12.9-4.2-18.5l176.7-100v183.8h7.4v-188l95.1-53.8,95.1,53.8v188h7.4v-183.8l176.8,100c-2.7,5.6-4.2,11.9-4.2,18.5,0,23.9,19.8,43.4,44.2,43.4s28.3-7.4,36.3-18.6l58.7,33.2v7.3h7.4v-3.2l5.6,3.2h14.7l-20.3-11.5v-51.7l160.7-90.9v-8.3l-166.2,94-1.8,1v51.7l-55.1-31.2c2.7-5.6,4.2-11.9,4.2-18.5s-1.5-12.9-4.2-18.5l223.1-126.3v-8.3l-226.8,128.3c-7.3-10.3-19.1-17.4-32.6-18.5v-260.1l58.8-33.2c8,11.3,21.3,18.6,36.3,18.6,24.4,0,44.2-19.4,44.2-43.4s-1.5-12.9-4.2-18.5l124.3-70.4v-8.3l-128,72.4c-7.3-10.3-19.1-17.4-32.6-18.5v-255.9l160.7,90.9v-8.3l-160.7-90.9v-51.7l160.7-90.9v-8.3l-166.2,94.1-1.8,1v51.7l-55.1-31.2c2.7-5.6,4.2-11.9,4.2-18.5s-1.5-12.9-4.2-18.5l223.1-126.3v-8.3l-226.8,128.3c-7.3-10.3-19.1-17.4-32.6-18.5v-260.1l58.8-33.2c8,11.3,21.3,18.6,36.3,18.6,24.4,0,44.2-19.4,44.2-43.4s-1.5-12.9-4.2-18.5l124.3-70.4v-8.3l-128,72.4c-7.3-10.3-19.1-17.4-32.6-18.5v-255.9l5.6,3.2,155.1,87.8v-8.3l-140.3-79.4-20.3-11.5v-51.7Z"/>
    </clipPath>
    <clipPath id="clippath-6">
      <rect class="st3" x="430.4" y="1207.8" width="2260.6" height="2890.5"/>
    </clipPath>
    <clipPath id="clippath-7">
      <rect class="st3" x="430.4" y="1207.8" width="2260.6" height="2890.5"/>
    </clipPath>
  </defs>
  <g class="st11">
    <g class="st5">
      <g class="st7">
        <g class="st9">
          <g class="st10">
            <g class="st8">
              <image width="9420" height="12045" transform="translate(3240 1254.8) scale(.2)" xlink:href="1-02-01-1.png"/>
            </g>
          </g>
        </g>
      </g>
    </g>
  </g>
  <g class="st2">
    <g class="st6">
      <g class="st7">
        <g class="st9">
          <g class="st0">
            <g class="st1">
              <image width="9420" height="12045" transform="translate(430.3 1207.7) scale(.2)" xlink:href="1-02-01-2.png"/>
            </g>
          </g>
        </g>
      </g>
    </g>
  </g>
  <path class="st3" d="M2359.6,4974.7l-114.2,359.9c-78.5-3.2-157.1-2.4-235.6-4.1-77.8-1.7-157.7-7.3-235.5-8.4-393.2-5.2-786.7,1.4-1178.8,12.4l-118.7-357.6c54.2-22.3,108.7-44.4,160.9-71.4,294.5-152.7,455.3-397.6,832.1-366.1,314,26.3,463.3,293.5,740,395.3,48.6,17.9,99.1,30,149.8,40Z"/>
  <path class="st3" d="M5385.7,5050.6l-118.4,360c-74.5-2.7-149.1-2.4-223.6-4.1-393.3-8.9-785.6-8.2-1178.9,0-82.4,1.7-164.9,1.5-247.4,4l-118.6-357.9c51.6-12,104.1-23.7,154-42,328.1-119.7,435.6-419.2,847.5-396,355.6,20,558.3,341.1,885.3,435.9Z"/>
  <rect class="st3" x="2359.7" y="617.4" width="1071.3" height="87.9"/>
  <path class="st3" d="M3950.7,657.4c12.6-29,34.8-58.7,54-83.9h793.5c-2.6,26.3,3.5,58.6,0,83.9-276.2,3.5-569.8,3.5-847.4,0Z"/>
  <path class="st3" d="M1576.2,657.4c-276.2,3.5-569.8,3.5-847.4,0-3.5-25.4,2.6-57.7,0-83.9h793.5c18.4,27,38.8,55.2,54,83.9Z"/>
</svg>