<?xml version="1.0" encoding="utf-8"?>
<!-- Generator: Adobe Illustrator 22.0.0, SVG Export Plug-In . SVG Version: 6.00 Build 0)  -->
<svg version="1.1" id="Layer_1" xmlns="http://www.w3.org/2000/svg" xmlns:xlink="http://www.w3.org/1999/xlink" x="0px" y="0px"
	 viewBox="0 0 864 864" style="enable-background:new 0 0 864 864;" xml:space="preserve">
<path d="M8.9,864.8c-3.8,0-7.7,0-11.5,0c0-3.8,0-7.7,0-11.5c2.1,1.1,4.2,2,6.2,3.2C6.8,858.3,9,860.9,8.9,864.8z M307,21.7
	c179.5,179.5,358.9,359,538.4,538.4c4.5,4.5,9.1,9,13.7,13.4c0.9,0.9,2,1.5,3.1,2c1.4,0.7,2.5,0.2,3.2-1c1.7-3.1,1.5-6.5-0.6-9
	c-4.5-5.4-9.5-10.4-14.4-15.3c-177.6-177.7-355.3-355.3-533-533c-4.1-4.1-8.1-8.1-12.2-12.2c-1.4-1.3-2.7-2.8-4.4-3.7
	c-1.6-0.9-3.5-1.4-5-1.9c-1.1,0.1-1.8,0.1-2.3,0.3c-1.1,0.5-2.7,0.9-3.1,1.8c-0.4,0.9,0,2.7,0.7,3.5C296.3,10.7,301.6,16.3,307,21.7
	z M377.3,20.1c156.5,156.5,313,313,469.5,469.5c4.1,4.1,8.2,8.1,12.3,12.1c0.9,0.9,2,1.5,3.1,2.1c1.4,0.7,2.6,0.3,3.2-1
	c1.9-3.9,1.2-7.6-1.5-10.6c-4.2-4.8-8.9-9.2-13.4-13.7c-48.4-48.4-96.8-96.8-145.2-145.2C599.6,227.4,493.8,121.6,387.9,15.8
	c-4.5-4.5-9-9-13.7-13.4c-2.4-2.3-5.5-3.2-8.7-2.8c-1.5,0.2-2.9,0.6-3.3,1.8c-0.3,1-0.2,2.7,0.5,3.5C367.5,10,372.4,15.1,377.3,20.1
	z M160.3,19c228.9,229,457.8,457.9,686.8,686.9c4.1,4.1,8.1,8.1,12.3,12.1c0.9,0.8,2.1,1.3,3.2,1.9c1.5,0.7,2.6,0.3,3-1.3
	c0.4-1.2,0.6-2.4,0.8-3.6c0-2.7-0.9-5.2-2.6-7c-4.8-5.1-9.8-10.1-14.8-15C623.2,467,397.5,241.3,171.7,15.5
	c-4.1-4.1-8.2-8.1-12.3-12.1c-0.9-0.9-1.9-1.7-3-2.4c-2.9-1.6-5.9-2.2-9.1-0.6c-1.4,0.7-2,1.7-1.1,3.2
	C149.7,9.8,155.4,14.1,160.3,19z M88.9,19.7c252.5,252.5,505,505,757.5,757.5c3.6,3.6,7.2,7.3,10.9,10.8c1.4,1.3,2.9,2.6,4.4,3.7
	c0.4,0.3,1.2,0.3,1.9,0.3c1.2-0.1,2.1-0.9,2.6-2.3c0.2-0.6,0.2-1.3,0.3-1.8c0.1-3.4-0.8-6.4-3.3-8.8c-5.4-5.4-10.8-10.9-16.2-16.4
	C599.5,515.3,351.9,267.8,104.4,20.2c-5-5-9.9-10-15-14.9c-1.4-1.3-2.8-2.7-4.3-3.8c-2.7-2.1-5.8-2.4-9.1-1.7C75.5,0,75,0.5,74.6,1
	c-0.8,0.9-1.1,2.4-0.2,3.4C79.1,9.6,84,14.7,88.9,19.7z M232.4,19c204.9,205,409.8,409.9,614.8,614.8c4.1,4.1,8.2,8.1,12.3,12.1
	c0.9,0.8,2.1,1.3,3.2,1.9c1.5,0.8,2.4,0.2,3-1.4c1.6-4,0.8-7.6-1.9-10.7c-3.8-4.3-8-8.3-12-12.4c-202.7-202.7-405.3-405.3-608-608
	c-4.1-4.1-8.2-8.1-12.3-12.2c-0.9-0.9-1.9-1.8-3-2.3c-1.7-0.8-3.6-1.2-5.1-1.6c-1.6,0.4-2.8,0.7-4,1.1c-1.4,0.5-1.9,1.7-1.1,3.1
	C221.7,9.8,227.4,14.1,232.4,19z M447.5,18.3c133.4,133.4,266.8,266.8,400.2,400.2c3.6,3.6,7.2,7.2,10.9,10.8c0.9,0.9,1.9,1.7,3,2.4
	c0.5,0.3,1.2,0.3,1.9,0.3c1.2,0,2.2-0.8,2.6-2.2c0.8-3.2,0.6-6.5-1.7-9.1c-4.7-5.2-9.7-10.2-14.7-15.1
	C720,275.8,590.2,146,460.4,16.2c-3.6-3.6-7.2-7.3-10.9-10.8c-1.4-1.3-2.8-2.6-4.3-3.8c-2.1-1.6-4.5-2.2-7.3-2
	c-0.5,0.1-1.2,0.1-1.7,0.3c-0.6,0.2-1.1,0.6-1.5,1.1c-0.8,0.9-1.1,2.4-0.3,3.4C438.7,9.1,443,13.8,447.5,18.3z M656.5,11.2
	C722.9,77.6,789.3,144,855.7,210.4c1.4,1.4,2.7,2.7,4.2,4c0.5,0.4,1,0.8,1.5,1.1c1.2,0.6,2.4,0.7,3.5,0.1c1.2-0.7,1.7-1.9,1.6-3.4
	c0.3-3.2-0.5-6.2-2.9-8.6c-3.6-3.7-7.1-7.3-10.7-10.9C793.1,132.9,733.5,73.3,673.9,13.7c-3.6-3.6-7.3-7.2-10.9-10.7
	c-0.9-0.9-2-1.6-3-2.3c-2-1.5-6.8-1.5-9,0c-1.1,0.8-1.5,2.2-0.7,3.3C652.1,6.5,654.2,9,656.5,11.2z M798.8,9.5
	c19.3,19.3,38.6,38.6,57.9,57.9c1.3,1.3,2.7,2.7,4.3,3.7c1,0.6,2.6,1.2,3.5,0.8c0.9-0.4,1.2-2.1,1.7-3.2c0.2-0.6,0.2-1.2,0.3-2.4
	c-0.4-1.3-0.9-3.2-1.7-4.9c-0.5-1.1-1.4-2.1-2.3-3C844.2,40,825.8,21.6,807.3,3.2c-0.9-0.9-1.9-1.7-3-2.3c-2.9-1.5-5.9-2.1-9-0.5
	c-1.3,0.7-1.7,1.6-1.1,3.1C795.1,6,797,7.7,798.8,9.5z M728.6,11.3c42.4,42.4,84.8,84.8,127.2,127.2c1.8,1.8,3.7,3.5,5.7,5
	c1.1,0.8,2.4,0.7,3.4,0c0.5-0.3,1-0.9,1.1-1.5c1-4,0.2-7.6-2.6-10.6c-1.3-1.4-2.6-2.8-4-4.1C819.3,87.1,779.2,47,739,6.9
	c-1.8-1.8-3.7-3.6-5.6-5.2c-2-1.7-4.5-2.3-6.9-2.2c-1.6,0-2.8,0.4-3.7,1.3c-0.9,0.8-1.4,2.2-0.5,3.3C724.2,6.6,726.3,9,728.6,11.3z
	 M520.6,19.3c99,99,198,198,297,297c12.2,12.2,24.4,24.4,36.6,36.6c2.3,2.3,4.7,4.3,7,6.5c1.3,1.2,4.3,0.5,4.6-1.2
	c0.2-1.2,0.4-2.5,0.7-4.3c-0.5-1.3-0.8-3.5-1.9-4.8c-3.8-4.3-7.8-8.5-11.8-12.5C745.2,229,637.6,121.4,530,13.8
	c-3.6-3.6-7.2-7.2-10.9-10.8c-0.9-0.9-2-1.7-3.1-2.2c-3-1.5-6-2-9-0.1c-1.1,0.7-1.6,2-0.8,3.2C510.1,9.9,515.7,14.3,520.6,19.3z
	 M593.5,20.2c75.1,75.1,150.2,150.2,225.3,225.3c11.8,11.8,23.5,23.5,35.3,35.3c2.3,2.2,4.7,4.3,7.1,6.5c1.3,1.1,4.2,0.3,4.7-1.2
	c1.1-3.3,0.9-6.5-1.3-9c-4.2-4.8-8.7-9.3-13.2-13.9C768.5,180.2,685.7,97.5,602.9,14.7c-3.2-3.2-6.3-6.3-9.5-9.5
	c-1.4-1.3-2.8-2.7-4.3-3.8c-2.1-1.5-4.6-2.4-7.3-1.7c-1.1,0.3-2.7,0.8-3.2,1.7c-0.5,0.8-0.3,2.7,0.4,3.5
	C583.7,10.1,588.5,15.2,593.5,20.2z M355.5,847.3C242.7,734.5,130,621.8,17.2,509c-3.6-3.6-7.3-7.1-10.9-10.7
	c-2.5-2.5-5.5-2.9-8.8-2.2c0,5.1,0,10.2,0,15.4c3.3-1.3,6.3-0.7,8.8,1.7c4.6,4.4,9.2,8.9,13.7,13.4
	c82.1,82.1,164.1,164.1,246.2,246.2c25.7,25.7,51.4,51.4,77.1,77.1c3.2,3.2,6.3,6.3,9.2,9.7c1.2,1.4,1.5,3.4,2.2,5.2
	c5.1,0,10.2,0,15.4,0c-0.6-2.5-2-4.7-3.7-6.6C362.7,854.5,359.1,850.9,355.5,847.3z M715.8,847.6C482.9,614.7,250,381.8,17.1,149
	c-3.6-3.6-7.3-7.1-10.9-10.8c-2.5-2.5-5.5-3-8.8-3c0,5.1,0,10.2,0,15.4c3.3-0.3,6.3,0.2,8.8,2.6c4.1,4.1,8.2,8.1,12.3,12.1
	C245,391.8,471.5,618.3,698,844.7c4.1,4.1,8.1,8.2,12.2,12.2c2.3,2.3,4.1,4.9,5.4,7.8c5.1,0,10.2,0,15.4,0c-2.1-3.2-4.1-6.4-7-9.1
	C721.1,853.1,718.5,850.3,715.8,847.6z M643.4,847.3C434.7,638.5,226,429.8,17.2,221.1c-3.6-3.6-7.3-7.2-11-10.7
	c-2.5-2.5-5.5-2.9-8.8-2.2c0,5.1,0,10.2,0,15.4c3.3-1.3,6.3-0.7,8.8,1.8c5.1,4.9,10.1,9.8,15.1,14.8
	c201.5,201.5,403,403,604.4,604.4c3.6,3.6,7.2,7.2,10.8,10.9c1.3,1.4,2.8,2.7,3.8,4.3c1,1.6,1.5,3.5,2.2,5.2c5.1,0,10.2,0,15.4,0
	c-0.6-2.5-2-4.7-3.7-6.6C650.7,854.5,647.1,850.9,643.4,847.3z M568.5,844.3C386,661.8,203.4,479.2,20.8,296.6
	c-3.2-3.2-6.5-6.2-9.5-9.5c-3.9-4.4-8.8-7.3-14-9.8c0,5.1,0,10.2,0,15.4c3.7,1.2,7.2,2.6,9.9,5.5c4,4.1,8.1,8.1,12.2,12.2
	c177.5,177.5,355.1,355.1,532.6,532.6c4.1,4.1,8.1,8.1,12.2,12.2c1.3,1.4,2.7,2.8,3.8,4.3c1.2,1.6,1.6,3.4,1.4,5.4
	c5.1,0,10.2,0,15.4,0c0-2-0.5-3.9-1.8-5.3C578.4,854.4,573.5,849.3,568.5,844.3z M849.3,837.1C575.8,563.6,302.4,290.1,28.9,16.7
	C25.3,13.1,21.7,9.4,18,5.9c-1.4-1.3-2.8-2.6-4.3-3.9c-2-1.7-4.5-2.4-7-2.7C3.5-1,0.3-0.9-2.6,0.8c0,1.3,0,2.6,0,3.8
	c3.7,1.2,7.2,2.6,10,5.5c4,4.1,8.2,8.1,12.2,12.2c274,274,548,548,822,821.9c3.6,3.6,7.2,7.2,10.8,10.9c1.3,1.4,2.7,2.8,3.8,4.3
	c1.2,1.6,1.6,3.4,1.4,5.4c2.6,0,5.1,0,7.7,0c2.4-5.3,1.4-10-2.5-14.1C858.3,846.1,853.8,841.6,849.3,837.1z M785.8,845.6
	c-106.6-106.7-213.3-213.3-320-320C317.1,376.9,168.4,228.2,19.7,79.5c-4.5-4.5-9.1-9-13.7-13.4c-2.4-2.4-5.5-3.1-8.6-3.8
	c0,5.1,0,10.2,0,15.4c3.2,0.3,6.3,1,8.7,3.4c5,5,10,9.9,15,14.9c249.7,249.7,499.5,499.5,749.2,749.2c3.2,3.2,6.3,6.4,9.5,9.5
	c3.3,3.1,5.8,6.8,8.6,10.3c3.8,0,7.7,0,11.5,0c0.4-1.9,0.3-4-1-5.4C794.7,854.7,790.3,850.1,785.8,845.6z M281.9,845.7
	c-87.5-87.5-175-175-262.5-262.5c-2.7-2.7-5.6-5.3-8.1-8.1c-3.9-4.4-8.8-7.2-13.9-9.8c0,5.1,0,10.2,0,15.4c3.6,1.2,7.2,2.6,9.9,5.4
	c3.5,3.7,7.2,7.2,10.8,10.8c37,37,73.9,73.9,110.9,110.9c46.4,46.4,92.8,92.8,139.3,139.3c4.1,4.1,8,8.2,11.9,12.4
	c1.3,1.4,1.6,3.4,1.4,5.4c5.1,0,10.2,0,15.4,0c0-2-0.5-3.9-1.8-5.3C290.9,854.8,286.4,850.2,281.9,845.7z M216.5,852.3
	C148.7,784.5,80.8,716.6,13,648.7c-2.3-2.3-4.6-4.4-6.9-6.7c-2.4-2.3-5.5-3.1-8.6-3.8c0,5.1,0,10.2,0,15.4c3.2,0.3,6.3,1,8.7,3.4
	c2.7,2.7,5.5,5.3,8.2,8C76.1,726.9,138,788.7,199.8,850.5c1.4,1.4,2.7,2.7,4.1,4c3.3,3,5.8,6.7,8.6,10.2c3.8,0,7.7,0,11.5,0
	c0.5-1.9,0.3-3.9-1-5.4C221,856.9,218.8,854.6,216.5,852.3z M500.5,848.3C338.9,686.7,177.3,525,15.6,363.4
	c-3.2-3.2-6.4-6.2-9.6-9.4c-2.4-2.3-5.5-3.1-8.6-3.8c0,5.1,0,10.2,0,15.4c3.2,0.3,6.3,1,8.7,3.4c4.5,4.5,9.1,9,13.6,13.5
	c154.6,154.6,309.3,309.3,463.9,463.9c2.7,2.7,5.4,5.5,8.2,8.1c3.3,3.1,5.8,6.8,8.6,10.3c3.8,0,7.7,0,11.5,0c0.4-1.9,0.3-4-1-5.4
	C507.7,855.6,504.1,851.9,500.5,848.3z M13,720.8c-2.2-2.2-4.6-4.4-6.8-6.7c-2.4-2.5-5.5-3-8.7-2.9c0,5.1,0,10.2,0,15.4
	c3.3-0.3,6.3,0.1,8.8,2.6c2.7,2.7,5.5,5.3,8.2,8c37.7,37.7,75.4,75.4,113.1,113.1c2.7,2.7,5.5,5.3,8,8.2c1.6,1.9,2.7,4.2,4.1,6.4
	c5.1,0,10.2,0,15.4,0c-2.8-5.1-6.9-9.1-11-13.1C100.3,808.1,56.6,764.4,13,720.8z M7.7,787.6c-0.5-0.5-1-0.8-1.4-1.3
	c-2.5-2.5-5.5-2.9-8.9-2.2c0,5.1,0,10.2,0,15.4c3.3-1.3,6.2-0.6,8.8,1.7c1.4,1.3,2.8,2.6,4.2,3.9c16.7,16.7,33.4,33.4,50.1,50.1
	c1.4,1.4,2.8,2.7,3.8,4.3c1,1.6,1.5,3.5,2.2,5.2c5.1,0,10.2,0,15.4,0c-0.9-3.2-2.7-5.7-5-8C53.8,833.7,30.8,810.7,7.7,787.6z
	 M427.8,847.6C290.9,710.7,154,573.8,17.1,436.9c-3.6-3.6-7.3-7.1-10.9-10.8c-2.5-2.5-5.5-3-8.8-3c0,5.1,0,10.2,0,15.4
	c3.3-0.3,6.3,0.1,8.8,2.6c4.1,4.1,8.2,8,12.3,12.1c130.9,130.9,261.9,261.9,392.8,392.8c4.1,4.1,8.2,8,12.1,12.3
	c1.7,1.8,2.7,4.3,4.1,6.4c5.1,0,10.2,0,15.4,0c-2.1-3.2-4.1-6.4-7-9.1C433.1,853.1,430.5,850.3,427.8,847.6z"/>
</svg>
