<?xml version="1.0" encoding="utf-8"?>
<!-- Generator: Adobe Illustrator 22.0.0, SVG Export Plug-In . SVG Version: 6.00 Build 0)  -->
<svg version="1.1" id="Layer_1" xmlns="http://www.w3.org/2000/svg" xmlns:xlink="http://www.w3.org/1999/xlink" x="0px" y="0px"
	 viewBox="0 0 864 864" style="enable-background:new 0 0 864 864;" xml:space="preserve">
<path d="M771.7,147.7c2.5-1.9,5.2-3.7,7.9-5.3c22.7-13.1,45.4-26.2,68.1-39.4c4.4-2.6,8.7-5.4,13-8.1c1.9-1.2,2.3-3.1,2.4-4.9
	c0.3-4.5,0.4-8.9,0.4-13.4c0-19.2,0-38.4,0-57.6c0-6.4,0.3-12.8,0.4-19.2c-5.1,0-10.2,0-15.4,0c1.1,2.4,1.6,4.8,1.6,7.4
	c0.1,12.7,0.1,25.5,0.1,38.2c0,5.7-0.2,11.5-0.2,17.2c-0.1,4.2-2.3,7.1-5.6,9.4c-1.1,0.7-2.2,1.3-3.3,1.9
	c-25.9,15-51.8,30-77.7,44.9c-1.7,1-3.3,1.9-5.1,2.6c-1.8,0.7-3.7,0.9-5.5,0c-1.7-0.9-3.5-1.6-5.1-2.6c-25.9-15-51.8-29.9-77.7-45
	c-2.2-1.3-4.3-2.7-6.3-4.3c-1.5-1.2-2.6-2.8-2.7-4.8c-0.2-4.5-0.4-8.9-0.4-13.4c-0.1-17.2-0.1-34.4-0.2-51.6c-9,0-17.9,0-26.9,0
	c0.1,0.6,0.2,1.3,0.3,1.9c0.8,20.5,0.4,40.9,0.2,61.4c0,3.5-1.6,6.1-4.4,8c-0.5,0.4-1,0.8-1.6,1.1c-1.1,0.7-2.2,1.3-3.3,1.9
	c-24.9,14.4-49.8,28.8-74.8,43.2c-2.8,1.6-5.7,2.9-8.5,4.3c-1.2,0.6-2.5,0.6-3.7,0c-2.3-1.1-4.7-2.1-6.9-3.4
	c-26-15-52.1-30.1-78.1-45.2c-1.6-1-3.3-2-4.7-3.3c-1.4-1.3-2.6-2.8-2.8-4.9c-0.1-1.9-0.4-3.8-0.4-5.7c0-17.9,0-35.8,0-53.8
	c0-1.9,0.3-3.8,0.4-5.7c-9,0-17.9,0-26.9,0c0,18.5,0,36.9,0,55.4c0,3.2-0.2,6.4-0.4,9.5c-0.1,2-1.2,3.5-2.6,4.9
	c-0.9,0.9-1.9,1.7-3,2.4c-28.1,16.2-56.3,32.4-84.4,48.6c-3,1.7-6,1.7-9,0c-1.1-0.6-2.3-1.2-3.4-1.8c-1.1-0.6-2.2-1.3-3.3-1.9
	c-24.3-14-48.5-28-72.8-42c-2.2-1.3-4.3-2.6-6.4-4.1c-2.1-1.5-3.5-3.6-3.9-6.3c-0.1-0.6-0.2-1.3-0.2-1.9c0-19.1,0-38.2,0-57.3
	c0-1.9,0.7-3.7,1.1-5.6c-9,0-17.9,0-26.9,0c-0.9,5.1-0.7,10.2-0.7,15.3c0,14,0,28,0,42.1c0,2.5-0.3,5.1-0.4,7.6
	c-0.1,2.1-1.4,3.5-2.8,4.8c-0.9,0.9-1.9,1.7-3,2.3c-28.1,16.3-56.3,32.5-84.4,48.7c-3,1.7-6,1.7-9,0c-1.7-0.9-3.4-1.8-5-2.7
	c-1.7-0.9-3.3-1.9-4.9-2.9c-22.6-13-45.3-26.1-67.9-39.2c-3.3-1.9-6.5-4-9.5-6.3c-1.5-1.1-2.7-2.7-2.8-4.8
	c-0.1-4.5-0.4-8.9-0.4-13.4c-0.1-13.4,0-26.8,0-40.2c0-3.8,0.1-7.7-0.9-11.4c-3.8,0-7.7,0-11.5,0C0,26,0,52.3,0,78.5
	c0,3.8,0.2,7.7,0.3,11.5c0.1,2.7,1.6,4.8,3.9,6.2c2.7,1.7,5.4,3.4,8.2,5c13.3,7.7,26.6,15.4,39.9,23c10.5,6.1,21.1,12.1,31.6,18.2
	c2.2,1.3,4.5,2.5,6.5,4c2.1,1.6,3.7,3.7,3.9,6.3c0.3,3.2,0.5,6.4,0.5,9.6c0,36.5,0,72.9,0,109.4c0,12.5-0.4,13-11.6,19.5
	c-22.1,12.8-44.3,25.6-66.4,38.4c-3.9,2.2-7.7,4.5-11.6,6.8c-2.9,1.7-4.8,4.1-4.9,7.6c0,2.6-0.2,5.1-0.2,7.7C0,405.5,0,459.2,0,513
	c0,3.2,0.3,6.4,0.4,9.6c0.1,2.1,1.4,3.6,2.9,4.8c2.5,1.9,5.2,3.7,8,5.3c14.4,8.3,28.8,16.6,43.2,24.9c10.5,6.1,21.1,12.1,31.5,18.3
	c2.2,1.3,4.2,2.9,6.1,4.6c0.9,0.8,1.6,2.1,1.8,3.2c0.5,3.1,0.8,6.3,0.8,9.5c0,37.1,0,74.2,0,111.3c0,2.6-0.1,5.1-0.4,7.7
	c-0.3,2.6-1.6,4.9-3.8,6.4c-3.7,2.4-7.5,4.8-11.4,7.1c-22.7,13.1-45.4,26.2-68.1,39.3c-2.8,1.6-5.5,3.3-8,5.3
	c-1.5,1.1-2.6,2.8-2.7,4.9C0.3,777,0,778.9,0,780.8c0,24.3,0,48.6,0,72.9c0,1.3,0.1,2.6,0.2,3.8c0.1,0.6,0.2,1.3,0.3,1.9
	c0.1,2,3,4.2,5.6,4.3c2.6,0.1,5.5-2,5.7-4c0.2-3.2,0.6-6.4,0.7-9.6c0.1-13.4,0-26.9,0.1-40.3c0-3.2,0-6.4,0.6-9.5
	c0.3-1.7,1.7-3.4,2.9-4.8c0.8-1,2-1.6,3.1-2.3c27.7-16,55.4-32,83.1-48c1.1-0.6,2.4-1.1,3.6-1.3c1.2-0.2,2.6-0.4,3.8,0
	c2.4,0.8,4.8,1.9,7,3.1c25.5,14.6,51,29.3,76.5,44c2.2,1.3,4.3,2.8,6.4,4.3c1.6,1.2,2.7,2.9,2.9,4.8c0.4,3.2,0.5,6.4,0.5,9.6
	c0.1,13.4,0,26.9,0.1,40.3c0,3.2,0.4,6.4,0.6,9.6c0.1,1.4,2.4,3.7,3.7,3.9c5.7,0.9,11.4,1,17.1-0.1c1.2-0.2,3.9-2.6,4-3.8
	c0.3-3.2,0.7-6.4,0.7-9.5c0.1-13.4,0-26.9,0.1-40.3c0-3.2,0.2-6.4,0.6-9.6c0.2-1.9,0.9-3.7,2.6-4.9c1.6-1.1,3-2.4,4.7-3.3
	c26.6-15.4,53.1-30.8,79.7-46.1c1.6-0.9,3.5-1.6,5.3-2.1c1.2-0.3,2.6-0.4,3.7,0c2.4,0.9,4.7,1.9,6.9,3.2
	c24.9,14.4,49.9,28.7,74.8,43.2c2.8,1.6,5.4,3.5,8.1,5.2c1.8,1.1,2.5,3,2.7,4.8c0.4,3.8,0.5,7.7,0.5,11.5c0.1,12.8,0,25.6,0.1,38.4
	c0,3.2,0.4,6.4,0.6,9.6c0.1,1.2,2.6,3.6,3.8,3.8c5.7,1,11.4,1,17.1,0c1.2-0.2,4-2.6,4.1-3.6c0.2-3.2,0.6-6.4,0.6-9.6
	c0.1-12.8,0-25.6,0.1-38.4c0-3.8,0.1-7.7,0.4-11.5c0.2-1.9,0.7-3.8,2.5-4.9c2.1-1.4,4.2-3,6.4-4.3c25.5-14.7,50.9-29.4,76.5-44.1
	c2.2-1.3,4.6-2.2,6.9-3.3c1.2-0.6,2.5-0.7,3.7-0.1c2.3,1,4.8,1.9,7,3.2c25.5,14.7,51,29.4,76.4,44.1c2.2,1.3,4.2,2.9,6.4,4.2
	c1.9,1.1,2.5,3,2.6,4.9c0.4,3.8,0.5,7.7,0.5,11.5c0.1,12.8,0,25.6,0.1,38.4c0,3.2,0.4,6.4,0.6,9.6c0.1,1.2,2.6,3.6,3.8,3.9
	c5.7,1.2,11.4,1,17.1,0.2c1.2-0.2,4-2.5,4.1-3.6c0.2-3.2,0.6-6.4,0.6-9.6c0.1-12.8,0-25.6,0.1-38.4c0-3.8,0.1-7.7,0.4-11.5
	c0.2-1.8,0.7-3.7,2.5-4.9c2.1-1.4,4.1-3,6.3-4.3c26-15,52.1-30,78.1-45c1.1-0.6,2.3-1.2,3.4-1.7c2.4-1.1,4.9-1.4,7.4-0.3
	c1.8,0.8,3.5,1.6,5.1,2.5c25.5,14.7,51,29.4,76.4,44.1c2.2,1.3,4.2,2.9,6.4,4.2c1.8,1.1,2.4,3,2.8,4.8c0.4,2.5,0.6,5.1,0.7,7.6
	c0.1,7,0.1,14.1,0.1,21.1c0,7,0,14.1,0,21.1c0,2.6,0.3,5.1,0.3,7.7c0.1,5.2,5,7.6,9.5,5.6c1.2-0.5,2.1-1.2,2.4-2.7
	c0.2-1.2,0.7-2.5,0.7-3.7c0-26.9,0-53.7-0.1-80.6c0-0.6-0.1-1.3-0.3-1.9c-0.5-1.1-1.1-2.3-1.9-3.3c-2.1-2.5-5-3.9-7.8-5.5
	c-22.7-13.1-45.4-26.2-68.1-39.3c-3.9-2.2-7.7-4.6-11.5-6.9c-2.9-1.7-4.8-4.2-4.9-7.7c-0.1-2.6-0.2-5.1-0.3-7.7
	c0-37.1,0-74.2,0-111.3c0-1.9,0.2-3.8,0.1-5.8c-0.1-4.4,2.3-7.1,5.7-9.2c3.8-2.3,7.7-4.5,11.6-6.8c22.1-12.8,44.3-25.6,66.4-38.4
	c2.8-1.6,5.5-3.3,7.9-5.3c1.4-1.1,2.8-2.7,2.8-4.8c0.1-2.6,0.4-5.1,0.4-7.7c0-54.4,0-108.8,0-163.1c0-3.2-0.4-6.4-0.6-9.5
	c-0.1-1.4-0.7-2.5-1.9-3.2c-3.7-2.4-7.4-5.1-11.2-7.3c-23.2-13.5-46.5-26.8-69.8-40.3c-2.8-1.6-5.4-3.4-8-5.2
	c-1.5-1.1-2.7-2.8-3-4.7c-0.4-2.5-0.5-5.1-0.5-7.6c0-37.7,0-75.5,0-113.2c0-2.6,0.2-5.1,0.4-7.7
	C769.2,150.7,770.2,148.9,771.7,147.7z M553,154.5c0.1-3.4,1.4-6.2,4.2-8.1c1-0.7,2.1-1.4,3.2-2c27.1-15.7,54.1-31.3,81.2-46.9
	c1.1-0.6,2.3-1,3.5-1.5c1.9-0.8,3.8-0.4,5.6,0.2c1.2,0.4,2.4,1,3.5,1.6c26.5,15.3,53.1,30.6,79.6,45.9c1.7,1,3.2,2.1,4.8,3.1
	c1.7,1.1,2.6,2.9,2.9,4.7c0.4,3.1,0.7,6.3,0.7,9.5c0.1,18.5,0,37,0,55.5c0,18.5,0,37,0,55.5c0,3.2-0.3,6.4-0.6,9.5
	c-0.2,1.9-1.3,3.6-2.9,4.8c-2.1,1.5-4.2,2.9-6.4,4.2c-25.4,14.7-50.9,29.3-76.3,43.9c-1.7,1-3.3,1.9-5.1,2.6
	c-1.8,0.7-3.7,1.2-5.6,0.3c-1.7-0.8-3.5-1.5-5.2-2.5c-26.5-15.3-53.1-30.6-79.6-46c-1.6-1-3.3-2-4.7-3.3c-1.4-1.3-2.6-2.8-2.7-4.9
	c-0.2-2.5-0.4-5.1-0.4-7.6c0-37.7,0-75.3,0-113C552.8,158.3,552.9,156.4,553,154.5z M337.2,156.9c0-1.9,0.2-3.9,0.7-5.7
	c0.5-1.8,1.2-3.6,3.1-4.6c0.6-0.3,1-0.7,1.6-1.1c1.6-1,3.2-2.1,4.9-3c25.4-14.6,50.9-29.3,76.3-43.9c1.7-0.9,3.3-1.9,5.1-2.5
	c1.8-0.7,3.8-0.8,5.6-0.1c1.8,0.7,3.5,1.6,5.1,2.5c26,14.9,52,29.9,78,44.9c2.2,1.3,4.3,2.7,6.3,4.3c0.9,0.8,1.8,2,1.9,3.2
	c0.5,3.1,0.7,6.3,0.7,9.5c0.1,19.1,0,38.3,0,57.4c0,0,0,0,0,0c0,17.9,0,35.7,0,53.6c0,3.2-0.2,6.4-0.5,9.5c-0.2,2-1.3,3.5-2.7,4.9
	c-0.9,0.9-2,1.6-3.1,2.2c-27.6,16-55.2,32-82.9,47.9c-1.1,0.6-2.3,1.1-3.5,1.4c-1.2,0.2-2.6,0.4-3.7,0.1c-1.8-0.5-3.6-1.3-5.2-2.2
	c-26.5-15.3-53.1-30.6-79.6-45.9c-1.7-1-3.3-2-4.8-3.2c-1.5-1.2-2.5-2.8-2.8-4.8c-0.2-1.3-0.4-2.5-0.4-3.8
	C337.2,237.4,337.1,197.2,337.2,156.9z M120.7,217.1C120.7,217.1,120.7,217.1,120.7,217.1c0-18.5,0-37,0-55.6c0-3.2,0-6.4,0.6-9.5
	c0.3-1.7,1.6-3.5,2.9-4.8c1.3-1.3,3.1-2.3,4.7-3.2c26-15,52-30,78-45c2.2-1.3,4.5-2.3,6.9-3.2c1.1-0.4,2.6-0.3,3.7,0.1
	c1.8,0.5,3.6,1.3,5.2,2.2c10,5.7,19.9,11.4,29.9,17.2c15.5,8.9,31,17.9,46.4,26.8c2.7,1.6,5.4,3.4,8,5.2c1.6,1.1,2.5,2.9,3,4.8
	c0.3,1.2,0.4,2.5,0.4,3.8c0,40.2,0,80.5,0,120.7c0,1.3-0.2,2.5-0.3,3.8c-0.1,2.1-1.2,3.6-2.6,5c-1.3,1.3-2.9,2.4-4.6,3.4
	c-26.5,15.4-53.1,30.7-79.6,46c-1.7,1-3.4,1.7-5.1,2.5c-1.9,0.9-3.8,0.5-5.6,0c-1.2-0.4-2.4-1-3.5-1.6c-27.7-16-55.3-31.9-82.9-47.9
	c-0.6-0.3-1.2-0.6-1.6-1c-1.8-1.8-3.5-3.8-3.7-6.5c-0.2-3.8-0.4-7.6-0.4-11.5C120.7,251.6,120.7,234.3,120.7,217.1z M113.6,551.9
	c-1.1,0.6-2.3,1.1-3.6,1.4c-1.9,0.5-3.8,0.5-5.6-0.3c-1.2-0.5-2.4-0.9-3.5-1.5c-27.1-15.7-54.2-31.3-81.3-47
	c-1.6-0.9-3.1-2.2-4.5-3.5c-0.9-0.9-1.5-2.1-1.9-3.3c-0.4-1.2-0.6-2.5-0.6-3.7c-0.1-5.1-0.2-10.2-0.2-15.3c0-30.7,0-61.3,0-92
	c0-5.7,0.1-11.5,0.3-17.2c0.1-2.7,1.6-4.9,3.8-6.3c3.1-2.2,6.4-4.2,9.7-6.1c23.2-13.4,46.5-26.8,69.7-40.2c2.8-1.6,5.6-3.1,8.4-4.6
	c1.8-1,3.7-0.8,5.6-0.3c0.6,0.2,1.2,0.4,1.8,0.7c0.6,0.3,1.1,0.6,1.7,0.9c27.7,16,55.3,31.9,83,47.9c1.1,0.6,2.1,1.4,3,2.3
	c1.3,1.4,2.8,2.7,2.8,4.8c0.2,4.5,0.4,8.9,0.5,13.4c0.1,17.3,0,34.5,0,51.8c0,0,0,0,0,0c0,17.9,0,35.8,0,53.7c0,3.2-0.1,6.4-0.5,9.6
	c-0.2,1.9-1.1,3.7-2.7,4.9c-1.5,1.2-3,2.4-4.7,3.3C167.8,520.6,140.7,536.3,113.6,551.9z M310.7,698.1c0,4.5-0.2,8.9-0.2,13.4
	c-0.1,3.5-2,5.9-4.9,7.7c-1.6,1-3.2,2.1-4.9,3c-25.4,14.7-50.9,29.4-76.3,44.1c-2.2,1.3-4.5,2.4-6.9,3.2c-1.1,0.4-2.6,0.4-3.7,0
	c-2.4-0.9-4.7-2-6.9-3.2c-25.5-14.7-50.9-29.4-76.3-44.1c-2.2-1.3-4.4-2.7-6.3-4.3c-1.5-1.2-2.6-2.8-2.9-4.8
	c-0.2-1.9-0.6-3.8-0.6-5.7c0-39,0-78,0-116.9c0-1.3,0.1-2.6,0.2-3.8c0.1-4.2,2.4-7.1,5.8-9.3c1.6-1,3.3-2,4.9-3
	c24.9-14.4,49.8-28.8,74.7-43.2c2.2-1.3,4.5-2.4,6.9-3.4c1.8-0.7,3.7-0.8,5.5,0.2c3.9,2.1,7.9,4.2,11.8,6.4
	c21.6,12.4,43.1,24.9,64.7,37.4c2.8,1.6,5.6,3.1,8.3,4.8c1.6,1,3.1,2.3,4.6,3.4c1.1,0.8,1.8,1.8,2,3.1c0.3,3.2,0.7,6.4,0.7,9.5
	c0.1,19.2,0,38.3,0,57.5c0,0,0,0,0,0C310.7,666.2,310.8,682.2,310.7,698.1z M327.2,552.9c-2.4,1-5,0.9-7.4-0.2
	c-0.6-0.2-1.2-0.4-1.8-0.7c-27.6-16-55.3-31.9-82.9-47.9c-0.6-0.3-1.1-0.7-1.6-1c-3-1.9-4-4.8-4.3-8.1c-0.2-1.9-0.2-3.8-0.2-5.7
	c0-37.7,0-75.3,0-113c0-2.5,0.1-5.1,0.4-7.6c0.3-2.6,1.7-4.7,3.9-6.3c0.5-0.4,1-0.8,1.5-1.1c28.2-16.3,56.4-32.5,84.6-48.7
	c3-1.7,6.1-1.4,9,0.3c1.6,1,3.4,1.8,5,2.8c11.6,6.7,23.2,13.4,34.8,20.1c13.8,8,27.6,16,41.4,24c2.2,1.3,4.5,2.5,6.1,4.5
	c0.8,1,1.7,2.1,1.9,3.2c0.4,3.1,0.7,6.3,0.7,9.5c0.1,18.5,0,37,0,55.5c0,0,0,0,0,0c0,18.5,0,37,0,55.5c0,3.2-0.1,6.4-0.6,9.5
	c-0.3,1.8-1.2,3.6-3,4.7c-2.7,1.7-5.3,3.5-8.1,5.1c-24.3,14.1-48.6,28.1-73,42.1C331.8,550.7,329.6,551.9,327.2,552.9z M526.4,649.5
	c0,17.9,0,35.8,0,53.7c0,2.6-0.2,5.1-0.1,7.7c0.1,4.4-2.3,7.1-5.7,9.2c-0.5,0.3-1.1,0.7-1.6,1c-26.5,15.3-53,30.7-79.6,46
	c-1.7,1-3.5,1.5-5.2,2.4c-1.9,1-3.7,0.4-5.5-0.3c-1.2-0.4-2.4-0.9-3.5-1.6c-27.1-15.6-54.2-31.3-81.3-46.9c-1.6-0.9-3.2-2.2-4.5-3.6
	c-0.8-0.9-1.5-2.1-1.7-3.3c-0.4-2.5-0.6-5.1-0.6-7.6c0-38.3,0-76.6,0-115c0-2.5,0.3-5.1,0.6-7.6c0.2-2,1.5-3.5,3-4.7
	c1.5-1.2,3.1-2.2,4.8-3.2c26-15,51.9-30.1,77.9-45.1c1.1-0.6,2.3-1.2,3.4-1.8c2.9-1.6,5.9-2.4,9-0.4c1.1,0.7,2.3,1.1,3.4,1.7
	c26.5,15.3,53.1,30.7,79.6,46c1.6,1,3.1,2.2,4.7,3.3c1.6,1.2,2.5,2.9,2.7,4.9c0.3,3.8,0.4,7.7,0.4,11.5
	C526.5,613.7,526.4,631.6,526.4,649.5z M543,552.9c-2.4,1.1-5,0.8-7.4-0.2c-0.6-0.3-1.2-0.4-1.8-0.7c-28.2-16.3-56.3-32.6-84.5-49
	c-1.1-0.6-2-1.6-2.8-2.5c-0.4-0.4-0.6-1.1-0.7-1.7c-1-3.1-0.9-6.3-0.9-9.5c0-19.2,0-38.3,0-57.5c0,0,0,0,0,0c0-17.9,0-35.7,0-53.6
	c0-3.2,0.1-6.4,0.4-9.6c0.2-2.7,1.9-4.6,3.9-6.2c0.5-0.4,1-0.8,1.5-1.1c28.2-16.2,56.4-32.5,84.6-48.7c3.1-1.8,6.1-1.4,9,0.3
	c1.7,0.9,3.4,1.8,5.1,2.7c2.8,1.6,5.5,3.2,8.3,4.8c21.6,12.4,43.1,24.9,64.6,37.3c2.8,1.6,5.5,3.3,8,5.1c2.2,1.5,3.3,3.8,3.5,6.5
	c0.2,1.9,0.2,3.8,0.2,5.7c0,38.3,0,76.6,0,114.9c0,2.5-0.1,5.1-0.5,7.6c-0.3,1.8-1,3.7-2.8,4.8c-2.7,1.6-5.4,3.5-8.1,5.1
	c-23.7,13.8-47.5,27.5-71.3,41.2C548.8,550.2,545.9,551.6,543,552.9z M742.2,706.6c0,2.5-0.3,5.1-0.8,7.6c-0.2,1.2-0.9,2.4-1.8,3.2
	c-1.9,1.7-4,3.2-6.2,4.5c-26,15.1-51.9,30.1-77.9,45.1c-1.7,1-3.4,1.7-5.2,2.4c-1.8,0.7-3.7,0.9-5.5-0.1c-2.8-1.5-5.7-2.9-8.5-4.5
	c-9.4-5.4-18.8-10.8-28.2-16.2c-14.4-8.3-28.8-16.6-43.1-24.9c-3.3-1.9-6.4-4.2-9.6-6.3c-1.2-0.8-1.8-1.8-1.9-3.2
	c-0.2-3.8-0.7-7.6-0.7-11.4c-0.1-18.5,0-37,0-55.6c0-17.2,0-34.5,0-51.7c0-3.8,0.2-7.6,0.5-11.5c0.1-2,1.4-3.5,2.9-4.7
	c1.5-1.2,3.1-2.3,4.7-3.3c26-15,51.9-30.1,77.9-45c2.2-1.3,4.6-2.2,6.9-3.4c1.2-0.6,2.4-0.6,3.7-0.1c1.2,0.5,2.4,0.9,3.5,1.5
	c27.7,15.9,55.3,31.8,83,47.8c1.1,0.6,2,1.6,3,2.4c1.5,1.2,2.5,2.9,2.8,4.8c0.3,1.9,0.5,3.8,0.5,5.7
	C742.2,628.7,742.3,667.6,742.2,706.6z M840.9,359.1c1.7,1,3.3,2,4.9,3.1c2.8,1.9,4.1,4.8,4.4,8.1c0.1,1.9,0.2,3.8,0.2,5.7
	c0,37.7,0,75.3,0,113c0,3.2,0,6.4-1,9.5c-0.4,1.2-1.1,2.4-1.9,3.2c-1.4,1.3-3,2.4-4.6,3.4c-26.5,15.4-53,30.7-79.6,46
	c-0.6,0.3-1.1,0.6-1.7,0.9c-3.6,1.9-7.3,2.3-11,0.3c-1.1-0.6-2.2-1.2-3.3-1.9c-25.4-14.6-50.9-29.3-76.3-44
	c-2.7-1.6-5.3-3.5-7.8-5.5c-0.9-0.7-1.6-2.1-1.8-3.3c-0.4-3.2-0.6-6.4-0.6-9.5c-0.1-18.5,0-37,0-55.5c0,0,0,0,0,0
	c0-19.2,0-38.3,0-57.5c0-2.5,0.2-5.1,0.6-7.6c0.2-1.2,1-2.4,1.8-3.2c1.3-1.3,2.8-2.6,4.5-3.5c27.6-16,55.3-31.9,82.9-47.8
	c1.1-0.6,2.3-1.2,3.5-1.4c1.2-0.2,2.6-0.3,3.7,0.1c1.8,0.6,3.5,1.6,5.1,2.5C788.9,329.1,814.9,344.1,840.9,359.1z"/>
</svg>
