<?xml version="1.0" encoding="utf-8"?>
<!-- Generator: Adobe Illustrator 22.0.0, SVG Export Plug-In . SVG Version: 6.00 Build 0)  -->
<svg version="1.1" id="Layer_1" xmlns="http://www.w3.org/2000/svg" xmlns:xlink="http://www.w3.org/1999/xlink" x="0px" y="0px"
	 viewBox="0 0 864 864" style="enable-background:new 0 0 864 864;" xml:space="preserve">
<path d="M1,250.1c0.3-1.3,1.1-2.1,2.6-2.4c1.9-0.3,3.8-0.7,5.7-0.8c5.8-0.1,11.5-0.1,17.3-0.1c58.8,0,117.7,0,176.5,0
	c76.7,0,153.5,0,230.2,0c134.9,0,269.8,0,404.8,0c7,0,14.1,0.2,21.1,0.5c1.2,0,2.7,0.6,3.4,1.5c0.7,0.8,0.7,2.4,0.6,3.6
	c-0.1,1.6-2.2,3.7-3.7,3.9c-1.9,0.2-3.8,0.6-5.7,0.7c-6.4,0.1-12.8,0.1-19.2,0.1c-268.6,0-537.1,0-805.7,0c-7.7,0-15.3-0.3-23-0.5
	c-1.2,0-2.4-0.8-3.6-1.3C1.2,254.9,0.6,251.6,1,250.1z M1.1,37.8C2,38.7,3,39.6,4.2,40C6,40.5,8,40.6,9.9,40.7
	c6.4,0.1,12.8,0.1,19.2,0.1c133.7,0,267.4,0,401.1,0c135,0,269.9,0,404.9,0c6.4,0,12.8,0,19.2-0.1c1.9,0,3.9-0.3,5.7-0.8
	c1.1-0.3,2.1-1.3,3-2.2c0.3-0.3,0.1-1.2,0-1.9c0-0.6,0.1-1.5-0.2-1.8c-0.9-0.9-1.9-1.8-3.1-2.1c-1.8-0.5-3.8-0.8-5.7-0.9
	c-5.8-0.1-11.5-0.1-17.3-0.1c-269.9,0-539.9,0-809.8,0c-5.8,0-11.5,0-17.3,0.1c-1.9,0-3.9,0.3-5.7,0.9c-1.1,0.4-2.1,1.4-3,2.3
	c-0.3,0.3-0.1,1.2,0,1.9C1,36.6,0.8,37.5,1.1,37.8z M1,324.1c0,0.6-0.1,1.5,0.2,1.8c0.9,0.9,1.9,1.8,3.1,2.1
	c1.8,0.5,3.8,0.7,5.7,0.7c6.4,0.1,12.8,0.1,19.2,0.1c133.7,0,267.4,0,401.1,0c135,0,269.9,0,404.9,0c6.4,0,12.8,0,19.2-0.1
	c1.9,0,3.9-0.3,5.7-0.8c1.1-0.3,2.1-1.4,3-2.3c0.3-0.3,0.1-1.2,0-1.9c0-0.6,0.1-1.4-0.3-1.8c-0.9-0.8-1.9-1.8-3.1-2.1
	c-1.8-0.5-3.8-0.8-5.7-0.9c-5.8-0.1-11.5-0.1-17.3-0.1c-269.9,0-539.9,0-809.8,0c-5.8,0-11.5,0-17.3,0.1c-1.9,0-3.9,0.3-5.7,0.9
	c-1.1,0.4-2.1,1.4-2.9,2.3C0.7,322.5,0.9,323.4,1,324.1z M4.6,184.7c7,0.4,14.1,0.6,21.1,0.6c199.7,0,399.3,0,599,0
	c71,0,142.1,0,213.1,0c6.4,0,12.8-0.1,19.2-0.3c1.2,0,2.4-0.6,3.6-1c1.4-0.4,2.7-2.6,2.8-4.5c0-1.8-1.6-4-3.1-4.2
	c-1.9-0.3-3.8-0.7-5.7-0.8c-5.8-0.1-11.5-0.1-17.3-0.1c-134.4,0-268.8,0-403.2,0c-135,0-270.1,0-405.1,0c-6.4,0-12.8,0-19.2,0.1
	c-1.9,0-3.9,0.1-5.7,0.6c-1.1,0.3-2.1,1.2-2.9,2.1c-0.9,1-0.7,4.6,0.3,5.4C2.4,183.6,3.5,184.7,4.6,184.7z M1.3,398.9
	c0.6,0.9,2.1,1.7,3.2,1.7c7,0.3,14.1,0.5,21.1,0.5c135,0,270,0,405,0c134.4,0,268.7,0,403.1,0c5.8,0,11.5,0,17.3,0
	c1.9,0,3.8,0,5.8-0.2c1.3-0.1,2.5-0.5,3.7-0.7c1.5-0.3,2.2-1.2,2.5-2.5c0.3-1.6-0.2-4.7-1.2-5.2c-1.1-0.6-2.3-1.5-3.4-1.5
	c-7-0.3-14.1-0.6-21.1-0.6c-270,0-540.1,0-810.1,0c-5.8,0-11.5,0-17.3,0.1c-1.9,0-3.8,0.5-5.7,0.7c-1.4,0.2-3.4,2.4-3.5,4.1
	C0.7,396.5,0.7,398,1.3,398.9z M4.6,112.6c7,0.3,14.1,0.5,21.1,0.5c135,0,270,0,405,0c134.4,0,268.7,0,403.1,0c5.8,0,11.5,0,17.3,0
	c1.9,0,3.8,0,5.8-0.2c1.3-0.1,2.5-0.5,3.7-0.8c1.5-0.3,2.2-1.2,2.5-2.5c0.3-1.6-0.2-4.7-1.2-5.2c-1.1-0.6-2.3-1.5-3.4-1.5
	c-7-0.3-14.1-0.6-21.1-0.6c-270,0-540.1,0-810.1,0c-5.8,0-11.5,0-17.3,0.1c-1.9,0-3.8,0.5-5.7,0.7c-1.4,0.2-3.4,2.4-3.5,4.1
	c-0.1,1.2-0.1,2.7,0.6,3.6C2,111.8,3.4,112.5,4.6,112.6z M859.6,823.4c-7-0.2-14-0.5-21.1-0.5c-135.6,0-271.1,0-406.7,0
	c-134.3,0-268.6,0-402.8,0c-6.4,0-12.8,0-19.2,0.1c-1.9,0-3.8,0.3-5.7,0.5c-1.7,0.1-3.4,2.2-3.4,3.9c0.1,2.4,1.2,4.1,2.6,4.5
	c1.9,0.7,3.7,1,5.6,1.1c7,0.1,14.1,0.2,21.1,0.2c267.9,0,535.8,0,803.8,0c6.4,0,12.8,0,19.2-0.1c1.9,0,3.8-0.3,5.7-0.5
	c0.6-0.1,1.1-0.6,1.7-0.8c1.7-0.5,2.5-2,2.6-4.5C863.2,825.6,861.2,823.4,859.6,823.4z M1.3,687c0.7,0.9,2.2,1.5,3.3,1.6
	c7,0.3,14.1,0.5,21.1,0.5c135,0,270,0,405,0c134.4,0,268.7,0,403.1,0c5.8,0,11.5,0,17.3,0c1.9,0,3.8,0,5.8-0.2
	c1.2-0.1,2.5-0.5,3.7-0.8c1.5-0.3,2.1-1.2,2.4-2.5c0.6-2.1-0.1-3.8-1.4-5.2c-0.8-0.8-2.2-1.5-3.4-1.5c-7-0.3-14.1-0.5-21.1-0.5
	c-270,0-540.1,0-810.1,0c-5.8,0-11.5,0-17.3,0.1c-1.9,0-3.8,0.5-5.7,0.8c-1.5,0.2-3.4,2.3-3.4,4.1C0.7,684.6,0.7,686.1,1.3,687z
	 M4.6,472.7c7,0.4,14.1,0.6,21.1,0.6c198.4,0,396.8,0,595.2,0c72.3,0,144.6,0,216.9,0c6.4,0,12.8-0.1,19.2-0.3
	c1.2,0,2.4-0.7,3.6-0.9c1.4-0.3,2.7-2.5,2.8-4.5c0-1.8-1.6-4-3.1-4.2c-1.9-0.3-3.8-0.7-5.7-0.8c-5.8-0.1-11.5-0.1-17.3-0.1
	c-134.4,0-268.8,0-403.2,0c-135,0-270.1,0-405.1,0c-6.4,0-12.8,0-19.2,0.1c-1.9,0-3.9,0.1-5.7,0.6c-1.1,0.3-2.2,1.2-2.9,2.1
	c-0.9,1-0.7,4.5,0.3,5.4C2.3,471.6,3.5,472.7,4.6,472.7z M860.2,751.3c-1.9-0.3-3.8-0.7-5.7-0.8c-5.8-0.1-11.5-0.1-17.3-0.1
	c-134.4,0-268.8,0-403.2,0c-135,0-270.1,0-405.1,0c-6.4,0-12.8,0-19.2,0.1c-1.9,0-3.9,0.1-5.7,0.6c-1.1,0.3-2.1,1.2-2.9,2.1
	c-0.9,1-0.7,4.6,0.3,5.4c0.9,0.8,2,1.9,3.1,2c7,0.4,14.1,0.6,21.1,0.6c199.7,0,399.3,0,599,0c71,0,142.1,0,213.1,0
	c6.4,0,12.8-0.1,19.2-0.3c1.2,0,2.4-0.7,3.6-1c1.4-0.3,2.7-2.5,2.8-4.6C863.4,753.8,861.7,751.6,860.2,751.3z M1,613.5
	c0.8,0.9,1.7,2,2.8,2.4c1.8,0.6,3.8,0.7,5.7,0.8c6.4,0.1,12.8,0.1,19.2,0.1c268.7,0,537.3,0,806,0c5.8,0,11.5,0,17.3,0
	c1.9,0,3.8-0.1,5.7-0.4c1.2-0.2,2.4-0.8,3.5-1.2c1.4-0.6,1.7-1.6,1.8-3c0.1-1.5-0.2-2.4-1.4-3.2c-1.1-0.7-2.1-1.3-3.4-1.5
	c-7-1-14-0.5-21.1-0.5c-135,0-269.9,0-404.9,0c-121.5,0-243.1,0-364.6,0c-16.6,0-33.3,0-49.9,0c-3.8,0-7.7,0.2-11.5,0.5
	c-1.2,0.1-2.4,0.8-3.5,1.3c-1.4,0.6-1.9,1.6-1.8,3C1,612.3,0.7,613.1,1,613.5z M860.2,535.6c-5.7-1.2-11.5-0.7-17.2-0.7
	c-273.7,0-547.4,0-821,0c-5.1,0-10.2,0.1-15.3,0.3c-1.2,0-2.4,0.6-3.7,0.9c-1.4,0.3-1.8,1.3-2.1,2.8c-0.4,2.2,0.7,4.2,2.1,4.8
	c1.2,0.5,2.4,1.1,3.6,1.1c7,0.2,14.1,0.4,21.1,0.4c134.9,0,269.8,0,404.8,0c133.6,0,267.3,0,400.9,0c7,0,14.1,0,21.1-0.2
	c1.9,0,3.7-0.7,5.6-1c1.5-0.3,3.1-2.4,3.2-4.2C863.4,538.1,861.7,535.9,860.2,535.6z"/>
</svg>
