<?xml version="1.0" encoding="utf-8"?>
<!-- Generator: Adobe Illustrator 22.0.0, SVG Export Plug-In . SVG Version: 6.00 Build 0)  -->
<svg version="1.1" id="Layer_1" xmlns="http://www.w3.org/2000/svg" xmlns:xlink="http://www.w3.org/1999/xlink" x="0px" y="0px"
	 viewBox="0 0 864 864" style="enable-background:new 0 0 864 864;" xml:space="preserve">
<path d="M-2.7,521.9c0-6.4,0-12.8,0-19.2c3.3,1.4,6.3,0.8,8.8-1.7c5.1-4.9,10.1-9.8,15-14.7c10.4-10.3,20.8-20.7,31.2-31
	c2.8-2.8,6.4-4.2,10.3-4.4c5.1-0.2,10.2-0.2,15.3-0.3c2.6,0,5.1,0.1,7.6-0.2c4.5-0.4,8.6-1.9,12-5.3c7.2-7.3,14.4-14.5,21.7-21.6
	c1.3-1.3,3-2.4,4.8-3c1.1-0.4,2.7,0.5,3,1.6c0.5,1.8,0.7,3.7,0.8,5.6c0.2,5.7,0.3,11.5,0.5,17.2c0.1,2.2,2.7,4.7,5.1,4.8
	c4.5,0.2,8.9,0.3,13.4,0.6c2.5,0.1,5.1,0.3,7.6,0.5c1.3,0.1,2.4,0.8,3,2c0.5,1.1,0.7,2.5-0.1,3.5c-4.3,4.7-8.6,9.4-13.1,13.9
	c-18.6,18.9-15.9,12.5-16.2,38c0,3.2,0,6.4-0.2,9.6c-0.1,2.6-1.3,4.9-3,6.9c-0.8,1-1.7,1.9-2.6,2.8c-19.4,19.4-38.8,38.8-58.2,58.2
	c-0.4,0.4-0.9,1-1.5,1.2c-1.1,0.4-2.3,0.9-3.5,0.8c-1.5,0-2.3-1.1-2.4-2.5c-1-7.6-0.8-15.3-0.1-22.9c0.2-2.6,1.4-4.9,3.1-6.9
	c2.5-2.9,5.2-5.6,7.9-8.4c6.2-6.4,12.5-12.8,18.6-19.2c1-1,1-2.3,0.5-3.5c-0.5-1.3-1.4-1.9-2.9-1.9c-5.7-0.1-11.5-0.2-17.2-0.3
	c-1.9-0.1-3.8-0.5-5.7-0.6c-1.3-0.1-3.7-2.5-3.8-3.9c-0.3-4.4-0.5-8.9-0.7-13.4c-0.1-3.2,0-6.3-0.8-9.5c-0.4-1.5-1-2.3-2.7-2.2
	c-0.6,0-1.3-0.1-1.7,0.2c-1.6,1.1-3.2,2.2-4.5,3.5c-5.5,5.4-10.8,10.8-16.3,16.2c-2.3,2.2-4.6,4.4-7,6.5c-2,1.8-4.4,2.8-6.9,2.9
	C10.1,522.1,3.7,521.9-2.7,521.9z M16.4,233.9c2.6-0.1,5-1.1,6.9-2.9c2.4-2.1,4.7-4.3,7-6.5c5.5-5.4,10.8-10.8,16.3-16.2
	c1.4-1.3,2.9-2.4,4.5-3.5c0.4-0.3,1.1-0.2,1.7-0.2c1.6-0.1,2.2,0.7,2.7,2.2c0.9,3.1,0.7,6.3,0.8,9.5c0.2,4.5,0.5,8.9,0.7,13.4
	c0.1,1.4,2.5,3.8,3.8,3.9c1.9,0.2,3.8,0.6,5.7,0.6c5.7,0.2,11.5,0.2,17.2,0.3c1.5,0,2.4,0.7,2.9,1.9c0.4,1.2,0.5,2.5-0.5,3.5
	c-6.2,6.4-12.4,12.8-18.6,19.2c-2.7,2.7-5.4,5.5-7.9,8.4c-1.7,1.9-2.9,4.3-3.1,6.9c-0.7,7.6-0.8,15.3,0.1,22.9
	c0.2,1.4,1,2.5,2.4,2.5c1.2,0,2.4-0.4,3.5-0.8c0.6-0.2,1.1-0.7,1.5-1.2c19.4-19.4,38.8-38.8,58.2-58.2c0.9-0.9,1.7-1.9,2.6-2.8
	c1.7-2,2.9-4.2,3-6.9c0.2-3.2,0.2-6.4,0.2-9.6c0.3-25.5-2.4-19.1,16.2-38c4.5-4.5,8.8-9.2,13.1-13.9c0.9-1,0.7-2.4,0.1-3.5
	c-0.6-1.3-1.7-1.9-3-2c-2.5-0.2-5.1-0.4-7.6-0.5c-4.5-0.2-8.9-0.3-13.4-0.6c-2.4-0.1-5-2.6-5.1-4.8c-0.2-5.7-0.3-11.5-0.5-17.2
	c-0.1-1.9-0.3-3.8-0.8-5.6c-0.3-1.1-1.9-2-3-1.6c-1.7,0.6-3.4,1.7-4.8,3c-7.3,7.1-14.6,14.3-21.7,21.6c-3.3,3.4-7.4,4.9-12,5.3
	c-2.5,0.2-5.1,0.1-7.6,0.2c-5.1,0.1-10.2,0.1-15.3,0.3c-4,0.1-7.5,1.6-10.3,4.4c-10.5,10.3-20.8,20.7-31.2,31c-5,4.9-10,9.9-15,14.7
	c-2.5,2.4-5.5,3-8.8,1.7c0,6.4,0,12.8,0,19.2C3.7,233.9,10.1,234.1,16.4,233.9z M136.5,83.3c-0.4,0.5-0.8,1-1.1,1.6
	c-0.8,1.3-0.7,2.5,0.2,3.5c0.4,0.4,0.8,1.1,1.4,1.2c8.2,1.5,16.5,1.4,24.8,0.2c1.8-0.3,3.6-1.3,5.2-2.4c2.1-1.5,3.9-3.3,5.7-5.1
	c6.8-6.7,13.6-13.5,20.5-20.2c0.9-0.9,2.1-1.5,3.2-2c1.1-0.4,3-0.2,3.3,0.9c0.7,2.4,0.8,5,1,7.5c0.3,5.7-0.4,11.5,0.7,17.2
	c0.2,1.2,2.5,3.9,3.7,4c3.2,0.3,6.3,0.6,9.5,0.8c4.5,0.3,8.9-0.3,13.4,0.8c1.5,0.4,2.3,1,2.2,2.6c0,0.6,0.1,1.3-0.2,1.7
	c-2,2.5-4,5-6.2,7.3c-6.2,6.4-12.6,12.7-18.9,19.1c-2.3,2.3-3.9,5.2-4,8.5c-0.3,7.7-0.7,15.3,0.3,23c0.2,1.4,1,2.2,2.6,2.2
	c0.6,0,1.3,0,1.7-0.3c1.1-0.6,2.3-1.3,3.2-2.1c19.5-19.4,39-38.9,58.4-58.3c0.9-0.9,1.8-1.8,2.4-2.9c0.9-1.7,1.8-3.4,2.2-5.3
	c0.5-2.5,0.5-5.1,0.6-7.6c0.2-6.4,0.1-12.8,0.4-19.2c0.2-3.9,1.7-7.4,4.6-10.3c5.9-5.8,11.8-11.8,17.6-17.7c2.2-2.3,4.4-4.6,6.6-7
	c0.4-0.5,0.7-1.1,0.9-1.7c0.2-0.5,0.3-1.2,0.3-1.7c-0.1-1.6-0.9-2.4-2.4-2.5c-7.7-0.3-15.3-0.6-23-1c-1.3-0.1-3.7-2.3-4.1-3.6
	c-1.4-5.1-1.4-10.1,0.8-15c-6.4,0-12.8,0-19.2,0c-4.9,5-9.8,10.1-14.8,15c-2.3,2.3-5.2,3.6-8.6,3.9c-1.9,0.1-3.8,0.2-5.8,0.2
	c-7,0.1-14.1,0.2-21.1,0.3c-2,0-3.7,0.9-5.3,2.1c-2,1.5-4,3.2-5.8,5c-18.1,18.1-36.2,36.2-54.3,54.3
	C138.1,81.4,137.3,82.3,136.5,83.3z M424.5,83.3c-0.4,0.5-0.8,1-1.1,1.6c-0.8,1.3-0.7,2.5,0.2,3.5c0.4,0.4,0.8,1.1,1.4,1.2
	c8.2,1.5,16.5,1.4,24.8,0.2c1.8-0.3,3.6-1.3,5.2-2.4c2.1-1.5,3.9-3.3,5.7-5.1c6.8-6.7,13.6-13.5,20.5-20.2c0.9-0.9,2.1-1.5,3.2-2
	c1.1-0.4,3-0.2,3.3,0.9c0.7,2.4,0.8,5,1,7.5c0.3,5.7-0.4,11.5,0.7,17.2c0.2,1.2,2.5,3.9,3.7,4c3.2,0.3,6.3,0.6,9.5,0.8
	c4.5,0.3,8.9-0.3,13.4,0.8c1.5,0.4,2.3,1,2.2,2.6c0,0.6,0.1,1.3-0.2,1.7c-2,2.5-4,5-6.2,7.3c-6.2,6.4-12.6,12.7-18.9,19.1
	c-2.3,2.3-3.9,5.2-4,8.5c-0.3,7.7-0.7,15.3,0.3,23c0.2,1.4,1,2.2,2.6,2.2c0.6,0,1.3,0,1.7-0.3c1.1-0.6,2.3-1.3,3.2-2.1
	c19.5-19.4,39-38.9,58.4-58.3c0.9-0.9,1.8-1.8,2.4-2.9c0.9-1.7,1.8-3.4,2.2-5.3c0.5-2.5,0.5-5.1,0.6-7.6c0.2-6.4,0.1-12.8,0.4-19.2
	c0.2-3.9,1.7-7.4,4.6-10.3c5.9-5.8,11.8-11.8,17.6-17.7c2.2-2.3,4.4-4.6,6.6-7c0.4-0.5,0.7-1.1,0.9-1.7c0.2-0.5,0.3-1.2,0.3-1.7
	c-0.1-1.6-0.9-2.4-2.4-2.5c-7.7-0.3-15.3-0.6-23-1c-1.4-0.1-3.7-2.2-4.1-3.6c-1.3-5.1-1.4-10.1,0.8-15c-6.4,0-12.8,0-19.2,0
	c-4.9,5-9.8,10.1-14.8,15c-2.3,2.3-5.2,3.6-8.6,3.9c-1.9,0.1-3.8,0.2-5.8,0.2c-7,0.1-14.1,0.2-21.1,0.3c-2,0-3.7,0.9-5.3,2.1
	c-2,1.5-4,3.2-5.8,5c-18.1,18.1-36.2,36.2-54.3,54.3C426.1,81.4,425.3,82.3,424.5,83.3z M152,750.5c1.8-1.8,3.6-3.7,5-5.8
	c0.6-0.9,1-2.5,0.6-3.5c-0.4-1-1.8-2.2-2.8-2.2c-5.7-0.5-11.5-0.5-17.2-0.9c-1.9-0.1-3.8-0.6-5.6-0.9c-1.5-0.2-3.5-2.5-3.6-4
	c-0.2-1.9-0.4-3.8-0.5-5.7c-0.1-5.1-0.2-10.2-0.3-15.3c0-1.4-0.7-2.4-1.6-3.2c-1.1-1-3.5-0.6-5.2,1c-4.6,4.4-9.2,8.9-13.7,13.4
	c-3.7,3.6-7.3,7.2-10.9,10.8c-2.4,2.4-5.4,3.4-8.6,3.8c-2.5,0.4-5.1,0.4-7.6,0.5c-5.8,0.1-11.5,0.1-17.3,0.3
	c-4,0.1-7.6,1.5-10.4,4.3c-10,9.9-20,19.8-29.9,29.7c-5.4,5.4-10.9,10.8-16.4,16.1c-2.5,2.4-5.5,3-8.8,1.7c0,6.4,0,12.8,0,19.2
	c6.4,0,12.8,0.2,19.2,0c2.6-0.1,5-1.1,6.9-2.9c2.4-2.1,4.7-4.3,7-6.6c5.5-5.4,10.8-10.9,16.3-16.2c1.4-1.3,3-2.4,4.5-3.5
	c0.4-0.3,1.2-0.1,1.8-0.1c1.6-0.1,2.2,0.7,2.6,2.3c1,3.8,0.6,7.6,0.8,11.4c0.2,3.8,0.5,7.6,0.7,11.5c0.1,1.3,2.6,3.7,3.9,3.8
	c1.9,0.2,3.8,0.5,5.7,0.6c5.7,0.2,11.5,0.3,17.2,0.4c1.6,0,2.4,0.7,2.7,2.1c0.3,1.2,0.2,2.5-0.7,3.5c-6.7,6.9-13.4,13.7-20.1,20.6
	c-2.2,2.3-4.5,4.6-6.5,7c-1.6,2-2.6,4.4-3,7c-0.4,3.2-0.4,6.4,0.2,9.5c0.3,1.3,2.6,3.4,4.1,3.5c2.5,0.2,5.1,0.4,7.6,0.4
	c3.3,0,6.3-1.1,8.6-3.5c15.4-15.3,30.8-30.7,46.1-46.1c0.9-0.9,1.7-1.9,2.5-2.9c1.1-1.6,2.1-3.2,2.1-5.2c0.1-6.4,0.2-12.8,0.3-19.2
	c0.1-3.2,0.2-6.4,0.4-9.6c0.2-1.9,0.9-3.7,2.2-5.2c1.7-1.9,3.3-3.9,5.1-5.7C141.2,761.4,146.7,756,152,750.5z M711.5,84.6
	c-0.4,0.5-0.5,1.2-0.6,1.8c0,1.3,0.5,2.8,1.6,3c8.2,1.9,16.5,1.4,24.7,0.5c1.8-0.2,3.7-1.2,5.2-2.3c2.1-1.4,3.9-3.2,5.8-5
	c6.4-6.3,12.6-12.6,19-18.9c1.3-1.3,3-2.4,4.5-3.4c0.5-0.3,1.2-0.4,1.7-0.4c1.5,0.1,2.4,0.9,2.5,2.3c0.2,4.5,0.3,8.9,0.5,13.4
	c0.1,3.2,0.3,6.4,0.5,9.5c0.1,2.1,2.8,4.7,5.2,4.8c6.4,0.3,12.7,0.6,19.1,0.9c1.2,0.1,2.7,0.3,3.6,1c0.8,0.7,0.9,2.1,1.3,3.2
	c-4.3,6.4-10.2,11.4-15.6,16.8c-16.1,16.3-14.1,11.6-14.1,35c0,2.5,0.5,5,0.8,7.6c1.1,0.4,2.3,1.5,3.2,1.2c2.5-0.7,4.3-2.6,6.1-4.4
	c18.1-18.1,36.1-36.1,54.2-54.2c1.4-1.4,2.6-2.8,3.9-4.2c1.7-2,2.8-4.4,3-6.9c0.3-4.4,0.3-8.9,0.4-13.4c0.1-4.5,0.1-8.9,0.5-13.4
	c0.2-3.2,1.4-6.2,3.7-8.6c3.9-4.2,7.9-8.3,11.8-12.5c0.8-0.9,1.4-2.2,1.7-3.4c1.2-4.4,1.3-8.9-0.4-13.2c-0.4-1-1.8-2-2.9-2.2
	c-3.1-0.6-6.3-0.7-9.5-1.1c-1.6-0.2-3.7-2.2-4-3.6c-1.3-5.1-1.4-10.1,0.8-14.9c-6.4,0-12.8,0-19.2,0c-4.4,4.6-8.7,9.4-13.2,13.8
	c-3.3,3.2-7.2,5.3-12,5.2c-1.9-0.1-3.8,0-5.7,0.1c-6.4,0.1-12.8,0.2-19.1,0.3c-2,0-3.8,0.8-5.3,2c-2.5,2-4.9,4.1-7.1,6.4
	c-17.6,17.6-35.2,35.2-52.8,52.8C713.9,81.6,712.7,83.1,711.5,84.6z M14.4,666.3c4-0.2,7.5-1.7,10.3-4.5
	c6.4-6.3,12.7-12.6,19.1-18.9c2.3-2.2,4.7-4.3,7.2-6.3c0.4-0.3,1.1-0.3,1.7-0.4c1.6-0.2,2.3,0.5,2.8,2.1c0.9,3.1,0.7,6.3,0.8,9.5
	c0.2,4.5-0.3,8.9,0.7,13.4c0.4,2,3.1,4.7,5.3,4.8c3.2,0.2,6.4,0.3,9.6,0.5c3.8,0.2,7.7,0.3,11.5,0.5c0.6,0,1.2,0.5,1.7,0.8
	c0.9,0.7,1.8,2.3,1.1,3.2c-6.8,9.4-15.8,16.7-23.8,25c-4.3,4.4-6.7,9.2-6.5,15.4c0.1,5.1,0.1,10.2,0.2,15.4c0,1.2,0.2,2.7,0.9,3.7
	c0.7,1.1,2.1,1.4,3.3,1.3c1.3-0.1,2.4-0.8,3.3-1.8c19.9-19.9,39.9-39.8,59.8-59.7c0.5-0.4,0.8-1,1.2-1.5c1.8-1.9,3-4.2,3-6.8
	c0.1-6.4,0.1-12.8,0.3-19.2c0.1-3.2,0.2-6.4,0.5-9.6c0.1-1.2,0.7-2.5,1.4-3.5c1-1.6,2.2-3.1,3.6-4.5c4.9-5,9.9-10,14.9-15
	c3.1-3.2,6.2-6.4,9.3-9.7c1-1,1-2.3,0.7-3.5c-0.4-1.3-1.2-2.1-2.7-2.1c-5.1-0.1-10.2-0.2-15.3-0.3c-2.5-0.1-5.1-0.3-7.6-0.5
	c-1.6-0.1-3.9-2.1-4-3.5c-0.2-1.9-0.6-3.8-0.6-5.7c-0.2-5.8-0.2-11.5-0.3-17.3c0-1.4-0.8-2.4-2-2.9c-1.2-0.5-2.5-0.5-3.6,0.4
	c-1.9,1.6-3.8,3.4-5.6,5.2c-5.5,5.4-10.8,10.9-16.3,16.3c-1.8,1.8-3.8,3.5-5.7,5.1c-2,1.7-4.3,2.8-7,2.9c-8.3,0.2-16.6,0.3-24.9,0.3
	c-4.2,0-7.4,1.7-10.2,4.5c-6.8,6.7-13.6,13.5-20.4,20.3c-8.6,8.6-17.3,17.1-25.9,25.7c-2.4,2.4-5.5,3.1-8.7,3.3c0,6.4,0,12.8,0,19.2
	c1.9-0.4,3.7-1,5.6-1.1C6.8,666.4,10.6,666.5,14.4,666.3z M14.4,378.3c4-0.2,7.5-1.7,10.3-4.5c6.4-6.3,12.7-12.6,19.1-18.9
	c2.3-2.2,4.7-4.3,7.2-6.3c0.4-0.3,1.1-0.3,1.7-0.4c1.6-0.2,2.3,0.5,2.8,2.1c0.9,3.1,0.7,6.3,0.8,9.5c0.2,4.5-0.3,8.9,0.7,13.4
	c0.4,2,3.1,4.7,5.3,4.8c3.2,0.2,6.4,0.3,9.6,0.5c3.8,0.2,7.7,0.3,11.5,0.5c0.6,0,1.2,0.5,1.7,0.8c0.9,0.7,1.8,2.3,1.1,3.2
	c-6.8,9.4-15.8,16.7-23.8,25c-4.3,4.4-6.7,9.2-6.5,15.4c0.1,5.1,0.1,10.2,0.2,15.4c0,1.2,0.2,2.7,0.9,3.7c0.7,1.1,2.1,1.4,3.3,1.3
	c1.3-0.1,2.4-0.8,3.3-1.8c19.9-19.9,39.9-39.8,59.8-59.7c0.5-0.4,0.8-1,1.2-1.5c1.8-1.9,3-4.2,3-6.8c0.1-6.4,0.1-12.8,0.3-19.2
	c0.1-3.2,0.2-6.4,0.5-9.6c0.1-1.2,0.7-2.5,1.4-3.5c1-1.6,2.2-3.1,3.6-4.5c4.9-5,9.9-10,14.9-15c3.1-3.2,6.2-6.4,9.3-9.7
	c1-1,1-2.3,0.7-3.5c-0.4-1.3-1.2-2.1-2.7-2.1c-5.1-0.1-10.2-0.2-15.3-0.3c-2.5-0.1-5.1-0.3-7.6-0.5c-1.6-0.1-3.9-2.1-4-3.5
	c-0.2-1.9-0.6-3.8-0.6-5.7c-0.2-5.8-0.2-11.5-0.3-17.3c0-1.4-0.8-2.4-2-2.9c-1.2-0.5-2.5-0.5-3.6,0.4c-1.9,1.6-3.8,3.4-5.6,5.2
	c-5.5,5.4-10.8,10.9-16.3,16.3c-1.8,1.8-3.8,3.5-5.7,5.1c-2,1.7-4.3,2.8-7,2.9c-8.3,0.2-16.6,0.3-24.9,0.3c-4.2,0-7.4,1.7-10.2,4.5
	c-6.8,6.7-13.6,13.5-20.4,20.3c-8.6,8.6-17.3,17.1-25.9,25.7c-2.4,2.4-5.5,3.1-8.7,3.3c0,6.4,0,12.8,0,19.2c1.9-0.4,3.7-1,5.6-1.1
	C6.8,378.4,10.6,378.5,14.4,378.3z M280.1,84c-0.7,0.9-0.9,2.3-1,3.4c-0.1,1.2,2.5,2.8,4.5,2.8c4.5,0.1,8.9,0,13.4,0.3
	c7.5,0.4,13.7-1.8,18.9-7.4c6.1-6.6,12.6-12.7,18.9-19c1.4-1.3,2.9-2.5,4.5-3.6c0.4-0.3,1.2-0.2,1.8-0.2c1.4-0.1,2.3,0.7,2.6,2.2
	c1.1,4.4,0.5,8.9,0.8,13.3c0.2,3.2,0.5,6.3,0.8,9.5c0.1,1.4,2.3,3.9,3.6,4.1c1.2,0.3,2.5,0.7,3.7,0.8c6.4,0.3,12.8,0.5,19.1,0.8
	c0.6,0,1.2,0.5,1.7,0.9c0.9,0.8,1.7,2.3,1,3.3c-6.4,8.8-14.7,15.9-22.5,23.5c-5.4,5.3-8.3,11.1-7.8,18.7c0.3,4.5,0.1,8.9,0.3,13.4
	c0,1.2,0.2,2.7,0.9,3.7c0.7,1.1,2.1,1.5,3.3,1.3c2.1-0.2,3.4-1.7,4.7-3.1c19-18.9,38-37.9,57-56.9c0.5-0.5,0.9-0.9,1.3-1.4
	c2.7-2.9,4.7-6,4.5-10.2c-0.1-3.8,0-7.7,0.1-11.5c0.1-4.5,0.1-8.9,0.2-13.4c0.1-2.6,0.9-5,2.6-7c1.6-1.9,3.4-3.9,5.1-5.7
	c4.9-5,10-9.9,14.9-14.9c2.2-2.3,4.4-4.6,6.6-7c0.9-1,1.1-2.3,0.9-3.5c-0.2-1.4-1-2.3-2.5-2.3c-6.4-0.2-12.8-0.3-19.1-0.5
	c-1.9-0.1-3.8-0.3-5.6-0.9c-1-0.4-2.1-1.6-2.4-2.7c-1.4-5-0.6-10.2-0.9-15.2c-6.4,0-12.8,0-19.2,0c-0.2,0.6-0.2,1.3-0.6,1.8
	c-3.5,5.4-8.3,9.6-13.1,13.8c-2.5,2.2-5.4,3.3-8.7,3.4c-8.3,0.1-16.6,0.2-24.9,0.3c-2.6,0-5,0.9-7,2.7c-1.9,1.7-3.8,3.4-5.6,5.2
	c-4.1,4-8.2,8.1-12.2,12.2c-12.7,12.7-25.3,25.3-37.9,38C284.3,79.2,282.1,81.5,280.1,84z M568.1,84c-0.7,0.9-0.9,2.3-1,3.4
	c-0.1,1.2,2.5,2.8,4.5,2.8c4.5,0.1,8.9,0,13.4,0.3c7.5,0.4,13.7-1.8,18.9-7.4c6.1-6.6,12.6-12.7,18.9-19c1.4-1.3,2.9-2.5,4.5-3.6
	c0.4-0.3,1.2-0.2,1.8-0.2c1.4-0.1,2.3,0.7,2.6,2.2c1.1,4.4,0.5,8.9,0.8,13.3c0.2,3.2,0.5,6.3,0.8,9.5c0.1,1.4,2.3,3.9,3.6,4.1
	c1.2,0.3,2.5,0.7,3.7,0.8c6.4,0.3,12.8,0.5,19.1,0.8c0.6,0,1.2,0.5,1.7,0.9c0.9,0.8,1.7,2.3,1,3.3c-6.4,8.8-14.7,15.9-22.5,23.5
	c-5.4,5.3-8.3,11.1-7.8,18.7c0.3,4.5,0.1,8.9,0.3,13.4c0,1.2,0.2,2.7,0.9,3.7c0.7,1.1,2.1,1.5,3.3,1.3c2.1-0.2,3.4-1.7,4.7-3.1
	c19-18.9,38-37.9,57-56.9c0.5-0.5,0.9-0.9,1.3-1.4c2.7-2.9,4.7-6,4.5-10.2c-0.1-3.8,0-7.7,0.1-11.5c0.1-4.5,0.1-8.9,0.2-13.4
	c0.1-2.6,0.9-5,2.6-7c1.6-1.9,3.4-3.9,5.1-5.7c4.9-5,10-9.9,14.9-14.9c2.2-2.3,4.4-4.6,6.6-7c0.9-1,1.1-2.3,0.9-3.5
	c-0.2-1.4-1-2.3-2.5-2.3c-6.4-0.2-12.8-0.3-19.1-0.5c-1.9-0.1-3.8-0.3-5.6-0.9c-1-0.4-2.1-1.6-2.4-2.7c-1.4-5-0.6-10.2-0.9-15.2
	c-6.4,0-12.8,0-19.2,0c-0.2,0.6-0.2,1.3-0.6,1.8c-3.5,5.4-8.3,9.6-13.1,13.8c-2.5,2.2-5.4,3.3-8.7,3.4c-8.3,0.1-16.6,0.2-24.9,0.3
	c-2.6,0-5,0.9-7,2.7c-1.9,1.7-3.8,3.4-5.6,5.2c-4.1,4-8.2,8.1-12.2,12.2c-12.7,12.7-25.3,25.3-37.9,38
	C572.3,79.2,570.1,81.5,568.1,84z M16.3,90.1c2.6-0.2,5.1-1.3,7-3c4.7-4.3,9.2-8.9,13.8-13.3c4.6-4.4,8.7-9.4,14-13.1
	c0.8-0.6,2.4-0.2,3.6,0c0.4,0.1,0.8,1,0.9,1.6c0.4,2.5,0.7,5,0.9,7.6C56.6,74.9,56,80,57,85.1c0.4,2,3.1,4.7,5.3,4.9
	c1.3,0.1,2.5,0.4,3.8,0.4c3.8,0.1,7.7,0.1,11.5,0.2c1.9,0,3.8,0.2,5.7,0.4c1.4,0.2,2.3,1.1,2.8,2.2c0.6,1.3,0.4,2.5-0.7,3.5
	c-8,8.2-16,16.5-24.1,24.7c-3.3,3.3-5.2,7.3-5.2,12c-0.1,5.8,0,11.5,0.1,17.3c0,1.3,0.2,2.7,0.8,3.7c0.6,0.8,2,1.3,3.2,1.5
	c1.3,0.2,2.4-0.7,3.3-1.7c19.9-19.9,39.8-39.7,59.8-59.6c0.5-0.4,0.8-1,1.2-1.5c2.4-2.4,3.3-5.4,3.3-8.7c0-3.2,0.1-6.4,0.1-9.6
	c0-4.5,0.1-9,0-13.4c-0.1-4.8,1.9-8.6,5.2-11.9c1.4-1.3,2.7-2.7,4-4.1c5-5,10-9.9,14.9-14.9c1.8-1.8,3.6-3.7,5.3-5.6
	c0.9-1,1.1-2.3,1-3.5c-0.2-1.4-1-2.3-2.5-2.3c-6.4-0.2-12.8-0.3-19.1-0.5c-1.9-0.1-3.8-0.3-5.6-0.9c-1-0.4-2.1-1.6-2.4-2.7
	c-1.5-5-0.6-10.2-0.9-15.3c-6.4,0-12.8,0-19.2,0c-0.5,1.1-0.7,2.5-1.5,3.4c-3.4,3.7-6.9,7.4-10.6,10.9c-3.3,3.2-7.3,4.8-12,4.8
	c-7.6-0.1-15.2,0.1-22.8,0.1c-3.3,0-6.1,1.4-8.5,3.6c-4.1,4-8.2,7.9-12.2,12C29.3,46.1,17.6,57.7,6,69.3c-2.4,2.4-5.4,3-8.7,3.3
	c0,6.4,0,12.8,0,19.2c2.4-0.9,4.9-1.2,7.5-1.2C8.7,90.5,12.5,90.4,16.3,90.1z M14.3,167.1c0.8-1.3-0.7-3.6-2.4-4.1
	c-4.8-1.3-10,0.3-14.6-2c0,6.4,0,12.8,0,19.2c1.8-0.4,3.8-0.5,5.3-1.4C7.5,175.8,11.4,171.9,14.3,167.1z M14.3,743.1
	c0.8-1.4-0.7-3.6-2.4-4.1c-4.8-1.3-10,0.3-14.6-2c0,6.4,0,12.8,0,19.2c1.8-0.4,3.8-0.5,5.3-1.4C7.5,751.8,11.4,747.9,14.3,743.1z
	 M14.3,455.1c0.8-1.4-0.7-3.6-2.4-4.1c-4.8-1.3-10,0.3-14.6-2c0,6.4,0,12.8,0,19.2c1.8-0.4,3.8-0.5,5.3-1.4
	C7.5,463.8,11.4,459.9,14.3,455.1z M56.4,8.9c0.2,1.3,0.9,2.3,2,2.9c1.2,0.6,2.5,0.7,3.5-0.3c4.1-3.9,8.1-7.9,12.2-11.9
	c-6.4,0-12.8,0-19.2,0c0.4,1.8,0.8,3.7,1.1,5.5C56.2,6.4,56.2,7.7,56.4,8.9z M632.4,8.9c0.2,1.3,0.9,2.3,2,2.9
	c1.2,0.6,2.5,0.7,3.5-0.3c4.1-3.9,8.1-7.9,12.2-11.9c-6.4,0-12.8,0-19.2,0c0.4,1.8,0.8,3.7,1.1,5.5C632.2,6.4,632.2,7.7,632.4,8.9z
	 M5.9,608.4c2.6-2.6,5.1-5.3,7.7-8c1-1,1.2-2.1,1-3.4c-0.2-1.2-1-2-2.5-2c-4.9-0.1-9.9-0.1-14.8-0.2c0,5.1,0,10.2,0,15.4
	C0.5,611.1,3.5,610.8,5.9,608.4z M5.9,32.4c2.6-2.6,5.1-5.3,7.7-8c1-1,1.2-2.1,1-3.4c-0.2-1.2-1-2-2.5-2c-4.9-0.1-9.9-0.1-14.8-0.2
	c0,5.1,0,10.2,0,15.4C0.5,35.1,3.5,34.8,5.9,32.4z M344.4,8.9c0.2,1.3,0.9,2.3,2,2.9c1.2,0.6,2.5,0.7,3.5-0.3
	c4.1-3.9,8.1-7.9,12.2-11.9c-6.4,0-12.8,0-19.2,0c0.4,1.8,0.8,3.7,1.1,5.5C344.2,6.4,344.2,7.7,344.4,8.9z M5.9,320.4
	c2.6-2.6,5.1-5.3,7.7-8c1-1,1.2-2.1,1-3.4c-0.2-1.2-1-2-2.5-2c-4.9-0.1-9.9-0.1-14.8-0.2c0,5.1,0,10.2,0,15.4
	C0.5,323.1,3.5,322.8,5.9,320.4z M781.5,11.7c4-2.9,7.4-6.3,10.2-10.3c0.3-0.5,0.4-1.2,0.5-1.7c-5.1,0-10.2,0-15.4,0
	c-0.4,3.6-0.7,7.3,0.3,10.9C777.5,12.1,780,12.8,781.5,11.7z M493.5,11.7c4-2.9,7.4-6.3,10.2-10.3c0.3-0.5,0.4-1.2,0.5-1.7
	c-5.1,0-10.2,0-15.4,0c-0.4,3.6-0.7,7.3,0.3,10.9C489.5,12.1,492,12.8,493.5,11.7z M205.5,11.7c4-2.9,7.4-6.3,10.2-10.3
	c0.3-0.5,0.4-1.2,0.5-1.7c-5.1,0-10.2,0-15.4,0c-0.4,3.6-0.7,7.3,0.3,10.9C201.5,12.1,204,12.8,205.5,11.7z M135.5,372.6
	c-0.4,0.5-0.5,1.2-0.5,1.8c0,1.3,0.5,2.7,1.7,3c8.2,1.9,16.5,1.4,24.7,0.4c1.8-0.2,3.7-1.2,5.2-2.3c2.1-1.5,3.9-3.3,5.8-5
	c6.4-6.3,12.7-12.7,19-18.9c1.3-1.3,3-2.4,4.6-3.4c0.5-0.3,1.2-0.3,1.7-0.3c1.6,0.1,2.4,0.9,2.4,2.4c0.2,4.5,0.3,8.9,0.5,13.4
	c0.1,3.2,0.3,6.4,0.5,9.5c0.1,2.1,2.8,4.6,5.3,4.7c6.4,0.3,12.8,0.5,19.1,0.9c1.2,0.1,2.7,0.3,3.6,1.1c0.7,0.7,1.3,2.5,0.9,3.3
	c-2,4.1-5.6,6.9-8.7,10.1c-5.8,6-11.6,11.8-17.4,17.8c-1.9,1.9-2.8,4.3-3,6.9c-0.3,3.8-0.3,7.7-0.5,11.9c0.2,3.4,0.4,7.2,0.6,11
	c0,0.6,0.1,1.6,0.5,1.8c1,0.5,2.6,1.3,3.3,0.9c2.2-1.2,4.3-2.8,6.1-4.5c18.1-18,36.2-36.1,54.3-54.2c1.4-1.4,2.6-2.8,3.8-4.3
	c1.6-2,2.7-4.4,2.8-7c0.3-5.1,0.2-10.2,0.4-15.3c0.1-3.8,0.1-7.7,0.5-11.5c0.3-3.2,1.5-6.2,3.9-8.5c4.1-4.1,8.1-8.2,12.1-12.3
	c4-4.1,8.1-8.2,12-12.4c0.9-0.9,1.7-2.1,1.9-3.3c0.2-1.3-0.7-2.7-1.8-2.9c-1.8-0.5-3.8-0.7-5.7-0.7c-5.7-0.2-11.5-0.3-17.2-0.4
	c-2.5-0.1-4.9-2.4-5.3-4.7c-1-5.1-0.5-10.2-0.8-15.3c-0.2-2.5-0.5-5-1-7.5c-0.1-0.5-0.8-1-1.3-1.4c-1-0.7-2.3-0.8-3.4,0
	c-2,1.5-4,3.2-5.8,5c-5.9,5.8-11.8,11.7-17.6,17.6c-4.2,4.3-9,6.9-15.3,6.7c-5.1-0.2-10.2-0.1-15.3,0c-2.6,0-5.1,0.1-7.7,0.2
	c-2,0.1-3.8,0.8-5.3,2c-2.5,2-4.9,4.1-7.2,6.4c-17.7,17.6-35.3,35.2-52.9,52.9C137.9,369.6,136.7,371.1,135.5,372.6z M488.5,437.7
	c0,1.3,0.3,2.5,0.5,3.8c0.2,1.4,1,2.2,2.6,2.2c0.6,0,1.3,0,1.7-0.3c8-5.5,14-13,20.8-19.7c13.7-13.5,27.1-27.1,40.7-40.7
	c3.3-3.3,5.1-7.3,5.2-12c0.1-4.5,0-8.9,0.1-13.4c0.1-3.8,0.2-7.7,0.6-11.5c0.2-2.6,1.2-5,2.9-6.9c2.1-2.4,4.4-4.6,6.7-6.9
	c5.4-5.4,10.9-10.8,16.2-16.3c1.3-1.4,2.4-3,3.5-4.5c0.3-0.4,0.5-1.1,0.4-1.7c-0.1-1.5-0.9-2.5-2.3-2.6c-7.6-0.4-15.3-0.7-22.9-1
	c-2.1-0.1-4.7-2.9-4.9-5.2c-0.1-1.3-0.3-2.5-0.3-3.8c-0.1-3.8-0.1-7.7-0.2-11.5c-0.1-1.9-0.1-3.9-0.6-5.7c-0.3-1.1-1.2-2.5-2.1-2.9
	c-0.9-0.4-2.7,0-3.4,0.7c-7,6.6-13.8,13.3-20.7,20c-2.3,2.2-4.6,4.4-7.2,6.3c-1.5,1.1-3.4,1.8-5.2,2.2c-2.5,0.5-5.1,0.5-7.6,0.5
	c-6.4,0.1-12.8,0.1-19.2,0.1c-3.4,0-6.1,1.6-8.6,3.7c-1,0.8-1.9,1.7-2.8,2.6c-19,19-38,38-56.9,57c-0.9,0.9-1.5,2-2.2,3.1
	c-0.3,0.5-0.6,1.3-0.5,1.8c0.3,1.4,1.2,2.4,2.4,2.7c7.6,1.5,15.2,0.9,22.9,0.4c2.6-0.2,5-1.3,7-2.9c2-1.6,3.9-3.3,5.7-5.1
	c6.8-6.7,13.6-13.5,20.5-20.2c0.9-0.9,2.1-1.5,3.3-1.9c1.2-0.4,2.7,0.1,3.2,1.1c1.2,3,0.8,6.3,0.9,9.5c0.2,5.1-0.5,10.2,0.7,15.3
	c0.3,1.2,2.6,3.7,3.9,3.8c3.2,0.3,6.3,0.6,9.5,0.8c4.4,0.3,8.9-0.3,13.3,0.9c1.4,0.4,2.2,1.1,2.1,2.7c0,0.6,0,1.3-0.3,1.7
	c-2,2.5-4,4.9-6.2,7.2c-6.2,6.4-12.6,12.7-18.9,19.1c-2.9,2.9-4.1,6.4-4.1,10.4c0,3.2,0,6.4,0,9.6c0,0,0,0,0,0
	C488.5,432.6,488.5,435.2,488.5,437.7z M201.4,730.4c0.3,0.8,2.2,1.7,3.1,1.4c2.5-0.7,4.3-2.6,6.1-4.4
	c15.4-15.4,30.7-30.7,46.1-46.1c3.6-3.6,7.2-7.2,10.8-10.9c2.8-2.9,4.3-6.3,4.5-10.3c0.1-5.1,0.1-10.2,0.2-15.3
	c0.1-3.2,0.1-6.4,0.4-9.6c0.3-3.2,1.4-6.2,3.7-8.6c2.2-2.3,4.4-4.6,6.7-6.9c5.4-5.4,10.9-10.8,16.2-16.3c1.3-1.4,2.5-3,3.2-4.7
	c0.3-0.8-0.7-2.1-1.2-3.2c-2.5-0.3-5-0.7-7.6-0.8c-5.7-0.3-11.5-0.3-17.2-0.7c-1-0.1-2.4-1.3-2.8-2.3c-0.8-1.7-1.2-3.6-1.4-5.5
	c-0.6-6.3,0.4-12.8-1.1-19.1c-0.1-0.5-0.8-1-1.2-1.4c-0.9-0.9-2.1-1.2-3.4-0.4c-5.4,3.6-9.4,8.6-14,13c-4.2,4-8.1,8.2-12.3,12.1
	c-2.9,2.7-6.3,4.3-10.4,4.3c-7.7,0.1-15.3,0.2-23,0.2c-4.1,0-7.4,1.6-10.3,4.3c-1.4,1.3-2.8,2.6-4.2,4
	c-17.6,17.6-35.2,35.2-52.9,52.9c-0.9,0.9-1.8,1.8-2.6,2.8c-0.4,0.5-0.8,1-1.2,1.5c-0.8,1.2-0.9,2.4-0.5,3.5
	c0.5,1.3,1.4,2.1,2.8,2.2c7,0.8,14,0.6,21,0.2c3.3-0.2,6.2-1.5,8.7-3.6c2-1.6,3.8-3.4,5.6-5.2c5.9-5.8,11.7-11.8,17.7-17.6
	c1.3-1.3,2.9-2.4,4.5-3.5c1.1-0.8,2.4-0.8,3.5,0.2c0.4,0.4,0.9,1,0.9,1.5c0.4,7.6,0.7,15.3,1,22.9c0.1,2.2,2.7,4.8,5.1,5
	c1.9,0.2,3.8,0.5,5.7,0.6c4.5,0.2,8.9,0.2,13.4,0.4c1.2,0.1,2.7,0.3,3.6,1c0.8,0.6,1.1,2.1,1.6,3.1c-5.4,8-13,14.1-19.7,20.9
	c-10.6,10.8-10.2,9.9-10.2,25.4C200.6,721.5,199.9,726.1,201.4,730.4z M488.5,723.8c0,1.3,0.1,2.6,0.2,3.8c0.1,2.5,1.4,4.4,2.9,4.1
	c1.2-0.3,2.6-0.4,3.4-1.2c6.5-6.2,12.9-12.4,19.2-18.7c13.6-13.5,27.1-27.2,40.6-40.7c3.3-3.3,5.1-7.3,5.2-12
	c0.1-4.5,0-8.9,0.1-13.4c0.1-3.8,0.2-7.7,0.6-11.5c0.2-2.6,1.2-5,2.9-7c1.7-1.9,3.5-3.7,5.3-5.5c5.9-5.9,11.8-11.7,17.6-17.7
	c1.3-1.4,2.4-3,3.5-4.5c0.3-0.5,0.5-1.1,0.5-1.7c-0.1-1.5-0.9-2.5-2.2-2.6c-7.6-0.4-15.3-0.7-22.9-1c-2.1-0.1-4.7-2.9-4.9-5.2
	c-0.1-1.3-0.3-2.5-0.4-3.8c-0.1-3.8-0.1-7.7-0.2-11.5c-0.1-1.9-0.1-3.9-0.6-5.7c-0.3-1.1-1.1-2.5-2.1-2.9c-0.9-0.4-2.7,0-3.4,0.7
	c-7,6.6-13.8,13.3-20.7,20c-2.3,2.2-4.6,4.4-7.2,6.3c-1.5,1.1-3.4,1.9-5.2,2.2c-2.5,0.5-5.1,0.5-7.6,0.5c-6.4,0.1-12.8,0.1-19.2,0.1
	c-3.4,0-6.1,1.5-8.6,3.7c-1.4,1.3-2.9,2.6-4.2,3.9c-18.1,18.1-36.2,36.1-54.2,54.3c-1.3,1.3-2.4,2.9-3.5,4.5
	c-0.3,0.5-0.6,1.3-0.5,1.8c0.3,1.3,1.2,2.4,2.4,2.7c7.6,1.5,15.2,0.9,22.9,0.4c2.6-0.2,5-1.3,7-2.9c2-1.6,3.9-3.3,5.7-5.1
	c6.8-6.7,13.6-13.5,20.5-20.2c0.9-0.9,2.1-1.5,3.2-1.9c1.2-0.4,2.9,0.1,3.2,1.1c0.6,2.4,0.8,5,0.9,7.6c0.3,5.7-0.4,11.5,0.7,17.2
	c0.3,1.2,2.6,3.8,3.8,3.9c3.2,0.3,6.3,0.6,9.5,0.8c4.4,0.3,8.9-0.3,13.3,0.9c1.4,0.4,2.2,1.1,2.1,2.7c0,0.6,0,1.3-0.3,1.7
	c-2,2.5-4,5-6.2,7.2c-6.2,6.4-12.6,12.7-18.9,19.1c-2.9,2.9-4.1,6.4-4.1,10.4c0,3.2,0,6.4,0,9.6c0,0,0,0-0.1,0
	C488.5,719.9,488.4,721.9,488.5,723.8z M643.5,547.1c-2.7,2.8-5.4,5.5-7.9,8.4c-1.7,1.9-2.9,4.3-3.1,6.9c-0.6,7.6-0.9,15.3,0.2,22.9
	c0.2,1.4,1,2.3,2.5,2.6c0.6,0.1,1.3,0.1,1.8-0.2c1.6-1,3.3-2,4.6-3.3c18.6-18.5,37.1-37,55.6-55.6c0.9-0.9,1.8-1.8,2.6-2.8
	c0.4-0.5,0.8-1,1.2-1.5c1.7-2,2.8-4.3,2.9-6.9c0.2-8.9,0.3-17.9,0.5-26.8c0.1-2.6,1.1-5,2.9-6.9c4.8-5.1,9.8-10.1,14.7-15.1
	c4-4.1,8.5-7.8,11.6-12.7c0.3-0.5,0.5-1.4,0.3-1.8c-0.5-1.1-1.1-2.6-2-2.9c-6.2-1.7-12.7-0.6-19.1-1.2c-1.9-0.2-3.8-0.5-5.6-1.2
	c-1.1-0.4-2.3-1.6-2.5-2.7c-1.3-6.3-0.5-12.7-0.8-19.1c-0.1-1.9-0.6-3.8-0.9-5.6c-1.2-0.3-2.5-1.1-3.4-0.8c-3.8,1.3-6,4.6-8.8,7.2
	c-6,5.8-11.8,11.7-17.7,17.6c-2.3,2.4-5.2,3.7-8.4,4.3c-1.9,0.4-3.8,0.6-5.7,0.7c-3.8,0.1-7.7,0.1-11.5,0.1c-2.6,0-5.1,0.1-7.7,0.1
	c-4.7,0.1-8.8,1.6-12.1,5c-19.4,19.5-38.9,38.9-58.3,58.4c-0.9,0.9-1.5,2-2.2,3.1c-0.3,0.5-0.4,1.1-0.4,1.7c0,1.6,0.8,2.5,2.2,2.6
	c3.8,0.3,7.6,0.5,8.6,0.6c4.8,0,6.7,0,8.6,0c1.3,0,2.6-0.1,3.8-0.1c4,0,7.5-1.3,10.4-4.1c6.4-6.3,12.7-12.6,19.1-18.9
	c2.3-2.2,4.8-4.2,7.2-6.3c0.4-0.3,1.1-0.3,1.7-0.4c1.6-0.1,2.5,0.6,2.7,2c0.4,2.5,0.8,5,0.9,7.6c0.3,5.1,0.5,10.2,0.8,15.3
	c0.1,1.5,2.3,3.9,3.6,4c1.9,0.2,3.8,0.6,5.7,0.7c5.7,0.2,11.5,0.2,17.3,0.3c1.5,0,2.4,0.7,2.9,1.9c0.5,1.2,0.6,2.5-0.4,3.5
	C655.9,534.3,649.7,540.7,643.5,547.1z M430.8,471.9c4.9-5,9.8-10.1,14.5-15.3c0.6-0.7,0.6-2.4,0.3-3.5c-0.4-1.3-1.6-2-2.9-2.2
	c-1.3-0.2-2.5-0.4-3.8-0.5c-5.7-0.2-11.5-0.4-17.2-0.6c-2.5-0.1-5.1-2.5-5.2-4.8c-0.2-5.1-0.3-10.2-0.5-15.3
	c-0.1-2.5-0.3-5.1-0.8-7.6c-0.2-1.1-1.8-2-3-1.6c-1.7,0.6-3.4,1.7-4.8,3c-7.3,7.1-14.6,14.3-21.8,21.6c-3.3,3.4-7.4,4.8-12,5.3
	c-2.5,0.2-5.1,0.1-7.7,0.2c-5.1,0.1-10.2,0.1-15.3,0.3c-4,0.1-7.4,1.7-10.3,4.4c-0.5,0.4-0.9,0.9-1.4,1.3c-19,19-38,38-56.9,57
	c-0.9,0.9-1.6,2-2.3,3c-0.4,0.5-0.8,1.1-0.8,1.7c0.1,1.4,0.7,2.8,1.8,3c8.2,1.4,16.5,0.9,24.8,0.4c2-0.1,3.7-1,5.2-2.2
	c2.5-2,4.8-4.2,7.1-6.4c5.9-5.8,11.8-11.8,17.7-17.5c1.3-1.3,3-2.5,4.7-3.1c1.2-0.5,2.6,0.4,3,1.5c0.5,1.2,0.9,2.4,0.9,3.7
	c0.2,4.5,0.2,8.9,0.4,13.4c0.1,1.9,0.3,3.8,0.5,5.7c0.2,2.3,2.8,5,5,5.1c5.8,0.1,11.5,0.2,17.3,0.4c1.9,0.1,3.8,0.3,5.7,0.6
	c0.5,0.1,1.1,0.5,1.4,0.9c1,1.1,1,2.4,0.1,3.5c-6.7,8.6-14.9,15.8-22.6,23.4c-5.4,5.3-8.3,11.2-7.7,18.7c0.1,1.3,0,2.6,0,4.1
	c0.2,4.2-0.7,8.8,1.1,13c0.5,1.1,2,1.7,3.2,1.4c1.2-0.3,2.4-0.9,3.3-1.8c19.9-19.8,39.9-39.7,59.7-59.6c0.9-0.9,1.7-1.9,2.4-2.9
	c1.1-1.6,1.9-3.3,2-5.3c0.1-3.8,0.2-7.7,0.2-11.5C416.3,483.6,414.2,488.7,430.8,471.9z M731.5,163.1c-3.2-0.3-6.3-0.6-9.5-0.8
	c-4.5-0.2-8.9,0.2-13.4-0.8c-1.3-0.3-3.9-2.5-4-3.7c-0.1-1.3-0.4-2.5-0.5-3.8c-0.1-4.5-0.1-9-0.2-13.4c0-1.9-0.3-3.8-0.5-5.7
	c-0.1-1.4-1-2.2-2.5-2.4c-0.6,0-1.3,0-1.7,0.3c-1.6,1.1-3.2,2.1-4.6,3.4c-7.3,7.2-14.6,14.4-21.8,21.6c-2.9,2.9-6.5,4-10.4,4.5
	c-3.2,0.4-6.4,0.2-9.6,0.3c-5.1,0.1-10.2,0.1-15.3,0.4c-3.3,0.2-6.1,1.6-8.6,3.8c-1,0.8-1.9,1.7-2.8,2.6c-1.4,1.3-2.7,2.7-4.1,4
	c-15.8,15.8-31.7,31.6-47.5,47.5c-2.3,2.3-4.4,4.6-6.5,7c-0.9,1.1-1,2.2-0.9,3.5c0.1,1.6,0.9,2.2,2.5,2.3c7.7,0.7,15.3,0.5,23,0.1
	c2.6-0.1,5-1.2,6.9-3c1.9-1.7,3.8-3.4,5.6-5.2c4.5-4.5,9-9.1,13.6-13.5c2.3-2.2,4.7-4.4,7-6.5c1.1-1,2.2-1.2,3.4-1
	c1.5,0.2,2.8,1.8,2.9,4.2c0.2,5.1,0.3,10.2,0.5,15.3c0.1,1.9,0.4,3.8,0.7,5.7c0.1,1.2,2.7,3.6,4,3.7c2.5,0.2,5.1,0.5,7.6,0.6
	c5.1,0.2,10.2,0.3,15.3,0.4c1.6,0,2.4,0.7,2.7,2.2c0.2,1.2,0.1,2.5-0.8,3.5c-6.7,6.9-13.4,13.7-20.1,20.6c-2.2,2.3-4.5,4.6-6.5,7.1
	c-1.6,2-2.7,4.4-2.9,7c-0.3,3.2-0.3,6.4-0.5,10c0.5,4-0.5,8.5,0.9,12.9c0.4,1.2,1.3,2.1,2.7,2.3c0.6,0.1,1.3-0.1,1.8-0.5
	c1.5-1.1,3.2-2.2,4.5-3.5c18.6-18.5,37.1-37.1,55.6-55.6c1.4-1.4,2.6-2.8,3.8-4.3c1.7-2,2.6-4.4,2.6-7c0.1-5.8,0.1-11.5,0.1-17.3
	c0-3.2,0.2-6.4,0.3-9.6c0.1-2,0.8-3.8,2-5.3c1.6-2,3.3-3.9,5-5.8c6.3-6.4,12.7-12.7,18.9-19.1c1.3-1.3,2.3-3,3.4-4.6
	C734.5,166.6,732.9,163.3,731.5,163.1z M442.8,163c-6.4-0.4-12.8-0.6-19.1-0.9c-4.8-0.2-7.4-2.5-7.5-6.8c-0.1-4.5-0.1-9-0.2-13.4
	c-0.1-2.5-0.3-5.1-0.8-7.6c-0.2-1.1-1.7-2.2-2.9-1.8c-1.7,0.6-3.5,1.7-4.8,3c-7.3,7.1-14.6,14.3-21.8,21.6c-3.3,3.4-7.4,4.9-12,5.3
	c-2.5,0.2-5.1,0.1-7.7,0.2c-5.8,0.1-11.5,0.1-17.2,0.5c-2.5,0.2-5,1.3-7,2.9c-1.5,1.2-2.9,2.5-4.3,3.8
	c-18.1,18.1-36.2,36.2-54.2,54.3c-1.3,1.3-2.5,2.9-3.7,4.4c-0.4,0.5-1,1.2-0.8,1.7c0.3,1.1,1,2.1,1.6,3.1c8.3,1.3,16.6,0.9,24.8,0.4
	c2-0.1,3.7-1,5.2-2.1c2-1.6,3.9-3.3,5.7-5.1c6.4-6.3,12.7-12.7,19.1-18.9c1.3-1.3,2.9-2.5,4.7-3.2c1.2-0.5,2.6,0.4,3.1,1.4
	c0.5,1.1,0.9,2.4,1,3.7c0.2,4.5,0.2,8.9,0.4,13.4c0.1,1.9,0.3,3.8,0.5,5.7c0.2,2.4,2.7,5.1,4.9,5.2c7.7,0.3,15.3,0.6,23,0.9
	c0.5,0,1.1,0.4,1.5,0.9c1,1.1,1.1,2.4,0.2,3.5c-1.1,1.5-2.2,3.1-3.5,4.5c-7.2,7.3-14.5,14.5-21.6,21.8c-3.2,3.3-5.1,7.3-5.1,12
	c0,2.6,0,5.1,0,7.7c0,0,0,0,0,0c0,2.6,0,5.1,0,7.7c0,1.3,0.1,2.6,0.3,3.8c0.2,1.4,0.9,2.4,2.1,3c1.2,0.6,2.6,0.8,3.6-0.2
	c18.2-17.9,36.4-35.9,54.5-54c13.1-13.1,11.4-9.9,11.5-28.5c0.2-20.5-1.4-16.9,13.3-31.6c4.1-4.1,8.2-8.1,12.2-12.2
	c1.3-1.4,2.7-2.8,3.7-4.4c0.6-0.9,0.8-2.4,0.5-3.5C445.3,163.9,444.1,163.1,442.8,163z M862.3,595.1c-3.2-0.4-6.4-0.6-9.5-1
	c-1.4-0.2-3.7-2.4-3.9-3.8c-0.3-2.5-0.8-5-0.9-7.6c-0.3-5.1,0.4-10.3-0.9-15.3c-0.3-1-1.5-1.9-2.5-2.6c-0.4-0.3-1.4,0-1.8,0.3
	c-2,1.5-4.1,3-5.9,4.7c-6.9,6.7-13.6,13.6-20.5,20.2c-2.8,2.7-6.2,4.5-10.3,4.5c-7,0-14.1,0.1-21.1,0.2c-1.9,0-3.8,0.1-5.7,0.5
	c-1.2,0.2-2.5,0.7-3.5,1.4c-1.6,1.1-3.1,2.2-4.5,3.6c-19.5,19.4-38.9,38.9-58.3,58.4c-0.4,0.4-0.8,1-1.2,1.5c-0.8,1.1-1,2.3-0.7,3.5
	c0.4,1.4,1.3,2.2,2.8,2.4c7,1,14,0.6,21,0.3c3.3-0.1,6.2-1.4,8.8-3.5c2-1.6,3.8-3.4,5.6-5.2c5.9-5.9,11.8-11.8,17.7-17.6
	c1.4-1.3,2.9-2.4,4.4-3.6c1.2-0.9,2.4-0.9,3.5,0.1c0.4,0.4,0.9,0.9,1,1.4c1.3,7.6,0.1,15.3,1,23c0.2,2.2,2.8,4.8,5,5.1
	c1.3,0.1,2.5,0.4,3.8,0.5c3.2,0.1,6.4,0.1,9.6,0.2c2.6,0.1,5.1,0.3,7.6,0.5c1.4,0.1,2.3,0.9,2.9,2c0.7,1.4,0.5,2.4-0.5,3.5
	c-5.7,6.9-12.4,12.9-18.7,19.3c-10.7,10.7-10.3,9.9-10.3,25.2c0.2,4.5-0.5,9,1,13.3c0.3,0.8,2.2,1.7,3.1,1.4
	c2.5-0.7,4.3-2.6,6.2-4.4c18.1-18.1,36.2-36.2,54.3-54.3c1.4-1.4,2.6-2.8,3.9-4.3c1.7-2,2.8-4.4,3-6.9c0.3-3.8,0.3-7.7,0.4-11.5
	c0.1-5.1,0.2-10.2,0.5-15.3c0.2-3.2,1.5-6.2,3.7-8.6c3.9-4.2,8-8.2,11.8-12.6c1.2-1.3,1.7-3.4,2.1-5.2c0.6-3.1,0.5-6.3-0.2-9.5
	C865.7,597.7,863.7,595.3,862.3,595.1z M865.7,310.2c-0.4-1.2-1.2-2.3-2.5-2.6c-3.1-0.6-6.3-0.9-9.4-1.3c-2.5-0.3-5-2.6-5.1-4.8
	c-0.3-3.8-0.5-7.6-0.7-11.5c-0.2-3.2-0.3-6.4-0.5-9.6c-0.1-1.3-0.7-2.4-1.9-3.1c-1-0.6-2.5-0.7-3.4,0.2
	c-5.6,5.2-11.1,10.5-16.7,15.9c-3.2,3.1-6.3,6.3-9.6,9.3c-2.4,2.2-5.3,3.6-8.6,3.8c-1.9,0.1-3.8,0.2-5.8,0.2
	c-7,0.1-14.1,0.2-21.1,0.3c-2,0-3.7,1-5.2,2.1c-2,1.6-4,3.2-5.8,5c-18.1,18.1-36.2,36.2-54.3,54.3c-0.9,0.9-1.7,1.9-2.6,2.8
	c-0.4,0.5-0.7,1-1.1,1.6c-0.8,1.3-0.7,2.5,0.2,3.5c0.4,0.4,0.9,1.1,1.4,1.1c8.2,1.5,16.5,1.4,24.7,0.1c1.8-0.3,3.6-1.3,5.2-2.4
	c2.1-1.5,3.9-3.3,5.7-5.1c6.8-6.7,13.6-13.5,20.5-20.2c0.9-0.9,2.1-1.5,3.2-2c1.1-0.4,3-0.2,3.3,0.9c0.7,2.4,0.8,5,1,7.5
	c0.3,5.7-0.4,11.5,0.7,17.2c0.2,1.2,2.5,3.9,3.7,4c3.2,0.3,6.3,0.6,9.5,0.8c4.5,0.3,8.9-0.3,13.4,0.8c1.5,0.4,2.3,1,2.2,2.6
	c0,0.6,0.1,1.4-0.2,1.7c-2.5,2.9-4.9,5.9-7.6,8.6c-6.2,6.5-12.5,12.8-18.8,19.2c-1.8,1.9-2.7,4.4-2.8,7c-0.2,3.8,0,7.7,0,11.5
	c-0.1,0-0.1,0-0.2,0c0,1.9,0,3.8,0,5.8c0,1.3,0.1,2.6,0.2,3.8c0.1,2.5,1.4,4.4,2.9,4.1c1.2-0.3,2.6-0.4,3.4-1.2
	c6.5-6.2,12.9-12.4,19.2-18.7c13.6-13.6,27.1-27.2,40.7-40.7c3.3-3.3,5.1-7.3,5.1-12c0.1-5.8,0-11.5,0.2-17.3
	c0.1-2.6,0.2-5.1,0.6-7.6c0.3-2.6,1.2-5.1,3-7c3.8-4.3,7.9-8.4,11.9-12.5c1.9-2,2.5-4.4,2.8-7C866.7,316.5,866.8,313.3,865.7,310.2z
	 M723.8,754.8c2.3-2.3,4.5-4.5,6.7-6.8c1.8-1.8,4.1-3.9,3.3-6.5c-0.8-2.6-3.7-3-6.4-3.1c-5.1-0.1-10.2-0.2-15.3-0.4
	c-1.3,0-2.5-0.5-3.7-0.7c-1.4-0.2-3.8-2.5-3.8-3.8c-0.2-3.8-0.4-7.6-0.6-11.5c-0.2-3.8-0.4-7.6-0.7-11.4c0-0.5-0.5-1.1-0.9-1.5
	c-1.1-0.9-2.4-1.1-3.5-0.3c-2,1.5-4.1,3-5.9,4.8c-6.9,6.7-13.6,13.5-20.4,20.2c-2.4,2.4-5.3,3.5-8.5,4c-2.5,0.4-5.1,0.5-7.6,0.6
	c-5.7,0.1-11.5,0.1-17.2,0.3c-4.7,0.1-8.6,2-11.9,5.3c-1.8,1.8-3.7,3.6-5.5,5.4c-5,5-9.9,9.9-14.9,14.9
	c-10.4,10.4-20.8,20.8-31.2,31.2c-2.7,2.7-5.3,5.5-7.9,8.4c-0.9,1-1,2.3-0.9,3.5c0.1,1.6,0.9,2.2,2.5,2.3c7.6,0.8,15.3,0.5,22.9,0.2
	c2.6-0.1,5-1.2,6.9-2.9c2.4-2.2,4.7-4.3,7-6.5c5.5-5.4,10.8-10.8,16.3-16.2c1.4-1.3,3-2.4,4.5-3.5c0.4-0.3,1.2-0.1,1.8-0.1
	c1.6-0.1,2.2,0.7,2.6,2.3c1,3.8,0.6,7.6,0.8,11.4c0.2,3.8,0.5,7.6,0.7,11.4c0.1,1.3,2.6,3.7,3.9,3.8c1.9,0.2,3.8,0.5,5.7,0.6
	c5.7,0.2,11.5,0.3,17.2,0.4c1.6,0,2.4,0.7,2.8,2.1c0.3,1.2,0.3,2.5-0.7,3.5c-6.2,6.4-12.5,12.8-18.7,19.2c-2.7,2.7-5.4,5.5-7.9,8.4
	c-1.7,2-2.6,4.4-3,6.9c-0.5,3.2-0.4,6.4,0.2,9.5c0.3,1.4,2.5,3.5,4,3.6c1.2,0.1,2.4,0.3,2.9,0.3c7.6,0.5,11.5-1.1,14.8-4.5
	c14.4-14.5,28.9-28.9,43.3-43.4c1.3-1.4,2.6-2.8,3.8-4.3c1.1-1.5,2.2-3.2,2.2-5.2c0.1-4.5,0.2-8.9,0.3-13.4
	c0.1-5.1,0.1-10.2,0.5-15.3c0.1-1.8,1.1-3.6,2.1-5.2c1-1.6,2.3-3,3.7-4.4C714.7,763.8,719.3,759.3,723.8,754.8z M639.6,864.1
	C639.5,864.1,639.5,864.1,639.6,864.1C639.8,864.1,639.8,864.1,639.6,864.1z M424.7,765.9c3.6-3.6,7.2-7.2,10.8-10.8
	c2.7-2.7,5.4-5.5,8-8.3c0.8-0.9,1.5-2,2.1-3.1c0.3-0.5,0.6-1.4,0.3-1.8c-0.6-1-1.4-2.4-2.4-2.7c-6.3-1.6-12.7-0.5-19.1-1.1
	c-1.9-0.2-3.8-0.5-5.5-1.3c-1-0.4-2.2-1.8-2.3-2.8c-0.4-4.4-0.5-8.9-0.7-13.4c-0.2-3.2-0.3-6.4-0.5-9.5c-0.1-1.5-0.9-2.5-2.4-2.4
	c-1.2,0.1-2.6,0.3-3.4,1c-4.7,4.3-9.3,8.8-13.8,13.3c-3.7,3.6-7.3,7.2-10.9,10.8c-2.8,2.9-6.4,4-10.3,4.6c-1.9,0.3-3.8,0.2-5.7,0.3
	c-3.8,0.1-7.7,0.1-11.5,0.1c-1.9,0-3.8,0.1-5.7,0.1c-4.7,0.1-8.7,1.7-12,5.1c-19.4,19.4-38.8,38.9-58.2,58.3c-0.9,0.9-1.5,2-2.2,3.1
	c-0.3,0.5-0.3,1.1-0.3,1.7c0,1.6,0.8,2.5,2.2,2.6c3.8,0.3,7.6,0.5,8.6,0.6c4.8,0,6.7,0,8.6,0c1.3,0,2.6-0.1,3.8-0.1
	c4,0,7.5-1.3,10.4-4.1c6.4-6.3,12.7-12.6,19.1-18.8c2.3-2.2,4.7-4.3,7.2-6.2c0.9-0.7,2.3-0.6,3.5,0.1c0.5,0.3,0.8,1,0.9,1.5
	c0.4,2.5,0.8,5,0.9,7.5c0.3,5.1,0.5,10.2,0.7,15.3c0.1,1.6,2.2,3.9,3.6,4c1.9,0.2,3.8,0.6,5.7,0.7c5.7,0.2,11.5,0.2,17.2,0.3
	c1.5,0,2.4,0.7,3,1.8c0.6,1.2,0.7,2.5-0.3,3.5c-5.3,5.6-10.6,11.1-15.9,16.6c-3.5,3.7-7.2,7.3-10.6,11.1c-2.2,2.4-3.3,5.5-3.4,8.8
	c-0.1,2.5,0.2,5.1,0.3,7.6c0.1,1.7,2,3.5,3.7,3.9c3.8,1,7.6,0.9,11.4,0.1c1.2-0.2,2.4-0.8,3.4-1.5c1.5-1.1,3-2.4,4.3-3.7
	c14-14,28-28,42-42c1.4-1.4,2.6-2.8,3.8-4.3c1.7-2,2.5-4.4,2.7-7c0.1-1.9,0.1-3.8,0.1-5.7c0-5.7,0.2-11.5,0-17.2
	c-0.2-5.6,2.1-9.9,5.9-13.6C422.9,767.7,423.8,766.8,424.7,765.9z M642.3,692.2c-10.3,10.2-10.3,11.3-10.3,28.1
	c0.1,1,0.3,4.8,0.6,8.6c0.1,1.4,0.9,2.5,2.3,2.6c1.1,0.1,2.4-0.3,3.5-0.6c0.6-0.2,1-0.7,1.5-1.2c19.9-19.8,39.8-39.7,59.7-59.5
	c0.4-0.4,0.8-1,1.2-1.5c1.8-1.9,2.9-4.2,3-6.8c0.1-5.1,0.1-10.2,0.2-15.3c0.1-4.5,0.2-8.9,0.6-13.4c0.1-1.2,0.7-2.5,1.4-3.5
	c1.5-2,3.1-4,4.9-5.8c6.3-6.4,12.6-12.7,18.9-19c1.3-1.4,2.6-2.8,3.9-4.3c0.9-1.1,1-2.3,0.7-3.5c-0.3-1.3-1.2-2.1-2.7-2.1
	c-7-0.2-14-0.3-21.1-0.5c-3.6-0.1-6.3-2.5-6.4-5.6c-0.1-3.2-0.2-6.4-0.3-9.6c-0.1-3.8-0.1-7.7-0.2-11.5c0-1.4-0.8-2.4-1.9-3
	c-1.2-0.6-2.6-0.7-3.6,0.3c-6.5,6.2-12.8,12.4-19.3,18.6c-2.8,2.7-5.5,5.3-8.4,7.9c-1.9,1.7-4.3,2.9-6.9,2.9c-7,0.2-14,0.2-21.1,0.3
	c-2.5,0.1-5.1,0.2-7.6,0.5c-1.2,0.2-2.5,0.7-3.4,1.5c-2.5,2-4.9,4.1-7.2,6.3c-17.6,17.6-35.2,35.2-52.8,52.8
	c-0.9,0.9-1.7,1.9-2.6,2.8c-0.4,0.5-0.9,1-1.2,1.5c-0.7,1.2-0.9,2.4-0.5,3.5c0.5,1.4,1.5,2,2.8,2.2c6.4,0.9,12.7,0.6,19.1,0.5
	c4.6-0.1,8.7-1.7,12.1-5c5.4-5.4,10.9-10.8,16.3-16.2c2.7-2.7,5.5-5.3,8.3-7.9c1-1,2.2-1.3,3.5-1c1.2,0.3,2.3,1,2.4,2.5
	c0.3,5.7,0.4,11.5,0.7,17.2c0.1,1.9,0.5,3.8,0.8,5.7c0.2,1.5,2.4,3.7,3.8,3.9c1.2,0.2,2.5,0.7,3.7,0.7c5.7,0.2,11.5,0.3,17.2,0.5
	c1.2,0.1,2.6,0.5,3.5,1.3c0.9,0.7,1.3,2.4,0.6,3.4C656.5,679.3,649.1,685.5,642.3,692.2z M354.4,692.2
	c-10.3,10.3-10.4,11.4-10.3,28.1c0.1,1,0.3,4.8,0.6,8.6c0.1,1.4,0.9,2.3,2.3,2.7c1.2,0.3,2.4,0.1,3.5-0.6c0.5-0.3,1-0.8,1.5-1.2
	c19.9-19.8,39.8-39.7,59.7-59.5c0.4-0.4,0.8-1,1.2-1.5c1.8-1.9,2.9-4.2,3-6.8c0.1-4.5,0.1-8.9,0.2-13.4c0.1-5.1,0.2-10.2,0.6-15.3
	c0.1-1.2,0.7-2.5,1.4-3.5c1.5-2.1,3.1-4,4.9-5.9c6.3-6.4,12.6-12.7,18.9-19c1.3-1.4,2.6-2.8,3.9-4.3c0.9-1.1,1-2.3,0.7-3.5
	c-0.3-1.3-1.2-2.1-2.7-2.2c-7-0.2-14-0.3-21.1-0.5c-3.6-0.1-6.3-2.4-6.4-5.6c-0.1-3.2-0.2-6.4-0.3-9.6c-0.1-3.8-0.1-7.7-0.3-11.5
	c-0.1-1.4-0.7-2.4-1.8-3c-1.2-0.7-2.5-0.7-3.6,0.3c-7.8,6.6-14.7,14.2-22,21.3c-2.3,2.2-4.8,4.2-7.3,6.2c-1,0.8-2.2,1.3-3.4,1.5
	c-2.5,0.4-5.1,0.6-7.6,0.7c-7,0.1-14,0.1-21.1,0.3c-2.6,0-4.9,1.1-6.9,2.9c-1.4,1.3-2.9,2.5-4.2,3.9c-5.9,5.8-11.8,11.7-17.7,17.6
	c-11.7,11.7-23.5,23.5-35.2,35.3c-1.8,1.8-3.5,3.7-5.2,5.7c-0.9,1-1,2.3-0.6,3.5c0.4,1.4,1.4,2.1,2.8,2.3c6.3,1,12.7,0.6,19.1,0.5
	c4.6-0.1,8.7-1.6,12.1-5c5.4-5.4,10.9-10.8,16.3-16.2c2.7-2.7,5.5-5.3,8.3-7.9c1-1,2.2-1.3,3.5-1c1.6,0.3,2.7,1.8,2.8,4.3
	c0.1,5.1,0.2,10.2,0.4,15.3c0.1,1.9,0.5,3.8,0.8,5.7c0.2,1.5,2.3,3.7,3.8,4c1.9,0.3,3.8,0.7,5.6,0.8c5.7,0.3,11.5,0.5,17.2,0.7
	c0.6,0,1.3,0.4,1.7,0.9c0.8,0.9,1.3,2.4,0.6,3.4C368.6,679.3,361.1,685.4,354.4,692.2z M734.3,311.3c0.3-0.4,0.2-1.2,0.2-1.8
	c0-1.6-0.8-2.4-2.4-2.4c-6.4-0.2-12.7-0.3-19.1-0.5c-1.9-0.1-3.9-0.2-5.6-0.8c-1-0.4-2-1.6-2.5-2.7c-0.5-1.1-0.7-2.5-0.7-3.7
	c-0.1-5.1-0.1-10.2-0.2-15.3c-0.1-1.9-0.4-3.8-0.7-5.7c-0.1-0.5-0.5-1.1-1-1.4c-1.2-0.8-2.5-0.9-3.6,0c-7.6,5.9-13.8,13.2-20.7,19.8
	c-2.8,2.7-5.3,5.5-8.5,7.7c-1.6,1.1-3.4,1.9-5.3,2c-3.8,0.3-7.7,0.3-11.5,0.3c-5.7,0.1-11.5,0.2-17.2,0.4c-1.2,0.1-2.5,0.7-3.5,1.3
	c-1.6,1-3.1,2.2-4.5,3.6c-19.4,19.4-38.8,38.9-58.2,58.3c-0.9,0.9-1.5,2.1-2,3.2c-0.3,0.5-0.4,1.3-0.3,1.8c0.4,1.3,1.4,2.2,2.6,2.5
	c7,1.3,14,0.7,21,0.5c4-0.1,7.4-1.8,10.3-4.6c6.8-6.7,13.6-13.5,20.4-20.2c1.8-1.8,3.8-3.4,5.8-4.9c0.4-0.3,1.2-0.2,1.7-0.3
	c1.5-0.1,2.4,0.6,2.7,2.1c0.3,1.9,0.6,3.8,0.7,5.6c0.2,5.1,0.2,10.2,0.4,15.3c0.1,4.1,3.2,6.7,7.6,6.9c0.6,0,1.3,0.1,1.9,0.1
	c4.5,0.1,8.9,0.1,13.4,0.2c1.3,0,2.6,0.1,3.8,0.4c1.4,0.3,2.3,1.1,2.7,2.3c0.5,1.3,0.3,2.5-0.7,3.5c-8,8.2-16,16.5-24.1,24.7
	c-3.3,3.3-5.1,7.3-5.2,12c-0.1,2.6,0,5.1,0,10.3c0.1,1.8-0.5,6.3,0.9,10.7c1.1,0.5,2.2,1.3,3.3,1.4c2.1,0.1,3.4-1.6,4.7-2.9
	c19-18.9,38-37.9,57-56.9c0.5-0.5,0.9-0.9,1.3-1.4c0.8-1,1.5-2.1,2.4-3c1.5-1.5,1.9-3.4,2-5.3c0.2-8.3,0.3-16.6,0.3-24.9
	c0-4.8,1.8-8.6,5.2-11.9c7.2-7.2,14.4-14.5,21.6-21.7C732.2,314.5,733.2,312.8,734.3,311.3z M443,306.9c-5.7-0.2-11.5-0.2-17.2-0.3
	c-1.9,0-3.8-0.4-5.7-0.6c-1.3-0.1-3.4-2.6-3.5-4c-0.2-3.2-0.4-6.4-0.5-9.5c-0.2-4.5-0.3-8.9-0.4-13.4c-0.1-1.6-0.9-2.5-2.4-2.4
	c-1.2,0.1-2.7,0.1-3.5,0.9c-5.1,4.8-10.1,9.7-15.1,14.7c-3.2,3.1-6.3,6.4-9.5,9.5c-3.3,3.2-7.2,5.2-12,5.1c-3.8-0.1-7.7,0-11.5,0
	c-4.5,0.1-8.9,0.1-13.4,0.3c-1.9,0.1-3.7,0.7-5.2,2.1c-1.9,1.7-3.9,3.3-5.7,5.1c-18.1,18-36.2,36.1-54.2,54.2
	c-1.3,1.3-2.5,2.9-3.6,4.4c-0.4,0.5-0.7,1.4-0.5,1.8c0.5,1.1,1.2,2.7,2,2.8c8.2,1.6,16.5,1.5,24.7,0.2c1.8-0.3,3.6-1.3,5.2-2.4
	c2.1-1.5,3.9-3.3,5.7-5.1c6.4-6.3,12.6-12.7,19-18.9c1.3-1.3,3-2.2,4.6-3.2c0.4-0.2,1.5-0.1,1.8,0.3c0.8,0.9,1.8,2,1.8,3
	c0.5,7,0.7,14,1,21c0.1,2.2,2.8,4.9,4.8,5.3c5.7,1,11.5,0.4,17.2,0.8c1.9,0.1,3.7,0.5,5.6,0.9c0.5,0.1,1.2,0.5,1.5,1
	c0.6,1.3,0.6,2.6-0.2,3.6c-4.8,5.1-9.6,10.2-14.5,15.2c-4,4.1-8,8.2-11.9,12.4c-1.7,1.9-2.7,4.4-2.9,7c-0.3,3.8-0.3,7.6-0.5,12.5
	c0.2,2.8,0.5,6.6,1,10.4c0.1,0.5,0.7,0.9,1.1,1.4c1,1.1,2.3,1.4,3.5,0.4c2.5-2,5-4,7.2-6.2c16.8-16.7,33.5-33.4,50.2-50.1
	c1.4-1.4,2.7-2.7,4-4.1c3.2-3.3,5.4-7,5.2-11.9c-0.2-5.7,0.5-11.5-0.1-17.2c-0.9-8.5,2.8-14.7,8.7-20.1c4.7-4.3,9.1-8.9,13.6-13.5
	c2.3-2.3,4.4-4.6,6.6-6.9c1.7-1.8,2.3-4.4,1.2-5.1C445.2,307.8,444.1,306.9,443,306.9z M299.8,163c-4.4-1-8.9-0.5-13.3-0.7
	c-2.5-0.1-5.1-0.2-7.6-0.3c-3.5-0.2-6.3-2.6-6.4-5.8c-0.3-6.4-0.4-12.7-0.8-19.1c-0.1-1.2-0.8-2.4-1.3-3.5c-0.7-1.5-1.7-1.6-3.2-0.9
	c-2.4,1.1-4.1,3-5.9,4.8c-6.8,6.7-13.6,13.5-20.4,20.2c-2.9,2.9-6.4,4.1-10.3,4.6c-2.5,0.3-5.1,0.2-7.6,0.3
	c-5.7,0.1-11.5,0.2-17.2,0.4c-3.2,0.2-6.2,1.4-8.7,3.6c-1,0.8-1.9,1.7-2.8,2.6c-18.9,19-37.9,37.9-56.8,56.9c-0.9,0.9-1.6,2-2.2,3.1
	c-0.3,0.5-0.4,1.2-0.4,1.7c0,1.6,0.7,2.5,2.2,2.6c8.3,1,16.5,0.9,24.8,0.1c1.8-0.2,3.6-1.3,5.1-2.4c2-1.5,3.9-3.3,5.7-5.1
	c5-4.9,9.9-9.9,14.9-14.9c2.3-2.2,4.5-4.5,7-6.6c0.9-0.7,2.3-0.9,3.5-1c1.6-0.2,2.3,0.8,2.4,2.4c0.1,6.4,0.3,12.7,0.5,19.1
	c0.1,1.9,0.2,3.9,0.8,5.6c0.4,1,1.7,1.9,2.7,2.4c1.1,0.5,2.5,0.6,3.7,0.7c5.1,0.1,10.2,0.1,15.3,0.2c1.9,0,3.8,0.3,5.7,0.5
	c1.4,0.1,2.2,1,2.2,2.6c0,0.6-0.1,1.3-0.5,1.8c-7.2,9-15.9,16.5-23.9,24.7c-4.3,4.3-6.9,9-6.4,15.3c0.2,1.9,0,3.8,0,6.2
	c0.2,4-0.6,8.5,0.8,12.9c0.2,0.5,0.6,1.1,1,1.4c1.2,0.8,2.5,0.8,3.6-0.1c2.4-2.1,4.9-4.1,7.1-6.3c15.8-15.8,31.7-31.5,47.4-47.4
	c12.1-12.1,11.8-10.5,11.8-28.4c0-3.8,0-7.7,0.2-11.5c0.2-4.6,1.4-8.8,4.9-12.1c2.8-2.6,5.4-5.4,8.1-8.1c4.5-4.5,9-9,13.5-13.6
	c1.3-1.4,2.3-3,3.4-4.5C303,166.1,301.5,163.4,299.8,163z M588.1,163.2c-5-1.5-10.1-0.6-15.2-0.9c-2.5-0.2-5.1-0.4-7.6-0.6
	c-2.3-0.2-4.6-2.7-4.8-5.2c-0.3-6.4-0.5-12.7-0.8-19.1c-0.1-1.2-0.6-2.4-1.1-3.6c-0.6-1.5-1.7-1.7-3.1-1.2c-3.1,1.2-5.1,3.8-7.3,5.9
	c-6.9,6.7-13.6,13.4-20.5,20.1c-1.9,1.8-4.3,2.8-6.8,3.2c-2.5,0.4-5.1,0.7-7.6,0.7c-5.1,0.1-10.2,0.2-15.3,0.1
	c-6.1-0.1-11.1,1.8-15.4,6.2c-18.9,19.1-37.9,38-56.8,56.9c-0.9,0.9-1.6,2-2.3,3c-0.9,1.1-0.9,2.3-0.1,3.5c0.3,0.4,0.9,0.9,1.4,1
	c7.6,1.4,15.2,0.6,22.9,0.6c3.3,0,6.2-1.3,8.6-3.6c7.3-7.1,14.5-14.4,21.8-21.5c1.8-1.8,3.8-3.3,5.8-4.9c0.4-0.3,1.2-0.4,1.8-0.4
	c1.6,0,2.5,0.8,2.6,2.2c0.2,5.7,0.3,11.5,0.6,17.2c0.1,2.5,0.2,5.1,0.8,7.6c0.2,1,1.4,2.3,2.5,2.6c1.8,0.6,3.7,0.8,5.6,0.8
	c6.4,0.2,12.7,0.4,19.1,0.5c1.6,0,2.4,0.8,2.4,2.4c0,0.6,0,1.3-0.3,1.8c-1.1,1.6-2.1,3.2-3.5,4.5c-7.2,7.3-14.4,14.4-21.6,21.7
	c-3.3,3.3-5.4,7.1-5.2,11.9c0.1,2.5,0,5.1,0,7.7c-0.1,0-0.2,0-0.3,0c0.3,4.4,0.6,8.9,0.9,13.3c0.1,1.4,1.1,2.2,2.7,2.1
	c0.6,0,1.2-0.2,1.8-0.4c0.6-0.2,1.2-0.5,1.6-1c20.3-20.3,40.7-40.6,61-60.9c2.3-2.3,3.6-5.3,3.7-8.6c0.2-5.1,0.2-10.2,0.3-15.3
	c0.1-3.8,0.2-7.7,0.6-11.5c0.3-2.5,1.1-5,3-6.9c5.8-5.9,11.6-11.9,17.4-17.8c2.2-2.3,4.5-4.5,6.7-6.9c0.9-0.9,1.5-2,2.2-3.1
	c0.3-0.5,0.7-1.4,0.5-1.8C589.8,164.9,589.1,163.5,588.1,163.2z M134.9,519.6c0.3,1.4,1.1,2.2,2.6,2.2c5.1,0.2,10.2,0.3,15.3,0.4
	c2.5,0,5.1-0.1,7.6-0.2c2.6-0.1,4.9-1.2,6.9-2.9c1.9-1.7,3.8-3.4,5.6-5.2c5.9-5.8,11.7-11.7,17.6-17.6c1.4-1.3,2.7-2.7,4.2-3.8
	c1.1-0.9,2.4-0.9,3.6-0.4c1.2,0.4,1.9,1.4,1.9,2.9c0.3,7.6,0.5,15.3,0.8,22.9c0.1,1.6,2.2,3.7,3.7,3.8c1.9,0.2,3.8,0.5,5.7,0.6
	c5.7,0.1,11.5,0.2,17.2,0.3c1.5,0,2.5,0.6,3,1.7c0.6,1.2,0.7,2.6-0.3,3.6c-5.7,6-11.5,11.9-17.3,17.8c-2.2,2.3-4.4,4.6-6.8,6.8
	c-3.9,3.7-6.3,7.9-5.9,13.5c0.2,2.5,0,5.1,0,7.7c0,0,0.1,0,0.1,0c0,3.2-0.1,6.4,0,9.6c0,1.2,0.3,2.6,0.9,3.7c0.5,1,1.9,1.6,3.2,1.2
	c2.5-0.7,4.2-2.8,6-4.6c18.1-18,36.1-36.1,54.2-54.1c1.4-1.4,2.8-2.7,3.9-4.2c1.5-2.1,2.8-4.3,2.9-7c0.2-6.4,0.3-12.8,0.5-19.1
	c0.1-3.2,0.3-6.4,0.8-9.5c0.3-1.8,1.1-3.7,2.2-5.2c1.5-2.1,3.3-3.8,5.1-5.7c6.7-6.8,13.5-13.6,20.1-20.5c0.8-0.9,1.3-2.1,1.8-3.3
	c0.5-1.2,0-2.5-1.3-3.1c-2.9-1.5-6.2-1.1-9.3-1.2c-5.1-0.2-10.2,0.3-15.3-0.8c-1.1-0.3-3.4-2.8-3.6-4.1c-0.3-2.5-0.6-5.1-0.8-7.6
	c-0.3-5.1,0.4-10.2-0.9-15.2c-0.2-0.6-0.7-1-1.2-1.5c-0.9-0.9-2.2-1.1-3.4-0.2c-6.6,5-12,11.5-18,17.1c-3.3,3.1-6.3,6.3-9.7,9.2
	c-1.4,1.2-3.3,1.9-5.1,2.4c-2.5,0.6-5,0.9-7.6,1c-6.4,0.2-12.8,0.1-19.1,0.3c-3.9,0.1-7.6,1.3-10.4,4.2
	c-20.3,20.3-40.6,40.6-60.8,61C134.8,517.1,134.7,518.4,134.9,519.6z M489.3,586.3c0.4,1.1,1.7,2,3,1.6c2.5-0.6,4.3-2.6,6.1-4.4
	c16.3-16.2,32.5-32.5,48.7-48.7c13.8-13.8,12.9-11.1,13-31.7c0-2.6,0-5.1,0.1-7.7c0.1-1.9,0.2-3.8,0.6-5.7c0.4-1.8,1.1-3.7,2.1-5.3
	c1-1.6,2.4-3,3.7-4.4c5.8-5.9,11.7-11.7,17.6-17.6c1.8-1.8,3.6-3.7,5.1-5.7c0.7-0.9,1.2-2.4,1-3.5c-0.2-1.3-1.5-2.2-2.8-2.3
	c-3.8-0.3-7.6-0.5-11.4-0.7c-3.8-0.2-7.6-0.5-11.4-0.7c-1.4-0.1-3.7-2.4-3.8-3.8c-0.3-3.2-0.7-6.3-0.9-9.5c-0.3-4.4,0.4-9-0.9-13.3
	c-0.3-1-1.5-1.9-2.4-2.6c-0.3-0.2-1.3,0.1-1.8,0.4c-1.5,1.1-3.1,2.2-4.5,3.5c-7.3,7.1-14.6,14.3-21.8,21.5
	c-2.9,2.9-6.5,4.2-10.3,4.4c-5.7,0.4-11.5,0.2-17.2,0.4c-3.2,0.1-6.4,0.2-9.5,0.7c-1.8,0.3-3.6,1.3-5.2,2.2c-1.1,0.6-2,1.6-2.9,2.5
	c-19.4,19.4-38.8,38.8-58.2,58.2c-0.9,0.9-1.5,2-2.2,3.1c-0.3,0.5-0.2,1.2-0.2,1.8c-0.1,1.6,0.8,2.3,2.4,2.5
	c8.3,0.8,16.5,0.8,24.8,0c1.2-0.1,2.5-0.7,3.5-1.4c2-1.5,4-3.2,5.8-5c6.4-6.3,12.7-12.6,19-18.9c1.4-1.3,2.7-2.7,4.2-3.9
	c1-0.9,2.3-1,3.5-0.8c1.4,0.2,2.1,1.1,2.2,2.6c0.3,7.6,0.6,15.3,0.8,22.9c0.1,1.5,2.1,4,3.4,4.1c1.3,0.2,2.5,0.5,3.8,0.6
	c5.1,0.1,10.2,0.1,15.3,0.2c1.9,0,3.8,0.3,5.7,0.6c0.5,0.1,1.1,0.5,1.4,1c0.9,1.2,0.9,2.5,0,3.6c-6.1,7.4-13.3,13.7-19.9,20.6
	c-10.7,11-10.2,9.2-10.3,26.4C488.9,577.5,487.7,582,489.3,586.3z M291.2,755.5c3.6-3.7,7.1-7.4,10.5-11.2c0.9-1,0.8-2.4,0.3-3.5
	c-0.6-1.3-1.6-1.9-3.1-2c-1.3-0.1-2.5-0.3-3.8-0.4c-5.7-0.2-11.5-0.4-17.2-0.6c-2.5-0.1-5-2.4-5.2-4.7c-0.2-2.5-0.5-5.1-0.7-7.6
	c-0.2-4.5-0.4-8.9-0.5-13.4c-0.1-1.4-0.6-2.5-1.8-3.2c-1-0.6-2.3-0.6-3.4,0.3c-2.9,2.5-5.7,5.1-8.5,7.8c-6,5.8-11.8,11.7-17.8,17.5
	c-2.4,2.3-5.4,3.4-8.6,3.8c-3.2,0.4-6.4,0.3-9.6,0.4c-5.7,0.2-11.5,0.3-17.2,0.6c-2.6,0.1-5,1.3-7,2.9c-2,1.6-3.8,3.5-5.6,5.3
	c-14.5,14.5-29,28.9-43.4,43.4c-4.1,4.1-8.1,8.2-12.1,12.3c-0.8,0.9-1.6,2.1-1.8,3.3c-0.2,1.4,0.6,2.7,1.8,2.9
	c7.6,1.6,15.3,0.6,22.9,0.7c3.3,0,6.2-1.2,8.6-3.6c7.3-7.2,14.5-14.4,21.9-21.5c1.8-1.8,3.8-3.3,5.8-4.9c0.4-0.3,1.2-0.4,1.8-0.4
	c1.6,0,2.5,0.8,2.6,2.2c0.2,5.7,0.3,11.5,0.6,17.2c0.1,2.5,0.3,5.1,0.8,7.6c0.2,1,1.5,2.4,2.5,2.6c5.6,1.5,11.4,0.7,17.2,0.9
	c1.9,0.1,3.8,0.1,5.8,0.1c2.8,0.1,4.6,1.2,4.2,2.7c-0.3,1.2-0.5,2.6-1.2,3.4c-5.3,5.5-10.8,10.9-16.1,16.4c-3.6,3.7-7,7.4-10.6,11.1
	c-1.4,1.5-2,3.3-2.3,5.2c-0.6,3.8-0.7,7.7,0.2,11.4c0.3,1.1,1.3,2.4,2.3,2.8c1.7,0.7,3.7,0.7,4.5,0.8c6.5,0.4,11-0.9,15-5
	c14.3-14.6,28.8-29,43.3-43.5c0.9-0.9,1.9-1.7,2.6-2.8c1.4-2.1,2.8-4.4,2.9-7c0.2-7,0.5-14.1,0.4-21.1c-0.1-6.7,1.7-12.5,6.9-17.2
	C283.3,763.8,287.2,759.6,291.2,755.5z M586.7,747.9c1.3-1.3,2.2-3.1,3.4-4.6c1-1.3-0.6-4.1-2.4-4.3c-3.8-0.3-7.6-0.5-11.4-0.7
	c-3.8-0.2-7.6-0.5-11.5-0.7c-1.5-0.1-3.8-2.2-3.9-3.7c-0.3-3.2-0.7-6.3-0.9-9.5c-0.3-4.5,0.4-9-0.9-13.3c-0.3-1-1.4-1.9-2.4-2.6
	c-0.3-0.2-1.3,0.1-1.8,0.4c-2,1.5-4.1,3.1-5.9,4.8c-6.9,6.7-13.7,13.5-20.4,20.3c-2.9,2.9-6.5,4-10.4,4.4c-2.5,0.3-5.1,0.2-7.7,0.3
	c-5.8,0.2-11.5,0.2-17.2,0.5c-3.3,0.2-6.2,1.6-8.6,3.8c-0.5,0.4-0.9,0.9-1.4,1.3c-19.4,19.4-38.9,38.9-58.3,58.3
	c-0.5,0.5-0.9,0.9-1.3,1.4c-0.9,1.1-1.1,2.3-0.9,3.5c0.2,1.4,1,2.3,2.6,2.3c7.7,0.1,15.3,0.2,23,0.1c2.6,0,5-1.2,6.9-2.9
	c2.8-2.6,5.6-5.3,8.3-7.9c5.9-5.8,11.9-11.7,17.7-17.5c0.9-0.9,1.9-1.7,3.3-1.9c1.4-0.1,2.6,0.3,3.1,1.4c1.1,2.4,0.7,5,0.8,7.6
	c0.2,5.7,0.4,11.5,0.6,17.2c0.1,1.6,2.2,3.6,3.8,3.7c1.9,0.2,3.8,0.5,5.7,0.5c5.8,0.1,11.5,0.2,17.3,0.3c1.5,0,2.5,0.7,2.9,1.9
	c0.5,1.2,0.5,2.6-0.5,3.6c-5.8,6-11.6,11.9-17.4,17.8c-3.1,3.2-6.2,6.4-9.3,9.7c-1.8,1.9-2.9,4.3-2.9,6.9c-0.1,3.2,0,6.4,0.2,9.6
	c0.1,1.7,2,3.7,3.6,3.9c1.9,0.2,3.8,0.4,5,0.6c2-0.1,3.2-0.2,4.5-0.2c2-0.1,3.8-0.7,5.3-1.9c2.4-2.1,4.7-4.3,7-6.5
	c11.3-11.3,22.7-22.6,33.9-33.9c12.1-12.2,11.9-10.5,11.9-28.4c0-3.8,0-7.7,0.2-11.5c0.2-4.6,1.3-8.8,4.9-12.1
	c2.3-2.2,4.5-4.5,6.7-6.8C576.8,757.9,581.9,752.9,586.7,747.9z M777.3,586.2c0.4,1.2,1.6,2.2,2.9,1.8c1.7-0.6,3.4-1.7,4.7-3
	c19-18.9,38-37.9,57-56.9c0.9-0.9,1.8-1.8,2.6-2.8c2-2.6,3.3-5.5,3.4-8.8c0.2-5.1,0.1-10.2,0.2-15.3c0.1-3.2,0.1-6.4,0.4-9.6
	c0.3-3.2,1.3-6.2,3.6-8.7c4-4.2,8-8.2,11.8-12.6c1.2-1.4,2-3.4,2.2-5.2c0.3-3.1,0.1-6.3,0-9.5c0-1.4-2.3-3.9-3.5-4.2
	c-3.7-0.8-7.5-1.4-11.2-2.4c-1-0.3-2.1-1.6-2.4-2.7c-1.8-6.2-0.7-12.7-1.2-19.1c-0.2-1.9-0.6-3.7-1.3-5.5c-0.5-1.5-1.8-1.9-3.1-1.1
	c-1.6,1-3.3,2-4.6,3.3c-7.8,7.6-15.5,15.2-23.3,22.8c-1.9,1.8-4.3,2.7-6.9,3.1c-2.5,0.4-5.1,0.7-7.6,0.7c-6.4,0.2-12.8,0.1-19.2,0.4
	c-3.2,0.1-6.2,1.4-8.7,3.5c-1,0.8-1.9,1.7-2.8,2.6c-19,19-37.9,38-56.9,57c-0.9,0.9-1.6,2-2.3,3c-0.7,1.1-0.8,2.4,0.1,3.6
	c0.3,0.4,1,0.8,1.5,0.9c8.3,1.1,16.5,0.9,24.8,0.2c1.9-0.1,3.7-1,5.1-2.3c1.4-1.3,2.9-2.5,4.3-3.8c3.7-3.6,7.3-7.2,10.9-10.8
	c3.6-3.6,7.3-7.2,10.9-10.8c1.4-1.4,2.9-2.3,4.9-2.4c1.6,0,2.6,1.5,2.7,4.3c0.1,5.7,0.1,11.5,0.2,17.2c0.1,1.9,0.2,3.9,0.8,5.6
	c0.4,1,1.7,1.9,2.7,2.4c1.1,0.5,2.5,0.6,3.7,0.7c5.1,0.1,10.2,0.1,15.3,0.2c1.9,0,3.8,0.3,5.7,0.5c1.4,0.1,2.2,1.1,2.2,2.6
	c0,0.6-0.1,1.3-0.5,1.8c-5.9,7.6-13.2,13.8-19.9,20.7c-10.8,11.1-10.4,9.6-10.4,25.1C776.6,577.3,775.9,581.8,777.3,586.2z
	 M848.4,156c-0.2-3.2-0.3-6.4-0.4-9.6c-0.2-3.8-0.4-7.6-0.9-11.4c-0.1-1-1.4-1.9-2.4-2.6c-0.3-0.2-1.3,0.1-1.8,0.4
	c-1.5,1.1-3.1,2.2-4.5,3.5c-7.3,7.1-14.6,14.3-21.8,21.6c-2.9,2.9-6.5,4-10.3,4.4c-2.5,0.3-5.1,0.2-7.6,0.3
	c-5.7,0.2-11.5,0.2-17.2,0.5c-3.3,0.2-6.2,1.6-8.6,3.8c-0.5,0.4-0.9,0.9-1.4,1.3c-19.4,19.4-38.9,38.9-58.3,58.3
	c-0.5,0.5-0.9,0.9-1.3,1.4c-0.9,1.1-1.1,2.3-1,3.5c0.1,1.5,0.9,2.2,2.5,2.4c7.6,0.8,15.3,0.5,22.9,0.2c2.6-0.1,5-1.1,6.9-2.9
	c1.9-1.7,3.8-3.4,5.6-5.2c5.9-5.8,11.7-11.8,17.6-17.6c1.4-1.4,2.7-2.7,4.2-3.9c1.1-0.9,2.4-0.9,3.6-0.5c1.3,0.4,2,1.3,2,2.8
	c0.3,7.6,0.5,15.3,0.8,22.9c0.1,1.5,2.2,3.8,3.6,3.9c1.9,0.2,3.8,0.5,5.7,0.6c5.7,0.1,11.5,0.2,17.2,0.2c1.4,0,2.5,0.6,3.1,1.7
	c0.7,1.2,0.7,2.6-0.3,3.6c-5.7,6-11.6,11.9-17.4,17.8c-2.2,2.3-4.5,4.6-6.8,6.8c-3.9,3.7-6.3,8-5.9,13.5c0.2,2.5,0,5.1,0,8.6
	c0.2,3.5-0.8,8.1,1,12.3c0.4,1.1,2,1.5,3.2,1.1c1.2-0.4,2.3-1.1,3.2-2c19.9-19.8,39.8-39.7,59.7-59.6c0.5-0.5,1-0.9,1.3-1.4
	c1.4-2.2,2.7-4.4,2.9-7c0.2-2.5,0.3-5.1,0.4-7.6c0.1-5.1,0.1-10.2,0.1-15.3c0-5.3,1.6-10,5.5-13.8c3.6-3.6,7.2-7.3,10.5-11.2
	c1.2-1.4,1.7-3.4,2.1-5.2c0.4-1.8,0.2-3.8,0.2-5.7c0.1-5.2-2.4-7.5-6.2-8.2c-1.9-0.3-3.8-0.4-5.7-0.7
	C850.8,161.4,848.5,159.2,848.4,156z M860.3,738.7c-1.2-0.3-2.5-0.3-3.8-0.5c-6.8-0.8-8.3-2.5-8.5-10c-0.1-4.5-0.1-8.9-0.3-13.4
	c0-1.3-0.1-2.6-0.6-3.7c-0.5-1-1.4-1.9-2.4-2.7c-0.3-0.2-1.3,0.1-1.8,0.4c-2,1.5-4.1,3-5.9,4.8c-6.8,6.7-13.6,13.4-20.4,20.2
	c-2.9,2.9-6.5,4.2-10.3,4.5c-5.7,0.4-11.5,0.2-17.2,0.4c-3.2,0.1-6.4,0.2-9.5,0.7c-1.8,0.3-3.6,1.3-5.2,2.2c-1.1,0.6-2,1.6-2.9,2.5
	c-19.4,19.4-38.8,38.8-58.2,58.2c-0.9,0.9-1.6,2-2.2,3.1c-0.3,0.5-0.3,1.2-0.3,1.7c-0.1,1.6,0.7,2.4,2.3,2.5
	c8.3,0.8,16.5,0.8,24.8,0.1c1.2-0.1,2.5-0.7,3.5-1.4c1.6-1,3.1-2.2,4.5-3.6c4.6-4.5,9-9,13.5-13.5c3.6-3.6,7.2-7.2,11-10.6
	c0.8-0.7,2.3-0.8,3.5-0.8c1.5-0.1,2.2,1,2.2,2.5c0.1,6.4,0.2,12.7,0.5,19.1c0.1,1.9,0.4,3.8,0.9,5.6c0.1,0.5,0.8,1.1,1.3,1.3
	c1.1,0.6,2.2,1.3,3.4,1.4c7.6,0.4,15.3,0.6,22.9,1c0.5,0,1.1,0.5,1.4,0.9c0.9,1.2,0.9,2.4,0,3.6c-4.2,5.7-9.7,10.1-14.5,15.2
	c-4.4,4.6-8.8,9.2-13.2,13.8c-1.4,1.5-1.9,3.3-2.1,5.2c-0.6,3.8-0.7,7.7,0.3,11.4c0.3,1,1.5,2.2,2.6,2.6c1.8,0.6,3.7,0.6,4.2,0.7
	c2.8,0,4,0.1,5.3,0c2.5-0.3,5-0.7,7-2.7c15.8-15.8,31.6-31.5,47.4-47.3c0.5-0.4,1-0.9,1.3-1.4c1.4-2.2,2.7-4.4,2.8-7
	c0.2-2.5,0.3-5.1,0.4-7.6c0.1-5.1,0.1-10.2,0.1-15.3c0-5.3,1.6-10,5.5-13.8c3.6-3.6,7.2-7.3,10.5-11.1c1.2-1.4,1.7-3.4,2.1-5.2
	c0.4-1.8,0.2-3.8,0.2-5.7C866.6,741.3,863.8,739.5,860.3,738.7z M123.8,852.3c-3.6,1.5-6,4.4-8.1,7.6c-0.3,0.4-0.2,1.2-0.2,1.7
	c0.1,1.3,1,2.1,2.3,2.3c2,0,3.9,0.1,5.8,0c2.1-0.1,3.7-1.5,4-3.3c0.4-2.5,0.7-5-0.6-7.4C126.4,852.2,125.2,851.7,123.8,852.3z
	 M415.7,855.2c-0.2-1.4-0.8-2.4-1.9-2.8c-1.3-0.5-2.5-0.2-3.6,0.6c-2.4,2-4.8,4-6.5,6.8c-0.3,0.5-0.3,1.2-0.3,1.8
	c0,1.3,0.8,2.2,2.3,2.4c1.9,0.2,3.8,0.2,5.6,0.1c2.8-0.2,4.2-1.8,4.4-5c0-0.6,0-1.3,0-2.6C415.8,856.4,415.8,855.8,415.7,855.2z
	 M701.7,852.3c-1.3-0.4-2.5-0.2-3.6,0.7c-2.4,2-4.8,4.1-6.5,6.8c-0.3,0.5-0.3,1.2-0.2,1.8c0.1,1.3,0.9,2.1,2.4,2.4
	c0.6,0.1,1.3,0.1,1.9,0.2c1.3-0.1,2.5-0.1,3.8-0.2c2.1-0.2,3.9-1.5,4-3.3c0.2-1.9,0.2-3.8,0.2-5.6
	C703.6,853.7,702.8,852.7,701.7,852.3z M863.8,89c0.9-0.7,1.9-1.9,2.1-2.9c0.3-1.8,0.2-3.7,0-5.5c0-0.5-0.6-1.1-1-1.6
	c-0.8-0.9-2-1.3-3.2-0.5c-3,2.1-6,4.4-7.1,8.2c0.2,0.6,0.2,1.4,0.6,1.7C858,90.6,861.3,90.9,863.8,89z M862,665.9
	c1.9-0.5,3.4-1.6,3.9-3.6c0.3-1.2,0.4-2.4,0.4-3.7c0-2-1.3-4.3-2.5-4.4c-1.3-0.1-2.5,0.3-3.4,1.3c-1.7,1.8-3.5,3.6-5.1,5.4
	c-1.3,1.5-0.6,3.7,1.3,4.5C858.4,666.2,860.2,666.4,862,665.9z M861.7,798.5c-2.6,1.9-4.9,3.9-6.5,6.7c-1,1.7-0.3,4.1,1.6,4.3
	c1.2,0.2,2.5,0.5,3.7,0.5c3.8,0.1,5.7-1.8,6-5.6c-0.1-1.2-0.1-2.5-0.3-3.7C865.9,799.1,862.9,797.7,861.7,798.5z M844.9,852.8
	c-1.2-0.4-2.3-0.1-3.4,0.9c-2.3,2.1-4.9,4-5.9,7.1c-0.5,1.4-0.1,2.4,1.6,2.7c1.8,0.3,3.7,0.6,5.6,0.5c2.6-0.1,4.8-2.4,4.8-4.9
	c-0.1-1.2-0.1-2.5-0.3-3.7C847,854,846.1,853.2,844.9,852.8z M861.7,222.5c-2.6,1.9-4.9,3.9-6.5,6.7c-1,1.7-0.3,4.1,1.6,4.3
	c1.2,0.2,2.5,0.5,3.7,0.5c3.8,0.1,5.7-1.8,6-5.6c-0.1-1.2-0.1-2.5-0.3-3.7C865.9,223.1,862.9,221.7,861.7,222.5z M863.8,377
	c0.9-0.7,1.9-1.9,2.1-2.9c0.3-1.8,0.2-3.7,0-5.5c0-0.5-0.6-1.1-1-1.6c-0.8-0.9-2-1.3-3.2-0.5c-3,2.1-6,4.4-7.1,8.2
	c0.2,0.6,0.2,1.4,0.6,1.7C858,378.6,861.3,378.9,863.8,377z M856.8,521.6c1.2,0.2,2.5,0.4,3.7,0.4c3.8,0.1,5.6-1.8,5.8-5.7
	c-0.1-1.2-0.2-2.5-0.3-3.7c-0.2-1.5-3.4-2.9-4.5-1.9c-1.9,1.6-3.7,3.3-5.5,5.1c-0.4,0.4-0.6,1.1-1,1.6
	C854.1,518.8,855.2,521.4,856.8,521.6z M557.4,853c-1.1-1.1-2.2-0.7-3.4,0.3c-2.4,2-4.8,4-6.3,6.9c-0.8,1.5-0.4,2.4,0.9,3
	c1.8,0.9,3.6,1,5.5,0.9c3.7-0.3,5.4-2.2,5.5-6.2c-0.1-0.6,0.1-1.3-0.2-1.9C558.8,854.9,558.2,853.9,557.4,853z M266.5,853.1
	c-0.5,0.4-1.1,0.6-1.5,1.1c-1.4,1.3-2.6,2.7-4,4c-1,0.9-1.5,2-1.5,3.4c0,1.2,2.1,2.5,4.3,2.5c1.2-0.1,2.5-0.1,3.7-0.2
	c1.7-0.2,3.4-1.9,3.8-3.7c0.4-1.9,0.2-3.7-0.4-5.5C270.2,852.7,268,851.9,266.5,853.1z"/>
</svg>
