<?xml version="1.0" encoding="UTF-8"?>
<svg id="Ebene_1" xmlns="http://www.w3.org/2000/svg" version="1.1" viewBox="0 0 200 200">
  <!-- Generator: Adobe Illustrator 29.2.0, SVG Export Plug-In . SVG Version: 2.1.0 Build 108)  -->
  <path d="M193.46,13.44c0-1.31-1.08-2.38-2.43-2.38-1.34,0-2.43,1.07-2.43,2.38,0,.38.09.74.25,1.06l-12.03,6.8v2.28l-2.42-1.37c.11-.25.18-.52.18-.81,0-.3-.07-.57-.18-.82l12.45-7.04V.09l.35-.2h-.68v.02l-7.94,4.49c-.32-.45-.84-.76-1.44-.81V-.11h-.32v3.7c-.6.05-1.11.36-1.44.81L167.4-.11h-.64l8.46,4.79c-.12.25-.19.52-.19.81s.07.57.19.82l-2.42,1.37v-2.28l-.08-.05L163.05-.11h-.64l10.06,5.69v2.28l-.89.51-8.81,4.98v2.28l-4.18-2.37-4.19,2.37v-2.28l-.08-.04-8.73-4.94-.89-.51v-2.28L154.76-.11h-.64l-9.75,5.51v2.28l-2.42-1.37c.12-.25.18-.53.18-.82s-.06-.56-.18-.81L150.42-.11h-.66l-7.97,4.51c-.33-.45-.85-.76-1.44-.81V-.11h-.32v3.7c-.6.05-1.12.36-1.44.81L130.65-.09v-.02h-.68l.35.2v13.45l.08.04,12.37,7c-.12.25-.18.52-.18.82,0,.29.06.56.18.81l-2.42,1.37v-2.28l-.08-.04-11.95-6.76c.16-.32.25-.68.25-1.06,0-1.31-1.09-2.38-2.43-2.38-1.35,0-2.44,1.07-2.44,2.38,0,.38.09.74.25,1.06l-12.02,6.8v2.28l-2.43-1.37c.12-.25.19-.52.19-.81,0-.3-.07-.57-.19-.82l12.45-7.04V.09l.36-.2h-.68v.02l-7.94,4.49c-.33-.45-.84-.76-1.44-.81V-.11h-.32v3.7c-.6.05-1.12.36-1.44.81L102.52-.11l-1.86-1.05v.28l-.07.05,1.27.72,8.47,4.79c-.12.25-.19.52-.19.81s.07.57.19.82l-2.43,1.37v-2.28l-.08-.05-7.16-4.05v.28l-.07.05,6.99,3.95v2.28l-.9.51-6.09,3.45.07.04v.28l6.67-3.77.25-.14v11.26c-.6.05-1.12.36-1.44.82l-5.48-3.1v.27l-.07.05,5.39,3.05c-.12.25-.19.52-.19.82,0,1.05.88,1.9,1.95,1.9.66,0,1.25-.32,1.6-.82l2.59,1.47v11.44c-.6.05-1.12.36-1.44.82l-9.83-5.56v.28l-.07.04,9.74,5.51c-.12.25-.19.53-.19.82s.07.56.19.81l-2.43,1.37v-2.27l-.08-.05-7.16-4.05v.28l-.07.04,6.99,3.96v2.27l-6.99,3.96.07.05v.28l6.92-3.92v11.27c-.6.04-1.12.36-1.44.81l-5.48-3.1v.28l-.07.04,5.39,3.06c-.12.24-.19.52-.19.81,0,1.05.88,1.91,1.95,1.91.66,0,1.25-.33,1.6-.82l2.59,1.46v11.45c-.6.05-1.12.36-1.44.81l-9.83-5.56-.07-.04-.08.04-9.83,5.56c-.32-.45-.84-.76-1.44-.81v-11.45l2.59-1.46c.35.49.94.82,1.6.82,1.07,0,1.95-.86,1.95-1.91,0-.29-.07-.57-.19-.81l5.4-3.06-.08-.04v-.28l-5.48,3.1c-.33-.45-.84-.77-1.44-.81v-11.27l6.92,3.92v-.28l.08-.05-7-3.96v-2.27l7-3.96-.08-.04v-.28l-7.16,4.05-.08.05v2.27l-2.43-1.37c.12-.25.19-.52.19-.81s-.07-.57-.19-.82l9.75-5.51-.08-.04v-.28l-9.83,5.56c-.32-.46-.84-.77-1.44-.82v-11.44l2.59-1.47c.35.5.94.82,1.6.82,1.07,0,1.95-.85,1.95-1.9,0-.3-.07-.57-.19-.82l5.4-3.05-.08-.05v-.27l-5.48,3.1c-.33-.46-.84-.77-1.44-.82v-11.26l.25.14,6.67,3.77v-.28l.08-.04-6.1-3.45-.9-.51v-2.28l7-3.95-.08-.05v-.28l-7.16,4.05-.08.05v2.28l-2.43-1.37c.12-.25.19-.53.19-.82s-.07-.56-.19-.81L99.32-.11l1.27-.72-.08-.05v-.28l-1.86,1.05-7.97,4.51c-.32-.45-.84-.76-1.44-.81V-.11h-.32v3.7c-.6.05-1.11.36-1.44.81L79.54-.09v-.02h-.68l.36.2v13.45l12.45,7.04c-.12.25-.19.52-.19.82,0,.29.07.56.19.81l-2.43,1.37v-2.28l-12.02-6.8c.16-.32.25-.68.25-1.06,0-1.31-1.09-2.38-2.44-2.38-1.34,0-2.43,1.07-2.43,2.38,0,.38.09.74.25,1.06l-11.95,6.76-.08.04v2.28l-2.42-1.37c.12-.25.18-.52.18-.81,0-.3-.06-.57-.18-.82l12.37-7,.08-.04V.09l.35-.2h-.68v.02l-7.94,4.49c-.32-.45-.84-.76-1.44-.81V-.11h-.32v3.7c-.59.05-1.11.36-1.44.81L51.4-.11h-.65l8.47,4.79c-.12.25-.18.52-.18.81s.06.57.18.82l-2.42,1.37v-2.28L47.05-.11h-.64l10.06,5.69v2.28l-.89.51-8.73,4.94-.08.04v2.28l-4.18-2.37-4.19,2.37v-2.28l-8.81-4.98-.89-.51v-2.28L38.76-.11h-.64l-9.66,5.46-.09.05v2.28l-2.42-1.37c.12-.25.19-.53.19-.82s-.07-.56-.19-.81L34.41-.11h-.64l-7.98,4.51c-.33-.45-.84-.76-1.44-.81V-.11h-.32v3.7c-.6.05-1.12.36-1.44.81L14.65-.09v-.02h-.68l.35.2v13.45l12.45,7.04c-.12.25-.18.52-.18.82,0,.29.07.56.18.81l-2.42,1.37v-2.28l-12.03-6.8c.16-.32.25-.68.25-1.06,0-1.31-1.09-2.38-2.43-2.38s-2.44,1.07-2.44,2.38c0,.38.1.74.25,1.06l-6.78,3.84v.36l6.95-3.93c.43.64,1.18,1.06,2.02,1.06s1.58-.42,2.02-1.06l11.87,6.72v2.27l-9.62,5.45-.09.04v2.28l-4.18-2.37-4.19,2.37v-2.28l-4.78-2.7v.36l4.46,2.53v2.27l-4.46,2.53v.37l4.46-2.53v13.08l-4.46,2.52v.37l4.7-2.66.08-.05v-13.44l4.19-2.37,4.18,2.37v13.44l12.45,7.05c-.12.24-.18.52-.18.81s.06.57.18.81l-2.42,1.37v-2.27l-12.03-6.81c.16-.32.25-.67.25-1.05,0-1.32-1.09-2.39-2.43-2.39s-2.44,1.07-2.44,2.39c0,.38.1.73.25,1.05l-6.78,3.84v.37l6.95-3.93c.43.63,1.18,1.05,2.02,1.05s1.58-.42,2.02-1.05l11.87,6.71v2.28l-9.62,5.44-.09.05v2.27l-4.18-2.36-4.19,2.36v-2.27l-4.78-2.71v.37l4.46,2.52v2.28l-4.46,2.52v.37l4.46-2.53v8.09h.32v-8.27l4.19-2.37,4.18,2.37v13.44l12.45,7.05c-.12.24-.18.52-.18.81s.06.57.18.82l-2.42,1.37v-2.28l-12.03-6.81c.16-.32.25-.67.25-1.05,0-1.32-1.09-2.39-2.43-2.39s-2.44,1.07-2.44,2.39c0,.38.1.73.25,1.05l-6.78,3.84v.37l6.95-3.93c.43.64,1.18,1.06,2.02,1.06s1.58-.42,2.02-1.06l11.87,6.71v2.28l-9.62,5.44-.09.05v2.28l-4.18-2.37-4.19,2.37v-2.28l-4.78-2.71v.37l4.46,2.52v2.28l-4.46,2.52v.37l4.46-2.52v13.07l-4.46,2.53v.36l4.7-2.66.08-.04v-13.45l4.19-2.36,4.18,2.36v13.45l12.45,7.04c-.12.25-.18.52-.18.81,0,.3.06.57.18.82l-2.42,1.37v-2.28l-12.03-6.8c.16-.32.25-.68.25-1.06,0-1.31-1.09-2.38-2.43-2.38s-2.44,1.07-2.44,2.38c0,.38.1.74.25,1.06l-6.78,3.84v.36l6.95-3.93c.43.64,1.18,1.06,2.02,1.06s1.58-.42,2.02-1.06l11.87,6.72v2.27l-9.62,5.45-.09.04v2.28l-4.18-2.37-4.19,2.37v-2.28l-4.78-2.7v.36l4.46,2.53v2.27l-4.46,2.53v.37l4.46-2.53v13.07l-4.46,2.53v.37l4.7-2.67.08-.04v-13.44l4.19-2.37,4.18,2.37v13.44l12.45,7.04c-.12.25-.18.53-.18.82s.07.56.18.81l-2.42,1.37v-2.27l-12.03-6.81c.16-.32.25-.67.25-1.05,0-1.32-1.09-2.39-2.43-2.39s-2.44,1.07-2.44,2.39c0,.38.1.73.25,1.05l-6.78,3.84v.37l6.95-3.93c.43.63,1.18,1.05,2.02,1.05s1.58-.42,2.02-1.05l11.87,6.71v2.28l-9.62,5.44-.09.05v2.27l-4.18-2.36-4.19,2.36v-2.27l-4.78-2.71v.37l4.46,2.52v2.28l-4.46,2.52v.37l4.46-2.53v13.08l-4.46,2.52v.37l4.7-2.66.08-.05v-13.44l4.19-2.37,4.18,2.37v13.44l12.45,7.05c-.12.25-.18.52-.18.81s.06.57.18.82l-2.42,1.37v-2.28l-12.03-6.81c.16-.31.25-.67.25-1.05,0-1.32-1.09-2.38-2.43-2.38s-2.44,1.06-2.44,2.38c0,.38.1.74.25,1.05l-6.78,3.84v.37l6.95-3.93c.43.64,1.18,1.06,2.02,1.06s1.58-.42,2.02-1.06l11.87,6.71v2.28l-9.62,5.44-.09.05v2.28l-4.18-2.37-4.19,2.37v-2.28l-4.78-2.71v.37l4.46,2.52v2.28l-4.46,2.53v.36l4.46-2.52v8.09h.32v-8.27l4.19-2.37,4.18,2.37v8.27h.33v-8.09l7.78,4.4c-.12.25-.19.52-.19.81,0,1.06.87,1.91,1.95,1.91.66,0,1.25-.32,1.6-.82l2.58,1.46v.33h.33v-.14l.24.14h.65l-.89-.51v-2.27l11.86-6.72c.44.64,1.18,1.06,2.03,1.06.84,0,1.58-.42,2.02-1.06l11.86,6.72v2.27l-.89.51h.65l.24-.14v.14h.33v-.33l2.58-1.46c.35.5.94.82,1.6.82,1.08,0,1.95-.85,1.95-1.91,0-.29-.07-.56-.19-.81l7.78-4.4v8.09h.33v-8.27l4.18-2.37,4.19,2.37v8.27h.32v-8.09l7.78,4.4c-.12.25-.19.52-.19.81,0,1.06.88,1.91,1.95,1.91.66,0,1.25-.32,1.6-.82l2.59,1.46v.33h.32v-.14l.25.14h.65l-.9-.51v-2.27l7-3.96-.08-.05v-.28l-7.16,4.06-.08.04v2.28l-2.43-1.37c.12-.25.19-.53.19-.82s-.07-.56-.19-.81l9.75-5.51,9.74,5.51c-.12.25-.19.52-.19.81s.07.57.19.82l-2.43,1.37v-2.28l-.08-.04-7.16-4.06v.28l-.07.05,6.99,3.96v2.27l-.9.51h.65l.25-.14v.14h.32v-.33l2.59-1.46c.35.5.94.82,1.6.82,1.07,0,1.95-.85,1.95-1.91,0-.29-.07-.56-.19-.81l7.78-4.4v8.09h.32v-8.27l4.19-2.37,4.18,2.37v8.27h.33v-8.09l7.78,4.4c-.12.25-.19.52-.19.81,0,1.06.87,1.91,1.95,1.91.66,0,1.24-.32,1.6-.82l2.58,1.46v.33h.33v-.14l.24.14h.65l-.89-.51v-2.27l11.86-6.72c.44.64,1.18,1.06,2.03,1.06.84,0,1.58-.42,2.02-1.06l11.86,6.72v2.27l-.89.51h.65l.24-.14v.14h.33v-.33l2.58-1.46c.35.5.94.82,1.6.82,1.08,0,1.95-.85,1.95-1.91,0-.29-.07-.56-.19-.81l7.78-4.4v8.09h.33v-8.27l4.18-2.37,4.19,2.37v8.27h.32v-8.09l4.46,2.52v-.36l-4.46-2.53v-2.28l4.46-2.52v-.37l-4.78,2.71v2.28l-4.19-2.37-4.18,2.37v-2.28l-.08-.05-9.63-5.44v-2.28l11.87-6.71c.44.64,1.18,1.06,2.02,1.06s1.59-.42,2.02-1.06l6.95,3.93v-.37l-6.78-3.84c.16-.31.24-.67.24-1.05,0-1.32-1.08-2.38-2.43-2.38-1.34,0-2.43,1.06-2.43,2.38,0,.38.09.74.25,1.05l-12.03,6.81v2.28l-2.42-1.37c.11-.25.18-.53.18-.82s-.07-.56-.18-.81l12.45-7.05v-13.44l4.18-2.37,4.19,2.37v13.44l.08.05,4.7,2.66v-.37l-4.46-2.52v-13.08l4.46,2.53v-.37l-4.46-2.52v-2.28l4.46-2.52v-.37l-4.78,2.71v2.27l-4.19-2.36-4.18,2.36v-2.27l-.08-.05-9.63-5.44v-2.28l11.87-6.71c.44.63,1.18,1.05,2.02,1.05s1.59-.42,2.02-1.05l6.95,3.93v-.37l-6.78-3.84c.16-.32.24-.67.24-1.05,0-1.32-1.08-2.39-2.43-2.39-1.34,0-2.43,1.07-2.43,2.39,0,.38.09.73.25,1.05l-12.03,6.81v2.27l-2.42-1.37c.11-.25.18-.52.18-.81s-.07-.57-.18-.82l12.45-7.04v-13.44l4.18-2.37,4.19,2.37v13.44l.08.04,4.7,2.67v-.37l-4.46-2.53v-13.07l4.46,2.53v-.37l-4.46-2.53v-2.27l4.46-2.53v-.36l-4.78,2.7v2.28l-4.19-2.37-4.18,2.37v-2.28l-.08-.04-9.63-5.45v-2.27l11.87-6.72c.44.64,1.18,1.06,2.02,1.06s1.59-.42,2.02-1.06l6.95,3.93v-.36l-6.78-3.84c.16-.32.24-.68.24-1.06,0-1.31-1.08-2.38-2.43-2.38-1.34,0-2.43,1.07-2.43,2.38,0,.38.09.74.25,1.06l-12.03,6.8v2.28l-2.42-1.37c.11-.25.18-.52.18-.82,0-.29-.07-.56-.18-.81l12.45-7.04v-13.45l4.18-2.36,4.19,2.36v13.45l.08.04,4.7,2.66v-.36l-4.46-2.53v-13.07l4.46,2.52v-.37l-4.46-2.52v-2.28l4.46-2.52v-.37l-4.78,2.71v2.28l-4.19-2.37-4.18,2.37v-2.28l-.08-.05-9.63-5.44v-2.28l11.87-6.71c.44.64,1.18,1.06,2.02,1.06s1.59-.42,2.02-1.06l6.95,3.93v-.37l-6.78-3.84c.16-.32.24-.67.24-1.05,0-1.32-1.08-2.39-2.43-2.39-1.34,0-2.43,1.07-2.43,2.39,0,.38.09.73.25,1.05l-12.03,6.81v2.28l-2.42-1.37c.11-.25.18-.53.18-.82s-.07-.57-.18-.81l12.45-7.05v-13.44l4.18-2.37,4.19,2.37v8.27h.32v-8.09l4.46,2.53v-.37l-4.46-2.52v-2.28l4.46-2.52v-.37l-4.78,2.71v2.27l-4.19-2.36-4.18,2.36v-2.27l-.08-.05-9.63-5.44v-2.28l11.87-6.71c.44.63,1.18,1.05,2.02,1.05s1.59-.42,2.02-1.05l6.95,3.93v-.37l-6.78-3.84c.16-.32.24-.67.24-1.05,0-1.32-1.08-2.39-2.43-2.39-1.34,0-2.43,1.07-2.43,2.39,0,.38.09.73.25,1.05l-12.03,6.81v2.27l-2.42-1.37c.11-.24.18-.52.18-.81s-.07-.57-.18-.81l12.45-7.05v-13.44l4.18-2.37,4.19,2.37v13.44l.08.05,4.7,2.66v-.37l-4.46-2.52v-13.08l4.46,2.53v-.37l-4.46-2.53v-2.27l4.46-2.53v-.36l-4.78,2.7v2.28l-4.19-2.37-4.18,2.37v-2.28l-.08-.04-9.63-5.45v-2.27l11.87-6.72c.44.64,1.18,1.06,2.02,1.06s1.59-.42,2.02-1.06l6.95,3.93v-.36l-6.78-3.84c.16-.32.24-.68.24-1.06ZM107.9,19.49v-11.44l2.59-1.47c.35.5.94.82,1.6.82,1.07,0,1.95-.85,1.95-1.91,0-.29-.07-.56-.19-.81l7.78-4.4v13.07l-12.29,6.96c-.32-.46-.84-.77-1.44-.82ZM79.54,13.35V.28l7.78,4.4c-.12.25-.19.52-.19.81,0,1.06.88,1.91,1.95,1.91.66,0,1.25-.32,1.6-.82l2.59,1.47v11.44c-.6.05-1.12.36-1.44.82l-12.29-6.96ZM24.03,194.41c-.6.05-1.12.36-1.44.81l-7.94-4.49v-2.28l9.38-5.3v11.26ZM177.14,183.15l9.38,5.3v2.28l-7.94,4.49c-.32-.45-.84-.76-1.44-.81v-11.26ZM172.8,8.05l2.58-1.47c.35.5.94.82,1.6.82,1.08,0,1.95-.85,1.95-1.91,0-.29-.07-.56-.19-.81l7.78-4.4v13.07l-12.29,6.96c-.32-.46-.84-.77-1.43-.82v-11.44ZM163.09,13.54l9.14-5.17.24-.14v11.26c-.59.05-1.11.36-1.43.82l-7.95-4.5v-2.27ZM163.09,16.18l7.78,4.4c-.11.25-.18.52-.18.82,0,1.05.87,1.9,1.95,1.9.66,0,1.24-.32,1.59-.82l2.59,1.47v11.44c-.6.05-1.12.36-1.44.82l-12.29-6.96v-13.07ZM154.4,29.44v-13.44l4.19-2.37,4.18,2.37v13.44l.08.04,12.37,7c-.12.25-.19.53-.19.82s.07.56.19.81l-2.42,1.37v-2.27l-.08-.05-11.95-6.76c.16-.32.25-.68.25-1.05,0-.66-.27-1.26-.71-1.69s-1.05-.7-1.72-.7c-1.35,0-2.44,1.07-2.44,2.39,0,.37.09.73.25,1.05l-12.03,6.81v2.27l-2.42-1.37c.12-.25.18-.52.18-.81s-.06-.57-.18-.82l12.45-7.04ZM162.77,45.16v2.27l-4.18-2.37-4.19,2.37v-2.27l-.08-.05-9.62-5.45v-2.27l11.86-6.72c.44.64,1.18,1.06,2.03,1.06.84,0,1.58-.42,2.02-1.06l11.86,6.72v2.27l-9.7,5.5ZM172.47,40.03v11.27c-.59.04-1.11.36-1.43.81l-7.95-4.49v-2.28l9.38-5.31ZM175.22,69.91l-2.42,1.38v-2.28l-.08-.05-11.95-6.76c.16-.32.25-.67.25-1.05,0-1.32-1.09-2.39-2.43-2.39-.68,0-1.29.27-1.73.7-.44.44-.71,1.03-.71,1.69,0,.38.09.73.25,1.05l-12.03,6.81v2.28l-2.42-1.38c.12-.24.18-.52.18-.81s-.06-.57-.18-.81l12.45-7.05v-13.44l4.19-2.37,4.18,2.37v13.44l.08.05,12.37,7c-.12.24-.19.52-.19.81s.07.57.19.81ZM171.58,71.97l-8.81,4.99v2.27l-4.18-2.36-4.19,2.36v-2.27l-.08-.05-8.73-4.94-.89-.5v-2.28l11.86-6.71c.44.64,1.18,1.06,2.03,1.06.84,0,1.58-.42,2.02-1.06l11.86,6.71v2.28l-.89.5ZM172.47,71.84v11.26c-.59.05-1.11.36-1.43.81l-7.95-4.49v-2.28l9.14-5.17.24-.13ZM175.22,101.72l-2.42,1.37v-2.28l-.08-.04-11.95-6.77c.16-.31.25-.67.25-1.05,0-.66-.27-1.25-.71-1.68-.44-.44-1.05-.7-1.72-.7-1.35,0-2.44,1.07-2.44,2.38,0,.38.09.74.25,1.05l-12.03,6.81v2.28l-2.42-1.37c.12-.25.18-.53.18-.82s-.06-.56-.18-.81l12.45-7.05v-13.44l4.19-2.37,4.18,2.37v13.44l.08.05,12.37,7c-.12.25-.19.52-.19.81s.07.57.19.82ZM162.77,108.76v2.28l-4.18-2.37-4.19,2.37v-2.28l-.08-.04-9.62-5.45v-2.28l11.86-6.71c.44.64,1.18,1.06,2.03,1.06.84,0,1.58-.42,2.02-1.06l11.86,6.71v2.28l-9.7,5.49ZM172.47,103.64v11.26c-.59.05-1.11.36-1.43.82l-7.95-4.5v-2.27l9.38-5.31ZM175.22,133.52l-2.42,1.37v-2.27l-.08-.05-11.95-6.76c.16-.32.25-.68.25-1.05,0-1.32-1.09-2.39-2.43-2.39-.68,0-1.29.27-1.73.7s-.71,1.03-.71,1.69c0,.37.09.73.25,1.05l-12.03,6.81v2.27l-2.42-1.37c.12-.25.18-.52.18-.81s-.06-.57-.18-.82l12.45-7.04v-13.44l4.19-2.37,4.18,2.37v13.44l.08.04,12.37,7c-.12.25-.19.53-.19.82s.07.56.19.81ZM171.58,135.58l-8.81,4.98v2.28l-4.18-2.37-4.19,2.37v-2.28l-.08-.04-8.73-4.94-.89-.51v-2.27l11.86-6.72c.44.64,1.18,1.06,2.03,1.06.84,0,1.58-.42,2.02-1.06l11.86,6.72v2.27l-.89.51ZM172.47,135.44v11.27c-.59.04-1.11.36-1.43.81l-7.95-4.49v-2.28l9.14-5.17.24-.14ZM175.22,165.32l-2.42,1.38v-2.28l-.08-.05-11.95-6.76c.16-.32.25-.67.25-1.05,0-.66-.27-1.26-.71-1.69s-1.05-.7-1.72-.7c-1.35,0-2.44,1.07-2.44,2.39,0,.38.09.73.25,1.05l-12.03,6.81v2.28l-2.42-1.38c.12-.24.18-.52.18-.81s-.06-.57-.18-.81l12.45-7.05v-13.44l4.19-2.37,4.18,2.37v13.44l.08.05,12.37,7c-.12.24-.19.52-.19.81s.07.57.19.81ZM162.77,172.37v2.27l-4.18-2.36-4.19,2.36v-2.27l-.08-.05-9.62-5.44v-2.28l11.86-6.71c.44.63,1.18,1.05,2.03,1.05.84,0,1.58-.42,2.02-1.05l11.86,6.71v2.28l-9.7,5.49ZM172.47,167.25v11.26c-.59.05-1.11.36-1.43.81l-7.95-4.49v-2.28l9.38-5.3ZM154.07,172.55v2.28l-7.94,4.49c-.32-.45-.84-.76-1.43-.81v-11.26l9.37,5.3ZM121.87,156.42l-9.62-5.44v-2.28l11.87-6.71c.43.63,1.18,1.05,2.02,1.05s1.58-.42,2.02-1.05l11.87,6.71v2.28l-9.71,5.49v2.27l-4.18-2.36-4.19,2.36v-2.27l-.08-.05ZM109.5,84.19l12.45-7.05v-13.44l4.19-2.37,4.18,2.37v13.44l.08.05,12.37,7c-.12.24-.18.52-.18.81s.06.57.18.82l-2.42,1.37v-2.28l-.08-.05-11.95-6.76c.16-.32.25-.67.25-1.05,0-1.32-1.09-2.39-2.43-2.39-1.35,0-2.44,1.07-2.44,2.39,0,.38.09.74.25,1.05l-12.02,6.81v2.28l-2.43-1.37c.12-.25.19-.53.19-.82s-.07-.57-.19-.81ZM146.48,53.2c0-.29-.06-.57-.18-.81l7.77-4.41v13.08l-12.28,6.95c-.33-.45-.85-.76-1.44-.81v-11.45l2.59-1.46c.35.49.93.82,1.6.82,1.07,0,1.94-.86,1.94-1.91ZM144.7,51.3v-11.27l9.37,5.31v2.28l-7.94,4.49c-.32-.45-.84-.77-1.43-.81ZM141.79,70.19l2.58,1.46v11.45c-.59.05-1.11.36-1.43.81l-12.29-6.95v-13.08l7.78,4.41c-.12.24-.19.52-.19.81,0,1.05.87,1.91,1.95,1.91.66,0,1.24-.33,1.6-.82ZM146.48,85c0-.29-.06-.57-.18-.81l7.77-4.4v13.07l-12.28,6.95c-.33-.45-.85-.76-1.44-.81v-11.45l2.59-1.46c.35.5.93.82,1.6.82,1.07,0,1.94-.86,1.94-1.91ZM144.7,83.1v-11.26l.24.13,9.13,5.17v2.28l-7.94,4.49c-.32-.45-.84-.76-1.43-.81ZM146.48,116.8c0-.29-.06-.56-.18-.81l7.77-4.4v13.07l-12.28,6.96c-.33-.46-.85-.77-1.44-.81v-11.45l2.59-1.47c.35.5.93.82,1.6.82,1.07,0,1.94-.85,1.94-1.91ZM144.7,114.9v-11.26l9.37,5.31v2.27l-7.94,4.5c-.32-.46-.84-.77-1.43-.82ZM146.48,148.61c0-.29-.06-.57-.18-.82l7.77-4.4v13.08l-12.28,6.95c-.33-.45-.85-.76-1.44-.81v-11.45l2.59-1.46c.35.49.93.82,1.6.82,1.07,0,1.94-.86,1.94-1.91ZM144.7,146.71v-11.27l.24.14,9.13,5.17v2.28l-7.94,4.49c-.32-.45-.84-.77-1.43-.81ZM144.37,146.71c-.59.04-1.11.35-1.43.81l-12.29-6.96v-13.07l7.78,4.4c-.12.25-.19.53-.19.82,0,1.05.87,1.91,1.95,1.91.66,0,1.24-.33,1.6-.82l2.58,1.46v11.45ZM121.87,124.62l-9.62-5.45v-2.27l11.87-6.72c.43.64,1.18,1.06,2.02,1.06s1.58-.42,2.02-1.06l11.87,6.72v2.27l-9.71,5.49v2.28l-4.18-2.37-4.19,2.37v-2.28l-.08-.04ZM121.63,124.85v2.27l-7.94,4.5c-.33-.46-.84-.77-1.44-.81v-11.27l9.38,5.31ZM140.03,119.54v11.27c-.6.04-1.12.35-1.44.81l-7.94-4.5v-2.27l9.38-5.31ZM144.37,114.9c-.59.05-1.11.36-1.43.82l-12.29-6.96v-13.07l7.78,4.4c-.12.25-.19.52-.19.81,0,1.06.87,1.91,1.95,1.91.66,0,1.25-.32,1.6-.82l2.58,1.46v11.45ZM121.87,92.81l-9.62-5.44v-2.28l11.87-6.71c.43.64,1.17,1.06,2.02,1.06.84,0,1.58-.42,2.02-1.06l11.87,6.71v2.28l-9.71,5.49v2.28l-4.18-2.37-4.19,2.37v-2.28l-.08-.05ZM121.63,93.04v2.28l-7.94,4.49c-.33-.45-.84-.76-1.44-.81v-11.26l9.38,5.3ZM140.03,87.74v11.26c-.6.05-1.12.36-1.44.81l-7.94-4.49v-2.28l9.38-5.3ZM130.65,63.52v-2.28l9.38-5.31v11.27c-.6.05-1.12.36-1.44.81l-7.94-4.49ZM140.03,55.57l-9.71,5.49v2.27l-4.18-2.36-4.19,2.36v-2.27l-.08-.05-9.62-5.44v-2.28l11.87-6.71c.43.63,1.18,1.05,2.02,1.05s1.58-.42,2.02-1.05l11.87,6.71v2.28ZM121.63,61.24v2.28l-7.94,4.49c-.33-.45-.84-.76-1.44-.81v-11.26l9.38,5.3ZM112.09,102.81c1.07,0,1.95-.85,1.95-1.91,0-.29-.07-.56-.19-.81l7.78-4.4v13.07l-12.29,6.96c-.32-.46-.84-.77-1.44-.82v-11.45l2.59-1.46c.35.5.94.82,1.6.82ZM109.5,115.99l12.45-7.04v-13.45l4.19-2.36,4.18,2.36v13.45l.08.04,12.37,7c-.12.25-.18.52-.18.81,0,.3.06.57.18.82l-2.42,1.37v-2.28l-.08-.04-11.95-6.76c.16-.32.25-.68.25-1.06,0-1.31-1.09-2.38-2.43-2.38-1.35,0-2.44,1.07-2.44,2.38,0,.38.09.74.25,1.06l-12.02,6.8v2.28l-2.43-1.37c.12-.25.19-.52.19-.82,0-.29-.07-.56-.19-.81ZM112.09,134.62c1.07,0,1.95-.86,1.95-1.91,0-.29-.07-.57-.19-.82l7.78-4.4v13.07l-12.29,6.96c-.32-.45-.84-.77-1.44-.81v-11.45l2.59-1.46c.35.49.94.82,1.6.82ZM109.5,147.79l12.45-7.04v-13.44l4.19-2.37,4.18,2.37v13.44l.08.04,12.37,7c-.12.25-.18.53-.18.82s.06.56.18.81l-2.42,1.37v-2.27l-.08-.05-11.95-6.76c.16-.32.25-.67.25-1.05,0-1.32-1.09-2.39-2.43-2.39-1.35,0-2.44,1.07-2.44,2.39,0,.38.09.73.25,1.05l-12.02,6.81v2.27l-2.43-1.37c.12-.25.19-.52.19-.81s-.07-.57-.19-.82ZM112.09,166.42c1.07,0,1.95-.86,1.95-1.91,0-.29-.07-.57-.19-.81l7.78-4.41v13.08l-12.29,6.95c-.32-.45-.84-.76-1.44-.81v-11.45l2.59-1.46c.35.49.94.82,1.6.82ZM113.69,163.42c-.33-.45-.84-.76-1.44-.81v-11.27l9.38,5.31v2.28l-7.94,4.49ZM140.03,151.34v11.27c-.6.05-1.12.36-1.44.81l-7.94-4.49v-2.28l9.38-5.31ZM130.65,159.29l7.78,4.41c-.12.24-.19.52-.19.81,0,1.05.87,1.91,1.95,1.91.66,0,1.24-.33,1.6-.82l2.58,1.46v11.45c-.59.05-1.11.36-1.43.81l-12.29-6.95v-13.08ZM144.7,8.23l.24.14,9.13,5.17v2.27l-7.94,4.5c-.32-.46-.84-.77-1.43-.82v-11.26ZM130.65,13.35V.28l7.78,4.4c-.12.25-.19.52-.19.81,0,1.06.87,1.91,1.95,1.91.66,0,1.24-.32,1.6-.82l2.58,1.47v11.44c-.59.05-1.11.36-1.43.82l-12.29-6.96ZM140.35,23.95l2.59-1.47c.35.5.93.82,1.6.82,1.07,0,1.94-.85,1.94-1.9,0-.3-.06-.57-.18-.82l7.77-4.4v13.07l-12.28,6.96c-.33-.46-.85-.77-1.44-.82v-11.44ZM141.79,38.39l2.58,1.46v11.45c-.59.04-1.11.36-1.43.81l-12.29-6.95v-13.08l7.78,4.4c-.12.25-.19.53-.19.82,0,1.05.87,1.91,1.95,1.91.66,0,1.24-.33,1.6-.82ZM130.65,31.71v-2.27l9.38-5.31v11.26c-.6.05-1.12.36-1.44.82l-7.94-4.5ZM112.25,21.49l11.87-6.72c.43.64,1.18,1.06,2.02,1.06s1.58-.42,2.02-1.06l11.87,6.72v2.27l-9.71,5.49v2.28l-4.18-2.37-4.19,2.37v-2.28l-.08-.04-9.62-5.45v-2.27ZM112.25,24.13l9.38,5.31v2.27l-7.94,4.5c-.33-.46-.84-.77-1.44-.82v-11.26ZM107.9,51.3v-11.45l2.59-1.46c.35.49.94.82,1.6.82,1.07,0,1.95-.86,1.95-1.91,0-.29-.07-.57-.19-.82l7.78-4.4v13.08l-12.29,6.95c-.32-.45-.84-.77-1.44-.81ZM109.5,54.01c.12-.24.19-.52.19-.81s-.07-.57-.19-.81l12.45-7.05v-13.44l4.19-2.37,4.18,2.37v13.44l.08.05,12.37,6.99c-.12.25-.18.53-.18.82s.06.57.18.81l-2.42,1.37v-2.27l-.08-.05-11.95-6.76c.16-.32.25-.67.25-1.05,0-1.32-1.09-2.39-2.43-2.39-1.35,0-2.44,1.07-2.44,2.39,0,.38.09.73.25,1.05l-12.02,6.81v2.27l-2.43-1.37ZM112.09,71.01c1.07,0,1.95-.86,1.95-1.91,0-.29-.07-.57-.19-.81l7.78-4.41v13.08l-12.29,6.95c-.32-.45-.84-.76-1.44-.81v-11.45l2.59-1.46c.35.49.94.82,1.6.82ZM90.68,70.19l2.59,1.46v11.45c-.6.05-1.12.36-1.44.81l-12.29-6.95v-13.08l7.78,4.41c-.12.24-.19.52-.19.81,0,1.05.88,1.91,1.95,1.91.66,0,1.25-.33,1.6-.82ZM91.67,85.82l-2.43,1.37v-2.28l-12.02-6.81c.16-.31.25-.67.25-1.05,0-1.32-1.09-2.39-2.44-2.39-1.34,0-2.43,1.07-2.43,2.39,0,.38.09.73.25,1.05l-11.95,6.76-.08.05v2.28l-2.42-1.37c.12-.25.18-.53.18-.82s-.06-.57-.18-.81l12.37-7,.08-.05v-13.44l4.18-2.37,4.19,2.37v13.44l12.45,7.05c-.12.24-.19.52-.19.81s.07.57.19.82ZM91.67,117.62l-2.43,1.37v-2.28l-12.02-6.8c.16-.32.25-.68.25-1.06,0-1.31-1.09-2.38-2.44-2.38-1.34,0-2.43,1.07-2.43,2.38,0,.38.09.74.25,1.06l-11.95,6.76-.08.04v2.28l-2.42-1.37c.12-.25.18-.52.18-.82,0-.29-.06-.56-.18-.81l12.37-7,.08-.04v-13.45l4.18-2.36,4.19,2.36v13.45l12.45,7.04c-.12.25-.19.52-.19.81,0,.3.07.57.19.82ZM91.67,149.42l-2.43,1.37v-2.27l-12.02-6.81c.16-.32.25-.67.25-1.05,0-1.32-1.09-2.39-2.44-2.39-1.34,0-2.43,1.07-2.43,2.39,0,.38.09.73.25,1.05l-11.95,6.76-.08.05v2.27l-2.42-1.37c.12-.25.18-.52.18-.81s-.06-.57-.18-.82l12.37-7,.08-.04v-13.44l4.18-2.37,4.19,2.37v13.44l12.45,7.04c-.12.25-.19.53-.19.82s.07.56.19.81ZM61.14,150.98v-2.28l11.87-6.71c.44.63,1.18,1.05,2.02,1.05s1.59-.42,2.02-1.05l11.87,6.71v2.28l-9.62,5.44-.08.05v2.27l-4.19-2.36-4.18,2.36v-2.27l-9.71-5.49ZM46.85,172.32l-.08.05v2.27l-4.18-2.36-4.19,2.36v-2.27l-9.7-5.49v-2.28l11.86-6.71c.44.63,1.18,1.05,2.03,1.05.84,0,1.58-.42,2.02-1.05l11.86,6.71v2.28l-9.62,5.44ZM56.47,167.25v11.26c-.59.05-1.11.36-1.43.81l-7.95-4.49v-2.28l9.38-5.3ZM38.08,172.55v2.28l-7.95,4.49c-.32-.45-.84-.76-1.43-.81v-11.26l9.38,5.3ZM44.77,157.61c.16-.32.25-.67.25-1.05,0-1.32-1.09-2.39-2.43-2.39-.68,0-1.29.27-1.73.7s-.71,1.03-.71,1.69c0,.38.09.73.25,1.05l-11.94,6.76-.09.05v2.28l-2.42-1.38c.12-.24.19-.52.19-.81s-.07-.57-.19-.81l12.37-7,.08-.05v-13.44l4.19-2.37,4.18,2.37v13.44l12.45,7.05c-.12.24-.18.52-.18.81s.06.57.18.81l-2.42,1.38v-2.28l-12.03-6.81ZM25.95,131.89l12.37-7,.08-.04v-13.44l4.19-2.37,4.18,2.37v13.44l12.45,7.04c-.12.25-.18.53-.18.82s.06.56.18.81l-2.42,1.37v-2.27l-12.03-6.81c.16-.32.25-.68.25-1.05,0-.66-.27-1.26-.71-1.69s-1.05-.7-1.72-.7c-1.35,0-2.44,1.07-2.44,2.39,0,.37.09.73.25,1.05l-11.94,6.76-.09.05v2.27l-2.42-1.37c.12-.25.19-.52.19-.81s-.07-.57-.19-.82ZM25.95,100.09l12.37-7,.08-.05v-13.44l4.19-2.37,4.18,2.37v13.44l12.45,7.05c-.12.25-.18.52-.18.81s.06.57.18.82l-2.42,1.37v-2.28l-12.03-6.81c.16-.31.25-.67.25-1.05,0-1.31-1.09-2.38-2.43-2.38-.68,0-1.29.26-1.73.7-.44.43-.71,1.02-.71,1.68,0,.38.09.74.25,1.05l-11.94,6.77-.09.04v2.28l-2.42-1.37c.12-.25.19-.53.19-.82s-.07-.56-.19-.81ZM25.95,68.29l12.37-7,.08-.05v-13.44l4.19-2.37,4.18,2.37v13.44l12.45,7.05c-.12.24-.18.52-.18.81s.06.57.18.81l-2.42,1.38v-2.28l-12.03-6.81c.16-.32.25-.67.25-1.05,0-.66-.27-1.25-.71-1.69-.44-.43-1.05-.7-1.72-.7-1.35,0-2.44,1.07-2.44,2.39,0,.38.09.73.25,1.05l-11.94,6.76-.09.05v2.28l-2.42-1.38c.12-.24.19-.52.19-.81s-.07-.57-.19-.81ZM79.3,61.01l-.08.05v2.27l-4.19-2.36-4.18,2.36v-2.27l-9.71-5.49v-2.28l11.87-6.71c.44.63,1.18,1.05,2.02,1.05s1.59-.42,2.02-1.05l11.87,6.71v2.28l-9.62,5.44ZM88.92,55.94v11.26c-.6.05-1.11.36-1.44.81l-7.94-4.49v-2.28l9.38-5.3ZM70.52,61.24v2.28l-7.94,4.49c-.32-.45-.84-.76-1.44-.81v-11.27l9.38,5.31ZM62.93,69.1c0-.29-.07-.57-.19-.81l7.78-4.41v13.08l-12.28,6.95c-.33-.45-.85-.76-1.44-.81v-11.45l2.58-1.46c.35.49.94.82,1.6.82,1.08,0,1.95-.86,1.95-1.91ZM79.3,92.81l-.08.05v2.28l-4.19-2.37-4.18,2.37v-2.28l-9.71-5.49v-2.28l11.87-6.71c.44.64,1.18,1.06,2.02,1.06s1.59-.42,2.02-1.06l11.87,6.71v2.28l-9.62,5.44ZM88.92,87.74v11.26c-.6.05-1.11.36-1.44.81l-7.94-4.49v-2.28l9.38-5.3ZM70.52,93.04v2.28l-7.94,4.49c-.32-.45-.84-.76-1.44-.81v-11.26l9.38,5.3ZM62.93,100.9c0-.29-.07-.56-.19-.81l7.78-4.4v13.07l-12.28,6.96c-.33-.46-.85-.77-1.44-.82v-11.45l2.58-1.46c.35.5.94.82,1.6.82,1.08,0,1.95-.85,1.95-1.91ZM79.3,124.62l-.08.04v2.28l-4.19-2.37-4.18,2.37v-2.28l-9.71-5.49v-2.27l11.87-6.72c.44.64,1.18,1.06,2.02,1.06s1.59-.42,2.02-1.06l11.87,6.72v2.27l-9.62,5.45ZM88.92,119.54v11.27c-.6.04-1.11.35-1.44.81l-7.94-4.5v-2.27l9.38-5.31ZM70.52,124.85v2.27l-7.94,4.5c-.32-.46-.84-.77-1.44-.81v-11.27l9.38,5.31ZM62.93,132.71c0-.29-.07-.57-.19-.82l7.78-4.4v13.07l-12.28,6.96c-.33-.46-.85-.77-1.44-.81v-11.45l2.58-1.46c.35.49.94.82,1.6.82,1.08,0,1.95-.86,1.95-1.91ZM29.59,135.58l-.89-.51v-2.27l11.86-6.72c.44.64,1.18,1.06,2.03,1.06.84,0,1.58-.42,2.02-1.06l11.86,6.72v2.27l-.89.51-8.73,4.94-.08.04v2.28l-4.18-2.37-4.19,2.37v-2.28l-8.81-4.98ZM56.47,135.44v11.27c-.59.04-1.11.36-1.43.81l-7.95-4.49v-2.28l9.14-5.17.24-.14ZM47.09,143.39l7.78,4.4c-.11.25-.18.53-.18.82,0,1.05.87,1.91,1.95,1.91.66,0,1.24-.33,1.6-.82l2.58,1.46v11.45c-.6.05-1.11.36-1.44.81l-12.29-6.95v-13.08ZM60.82,130.81c-.59.04-1.11.35-1.44.81l-12.29-6.96v-13.07l7.78,4.4c-.11.25-.18.52-.18.81,0,1.06.87,1.91,1.95,1.91.66,0,1.24-.32,1.6-.82l2.58,1.47v11.45ZM28.7,103.27v-2.28l11.86-6.71c.44.64,1.18,1.06,2.03,1.06.84,0,1.58-.42,2.02-1.06l11.86,6.71v2.28l-9.62,5.45-.08.04v2.28l-4.18-2.37-4.19,2.37v-2.28l-9.7-5.49ZM56.47,103.64v11.26c-.59.05-1.11.36-1.43.82l-7.95-4.5v-2.27l9.38-5.31ZM60.82,99c-.59.05-1.11.36-1.44.81l-12.29-6.95v-13.07l7.78,4.4c-.11.24-.18.52-.18.81,0,1.05.87,1.91,1.95,1.91.66,0,1.24-.32,1.6-.82l2.58,1.46v11.45ZM29.59,71.97l-.89-.5v-2.28l11.86-6.71c.44.64,1.18,1.06,2.03,1.06.84,0,1.58-.42,2.02-1.06l11.86,6.71v2.28l-.89.5-8.73,4.94-.08.05v2.27l-4.18-2.36-4.19,2.36v-2.27l-8.81-4.99ZM56.47,71.84v11.26c-.59.05-1.11.36-1.43.81l-7.95-4.49v-2.28l9.14-5.17.24-.13ZM60.82,67.2c-.6.05-1.11.36-1.44.81l-12.29-6.95v-13.08l7.78,4.41c-.11.24-.18.52-.18.81,0,1.05.87,1.91,1.95,1.91.66,0,1.24-.33,1.6-.82l2.58,1.46v11.45ZM47.09,47.62v-2.28l9.38-5.31v11.27c-.59.04-1.11.36-1.43.81l-7.95-4.49ZM56.47,39.66l-9.62,5.45-.08.05v2.27l-4.18-2.37-4.19,2.37v-2.27l-9.7-5.5v-2.27l11.86-6.72c.44.64,1.18,1.06,2.03,1.06.84,0,1.58-.42,2.02-1.06l11.86,6.72v2.27ZM38.08,45.34v2.28l-7.95,4.49c-.32-.45-.84-.77-1.43-.81v-11.27l9.38,5.31ZM28.7,71.84l.24.13,9.14,5.17v2.28l-7.95,4.49c-.32-.45-.84-.76-1.43-.81v-11.26ZM28.7,103.64l9.38,5.31v2.27l-7.95,4.5c-.32-.46-.84-.77-1.43-.82v-11.26ZM28.7,135.44l.24.14,9.14,5.17v2.28l-7.95,4.49c-.32-.45-.84-.77-1.43-.81v-11.27ZM56.8,167.06l2.58-1.46c.35.49.94.82,1.6.82,1.08,0,1.95-.86,1.95-1.91,0-.29-.07-.57-.19-.81l7.78-4.41v13.08l-12.28,6.95c-.33-.45-.85-.76-1.44-.81v-11.45ZM62.58,163.42c-.32-.45-.84-.76-1.44-.81v-11.27l9.38,5.31v2.28l-7.94,4.49ZM88.92,151.34v11.27c-.6.05-1.11.36-1.44.81l-7.94-4.49v-2.28l9.38-5.31ZM79.54,159.29l7.78,4.41c-.12.24-.19.52-.19.81,0,1.05.88,1.91,1.95,1.91.66,0,1.25-.33,1.6-.82l2.59,1.46v11.45c-.6.05-1.12.36-1.44.81l-12.29-6.95v-13.08ZM79.54,140.56v-13.07l7.78,4.4c-.12.25-.19.53-.19.82,0,1.05.88,1.91,1.95,1.91.66,0,1.25-.33,1.6-.82l2.59,1.46v11.45c-.6.04-1.12.36-1.44.81l-12.29-6.96ZM79.54,108.76v-13.07l7.78,4.4c-.12.25-.19.52-.19.81,0,1.06.88,1.91,1.95,1.91.66,0,1.25-.32,1.6-.82l2.59,1.46v11.45c-.6.05-1.12.36-1.44.82l-12.29-6.96ZM91.67,54.01l-2.43,1.37v-2.27l-12.02-6.81c.16-.32.25-.67.25-1.05,0-1.32-1.09-2.39-2.44-2.39-1.34,0-2.43,1.07-2.43,2.39,0,.38.09.73.25,1.05l-11.95,6.76-.08.05v2.27l-2.42-1.37c.12-.24.18-.52.18-.81s-.06-.57-.18-.82l12.37-6.99.08-.05v-13.44l4.18-2.37,4.19,2.37v13.44l12.45,7.05c-.12.24-.19.52-.19.81s.07.57.19.81ZM90.68,38.39l2.59,1.46v11.45c-.6.04-1.12.36-1.44.81l-12.29-6.95v-13.08l7.78,4.4c-.12.25-.19.53-.19.82,0,1.05.88,1.91,1.95,1.91.66,0,1.25-.33,1.6-.82ZM79.54,31.71v-2.27l9.38-5.31v11.26c-.6.05-1.11.36-1.44.82l-7.94-4.5ZM61.14,21.49l11.87-6.72c.44.64,1.18,1.06,2.02,1.06s1.59-.42,2.02-1.06l11.87,6.72v2.27l-9.62,5.45-.08.04v2.28l-4.19-2.37-4.18,2.37v-2.28l-9.71-5.49v-2.27ZM61.14,24.13l9.38,5.31v2.27l-7.94,4.5c-.32-.46-.84-.77-1.44-.82v-11.26ZM60.98,39.21c1.08,0,1.95-.86,1.95-1.91,0-.29-.07-.57-.19-.82l7.78-4.4v13.08l-12.28,6.95c-.33-.45-.85-.77-1.44-.81v-11.45l2.58-1.46c.35.49.94.82,1.6.82ZM56.8,8.05l2.58-1.47c.35.5.94.82,1.6.82,1.08,0,1.95-.85,1.95-1.91,0-.29-.07-.56-.19-.81l7.78-4.4v13.07l-12.28,6.96c-.33-.46-.85-.77-1.44-.82v-11.44ZM47.09,13.54l9.14-5.17.24-.14v11.26c-.59.05-1.11.36-1.43.82l-7.95-4.5v-2.27ZM47.09,16.18l7.78,4.4c-.11.25-.18.52-.18.82,0,1.05.87,1.9,1.95,1.9.66,0,1.24-.32,1.6-.82l2.58,1.47v11.44c-.6.05-1.11.36-1.44.82l-12.29-6.96v-13.07ZM38.4,29.44v-13.44l4.19-2.37,4.18,2.37v13.44l12.45,7.04c-.12.25-.18.53-.18.82s.06.56.18.81l-2.42,1.37v-2.27l-12.03-6.81c.16-.32.25-.68.25-1.05,0-1.32-1.09-2.39-2.43-2.39-.68,0-1.29.27-1.73.7s-.71,1.03-.71,1.69c0,.37.09.73.25,1.05l-11.94,6.76-.09.05v2.27l-2.42-1.37c.12-.25.19-.52.19-.81s-.07-.57-.19-.82l12.37-7,.08-.04ZM28.7,8.23l.24.14,9.14,5.17v2.27l-7.95,4.5c-.32-.46-.84-.77-1.43-.82v-11.26ZM14.65,13.35V.28l7.78,4.4c-.12.25-.19.52-.19.81,0,1.06.87,1.91,1.95,1.91.66,0,1.25-.32,1.6-.82l2.58,1.47v11.44c-.59.05-1.11.36-1.43.82l-12.29-6.96ZM24.35,23.95l2.59-1.47c.35.5.93.82,1.6.82,1.07,0,1.94-.85,1.94-1.9,0-.3-.06-.57-.18-.82l7.78-4.4v13.07l-12.29,6.96c-.33-.46-.84-.77-1.44-.82v-11.44ZM14.65,29.44l9.38-5.31v11.26c-.6.05-1.12.36-1.44.82l-7.94-4.5v-2.27ZM14.65,45.16v-13.08l7.78,4.4c-.12.25-.19.53-.19.82,0,1.05.87,1.91,1.95,1.91.66,0,1.25-.33,1.6-.82l2.58,1.46v11.45c-.59.04-1.11.36-1.43.81l-12.29-6.95ZM24.35,55.75l2.59-1.46c.35.49.93.82,1.6.82,1.07,0,1.94-.86,1.94-1.91,0-.29-.06-.57-.18-.82l7.78-4.4v13.08l-12.29,6.95c-.33-.45-.84-.76-1.44-.81v-11.45ZM14.65,61.24l9.38-5.31v11.27c-.6.05-1.12.36-1.44.81l-7.94-4.49v-2.28ZM14.65,76.96v-13.08l7.78,4.41c-.12.24-.19.52-.19.81,0,1.05.87,1.91,1.95,1.91.66,0,1.25-.33,1.6-.82l2.58,1.46v11.45c-.59.05-1.11.36-1.43.81l-12.29-6.95ZM24.35,87.55l2.59-1.46c.35.5.93.82,1.6.82,1.07,0,1.94-.86,1.94-1.91,0-.29-.06-.57-.18-.81l7.78-4.4v13.07l-12.29,6.95c-.33-.45-.84-.76-1.44-.81v-11.45ZM14.65,93.04l9.38-5.3v11.26c-.6.05-1.12.36-1.44.81l-7.94-4.49v-2.28ZM14.65,108.76v-13.07l7.78,4.4c-.12.25-.19.52-.19.81,0,1.06.87,1.91,1.95,1.91.66,0,1.25-.32,1.6-.82l2.58,1.46v11.45c-.59.05-1.11.36-1.43.82l-12.29-6.96ZM24.35,119.36l2.59-1.47c.35.5.93.82,1.6.82,1.07,0,1.94-.85,1.94-1.91,0-.29-.06-.56-.18-.81l7.78-4.4v13.07l-12.29,6.96c-.33-.46-.84-.77-1.44-.81v-11.45ZM14.65,124.85l9.38-5.31v11.27c-.6.04-1.12.35-1.44.81l-7.94-4.5v-2.27ZM14.65,140.56v-13.07l7.78,4.4c-.12.25-.19.53-.19.82,0,1.05.87,1.91,1.95,1.91.66,0,1.25-.33,1.6-.82l2.58,1.46v11.45c-.59.04-1.11.36-1.43.81l-12.29-6.96ZM24.35,151.16l2.59-1.46c.35.49.93.82,1.6.82,1.07,0,1.94-.86,1.94-1.91,0-.29-.06-.57-.18-.82l7.78-4.4v13.08l-12.29,6.95c-.33-.45-.84-.76-1.44-.81v-11.45ZM14.65,156.65l9.38-5.31v11.27c-.6.05-1.12.36-1.44.81l-7.94-4.49v-2.28ZM14.65,172.37v-13.08l7.78,4.41c-.12.24-.19.52-.19.81,0,1.05.87,1.91,1.95,1.91.66,0,1.25-.33,1.6-.82l2.58,1.46v11.45c-.59.05-1.11.36-1.43.81l-12.29-6.95ZM24.35,194.41v-11.45l2.59-1.46c.35.5.93.82,1.6.82,1.07,0,1.94-.86,1.94-1.91,0-.29-.06-.57-.18-.81l7.78-4.4v13.07l-12.29,6.95c-.33-.45-.84-.76-1.44-.81ZM59.22,197.13l-2.42,1.37v-2.28l-12.03-6.81c.16-.31.25-.67.25-1.05,0-.66-.27-1.25-.71-1.68s-1.05-.7-1.72-.7c-1.35,0-2.44,1.07-2.44,2.38,0,.38.09.74.25,1.05l-11.94,6.77-.09.04v2.28l-2.42-1.37c.12-.25.19-.53.19-.82s-.07-.56-.19-.81l12.37-7,.08-.05v-13.44l4.19-2.37,4.18,2.37v13.44l12.45,7.05c-.12.25-.18.52-.18.81s.06.57.18.82ZM60.82,194.41c-.6.05-1.11.36-1.44.81l-12.29-6.95v-13.07l7.78,4.4c-.11.25-.18.52-.18.81,0,1.05.87,1.91,1.95,1.91.66,0,1.24-.32,1.6-.82l2.58,1.46v11.45ZM70.52,190.73l-7.94,4.49c-.32-.45-.84-.76-1.44-.81v-11.26l9.38,5.3v2.28ZM88.92,194.41c-.6.05-1.11.36-1.44.81l-7.94-4.49v-2.28l9.38-5.3v11.26ZM88.92,182.78l-9.62,5.44-.08.05v2.28l-4.19-2.37-4.18,2.37v-2.28l-9.71-5.49v-2.28l11.87-6.71c.44.64,1.18,1.06,2.02,1.06s1.59-.42,2.02-1.06l11.87,6.71v2.28ZM77.22,173.51c.16-.31.25-.67.25-1.05,0-1.32-1.09-2.38-2.44-2.38-1.34,0-2.43,1.06-2.43,2.38,0,.38.09.74.25,1.05l-11.95,6.76-.08.05v2.28l-2.42-1.37c.12-.25.18-.53.18-.82s-.06-.56-.18-.81l12.37-7,.08-.05v-13.44l4.18-2.37,4.19,2.37v13.44l12.45,7.05c-.12.25-.19.52-.19.81s.07.57.19.82l-2.43,1.37v-2.28l-12.02-6.81ZM111.93,194.41c-.6.05-1.12.36-1.44.81l-9.83-5.56-.07-.04-.08.04-9.83,5.56c-.32-.45-.84-.76-1.44-.81v-11.45l2.59-1.46c.35.5.94.82,1.6.82,1.07,0,1.95-.86,1.95-1.91,0-.29-.07-.56-.19-.81l5.4-3.05-.08-.05v-.28l-5.48,3.1c-.33-.45-.84-.76-1.44-.81v-11.26l6.92,3.91v-.28l.08-.04-7-3.96v-2.28l7-3.96-.08-.04v-.28l-7.16,4.05-.08.05v2.28l-2.43-1.38c.12-.24.19-.52.19-.81s-.07-.57-.19-.81l9.75-5.52-.08-.04v-.28l-9.83,5.56c-.32-.45-.84-.76-1.44-.81v-11.45l2.59-1.46c.35.49.94.82,1.6.82,1.07,0,1.95-.86,1.95-1.91,0-.29-.07-.57-.19-.82l5.4-3.05-.08-.04v-.28l-5.48,3.1c-.33-.45-.84-.77-1.44-.81v-11.27l.25.14,6.67,3.78v-.28l.08-.05-6.1-3.45-.9-.51v-2.27l7-3.96-.08-.04v-.28l-7.16,4.05-.08.05v2.27l-2.43-1.37c.12-.25.19-.52.19-.81s-.07-.57-.19-.82l9.75-5.51-.08-.04v-.28l-9.83,5.56c-.32-.46-.84-.77-1.44-.81v-11.45l2.59-1.47c.35.5.94.82,1.6.82,1.07,0,1.95-.85,1.95-1.91,0-.29-.07-.56-.19-.81l5.4-3.05-.08-.04v-.29l-5.48,3.11c-.33-.46-.84-.77-1.44-.82v-11.26l6.92,3.91v-.28l.08-.04-7-3.96v-2.28l7-3.95-.08-.05v-.28l-7.16,4.06-.08.04v2.28l-2.43-1.37c.12-.25.19-.53.19-.82s-.07-.56-.19-.81l9.75-5.51-.08-.05v-.28l-9.83,5.56c-.32-.45-.84-.76-1.44-.81v-11.45l2.59-1.46c.35.5.94.82,1.6.82,1.07,0,1.95-.86,1.95-1.91,0-.29-.07-.56-.19-.81l5.4-3.05-.08-.05v-.28l-5.48,3.1c-.33-.45-.84-.76-1.44-.81v-11.26l.25.13h.65l-.9-.5v-2.28l7-3.96-.08-.04v-.28l-7.16,4.05-.08.05v2.28l-2.43-1.38c.12-.24.19-.52.19-.81s-.07-.57-.19-.81l9.75-5.52,9.74,5.52c-.12.24-.19.52-.19.81s.07.57.19.81l-2.43,1.38v-2.28l-.08-.05-7.16-4.05v.28l-.07.04,6.99,3.96v2.28l-.9.5h.65l.25-.13v11.26c-.6.05-1.12.36-1.44.81l-5.48-3.1v.28l-.07.05,5.39,3.05c-.12.25-.19.52-.19.81,0,1.05.88,1.91,1.95,1.91.66,0,1.25-.32,1.6-.82l2.59,1.46v11.45c-.6.05-1.12.36-1.44.81l-9.83-5.56v.28l-.07.05,9.74,5.51c-.12.25-.19.52-.19.81s.07.57.19.82l-2.43,1.37v-2.28l-.08-.04-7.16-4.06v.28l-.07.05,6.99,3.95v2.28l-6.99,3.96.07.04v.28l6.92-3.91v11.26c-.6.05-1.12.36-1.44.82l-5.48-3.11v.29l-.07.04,5.39,3.05c-.12.25-.19.52-.19.81,0,1.06.88,1.91,1.95,1.91.66,0,1.25-.32,1.6-.82l2.59,1.47v11.45c-.6.04-1.12.35-1.44.81l-9.83-5.56v.28l-.07.04,9.74,5.51c-.12.25-.19.53-.19.82s.07.56.19.81l-2.43,1.37v-2.27l-.08-.05-7.16-4.05v.28l-.07.04,6.99,3.96v2.27l-.9.51-6.09,3.45.07.05v.28l6.67-3.78.25-.14v11.27c-.6.04-1.12.36-1.44.81l-5.48-3.1v.28l-.07.04,5.39,3.05c-.12.25-.19.53-.19.82,0,1.05.88,1.91,1.95,1.91.66,0,1.25-.33,1.6-.82l2.59,1.46v11.45c-.6.05-1.12.36-1.44.81l-9.83-5.56v.28l-.07.04,9.74,5.52c-.12.24-.19.52-.19.81s.07.57.19.81l-2.43,1.38v-2.28l-.08-.05-7.16-4.05v.28l-.07.04,6.99,3.96v2.28l-6.99,3.96.07.04v.28l6.92-3.91v11.26c-.6.05-1.12.36-1.44.81l-5.48-3.1v.28l-.07.05,5.39,3.05c-.12.25-.19.52-.19.81,0,1.05.88,1.91,1.95,1.91.66,0,1.25-.32,1.6-.82l2.59,1.46v11.45ZM121.63,190.73l-7.94,4.49c-.33-.45-.84-.76-1.44-.81v-11.26l9.38,5.3v2.28ZM140.03,194.41c-.6.05-1.12.36-1.44.81l-7.94-4.49v-2.28l9.38-5.3v11.26ZM140.03,182.78l-9.71,5.49v2.28l-4.18-2.37-4.19,2.37v-2.28l-.08-.05-9.62-5.44v-2.28l11.87-6.71c.43.64,1.18,1.06,2.02,1.06s1.58-.42,2.02-1.06l11.87,6.71v2.28ZM128.32,173.51c.16-.31.25-.67.25-1.05,0-1.32-1.09-2.38-2.43-2.38-1.35,0-2.44,1.06-2.44,2.38,0,.38.09.74.25,1.05l-12.02,6.81v2.28l-2.43-1.37c.12-.25.19-.53.19-.82s-.07-.56-.19-.81l12.45-7.05v-13.44l4.19-2.37,4.18,2.37v13.44l.08.05,12.37,7c-.12.25-.18.52-.18.81s.06.57.18.82l-2.42,1.37v-2.28l-.08-.05-11.95-6.76ZM140.35,194.41v-11.45l2.59-1.46c.35.5.93.82,1.6.82,1.07,0,1.94-.86,1.94-1.91,0-.29-.06-.56-.18-.81l7.77-4.4v13.07l-12.28,6.95c-.33-.45-.85-.76-1.44-.81ZM175.22,197.13l-2.42,1.37v-2.28l-.08-.04-11.95-6.77c.16-.31.25-.67.25-1.05,0-1.31-1.09-2.38-2.43-2.38-.68,0-1.29.27-1.73.7s-.71,1.02-.71,1.68c0,.38.09.74.25,1.05l-12.03,6.81v2.28l-2.42-1.37c.12-.25.18-.53.18-.82s-.06-.56-.18-.81l12.45-7.05v-13.44l4.19-2.37,4.18,2.37v13.44l.08.05,12.37,7c-.12.25-.19.52-.19.81s.07.57.19.82ZM176.82,182.96v11.45c-.6.05-1.12.36-1.44.81l-12.29-6.95v-13.07l7.78,4.4c-.11.24-.18.52-.18.81,0,1.05.87,1.91,1.95,1.91.66,0,1.24-.32,1.59-.82l2.59,1.46ZM177.14,151.34l9.38,5.31v2.28l-7.94,4.49c-.32-.45-.84-.76-1.44-.81v-11.27ZM176.98,166.42c1.08,0,1.95-.86,1.95-1.91,0-.29-.07-.57-.19-.81l7.78-4.41v13.08l-12.29,6.95c-.32-.45-.84-.76-1.43-.81v-11.45l2.58-1.46c.35.49.94.82,1.6.82ZM176.82,151.16v11.45c-.6.05-1.12.36-1.44.81l-12.29-6.95v-13.08l7.78,4.4c-.11.25-.18.53-.18.82,0,1.05.87,1.91,1.95,1.91.66,0,1.24-.33,1.59-.82l2.59,1.46ZM177.14,119.54l9.38,5.31v2.27l-7.94,4.5c-.32-.46-.84-.77-1.44-.81v-11.27ZM176.98,134.62c1.08,0,1.95-.86,1.95-1.91,0-.29-.07-.57-.19-.82l7.78-4.4v13.07l-12.29,6.96c-.32-.45-.84-.77-1.43-.81v-11.45l2.58-1.46c.35.49.94.82,1.6.82ZM176.82,119.36v11.45c-.6.04-1.11.35-1.44.81l-12.29-6.96v-13.07l7.78,4.4c-.11.25-.18.52-.18.81,0,1.06.87,1.91,1.95,1.91.66,0,1.24-.32,1.59-.82l2.59,1.47ZM177.14,87.74l9.38,5.3v2.28l-7.94,4.49c-.32-.45-.84-.76-1.44-.81v-11.26ZM176.98,102.81c1.08,0,1.95-.85,1.95-1.91,0-.29-.07-.56-.19-.81l7.78-4.4v13.07l-12.29,6.96c-.32-.46-.84-.77-1.43-.82v-11.45l2.58-1.46c.35.5.94.82,1.6.82ZM176.82,87.55v11.45c-.6.05-1.11.36-1.44.81l-12.29-6.95v-13.07l7.78,4.4c-.11.24-.18.52-.18.81,0,1.05.87,1.91,1.95,1.91.66,0,1.24-.32,1.59-.82l2.59,1.46ZM177.14,55.93l9.38,5.31v2.28l-7.94,4.49c-.32-.45-.84-.76-1.44-.81v-11.27ZM176.98,71.01c1.08,0,1.95-.86,1.95-1.91,0-.29-.07-.57-.19-.81l7.78-4.41v13.08l-12.29,6.95c-.32-.45-.84-.76-1.43-.81v-11.45l2.58-1.46c.35.49.94.82,1.6.82ZM176.82,55.75v11.45c-.6.05-1.12.36-1.44.81l-12.29-6.95v-13.08l7.78,4.4c-.11.25-.18.53-.18.82,0,1.05.87,1.91,1.95,1.91.66,0,1.24-.33,1.59-.82l2.59,1.46ZM186.52,45.16l-12.29,6.95c-.32-.45-.84-.77-1.43-.81v-11.45l2.58-1.46c.35.49.94.82,1.6.82,1.08,0,1.95-.86,1.95-1.91,0-.29-.07-.57-.19-.82l7.78-4.4v13.08ZM186.52,29.44v2.27l-7.94,4.5c-.32-.46-.84-.77-1.44-.82v-11.26l9.38,5.31ZM200,2.8v-.37l-4.46-2.52v-.02h-.68l.36.2v13.45l.08.04,4.7,2.66v-.36l-4.46-2.53V.28l4.46,2.52ZM159-.11h-.82c.13.03.27.04.41.04s.28-.01.41-.04ZM43-.11h-.82c.13.03.27.04.41.04s.28-.01.41-.04ZM5.95,13.54V.09l.36-.2h-.68v.02L1.17,2.43v.37L5.63.28v13.07l-4.46,2.53v.36l4.7-2.66.08-.04Z" fill-rule="evenodd"/>
</svg>