<?xml version="1.0" encoding="UTF-8"?>
<svg id="Ebene_21" xmlns="http://www.w3.org/2000/svg" width="6144" height="6144" version="1.1" viewBox="0 0 6144 6144">
  <!-- Generator: Adobe Illustrator 29.2.0, SVG Export Plug-In . SVG Version: 2.1.0 Build 108)  -->
  <path d="M3382.36367,1381.19041c12.68661-116.32922-29.34221-230.36662-62.3699-344.48305-46.63568,22.20687-91.96017,44.80888-138.1706,67.09477,1.38206-.31611,3.1185-.47417,4.57143-.71125,12.29679,78.63286,24.45184,157.42378,36.78407,236.05663l159.18501,42.0429Z"/>
  <path d="M3693.11463,1320.89205c-130.62243,10.27364-150.92808,49.70861-147.6324,96.49319,51.59692-25.28896,104.64678-50.02472,159.29132-74.12826,73.49726-30.34675,145.9314-61.00962,217.62136-91.98859,3.08306-1.26445,6.23699-2.5289,9.32005-3.71432v-44.8879c-76.40313,47.57486-116.12851,108.50544-238.60032,118.22589Z"/>
  <path d="M3931.71496,756.47407c-137.67448,60.61448-270.17509,123.0466-403.77426,185.00455,3.93356,17.07005,6.9103,34.21912,10.5958,51.21014-55.67223,24.41965-111.37989,48.8393-167.15843,73.17993,64.85053.79028,128.74424-1.58056,193.09864-2.05473,31.14952,51.13112,84.34112,59.27055,168.75312-1.89667,13.46623-.31611,27.07421-.07903,40.61131-.39514,25.12515,37.69636,82.81731,45.67818,157.87382,53.8971v-358.94517Z"/>
  <path d="M3931.71496,1959.83342c-7.12293,3.9514-13.96235,7.98183-21.12072,11.93323-15.73423,6.32224-30.51164,12.88156-46.35218,19.12478-22.1484,8.69308-43.23368,17.86033-65.13403,26.47438-41.78075,15.56852-82.39206,31.29509-125.12962,46.46846-37.70544,13.19768-74.13514,27.18563-111.48621,40.62039.24806,1.34348.49612,2.68695.74419,4.03043h368.47856v-148.65167Z"/>
  <path d="M2579.42202,1911.70537c1.701-23.78743,2.19712-47.65388,3.89812-71.52034,100.5006-1.02736,201.00119-1.18542,301.50179-2.44987,217.44417-99.49625,440.0622-196.85875,663.14093-294.14221l-305.50622-80.4505c.77962,4.58362,1.4175,9.00919,2.09081,13.43476-213.54605-1.26445-427.34016-2.5289-641.02796-4.34654,1.16944-29.00328,3.79181-58.08558,4.74862-87.00983-13.67885,6.71738-27.14508,13.59282-40.75306,20.46825v511.23213c3.93356-1.81764,7.93799-3.47723,11.90698-5.21585Z"/>
  <polygon points="3931.71496 140.60887 3931.71496 86.63275 3790.67392 49.48959 3585.77461 49.48959 3931.71496 140.60887"/>
  <path d="M2611.63466,843.40487c-.24806-15.96366-1.701-31.92731-1.9845-47.89097,4.99668-2.29181,10.48948-4.26751,15.62791-6.4803-5.38649.07903-10.63123.23708-15.98229.39514-3.29568-138.61511-9.03655-276.99314-18.21485-415.52922,145.04547.07903,289.91375-.63222,435.20727-2.44987-6.16612,105.73946-14.17498,211.55795-26.57808,317.13936,90.7553-37.14316,180.23485-75.0766,269.46634-112.93101,2.87043-69.46561,9.14286-138.77317,15.59248-207.92267,50.42749-.94834,100.74866-1.73862,151.03439-2.76598,4.99668,44.8879,6.30787,89.77581,12.33223,134.58468,120.41644-52.55362,239.48626-105.81849,356.07546-160.11073,6.80399-3.24015,13.64342-6.4803,20.44741-9.64142,36.99669-2.44987,72.46958-9.3253,107.05652-18.49255v-51.68431l-795.64154-209.74031c-197.56376,69.46561-386.09097,143.83096-568.55838,221.2784v589.31179c14.63567-5.69002,29.44852-11.38003,44.11962-17.07005Z"/>
  <path d="M4678.94894,745.41015c4.35881,51.3682,9.32005,102.81543,13.74973,154.1046-58.75529,34.93038-117.90038,69.54464-176.65567,104.39599,62.15728,1.50153,124.24369,3.16112,186.36553,4.5046,6.52049,72.23159,12.61573,144.14707,19.13622,216.22061l21.68772,8.06086c112.97458-73.57507,224.53166-147.94042,336.6203-221.98965,58.40091-1.02736,116.69551-3.08209,175.02555-6.16418V422.02758c-198.20164,103.84279-390.09541,211.55795-575.92937,323.38257Z"/>
  <path d="M5352.04779,1460.45549l51.9513,19.36186,11.19823-4.26751-55.24698-20.62631c-2.65781,1.81764-5.24474,3.71432-7.90255,5.53196Z"/>
  <path d="M4723.60013,190.0804c63.85828,3.47723,127.53937,5.53196,191.36221,8.29794,33.0277-18.25547,66.97677-36.03677,100.57147-53.97612V34.79038l-89.58586-33.50787h-601.44433c-20.66003,11.93323-41.14287,23.86646-61.80291,35.79968v153.23529c153.1252,7.82377,309.79415-8.37697,460.89942-.23708Z"/>
  <path d="M5186.12967,1575.20415l56.20379,20.94242c-.567-9.3253-1.20487-18.65061-1.66556-28.13397,26.01109-.07903,47.37987-2.29181,66.79959-5.3739l-66.97677-25.05188c-18.0731,12.56545-36.28794,24.97285-54.36104,37.61733Z"/>
  <path d="M5950.87593,1620.96136c26.27066-39.67206,52.55559-79.42314,78.86908-119.0952-19.68872-1.26445-39.39171-3.00306-59.06615-4.66265,50.15697-71.1252,100.29966-142.17137,150.32813-213.53365v-34.85135l-285.45069,265.13894,115.31962,107.00391Z"/>
  <path d="M5848.34898,168.97992L6028.95975,1.28251h-104.12604c-24.85718,38.72372-50.37113,76.57813-76.85595,113.08907.07139,18.17644.257,36.43191.37122,54.60835Z"/>
  <path d="M5850.305,447.39557l27.41286,25.44702c37.60702-56.03085,74.34311-113.72129,108.76623-175.36313,14.19187-25.44702,28.95483-50.02472,43.37514-75.15563,26.17072,6.08516,52.34143,13.03962,78.48359,22.20687.05711-16.59588-1.57053-28.60814-4.0691-38.88178,5.58251-.23708,11.16503-.79028,16.73327-1.18542V34.71135l-271.82992,252.41543c.35694,53.42293.6996,106.84586,1.12792,160.26878Z"/>
  <path d="M6121.00699,1053.46129v-235.74052l-49.14326-45.59916c-74.17178,110.48114-147.45834,222.14771-218.74606,337.05442-.75671,64.72393-1.04226,129.52689-1.47059,194.32985l269.35991-250.04459Z"/>
  <path d="M5575.65808,844.51126c57.19604-36.27385,114.6047-72.62673,171.69443-108.90058,24.80621-9.3253,49.47067-23.78743,73.92251-39.514-135.72542-5.76904-271.62802-9.64142-407.42432-13.90893v288.84734c55.53048-41.4897,110.21046-83.37454,161.80738-126.52383Z"/>
  <polygon points="5254.87832 1.28251 5243.46746 1.28251 5254.87832 5.55002 5254.87832 1.28251"/>
  <path d="M4988.70766,1711.76453l4.21706-1.50153c.10631-.63222.17719-1.10639.24806-1.58056-1.45294.94834-2.94131,2.05473-4.46512,3.08209Z"/>
  <path d="M4514.94444,1524.46817l-207.84062-77.6055c-5.35105,0-10.5958-.07948-15.91141-.07948v214.48245c74.34776-45.67818,148.51834-91.51442,223.75203-136.79747Z"/>
  <path d="M4916.62789,2060.27801h11.41086c2.94131-52.71168,9.56811-105.10724,22.92803-157.18669,5.42193-21.10048,8.93024-42.20095,13.74973-63.30143l-48.08861,17.93936v202.54876Z"/>
  <path d="M4984.34885,1986.14975c-2.79956,24.65674-4.74862,49.3925-6.69768,74.12826h184.77084c34.79957-18.88769,69.81177-37.61733,104.61134-56.58405-4.53599-67.41088-8.11518-134.82177-12.15504-202.15362l-93.83836-35.08843-159.53938,59.58711c-5.59912,53.26487-11.1628,106.60877-17.15172,160.11073Z"/>
  <path d="M6121.00699,2060.27801v-162.32351l-50.99934-47.33777c-25.47112,38.0915-50.82801,76.4991-76.5704,114.0374l26.52765,24.65674v70.96714h36.87886c.01428-2.05473.04283-4.18848.07139-6.24321.09994,2.05473.17133,4.18848.24272,6.24321h63.84912Z"/>
  <path d="M5859.26396,1780.59792c47.16724-28.68716,94.22817-57.37433,141.35997-85.98246l-324.00457-121.22895-247.38881,92.62082,310.92815,116.40824c39.76081-.63222,79.45075-1.34348,119.10526-1.81764Z"/>
  <path d="M4394.88238,4775.68008l178.32123,54.05515c42.70212-23.86646,85.82949-47.33777,125.90925-72.70576,127.07868-80.05536,257.13411-158.92531,389.59928-236.92594,218.68448-7.9028,437.82965-13.90893,657.4355-16.59588-208.195-1.89667-415.18512-2.29181-622.74224-3.16112,89.51499-52.31654,178.99454-104.7121,271.73434-155.76419-1.09856-20.3102-2.51606-40.62039-3.68549-60.93059h-1000.46998c-5.98893,164.06213-2.94131,328.04523,3.89812,492.02833Z"/>
  <path d="M5425.68681,4955.46878c53.72317-27.50174,107.55265-54.7664,161.13407-82.34718-54.92804-.71125-109.92696-.94834-164.81956-1.65959-2.90587-60.06128-5.24474-120.12256-8.22149-180.26287-129.98455,57.8485-255.75205,117.90978-384.38998,176.31147-114.25033-1.10639-228.50065-2.29181-342.60923-3.47723l416.2128,126.12869v3.47723l300.54498,91.04026c9.03655-5.45293,18.17941-10.74781,27.2514-16.12171-1.45294-37.69636-3.40199-75.39271-5.10299-113.08907Z"/>
  <polygon points="5102.99342 5130.35774 5102.99342 5219.50132 5250.23601 5174.92953 5102.99342 5130.35774"/>
  <path d="M5701.60276,5175.08759l147.73871,44.72985c73.78076-2.92404,147.52609-7.74474,221.4486-9.64142v-146.99208l-369.18731,111.90365Z"/>
  <path d="M3510.4346,6003.85422c-27.49946,13.35573-55.38873,26.71146-82.39206,40.46234-23.31784,12.09128-46.74199,24.18257-70.09527,36.1158,33.84276-33.98204,79.69882-60.06128,129.16949-83.69065l-810.52526-245.46097c-65.38209.5532-130.62243,1.10639-195.86276,1.81764v366.927c64.03546,1.89667,128.10637,3.9514,192.17727,5.76904-.07087,1.58056-.10631,3.00306-.14175,4.5046h896.81545c.24806-36.19482.46069-72.31062.74419-108.34739l-59.88928-18.09741Z"/>
  <path d="M3483.71477,4719.96534c-5.24474-28.84522-7.97343-58.08558-11.51717-87.16788l-449.09875-136.16524c-77.92694.39514-155.78301,1.02736-233.60364.71125,28.03102-15.09435,54.14842-31.13703,81.08088-46.94263l-127.18499-38.48664c-1.84275,28.45008-4.07531,56.7421-5.7763,85.27121-89.72761-.63222-179.06541-2.37084-267.97797-5.45293v188.87692c142.95466-9.95753,286.05106-19.51992,429.00572-29.6355-58.04654,30.03064-115.41976,60.45642-173.71436,90.329-2.23256,40.77845-3.54374,81.71495-5.4928,122.4934-83.31344.79028-166.556,2.60792-249.79856,3.71432v291.21818c6.66224-3.31918,13.2536-6.55932,19.98672-9.79947,74.56039-33.27079,147.41978-67.41088,221.55491-100.91876-2.09081,46.38944-4.32337,92.77887-6.30787,139.08928,258.87054-124.07396,524.97032-244.27555,793.26723-363.37074-5.38649-34.45621-8.25692-69.07047-14.42304-103.76376Z"/>
  <path d="M4877.29233,5287.93957v-226.02008l-663.56618-200.9682c-115.41976-.5532-230.69777-1.18542-346.01122-1.4225-114.00226,57.2953-231.08759,112.93101-347.18066,169.357-7.05205-61.2467-9.95792-122.57297-19.38428-183.7401-269.60809,148.49361-536.48749,298.17264-801.0989,449.03709-2.09081,51.9214-4.21706,104.00085-6.44962,156.0803-8.36324.79028-17.00997,1.26445-25.40865,2.21278-18.21485,1.73862-37.31563,4.34654-55.81398,7.42863-36.28794,16.43782-72.43414,32.95468-108.43858,49.47153-4.74862,7.66572-9.99336,15.2524-8.43411,25.20993,1.9845,12.17031,8.64674,22.12784,17.96679,30.58384l117.12076,35.40454c16.51385,1.50153,33.0277,3.08209,50.99448,3.63529,1.80731,0,3.75637.07903,5.74087.15806-.2835,4.42557-.38981,8.77211-.63787,13.2767l136.07979,41.25262c10.24142-4.82071,20.58916-9.48336,30.79514-14.22504,23.45959-10.90586,48.08861-21.1795,71.65452-31.84828,123.14512,4.82071,248.91262,10.27364,384.63804,15.64754,41.03656-9.72044,107.19827-4.10946,165.77637-8.13988-78.88375,41.41067-156.98789,83.45357-234.77308,125.49646-42.34775.23708-84.66006.94834-126.97237,1.26445l466.92379,141.46012c98.09085-48.44416,196.89045-96.57222,294.34343-145.33249-102.55597-.23708-205.14737,1.02736-307.59703,1.18542-.77962-49.07695-.77962-97.91569-2.19712-146.99208,7.97343-5.3739,15.06091-11.61712,20.16391-19.59894,34.19714-51.84237,41.639-126.83994-8.64674-170.54242-32.10633-27.97591-77.18276-32.00634-126.44081-27.89688,34.33889-15.01532,68.14621-30.42578,102.48509-45.4411-3.57918-55.24057-12.61573-110.48114-17.71872-165.80074,293.45749-4.10946,586.95042-6.4803,880.51422-6.4803.24806,2.76598.53156,5.61099.67331,8.53502-33.70101,8.21891-67.4729,16.27977-101.28022,26.86952,35.79182-2.44987,69.28021-1.89667,103.22928-1.73862,13.50167,184.60941,27.5349,369.13979,40.61131,553.51211-49.3998-.63222-98.65785-1.73862-147.9159-2.13376-178.81735,91.98859-308.12859,194.72499-430.21059,298.09361v85.5083h823.63712v-790.12194l172.82842-52.23751Z"/>
  <path d="M5157.1064,5763.37202c96.95685-44.65082,194.02002-89.22261,290.44531-134.3476-2.33887-124.70618-6.55593-249.25431-10.63123-373.80244l-333.92705,100.99778v774.07926h325.174c208.23043-109.61184,418.37449-218.7495,631.84966-326.38564-300.65129-18.3345-601.58608-31.45314-902.91069-40.54136Z"/>
  <path d="M3453.59294,4490.46803c-4.71318-40.0672-11.51717-79.81828-15.59248-119.80645-46.35218,24.34062-93.12961,48.52319-139.80072,72.62673l155.3932,47.17972Z"/>
  <path d="M3470.24854,4495.44679l258.19723,78.23772c28.45627-13.59282,56.73535-27.26466,85.15618-40.69942v-36.90608c-114.49839-.15806-228.99678-.39514-343.35341-.63222Z"/>
  <path d="M3015.12542,4357.62196c19.24253-13.67184,40.07975-26.47438,58.0111-40.62039,14.52935-11.38003,30.1927-22.2859,45.46624-33.34982h-347.57047l244.09313,73.97021Z"/>
  <path d="M1496.87892,5856.38797c1.66556,91.27734,2.37431,182.63371,3.72093,273.91105h208.195c-5.10299-80.21342-10.73755-160.26878-15.66335-240.4822-75.05651,13.8299-147.0654,23.1552-196.25258-33.42884Z"/>
  <path d="M212.76763,1472.70483c7.22924.86931,14.60023.86931,21.8649,1.89667,16.26579,2.13376,32.56701,3.16112,48.93911,5.13682,35.47288,85.90344,72.43414,169.27798,109.07646,253.36377-34.48063,2.84501-69.03214,4.34654-103.47734,7.03349l228.53609,800.00044c109.14733-2.84501,218.40098-2.44987,327.65463-6.4803-1.59469,24.49868-3.15393,49.47153-5.35105,74.83952,28.70433,40.85748,57.62129,81.0037,86.71543,118.542,21.36878,45.59916,42.98562,90.01289,64.46071,135.45399-2.87043-71.20423-5.95349-145.96472,2.09081-208.08072l-239.94695-840.30472c-15.41529-36.03677-30.83058-71.99451-46.31674-108.03128-85.43968,10.35267-170.95024,14.3831-256.49623,21.96978.53156-76.89424.14175-153.86752.42525-230.76176,57.79847,5.69002,115.70326,13.19768,173.53717,18.09741-57.40866-133.7944-115.24257-266.87755-172.93474-400.19779-.21262-121.30798-1.48837-242.69499-1.9845-364.08199L260.14749,87.8972H8.01006v1230.38693h160.63794l44.11962,154.42071Z"/>
  <path d="M613.74233,2876.32113h237.89157c-81.15175-7.66572-162.3035-14.46212-243.56157-19.83603l5.66999,19.83603Z"/>
  <path d="M1016.02822,2876.32113h40.61131l-44.1905-154.81585c1.20487,51.60528,1.80731,103.36862,3.57918,154.81585Z"/>
  <path d="M845.11341,268.5552c3.86268-.15806,7.61905-.15806,11.37542-.31611-10.20598-23.55034-20.94353-45.91527-31.29126-69.30756l19.91584,69.62367Z"/>
  <path d="M1010.74804,629.71316c-20.76634.79028-41.42637.5532-62.26359,1.10639l117.51057,411.57782,40.54044-141.22304-27.2514-95.46582c-23.42415-57.45336-44.89924-119.25325-68.53602-175.99536Z"/>
  <path d="M1415.33736,3732.74757c17.25804,34.29815,34.4452,68.51728,51.63236,102.89446l-40.505-141.77623-11.12736,38.88178Z"/>
  <path d="M1657.48142,4502.55931c-74.3832,5.3739-148.87271,11.53809-223.50397,18.01838,91.8893,163.19228,189.34227,311.68643,300.36779,424.7755-3.15393-77.76355-10.3123-152.99821-15.84054-229.33925l-61.02328-213.45463Z"/>
  <path d="M1786.04848,5875.03858c47.66336-4.34654,95.04323-10.98489,142.81291-15.64754,41.60356,11.69614,83.52606,21.65367,125.37768,32.00634l-55.06979-192.67026c-202.13519-383.36483-407.0345-761.43478-591.80535-1176.01566-74.6667,6.55932-149.36883,15.2524-224.07097,22.76006l-46.49393,162.48157,21.5814,75.86688-74.80845,261.81976c5.74087,14.77824,12.19048,28.29202,17.96679,42.9122,1.9845,4.89974,3.96899,9.48336,5.7763,14.30407-1.80731,172.59715-3.86268,345.35236-4.99668,517.71243-38.73313-77.21036-78.35219-152.6821-117.75863-228.31189l-121.30238,424.85453c23.14065,50.10375,46.2813,100.04945,69.31564,150.54834v-295.95986c56.73535,1.26445,113.32895,2.92404,169.85168,4.82071-.67331,151.41765.03544,302.67724,1.77187,453.77877h396.40327c-1.34662-91.27734-2.05537-182.63371-3.72093-273.91105,49.18718,56.58405,121.19607,47.25874,196.25258,33.42884,4.9258,80.21342,10.56036,160.26878,15.66335,240.4822h142.81291c-50.2503-80.60856-100.53603-161.29615-150.82177-241.90471,28.42083-5.29488,57.23148-10.82684,85.2625-13.35573Z"/>
  <path d="M1734.34525,4945.35319c.31894,6.32224,1.134,12.64448,1.31119,19.2038l-.07087.94834c1.34662-4.34654,2.72868-7.9028,4.14618-12.17031-.99225-1.81764-1.87818-3.55626-2.97675-5.3739-.77962-.86931-1.59469-1.81764-2.40975-2.60792Z"/>
  <path d="M1765.84913,4881.89371c-8.64674,24.49868-17.47066,43.86054-26.1174,71.44131,35.26026,59.271,66.83502,126.76091,100.64235,189.50914l-74.52495-260.95045Z"/>
  <path d="M440.09884,2844.47285c-108.97015-5.3739-217.90486-11.77517-326.875-18.09741-35.04763-78.94897-70.13071-157.89794-105.21378-236.92594v286.87164h441.12533l-9.03655-31.84828Z"/>
  <path d="M128.03669,1751.12048c-40.04431,2.68695-80.05319,6.08516-120.02663,8.456v790.51708c115.4552-.31611,230.76865-4.74168,346.18841-6.79641l-226.16178-792.17667Z"/>
  <path d="M2206.47834,4838.27025c-.88594-1.58056-1.701-3.16112-2.58693-4.74168h-241.25813l-364.75763-1277.09247c.92137,57.53238,2.19712,115.06477,3.26025,172.51812l251.81849,881.87345c6.76855,13.43476,13.64342,27.02758,20.44741,40.54136-2.09081,2.68695-3.86268,7.66572-5.95349,10.51072l339.03005,1187.39569v-1011.0052Z"/>
  <path d="M1275.18226,3164.14111h-69.45739l-81.04544,283.71052c54.82173,12.56545,109.6789,22.04831,164.39431,33.42884,7.22924,14.22504,14.3876,28.60814,21.54597,42.9122l33.66557-118.06783-69.10302-241.98373Z"/>
  <path d="M1356.83013,2060.27801l40.32781-141.06498-70.05983-245.22388c-14.88373.15806-29.76745.39514-44.68662.15806-18.46291-39.27692-36.81951-78.63286-55.31785-117.90978,22.57365,1.50153,44.97012,2.84501,67.65008,4.18848l-106.17059-371.74771-40.36325,141.06498,208.62024,730.53483Z"/>
  <path d="M1597.2732,2715.3411h27.35771l-26.64896-93.33207c-.60244,30.97898-.17719,62.03698-.70875,93.33207Z"/>
  <path d="M1438.97413,2347.62382l68.6069,240.40317c.10631-27.97591.60244-56.10988.70875-84.32288,18.28572-1.26445,36.42969-2.76598,54.64454-4.26751l-83.77412-293.27291-40.18606,141.46012Z"/>
  <polygon points="1439.93094 3003.08205 1393.57876 3003.08205 1426.57103 3118.30487 1449.67624 3037.30117 1439.93094 3003.08205"/>
  <path d="M49.18838,5186.15151c38.91032,6.63835,77.74976,16.3588,116.66007,21.89076-54.00667-101.78806-105.95796-208.71295-157.83838-315.79589v1238.05264s429.67903,0,429.67903,0c-.88594-96.57222-1.45294-193.0654-2.51606-289.63762-119.99119-241.82568-247.06987-465.47492-385.98466-654.50989Z"/>
  <path d="M919.24855,4652.55445c-12.29679,118.38394-22.21928,237.24205-32.4607,356.02114l45.78518-160.26878v-163.90407c9.56811,21.7327,18.39203,44.65082,27.85383,66.46255l12.08417-42.51706-39.22925-137.66678c-15.37985,1.89667-30.79514,3.00306-46.21043,4.66265,11.05648,25.1309,21.26247,52.15848,32.1772,77.21036Z"/>
  <path d="M162.3047,4661.24753c66.23259,198.75542,134.3788,393.63847,209.89599,569.94993,146.7819,15.41046,293.81186,26.47438,440.87727,35.5626l37.88263-132.3719c-92.49173-174.4148-185.37328-347.80223-277.65239-522.45411-49.25805,6.00613-98.65785,11.8542-147.88046,17.70227-1.80731-296.59208-3.57918-593.26371-2.51606-889.53916,0-18.72964-.2835-37.22219-.2835-55.95182H8.01006v352.62293c100.92585,198.20222,199.0167,403.20085,297.60367,607.4092-47.87599,5.69002-95.53935,11.301-143.30903,17.07005Z"/>
  <path d="M522.27828,5538.53736c5.95349,10.98489,11.69436,22.91812,17.68329,33.90301,40.61131,66.93672,99.72097,81.47787,160.92144,87.16788l104.46959-365.89964c-105.17834,28.37105-210.49843,56.58405-315.49958,88.66942,5.10299,67.88505,16.83279,117.59366,32.42526,156.15933Z"/>
  <path d="M351.82417,3364.00292c80.05319-.15806,159.89376,6.16418,239.87607,10.74781l-60.10191-210.60962H8.01006v232.42135h358.2017c-4.89037-10.98489-9.60355-21.81173-14.3876-32.55954Z"/>
  <path d="M972.93628,1368.38787l11.02105-38.64469-213.9713-749.34349c-47.55705-101.55098-95.07867-203.26001-142.74203-304.81099,19.27797,261.02948,44.40312,519.84618,73.00114,778.18871l472.09766,1652.71256,91.18055-320.14243-290.58706-1017.95966Z"/>
  <path d="M424.29374,87.8972l22.1484,77.28938c-.14175-25.6841-.35437-51.60528-.46069-77.28938h-21.68772Z"/>
  <path d="M629.3348,87.8972h-158.12188c24.1329,63.2224,48.37211,126.12869,72.22151,189.90428,46.2813-1.4225,92.63348-2.92404,138.95023-4.18848l-53.04986-185.7158Z"/>
  <path d="M695.78002,3164.14111l63.29128,221.75257c21.22703,2.21278,42.4895,7.82377,63.7874,10.66878h152.34558l66.3389-232.42135h-345.76316Z"/>
  <polygon points="1333.86667 2715.3411 1357.71607 2715.3411 1345.80909 2673.69334 1333.86667 2715.3411"/>
  <path d="M1941.3708,3015.17333c-.21262-4.03043-.38981-8.06086-.60244-12.09128h-69.81177l169.53274,593.5793c26.64896,2.5289,53.08529,5.05779,79.55707,7.50766l59.00335-206.57919c-68.21708-124.54813-137.28467-247.51569-203.092-376.96356-11.55261-1.89667-23.06978-3.55626-34.58695-5.45293Z"/>
  <path d="M2009.4107,87.8972l37.45738,131.10745-3.96899,13.98796c51.84498-1.26445,103.76084-3.00306,155.71214-3.63529-20.44741-46.38944-40.61131-93.56915-60.06647-141.46012h-129.13405Z"/>
  <path d="M2149.06968,1691.53336c18.85272,37.61733,38.30788,73.81215,57.40866,110.87628v-112.53587c-19.10078.5532-38.237,1.4225-57.40866,1.65959Z"/>
  <path d="M1959.65653,1857.49216c9.03655-168.17158,17.75416-336.42219,24.4164-504.83086,43.12737,88.51136,85.40424,178.84036,128.92143,266.56144,31.18495,1.73862,62.40534,2.60792,93.48398,3.79334V548.31432c-70.83945,5.29488-141.74978,10.27364-212.66011,15.72657-1.09856-25.92118-2.19712-51.76334-3.36656-77.84258-4.18162-8.69308-7.97343-18.01838-12.26136-26.94855l-253.76755,888.74888c78.17501,170.30534,156.13739,341.2429,235.23377,509.49351Z"/>
  <path d="M1788.77716,2715.3411h39.938c-28.59802-53.58098-57.19604-107.63614-85.90037-160.98004l45.96237,160.98004Z"/>
  <path d="M1720.17027,2474.8589l3.26025,11.69614c.60244,0,.99225-.15806,1.52381-.15806-1.73643-3.71432-3.18937-7.74474-4.78406-11.53809Z"/>
  <path d="M1338.75704,87.8972h-62.51165l-45.96237,160.74295c12.72204,28.76619,25.40865,57.13724,38.02438,85.66635l70.44964-246.4093Z"/>
  <path d="M2070.89467,4545.78763c-3.86268-192.1961-18.60466-384.23413-49.08086-576.43023h-39.05207l-91.35774-319.58923c-61.69659-51.9214-94.54711-202.54876-148.87271-279.91717,11.30455-2.05473,22.4319-4.66265,33.66557-7.03349,31.78739,72.70576,63.64565,145.01638,95.32673,217.64311h.10631l-164.89044-577.37857h-83.02994l-9.81617,34.21912,430.77759,1508.48646h26.22371Z"/>
  <path d="M1622.92992,1128.06373l259.72104-909.05908-37.42194-131.10745h-342.32573l-134.66229,471.79716c49.08086,110.16503,97.45298,221.59451,146.81734,331.12732-.10631-215.27227-3.26025-430.07037-4.46512-645.34264,33.55926-1.10639,67.01221-1.26445,100.5006-2.29181-3.86268,278.41564-8.6113,556.83129-11.02105,835.40498,7.65449,16.51685,15.30898,32.95468,22.85715,49.47153Z"/>
  <path d="M3607.32058,3680.82617c-3.47287-22.44395-5.28018-45.20402-9.42636-67.64797.99225,22.52298,1.48837,45.20402,2.30343,67.64797h7.12293Z"/>
  <path d="M5686.57728,3274.54322c.2835-2.60792.46069-5.29488.95681-7.82377-82.67556-3.24015-165.03219-6.55932-247.38881-10.66878.53156,7.19155.81506,14.46212,1.48837,21.7327,81.54156-.94834,163.04769-1.89667,244.94363-3.24015Z"/>
  <path d="M5319.48078,3810.03695c-120.77082,41.01553-241.43532,82.18912-362.56051,123.12562-29.66114,10.03656-61.09416,19.67797-91.10967,29.55647-1.31119,17.30713-2.94131,34.61426-4.25249,51.9214h318.97245c61.23591-18.17644,122.15288-36.35288,183.84947-54.29224-56.5936,18.17644-113.71876,36.1158-170.27693,54.29224h684.22621v-87.80011l-265.53278-55.55668c-.53156,3.47723-.88594,6.79641-1.20487,10.19461-29.51939,9.40433-59.21597,18.72964-88.59361,28.213-2.79956-19.59894-5.59912-39.27692-8.43411-58.87586l-195.08314-40.77845Z"/>
  <path d="M3925.97409,3518.66071v402.64766s-445.90938,93.33207-445.90938,93.33207h237.99789c346.22385-107.39905,692.44769-214.7981,1038.03367-322.51327l-1.84275-.23708c-87.10524.63222-174.6003,1.34348-261.70554,1.73862-188.45634-4.18848-376.77093-7.27058-565.40445-9.64142,103.15841-33.42884,205.78525-67.01574,307.41984-100.83973l-308.58928-64.48685Z"/>
  <path d="M5465.90831,2996.75981c-13.35992,4.42557-26.57808,8.93016-39.938,13.2767-.17719-7.19155-.17719-14.3831-.17719-21.57464l-268.36778-56.18891-209.89599,43.93957c-5.42193,66.30449-10.91473,132.60898-16.33666,198.91347-49.9668,17.07005-102.02441,33.5869-152.02664,50.73598,49.22261,1.81764,98.2326,4.82071,147.41978,6.71738-1.31119,15.64754-2.65781,31.21606-3.93356,46.78458-99.04766-.31611-198.41426.39514-297.42648-1.02736-107.44634,37.14316-213.4043,74.99757-320.00014,112.45684,7.72536-92.38373,16.51385-184.68844,22.11297-277.07217-113.22264,65.83032-251.03887,127.47216-401.36451,186.66414v99.3382l830.79548,173.70354c119.45963,3.55626,238.28139,5.9271,356.25264,7.3496,335.69893-105.02821,668.74004-210.76767,1000.78891-317.06033v-131.42356l-647.90282-135.53302ZM5687.5341,3266.71945c-.49612,2.5289-.67331,5.21585-.95681,7.82377-81.89594,1.34348-163.40206,2.29181-244.94363,3.24015-.67331-7.27058-.95681-14.54115-1.48837-21.7327,82.35662,4.10946,164.71325,7.42863,247.38881,10.66878Z"/>
  <path d="M5626.43994,3755.34957l251.88937,52.63265v-185.55774c-81.39981,27.34369-164.89044,53.73904-245.75869,81.16176-2.12625,17.2281-3.93356,34.45621-6.13068,51.76334Z"/>
  <path d="M3543.24968,3438.44729c-41.9225,13.98796-84.48287,27.73883-127.22043,41.4897v429.04301s225.73653-47.17972,225.73653-47.17972v-402.72669s-98.5161-20.62631-98.5161-20.62631ZM3607.32058,3680.82617h-7.12293c-.81506-22.44395-1.31119-45.12499-2.30343-67.64797,4.14618,22.44395,5.95349,45.20402,9.42636,67.64797Z"/>
  <path d="M2522.29686,3224.91364v115.45991c65.34665-24.81479,130.65786-49.70861,196.11083-74.44438l-196.11083-41.01553Z"/>
  <path d="M2676.0245,3712.91154c-15.20266,4.89974-28.70433,10.51072-43.58806,15.56852-3.1185,91.35637-2.12625,182.71274-1.27575,273.99007-10.95017,4.10946-21.82947,8.13988-32.35439,12.17031h312.2039l220.35004-46.15235v-398.30112c-153.65677,47.81194-307.45528,95.07068-455.33574,142.72457Z"/>
  <path d="M3641.76578,2937.64686v-322.51327l-228.53609-47.73291v-14.69921c-222.79522,80.52953-447.61038,160.66392-670.54735,241.19345v358.31295l178.56929,37.30122c136.50504-51.9214,275.45527-103.21057,411.42875-155.13196,103.68997-32.08537,206.13962-64.48685,309.0854-96.73027Z"/>
  <path d="M3709.94742,2443.64284l216.02667,45.20402v67.09477l556.82859,116.32922c28.52714-9.00919,57.26691-18.09741,85.82949-27.18563l-82.85275-17.46519c-48.05318.23708-96.07092.5532-143.91147.86931,0-10.35267-.67331-20.70534-.67331-31.058l-74.0997-15.41046v-176.46952h-456.1508c-33.80732,12.64448-66.97677,25.52604-100.99672,38.0915Z"/>
  <path d="M5265.86393,2790.81284l-104.2924-21.7327c-30.36989,8.456-59.4286,17.62324-89.12518,26.47438l84.979,17.86033,108.43858-22.60201Z"/>
  <path d="M5766.09891,2617.26735c-2.33887,23.55034-5.81174,47.10069-8.6113,70.73006l356.32352-74.5234v-78.39578c-115.88045,27.6598-231.86721,55.24057-347.71222,82.18912Z"/>
  <path d="M5422.00131,2699.77258c-3.50831.86931-6.9103,1.89667-10.38317,2.68695l10.56036,2.21278c-.17719-1.58056-.17719-3.24015-.17719-4.89974Z"/>
  <path d="M4991.25916,2439.2963c30.61795-11.22198,60.91697-22.52298,91.46405-33.74496h-88.73536c-.88594,11.22198-1.80731,22.52298-2.72868,33.74496Z"/>
  <path d="M6113.81113,2968.2307l-380.59817-79.66022c-.95681,8.29794-1.94906,16.59588-2.94131,24.89382h-14.84829c-10.41861,3.3982-20.34109,6.79641-30.51164,10.19412l428.89941,89.69727v-45.12499Z"/>
  <polygon points="5833.78443 2790.81284 6113.81113 2849.37259 6113.81113 2732.25309 5833.78443 2790.81284"/>
  <path d="M3925.97409,2821.15959c14.52935-5.21585,29.02327-10.19461,43.37543-15.33143,29.94464.31611,59.96016.71125,89.97568,1.02736,66.30346-20.78436,132.00449-41.88484,198.02445-62.90629l-331.37556-69.22853v146.43888Z"/>
</svg>