<?xml version="1.0" encoding="UTF-8"?>
<svg id="Ebene_11" xmlns="http://www.w3.org/2000/svg" width="6144" height="6144" version="1.1" viewBox="0 0 6144 6144">
  <!-- Generator: Adobe Illustrator 29.2.0, SVG Export Plug-In . SVG Version: 2.1.0 Build 108)  -->
  <path d="M556.43521,2844.8635C370.14019,3206.65131,183.91782,3568.56206-2.35484,3930.39716v-100.92665c186.27266-351.13434,372.49503-702.40107,558.79005-1053.50704v68.90003Z"/>
  <path d="M556.43521,3750.08251c-186.27266,361.36697-372.54253,722.72448-558.79005,1084.15292v-127.7613c186.24752-351.08705,372.51738-702.22139,558.79005-1053.28479v96.89318Z"/>
  <path d="M556.43521,3072.59155C370.11505,3433.68899,183.82003,3794.80534-2.35484,4156.14394v-107.94858c186.27266-351.03031,372.51738-702.1079,558.79005-1053.09092v77.48712Z"/>
  <path d="M556.43521,3526.75203c-69.03013,134.12123-138.01276,268.38432-207.06803,402.47718-117.19224,227.54364-234.48227,454.87922-351.72201,682.33774v-127.71401c186.24752-351.09178,372.51738-702.12209,558.79005-1053.15239v96.05149Z"/>
  <path d="M556.43521,3973.3657c-186.34251,361.31022-372.59003,722.81432-558.79005,1084.34679v-133.16133c186.24752-350.94046,372.51738-701.83364,558.79005-1052.71264v101.52718Z"/>
  <path d="M556.43521,3297.96005C370.06755,3659.10477,183.79768,4020.40081-2.35484,4381.90491v-113.71271c186.24752-351.01612,372.51738-702.04643,558.79005-1053.01527v82.78312Z"/>
  <path d="M556.43521,2620.15228C370.16254,2982.03466,183.89268,3343.91231-2.35484,3705.7947v-96.78442c186.22237-351.31402,372.56767-702.46727,558.79005-1053.78129v64.9233Z"/>
  <path d="M556.43521,2408.86075c-127.32869,252.39701-255.82526,502.1413-384.34417,751.88558-58.15607,113.02234-116.2898,226.04468-174.44587,339.05283v-94.16006c186.24752-351.07286,372.51738-702.10317,558.79005-1053.13348v56.35513Z"/>
  <path d="M556.43521,4415.89861c-176.20606,332.25315-352.45961,664.40226-528.59303,996.82091-10.13645,19.13653-20.08291,38.61825-30.19701,57.79734v-67.74626c186.24752-361.1731,372.51738-722.28945,558.79005-1083.43417v96.56218Z"/>
  <path d="M556.43521,4859.80754c-186.27266,351.03031-372.59003,702.01333-558.79005,1053.17982v-61.23123c186.24752-361.94196,372.51738-723.89527,558.79005-1085.8344v93.88581Z"/>
  <path d="M556.43521,4638.60965c-186.34251,352.34958-372.61517,704.85047-558.79005,1057.4866v-68.40637c186.22237-361.31022,372.54253-722.51169,558.79005-1083.77936v94.69912Z"/>
  <path d="M-2.04471,6075.79069c186.12738-361.86536,372.30504-723.5638,558.47992-1085.30905v91.84779c-19.91807,37.60634-39.88085,75.12756-59.82127,112.71971-166.68707,314.47371-331.49661,632.60451-497.04095,949.25142h-1.92783v-67.80485c.09499-.22508.18999-.47995.31013-.70503Z"/>
  <path d="M112.95708,6144.30057h-29.62425c9.11387-23.78713,18.20259-47.55946,28.88665-68.37511,148.00951-287.74215,296.15872-575.21193,444.21573-862.89828v94.26409c-147.81673,279.03779-295.65861,557.98669-443.47813,837.0093Z"/>
  <path d="M528.80863,5582.13009c-98.03692,185.17752-193.98117,374.43958-290.68538,562.17048h-44.35675c2.90571-9.2297,5.99861-18.03922,9.85147-25.52805,117.54987-228.3116,235.24223-456.38437,352.81724-684.65148v95.90018c-9.18371,17.3775-18.41772,34.72664-27.62658,52.10887Z"/>
  <path d="M376.20865,6144.30057h-91.51863c5.59349-14.03218,11.30432-27.83923,17.80026-40.07049,84.61478-159.41139,169.27986-318.67302,253.94493-477.93512v163.68947c-60.05875,118.12542-120.1203,236.28062-180.22655,354.31615Z"/>
  <path d="M489.4754,6144.30057h-91.3035c.7376-1.51574,1.33271-3.25666,2.09267-4.7124,52.04012-98.06024,104.13052-196.01545,156.17064-294.01559v168.32631c-22.32087,43.4622-44.64174,86.92445-66.95981,130.40169Z"/>
  <path d="M521.95507,6144.30057c6.1886-18.03922,12.49175-35.88334,20.34555-50.71106,4.7106-8.89965,9.42399-17.78416,14.13459-26.68333v77.39439h-34.48014Z"/>
  <path d="M556.43521,1685.03924v60.82836C370.21284,2107.28185,183.96532,2468.72447-2.35484,2830.30423v-94.03712c128.8514-242.71763,257.70559-485.43998,386.60448-728.11032,57.30113-107.87765,114.78945-215.42431,172.18556-323.11754Z"/>
  <path d="M556.43521,2129.56761v62.08616C370.23519,2552.90252,183.96532,2914.31677-2.35484,3275.83978v-93.18598c172.4929-325.01843,345.01094-650.0274,517.50384-975.10731,13.77976-25.96459,27.50923-52.00011,41.2862-77.97889Z"/>
  <path d="M556.43521,1524.86358C370.16254,1886.05086,183.89268,2247.25705-2.35484,2608.44906v-92.35848c186.22237-350.98302,372.51738-701.88093,558.79005-1052.78829v61.56129Z"/>
  <path d="M556.43521,1301.63725C370.16254,1663.08448,183.89268,2024.5271-2.35484,2385.97446v-93.82906c186.29501-351.67339,372.59003-703.42717,558.79005-1055.29431v64.78617Z"/>
  <path d="M556.43521,1018.54708v59.64148C370.23519,1439.51284,183.96532,1800.98857-2.35484,2162.56832v-92.19298c71.45807-134.73594,142.91614-269.47662,214.39656-404.18419,114.69445-216.09576,229.57889-431.81784,344.39348-647.64407Z"/>
  <path d="M556.43521,678.23645C369.90271,1029.53628,183.63005,1380.36798-2.35484,1730.66524v-118.21904c186.34251-361.69797,372.59003-723.54712,558.79005-1085.49096v151.28122Z"/>
  <path d="M556.43521,1968.35639C370.16254,2329.87467,183.89268,2691.39295-2.35484,3052.89705v-91.99438c186.24752-351.27146,372.49503-702.52402,558.79005-1053.71982v61.17354Z"/>
  <path d="M556.43521,896.19054C370.16254,1247.08371,183.89268,1597.98149-2.35484,1948.87467v-111.1451c186.10502-360.93667,372.46989-721.37671,558.79005-1081.87374v140.33471Z"/>
  <path d="M556.43521,239.29254C370.16254,590.26122,183.89268,941.19709-2.35484,1292.17052v-129.63842C183.84518,801.74676,369.97256,440.81483,556.43521,80.49289v158.79965Z"/>
  <path d="M556.43521,4196.00581c-150.91243,284.31961-301.79971,568.6534-452.75684,852.89735-35.21774,66.33714-70.65062,132.24872-106.03321,198.20757v-63.32977c186.17487-361.29604,372.44753-722.75758,558.79005-1084.35152v96.57636Z"/>
  <path d="M556.43521,458.25381C370.16254,809.25101,183.89268,1160.26712-2.35484,1511.28312v-122.58339c186.15252-360.54419,372.40004-720.92287,558.79005-1081.03203v150.58612Z"/>
  <path d="M-2.35484,1072.36769v-138.68903C156.12361,625.79658,314.74454,318.12729,473.05535,9.91422c2.38045-4.6247,4.7581-8.52562,7.13854-12.75784h76.24131v22.45142C369.83006,371.14878,183.65519,721.93792-2.35484,1072.36769Z"/>
  <path d="M361.47895,9.01106c2.21281-4.27463,4.68825-8.0433,7.13854-11.85469h83.71234C300.75244,282.60153,149.1974,568.06544-2.35484,853.52463v-140.8027C118.93054,478.16583,240.05108,243.29764,361.47895,9.01106Z"/>
  <path d="M236.05293,18.57223c3.878-7.53262,7.73365-14.64912,11.61166-21.41586h88.40059C223.03592,209.96593,110.31679,422.21736-2.35484,634.39786v-152.20802C77.07437,327.61281,156.67122,173.25802,236.05293,18.57223Z"/>
  <path d="M152.91056-2.84363h43.14139C129.89959,125.50417,63.77238,253.84708-2.35484,382.20891v-92.55235C49.4003,192.19595,101.13308,94.60295,152.91056-2.84363Z"/>
  <path d="M32.76791,5.44099c1.59255-2.96954,3.47288-5.4615,5.16322-8.28461h44.11647C53.92091,51.7241,25.77186,106.30617-2.35484,160.87389v-89.38436C9.35181,49.48764,21.06126,27.44304,32.76791,5.44099Z"/>
  <path d="M1115.22525,2083.25124c-186.26428-361.84928-372.57326-723.6086-558.79005-1085.53353v136.75031c186.23913,351.19568,372.50341,702.35839,558.79005,1053.49273v-104.70951Z"/>
  <path d="M1115.22525,1179.58321c-142.88541-277.29754-285.86581-554.42971-428.72887-831.78886-44.47131-86.36737-87.25507-175.88871-130.06118-265.34857v175.24562c186.21678,351.19107,372.52577,702.17881,558.79005,1053.28004v-131.38824Z"/>
  <path d="M1115.22525,1857.56594c-186.31178-361.62231-372.59841-723.23516-558.79005-1085.05121v143.6824c186.23913,351.05867,372.52577,702.06048,558.79005,1053.08606v-111.71725Z"/>
  <path d="M1115.22525,1533.62562v-131.35962c-186.26428-361.33859-372.50341-722.73864-558.79005-1084.04886v160.01016c77.54609,147.33286,155.16482,294.57114,232.99589,441.39332,108.55055,204.73287,217.21845,409.3005,325.79415,614.00501Z"/>
  <path d="M591.34282,106.02245c174.57998,329.07081,349.27731,657.93829,523.88243,986.94763v-136.8969c-42.80611-83.09993-85.63737-166.11948-128.44348-249.23359C866.28708,472.75161,748.26783,234.03909,629.27069-2.84363h-72.83549v36.48582c11.27918,24.80609,22.70085,49.37102,34.90761,72.38026Z"/>
  <path d="M1115.22525,1631.8097c-87.27742-169.5146-174.60513-338.90613-261.8574-508.47746-99.22435-192.83118-198.11342-386.26762-296.93265-579.85064v152.79422c186.23913,351.05881,372.52577,701.99926,558.79005,1053.02472v-117.49084Z"/>
  <path d="M1115.22525,2307.84425c-186.26428-361.88238-372.52577-723.76003-558.79005-1085.64229v132.40003c186.28663,351.23824,372.55091,702.47661,558.79005,1053.77645v-100.53418Z"/>
  <path d="M1115.22525,2611.82526v-98.03276c-186.28663-362.0006-372.52577-724.00119-558.79005-1085.99706v130.83487c147.57366,278.21029,295.16967,556.34965,442.76847,834.53157,38.66548,72.89095,77.3561,145.7677,116.02158,218.66338Z"/>
  <path d="M830.88214-2.84363h-27.84171c11.06404,25.81343,22.13088,51.61252,34.33765,75.25066,92.58313,179.61009,185.2389,359.13034,277.84717,538.71206v-66.0487C1020.14154,362.99672,925.63058,179.87329,830.88214-2.84363Z"/>
  <path d="M1068.35115-2.84363h-37.21542c4.68825,9.60389,9.30385,19.35893,14.10945,28.72623,23.31831,45.32321,46.66176,90.64673,69.98007,135.98428v-65.62786c-15.67965-32.94396-31.2196-66.12451-46.8741-99.08266Z"/>
  <path d="M944.35564-2.84363h-28.74137c1.99767,4.66726,3.94785,9.51404,6.16066,13.80743,64.45923,125.08981,128.96595,250.11799,193.45032,375.19346v-65.39143c-56.96306-107.87292-113.90376-215.76476-170.86961-323.60946Z"/>
  <path d="M1115.22525,3183.46712c-186.09664-361.17782-372.52577-722.95145-558.79005-1084.45554v129.87497c186.23913,350.82225,372.52577,701.59722,558.79005,1052.40055v-97.81998Z"/>
  <path d="M1115.22525,2737.96466c-186.14414-361.15891-372.40842-722.57789-558.79005-1084.18602v127.60999c186.26428,351.16271,372.47827,702.4058,558.79005,1053.45029v-96.87426Z"/>
  <path d="M1115.22525,3405.43104c-186.26428-361.2062-372.52577-722.39821-558.79005-1083.59967v125.22206c186.26428,351.43696,372.43077,703.09617,558.79005,1054.36764v-95.99002Z"/>
  <path d="M1115.22525,3627.82999c-186.26428-361.44735-372.52577-722.88998-558.79005-1084.33733v125.86987c186.28663,351.83889,372.43077,703.96623,558.79005,1055.7011v-97.23364Z"/>
  <path d="M1115.22525,3851.21721c-186.14414-361.22038-372.40842-722.67719-558.79005-1084.37989v127.0993c186.28663,351.01612,372.55091,702.03224,558.79005,1053.13348v-95.85289Z"/>
  <path d="M1115.22525,4286.88897c-186.42912-351.13434-372.6934-701.95186-558.79005-1052.44311v82.42375c186.31178,361.3717,372.55091,722.86161,558.79005,1084.35152v-114.33215Z"/>
  <path d="M1115.22525,2960.8743c-186.26428-361.52301-372.52577-723.04129-558.79005-1084.55957v125.014c186.23913,351.74905,372.43077,703.61632,558.79005,1055.15731v-95.61174Z"/>
  <path d="M1115.22525,4068.63225c-186.26428-350.89318-372.52577-701.78636-558.79005-1052.67954v76.02599c186.23913,361.40007,372.50341,722.77176,558.79005,1084.11036v-107.45681Z"/>
  <path d="M1115.22525,4725.32694c-186.26428-350.97356-372.52577-701.92822-558.79005-1052.89705v95.70631c186.14414,361.3386,372.47827,722.33201,558.79005,1083.40107v-126.21033Z"/>
  <path d="M987.80436,534.71482c-4.13784,8.00074-8.27847,15.9542-12.41911,23.95495,46.61427,90.43395,93.22574,180.90099,139.84,271.33967v-58.39787c-42.49598-78.95297-84.99476-157.83502-127.42089-236.89675Z"/>
  <path d="M1115.22525,4506.19543c-186.26428-351.01139-372.52577-702.02752-558.79005-1053.04364v89.46459c186.19164,361.06907,372.47827,721.98682,558.79005,1082.86202v-119.28297Z"/>
  <path d="M1115.22525,4945.14409c-186.45427-351.28565-372.71575-702.17883-558.79005-1052.75992v102.45871c186.35927,361.5041,372.52577,723.36756,558.79005,1085.09863v-134.79742Z"/>
  <path d="M1115.22525,5164.01552c-186.26428-350.82225-372.52577-701.65396-558.79005-1052.47621v108.32687c186.12179,360.82791,372.47827,721.19242,558.79005,1081.63259v-137.48325Z"/>
  <path d="M1115.22525,5383.17067c-186.61911-351.43224-372.7884-701.99914-558.79005-1052.27761v114.07208c186.38163,361.89657,372.57326,724.16669,558.79005,1086.36116v-148.15563Z"/>
  <path d="M1115.22525,5631.57677c-186.26428-361.48991-372.52577-722.99401-558.79005-1084.48392v127.71401c186.12179,351.27146,372.43077,702.19774,558.79005,1053.06066v-96.29076Z"/>
  <path d="M1115.22525,5852.98651c-186.26428-361.24781-372.52577-722.50129-558.79005-1083.75004v126.29071c186.14414,350.47234,372.40842,700.7508,558.79005,1050.77723v-93.31791Z"/>
  <path d="M556.43521,4991.82929v127.65727c181.19605,341.87579,362.53181,683.49435,544.01284,1024.81401h14.7772v-68.35998c-186.26428-361.35467-372.52577-722.73961-558.79005-1084.1113Z"/>
  <path d="M972.2672,6122.2693c4.21328,7.86404,8.85123,14.97771,13.49199,22.03127h50.41963c-159.92292-310.22363-319.82069-620.47851-479.74361-930.71542v126.99527c138.53243,260.71457,277.08722,521.39557,415.83199,781.68888Z"/>
  <path d="M866.23958,6144.30057h55.29786c-121.70727-236.07062-243.39218-472.15643-365.10224-708.24081v126.52714c103.24484,193.94524,206.44219,387.9945,309.80438,581.71367Z"/>
  <path d="M746.71998,6144.30057h59.74863c-83.28207-161.61783-166.63399-323.34021-250.0334-485.19878v127.13051c63.41149,119.37139,126.75314,238.92247,190.28477,358.06827Z"/>
  <path d="M631.19852,6144.30057h59.79333c-44.85128-87.1797-89.70536-174.35897-134.55664-261.53872v121.12711c24.93601,46.74856,49.80216,93.69274,74.76331,140.4116Z"/>
  <path d="M576.1605,6144.30057c-6.56578-12.78653-13.15671-25.57307-19.72529-38.3596v38.3596h19.72529Z"/>
  <path d="M1489.34636,5665.79745c-73.29928,156.54365-143.97784,318.50624-215.61193,478.50312h-82.8043c8.24774-23.32189,16.49828-46.61384,26.22122-66.76929,152.23117-315.61141,304.59087-630.96937,456.86395-946.50228v140.51426c-61.54234,131.45432-123.14894,262.78569-184.66893,394.25419Z"/>
  <path d="M1614.14094,6144.30057c8.33715-23.502,16.65194-47.00404,26.4615-67.29463,11.1311-23.08158,22.28175-46.1485,33.41285-69.23008v136.52472h-59.87435Z"/>
  <path d="M1377.00442,6144.30057h-83.91071c3.89756-11.49587,7.92644-22.60154,12.62586-32.35653,122.73544-254.28996,245.56029-508.43134,368.29572-762.69141v148.32113c-99.69653,214.1457-198.11622,430.94649-297.01088,646.72681Z"/>
  <path d="M1583.28456,6144.30057h-79.75331c56.86248-118.63558,113.66348-237.37618,170.48405-356.087v162.65296c-30.2501,64.47314-60.48064,128.96094-90.73074,193.43403Z"/>
  <path d="M1480.18779,6144.30057h-82.30977c4.16019-10.46031,8.38185-20.72557,12.99466-30.24045,87.6993-181.66811,175.44331-363.24577,263.14261-544.91469v157.76173c-64.59613,139.15101-129.18946,278.33229-193.8275,417.39341Z"/>
  <path d="M1118.7121,6027.43584c24.10061-38.04468,50.69343-70.91109,72.02245-115.03387,161.17181-333.6528,322.17319-667.69335,483.28075-1001.49274v136.14979c-171.30826,365.75035-342.63609,731.48936-513.94435,1097.24156h-44.8457v-276.24647c185.88151-387.87203,372.2799-774.71182,558.79005-1161.23479v134.69339c-185.102,395.31812-370.22355,790.63624-555.3032,1185.92314Z"/>
  <path d="M1115.22525,5361.76915v-168.88097c186.29222-385.41176,372.54253-770.92755,558.79005-1156.41496v133.65783c-186.22796,397.13389-372.2799,793.90368-558.79005,1191.6381Z"/>
  <path d="M1115.22525,5806.65784v-166.19608c5.08778-9.37676,10.04705-18.74406,14.68221-28.34779,181.24635-376.24306,362.71062-752.05108,544.10784-1127.93477v131.1375c-186.07429,396.74615-372.3246,793.81856-558.79005,1191.34114Z"/>
  <path d="M1115.22525,5137.89962v-160.59651c186.14135-386.53716,372.52018-772.53526,558.79005-1158.7556v128.65973c-186.24752,396.89273-372.52018,793.78546-558.79005,1190.69238Z"/>
  <path d="M1115.22525,4917.12257v-160.41682c186.09664-387.13769,372.49783-773.63229,558.79005-1160.30185v129.21297c-186.24752,397.18118-372.52018,794.32925-558.79005,1191.5057Z"/>
  <path d="M1115.22525,4693.85356v-166.96117c186.44309-384.79704,372.62914-770.1757,558.79005-1155.57327v130.972c-186.07429,396.78398-372.2799,793.87531-558.79005,1191.56244Z"/>
  <path d="M1115.22525,4187.39035v-44.25944c186.26987-396.98258,372.52018-793.97934,558.79005-1190.94773v78.73073c-186.33692,385.65292-372.58444,771.10723-558.79005,1156.47643Z"/>
  <path d="M1115.22525,5584.57476v-159.95342c186.11899-387.06203,372.49783-773.52353,558.79005-1160.18363v128.3902c-186.24752,397.25683-372.52018,794.49475-558.79005,1191.74685Z"/>
  <path d="M1291.51234,4041.29164c-.17322-40.11721,8.12201-63.84519,17.82261-84.66036,121.4586-259.9911,243.00382-519.75996,364.68035-779.31603v72.1391c-127.50192,263.93946-255.00104,527.89783-382.50296,791.83729Z"/>
  <path d="M1115.22525,3749.94538v-56.88c186.24752-397.40342,372.52018-794.69808,558.79005-1192.03057v91.95655c-186.24752,385.634-372.52018,771.3011-558.79005,1156.95402Z"/>
  <path d="M1115.22525,3969.38897v-53.57945c59.41894-126.42311,119.0111-252.45849,178.38813-378.97144,126.80902-270.1528,253.61524-540.27724,380.40191-810.44423v85.88979c-186.24752,385.69547-372.52018,771.40513-558.79005,1157.10533Z"/>
  <path d="M1115.22525,3529.83033v-64.50719c186.24752-397.0866,372.52018-794.06918,558.79005-1191.08013v98.77988c-186.33692,385.75694-372.58444,771.36257-558.79005,1156.80743Z"/>
  <path d="M1115.22525,3310.32526v-70.15783c186.22796-397.05823,372.49783-794.02662,558.79005-1190.96664v104.61967c-186.24752,385.51579-372.52018,771.0032-558.79005,1156.5048Z"/>
  <path d="M1115.22525,3090.73509v-74.30479c186.22796-397.49326,372.52018-794.82102,558.79005-1192.21025v110.2183c-186.40118,385.70966-372.62914,771.09305-558.79005,1156.29675Z"/>
  <path d="M1115.22525,2913.70206v-161.40509c186.01003-387.63419,372.36651-774.50235,558.79005-1161.23338v130.972c-186.24752,397.219-372.52018,794.42855-558.79005,1191.66647Z"/>
  <path d="M1115.22525,2690.67421v-161.31998c88.41455-190.4007,179.66497-375.14603,269.89839-561.83953,96.29908-199.24313,192.59537-398.48626,288.89166-597.72454v130.02617c-186.24752,396.94948-372.52018,793.90368-558.79005,1190.85788Z"/>
  <path d="M1115.22525,2468.5306v-160.04326c185.94577-388.2158,372.26034-775.65612,558.79005-1162.58562v131.36447c-186.24752,397.08648-372.52018,794.1589-558.79005,1191.26442Z"/>
  <path d="M1115.22525,2246.718v-166.76729c28.38933-64.08161,59.82965-122.79157,89.60478-184.36704,156.38857-323.68497,312.75479-647.44548,469.18527-971.0406v130.95308c-186.24752,397.07702-372.52018,794.13052-558.79005,1191.22185Z"/>
  <path d="M1115.22525,2024.10626v-162.09547c185.66358-387.84224,372.10667-773.97735,558.79005-1159.61134v130.62668c-186.24752,397.01095-372.52018,794.04081-558.79005,1191.08013Z"/>
  <path d="M1115.22525,1801.56072v-168.28044c186.76998-383.70462,372.71575-769.13055,558.79005-1154.25859v130.98618c-185.31713,395.17152-371.19864,791.55356-558.79005,1191.55284Z"/>
  <path d="M1115.22525,1580.03183v-158.63415c185.36183-388.66489,371.86919-774.88995,558.79005-1160.25441v125.43011c-186.24752,397.82425-372.52018,795.6485-558.79005,1193.45845Z"/>
  <path d="M1674.0153,163.48879c-186.24752,398.10797-372.52018,796.20175-558.79005,1194.30971v-159.3387c184.99303-390.99146,371.45848-778.89517,558.79005-1164.90745v129.93644Z"/>
  <path d="M1648.41992-2.84363c-179.31852,360.03351-358.24868,719.27276-533.19467,1070.46856v-103.01195C1272.84595,643.59493,1428.32649,317.97598,1586.01145-2.84363h62.40847Z"/>
  <path d="M1541.23002-2.84363c-142.00811,290.0697-283.99666,580.15343-426.00477,870.21824v-118.25687c119.37991-254.39719,240.81895-504.59069,363.49013-751.96138h62.51464Z"/>
  <path d="M1371.35226-2.84363h65.35329c-107.05858,221.13657-214.18422,442.47159-321.48029,664.15179v-137.39813c84.92771-172.22879,166.89103-350.90736,252.74912-520.97519,1.0617-2.07111,2.27428-3.81123,3.37789-5.77847Z"/>
  <path d="M1272.45759-2.84363h51.47295c-70.00801,142.27344-139.82324,284.22991-208.70529,424.2524v-112.75281c53.35607-101.13471,94.84623-235.55871,157.23234-311.49959Z"/>
  <path d="M1223.0857-2.84363c-36.31577,72.03523-72.24038,143.309-107.86045,213.97751V62.12696c11.97487-24.87229,25.22658-46.75124,39.19353-64.97059h68.66691Z"/>
  <path d="M1119.18707-2.84363c-1.36345,2.58196-2.61793,5.02663-3.96182,7.62261V-2.84363h3.96182Z"/>
  <path d="M3348.48297,3427.04263v65.1219c5.5432,10.44542,11.08919,20.89083,16.60724,31.33625,180.67359,340.49032,361.43937,680.7915,542.18281,1021.14942v-32.06918c-186.28663-361.80672-372.50341-723.74585-558.79005-1085.53839Z"/>
  <path d="M3907.27301,3668.20455v-62.40297c-186.28663-361.3386-372.50341-722.78595-558.79005-1084.13873v93.25691c186.02679,350.54799,371.97815,701.2473,558.00495,1051.79529.26263.4965.52247.993.7851,1.4895Z"/>
  <path d="M3907.27301,4322.70046v-59.05514c-67.02966-121.3068-134.31916-242.14547-199.13601-367.6276-119.94708-232.21074-239.75446-464.69573-359.65404-697.01523v73.97379c127.27561,239.80955,254.50651,479.73732,381.78212,719.51378,58.72604,110.63441,117.87955,220.37039,177.00792,330.2104Z"/>
  <path d="M3907.27301,3831.36868c-186.23913-362.12354-372.50341-724.15251-558.79005-1086.13892v92.16461c186.28663,351.01139,372.50341,702.14573,558.79005,1053.14767v-59.17336Z"/>
  <path d="M3907.27301,3380.61277c-186.31178-360.66714-372.62076-721.28699-558.79005-1082.20474v97.80579c186.26428,350.87899,372.50341,701.86202,558.79005,1052.71264v-68.31369Z"/>
  <path d="M3883.45458,4053.22384c6.30595-12.7104,12.58675-25.42081,18.89269-38.17849-65.69695-116.29451-133.79669-228.07324-196.68571-349.64956-119.16198-230.42807-238.13397-461.20132-357.1786-691.82326v79.33126c148.12127,279.09926,296.2174,558.29783,444.36102,837.36872,29.50691,55.64584,60.36888,108.71461,90.6106,162.95134Z"/>
  <path d="M3557.42294,4309.36115c23.58094,44.43912,48.15932,86.91116,72.28787,130.26744-92.63342-193.73434-186.54926-384.51333-281.22785-573.54747v49.50815c69.64759,131.24153,139.27004,262.54453,208.93998,393.77187Z"/>
  <path d="M3580.64626,4150.73173c45.75652,86.30591,92.25065,171.18851,138.41229,256.79459,2.99791-6.07622,6.02096-12.19972,9.01887-18.28066-126.5408-245.8243-253.05645-491.6486-379.59446-737.47762v61.17354c77.37845,145.94739,154.78205,291.83804,232.16329,437.79016Z"/>
  <path d="M3907.27301,2904.95621c-186.33413-350.77496-372.59841-701.63977-558.79005-1052.68427v100.04241c186.26428,361.14472,372.50341,722.32255,558.79005,1083.44836v-130.8065Z"/>
  <path d="M3907.27301,2462.38074c-186.26428-351.37549-372.43077-702.91176-558.79005-1054.09338v97.74432c186.26428,361.92494,372.52577,723.88298,558.79005,1085.83629v-129.48723Z"/>
  <path d="M3907.27301,2684.1366c-141.5052-266.58273-283.03554-533.13236-424.37589-800.01772-44.85128-84.65563-89.61037-169.49568-134.41415-254.21279v97.88145c186.26428,361.27712,372.50341,722.55898,558.79005,1083.79354v-127.44449Z"/>
  <path d="M3907.27301,2238.46865c-186.42912-350.60946-372.62076-701.63977-558.79005-1052.74574v95.74886c186.28663,361.93912,372.50341,723.98701,558.79005,1085.92613v-128.92926Z"/>
  <path d="M3907.27301,2015.60157c-186.28663-351.46534-372.55091-703.04889-558.79005-1054.63244v97.89564c186.23913,361.86347,372.50341,723.69856,558.79005,1085.47219v-128.73539Z"/>
  <path d="M3907.27301,1792.13869c-186.26428-351.29984-372.57326-702.52402-558.79005-1053.97517v99.48444c186.21678,361.52301,372.50341,722.93726,558.79005,1084.3657v-129.87497Z"/>
  <path d="M3907.27301,1571.91488c-93.06089-180.37613-186.19164-360.64822-279.13239-541.26551-93.53587-181.80416-186.64426-364.40271-279.65765-547.20932v158.15184c186.33413,350.44396,372.71575,700.84064,558.79005,1051.80948v-121.48648Z"/>
  <path d="M3907.27301,1346.4991c-186.31178-362.6295-372.55091-725.39612-558.79005-1088.17504v164.06397c186.38163,350.81894,372.57326,701.95328,558.79005,1053.08761v-128.97654Z"/>
  <path d="M3907.27301,1255.13362v-134.40967c-186.23913-361.05488-372.52577-722.01803-558.79005-1083.01286v163.55376c186.16929,351.46297,372.52577,702.59731,558.79005,1053.86877Z"/>
  <path d="M3752.91844,596.29689c-100.84205-196.51049-199.44614-397.28331-298.88283-596.49519h-91.11072c8.04378,20.39542,16.10992,40.68577,25.50877,58.43991,172.79465,326.32683,345.87707,652.12736,518.83935,978.17189v-140.15962c-51.44501-99.99512-102.98221-199.81056-154.35457-299.957Z"/>
  <path d="M3567.5119-.1983h-91.4432c5.64099,14.1372,11.39932,28.0193,17.94275,40.35562,137.67469,259.82782,275.51423,519.30871,413.26156,778.98773v-152.55321c-113.2863-222.21785-226.49996-444.55627-339.76111-666.79015Z"/>
  <path d="M3680.7982-.1983h-87.49255c104.64741,197.87605,209.31996,395.67744,313.96736,593.53983v-153.15468c-75.50092-146.77489-150.99904-293.58004-226.47481-440.38515Z"/>
  <path d="M3805.55087-.1983h-93.15589c4.95088,15.54792,10.0666,30.70569,16.63239,43.13205,59.32115,112.06249,118.85464,223.71921,178.24564,335.64689v-169.22663c-33.92973-69.80082-67.74212-139.85652-101.72214-209.55232Z"/>
  <path d="M3827.18163-.1983c5.40071,14.51241,10.9439,28.72466,17.46498,41.06098,20.84287,39.51526,41.78353,78.80544,62.62639,118.30557V-.1983h-80.09138Z"/>
  <path d="M3616.26633,5085.00309c3.47288-6.40734,6.94855-12.75782,10.42143-19.16503-92.70327-179.92691-185.47639-359.99082-278.2048-539.93192v56.61047c89.30024,167.42445,178.50548,334.98614,267.78337,502.48648Z"/>
  <path d="M3861.39635,5107.31709c2.78557-5.28182,5.54599-10.592,8.32877-15.85963-173.72224-337.09047-347.46962-674.20447-521.24215-1011.35169v58.66267c171.03446,322.72507,341.95157,645.69118,512.91338,968.54865Z"/>
  <path d="M3787.56342,5632.00435c9.08872,17.1362,19.79514,31.12332,29.7416,46.56684,1.69034-4.23207,3.38068-8.47833,5.09337-12.75755-157.97274-306.33598-315.94269-612.65762-473.91543-918.99346v57.92974c146.36108,275.73724,292.69702,551.53136,439.08045,827.25442Z"/>
  <path d="M3482.01702,5283.68811c103.19735,195.07252,200.54137,401.42742,300.59552,602.61887,6.37859-12.247,12.75438-24.44672,19.13297-36.6324-151.09683-293.1904-302.16851-586.36662-453.26255-879.55702v61.36741c44.49645,84.10239,89.06275,168.08656,133.53406,252.20314Z"/>
  <path d="M3591.0202,5705.40584c3.83051-6.30304,7.63866-12.60637,11.46917-18.92375-84.66228-164.27519-169.34691-328.61214-254.0064-492.89693v55.69313c80.87648,151.99523,161.68311,304.08503,242.53723,456.12755Z"/>
  <path d="M3545.6688,6127.97471c3.47288,6.7855,6.89826,12.95156,10.34879,18.97119h88.3028c-98.79408-186.06475-197.23333-371.47207-295.83742-557.1773v155.18229c65.69695,127.7282,131.51124,255.24834,197.18583,383.02382Z"/>
  <path d="M3537.79265,4717.94292c5.78068,10.92761,13.96696,17.14096,21.03286,25.51538,2.38045-5.92975,4.76089-11.916,7.16369-17.88819-72.50301-140.71286-145.00322-281.42572-217.50623-422.13858v57.542c63.10416,118.98034,126.18317,237.98905,189.30969,356.96939Z"/>
  <path d="M3668.18631,6134.05565c2.4028,4.6671,5.06823,8.74786,7.73365,12.89024h83.99453c-137.15222-258.35516-274.2793-516.72909-411.43152-775.08882v143.67294c106.57523,206.14211,212.98562,412.61995,319.70334,618.52564Z"/>
  <path d="M3411.20435,6146.9459c-20.91551-39.37971-41.80588-78.77344-62.72139-118.17191v118.17191h62.72139Z"/>
  <path d="M3907.27301,3124.0688c-186.28663-350.65202-372.59841-701.21893-558.79005-1052.03645v100.31194c186.09664,361.11162,372.36092,722.55898,558.79005,1084.34679v-132.62227Z"/>
  <path d="M3437.59321,6136.07948c2.02282,3.90107,4.30827,7.33874,6.54343,10.86641h83.23457c-59.63128-112.36049-119.25977-224.73974-178.88825-337.11899v153.8772c29.71925,57.41905,59.36865,114.98469,89.11025,172.37538Z"/>
  <path d="M2789.69292,3299.23877c186.29501-361.78781,372.51738-723.69856,558.79005-1085.53366v100.92665c-186.27266,351.13434-372.49503,702.40107-558.79005,1053.50704v-68.90003Z"/>
  <path d="M2789.69292,2394.01977c186.27266-361.36697,372.54253-722.72448,558.79005-1084.15292v127.7613c-186.24752,351.08705-372.51738,702.22139-558.79005,1053.28479v-96.89318Z"/>
  <path d="M2789.69292,3071.51072c186.32016-361.09744,372.61517-722.21379,558.79005-1083.55239v107.94858c-186.27266,351.03031-372.51738,702.1079-558.79005,1053.09092v-77.48712Z"/>
  <path d="M2789.69292,2617.35024c69.03013-134.12123,138.01276-268.38432,207.06803-402.47718,117.19224-227.54364,234.48227-454.87922,351.72201-682.33774v127.71401c-186.24752,351.09178-372.51738,702.12209-558.79005,1053.15239v-96.05149Z"/>
  <path d="M2789.69292,2170.73657c186.34251-361.31022,372.59003-722.81432,558.79005-1084.34679v133.16133c-186.24752,350.94046-372.51738,701.83364-558.79005,1052.71264v-101.52718Z"/>
  <path d="M2789.69292,2846.14222c186.36766-361.14472,372.63752-722.44076,558.79005-1083.94486v113.71271c-186.24752,351.01612-372.51738,702.04643-558.79005,1053.01527v-82.78312Z"/>
  <path d="M2789.69292,3523.94999c186.27266-361.88238,372.54253-723.76003,558.79005-1085.64242v96.78442c-186.22237,351.31402-372.56767,702.46727-558.79005,1053.78129v-64.9233Z"/>
  <path d="M2789.69292,3735.24153c127.32869-252.39701,255.82526-502.1413,384.34417-751.88558,58.15607-113.02234,116.2898-226.04468,174.44587-339.05283v94.16006c-186.24752,351.07286-372.51738,702.10317-558.79005,1053.13348v-56.35513Z"/>
  <path d="M2789.69292,1728.20366c176.20606-332.25315,352.45961-664.40226,528.59303-996.82091,10.13645-19.13653,20.08291-38.61825,30.19701-57.79734v67.74626c-186.24752,361.1731-372.51738,722.28945-558.79005,1083.43417v-96.56218Z"/>
  <path d="M2789.69292,1284.29473c186.27266-351.03031,372.59003-702.01333,558.79005-1053.17982v61.23123c-186.24752,361.94196-372.51738,723.89527-558.79005,1085.8344v-93.88581Z"/>
  <path d="M2789.69292,1505.49262c186.34251-352.34958,372.61517-704.85047,558.79005-1057.4866v68.40637c-186.22237,361.31022-372.54253,722.51169-558.79005,1083.77936v-94.69912Z"/>
  <path d="M3348.17284,68.31158c-186.12738,361.86536-372.30504,723.5638-558.47992,1085.30905v-91.84779c19.91807-37.60634,39.88085-75.12756,59.82127-112.71971C3016.20126,634.57941,3181.01079,316.44862,3346.55514-.1983h1.92783v67.80485c-.09499.22508-.18999.47995-.31013.70503Z"/>
  <path d="M3233.17105-.1983h29.62425c-9.11387,23.78713-18.20259,47.55946-28.88665,68.37511-148.00951,287.74215-296.15872,575.21193-444.21573,862.89828v-94.26409C2937.50965,557.77321,3085.35153,278.82431,3233.17105-.1983Z"/>
  <path d="M2817.3195,561.97218c98.03692-185.17752,193.98117-374.43958,290.68538-562.17048h44.35675c-2.90571,9.2297-5.99861,18.03922-9.85147,25.52805-117.54987,228.3116-235.24223,456.38437-352.81724,684.65148v-95.90018c9.18371-17.3775,18.41772-34.72664,27.62658-52.10887Z"/>
  <path d="M2969.91947-.1983h91.51863c-5.59349,14.03218-11.30432,27.83923-17.80026,40.07049-84.61478,159.41139-169.27986,318.67302-253.94493,477.93512v-163.68947c60.05875-118.12542,120.1203-236.28062,180.22655-354.31615Z"/>
  <path d="M2856.65273-.1983h91.3035c-.7376,1.51574-1.33271,3.25666-2.09267,4.7124-52.04012,98.06024-104.13052,196.01545-156.17064,294.01559v-168.32631c22.32087-43.4622,44.64174-86.92445,66.95981-130.40169Z"/>
  <path d="M2824.17306-.1983c-6.1886,18.03922-12.49175,35.88334-20.34555,50.71106-4.7106,8.89965-9.42399,17.78416-14.13459,26.68333V-.1983h34.48014Z"/>
  <path d="M2789.69292,4459.06303v-60.82836c186.22237-361.41425,372.46989-722.85688,558.79005-1084.43663v94.03712c-128.8514,242.71763-257.70559,485.43998-386.60448,728.11032-57.30113,107.87765-114.78945,215.42431-172.18556,323.11754Z"/>
  <path d="M2789.69292,4014.53466v-62.08616c186.20002-361.24875,372.46989-722.66301,558.79005-1084.18602v93.18598c-172.4929,325.01843-345.01094,650.0274-517.50384,975.10731-13.77976,25.96459-27.50923,52.00011-41.2862,77.97889Z"/>
  <path d="M2789.69292,4619.2387c186.27266-361.18728,372.54253-722.39348,558.79005-1083.58549v92.35848c-186.22237,350.98302-372.51738,701.88093-558.79005,1052.78829v-61.56129Z"/>
  <path d="M2789.69292,4842.46502c186.27266-361.44723,372.54253-722.88985,558.79005-1084.33721v93.82906c-186.29501,351.67339-372.59003,703.42717-558.79005,1055.29431v-64.78617Z"/>
  <path d="M2789.69292,5125.55519v-59.64148c186.20002-361.32428,372.46989-722.80001,558.79005-1084.37976v92.19298c-71.45807,134.73594-142.91614,269.47662-214.39656,404.18419-114.69445,216.09576-229.57889,431.81784-344.39348,647.64407Z"/>
  <path d="M2789.69292,5465.86582c186.5325-351.29983,372.80516-702.13153,558.79005-1052.42878v118.21904c-186.34251,361.69797-372.59003,723.54712-558.79005,1085.49096v-151.28122Z"/>
  <path d="M2789.69292,4175.74588c186.27266-361.51828,372.54253-723.03656,558.79005-1084.54066v91.99438c-186.24752,351.27146-372.49503,702.52402-558.79005,1053.71982v-61.17354Z"/>
  <path d="M2789.69292,5247.91173c186.27266-350.89317,372.54253-701.79095,558.79005-1052.68413v111.1451c-186.10502,360.93667-372.46989,721.37671-558.79005,1081.87374v-140.33471Z"/>
  <path d="M2789.69292,5904.80974c186.27266-350.96869,372.54253-701.90455,558.79005-1052.87799v129.63842c-186.20002,360.78534-372.3274,721.71727-558.79005,1082.03922v-158.79965Z"/>
  <path d="M2789.69292,1948.09647c150.91243-284.31961,301.79971-568.6534,452.75684-852.89735,35.21774-66.33714,70.65062-132.24872,106.03321-198.20757v63.32977c-186.17487,361.29604-372.44753,722.75758-558.79005,1084.35152v-96.57636Z"/>
  <path d="M2789.69292,5685.84846c186.27266-350.9972,372.54253-702.01331,558.79005-1053.02931v122.58339c-186.15252,360.54419-372.40004,720.92287-558.79005,1081.03203v-150.58612Z"/>
  <path d="M3348.48297,5071.73458v138.68903c-158.47844,307.88208-317.09938,615.55137-475.41019,923.76444-2.38045,4.6247-4.7581,8.52562-7.13854,12.75784h-76.24131v-22.45142c186.60514-351.54098,372.78001-702.33013,558.79005-1052.7599Z"/>
  <path d="M2984.64918,6135.09121c-2.21281,4.27463-4.68825,8.0433-7.13854,11.85469h-83.71234c151.57739-285.44516,303.13242-570.90907,454.68467-856.36826v140.8027c-121.28538,234.5561-242.40592,469.42429-363.83379,703.71087Z"/>
  <path d="M3110.07519,6125.53004c-3.878,7.53262-7.73365,14.64912-11.61166,21.41586h-88.40059c113.02926-212.80956,225.74838-425.06098,338.42002-637.24148v152.20802c-79.42921,154.57703-159.02606,308.93182-238.40777,463.61761Z"/>
  <path d="M3193.21756,6146.9459h-43.14139c66.15236-128.3478,132.27957-256.69071,198.40679-385.05253v92.55235c-51.75513,97.46061-103.48792,195.05361-155.2654,292.50019Z"/>
  <path d="M3313.36022,6138.66128c-1.59255,2.96954-3.47288,5.4615-5.16322,8.28461h-44.11647c28.1267-54.56773,56.27575-109.14979,84.40244-163.71752v89.38436c-11.70665,22.00189-23.4161,44.0465-35.12275,66.04855Z"/>
  <path d="M2230.90287,4060.85103c186.26428,361.84928,372.57326,723.6086,558.79005,1085.53353v-136.75031c-186.23913-351.19568-372.50341-702.35839-558.79005-1053.49273v104.70951Z"/>
  <path d="M2230.90287,4964.51906c142.88541,277.29754,285.86581,554.42971,428.72887,831.78886,44.47131,86.36737,87.25507,175.88871,130.06118,265.34857v-175.24562c-186.21678-351.19107-372.52577-702.17881-558.79005-1053.28004v131.38824Z"/>
  <path d="M2230.90287,4286.53634c186.31178,361.62231,372.59841,723.23516,558.79005,1085.05121v-143.6824c-186.23913-351.05867-372.52577-702.06048-558.79005-1053.08606v111.71725Z"/>
  <path d="M2230.90287,4610.47665v131.35962c186.26428,361.33859,372.50341,722.73864,558.79005,1084.04886v-160.01016c-77.54609-147.33286-155.16482-294.57114-232.99589-441.39332-108.55055-204.73287-217.21845-409.3005-325.79415-614.00501Z"/>
  <path d="M2754.78531,6038.07982c-174.57998-329.07081-349.27731-657.93829-523.88243-986.94763v136.8969c42.80611,83.09993,85.63737,166.11948,128.44348,249.23359,120.49469,234.08798,238.51394,472.80049,357.51108,709.68321h72.83549v-36.48582c-11.27918-24.80609-22.70085-49.37102-34.90761-72.38026Z"/>
  <path d="M2230.90287,4512.29257c87.27742,169.5146,174.60513,338.90613,261.8574,508.47746,99.22435,192.83118,198.11342,386.26762,296.93265,579.85064v-152.79422c-186.23913-351.05881-372.52577-701.99926-558.79005-1053.02472v117.49084Z"/>
  <path d="M2230.90287,3836.25802c186.26428,361.88238,372.52577,723.76003,558.79005,1085.64229v-132.40003c-186.28663-351.23824-372.55091-702.47661-558.79005-1053.77645v100.53418Z"/>
  <path d="M2230.90287,3532.27701v98.03276c186.28663,362.0006,372.52577,724.00119,558.79005,1085.99706v-130.83487c-147.57366-278.21029-295.16967-556.34965-442.76847-834.53157-38.66548-72.89095-77.3561-145.7677-116.02158-218.66338Z"/>
  <path d="M2515.24598,6146.9459h27.84171c-11.06404-25.81343-22.13088-51.61252-34.33765-75.25066-92.58313-179.61009-185.2389-359.13034-277.84717-538.71206v66.0487c95.08371,182.07368,189.59467,365.1971,284.34311,547.91402Z"/>
  <path d="M2277.77698,6146.9459h37.21542c-4.68825-9.60389-9.30385-19.35893-14.10945-28.72623-23.31831-45.32321-46.66176-90.64673-69.98007-135.98428v65.62786c15.67965,32.94396,31.2196,66.12451,46.8741,99.08266Z"/>
  <path d="M2401.77249,6146.9459h28.74137c-1.99767-4.66726-3.94785-9.51404-6.16066-13.80743-64.45923-125.08981-128.96595-250.11799-193.45032-375.19346v65.39143c56.96306,107.87292,113.90376,215.76476,170.86961,323.60946Z"/>
  <path d="M2230.90287,2960.63515c186.09664,361.17782,372.52577,722.95145,558.79005,1084.45554v-129.87497c-186.23913-350.82225-372.52577-701.59722-558.79005-1052.40055v97.81998Z"/>
  <path d="M2230.90287,3406.13761c186.14414,361.15891,372.40842,722.57789,558.79005,1084.18602v-127.60999c-186.26428-351.16271-372.47827-702.4058-558.79005-1053.45029v96.87426Z"/>
  <path d="M2230.90287,2738.67123c186.26428,361.2062,372.52577,722.39821,558.79005,1083.59967v-125.22206c-186.26428-351.43696-372.43077-703.09617-558.79005-1054.36764v95.99002Z"/>
  <path d="M2230.90287,2516.27228c186.26428,361.44735,372.52577,722.88998,558.79005,1084.33733v-125.86987c-186.28663-351.83889-372.43077-703.96623-558.79005-1055.7011v97.23364Z"/>
  <path d="M2230.90287,2292.88506c186.14414,361.22038,372.40842,722.67719,558.79005,1084.37989v-127.0993c-186.28663-351.01612-372.55091-702.03224-558.79005-1053.13348v95.85289Z"/>
  <path d="M2230.90287,1857.2133c186.42912,351.13434,372.6934,701.95186,558.79005,1052.44311v-82.42375c-186.31178-361.3717-372.55091-722.86161-558.79005-1084.35152v114.33215Z"/>
  <path d="M2230.90287,3183.22797c186.26428,361.52301,372.52577,723.04129,558.79005,1084.55957v-125.014c-186.23913-351.74905-372.43077-703.61632-558.79005-1055.15731v95.61174Z"/>
  <path d="M2230.90287,2075.47002c186.26428,350.89318,372.52577,701.78636,558.79005,1052.67954v-76.02599c-186.23913-361.40007-372.50341-722.77176-558.79005-1084.11036v107.45681Z"/>
  <path d="M2230.90287,1418.77533c186.26428,350.97356,372.52577,701.92822,558.79005,1052.89705v-95.70631c-186.14414-361.3386-372.47827-722.33201-558.79005-1083.40107v126.21033Z"/>
  <path d="M2358.32377,5609.38745c4.13784-8.00074,8.27847-15.9542,12.41911-23.95495-46.61427-90.43395-93.22574-180.90099-139.84-271.33967v58.39787c42.49598,78.95297,84.99476,157.83502,127.42089,236.89675Z"/>
  <path d="M2230.90287,1637.90684c186.26428,351.01139,372.52577,702.02752,558.79005,1053.04364v-89.46459c-186.19164-361.06907-372.47827-721.98682-558.79005-1082.86202v119.28297Z"/>
  <path d="M2230.90287,1198.95818c186.45427,351.28565,372.71575,702.17883,558.79005,1052.75992v-102.45871c-186.35927-361.5041-372.52577-723.36756-558.79005-1085.09863v134.79742Z"/>
  <path d="M2230.90287,980.08675c186.26428,350.82225,372.52577,701.65396,558.79005,1052.47621v-108.32687c-186.12179-360.82791-372.47827-721.19242-558.79005-1081.63259v137.48325Z"/>
  <path d="M2230.90287,760.9316c186.61911,351.43224,372.7884,701.99914,558.79005,1052.27761v-114.07208c-186.38163-361.89657-372.57326-724.16669-558.79005-1086.36116v148.15563Z"/>
  <path d="M2230.90287,512.5255c186.26428,361.48991,372.52577,722.99401,558.79005,1084.48392v-127.71401c-186.12179-351.27146-372.43077-702.19774-558.79005-1053.06066v96.29076Z"/>
  <path d="M2230.90287,291.11577c186.26428,361.24781,372.52577,722.50129,558.79005,1083.75004v-126.29071c-186.14414-350.47234-372.40842-700.7508-558.79005-1050.77723v93.31791Z"/>
  <path d="M2789.69292,1152.27299v-127.65727C2608.49687,682.73992,2427.16111,341.12137,2245.68008-.1983h-14.7772v68.35998c186.26428,361.35467,372.52577,722.73961,558.79005,1084.1113Z"/>
  <path d="M2373.86093,21.83297c-4.21328-7.86404-8.85123-14.97771-13.49199-22.03127h-50.41963c159.92292,310.22363,319.82069,620.47851,479.74361,930.71542v-126.99527c-138.53243-260.71457-277.08722-521.39557-415.83199-781.68888Z"/>
  <path d="M2479.88854-.1983h-55.29786c121.70727,236.07062,243.39218,472.15643,365.10224,708.24081v-126.52714c-103.24484-193.94524-206.44219-387.9945-309.80438-581.71367Z"/>
  <path d="M2599.40815-.1983h-59.74863c83.28207,161.61783,166.63399,323.34021,250.0334,485.19878v-127.13051c-63.41149-119.37139-126.75314-238.92247-190.28477-358.06827Z"/>
  <path d="M2714.92961-.1983h-59.79333c44.85128,87.1797,89.70536,174.35897,134.55664,261.53872v-121.12711c-24.93601-46.74856-49.80216-93.69274-74.76331-140.4116Z"/>
  <path d="M2769.96763-.1983c6.56578,12.78653,13.15671,25.57307,19.72529,38.3596V-.1983h-19.72529Z"/>
  <path d="M3907.27301,2085.89652c186.26428-361.84928,372.57438-723.60872,558.79005-1085.53366v136.75032c-186.23969,351.19581-372.50341,702.35852-558.79005,1053.49285v-104.70951Z"/>
  <path d="M3907.27301,1182.22849c142.88541-277.29768,285.86721-554.42985,428.72943-831.78758,44.47186-86.36927,87.25423-175.88966,130.06062-265.35047v175.24468c-186.21566,351.1925-372.52577,702.18025-558.79005,1053.28148v-131.38812Z"/>
  <path d="M3907.27301,1860.21122c186.31178-361.62231,372.59813-723.23516,558.79005-1085.05134v143.6824c-186.23969,351.05868-372.52577,702.06062-558.79005,1053.08619v-111.71725Z"/>
  <path d="M3907.27301,1536.2709v-131.35974c186.26428-361.3386,372.50286-722.73866,558.79005-1084.05031v160.01158c-77.54637,147.33286-155.16398,294.57115-232.99561,441.39333-108.55083,204.733-217.21873,409.30051-325.79443,614.00514Z"/>
  <path d="M4431.15656,108.66711c-174.58026,329.07365-349.27842,657.93878-523.88355,986.94812v-136.8969c42.80611-83.09993,85.63737-166.11948,128.44348-249.2336,120.49469-234.08798,238.51534-472.80193,357.51164-709.68307h72.83493v36.48368c-11.27859,24.8076-22.69995,49.37538-34.9065,72.38177Z"/>
  <path d="M3907.27301,1634.45498c87.27742-169.5146,174.60513-338.90625,261.8574-508.47759,99.22407-192.83119,198.11398-386.26763,296.93265-579.85066v152.79436c-186.23969,351.05868-372.52577,701.99914-558.79005,1053.02472v-117.49084Z"/>
  <path d="M3907.27301,2310.48953c186.26428-361.88238,372.5266-723.76003,558.79005-1085.64242v132.40003c-186.28719,351.23836-372.55091,702.47673-558.79005,1053.77657v-100.53418Z"/>
  <path d="M3907.27301,2614.47054v-98.03276c186.28663-362.0006,372.5266-724.00119,558.79005-1085.99706v130.83487c-147.57338,278.21029-295.16967,556.34965-442.76847,834.53157-38.66548,72.89095-77.3561,145.7677-116.02158,218.66338Z"/>
  <path d="M4191.61724-.19835h27.83948c-11.06432,25.81318-22.12864,51.61142-34.33653,75.24861-92.58313,179.61152-185.2389,359.13366-277.84717,538.71397v-66.0487c95.08371-182.07179,189.59467-365.19522,284.34423-547.91388Z"/>
  <path d="M3954.14711-.19835h37.21542c-4.68825,9.60491-9.30385,19.35991-14.10945,28.72471-23.31831,45.32332-46.66176,90.64621-69.98007,135.98471v-65.6288c15.67965-32.9416,31.2196-66.12374,46.8741-99.08062Z"/>
  <path d="M4078.14262-.19835h28.74137c-1.99767,4.66738-3.94785,9.51488-6.16066,13.80705-64.45923,125.08909-128.96595,250.11775-193.45032,375.1918v-65.38812c56.96306-107.87529,113.90376-215.76571,170.86961-323.61073Z"/>
  <path d="M3907.27301,3186.1124c186.09664-361.17782,372.5266-722.95145,558.79005-1084.45554v129.87497c-186.23969,350.82225-372.52577,701.59722-558.79005,1052.40055v-97.81998Z"/>
  <path d="M3907.27301,2740.60994c186.14414-361.15891,372.40786-722.57789,558.79005-1084.18602v127.60999c-186.26344,351.16271-372.47827,702.4058-558.79005,1053.45029v-96.87426Z"/>
  <path d="M3907.27301,3408.07632c186.26428-361.2062,372.5266-722.39821,558.79005-1083.59967v125.22206c-186.26344,351.43696-372.43077,703.09617-558.79005,1054.36764v-95.99002Z"/>
  <path d="M3907.27301,3630.47527c186.26428-361.44735,372.5266-722.88998,558.79005-1084.33733v125.86987c-186.28719,351.83889-372.43077,703.96623-558.79005,1055.7011v-97.23364Z"/>
  <path d="M3907.27301,3853.86249c186.14414-361.22038,372.40786-722.67719,558.79005-1084.37989v127.0993c-186.28719,351.01612-372.55091,702.03224-558.79005,1053.13348v-95.85289Z"/>
  <path d="M3907.27301,4289.53425c186.42912-351.13434,372.69312-701.95186,558.79005-1052.44311v82.42375c-186.31094,361.3717-372.55091,722.86161-558.79005,1084.35152v-114.33215Z"/>
  <path d="M3907.27301,2963.51958c186.26428-361.52301,372.5266-723.04129,558.79005-1084.55957v125.014c-186.23969,351.74905-372.43077,703.61632-558.79005,1055.15731v-95.61174Z"/>
  <path d="M3907.27301,4071.27753c186.26428-350.89318,372.5266-701.78636,558.79005-1052.67954v76.02599c-186.23969,361.40007-372.50341,722.77176-558.79005,1084.11036v-107.45681Z"/>
  <path d="M3907.27301,4727.97222c186.26428-350.97356,372.5266-701.92822,558.79005-1052.89705v95.70631c-186.14442,361.3386-372.47827,722.33201-558.79005,1083.40095v-126.21021Z"/>
  <path d="M4034.6939,537.35996c4.13784,8.00074,8.27847,15.9542,12.41911,23.95495-46.61427,90.43395-93.22574,180.901-139.84,271.33968v-58.39787c42.49598-78.95297,84.99476-157.83502,127.42089-236.89675Z"/>
  <path d="M3907.27301,4508.84071c186.26428-351.01139,372.5266-702.02752,558.79005-1053.04364v89.46459c-186.19192,361.06907-372.47827,721.98682-558.79005,1082.86202v-119.28297Z"/>
  <path d="M3907.27301,4947.78925c186.45427-351.28553,372.71715-702.1787,558.79005-1052.7598v102.45871c-186.35844,361.5041-372.52577,723.36756-558.79005,1085.0985v-134.79741Z"/>
  <path d="M3907.27301,5166.66067c186.26428-350.82224,372.5266-701.65383,558.79005-1052.47608v108.32687c-186.12067,360.82791-372.47827,721.19229-558.79005,1081.63245v-137.48324Z"/>
  <path d="M3907.27301,5385.81582c186.61911-351.43223,372.7884-701.99901,558.79005-1052.27747v114.07208c-186.38218,361.89645-372.57326,724.16656-558.79005,1086.36102v-148.15563Z"/>
  <path d="M3907.27301,5634.22191c186.26428-361.4899,372.5266-722.99386,558.79005-1084.48377v127.71401c-186.12067,351.27134-372.43077,702.19761-558.79005,1053.06241v-96.29265Z"/>
  <path d="M3907.27301,5855.63258c186.26428-361.24874,372.5266-722.50222,558.79005-1083.75096v126.29071c-186.14442,350.47233-372.40842,700.75078-558.79005,1050.77862v-93.31838Z"/>
  <path d="M4466.06306,4994.47444v127.65727c-181.19522,341.87578-362.53181,683.49622-544.01284,1024.81419h-14.7772v-68.36113c186.26428-361.35277,372.5266-722.73864,558.79005-1084.11033Z"/>
  <path d="M4050.23106,6124.91532c-4.21328,7.86362-8.85123,14.97539-13.49199,22.03057h-50.41963c159.92292-310.22287,319.82069-620.47869,479.74361-930.7156v126.99527c-138.5316,260.71457-277.08694,521.39603-415.83199,781.68976Z"/>
  <path d="M4156.25868,6146.9459h-55.29786c121.70838-236.0694,243.3933-472.15756,365.10224-708.241v126.52714c-103.24428,193.94712-206.44107,387.99355-309.80438,581.71386Z"/>
  <path d="M4275.77856,6146.9459h-59.74807c83.28067-161.61803,166.63287-323.33979,250.03256-485.19882v127.13225c-63.41233,119.36823-126.75342,238.92058-190.28449,358.06657Z"/>
  <path d="M4391.30086,6146.9459h-59.79556c44.8524-87.18084,89.70508-174.36153,134.55776-261.53734v121.12696c-24.93665,46.74667-49.80188,93.69209-74.7622,140.41038Z"/>
  <path d="M4446.3374,6146.9459c6.56729-12.78621,13.15836-25.57227,19.72565-38.35833v38.35833h-19.72565Z"/>
  <path d="M1856.78176,478.30482c73.29928-156.54365,143.97784-318.50624,215.61193-478.50312h82.8043c-8.24774,23.32189-16.49828,46.61384-26.22122,66.76929-152.23117,315.61141-304.59087,630.96937-456.86395,946.50228v-140.51426c61.54234-131.45432,123.14894-262.78569,184.66893-394.25419Z"/>
  <path d="M1731.98718-.1983c-8.33715,23.502-16.65194,47.00404-26.4615,67.29463-11.1311,23.08158-22.28175,46.1485-33.41285,69.23008V-.1983h59.87435Z"/>
  <path d="M1969.12371-.1983h83.91071c-3.89756,11.49587-7.92644,22.60154-12.62586,32.35653-122.73544,254.28996-245.56029,508.43134-368.29572,762.69141v-148.32113C1771.80936,432.38282,1870.22905,215.58202,1969.12371-.1983Z"/>
  <path d="M1762.84357-.1983h79.75331c-56.86248,118.63558-113.66348,237.37618-170.48405,356.087v-162.65296c30.2501-64.47314,60.48064-128.96094,90.73074-193.43403Z"/>
  <path d="M1865.94033-.1983h82.30977c-4.16019,10.46031-8.38185,20.72557-12.99466,30.24045-87.6993,181.66811-175.44331,363.24577-263.14261,544.91469v-157.76173C1736.70896,278.0441,1801.30229,138.86282,1865.94033-.1983Z"/>
  <path d="M2227.41602,116.66643c-24.10061,38.04468-50.69343,70.91109-72.02245,115.03387-161.17181,333.6528-322.17319,667.69335-483.28075,1001.49274v-136.14979C1843.42109,731.29291,2014.74892,365.5539,2186.05718-.1983h44.8457v276.24647c-185.88151,387.87203-372.2799,774.71182-558.79005,1161.23479v-134.69339c185.102-395.31812,370.22355-790.63624,555.3032-1185.92314Z"/>
  <path d="M2230.90287,782.33312v168.88097c-186.29222,385.41176-372.54253,770.92755-558.79005,1156.41496v-133.65783c186.22796-397.13389,372.2799-793.90368,558.79005-1191.6381Z"/>
  <path d="M2230.90287,337.44443v166.19608c-5.08778,9.37676-10.04705,18.74406-14.68221,28.34779-181.24635,376.24306-362.71062,752.05108-544.10784,1127.93477v-131.1375c186.07429-396.74615,372.3246-793.81856,558.79005-1191.34114Z"/>
  <path d="M2230.90287,1006.20265v160.59651c-186.14135,386.53716-372.52018,772.53526-558.79005,1158.7556v-128.65973c186.24752-396.89273,372.52018-793.78546,558.79005-1190.69238Z"/>
  <path d="M2230.90287,1226.9797v160.41682c-186.09664,387.13769-372.49783,773.63229-558.79005,1160.30185v-129.21297c186.24752-397.18118,372.52018-794.32925,558.79005-1191.5057Z"/>
  <path d="M2230.90287,1450.24871v166.96117c-186.44309,384.79704-372.62914,770.1757-558.79005,1155.57327v-130.972c186.07429-396.78398,372.2799-793.87531,558.79005-1191.56244Z"/>
  <path d="M2230.90287,1956.71192v44.25944c-186.26987,396.98258-372.52018,793.97934-558.79005,1190.94773v-78.73073c186.33692-385.65292,372.58444-771.10723,558.79005-1156.47643Z"/>
  <path d="M2230.90287,559.52751v159.95342c-186.11899,387.06203-372.49783,773.52353-558.79005,1160.18363v-128.3902c186.24752-397.25683,372.52018-794.49475,558.79005-1191.74685Z"/>
  <path d="M2054.61579,2102.81063c.17322,40.11721-8.12201,63.84519-17.82261,84.66036-121.4586,259.9911-243.00382,519.75996-364.68035,779.31603v-72.1391c127.50192-263.93946,255.00104-527.89783,382.50296-791.83729Z"/>
  <path d="M2230.90287,2394.15689v56.88c-186.24752,397.40342-372.52018,794.69808-558.79005,1192.03057v-91.95655c186.24752-385.634,372.52018-771.3011,558.79005-1156.95402Z"/>
  <path d="M2230.90287,2174.7133v53.57945c-59.41894,126.42311-119.0111,252.45849-178.38813,378.97144-126.80902,270.1528-253.61524,540.27724-380.40191,810.44423v-85.88979c186.24752-385.69547,372.52018-771.40513,558.79005-1157.10533Z"/>
  <path d="M2230.90287,2614.27194v64.50719c-186.24752,397.0866-372.52018,794.06918-558.79005,1191.08013v-98.77988c186.33692-385.75694,372.58444-771.36257,558.79005-1156.80743Z"/>
  <path d="M2230.90287,2833.77701v70.15783c-186.22796,397.05823-372.49783,794.02662-558.79005,1190.96664v-104.61967c186.24752-385.51579,372.52018-771.0032,558.79005-1156.5048Z"/>
  <path d="M2230.90287,3053.36719v74.30479c-186.22796,397.49326-372.52018,794.82102-558.79005,1192.21025v-110.2183c186.40118-385.70966,372.62914-771.09305,558.79005-1156.29675Z"/>
  <path d="M2230.90287,3230.40021v161.40509c-186.01003,387.63419-372.36651,774.50235-558.79005,1161.23338v-130.972c186.24752-397.219,372.52018-794.42855,558.79005-1191.66647Z"/>
  <path d="M2230.90287,3453.42806v161.31998c-88.41455,190.4007-179.66497,375.14603-269.89839,561.83953-96.29908,199.24313-192.59537,398.48626-288.89166,597.72454v-130.02617c186.24752-396.94948,372.52018-793.90368,558.79005-1190.85788Z"/>
  <path d="M2230.90287,3675.57167v160.04326c-185.94577,388.2158-372.26034,775.65612-558.79005,1162.58562v-131.36447c186.24752-397.08648,372.52018-794.1589,558.79005-1191.26442Z"/>
  <path d="M2230.90287,3897.38428v166.76729c-28.38933,64.08161-59.82965,122.79157-89.60478,184.36704-156.38857,323.68497-312.75479,647.44548-469.18527,971.0406v-130.95308c186.24752-397.07702,372.52018-794.13052,558.79005-1191.22185Z"/>
  <path d="M2230.90287,4119.99601v162.09547c-185.66358,387.84224-372.10667,773.97735-558.79005,1159.61134v-130.62668c186.24752-397.01095,372.52018-794.04081,558.79005-1191.08013Z"/>
  <path d="M2230.90287,4342.54155v168.28044c-186.76998,383.70462-372.71575,769.13055-558.79005,1154.25859v-130.98618c185.31713-395.17152,371.19864-791.55356,558.79005-1191.55284Z"/>
  <path d="M2230.90287,4564.07044v158.63415c-185.36183,388.66489-371.86919,774.88995-558.79005,1160.25441v-125.43011c186.24752-397.82425,372.52018-795.6485,558.79005-1193.45845Z"/>
  <path d="M1672.11283,5980.61348c186.24752-398.10797,372.52018-796.20175,558.79005-1194.30971v159.3387c-184.99303,390.99146-371.45848,778.89517-558.79005,1164.90745v-129.93644Z"/>
  <path d="M1697.70821,6146.9459c179.31852-360.03351,358.24868-719.27276,533.19467-1070.46856v103.01195c-157.6207,321.01805-313.10124,646.637-470.7862,967.45661h-62.40847Z"/>
  <path d="M1804.89811,6146.9459c142.00811-290.0697,283.99666-580.15343,426.00477-870.21824v118.25687c-119.37991,254.39719-240.81895,504.59069-363.49013,751.96138h-62.51464Z"/>
  <path d="M1974.77587,6146.9459h-65.35329c107.05858-221.13657,214.18422-442.47159,321.48029-664.15179v137.39813c-84.92771,172.22879-166.89103,350.90736-252.74912,520.97519-1.0617,2.07111-2.27428,3.81123-3.37789,5.77847Z"/>
  <path d="M2073.67053,6146.9459h-51.47295c70.00801-142.27344,139.82324-284.22991,208.70529-424.2524v112.75281c-53.35607,101.13471-94.84623,235.55871-157.23234,311.49959Z"/>
  <path d="M2123.04243,6146.9459c36.31577-72.03523,72.24038-143.309,107.86045-213.97751v149.00693c-11.97487,24.87229-25.22658,46.75124-39.19353,64.97059h-68.66691Z"/>
  <path d="M2226.94105,6146.9459c1.36345-2.58196,2.61793-5.02663,3.96182-7.62261v7.62261h-3.96182Z"/>
  <path d="M5583.62931,3427.16125v65.1219c-5.5432,10.44542-11.08919,20.89083-16.60724,31.33625-180.67359,340.49032-361.43937,680.7915-542.18281,1021.14942v-32.06918c186.28663-361.80672,372.50341-723.74585,558.79005-1085.53839Z"/>
  <path d="M5024.83926,3668.32317v-62.40297c186.28663-361.3386,372.50341-722.78595,558.79005-1084.13873v93.25691c-186.02679,350.54799-371.97815,701.2473-558.00495,1051.79529-.26263.4965-.52247.993-.7851,1.4895Z"/>
  <path d="M5024.83926,4322.81908v-59.05514c67.02966-121.3068,134.31916-242.14547,199.13601-367.6276,119.94708-232.21074,239.75446-464.69573,359.65404-697.01523v73.97379c-127.27561,239.80955-254.50651,479.73732-381.78212,719.51378-58.72604,110.63441-117.87955,220.37039-177.00792,330.2104Z"/>
  <path d="M5024.83926,3831.48729c186.23913-362.12354,372.50341-724.15251,558.79005-1086.13892v92.16461c-186.28663,351.01139-372.50341,702.14573-558.79005,1053.14767v-59.17336Z"/>
  <path d="M5024.83926,3380.73139c186.31178-360.66714,372.62076-721.28699,558.79005-1082.20474v97.80579c-186.26428,350.87899-372.50341,701.86202-558.79005,1052.71264v-68.31369Z"/>
  <path d="M5048.65769,4053.34246c-6.30595-12.7104-12.58675-25.42081-18.89269-38.17849,65.69695-116.29451,133.79669-228.07324,196.68571-349.64956,119.16198-230.42807,238.13397-461.20132,357.1786-691.82326v79.33126c-148.12127,279.09926-296.2174,558.29783-444.36102,837.36872-29.50691,55.64584-60.36888,108.71461-90.6106,162.95134Z"/>
  <path d="M5374.68933,4309.47977c-23.58094,44.43912-48.15932,86.91116-72.28787,130.26744,92.63342-193.73434,186.54926-384.51333,281.22785-573.54747v49.50815c-69.64759,131.24153-139.27004,262.54453-208.93998,393.77187Z"/>
  <path d="M5351.46602,4150.85035c-45.75652,86.30591-92.25065,171.18851-138.41229,256.79459-2.99791-6.07622-6.02096-12.19972-9.01887-18.28066,126.5408-245.8243,253.05645-491.6486,379.59446-737.47762v61.17354c-77.37845,145.94739-154.78205,291.83804-232.16329,437.79016Z"/>
  <path d="M5024.83926,2905.07483c186.33413-350.77496,372.59841-701.63977,558.79005-1052.68427v100.04241c-186.26428,361.14472-372.50341,722.32255-558.79005,1083.44836v-130.8065Z"/>
  <path d="M5024.83926,2462.49936c186.26428-351.37549,372.43077-702.91176,558.79005-1054.09338v97.74432c-186.26428,361.92494-372.52577,723.88298-558.79005,1085.83629v-129.48723Z"/>
  <path d="M5024.83926,2684.25522c141.5052-266.58273,283.03554-533.13236,424.37589-800.01772,44.85128-84.65563,89.61037-169.49568,134.41415-254.21279v97.88145c-186.26428,361.27712-372.50341,722.55898-558.79005,1083.79354v-127.44449Z"/>
  <path d="M5024.83926,2238.58726c186.42912-350.60946,372.62076-701.63977,558.79005-1052.74574v95.74886c-186.28663,361.93912-372.50341,723.98701-558.79005,1085.92613v-128.92926Z"/>
  <path d="M5024.83926,2015.72018c186.28663-351.46534,372.55091-703.04889,558.79005-1054.63244v97.89564c-186.23913,361.86347-372.50341,723.69856-558.79005,1085.47219v-128.73539Z"/>
  <path d="M5024.83926,1792.25731c186.26428-351.29984,372.57326-702.52402,558.79005-1053.97517v99.48444c-186.21678,361.52301-372.50341,722.93726-558.79005,1084.3657v-129.87497Z"/>
  <path d="M5024.83926,1572.0335c93.06089-180.37613,186.19164-360.64822,279.13239-541.26551,93.53587-181.80416,186.64426-364.40271,279.65765-547.20932v158.15184c-186.33413,350.44396-372.71575,700.84064-558.79005,1051.80948v-121.48648Z"/>
  <path d="M5024.83926,1346.61772c186.31178-362.6295,372.55091-725.39612,558.79005-1088.17504v164.06397c-186.38163,350.81894-372.57326,701.95328-558.79005,1053.08761v-128.97654Z"/>
  <path d="M5024.83926,1255.25224v-134.40967c186.23913-361.05488,372.52577-722.01803,558.79005-1083.01286v163.55376c-186.16929,351.46297-372.52577,702.59731-558.79005,1053.86877Z"/>
  <path d="M5179.19384,596.41551c100.84205-196.51049,199.44614-397.28331,298.88283-596.49519h91.11072c-8.04378,20.39542-16.10992,40.68577-25.50877,58.43991-172.79465,326.32683-345.87707,652.12736-518.83935,978.17189v-140.15962c51.44501-99.99512,102.98221-199.81056,154.35457-299.957Z"/>
  <path d="M5364.60038-.07968h91.4432c-5.64099,14.1372-11.39932,28.0193-17.94275,40.35562-137.67469,259.82782-275.51423,519.30871-413.26156,778.98773v-152.55321c113.2863-222.21785,226.49996-444.55627,339.76111-666.79015Z"/>
  <path d="M5251.31408-.07968h87.49255c-104.64741,197.87605-209.31996,395.67744-313.96736,593.53983v-153.15468c75.50092-146.77489,150.99904-293.58004,226.47481-440.38515Z"/>
  <path d="M5126.5614-.07968h93.15589c-4.95088,15.54792-10.0666,30.70569-16.63239,43.13205-59.32115,112.06249-118.85464,223.71921-178.24564,335.64689v-169.22663c33.92973-69.80082,67.74212-139.85652,101.72214-209.55232Z"/>
  <path d="M5104.93064-.07968c-5.40071,14.51241-10.9439,28.72466-17.46498,41.06098-20.84287,39.51526-41.78353,78.80544-62.62639,118.30557V-.07968h80.09138Z"/>
  <path d="M5315.84594,5085.12171c-3.47288-6.40734-6.94855-12.75782-10.42143-19.16503,92.70327-179.92691,185.47639-359.99082,278.2048-539.93192v56.61047c-89.30024,167.42445-178.50548,334.98614-267.78337,502.48648Z"/>
  <path d="M5070.71593,5107.43571c-2.78557-5.28182-5.54599-10.592-8.32877-15.85963,173.72224-337.09047,347.46962-674.20447,521.24215-1011.35169v58.66267c-171.03446,322.72507-341.95157,645.69118-512.91338,968.54865Z"/>
  <path d="M5144.54886,5632.12297c-9.08872,17.1362-19.79514,31.12332-29.7416,46.56684-1.69034-4.23207-3.38068-8.47833-5.09337-12.75755,157.97274-306.33598,315.94269-612.65762,473.91543-918.99346v57.92974c-146.36108,275.73724-292.69702,551.53136-439.08045,827.25442Z"/>
  <path d="M5450.09525,5283.80673c-103.19735,195.07252-200.54137,401.42742-300.59552,602.61887-6.37859-12.247-12.75438-24.44672-19.13297-36.6324,151.09683-293.1904,302.16851-586.36662,453.26255-879.55702v61.36741c-44.49645,84.10239-89.06275,168.08656-133.53406,252.20314Z"/>
  <path d="M5341.09208,5705.52446c-3.83051-6.30304-7.63866-12.60637-11.46917-18.92375,84.66228-164.27519,169.34691-328.61214,254.0064-492.89693v55.69313c-80.87648,151.99523-161.68311,304.08503-242.53723,456.12755Z"/>
  <path d="M5386.44348,6128.09333c-3.47288,6.7855-6.89826,12.95156-10.34879,18.97119h-88.3028c98.79408-186.06475,197.23333-371.47207,295.83742-557.1773v155.18229c-65.69695,127.7282-131.51124,255.24834-197.18583,383.02382Z"/>
  <path d="M5394.31962,4718.06154c-5.78068,10.92761-13.96696,17.14096-21.03286,25.51538-2.38045-5.92975-4.76089-11.916-7.16369-17.88819,72.50301-140.71286,145.00322-281.42572,217.50623-422.13858v57.542c-63.10416,118.98034-126.18317,237.98905-189.30969,356.96939Z"/>
  <path d="M5263.92597,6134.17427c-2.4028,4.6671-5.06823,8.74786-7.73365,12.89024h-83.99453c137.15222-258.35516,274.2793-516.72909,411.43152-775.08882v143.67294c-106.57523,206.14211-212.98562,412.61995-319.70334,618.52564Z"/>
  <path d="M5520.90792,6147.06452c20.91551-39.37971,41.80588-78.77344,62.72139-118.17191v118.17191h-62.72139Z"/>
  <path d="M5024.83926,3124.18742c186.28663-350.65202,372.59841-701.21893,558.79005-1052.03645v100.31194c-186.09664,361.11162-372.36092,722.55898-558.79005,1084.34679v-132.62227Z"/>
  <path d="M5494.51906,6136.1981c-2.02282,3.90107-4.30827,7.33874-6.54343,10.86641h-83.23457c59.63128-112.36049,119.25977-224.73974,178.88825-337.11899v153.8772c-29.71925,57.41905-59.36865,114.98469-89.11025,172.37538Z"/>
  <path d="M6142.41935,3299.35739c-186.29501-361.78781-372.51738-723.69856-558.79005-1085.53366v100.92665c186.27266,351.13434,372.49503,702.40107,558.79005,1053.50704v-68.90003Z"/>
  <path d="M6142.41935,2394.13838c-186.27266-361.36697-372.54253-722.72448-558.79005-1084.15292v127.7613c186.24752,351.08705,372.51738,702.22139,558.79005,1053.28479v-96.89318Z"/>
  <path d="M6142.41935,3071.62934c-186.32016-361.09744-372.61517-722.21379-558.79005-1083.55239v107.94858c186.27266,351.03031,372.51738,702.1079,558.79005,1053.09092v-77.48712Z"/>
  <path d="M6142.41935,2617.46886c-69.03013-134.12123-138.01276-268.38432-207.06803-402.47718-117.19224-227.54364-234.48227-454.87922-351.72201-682.33774v127.71401c186.24752,351.09178,372.51738,702.12209,558.79005,1053.15239v-96.05149Z"/>
  <path d="M6142.41935,2170.85519c-186.34251-361.31022-372.59003-722.81432-558.79005-1084.34679v133.16133c186.24752,350.94046,372.51738,701.83364,558.79005,1052.71264v-101.52718Z"/>
  <path d="M6142.41935,2846.26084c-186.36766-361.14472-372.63752-722.44076-558.79005-1083.94486v113.71271c186.24752,351.01612,372.51738,702.04643,558.79005,1053.01527v-82.78312Z"/>
  <path d="M6142.41935,3524.06861c-186.27266-361.88238-372.54253-723.76003-558.79005-1085.64242v96.78442c186.22237,351.31402,372.56767,702.46727,558.79005,1053.78129v-64.9233Z"/>
  <path d="M6142.41935,3735.36014c-127.32869-252.39701-255.82526-502.1413-384.34417-751.88558-58.15607-113.02234-116.2898-226.04468-174.44587-339.05283v94.16006c186.24752,351.07286,372.51738,702.10317,558.79005,1053.13348v-56.35513Z"/>
  <path d="M6142.41935,1728.32228c-176.20606-332.25315-352.45961-664.40226-528.59303-996.82091-10.13645-19.13653-20.08291-38.61825-30.19701-57.79734v67.74626c186.24752,361.1731,372.51738,722.28945,558.79005,1083.43417v-96.56218Z"/>
  <path d="M6142.41935,1284.41335c-186.27266-351.03031-372.59003-702.01333-558.79005-1053.17982v61.23123c186.24752,361.94196,372.51738,723.89527,558.79005,1085.8344v-93.88581Z"/>
  <path d="M6142.41935,1505.61124c-186.34251-352.34958-372.61517-704.85047-558.79005-1057.4866v68.40637c186.22237,361.31022,372.54253,722.51169,558.79005,1083.77936v-94.69912Z"/>
  <path d="M5583.93944,68.4302c186.12738,361.86536,372.30504,723.5638,558.47992,1085.30905v-91.84779c-19.91807-37.60634-39.88085-75.12756-59.82127-112.71971-166.68707-314.47371-331.49661-632.60451-497.04095-949.25142h-1.92783v67.80485c.09499.22508.18999.47995.31013.70503Z"/>
  <path d="M5698.94122-.07968h-29.62425c9.11387,23.78713,18.20259,47.55946,28.88665,68.37511,148.00951,287.74215,296.15872,575.21193,444.21573,862.89828v-94.26409c-147.81673-279.03779-295.65861-557.98669-443.47813-837.0093Z"/>
  <path d="M6114.79278,562.0908c-98.03692-185.17752-193.98117-374.43958-290.68538-562.17048h-44.35675c2.90571,9.2297,5.99861,18.03922,9.85147,25.52805,117.54987,228.3116,235.24223,456.38437,352.81724,684.65148v-95.90018c-9.18371-17.3775-18.41772-34.72664-27.62658-52.10887Z"/>
  <path d="M5962.1928-.07968h-91.51863c5.59349,14.03218,11.30432,27.83923,17.80026,40.07049,84.61478,159.41139,169.27986,318.67302,253.94493,477.93512v-163.68947c-60.05875-118.12542-120.1203-236.28062-180.22655-354.31615Z"/>
  <path d="M6075.45954-.07968h-91.3035c.7376,1.51574,1.33271,3.25666,2.09267,4.7124,52.04012,98.06024,104.13052,196.01545,156.17064,294.01559v-168.32631c-22.32087-43.4622-44.64174-86.92445-66.95981-130.40169Z"/>
  <path d="M6107.93922-.07968c6.1886,18.03922,12.49175,35.88334,20.34555,50.71106,4.7106,8.89965,9.42399,17.78416,14.13459,26.68333V-.07968h-34.48014Z"/>
  <path d="M6142.41935,4459.18165v-60.82836c-186.22237-361.41425-372.46989-722.85688-558.79005-1084.43663v94.03712c128.8514,242.71763,257.70559,485.43998,386.60448,728.11032,57.30113,107.87765,114.78945,215.42431,172.18556,323.11754Z"/>
  <path d="M6142.41935,4014.65328v-62.08616c-186.20002-361.24875-372.46989-722.66301-558.79005-1084.18602v93.18598c172.4929,325.01843,345.01094,650.0274,517.50384,975.10731,13.77976,25.96459,27.50923,52.00011,41.2862,77.97889Z"/>
  <path d="M6142.41935,4619.35731c-186.27266-361.18728-372.54253-722.39348-558.79005-1083.58549v92.35848c186.22237,350.98302,372.51738,701.88093,558.79005,1052.78829v-61.56129Z"/>
  <path d="M6142.41935,4842.58364c-186.27266-361.44723-372.54253-722.88985-558.79005-1084.33721v93.82906c186.29501,351.67339,372.59003,703.42717,558.79005,1055.29431v-64.78617Z"/>
  <path d="M6142.41935,5125.67381v-59.64148c-186.20002-361.32428-372.46989-722.80001-558.79005-1084.37976v92.19298c71.45807,134.73594,142.91614,269.47662,214.39656,404.18419,114.69445,216.09576,229.57889,431.81784,344.39348,647.64407Z"/>
  <path d="M6142.41935,5465.98444c-186.5325-351.29983-372.80516-702.13153-558.79005-1052.42878v118.21904c186.34251,361.69797,372.59003,723.54712,558.79005,1085.49096v-151.28122Z"/>
  <path d="M6142.41935,4175.8645c-186.27266-361.51828-372.54253-723.03656-558.79005-1084.54066v91.99438c186.24752,351.27146,372.49503,702.52402,558.79005,1053.71982v-61.17354Z"/>
  <path d="M6142.41935,5248.03035c-186.27266-350.89317-372.54253-701.79095-558.79005-1052.68413v111.1451c186.10502,360.93667,372.46989,721.37671,558.79005,1081.87374v-140.33471Z"/>
  <path d="M6142.41935,5904.92836c-186.27266-350.96869-372.54253-701.90455-558.79005-1052.87799v129.63842c186.20002,360.78534,372.3274,721.71727,558.79005,1082.03922v-158.79965Z"/>
  <path d="M6142.41935,1948.21508c-150.91243-284.31961-301.79971-568.6534-452.75684-852.89735-35.21774-66.33714-70.65062-132.24872-106.03321-198.20757v63.32977c186.17487,361.29604,372.44753,722.75758,558.79005,1084.35152v-96.57636Z"/>
  <path d="M6142.41935,5685.96708c-186.27266-350.9972-372.54253-702.01331-558.79005-1053.02931v122.58339c186.15252,360.54419,372.40004,720.92287,558.79005,1081.03203v-150.58612Z"/>
  <path d="M5583.62931,5071.8532v138.68903c158.47844,307.88208,317.09938,615.55137,475.41019,923.76444,2.38045,4.6247,4.7581,8.52562,7.13854,12.75784h76.24131v-22.45142c-186.60514-351.54098-372.78001-702.33013-558.79005-1052.7599Z"/>
  <path d="M5947.4631,6135.20983c2.21281,4.27463,4.68825,8.0433,7.13854,11.85469h83.71234c-151.57739-285.44516-303.13242-570.90907-454.68467-856.36826v140.8027c121.28538,234.5561,242.40592,469.42429,363.83379,703.71087Z"/>
  <path d="M5822.03708,6125.64866c3.878,7.53262,7.73365,14.64912,11.61166,21.41586h88.40059c-113.02926-212.80956-225.74838-425.06098-338.42002-637.24148v152.20802c79.42921,154.57703,159.02606,308.93182,238.40777,463.61761Z"/>
  <path d="M5738.89471,6147.06452h43.14139c-66.15236-128.3478-132.27957-256.69071-198.40679-385.05253v92.55235c51.75513,97.46061,103.48792,195.05361,155.2654,292.50019Z"/>
  <path d="M5618.75206,6138.7799c1.59255,2.96954,3.47288,5.4615,5.16322,8.28461h44.11647c-28.1267-54.56773-56.27575-109.14979-84.40244-163.71752v89.38436c11.70665,22.00189,23.4161,44.0465,35.12275,66.04855Z"/>
  <path d="M5024.83926,2086.01514c-186.26428-361.84928-372.57438-723.60872-558.79005-1085.53366v136.75032c186.23969,351.19581,372.50341,702.35852,558.79005,1053.49285v-104.70951Z"/>
  <path d="M5024.83926,1182.34711c-142.88541-277.29768-285.86721-554.42985-428.72943-831.78758-44.47186-86.36927-87.25423-175.88966-130.06062-265.35047v175.24468c186.21566,351.1925,372.52577,702.18025,558.79005,1053.28148v-131.38812Z"/>
  <path d="M5024.83926,1860.32984c-186.31178-361.62231-372.59813-723.23516-558.79005-1085.05134v143.6824c186.23969,351.05868,372.52577,702.06062,558.79005,1053.08619v-111.71725Z"/>
  <path d="M5024.83926,1536.38952v-131.35974c-186.26428-361.3386-372.50286-722.73866-558.79005-1084.05031v160.01158c77.54637,147.33286,155.16398,294.57115,232.99561,441.39333,108.55083,204.733,217.21873,409.30051,325.79443,614.00514Z"/>
  <path d="M4500.95572,108.78573c174.58026,329.07365,349.27842,657.93878,523.88355,986.94812v-136.8969c-42.80611-83.09993-85.63737-166.11948-128.44348-249.2336-120.49469-234.08798-238.51534-472.80193-357.51164-709.68307h-72.83493v36.48368c11.27859,24.8076,22.69995,49.37538,34.9065,72.38177Z"/>
  <path d="M5024.83926,1634.5736c-87.27742-169.5146-174.60513-338.90625-261.8574-508.47759-99.22407-192.83119-198.11398-386.26763-296.93265-579.85066v152.79436c186.23969,351.05868,372.52577,701.99914,558.79005,1053.02472v-117.49084Z"/>
  <path d="M5024.83926,2310.60815c-186.26428-361.88238-372.5266-723.76003-558.79005-1085.64242v132.40003c186.28719,351.23836,372.55091,702.47673,558.79005,1053.77657v-100.53418Z"/>
  <path d="M5024.83926,2614.58916v-98.03276c-186.28663-362.0006-372.5266-724.00119-558.79005-1085.99706v130.83487c147.57338,278.21029,295.16967,556.34965,442.76847,834.53157,38.66548,72.89095,77.3561,145.7677,116.02158,218.66338Z"/>
  <path d="M4740.49504-.07973h-27.83948c11.06432,25.81318,22.12864,51.61142,34.33653,75.24861,92.58313,179.61152,185.2389,359.13366,277.84717,538.71397v-66.0487c-95.08371-182.07179-189.59467-365.19522-284.34423-547.91388Z"/>
  <path d="M4977.96516-.07973h-37.21542c4.68825,9.60491,9.30385,19.35991,14.10945,28.72471,23.31831,45.32332,46.66176,90.64621,69.98007,135.98471v-65.6288c-15.67965-32.9416-31.2196-66.12374-46.8741-99.08062Z"/>
  <path d="M4853.96965-.07973h-28.74137c1.99767,4.66738,3.94785,9.51488,6.16066,13.80705,64.45923,125.08909,128.96595,250.11775,193.45032,375.1918v-65.38812c-56.96306-107.87529-113.90376-215.76571-170.86961-323.61073Z"/>
  <path d="M5024.83926,3186.23102c-186.09664-361.17782-372.5266-722.95145-558.79005-1084.45554v129.87497c186.23969,350.82225,372.52577,701.59722,558.79005,1052.40055v-97.81998Z"/>
  <path d="M5024.83926,2740.72856c-186.14414-361.15891-372.40786-722.57789-558.79005-1084.18602v127.60999c186.26344,351.16271,372.47827,702.4058,558.79005,1053.45029v-96.87426Z"/>
  <path d="M5024.83926,3408.19494c-186.26428-361.2062-372.5266-722.39821-558.79005-1083.59967v125.22206c186.26344,351.43696,372.43077,703.09617,558.79005,1054.36764v-95.99002Z"/>
  <path d="M5024.83926,3630.59389c-186.26428-361.44735-372.5266-722.88998-558.79005-1084.33733v125.86987c186.28719,351.83889,372.43077,703.96623,558.79005,1055.7011v-97.23364Z"/>
  <path d="M5024.83926,3853.98111c-186.14414-361.22038-372.40786-722.67719-558.79005-1084.37989v127.0993c186.28719,351.01612,372.55091,702.03224,558.79005,1053.13348v-95.85289Z"/>
  <path d="M5024.83926,4289.65287c-186.42912-351.13434-372.69312-701.95186-558.79005-1052.44311v82.42375c186.31094,361.3717,372.55091,722.86161,558.79005,1084.35152v-114.33215Z"/>
  <path d="M5024.83926,2963.6382c-186.26428-361.52301-372.5266-723.04129-558.79005-1084.55957v125.014c186.23969,351.74905,372.43077,703.61632,558.79005,1055.15731v-95.61174Z"/>
  <path d="M5024.83926,4071.39615c-186.26428-350.89318-372.5266-701.78636-558.79005-1052.67954v76.02599c186.23969,361.40007,372.50341,722.77176,558.79005,1084.11036v-107.45681Z"/>
  <path d="M5024.83926,4728.09084c-186.26428-350.97356-372.5266-701.92822-558.79005-1052.89705v95.70631c186.14442,361.3386,372.47827,722.33201,558.79005,1083.40095v-126.21021Z"/>
  <path d="M4897.41837,537.47858c-4.13784,8.00074-8.27847,15.9542-12.41911,23.95495,46.61427,90.43395,93.22574,180.901,139.84,271.33968v-58.39787c-42.49598-78.95297-84.99476-157.83502-127.42089-236.89675Z"/>
  <path d="M5024.83926,4508.95933c-186.26428-351.01139-372.5266-702.02752-558.79005-1053.04364v89.46459c186.19192,361.06907,372.47827,721.98682,558.79005,1082.86202v-119.28297Z"/>
  <path d="M5024.83926,4947.90786c-186.45427-351.28553-372.71715-702.1787-558.79005-1052.7598v102.45871c186.35844,361.5041,372.52577,723.36756,558.79005,1085.0985v-134.79741Z"/>
  <path d="M5024.83926,5166.77929c-186.26428-350.82224-372.5266-701.65383-558.79005-1052.47608v108.32687c186.12067,360.82791,372.47827,721.19229,558.79005,1081.63245v-137.48324Z"/>
  <path d="M5024.83926,5385.93444c-186.61911-351.43223-372.7884-701.99901-558.79005-1052.27747v114.07208c186.38218,361.89645,372.57326,724.16656,558.79005,1086.36102v-148.15563Z"/>
  <path d="M5024.83926,5634.34053c-186.26428-361.4899-372.5266-722.99386-558.79005-1084.48377v127.71401c186.12067,351.27134,372.43077,702.19761,558.79005,1053.06241v-96.29265Z"/>
  <path d="M5024.83926,5855.7512c-186.26428-361.24874-372.5266-722.50222-558.79005-1083.75096v126.29071c186.14442,350.47233,372.40842,700.75078,558.79005,1050.77862v-93.31838Z"/>
  <path d="M4466.04922,4994.59306v127.65727c181.19522,341.87578,362.53181,683.49622,544.01284,1024.81419h14.7772v-68.36113c-186.26428-361.35277-372.5266-722.73864-558.79005-1084.11033Z"/>
  <path d="M4881.88121,6125.03394c4.21328,7.86362,8.85123,14.97539,13.49199,22.03057h50.41963c-159.92292-310.22287-319.82069-620.47869-479.74361-930.7156v126.99527c138.5316,260.71457,277.08694,521.39603,415.83199,781.68976Z"/>
  <path d="M4775.8536,6147.06452h55.29786c-121.70838-236.0694-243.3933-472.15756-365.10224-708.241v126.52714c103.24428,193.94712,206.44107,387.99355,309.80438,581.71386Z"/>
  <path d="M4656.33371,6147.06452h59.74807c-83.28067-161.61803-166.63287-323.33979-250.03256-485.19882v127.13225c63.41233,119.36823,126.75342,238.92058,190.28449,358.06657Z"/>
  <path d="M4540.81142,6147.06452h59.79556c-44.8524-87.18084-89.70508-174.36153-134.55776-261.53734v121.12696c24.93665,46.74667,49.80188,93.69209,74.7622,140.41038Z"/>
  <path d="M4485.77487,6147.06452c-6.56729-12.78621-13.15836-25.57227-19.72565-38.35833v38.35833h19.72565Z"/>
</svg>