<?xml version="1.0" encoding="UTF-8"?>
<svg id="Ebene_23" xmlns="http://www.w3.org/2000/svg" width="6144" height="6144" version="1.1" viewBox="0 0 6144 6144">
  <!-- Generator: Adobe Illustrator 29.2.0, SVG Export Plug-In . SVG Version: 2.1.0 Build 108)  -->
  <rect y="6023.59557" width="1536.00099" height="190.12919"/>
  <rect y="5832.45811" width="1536.00099" height="119.71432"/>
  <path d="M0,5604.6h1536.00099v119.71459H0v-119.71459Z" fill-rule="evenodd"/>
  <path d="M0,5376.74216h1536.00099v119.71459H0v-119.71459Z" fill-rule="evenodd"/>
  <rect y="4921.02621" width="1536.00099" height="119.71459"/>
  <path d="M0,5148.88405h1536.00099v119.71459H0v-119.71459Z" fill-rule="evenodd"/>
  <rect y="4729.19328" width="1536.00099" height="50.70081"/>
  <path d="M0,4501.33678h1536.00099v50.69948H0v-50.69948Z" fill-rule="evenodd"/>
  <path d="M0,4273.47867h1536.00099v50.70081H0v-50.70081Z" fill-rule="evenodd"/>
  <rect y="3817.76272" width="1536.00099" height="50.70081"/>
  <path d="M0,4045.62083h1536.00099v50.70081H0v-50.70081Z" fill-rule="evenodd"/>
  <rect y="3556.91361" width="1536.00099" height="119.71191"/>
  <path d="M0,3329.05577h1536.00099v119.71191H0v-119.71191Z" fill-rule="evenodd"/>
  <path d="M0,3101.19766h1536.00099v119.71191H0v-119.71191Z" fill-rule="evenodd"/>
  <rect y="2645.48171" width="1536.00099" height="119.71191"/>
  <path d="M0,2873.33982h1536.00099v119.71191H0v-119.71191Z" fill-rule="evenodd"/>
  <rect y="2383.92697" width="1536.00099" height="190.13026"/>
  <path d="M0,2156.06779h1536.00099v190.13026H0v-190.13026Z" fill-rule="evenodd"/>
  <path d="M0,1928.20835h1536.00099v190.13186H0v-190.13186Z" fill-rule="evenodd"/>
  <rect y="1472.49266" width="1536.00099" height="190.1316"/>
  <path d="M0,1700.35184h1536.00099v190.13026H0v-190.13026Z" fill-rule="evenodd"/>
  <rect y="1281.35627" width="1536.00099" height="119.71298"/>
  <path d="M0,1053.4995h1536.00099v119.71057H0v-119.71057Z" fill-rule="evenodd"/>
  <path d="M0,825.64032h1536.00099v119.71191H0v-119.71191Z" fill-rule="evenodd"/>
  <rect y="369.92571" width="1536.00099" height="119.71191"/>
  <path d="M0,597.78355h1536.00099v119.71191H0v-119.71191Z" fill-rule="evenodd"/>
  <rect y="178.09279" width="1536.00099" height="50.70215"/>
  <path d="M0-49.76506h1536.00099V.93549H0v-50.70055Z" fill-rule="evenodd"/>
  <rect x="1536.00099" y="6058.81611" width="1535.99738" height="119.71432"/>
  <rect x="1536.00099" y="5797.24827" width="1535.99738" height="190.134"/>
  <path d="M1536.00099,5569.39016h1535.99738v190.13427h-1535.99738v-190.13427Z" fill-rule="evenodd"/>
  <path d="M1536.00099,5341.53231h1535.99738v190.13427h-1535.99738v-190.13427Z" fill-rule="evenodd"/>
  <rect x="1536.00099" y="4885.81636" width="1535.99738" height="190.13427"/>
  <path d="M1536.00099,5113.67421h1535.99738v190.13427h-1535.99738v-190.13427Z" fill-rule="evenodd"/>
  <rect x="1536.00099" y="4694.67863" width="1535.99738" height="119.71459"/>
  <path d="M1536.00099,4466.82186h1535.99738v119.71325h-1535.99738v-119.71325Z" fill-rule="evenodd"/>
  <path d="M1536.00099,4238.96402h1535.99738v119.71191h-1535.99738v-119.71191Z" fill-rule="evenodd"/>
  <rect x="1536.00099" y="3783.24807" width="1535.99738" height="119.71459"/>
  <path d="M1536.00099,4011.10591h1535.99738v119.71459h-1535.99738v-119.71459Z" fill-rule="evenodd"/>
  <rect x="1536.00099" y="3591.41782" width="1535.99738" height="50.70081"/>
  <path d="M1536.00099,3363.55731h1535.99738v50.70322h-1535.99738v-50.70322Z" fill-rule="evenodd"/>
  <path d="M1536.00099,3135.70187h1535.99738v50.70081h-1535.99738v-50.70081Z" fill-rule="evenodd"/>
  <rect x="1536.00099" y="2679.98619" width="1535.99738" height="50.70055"/>
  <path d="M1536.00099,2907.84269h1535.99738v50.70215h-1535.99738v-50.70215Z" fill-rule="evenodd"/>
  <rect x="1536.00099" y="2419.13548" width="1535.99738" height="119.71191"/>
  <path d="M1536.00099,2191.2763h1535.99738v119.71325h-1535.99738v-119.71325Z" fill-rule="evenodd"/>
  <path d="M1536.00099,1963.41953h1535.99738v119.71191h-1535.99738v-119.71191Z" fill-rule="evenodd"/>
  <rect x="1536.00099" y="1507.70358" width="1535.99738" height="119.71325"/>
  <path d="M1536.00099,1735.56169h1535.99738v119.71191h-1535.99738v-119.71191Z" fill-rule="evenodd"/>
  <rect x="1536.00099" y="1246.14884" width="1535.99738" height="190.13026"/>
  <path d="M1536.00099,1018.291h1535.99738v190.13026h-1535.99738v-190.13026Z" fill-rule="evenodd"/>
  <path d="M1536.00099,790.43182h1535.99738v190.1316h-1535.99738v-190.1316Z" fill-rule="evenodd"/>
  <rect x="1536.00099" y="334.71587" width="1535.99738" height="190.1316"/>
  <path d="M1536.00099,562.57371h1535.99738v190.1316h-1535.99738v-190.1316Z" fill-rule="evenodd"/>
  <rect x="1536.00099" y="143.57814" width="1535.99738" height="119.71325"/>
  <path d="M1536.00099-84.27863h1535.99738V35.43328h-1535.99738v-119.71191Z" fill-rule="evenodd"/>
  <rect x="3072.00163" y="6093.33076" width="1536.00099" height="50.70081"/>
  <rect x="3072.00163" y="5832.47898" width="1536.00099" height="119.71459"/>
  <path d="M3072.00163,5604.62087h1536.00099v119.71459h-1536.00099v-119.71459Z" fill-rule="evenodd"/>
  <path d="M3072.00163,5376.76303h1536.00099v119.71459h-1536.00099v-119.71459Z" fill-rule="evenodd"/>
  <rect x="3072.00163" y="4921.04708" width="1536.00099" height="119.71459"/>
  <path d="M3072.00163,5148.90492h1536.00099v119.71459h-1536.00099v-119.71459Z" fill-rule="evenodd"/>
  <rect x="3072.00163" y="4659.48431" width="1536.00099" height="190.12919"/>
  <path d="M3072.00163,4431.62513h1536.00099v190.13026h-1536.00099v-190.13026Z" fill-rule="evenodd"/>
  <path d="M3072.00163,4203.76462h1536.00099v190.1316h-1536.00099v-190.1316Z" fill-rule="evenodd"/>
  <rect x="3072.00163" y="3748.04867" width="1536.00099" height="190.1316"/>
  <path d="M3072.00163,3975.90677h1536.00099v190.1316h-1536.00099v-190.1316Z" fill-rule="evenodd"/>
  <rect x="3072.00163" y="3556.91361" width="1536.00099" height="119.71191"/>
  <path d="M3072.00163,3329.05577h1536.00099v119.71191h-1536.00099v-119.71191Z" fill-rule="evenodd"/>
  <path d="M3072.00163,3101.19766h1536.00099v119.71191h-1536.00099v-119.71191Z" fill-rule="evenodd"/>
  <rect x="3072.00163" y="2645.48171" width="1536.00099" height="119.71191"/>
  <path d="M3072.00163,2873.33982h1536.00099v119.71191h-1536.00099v-119.71191Z" fill-rule="evenodd"/>
  <rect x="3072.00163" y="2453.64905" width="1536.00099" height="50.70188"/>
  <path d="M3072.00163,2225.79095h1536.00099v50.70215h-1536.00099v-50.70215Z" fill-rule="evenodd"/>
  <path d="M3072.00163,1997.9331h1536.00099v50.70188h-1536.00099v-50.70188Z" fill-rule="evenodd"/>
  <rect x="3072.00163" y="1542.21715" width="1536.00099" height="50.70081"/>
  <path d="M3072.00163,1770.07499h1536.00099v50.70215h-1536.00099v-50.70215Z" fill-rule="evenodd"/>
  <rect x="3072.00163" y="1281.36778" width="1536.00099" height="119.71218"/>
  <path d="M3072.00163,1053.50994h1536.00099v119.71191h-1536.00099v-119.71191Z" fill-rule="evenodd"/>
  <path d="M3072.00163,825.6521h1536.00099v119.71191h-1536.00099v-119.71191Z" fill-rule="evenodd"/>
  <rect x="3072.00163" y="369.93615" width="1536.00099" height="119.71191"/>
  <path d="M3072.00163,597.79399h1536.00099v119.71191h-1536.00099v-119.71191Z" fill-rule="evenodd"/>
  <rect x="3072.00163" y="108.38141" width="1536.00099" height="190.13026"/>
  <path d="M3072.00163-119.4767h1536.00099V70.65356h-1536.00099V-119.4767Z" fill-rule="evenodd"/>
  <rect x="4608.00262" y="6058.81611" width="1535.99738" height="119.71432"/>
  <rect x="4608.00262" y="5866.98319" width="1535.99738" height="50.7059"/>
  <path d="M4608.00262,5639.12535h1535.99738v50.70055h-1535.99738v-50.70055Z" fill-rule="evenodd"/>
  <path d="M4608.00262,5411.26724h1535.99738v50.7059h-1535.99738v-50.7059Z" fill-rule="evenodd"/>
  <rect x="4608.00262" y="4955.55129" width="1535.99738" height="50.70081"/>
  <path d="M4608.00262,5183.4094h1535.99738v50.70055h-1535.99738v-50.70055Z" fill-rule="evenodd"/>
  <rect x="4608.00262" y="4694.70486" width="1535.99738" height="119.70924"/>
  <path d="M4608.00262,4466.84541h1535.99738v119.71057h-1535.99738v-119.71057Z" fill-rule="evenodd"/>
  <path d="M4608.00262,4238.98757h1535.99738v119.71191h-1535.99738v-119.71191Z" fill-rule="evenodd"/>
  <rect x="4608.00262" y="3783.27162" width="1535.99738" height="119.71191"/>
  <path d="M4608.00262,4011.12946h1535.99738v119.71191h-1535.99738v-119.71191Z" fill-rule="evenodd"/>
  <rect x="4608.00262" y="3521.70645" width="1535.99738" height="190.12892"/>
  <path d="M4608.00262,3293.84834h1535.99738v190.12919h-1535.99738v-190.12919Z" fill-rule="evenodd"/>
  <path d="M4608.00262,3065.98782h1535.99738v190.1316h-1535.99738v-190.1316Z" fill-rule="evenodd"/>
  <rect x="4608.00262" y="2610.27187" width="1535.99738" height="190.1316"/>
  <path d="M4608.00262,2838.12998h1535.99738v190.1316h-1535.99738v-190.1316Z" fill-rule="evenodd"/>
  <rect x="4608.00262" y="2419.13548" width="1535.99738" height="119.71191"/>
  <path d="M4608.00262,2191.2763h1535.99738v119.71325h-1535.99738v-119.71325Z" fill-rule="evenodd"/>
  <path d="M4608.00262,1963.41953h1535.99738v119.71191h-1535.99738v-119.71191Z" fill-rule="evenodd"/>
  <rect x="4608.00262" y="1507.70358" width="1535.99738" height="119.71325"/>
  <path d="M4608.00262,1735.56169h1535.99738v119.71191h-1535.99738v-119.71191Z" fill-rule="evenodd"/>
  <rect x="4608.00262" y="1315.87226" width="1535.99738" height="50.70188"/>
  <path d="M4608.00262,1088.01415h1535.99738v50.70081h-1535.99738v-50.70081Z" fill-rule="evenodd"/>
  <path d="M4608.00262,860.15631h1535.99738v50.70081h-1535.99738v-50.70081Z" fill-rule="evenodd"/>
  <rect x="4608.00262" y="404.44036" width="1535.99738" height="50.70081"/>
  <path d="M4608.00262,632.2982h1535.99738v50.70081h-1535.99738v-50.70081Z" fill-rule="evenodd"/>
  <rect x="4608.00262" y="143.59125" width="1535.99738" height="119.71191"/>
  <path d="M4608.00262-84.2682h1535.99738V35.44505h-1535.99738v-119.71325Z" fill-rule="evenodd"/>
</svg>