<?xml version="1.0" encoding="UTF-8"?>
<svg id="_x34_" xmlns="http://www.w3.org/2000/svg" width="6144" height="6144" version="1.1" viewBox="0 0 6144 6144">
  <!-- Generator: Adobe Illustrator 29.2.0, SVG Export Plug-In . SVG Version: 2.1.0 Build 108)  -->
  <polygon points="6076.09871 273.96983 5916.1417 365.99473 5756.09946 273.25556 5737.17153 284.18383 5916.10385 387.88656 6095.05653 285.00335 6076.09871 273.96983" fill="#17232b"/>
  <polygon points="5727.99649 322.70655 5887.62117 415.30611 5887.22938 600.27595 5906.15158 611.21407 5906.60507 404.40329 5728.08458 300.7718 5727.99649 322.70655" fill="#17232b"/>
  <polygon points="6104.28945 322.52592 6104.20136 300.59117 5925.68087 404.22266 5926.13436 611.03375 5945.05656 600.09563 5944.66476 415.1258 6104.28945 322.52592" fill="#17232b"/>
  <polygon points="5365.06269 1588.85242 5205.106 1680.87733 5045.06376 1588.13816 5026.13583 1599.06642 5205.06783 1702.76915 5384.02082 1599.88594 5365.06269 1588.85242" fill="#17232b"/>
  <polygon points="5393.25375 1637.40851 5393.16566 1615.47376 5214.64485 1719.10525 5215.09866 1925.91634 5234.02086 1914.97822 5233.62875 1730.00839 5393.25375 1637.40851" fill="#17232b"/>
  <polygon points="6076.09871 1150.55833 5916.1417 1242.58292 5756.09946 1149.84407 5737.17153 1160.77233 5916.10385 1264.47474 6095.05653 1161.59153 6076.09871 1150.55833" fill="#17232b"/>
  <polygon points="5727.99649 1199.29505 5887.62117 1291.89462 5887.22938 1476.86445 5906.15158 1487.80257 5906.60507 1280.99179 5728.08458 1177.3603 5727.99649 1199.29505" fill="#17232b"/>
  <polygon points="6104.28945 1199.11442 6104.20136 1177.17967 5925.68087 1280.81116 5926.13436 1487.62194 5945.05656 1476.68381 5944.66476 1291.71398 6104.28945 1199.11442" fill="#17232b"/>
  <polygon points="5365.06269 2465.44092 5205.106 2557.46551 5045.06376 2464.72666 5026.13583 2475.65492 5205.06783 2579.35733 5384.02082 2476.47413 5365.06269 2465.44092" fill="#17232b"/>
  <polygon points="5393.25375 2513.99701 5393.16566 2492.06226 5214.64485 2595.69375 5215.09866 2802.50453 5234.02086 2791.56641 5233.62875 2606.59657 5393.25375 2513.99701" fill="#17232b"/>
  <polygon points="6076.09871 2027.14651 5916.1417 2119.17142 5756.09946 2026.43257 5737.17153 2037.36051 5916.10385 2141.06324 6095.05653 2038.18003 6076.09871 2027.14651" fill="#17232b"/>
  <polygon points="5727.99649 2075.88324 5887.62117 2168.48312 5887.22938 2353.45295 5906.15158 2364.39107 5906.60507 2157.57998 5728.08458 2053.94848 5727.99649 2075.88324" fill="#17232b"/>
  <polygon points="6104.28945 2075.70292 6104.20136 2053.76785 5925.68087 2157.39966 5926.13436 2364.21044 5945.05656 2353.27232 5944.66476 2168.30248 6104.28945 2075.70292" fill="#17232b"/>
  <polygon points="5393.25375 1637.40851 5393.16566 1615.47376 5214.64485 1719.10525 5215.09866 1925.91634 5234.02086 1914.97822 5233.62875 1730.00839 5393.25375 1637.40851" fill="#17232b"/>
  <polygon points="5365.06269 3342.0291 5205.106 3434.05401 5045.06376 3341.31516 5026.13583 3352.2431 5205.06783 3455.94583 5384.02082 3353.06263 5365.06269 3342.0291" fill="#17232b"/>
  <polygon points="5393.25375 3390.58552 5393.16566 3368.65044 5214.64485 3472.28225 5215.09866 3679.09303 5234.02086 3668.15491 5233.62875 3483.18508 5393.25375 3390.58552" fill="#17232b"/>
  <polygon points="6076.09871 2903.73501 5916.1417 2995.75992 5756.09946 2903.02075 5737.17153 2913.94901 5916.10385 3017.65174 6095.05653 2914.76854 6076.09871 2903.73501" fill="#17232b"/>
  <polygon points="5727.99649 2952.47174 5887.62117 3045.0713 5887.22938 3230.04113 5906.15158 3240.97925 5906.60507 3034.16848 5728.08458 2930.53698 5727.99649 2952.47174" fill="#17232b"/>
  <polygon points="6104.28945 2952.29111 6104.20136 2930.35635 5925.68087 3033.98785 5926.13436 3240.79894 5945.05656 3229.86082 5944.66476 3044.89098 6104.28945 2952.29111" fill="#17232b"/>
  <polygon points="5393.25375 2513.99701 5393.16566 2492.06226 5214.64485 2595.69375 5215.09866 2802.50453 5234.02086 2791.56641 5233.62875 2606.59657 5393.25375 2513.99701" fill="#17232b"/>
  <polygon points="5365.06269 4218.6176 5205.106 4310.64251 5045.06376 4217.90334 5026.13583 4228.8316 5205.06783 4332.53433 5384.02082 4229.65113 5365.06269 4218.6176" fill="#17232b"/>
  <polygon points="5393.25375 4267.1737 5393.16566 4245.23894 5214.64485 4348.87044 5215.09866 4555.68153 5234.02086 4544.74341 5233.62875 4359.77326 5393.25375 4267.1737" fill="#17232b"/>
  <polygon points="6076.09871 3780.32351 5916.1417 3872.3481 5756.09946 3779.60925 5737.17153 3790.53751 5916.10385 3894.23992 6095.05653 3791.35672 6076.09871 3780.32351" fill="#17232b"/>
  <polygon points="5727.99649 3829.06024 5887.62117 3921.6598 5887.22938 4106.62963 5906.15158 4117.56775 5906.60507 3910.75698 5728.08458 3807.12517 5727.99649 3829.06024" fill="#17232b"/>
  <polygon points="6104.28945 3828.87961 6104.20136 3806.94485 5925.68087 3910.57635 5926.13436 4117.38712 5945.05656 4106.449 5944.66476 3921.47917 6104.28945 3828.87961" fill="#17232b"/>
  <polygon points="5393.25375 3390.58552 5393.16566 3368.65044 5214.64485 3472.28225 5215.09866 3679.09303 5234.02086 3668.15491 5233.62875 3483.18508 5393.25375 3390.58552" fill="#17232b"/>
  <polygon points="5365.06269 5095.2061 5205.106 5187.23069 5045.06376 5094.49184 5026.13583 5105.4201 5205.06783 5209.12252 5384.02082 5106.23931 5365.06269 5095.2061" fill="#17232b"/>
  <polygon points="5393.25375 5143.7622 5393.16566 5121.82744 5214.64485 5225.45894 5215.09866 5432.26971 5234.02086 5421.33159 5233.62875 5236.36176 5393.25375 5143.7622" fill="#17232b"/>
  <polygon points="6076.09871 4656.91169 5916.1417 4748.9366 5756.09946 4656.19775 5737.17153 4667.12569 5916.10385 4770.82842 6095.05653 4667.94522 6076.09871 4656.91169" fill="#17232b"/>
  <polygon points="5727.99649 4705.64842 5887.62117 4798.2483 5887.22938 4983.21813 5906.15158 4994.15625 5906.60507 4787.34516 5728.08458 4683.71367 5727.99649 4705.64842" fill="#17232b"/>
  <polygon points="6104.28945 4705.46779 6104.20136 4683.53303 5925.68087 4787.16485 5926.13436 4993.97562 5945.05656 4983.0375 5944.66476 4798.06767 6104.28945 4705.46779" fill="#17232b"/>
  <polygon points="5393.25375 4267.1737 5393.16566 4245.23894 5214.64485 4348.87044 5215.09866 4555.68153 5234.02086 4544.74341 5233.62875 4359.77326 5393.25375 4267.1737" fill="#17232b"/>
  <polygon points="6076.09871 5533.50019 5916.1417 5625.5251 5756.09946 5532.78593 5737.17153 5543.71419 5916.10385 5647.41693 6095.05653 5544.53372 6076.09871 5533.50019" fill="#17232b"/>
  <polygon points="5727.99649 5582.23692 5887.62117 5674.83648 5887.22938 5859.80631 5906.15158 5870.74444 5906.60507 5663.93366 5728.08458 5560.30217 5727.99649 5582.23692" fill="#17232b"/>
  <polygon points="6104.28945 5582.05629 6104.20136 5560.12153 5925.68087 5663.75303 5926.13436 5870.56412 5945.05656 5859.626 5944.66476 5674.65585 6104.28945 5582.05629" fill="#17232b"/>
  <polygon points="5393.25375 5143.7622 5393.16566 5121.82744 5214.64485 5225.45894 5215.09866 5432.26971 5234.02086 5421.33159 5233.62875 5236.36176 5393.25375 5143.7622" fill="#17232b"/>
  <polygon points="4654.02699 273.96983 4494.07029 365.99473 4334.02806 273.25556 4315.10013 284.18383 4494.03213 387.88656 4672.98512 285.00335 4654.02699 273.96983" fill="#17232b"/>
  <polygon points="4305.92508 322.70655 4465.54977 415.30611 4465.15798 600.27595 4484.07986 611.21407 4484.53367 404.40329 4306.01286 300.7718 4305.92508 322.70655" fill="#17232b"/>
  <polygon points="4682.21773 322.52592 4682.12996 300.59117 4503.60915 404.22266 4504.06296 611.03375 4522.98516 600.09563 4522.59305 415.1258 4682.21773 322.52592" fill="#17232b"/>
  <polygon points="5365.06269 1588.85242 5205.106 1680.87733 5045.06376 1588.13816 5026.13583 1599.06642 5205.06783 1702.76915 5384.02082 1599.88594 5365.06269 1588.85242" fill="#17232b"/>
  <polygon points="5016.96078 1637.58915 5176.58547 1730.18871 5176.19368 1915.15854 5195.11556 1926.09666 5195.56937 1719.28589 5017.04888 1615.65439 5016.96078 1637.58915" fill="#17232b"/>
  <polygon points="3942.99129 1588.85242 3783.03459 1680.87733 3622.99236 1588.13816 3604.06443 1599.06642 3782.99643 1702.76915 3961.94942 1599.88594 3942.99129 1588.85242" fill="#17232b"/>
  <polygon points="3971.18203 1637.40851 3971.09426 1615.47376 3792.57345 1719.10525 3793.02726 1925.91634 3811.94914 1914.97822 3811.55734 1730.00839 3971.18203 1637.40851" fill="#17232b"/>
  <polygon points="5365.06269 712.26392 5205.106 804.28883 5045.06376 711.54997 5026.13583 722.47792 5205.06783 826.18065 5384.02082 723.29744 5365.06269 712.26392" fill="#17232b"/>
  <polygon points="5393.25375 760.82033 5393.16566 738.88526 5214.64485 842.51707 5215.09866 1049.32784 5234.02086 1038.38972 5233.62875 853.41989 5393.25375 760.82033" fill="#17232b"/>
  <polygon points="5393.25375 760.82033 5393.16566 738.88526 5214.64485 842.51707 5215.09866 1049.32784 5234.02086 1038.38972 5233.62875 853.41989 5393.25375 760.82033" fill="#17232b"/>
  <polygon points="5365.06269 712.26392 5205.106 804.28883 5045.06376 711.54997 5026.13583 722.47792 5205.06783 826.18065 5384.02082 723.29744 5365.06269 712.26392" fill="#17232b"/>
  <polygon points="5016.96078 761.00065 5176.58547 853.60052 5176.19368 1038.57036 5195.11556 1049.50848 5195.56937 842.69739 5017.04888 739.06589 5016.96078 761.00065" fill="#17232b"/>
  <polygon points="5016.96078 761.00065 5176.58547 853.60052 5176.19368 1038.57036 5195.11556 1049.50848 5195.56937 842.69739 5017.04888 739.06589 5016.96078 761.00065" fill="#17232b"/>
  <polygon points="4654.02699 1150.55833 4494.07029 1242.58292 4334.02806 1149.84407 4315.10013 1160.77233 4494.03213 1264.47474 4672.98512 1161.59153 4654.02699 1150.55833" fill="#17232b"/>
  <polygon points="4305.92508 1199.29505 4465.54977 1291.89462 4465.15798 1476.86445 4484.07986 1487.80257 4484.53367 1280.99179 4306.01286 1177.3603 4305.92508 1199.29505" fill="#17232b"/>
  <polygon points="4682.21773 1199.11442 4682.12996 1177.17967 4503.60915 1280.81116 4504.06296 1487.62194 4522.98516 1476.68381 4522.59305 1291.71398 4682.21773 1199.11442" fill="#17232b"/>
  <polygon points="5365.06269 2465.44092 5205.106 2557.46551 5045.06376 2464.72666 5026.13583 2475.65492 5205.06783 2579.35733 5384.02082 2476.47413 5365.06269 2465.44092" fill="#17232b"/>
  <polygon points="5016.96078 2514.17765 5176.58547 2606.77721 5176.19368 2791.74704 5195.11556 2802.68516 5195.56937 2595.87439 5017.04888 2492.24257 5016.96078 2514.17765" fill="#17232b"/>
  <polygon points="3942.99129 2465.44092 3783.03459 2557.46551 3622.99236 2464.72666 3604.06443 2475.65492 3782.99643 2579.35733 3961.94942 2476.47413 3942.99129 2465.44092" fill="#17232b"/>
  <polygon points="3971.18203 2513.99701 3971.09426 2492.06226 3792.57345 2595.69375 3793.02726 2802.50453 3811.94914 2791.56641 3811.55734 2606.59657 3971.18203 2513.99701" fill="#17232b"/>
  <polygon points="5016.96078 1637.58915 5176.58547 1730.18871 5176.19368 1915.15854 5195.11556 1926.09666 5195.56937 1719.28589 5017.04888 1615.65439 5016.96078 1637.58915" fill="#17232b"/>
  <polygon points="4654.02699 2027.14651 4494.07029 2119.17142 4334.02806 2026.43257 4315.10013 2037.36051 4494.03213 2141.06324 4672.98512 2038.18003 4654.02699 2027.14651" fill="#17232b"/>
  <polygon points="4305.92508 2075.88324 4465.54977 2168.48312 4465.15798 2353.45295 4484.07986 2364.39107 4484.53367 2157.57998 4306.01286 2053.94848 4305.92508 2075.88324" fill="#17232b"/>
  <polygon points="4682.21773 2075.70292 4682.12996 2053.76785 4503.60915 2157.39966 4504.06296 2364.21044 4522.98516 2353.27232 4522.59305 2168.30248 4682.21773 2075.70292" fill="#17232b"/>
  <polygon points="3971.18203 1637.40851 3971.09426 1615.47376 3792.57345 1719.10525 3793.02726 1925.91634 3811.94914 1914.97822 3811.55734 1730.00839 3971.18203 1637.40851" fill="#17232b"/>
  <polygon points="5365.06269 3342.0291 5205.106 3434.05401 5045.06376 3341.31516 5026.13583 3352.2431 5205.06783 3455.94583 5384.02082 3353.06263 5365.06269 3342.0291" fill="#17232b"/>
  <polygon points="5016.96078 3390.76583 5176.58547 3483.36571 5176.19368 3668.33554 5195.11556 3679.27366 5195.56937 3472.46257 5017.04888 3368.83107 5016.96078 3390.76583" fill="#17232b"/>
  <polygon points="3942.99129 3342.0291 3783.03459 3434.05401 3622.99236 3341.31516 3604.06443 3352.2431 3782.99643 3455.94583 3961.94942 3353.06263 3942.99129 3342.0291" fill="#17232b"/>
  <polygon points="3971.18203 3390.58552 3971.09426 3368.65044 3792.57345 3472.28225 3793.02726 3679.09303 3811.94914 3668.15491 3811.55734 3483.18508 3971.18203 3390.58552" fill="#17232b"/>
  <polygon points="5016.96078 2514.17765 5176.58547 2606.77721 5176.19368 2791.74704 5195.11556 2802.68516 5195.56937 2595.87439 5017.04888 2492.24257 5016.96078 2514.17765" fill="#17232b"/>
  <polygon points="4654.02699 2903.73501 4494.07029 2995.75992 4334.02806 2903.02075 4315.10013 2913.94901 4494.03213 3017.65174 4672.98512 2914.76854 4654.02699 2903.73501" fill="#17232b"/>
  <polygon points="4305.92508 2952.47174 4465.54977 3045.0713 4465.15798 3230.04113 4484.07986 3240.97925 4484.53367 3034.16848 4306.01286 2930.53698 4305.92508 2952.47174" fill="#17232b"/>
  <polygon points="4682.21773 2952.29111 4682.12996 2930.35635 4503.60915 3033.98785 4504.06296 3240.79894 4522.98516 3229.86082 4522.59305 3044.89098 4682.21773 2952.29111" fill="#17232b"/>
  <polygon points="3971.18203 2513.99701 3971.09426 2492.06226 3792.57345 2595.69375 3793.02726 2802.50453 3811.94914 2791.56641 3811.55734 2606.59657 3971.18203 2513.99701" fill="#17232b"/>
  <polygon points="5365.06269 4218.6176 5205.106 4310.64251 5045.06376 4217.90334 5026.13583 4228.8316 5205.06783 4332.53433 5384.02082 4229.65113 5365.06269 4218.6176" fill="#17232b"/>
  <polygon points="5016.96078 4267.35433 5176.58547 4359.95389 5176.19368 4544.92372 5195.11556 4555.86184 5195.56937 4349.05107 5017.04888 4245.41957 5016.96078 4267.35433" fill="#17232b"/>
  <polygon points="3942.99129 4218.6176 3783.03459 4310.64251 3622.99236 4217.90334 3604.06443 4228.8316 3782.99643 4332.53433 3961.94942 4229.65113 3942.99129 4218.6176" fill="#17232b"/>
  <polygon points="3971.18203 4267.1737 3971.09426 4245.23894 3792.57345 4348.87044 3793.02726 4555.68153 3811.94914 4544.74341 3811.55734 4359.77326 3971.18203 4267.1737" fill="#17232b"/>
  <polygon points="5016.96078 3390.76583 5176.58547 3483.36571 5176.19368 3668.33554 5195.11556 3679.27366 5195.56937 3472.46257 5017.04888 3368.83107 5016.96078 3390.76583" fill="#17232b"/>
  <polygon points="4654.02699 3780.32351 4494.07029 3872.3481 4334.02806 3779.60925 4315.10013 3790.53751 4494.03213 3894.23992 4672.98512 3791.35672 4654.02699 3780.32351" fill="#17232b"/>
  <polygon points="4305.92508 3829.06024 4465.54977 3921.6598 4465.15798 4106.62963 4484.07986 4117.56775 4484.53367 3910.75698 4306.01286 3807.12517 4305.92508 3829.06024" fill="#17232b"/>
  <polygon points="4682.21773 3828.87961 4682.12996 3806.94485 4503.60915 3910.57635 4504.06296 4117.38712 4522.98516 4106.449 4522.59305 3921.47917 4682.21773 3828.87961" fill="#17232b"/>
  <polygon points="3971.18203 3390.58552 3971.09426 3368.65044 3792.57345 3472.28225 3793.02726 3679.09303 3811.94914 3668.15491 3811.55734 3483.18508 3971.18203 3390.58552" fill="#17232b"/>
  <polygon points="5365.06269 5095.2061 5205.106 5187.23069 5045.06376 5094.49184 5026.13583 5105.4201 5205.06783 5209.12252 5384.02082 5106.23931 5365.06269 5095.2061" fill="#17232b"/>
  <polygon points="5016.96078 5143.94283 5176.58547 5236.54239 5176.19368 5421.51222 5195.11556 5432.45034 5195.56937 5225.63957 5017.04888 5122.00776 5016.96078 5143.94283" fill="#17232b"/>
  <polygon points="3942.99129 5095.2061 3783.03459 5187.23069 3622.99236 5094.49184 3604.06443 5105.4201 3782.99643 5209.12252 3961.94942 5106.23931 3942.99129 5095.2061" fill="#17232b"/>
  <polygon points="3971.18203 5143.7622 3971.09426 5121.82744 3792.57345 5225.45894 3793.02726 5432.26971 3811.94914 5421.33159 3811.55734 5236.36176 3971.18203 5143.7622" fill="#17232b"/>
  <polygon points="5016.96078 4267.35433 5176.58547 4359.95389 5176.19368 4544.92372 5195.11556 4555.86184 5195.56937 4349.05107 5017.04888 4245.41957 5016.96078 4267.35433" fill="#17232b"/>
  <polygon points="4654.02699 4656.91169 4494.07029 4748.9366 4334.02806 4656.19775 4315.10013 4667.12569 4494.03213 4770.82842 4672.98512 4667.94522 4654.02699 4656.91169" fill="#17232b"/>
  <polygon points="4305.92508 4705.64842 4465.54977 4798.2483 4465.15798 4983.21813 4484.07986 4994.15625 4484.53367 4787.34516 4306.01286 4683.71367 4305.92508 4705.64842" fill="#17232b"/>
  <polygon points="4682.21773 4705.46779 4682.12996 4683.53303 4503.60915 4787.16485 4504.06296 4993.97562 4522.98516 4983.0375 4522.59305 4798.06767 4682.21773 4705.46779" fill="#17232b"/>
  <polygon points="3971.18203 4267.1737 3971.09426 4245.23894 3792.57345 4348.87044 3793.02726 4555.68153 3811.94914 4544.74341 3811.55734 4359.77326 3971.18203 4267.1737" fill="#17232b"/>
  <polygon points="5016.96078 5143.94283 5176.58547 5236.54239 5176.19368 5421.51222 5195.11556 5432.45034 5195.56937 5225.63957 5017.04888 5122.00776 5016.96078 5143.94283" fill="#17232b"/>
  <polygon points="4654.02699 5533.50019 4494.07029 5625.5251 4334.02806 5532.78593 4315.10013 5543.71419 4494.03213 5647.41693 4672.98512 5544.53372 4654.02699 5533.50019" fill="#17232b"/>
  <polygon points="4305.92508 5582.23692 4465.54977 5674.83648 4465.15798 5859.80631 4484.07986 5870.74444 4484.53367 5663.93366 4306.01286 5560.30217 4305.92508 5582.23692" fill="#17232b"/>
  <polygon points="4682.21773 5582.05629 4682.12996 5560.12153 4503.60915 5663.75303 4504.06296 5870.56412 4522.98516 5859.626 4522.59305 5674.65585 4682.21773 5582.05629" fill="#17232b"/>
  <polygon points="3971.18203 5143.7622 3971.09426 5121.82744 3792.57345 5225.45894 3793.02726 5432.26971 3811.94914 5421.33159 3811.55734 5236.36176 3971.18203 5143.7622" fill="#17232b"/>
  <polygon points="3231.95559 273.96983 3071.99889 365.99473 2911.95634 273.25556 2893.02873 284.18383 3071.96073 387.88656 3250.91341 285.00335 3231.95559 273.96983" fill="#17232b"/>
  <polygon points="2883.85368 322.70655 3043.47837 415.30611 3043.08626 600.27595 3062.00846 611.21407 3062.46226 404.40329 2883.94146 300.7718 2883.85368 322.70655" fill="#17232b"/>
  <polygon points="3260.14633 322.52592 3260.05824 300.59117 3081.53775 404.22266 3081.99156 611.03375 3100.91344 600.09563 3100.52164 415.1258 3260.14633 322.52592" fill="#17232b"/>
  <polygon points="3942.99129 1588.85242 3783.03459 1680.87733 3622.99236 1588.13816 3604.06443 1599.06642 3782.99643 1702.76915 3961.94942 1599.88594 3942.99129 1588.85242" fill="#17232b"/>
  <polygon points="3594.88938 1637.58915 3754.51407 1730.18871 3754.12196 1915.15854 3773.04416 1926.09666 3773.49797 1719.28589 3594.97716 1615.65439 3594.88938 1637.58915" fill="#17232b"/>
  <polygon points="2520.91989 1588.85242 2360.9628 1680.87733 2200.92064 1588.13816 2181.99264 1599.06642 2360.92496 1702.76915 2539.87763 1599.88594 2520.91989 1588.85242" fill="#17232b"/>
  <polygon points="2549.11055 1637.40851 2549.02246 1615.47376 2370.50205 1719.10525 2370.95547 1925.91634 2389.87767 1914.97822 2389.48587 1730.00839 2549.11055 1637.40851" fill="#17232b"/>
  <polygon points="3942.99129 712.26392 3783.03459 804.28883 3622.99236 711.54997 3604.06443 722.47792 3782.99643 826.18065 3961.94942 723.29744 3942.99129 712.26392" fill="#17232b"/>
  <polygon points="3971.18203 760.82033 3971.09426 738.88526 3792.57345 842.51707 3793.02726 1049.32784 3811.94914 1038.38972 3811.55734 853.41989 3971.18203 760.82033" fill="#17232b"/>
  <polygon points="3971.18203 760.82033 3971.09426 738.88526 3792.57345 842.51707 3793.02726 1049.32784 3811.94914 1038.38972 3811.55734 853.41989 3971.18203 760.82033" fill="#17232b"/>
  <polygon points="3942.99129 712.26392 3783.03459 804.28883 3622.99236 711.54997 3604.06443 722.47792 3782.99643 826.18065 3961.94942 723.29744 3942.99129 712.26392" fill="#17232b"/>
  <polygon points="3594.88938 761.00065 3754.51407 853.60052 3754.12196 1038.57036 3773.04416 1049.50848 3773.49797 842.69739 3594.97716 739.06589 3594.88938 761.00065" fill="#17232b"/>
  <polygon points="3594.88938 761.00065 3754.51407 853.60052 3754.12196 1038.57036 3773.04416 1049.50848 3773.49797 842.69739 3594.97716 739.06589 3594.88938 761.00065" fill="#17232b"/>
  <polygon points="3231.95559 1150.55833 3071.99889 1242.58292 2911.95634 1149.84407 2893.02873 1160.77233 3071.96073 1264.47474 3250.91341 1161.59153 3231.95559 1150.55833" fill="#17232b"/>
  <polygon points="2883.85368 1199.29505 3043.47837 1291.89462 3043.08626 1476.86445 3062.00846 1487.80257 3062.46226 1280.99179 2883.94146 1177.3603 2883.85368 1199.29505" fill="#17232b"/>
  <polygon points="3260.14633 1199.11442 3260.05824 1177.17967 3081.53775 1280.81116 3081.99156 1487.62194 3100.91344 1476.68381 3100.52164 1291.71398 3260.14633 1199.11442" fill="#17232b"/>
  <polygon points="3942.99129 2465.44092 3783.03459 2557.46551 3622.99236 2464.72666 3604.06443 2475.65492 3782.99643 2579.35733 3961.94942 2476.47413 3942.99129 2465.44092" fill="#17232b"/>
  <polygon points="3594.88938 2514.17765 3754.51407 2606.77721 3754.12196 2791.74704 3773.04416 2802.68516 3773.49797 2595.87439 3594.97716 2492.24257 3594.88938 2514.17765" fill="#17232b"/>
  <polygon points="2520.91989 2465.44092 2360.9628 2557.46551 2200.92064 2464.72666 2181.99264 2475.65492 2360.92496 2579.35733 2539.87763 2476.47413 2520.91989 2465.44092" fill="#17232b"/>
  <polygon points="2549.11055 2513.99701 2549.02246 2492.06226 2370.50205 2595.69375 2370.95547 2802.50453 2389.87767 2791.56641 2389.48587 2606.59657 2549.11055 2513.99701" fill="#17232b"/>
  <polygon points="3594.88938 1637.58915 3754.51407 1730.18871 3754.12196 1915.15854 3773.04416 1926.09666 3773.49797 1719.28589 3594.97716 1615.65439 3594.88938 1637.58915" fill="#17232b"/>
  <polygon points="3231.95559 2027.14651 3071.99889 2119.17142 2911.95634 2026.43257 2893.02873 2037.36051 3071.96073 2141.06324 3250.91341 2038.18003 3231.95559 2027.14651" fill="#17232b"/>
  <polygon points="2883.85368 2075.88324 3043.47837 2168.48312 3043.08626 2353.45295 3062.00846 2364.39107 3062.46226 2157.57998 2883.94146 2053.94848 2883.85368 2075.88324" fill="#17232b"/>
  <polygon points="3260.14633 2075.70292 3260.05824 2053.76785 3081.53775 2157.39966 3081.99156 2364.21044 3100.91344 2353.27232 3100.52164 2168.30248 3260.14633 2075.70292" fill="#17232b"/>
  <polygon points="2549.11055 1637.40851 2549.02246 1615.47376 2370.50205 1719.10525 2370.95547 1925.91634 2389.87767 1914.97822 2389.48587 1730.00839 2549.11055 1637.40851" fill="#17232b"/>
  <polygon points="3942.99129 3342.0291 3783.03459 3434.05401 3622.99236 3341.31516 3604.06443 3352.2431 3782.99643 3455.94583 3961.94942 3353.06263 3942.99129 3342.0291" fill="#17232b"/>
  <polygon points="3594.88938 3390.76583 3754.51407 3483.36571 3754.12196 3668.33554 3773.04416 3679.27366 3773.49797 3472.46257 3594.97716 3368.83107 3594.88938 3390.76583" fill="#17232b"/>
  <polygon points="2520.91989 3342.0291 2360.9628 3434.05401 2200.92064 3341.31516 2181.99264 3352.2431 2360.92496 3455.94583 2539.87763 3353.06263 2520.91989 3342.0291" fill="#17232b"/>
  <polygon points="2549.11055 3390.58552 2549.02246 3368.65044 2370.50205 3472.28225 2370.95547 3679.09303 2389.87767 3668.15491 2389.48587 3483.18508 2549.11055 3390.58552" fill="#17232b"/>
  <polygon points="3594.88938 2514.17765 3754.51407 2606.77721 3754.12196 2791.74704 3773.04416 2802.68516 3773.49797 2595.87439 3594.97716 2492.24257 3594.88938 2514.17765" fill="#17232b"/>
  <polygon points="3231.95559 2903.73501 3071.99889 2995.75992 2911.95634 2903.02075 2893.02873 2913.94901 3071.96073 3017.65174 3250.91341 2914.76854 3231.95559 2903.73501" fill="#17232b"/>
  <polygon points="2883.85368 2952.47174 3043.47837 3045.0713 3043.08626 3230.04113 3062.00846 3240.97925 3062.46226 3034.16848 2883.94146 2930.53698 2883.85368 2952.47174" fill="#17232b"/>
  <polygon points="3260.14633 2952.29111 3260.05824 2930.35635 3081.53775 3033.98785 3081.99156 3240.79894 3100.91344 3229.86082 3100.52164 3044.89098 3260.14633 2952.29111" fill="#17232b"/>
  <polygon points="2549.11055 2513.99701 2549.02246 2492.06226 2370.50205 2595.69375 2370.95547 2802.50453 2389.87767 2791.56641 2389.48587 2606.59657 2549.11055 2513.99701" fill="#17232b"/>
  <polygon points="3942.99129 4218.6176 3783.03459 4310.64251 3622.99236 4217.90334 3604.06443 4228.8316 3782.99643 4332.53433 3961.94942 4229.65113 3942.99129 4218.6176" fill="#17232b"/>
  <polygon points="3594.88938 4267.35433 3754.51407 4359.95389 3754.12196 4544.92372 3773.04416 4555.86184 3773.49797 4349.05107 3594.97716 4245.41957 3594.88938 4267.35433" fill="#17232b"/>
  <polygon points="2520.91989 4218.6176 2360.9628 4310.64251 2200.92064 4217.90334 2181.99264 4228.8316 2360.92496 4332.53433 2539.87763 4229.65113 2520.91989 4218.6176" fill="#17232b"/>
  <polygon points="2549.11055 4267.1737 2549.02246 4245.23894 2370.50205 4348.87044 2370.95547 4555.68153 2389.87767 4544.74341 2389.48587 4359.77326 2549.11055 4267.1737" fill="#17232b"/>
  <polygon points="3594.88938 3390.76583 3754.51407 3483.36571 3754.12196 3668.33554 3773.04416 3679.27366 3773.49797 3472.46257 3594.97716 3368.83107 3594.88938 3390.76583" fill="#17232b"/>
  <polygon points="3231.95559 3780.32351 3071.99889 3872.3481 2911.95634 3779.60925 2893.02873 3790.53751 3071.96073 3894.23992 3250.91341 3791.35672 3231.95559 3780.32351" fill="#17232b"/>
  <polygon points="2883.85368 3829.06024 3043.47837 3921.6598 3043.08626 4106.62963 3062.00846 4117.56775 3062.46226 3910.75698 2883.94146 3807.12517 2883.85368 3829.06024" fill="#17232b"/>
  <polygon points="3260.14633 3828.87961 3260.05824 3806.94485 3081.53775 3910.57635 3081.99156 4117.38712 3100.91344 4106.449 3100.52164 3921.47917 3260.14633 3828.87961" fill="#17232b"/>
  <polygon points="2549.11055 3390.58552 2549.02246 3368.65044 2370.50205 3472.28225 2370.95547 3679.09303 2389.87767 3668.15491 2389.48587 3483.18508 2549.11055 3390.58552" fill="#17232b"/>
  <polygon points="3942.99129 5095.2061 3783.03459 5187.23069 3622.99236 5094.49184 3604.06443 5105.4201 3782.99643 5209.12252 3961.94942 5106.23931 3942.99129 5095.2061" fill="#17232b"/>
  <polygon points="3594.88938 5143.94283 3754.51407 5236.54239 3754.12196 5421.51222 3773.04416 5432.45034 3773.49797 5225.63957 3594.97716 5122.00776 3594.88938 5143.94283" fill="#17232b"/>
  <polygon points="2520.91989 5095.2061 2360.9628 5187.23069 2200.92064 5094.49184 2181.99264 5105.4201 2360.92496 5209.12252 2539.87763 5106.23931 2520.91989 5095.2061" fill="#17232b"/>
  <polygon points="2549.11055 5143.7622 2549.02246 5121.82744 2370.50205 5225.45894 2370.95547 5432.26971 2389.87767 5421.33159 2389.48587 5236.36176 2549.11055 5143.7622" fill="#17232b"/>
  <polygon points="3594.88938 4267.35433 3754.51407 4359.95389 3754.12196 4544.92372 3773.04416 4555.86184 3773.49797 4349.05107 3594.97716 4245.41957 3594.88938 4267.35433" fill="#17232b"/>
  <polygon points="3231.95559 4656.91169 3071.99889 4748.9366 2911.95634 4656.19775 2893.02873 4667.12569 3071.96073 4770.82842 3250.91341 4667.94522 3231.95559 4656.91169" fill="#17232b"/>
  <polygon points="2883.85368 4705.64842 3043.47837 4798.2483 3043.08626 4983.21813 3062.00846 4994.15625 3062.46226 4787.34516 2883.94146 4683.71367 2883.85368 4705.64842" fill="#17232b"/>
  <polygon points="3260.14633 4705.46779 3260.05824 4683.53303 3081.53775 4787.16485 3081.99156 4993.97562 3100.91344 4983.0375 3100.52164 4798.06767 3260.14633 4705.46779" fill="#17232b"/>
  <polygon points="2549.11055 4267.1737 2549.02246 4245.23894 2370.50205 4348.87044 2370.95547 4555.68153 2389.87767 4544.74341 2389.48587 4359.77326 2549.11055 4267.1737" fill="#17232b"/>
  <polygon points="3594.88938 5143.94283 3754.51407 5236.54239 3754.12196 5421.51222 3773.04416 5432.45034 3773.49797 5225.63957 3594.97716 5122.00776 3594.88938 5143.94283" fill="#17232b"/>
  <polygon points="3231.95559 5533.50019 3071.99889 5625.5251 2911.95634 5532.78593 2893.02873 5543.71419 3071.96073 5647.41693 3250.91341 5544.53372 3231.95559 5533.50019" fill="#17232b"/>
  <polygon points="2883.85368 5582.23692 3043.47837 5674.83648 3043.08626 5859.80631 3062.00846 5870.74444 3062.46226 5663.93366 2883.94146 5560.30217 2883.85368 5582.23692" fill="#17232b"/>
  <polygon points="3260.14633 5582.05629 3260.05824 5560.12153 3081.53775 5663.75303 3081.99156 5870.56412 3100.91344 5859.626 3100.52164 5674.65585 3260.14633 5582.05629" fill="#17232b"/>
  <polygon points="2549.11055 5143.7622 2549.02246 5121.82744 2370.50205 5225.45894 2370.95547 5432.26971 2389.87767 5421.33159 2389.48587 5236.36176 2549.11055 5143.7622" fill="#17232b"/>
  <polygon points="1809.88413 273.96983 1649.92712 365.99473 1489.88489 273.25556 1470.95696 284.18383 1649.88928 387.88656 1828.84195 285.00335 1809.88413 273.96983" fill="#17232b"/>
  <polygon points="1461.78192 322.70655 1621.4066 415.30611 1621.0148 600.27595 1639.937 611.21407 1640.39049 404.40329 1461.87005 300.7718 1461.78192 322.70655" fill="#17232b"/>
  <polygon points="1838.07487 322.52592 1837.98678 300.59117 1659.46629 404.22266 1659.91978 611.03375 1678.84204 600.09563 1678.45019 415.1258 1838.07487 322.52592" fill="#17232b"/>
  <polygon points="1098.84844 106.74402 938.89144 198.76893 778.8492 106.02976 759.92128 116.95802 938.85359 220.66075 1117.80626 117.77754 1098.84844 106.74402" fill="#17232b"/>
  <polygon points="750.74623 155.48075 910.37091 248.08031 909.97912 433.05014 928.90132 443.98826 929.35481 237.17749 750.83437 133.54599 750.74623 155.48075" fill="#17232b"/>
  <polygon points="1127.03919 155.30012 1126.9511 133.36536 948.43061 236.99685 948.8841 443.80795 967.80635 432.86983 967.41451 247.89999 1127.03919 155.30012" fill="#17232b"/>
  <polygon points="2520.91997 108.29241 2360.96296 200.31731 2200.92073 107.57815 2181.9928 118.50641 2360.92512 222.20914 2539.87779 119.32593 2520.91997 108.29241" fill="#17232b"/>
  <polygon points="2172.81776 157.02913 2332.44244 249.6287 2332.05064 434.59853 2350.97284 445.53665 2351.42633 238.72587 2172.9059 135.09438 2172.81776 157.02913" fill="#17232b"/>
  <polygon points="2549.11071 156.8485 2549.02262 134.91375 2370.50213 238.54524 2370.95562 445.35633 2389.87788 434.41821 2389.48603 249.44838 2549.11071 156.8485" fill="#17232b"/>
  <polygon points="3942.99144 109.0666 3783.03444 201.09151 3622.9922 108.35234 3604.06428 119.2806 3782.99659 222.98333 3961.94926 120.10013 3942.99144 109.0666" fill="#17232b"/>
  <polygon points="3594.88923 157.80333 3754.51391 250.40289 3754.12212 435.37272 3773.04432 446.31084 3773.49781 239.50007 3594.97737 135.86857 3594.88923 157.80333" fill="#17232b"/>
  <polygon points="3971.18218 157.6227 3971.09409 135.68794 3792.57361 239.31944 3793.0271 446.13053 3811.94935 435.19241 3811.5575 250.22257 3971.18218 157.6227" fill="#17232b"/>
  <polygon points="5365.063 107.51821 5205.106 199.54312 5045.06376 106.80395 5026.13584 117.73221 5205.06815 221.43494 5384.02082 118.55174 5365.063 107.51821" fill="#17232b"/>
  <polygon points="5016.96079 156.25494 5176.58547 248.8545 5176.19368 433.82433 5195.11588 444.76245 5195.56937 237.95168 5017.04893 134.32019 5016.96079 156.25494" fill="#17232b"/>
  <polygon points="5393.25374 156.07431 5393.16565 134.13955 5214.64517 237.77105 5215.09866 444.58214 5234.02091 433.64402 5233.62906 248.67419 5393.25374 156.07431" fill="#17232b"/>
  <polygon points="1108.42908 5712.55362 948.47208 5804.57852 788.42984 5711.83936 769.50192 5722.76762 948.43423 5826.47035 1127.3869 5723.58714 1108.42908 5712.55362" fill="#17232b"/>
  <polygon points="760.32687 5761.29034 919.95155 5853.8899 919.55976 6038.85974 938.48196 6049.79786 938.93545 5842.98708 760.41501 5739.35559 760.32687 5761.29034" fill="#17232b"/>
  <polygon points="1136.61983 5761.10971 1136.53174 5739.17496 958.01125 5842.80645 958.46474 6049.61754 977.38699 6038.67942 976.99514 5853.70959 1136.61983 5761.10971" fill="#17232b"/>
  <polygon points="2530.50061 5714.102 2370.5436 5806.12691 2210.50137 5713.38774 2191.57344 5724.316 2370.50576 5828.01873 2549.45843 5725.13553 2530.50061 5714.102" fill="#17232b"/>
  <polygon points="2182.3984 5762.83873 2342.02308 5855.43829 2341.63128 6040.40812 2360.55348 6051.34624 2361.00697 5844.53547 2182.48653 5740.90398 2182.3984 5762.83873" fill="#17232b"/>
  <polygon points="2558.69135 5762.6581 2558.60326 5740.72334 2380.08277 5844.35484 2380.53626 6051.16593 2399.45852 6040.22781 2399.06667 5855.25798 2558.69135 5762.6581" fill="#17232b"/>
  <polygon points="3952.57208 5714.8762 3792.61507 5806.9011 3632.57284 5714.16194 3613.64491 5725.0902 3792.57723 5828.79293 3971.5299 5725.90972 3952.57208 5714.8762" fill="#17232b"/>
  <polygon points="3604.46987 5763.61292 3764.09455 5856.21249 3763.70276 6041.18232 3782.62496 6052.12044 3783.07844 5845.30966 3604.55801 5741.67817 3604.46987 5763.61292" fill="#17232b"/>
  <polygon points="3980.76282 5763.43229 3980.67473 5741.49754 3802.15425 5845.12903 3802.60774 6051.94012 3821.52999 6041.002 3821.13814 5856.03217 3980.76282 5763.43229" fill="#17232b"/>
  <polygon points="5374.64364 5713.32781 5214.68663 5805.35272 5054.6444 5712.61355 5035.71647 5723.54181 5214.64879 5827.24454 5393.60146 5724.36133 5374.64364 5713.32781" fill="#17232b"/>
  <polygon points="5026.54143 5762.06454 5186.16611 5854.6641 5185.77432 6039.63393 5204.69652 6050.57205 5205.15 5843.76128 5026.62957 5740.12978 5026.54143 5762.06454" fill="#17232b"/>
  <polygon points="5402.83438 5761.88391 5402.74629 5739.94915 5224.22581 5843.58065 5224.6793 6050.39174 5243.60155 6039.45362 5243.2097 5854.48378 5402.83438 5761.88391" fill="#17232b"/>
  <polygon points="2520.91989 1588.85242 2360.9628 1680.87733 2200.92064 1588.13816 2181.99264 1599.06642 2360.92496 1702.76915 2539.87763 1599.88594 2520.91989 1588.85242" fill="#17232b"/>
  <polygon points="2172.81792 1637.58915 2332.44228 1730.18871 2332.05048 1915.15854 2350.97276 1926.09666 2351.42617 1719.28589 2172.90569 1615.65439 2172.81792 1637.58915" fill="#17232b"/>
  <polygon points="1098.84844 1588.85242 938.89147 1680.87733 778.8492 1588.13816 759.92128 1599.06642 938.85359 1702.76915 1117.80626 1599.88594 1098.84844 1588.85242" fill="#17232b"/>
  <polygon points="1127.03919 1637.40851 1126.9511 1615.47376 948.43061 1719.10525 948.8841 1925.91634 967.8063 1914.97822 967.41451 1730.00839 1127.03919 1637.40851" fill="#17232b"/>
  <polygon points="2520.91989 712.26392 2360.9628 804.28883 2200.92064 711.54997 2181.99264 722.47792 2360.92496 826.18065 2539.87763 723.29744 2520.91989 712.26392" fill="#17232b"/>
  <polygon points="2549.11055 760.82033 2549.02246 738.88526 2370.50205 842.51707 2370.95547 1049.32784 2389.87767 1038.38972 2389.48587 853.41989 2549.11055 760.82033" fill="#17232b"/>
  <polygon points="2549.11055 760.82033 2549.02246 738.88526 2370.50205 842.51707 2370.95547 1049.32784 2389.87767 1038.38972 2389.48587 853.41989 2549.11055 760.82033" fill="#17232b"/>
  <polygon points="2520.91989 712.26392 2360.9628 804.28883 2200.92064 711.54997 2181.99264 722.47792 2360.92496 826.18065 2539.87763 723.29744 2520.91989 712.26392" fill="#17232b"/>
  <polygon points="2172.81792 761.00065 2332.44228 853.60052 2332.05048 1038.57036 2350.97276 1049.50848 2351.42617 842.69739 2172.90569 739.06589 2172.81792 761.00065" fill="#17232b"/>
  <polygon points="2172.81792 761.00065 2332.44228 853.60052 2332.05048 1038.57036 2350.97276 1049.50848 2351.42617 842.69739 2172.90569 739.06589 2172.81792 761.00065" fill="#17232b"/>
  <polygon points="1809.88413 1150.55833 1649.92712 1242.58292 1489.88489 1149.84407 1470.95696 1160.77233 1649.88928 1264.47474 1828.84195 1161.59153 1809.88413 1150.55833" fill="#17232b"/>
  <polygon points="1461.78192 1199.29505 1621.4066 1291.89462 1621.0148 1476.86445 1639.937 1487.80257 1640.39049 1280.99179 1461.87005 1177.3603 1461.78192 1199.29505" fill="#17232b"/>
  <polygon points="1838.07487 1199.11442 1837.98678 1177.17967 1659.46629 1280.81116 1659.91978 1487.62194 1678.84204 1476.68381 1678.45019 1291.71398 1838.07487 1199.11442" fill="#17232b"/>
  <polygon points="2520.91989 2465.44092 2360.9628 2557.46551 2200.92064 2464.72666 2181.99264 2475.65492 2360.92496 2579.35733 2539.87763 2476.47413 2520.91989 2465.44092" fill="#17232b"/>
  <polygon points="2172.81792 2514.17765 2332.44228 2606.77721 2332.05048 2791.74704 2350.97276 2802.68516 2351.42617 2595.87439 2172.90569 2492.24257 2172.81792 2514.17765" fill="#17232b"/>
  <polygon points="1098.84844 2465.44092 938.89147 2557.46551 778.8492 2464.72666 759.92128 2475.65492 938.85359 2579.35733 1117.80626 2476.47413 1098.84844 2465.44092" fill="#17232b"/>
  <polygon points="1127.03919 2513.99701 1126.9511 2492.06226 948.43061 2595.69375 948.8841 2802.50453 967.8063 2791.56641 967.41451 2606.59657 1127.03919 2513.99701" fill="#17232b"/>
  <polygon points="2172.81792 1637.58915 2332.44228 1730.18871 2332.05048 1915.15854 2350.97276 1926.09666 2351.42617 1719.28589 2172.90569 1615.65439 2172.81792 1637.58915" fill="#17232b"/>
  <polygon points="1809.88413 2027.14651 1649.92712 2119.17142 1489.88489 2026.43257 1470.95696 2037.36051 1649.88928 2141.06324 1828.84195 2038.18003 1809.88413 2027.14651" fill="#17232b"/>
  <polygon points="1461.78192 2075.88324 1621.4066 2168.48312 1621.0148 2353.45295 1639.937 2364.39107 1640.39049 2157.57998 1461.87005 2053.94848 1461.78192 2075.88324" fill="#17232b"/>
  <polygon points="1838.07487 2075.70292 1837.98678 2053.76785 1659.46629 2157.39966 1659.91978 2364.21044 1678.84204 2353.27232 1678.45019 2168.30248 1838.07487 2075.70292" fill="#17232b"/>
  <polygon points="1127.03919 1637.40851 1126.9511 1615.47376 948.43061 1719.10525 948.8841 1925.91634 967.8063 1914.97822 967.41451 1730.00839 1127.03919 1637.40851" fill="#17232b"/>
  <polygon points="2520.91989 3342.0291 2360.9628 3434.05401 2200.92064 3341.31516 2181.99264 3352.2431 2360.92496 3455.94583 2539.87763 3353.06263 2520.91989 3342.0291" fill="#17232b"/>
  <polygon points="2172.81792 3390.76583 2332.44228 3483.36571 2332.05048 3668.33554 2350.97276 3679.27366 2351.42617 3472.46257 2172.90569 3368.83107 2172.81792 3390.76583" fill="#17232b"/>
  <polygon points="1098.84844 3342.0291 938.89147 3434.05401 778.8492 3341.31516 759.92128 3352.2431 938.85359 3455.94583 1117.80626 3353.06263 1098.84844 3342.0291" fill="#17232b"/>
  <polygon points="1127.03919 3390.58552 1126.9511 3368.65044 948.43061 3472.28225 948.8841 3679.09303 967.8063 3668.15491 967.41451 3483.18508 1127.03919 3390.58552" fill="#17232b"/>
  <polygon points="2172.81792 2514.17765 2332.44228 2606.77721 2332.05048 2791.74704 2350.97276 2802.68516 2351.42617 2595.87439 2172.90569 2492.24257 2172.81792 2514.17765" fill="#17232b"/>
  <polygon points="1809.88413 2903.73501 1649.92712 2995.75992 1489.88489 2903.02075 1470.95696 2913.94901 1649.88928 3017.65174 1828.84195 2914.76854 1809.88413 2903.73501" fill="#17232b"/>
  <polygon points="1461.78192 2952.47174 1621.4066 3045.0713 1621.0148 3230.04113 1639.937 3240.97925 1640.39049 3034.16848 1461.87005 2930.53698 1461.78192 2952.47174" fill="#17232b"/>
  <polygon points="1838.07487 2952.29111 1837.98678 2930.35635 1659.46629 3033.98785 1659.91978 3240.79894 1678.84204 3229.86082 1678.45019 3044.89098 1838.07487 2952.29111" fill="#17232b"/>
  <polygon points="1127.03919 2513.99701 1126.9511 2492.06226 948.43061 2595.69375 948.8841 2802.50453 967.8063 2791.56641 967.41451 2606.59657 1127.03919 2513.99701" fill="#17232b"/>
  <polygon points="2520.91989 4218.6176 2360.9628 4310.64251 2200.92064 4217.90334 2181.99264 4228.8316 2360.92496 4332.53433 2539.87763 4229.65113 2520.91989 4218.6176" fill="#17232b"/>
  <polygon points="2172.81792 4267.35433 2332.44228 4359.95389 2332.05048 4544.92372 2350.97276 4555.86184 2351.42617 4349.05107 2172.90569 4245.41957 2172.81792 4267.35433" fill="#17232b"/>
  <polygon points="1098.84844 4218.6176 938.89147 4310.64251 778.8492 4217.90334 759.92128 4228.8316 938.85359 4332.53433 1117.80626 4229.65113 1098.84844 4218.6176" fill="#17232b"/>
  <polygon points="1127.03919 4267.1737 1126.9511 4245.23894 948.43061 4348.87044 948.8841 4555.68153 967.8063 4544.74341 967.41451 4359.77326 1127.03919 4267.1737" fill="#17232b"/>
  <polygon points="2172.81792 3390.76583 2332.44228 3483.36571 2332.05048 3668.33554 2350.97276 3679.27366 2351.42617 3472.46257 2172.90569 3368.83107 2172.81792 3390.76583" fill="#17232b"/>
  <polygon points="1809.88413 3780.32351 1649.92712 3872.3481 1489.88489 3779.60925 1470.95696 3790.53751 1649.88928 3894.23992 1828.84195 3791.35672 1809.88413 3780.32351" fill="#17232b"/>
  <polygon points="1461.78192 3829.06024 1621.4066 3921.6598 1621.0148 4106.62963 1639.937 4117.56775 1640.39049 3910.75698 1461.87005 3807.12517 1461.78192 3829.06024" fill="#17232b"/>
  <polygon points="1838.07487 3828.87961 1837.98678 3806.94485 1659.46629 3910.57635 1659.91978 4117.38712 1678.84204 4106.449 1678.45019 3921.47917 1838.07487 3828.87961" fill="#17232b"/>
  <polygon points="1127.03919 3390.58552 1126.9511 3368.65044 948.43061 3472.28225 948.8841 3679.09303 967.8063 3668.15491 967.41451 3483.18508 1127.03919 3390.58552" fill="#17232b"/>
  <polygon points="2520.91989 5095.2061 2360.9628 5187.23069 2200.92064 5094.49184 2181.99264 5105.4201 2360.92496 5209.12252 2539.87763 5106.23931 2520.91989 5095.2061" fill="#17232b"/>
  <polygon points="2172.81792 5143.94283 2332.44228 5236.54239 2332.05048 5421.51222 2350.97276 5432.45034 2351.42617 5225.63957 2172.90569 5122.00776 2172.81792 5143.94283" fill="#17232b"/>
  <polygon points="1098.84844 5095.2061 938.89147 5187.23069 778.8492 5094.49184 759.92128 5105.4201 938.85359 5209.12252 1117.80626 5106.23931 1098.84844 5095.2061" fill="#17232b"/>
  <polygon points="1127.03919 5143.7622 1126.9511 5121.82744 948.43061 5225.45894 948.8841 5432.26971 967.8063 5421.33159 967.41451 5236.36176 1127.03919 5143.7622" fill="#17232b"/>
  <polygon points="2172.81792 4267.35433 2332.44228 4359.95389 2332.05048 4544.92372 2350.97276 4555.86184 2351.42617 4349.05107 2172.90569 4245.41957 2172.81792 4267.35433" fill="#17232b"/>
  <polygon points="1809.88413 4656.91169 1649.92712 4748.9366 1489.88489 4656.19775 1470.95696 4667.12569 1649.88928 4770.82842 1828.84195 4667.94522 1809.88413 4656.91169" fill="#17232b"/>
  <polygon points="1461.78192 4705.64842 1621.4066 4798.2483 1621.0148 4983.21813 1639.937 4994.15625 1640.39049 4787.34516 1461.87005 4683.71367 1461.78192 4705.64842" fill="#17232b"/>
  <polygon points="1838.07487 4705.46779 1837.98678 4683.53303 1659.46629 4787.16485 1659.91978 4993.97562 1678.84204 4983.0375 1678.45019 4798.06767 1838.07487 4705.46779" fill="#17232b"/>
  <polygon points="1127.03919 4267.1737 1126.9511 4245.23894 948.43061 4348.87044 948.8841 4555.68153 967.8063 4544.74341 967.41451 4359.77326 1127.03919 4267.1737" fill="#17232b"/>
  <polygon points="2172.81792 5143.94283 2332.44228 5236.54239 2332.05048 5421.51222 2350.97276 5432.45034 2351.42617 5225.63957 2172.90569 5122.00776 2172.81792 5143.94283" fill="#17232b"/>
  <polygon points="1809.88413 5533.50019 1649.92712 5625.5251 1489.88489 5532.78593 1470.95696 5543.71419 1649.88928 5647.41693 1828.84195 5544.53372 1809.88413 5533.50019" fill="#17232b"/>
  <polygon points="1461.78192 5582.23692 1621.4066 5674.83648 1621.0148 5859.80631 1639.937 5870.74444 1640.39049 5663.93366 1461.87005 5560.30217 1461.78192 5582.23692" fill="#17232b"/>
  <polygon points="1838.07487 5582.05629 1837.98678 5560.12153 1659.46629 5663.75303 1659.91978 5870.56412 1678.84204 5859.626 1678.45019 5674.65585 1838.07487 5582.05629" fill="#17232b"/>
  <polygon points="1127.03919 5143.7622 1126.9511 5121.82744 948.43061 5225.45894 948.8841 5432.26971 967.8063 5421.33159 967.41451 5236.36176 1127.03919 5143.7622" fill="#17232b"/>
  <polygon points="387.81244 273.96983 227.85576 365.99473 67.81352 273.25556 48.88561 284.18383 227.81759 387.88656 406.77058 285.00335 387.81244 273.96983" fill="#17232b"/>
  <polygon points="39.71055 322.70655 199.33525 415.30611 198.94344 600.27595 217.86532 611.21407 218.31913 404.40329 39.79864 300.7718 39.71055 322.70655" fill="#17232b"/>
  <polygon points="416.0035 322.52592 415.91541 300.59117 237.39461 404.22266 237.84842 611.03375 256.77062 600.09563 256.37851 415.1258 416.0035 322.52592" fill="#17232b"/>
  <polygon points="1098.84844 1588.85242 938.89147 1680.87733 778.8492 1588.13816 759.92128 1599.06642 938.85359 1702.76915 1117.80626 1599.88594 1098.84844 1588.85242" fill="#17232b"/>
  <polygon points="750.74623 1637.58915 910.37091 1730.18871 909.97912 1915.15854 928.90132 1926.09666 929.35481 1719.28589 750.83432 1615.65439 750.74623 1637.58915" fill="#17232b"/>
  <polygon points="1098.84844 712.26392 938.89147 804.28883 778.8492 711.54997 759.92128 722.47792 938.85359 826.18065 1117.80626 723.29744 1098.84844 712.26392" fill="#17232b"/>
  <polygon points="1127.03919 760.82033 1126.9511 738.88526 948.43061 842.51707 948.8841 1049.32784 967.8063 1038.38972 967.41451 853.41989 1127.03919 760.82033" fill="#17232b"/>
  <polygon points="1127.03919 760.82033 1126.9511 738.88526 948.43061 842.51707 948.8841 1049.32784 967.8063 1038.38972 967.41451 853.41989 1127.03919 760.82033" fill="#17232b"/>
  <polygon points="1098.84844 712.26392 938.89147 804.28883 778.8492 711.54997 759.92128 722.47792 938.85359 826.18065 1117.80626 723.29744 1098.84844 712.26392" fill="#17232b"/>
  <polygon points="750.74623 761.00065 910.37091 853.60052 909.97912 1038.57036 928.90132 1049.50848 929.35481 842.69739 750.83432 739.06589 750.74623 761.00065" fill="#17232b"/>
  <polygon points="750.74623 761.00065 910.37091 853.60052 909.97912 1038.57036 928.90132 1049.50848 929.35481 842.69739 750.83432 739.06589 750.74623 761.00065" fill="#17232b"/>
  <polygon points="387.81244 1150.55833 227.85576 1242.58292 67.81352 1149.84407 48.88561 1160.77233 227.81759 1264.47474 406.77058 1161.59153 387.81244 1150.55833" fill="#17232b"/>
  <polygon points="39.71055 1199.29505 199.33525 1291.89462 198.94344 1476.86445 217.86532 1487.80257 218.31913 1280.99179 39.79864 1177.3603 39.71055 1199.29505" fill="#17232b"/>
  <polygon points="416.0035 1199.11442 415.91541 1177.17967 237.39461 1280.81116 237.84842 1487.62194 256.77062 1476.68381 256.37851 1291.71398 416.0035 1199.11442" fill="#17232b"/>
  <polygon points="1098.84844 2465.44092 938.89147 2557.46551 778.8492 2464.72666 759.92128 2475.65492 938.85359 2579.35733 1117.80626 2476.47413 1098.84844 2465.44092" fill="#17232b"/>
  <polygon points="750.74623 2514.17765 910.37091 2606.77721 909.97912 2791.74704 928.90132 2802.68516 929.35481 2595.87439 750.83432 2492.24257 750.74623 2514.17765" fill="#17232b"/>
  <polygon points="750.74623 1637.58915 910.37091 1730.18871 909.97912 1915.15854 928.90132 1926.09666 929.35481 1719.28589 750.83432 1615.65439 750.74623 1637.58915" fill="#17232b"/>
  <polygon points="387.81244 2027.14651 227.85576 2119.17142 67.81352 2026.43257 48.88561 2037.36051 227.81759 2141.06324 406.77058 2038.18003 387.81244 2027.14651" fill="#17232b"/>
  <polygon points="39.71055 2075.88324 199.33525 2168.48312 198.94344 2353.45295 217.86532 2364.39107 218.31913 2157.57998 39.79864 2053.94848 39.71055 2075.88324" fill="#17232b"/>
  <polygon points="416.0035 2075.70292 415.91541 2053.76785 237.39461 2157.39966 237.84842 2364.21044 256.77062 2353.27232 256.37851 2168.30248 416.0035 2075.70292" fill="#17232b"/>
  <polygon points="1098.84844 3342.0291 938.89147 3434.05401 778.8492 3341.31516 759.92128 3352.2431 938.85359 3455.94583 1117.80626 3353.06263 1098.84844 3342.0291" fill="#17232b"/>
  <polygon points="750.74623 3390.76583 910.37091 3483.36571 909.97912 3668.33554 928.90132 3679.27366 929.35481 3472.46257 750.83432 3368.83107 750.74623 3390.76583" fill="#17232b"/>
  <polygon points="750.74623 2514.17765 910.37091 2606.77721 909.97912 2791.74704 928.90132 2802.68516 929.35481 2595.87439 750.83432 2492.24257 750.74623 2514.17765" fill="#17232b"/>
  <polygon points="387.81244 2903.73501 227.85576 2995.75992 67.81352 2903.02075 48.88561 2913.94901 227.81759 3017.65174 406.77058 2914.76854 387.81244 2903.73501" fill="#17232b"/>
  <polygon points="39.71055 2952.47174 199.33525 3045.0713 198.94344 3230.04113 217.86532 3240.97925 218.31913 3034.16848 39.79864 2930.53698 39.71055 2952.47174" fill="#17232b"/>
  <polygon points="416.0035 2952.29111 415.91541 2930.35635 237.39461 3033.98785 237.84842 3240.79894 256.77062 3229.86082 256.37851 3044.89098 416.0035 2952.29111" fill="#17232b"/>
  <polygon points="1098.84844 4218.6176 938.89147 4310.64251 778.8492 4217.90334 759.92128 4228.8316 938.85359 4332.53433 1117.80626 4229.65113 1098.84844 4218.6176" fill="#17232b"/>
  <polygon points="750.74623 4267.35433 910.37091 4359.95389 909.97912 4544.92372 928.90132 4555.86184 929.35481 4349.05107 750.83432 4245.41957 750.74623 4267.35433" fill="#17232b"/>
  <polygon points="750.74623 3390.76583 910.37091 3483.36571 909.97912 3668.33554 928.90132 3679.27366 929.35481 3472.46257 750.83432 3368.83107 750.74623 3390.76583" fill="#17232b"/>
  <polygon points="387.81244 3780.32351 227.85576 3872.3481 67.81352 3779.60925 48.88561 3790.53751 227.81759 3894.23992 406.77058 3791.35672 387.81244 3780.32351" fill="#17232b"/>
  <polygon points="39.71055 3829.06024 199.33525 3921.6598 198.94344 4106.62963 217.86532 4117.56775 218.31913 3910.75698 39.79864 3807.12517 39.71055 3829.06024" fill="#17232b"/>
  <polygon points="416.0035 3828.87961 415.91541 3806.94485 237.39461 3910.57635 237.84842 4117.38712 256.77062 4106.449 256.37851 3921.47917 416.0035 3828.87961" fill="#17232b"/>
  <polygon points="1098.84844 5095.2061 938.89147 5187.23069 778.8492 5094.49184 759.92128 5105.4201 938.85359 5209.12252 1117.80626 5106.23931 1098.84844 5095.2061" fill="#17232b"/>
  <polygon points="750.74623 5143.94283 910.37091 5236.54239 909.97912 5421.51222 928.90132 5432.45034 929.35481 5225.63957 750.83432 5122.00776 750.74623 5143.94283" fill="#17232b"/>
  <polygon points="750.74623 4267.35433 910.37091 4359.95389 909.97912 4544.92372 928.90132 4555.86184 929.35481 4349.05107 750.83432 4245.41957 750.74623 4267.35433" fill="#17232b"/>
  <polygon points="387.81244 4656.91169 227.85576 4748.9366 67.81352 4656.19775 48.88561 4667.12569 227.81759 4770.82842 406.77058 4667.94522 387.81244 4656.91169" fill="#17232b"/>
  <polygon points="39.71055 4705.64842 199.33525 4798.2483 198.94344 4983.21813 217.86532 4994.15625 218.31913 4787.34516 39.79864 4683.71367 39.71055 4705.64842" fill="#17232b"/>
  <polygon points="416.0035 4705.46779 415.91541 4683.53303 237.39461 4787.16485 237.84842 4993.97562 256.77062 4983.0375 256.37851 4798.06767 416.0035 4705.46779" fill="#17232b"/>
  <polygon points="750.74623 5143.94283 910.37091 5236.54239 909.97912 5421.51222 928.90132 5432.45034 929.35481 5225.63957 750.83432 5122.00776 750.74623 5143.94283" fill="#17232b"/>
  <polygon points="387.81244 5533.50019 227.85576 5625.5251 67.81352 5532.78593 48.88561 5543.71419 227.81759 5647.41693 406.77058 5544.53372 387.81244 5533.50019" fill="#17232b"/>
  <polygon points="39.71055 5582.23692 199.33525 5674.83648 198.94344 5859.80631 217.86532 5870.74444 218.31913 5663.93366 39.79864 5560.30217 39.71055 5582.23692" fill="#17232b"/>
  <polygon points="416.0035 5582.05629 415.91541 5560.12153 237.39461 5663.75303 237.84842 5870.56412 256.77062 5859.626 256.37851 5674.65585 416.0035 5582.05629" fill="#17232b"/>
</svg>