<?xml version="1.0" encoding="UTF-8"?>
<svg id="Ebene_12" xmlns="http://www.w3.org/2000/svg" width="6144" height="6144" version="1.1" viewBox="0 0 6144 6144">
  <!-- Generator: Adobe Illustrator 29.2.0, SVG Export Plug-In . SVG Version: 2.1.0 Build 108)  -->
  <polygon points="1924.91737 177.29667 2113.90623 328.08947 1377.6692 929.25313 2202.40691 1876.02844 1971.01044 950.51734 3209.78122 121.13286 3184.36691 6.54371 2080.19077 6.54371 1924.91737 177.29667"/>
  <polygon points="2269.08992 3454.58187 1369.99697 4457.34062 374.25042 4550.54659 562.61041 3923.35389 281.82349 4006.26533 3.13476 4321.68272 3.13476 5217.94384 862.72765 5383.54199 573.36952 4987.656 2154.54515 4615.97093 2269.08992 3454.58187"/>
  <polygon points="3973.62141 287.27019 3118.49309 677.76151 4586.35341 718.14642 4706.2022 6.54371 3737.51965 6.54371 3973.62141 287.27019"/>
  <polygon points="190.65527 3752.12218 1608.28658 3154.15018 1301.90504 2615.98217 2109.41052 2052.17606 1362.05461 1795.90451 1338.19835 1402.95523 947.03285 2231.57484 463.5603 2398.14748 792.80854 3060.17934 3.13476 2571.11761 3.13476 3420.98632 190.65527 3752.12218"/>
  <polygon points="3.13476 356.29129 3.13476 1185.0601 937.1132 905.59234 671.1609 537.96767 1553.8008 334.60782 1407.6982 6.54371 264.56113 6.54371 3.13476 356.29129"/>
  <polygon points="6047.44043 4427.50614 5618.60197 5117.32057 6140.94589 5217.94384 6140.94589 4321.68272 6047.44043 4427.50614"/>
  <polygon points="6140.94589 2571.11761 5399.58329 2111.98101 6140.94589 3420.98632 6140.94589 2571.11761"/>
  <polygon points="6081.54589 1812.94213 6081.54589 1202.83237 6140.94589 1185.0601 6140.94589 356.29129 5964.2136 592.72261 5696.25377 6.54371 5482.68925 6.54371 5119.45535 811.74143 6081.54589 1812.94213"/>
  <polygon points="2967.92503 5168.10387 2080.19077 6144.35484 3184.36691 6144.35484 2967.92503 5168.10387"/>
  <polygon points="4788.19958 5657.60092 5320.04373 5442.16281 4175.5875 5448.89079 4350.58121 4997.8155 3475.37375 5832.63902 3737.51965 6144.35484 4706.2022 6144.35484 4788.19958 5657.60092"/>
  <polygon points="1320.39681 5948.3377 1677.81571 5362.20318 710.27198 6136.06785 405.23976 5956.15916 264.56113 6144.35484 1407.6982 6144.35484 1320.39681 5948.3377"/>
  <polygon points="5696.25377 6144.35484 5588.75238 5909.22663 5482.68925 6144.35484 5696.25377 6144.35484"/>
  <polygon points="3153.52771 2149.99767 2252.09669 2836.39569 3705.96092 2562.35187 4202.77045 2823.94255 3881.34462 1844.66517 4825.27196 1251.20399 3176.0054 1081.75413 3153.52771 2149.99767"/>
  <polygon points="4371.76988 4371.97217 3408.03157 3451.71976 3539.56864 2836.39569 2841.81284 3879.47892 2539.95719 3443.20803 2759.5454 4751.15009 3603.79375 4663.21792 3432.36658 5679.64322 4371.76988 4371.97217"/>
  <polygon points="4005.20942 3535.78511 4953.51349 4207.87259 4704.9436 5064.10952 5320.04373 4751.07454 5957.05125 3752.12218 5533.5481 3830.40288 5745.2845 3342.44972 5119.45535 1989.05954 5320.04373 1353.79042 4631.27841 2099.54297 4870.64643 3388.48331 4005.20942 3195.13376 4005.20942 3535.78511"/>
  <polygon points="1942.92859 3176.7326 1942.92859 2836.39569 2964.8684 1959.07491 2863.60026 875.05343 2964.8684 518.66756 2269.08992 1013.15418 2615.0009 1132.83772 2707.06806 1812.94213 1740.36283 2633.5297 1942.92859 3176.7326"/>
  <polygon points="4219.28305 1915.40864 4576.04378 3010.99942 4474.77568 1959.07491 5119.45535 1353.79042 4219.28305 1915.40864"/>
  <polygon points="4953.51349 909.21837 5155.92905 6.54371 4912.27495 6.54371 4733.29544 1003.71328 5165.27943 1134.33629 4953.51349 909.21837"/>
  <polygon points="5192.88151 5979.47623 5837.35166 5362.20318 4953.51349 5914.60618 4912.27495 6144.35484 5155.92905 6144.35484 5192.88151 5979.47623"/>
  <polygon points="2847.47663 3547.29398 3310.12027 2836.39569 2882.00229 3208.9495 2743.90154 2939.65634 2109.41052 2939.65634 2605.80079 3105.37441 2847.47663 3547.29398"/>
  <polygon points="4546.10354 4962.8262 4767.07134 4258.0119 4131.8013 3809.6939 4594.44494 4293.04653 4546.10354 4962.8262"/>
  <polygon points="451.42254 3752.12218 900.25045 3809.6939 685.60648 4355.18856 1286.95046 4293.04653 2039.58112 3454.58187 1286.95046 4051.37069 1024.53449 4058.26298 1190.26766 3637.06843 451.42254 3752.12218"/>
  <polygon points="3151.31055 4962.8262 2578.16837 4852.34276 2440.06762 3940.88631 2419.35865 5064.10952 1860.06242 5977.87285 2661.03448 5107.83529 3151.31055 4962.8262"/>
  <polygon points="2039.58112 4824.72545 976.22333 5064.10952 1639.09556 5064.10952 685.60648 5729.28867 209.7467 5563.5706 727.62404 5926.89408 2039.58112 4824.72545"/>
  <polygon points="5528.93327 1427.45643 5399.58329 1847.69253 6140.94589 2396.45439 6140.94589 2116.35679 5690.05081 1906.19342 5528.93327 1427.45643"/>
  <polygon points="3.13476 2116.35679 3.13476 2396.45439 491.31265 2757.81471 159.87651 2302.75362 785.94552 2108.74402 1052.94597 1611.59076 685.60648 2021.27738 95.44168 2159.37813 3.13476 2116.35679"/>
  <polygon points="603.33998 1514.90796 354.76996 1593.17355 267.28821 1284.74004 157.35907 1938.42543 630.97146 1812.94213 1151.12732 1134.33629 603.33998 1514.90796"/>
  <polygon points="1818.6143 368.68401 874.92584 575.83513 1151.12732 842.82047 1151.12732 644.88551 1818.6143 368.68401"/>
  <polygon points="5618.60197 4824.72545 5234.32967 5168.10387 4410.31061 5317.29423 5320.04373 5285.06128 5618.60197 4824.72545"/>
  <polygon points="6058.31947 5362.20318 5768.30129 5708.57969 5903.46533 6144.35484 5957.05125 6144.35484 5957.05125 5708.57969 6065.21176 5542.84652 6140.94589 5538.71057 6140.94589 5377.23326 6058.31947 5362.20318"/>
  <polygon points="3.13476 5377.23326 3.13476 5538.71057 685.60648 5501.42857 3.13476 5377.23326"/>
  <polygon points="5903.46533 6.54371 5957.05125 179.36464 5957.05125 6.54371 5903.46533 6.54371"/>
</svg>