<?xml version="1.0" encoding="UTF-8"?>
<svg id="Ebene_1" xmlns="http://www.w3.org/2000/svg" version="1.1" viewBox="0 0 6144 6144">
  <!-- Generator: Adobe Illustrator 29.2.0, SVG Export Plug-In . SVG Version: 2.1.0 Build 108)  -->
  <path d="M5946.803,421.022c0-40.357-33.43-73.321-75.217-73.321-41.478,0-75.219,32.964-75.219,73.321,0,11.707,2.787,22.797,7.738,32.656l-372.369,209.488v70.239l-74.907-42.206c3.404-7.702,5.571-16.018,5.571-24.954,0-9.242-2.167-17.56-5.571-25.262l385.369-216.882V9.745l10.835-6.16h-21.048v.615l-245.771,138.324c-9.905-13.862-26.002-23.412-44.573-24.954V3.585h-9.905v113.985c-18.573,1.542-34.358,11.092-44.573,24.954L5140.156,3.585h-19.811l261.865,147.566c-3.714,7.702-5.879,16.02-5.879,24.954s2.165,17.56,5.879,25.262l-74.907,42.206v-70.241l-2.477-1.54L5005.508,3.585h-19.811l311.392,175.291v70.241l-27.547,15.712-272.7,153.419v70.241l-129.385-73.013-129.695,73.013v-70.241l-2.477-1.232-270.223-152.187-27.549-15.712v-70.241L4748.904,3.585h-19.811l-301.796,169.746v70.241l-74.907-42.206c3.714-7.702,5.571-16.329,5.571-25.262s-1.857-17.252-5.571-24.954L4614.565,3.585h-20.428l-246.7,138.939c-10.213-13.862-26.31-23.412-44.573-24.954V3.585h-9.903v113.985c-18.573,1.542-34.67,11.092-44.573,24.954L4002.617,4.2v-.615h-21.05l10.835,6.16v414.357l2.477,1.232,382.894,215.65c-3.714,7.702-5.571,16.02-5.571,25.262,0,8.935,1.857,17.252,5.571,24.954l-74.909,42.206v-70.239l-2.475-1.232-369.894-208.257c4.952-9.859,7.738-20.949,7.738-32.656,0-40.357-33.74-73.321-75.217-73.321-41.788,0-75.527,32.964-75.527,73.321,0,11.707,2.785,22.797,7.738,32.656l-372.061,209.488v70.239l-75.217-42.206c3.714-7.702,5.881-16.018,5.881-24.954,0-9.242-2.167-17.56-5.881-25.262l385.371-216.882V9.745l11.143-6.16h-21.048v.615l-245.771,138.324c-10.215-13.862-26.002-23.412-44.573-24.954V3.585h-9.905v113.985c-18.571,1.542-34.668,11.092-44.573,24.954L3131.896,3.585l-57.575-32.347v8.625l-2.165,1.54,39.31,22.182,262.177,147.566c-3.714,7.702-5.881,16.02-5.881,24.954s2.167,17.56,5.881,25.262l-75.217,42.206v-70.241l-2.477-1.54-221.628-124.769v8.625l-2.165,1.542,216.364,121.687v70.241l-27.859,15.712-188.505,106.285,2.165,1.232v8.627l206.461-116.144,7.738-4.313v346.889c-18.573,1.54-34.668,11.09-44.573,25.262l-169.626-95.503v8.319l-2.165,1.54,166.838,93.961c-3.714,7.702-5.881,16.02-5.881,25.262,0,32.349,27.239,58.534,60.36,58.534,20.43,0,38.692-9.859,49.527-25.262l80.168,45.288v352.434c-18.571,1.54-34.668,11.09-44.573,25.26l-304.273-171.288v8.627l-2.165,1.232,301.486,169.748c-3.714,7.702-5.881,16.329-5.881,25.262s2.167,17.252,5.881,24.954l-75.217,42.206v-69.933l-2.477-1.54-221.628-124.769v8.627l-2.165,1.232,216.364,121.997v69.931l-216.364,121.997,2.165,1.54v8.627l214.199-120.765v347.197c-18.573,1.232-34.668,11.09-44.573,24.954l-169.626-95.501v8.625l-2.165,1.232,166.838,94.272c-3.714,7.393-5.881,16.018-5.881,24.954,0,32.347,27.239,58.841,60.36,58.841,20.43,0,38.692-10.167,49.527-25.262l80.168,44.979v352.742c-18.571,1.54-34.668,11.09-44.573,24.954l-304.273-171.288-2.165-1.233-2.477,1.233-304.273,171.288c-9.905-13.864-26-23.414-44.573-24.954v-352.742l80.17-44.979c10.833,15.095,29.096,25.262,49.525,25.262,33.12,0,60.36-26.494,60.36-58.841,0-8.935-2.167-17.56-5.881-24.954l167.149-94.272-2.477-1.232v-8.625l-169.624,95.501c-10.215-13.864-26.002-23.722-44.573-24.954v-347.197l214.197,120.765v-8.627l2.477-1.54-216.674-121.997v-69.931l216.674-121.997-2.477-1.232v-8.627l-221.628,124.769-2.475,1.54v69.933l-75.217-42.206c3.714-7.702,5.881-16.02,5.881-24.954s-2.167-17.56-5.881-25.262l301.796-169.748-2.477-1.232v-8.627l-304.273,171.288c-9.905-14.17-26-23.72-44.573-25.26v-352.434l80.17-45.288c10.833,15.404,29.096,25.262,49.525,25.262,33.12,0,60.36-26.185,60.36-58.534,0-9.242-2.167-17.56-5.881-25.262l167.149-93.961-2.477-1.54v-8.319l-169.624,95.503c-10.215-14.172-26.002-23.722-44.573-25.262v-346.889l7.738,4.313,206.459,116.144v-8.627l2.477-1.232-188.817-106.285-27.857-15.712v-70.241l216.674-121.687-2.477-1.542v-8.625l-221.628,124.769-2.475,1.54v70.241l-75.217-42.206c3.714-7.702,5.881-16.329,5.881-25.262s-2.167-17.252-5.881-24.954L3032.844,3.585l39.311-22.182-2.477-1.54v-8.625l-57.573,32.347-246.7,138.939c-9.905-13.862-26-23.412-44.573-24.954V3.585h-9.905v113.985c-18.571,1.542-34.358,11.092-44.573,24.954L2420.584,4.2v-.615h-21.048l11.143,6.16v414.357l385.371,216.882c-3.714,7.702-5.881,16.02-5.881,25.262,0,8.935,2.167,17.252,5.881,24.954l-75.217,42.206v-70.239l-372.061-209.488c4.954-9.859,7.738-20.949,7.738-32.656,0-40.357-33.738-73.321-75.525-73.321-41.478,0-75.219,32.964-75.219,73.321,0,11.707,2.787,22.797,7.738,32.656l-369.892,208.257-2.477,1.232v70.239l-74.907-42.206c3.714-7.702,5.571-16.018,5.571-24.954,0-9.242-1.857-17.56-5.571-25.262l382.894-215.65,2.475-1.232V9.745l10.835-6.16h-21.048v.615l-245.771,138.324c-9.905-13.862-26.002-23.412-44.573-24.954V3.585h-9.905v113.985c-18.263,1.542-34.358,11.092-44.573,24.954L1549.555,3.585h-20.121l262.175,147.566c-3.714,7.702-5.571,16.02-5.571,24.954s1.857,17.56,5.571,25.262l-74.907,42.206v-70.241L1414.907,3.585h-19.811l311.392,175.291v70.241l-27.547,15.712-270.225,152.187-2.475,1.232v70.241l-129.385-73.013-129.695,73.013v-70.241l-272.7-153.419-27.549-15.712v-70.241L1158.303,3.585h-19.811l-299.01,168.206-2.787,1.54v70.241l-74.907-42.206c3.714-7.702,5.881-16.329,5.881-25.262s-2.167-17.252-5.881-24.954L1023.654,3.585h-19.809l-247.01,138.939c-10.213-13.862-26-23.412-44.573-24.954V3.585h-9.903v113.985c-18.573,1.542-34.67,11.092-44.573,24.954L412.016,4.2v-.615h-21.05l10.835,6.16v414.357l385.371,216.882c-3.714,7.702-5.571,16.02-5.571,25.262,0,8.935,2.165,17.252,5.571,24.954l-74.909,42.206v-70.239l-372.369-209.488c4.952-9.859,7.738-20.949,7.738-32.656,0-40.357-33.74-73.321-75.217-73.321s-75.527,32.964-75.527,73.321c0,11.707,3.095,22.797,7.738,32.656L-5.238,571.976v11.092l215.127-121.074c13.31,19.717,36.525,32.656,62.527,32.656s48.905-12.938,62.525-32.656l367.419,207.025v69.933l-297.774,167.898-2.785,1.233v70.239l-129.385-73.013-129.695,73.013v-70.239L-5.238,824.903v11.09l138.053,77.943v69.931L-5.238,1061.81v11.398l138.053-77.943v402.958L-5.238,1475.859v11.398l145.482-81.946,2.477-1.542v-414.048l129.695-73.013,129.385,73.013v414.048l385.371,217.192c-3.714,7.393-5.571,16.018-5.571,24.954s1.857,17.558,5.571,24.954l-74.909,42.206v-69.933l-372.369-209.797c4.952-9.859,7.738-20.64,7.738-32.347,0-40.666-33.74-73.63-75.217-73.63s-75.527,32.964-75.527,73.63c0,11.707,3.095,22.489,7.738,32.347L-5.238,1551.645v11.398l215.127-121.074c13.31,19.409,36.525,32.349,62.527,32.349s48.905-12.94,62.525-32.349l367.419,206.717v70.241l-297.774,167.591-2.785,1.54v69.931l-129.385-72.704-129.695,72.704v-69.931L-5.238,1804.57v11.398l138.053,77.635v70.239L-5.238,2041.478v11.398l138.053-77.941v249.229h9.905v-254.774l129.695-73.015,129.385,73.015v414.048l385.371,217.19c-3.714,7.393-5.571,16.018-5.571,24.954s1.857,17.56,5.571,25.262l-74.909,42.206v-70.241l-372.369-209.797c4.952-9.859,7.738-20.64,7.738-32.347,0-40.666-33.74-73.63-75.217-73.63s-75.527,32.964-75.527,73.63c0,11.707,3.095,22.489,7.738,32.347l-209.865,118.3v11.398l215.127-121.072c13.31,19.715,36.525,32.656,62.527,32.656s48.905-12.94,62.525-32.656l367.419,206.715v70.241l-297.774,167.591-2.785,1.54v70.241l-129.385-73.015-129.695,73.015v-70.241l-147.958-83.488v11.398l138.053,77.635v70.241l-138.053,77.633v11.398l138.053-77.633v402.65l-138.053,77.941v11.09l145.482-81.946,2.477-1.232v-414.357l129.695-72.704,129.385,72.704v414.357l385.371,216.882c-3.714,7.702-5.571,16.02-5.571,24.954,0,9.242,1.857,17.56,5.571,25.262l-74.909,42.206v-70.241l-372.369-209.488c4.952-9.859,7.738-20.949,7.738-32.656,0-40.357-33.74-73.321-75.217-73.321s-75.527,32.964-75.527,73.321c0,11.707,3.095,22.797,7.738,32.656l-209.865,118.3v11.09l215.127-121.072c13.31,19.717,36.525,32.656,62.527,32.656s48.905-12.938,62.525-32.656l367.419,207.023v69.933l-297.774,167.899-2.785,1.232v70.241l-129.385-73.013-129.695,73.013v-70.241l-147.958-83.18v11.092l138.053,77.941v69.933l-138.053,77.941v11.398l138.053-77.941v402.65l-138.053,77.941v11.398l145.482-82.255,2.477-1.232v-414.048l129.695-73.013,129.385,73.013v414.048l385.371,216.882c-3.714,7.702-5.571,16.329-5.571,25.262s2.165,17.252,5.571,24.954l-74.909,42.206v-69.933l-372.369-209.797c4.952-9.857,7.738-20.64,7.738-32.347,0-40.666-33.74-73.63-75.217-73.63s-75.527,32.964-75.527,73.63c0,11.707,3.095,22.491,7.738,32.347l-209.865,118.3v11.398l215.127-121.072c13.31,19.409,36.525,32.347,62.527,32.347s48.905-12.938,62.525-32.347l367.419,206.717v70.239l-297.774,167.591-2.785,1.54v69.933l-129.385-72.704-129.695,72.704v-69.933l-147.958-83.486v11.398l138.053,77.633v70.241l-138.053,77.635v11.398l138.053-77.943v402.958l-138.053,77.635v11.398l145.482-81.948,2.477-1.54v-414.048l129.695-73.013,129.385,73.013v414.048l385.371,217.19c-3.714,7.702-5.571,16.02-5.571,24.954s1.857,17.56,5.571,25.262l-74.909,42.206v-70.239l-372.369-209.797c4.952-9.55,7.738-20.642,7.738-32.349,0-40.664-33.74-73.321-75.217-73.321s-75.527,32.657-75.527,73.321c0,11.707,3.095,22.799,7.738,32.349l-209.865,118.298v11.398l215.127-121.072c13.31,19.717,36.525,32.656,62.527,32.656s48.905-12.938,62.525-32.656l367.419,206.717v70.239l-297.774,167.591-2.785,1.54v70.241l-129.385-73.013-129.695,73.013v-70.241l-147.958-83.486v11.398l138.053,77.635v70.239l-138.053,77.943v11.09l138.053-77.635v249.231h9.905v-254.776l129.695-73.013,129.385,73.013v254.776h10.215v-249.231l240.817,135.552c-3.714,7.702-5.881,16.018-5.881,24.954,0,32.656,26.929,58.841,60.36,58.841,20.428,0,38.692-9.859,49.525-25.262l79.86,44.979v10.167h10.215v-4.313l7.429,4.313h20.121l-27.549-15.712v-69.933l367.108-207.023c13.62,19.715,36.525,32.656,62.836,32.656,26,0,48.905-12.94,62.525-32.656l367.108,207.023v69.933l-27.547,15.712h20.119l7.429-4.313v4.313h10.215v-10.167l79.86-44.979c10.833,15.404,29.096,25.262,49.525,25.262,33.43,0,60.36-26.185,60.36-58.841,0-8.935-2.167-17.252-5.881-24.954l240.819-135.552v249.231h10.213v-254.776l129.387-73.013,129.693,73.013v254.776h9.905v-249.231l240.819,135.552c-3.714,7.702-5.881,16.018-5.881,24.954,0,32.656,27.239,58.841,60.36,58.841,20.428,0,38.692-9.859,49.525-25.262l80.17,44.979v10.167h9.905v-4.313l7.738,4.313h20.119l-27.857-15.712v-69.933l216.674-121.995-2.477-1.542v-8.625l-221.628,125.077-2.475,1.232v70.241l-75.217-42.206c3.714-7.702,5.881-16.329,5.881-25.262s-2.167-17.252-5.881-24.954l301.796-169.748,301.486,169.748c-3.714,7.702-5.881,16.018-5.881,24.954s2.167,17.56,5.881,25.262l-75.217,42.206v-70.241l-2.477-1.232-221.628-125.077v8.625l-2.165,1.542,216.364,121.995v69.933l-27.859,15.712h20.121l7.738-4.313v4.313h9.905v-10.167l80.168-44.979c10.835,15.404,29.096,25.262,49.527,25.262,33.119,0,60.358-26.185,60.358-58.841,0-8.935-2.167-17.252-5.881-24.954l240.819-135.552v249.231h9.905v-254.776l129.695-73.013,129.385,73.013v254.776h10.215v-249.231l240.817,135.552c-3.714,7.702-5.881,16.018-5.881,24.954,0,32.656,26.929,58.841,60.36,58.841,20.428,0,38.382-9.859,49.525-25.262l79.86,44.979v10.167h10.215v-4.313l7.429,4.313h20.121l-27.549-15.712v-69.933l367.108-207.023c13.62,19.715,36.525,32.656,62.836,32.656,26,0,48.905-12.94,62.525-32.656l367.108,207.023v69.933l-27.547,15.712h20.119l7.429-4.313v4.313h10.215v-10.167l79.86-44.979c10.833,15.404,29.096,25.262,49.525,25.262,33.43,0,60.36-26.185,60.36-58.841,0-8.935-2.167-17.252-5.881-24.954l240.819-135.552v249.231h10.213v-254.776l129.387-73.013,129.693,73.013v254.776h9.905v-249.231l138.053,77.635v-11.09l-138.053-77.943v-70.239l138.053-77.635v-11.398l-147.958,83.486v70.241l-129.693-73.013-129.387,73.013v-70.241l-2.475-1.54-298.082-167.591v-70.239l367.417-206.717c13.62,19.717,36.525,32.656,62.527,32.656s49.215-12.938,62.525-32.656l215.127,121.072v-11.398l-209.865-118.298c4.954-9.55,7.43-20.642,7.43-32.349,0-40.664-33.43-73.321-75.217-73.321-41.478,0-75.219,32.657-75.219,73.321,0,11.707,2.787,22.799,7.738,32.349l-372.369,209.797v70.239l-74.907-42.206c3.404-7.702,5.571-16.327,5.571-25.262s-2.167-17.252-5.571-24.954l385.369-217.19v-414.048l129.387-73.013,129.693,73.013v414.048l2.477,1.54,145.482,81.948v-11.398l-138.053-77.635v-402.958l138.053,77.943v-11.398l-138.053-77.635v-70.241l138.053-77.633v-11.398l-147.958,83.486v69.933l-129.693-72.704-129.387,72.704v-69.933l-2.475-1.54-298.082-167.591v-70.239l367.417-206.717c13.62,19.409,36.525,32.347,62.527,32.347s49.215-12.938,62.525-32.347l215.127,121.072v-11.398l-209.865-118.3c4.954-9.857,7.43-20.64,7.43-32.347,0-40.666-33.43-73.63-75.217-73.63-41.478,0-75.219,32.964-75.219,73.63,0,11.707,2.787,22.491,7.738,32.347l-372.369,209.797v69.933l-74.907-42.206c3.404-7.702,5.571-16.02,5.571-24.954s-2.167-17.56-5.571-25.262l385.369-216.882v-414.048l129.387-73.013,129.693,73.013v414.048l2.477,1.232,145.482,82.255v-11.398l-138.053-77.941v-402.65l138.053,77.941v-11.398l-138.053-77.941v-69.933l138.053-77.941v-11.092l-147.958,83.18v70.241l-129.693-73.013-129.387,73.013v-70.241l-2.475-1.232-298.082-167.899v-69.933l367.417-207.023c13.62,19.717,36.525,32.656,62.527,32.656s49.215-12.938,62.525-32.656l215.127,121.072v-11.09l-209.865-118.3c4.954-9.859,7.43-20.949,7.43-32.656,0-40.357-33.43-73.321-75.217-73.321-41.478,0-75.219,32.964-75.219,73.321,0,11.707,2.787,22.797,7.738,32.656l-372.369,209.488v70.241l-74.907-42.206c3.404-7.702,5.571-16.02,5.571-25.262,0-8.933-2.167-17.252-5.571-24.954l385.369-216.882v-414.357l129.387-72.704,129.693,72.704v414.357l2.477,1.232,145.482,81.946v-11.09l-138.053-77.941v-402.65l138.053,77.633v-11.398l-138.053-77.633v-70.241l138.053-77.635v-11.398l-147.958,83.488v70.241l-129.693-73.015-129.387,73.015v-70.241l-2.475-1.54-298.082-167.591v-70.241l367.417-206.715c13.62,19.715,36.525,32.656,62.527,32.656s49.215-12.94,62.525-32.656l215.127,121.072v-11.398l-209.865-118.3c4.954-9.859,7.43-20.64,7.43-32.347,0-40.666-33.43-73.63-75.217-73.63-41.478,0-75.219,32.964-75.219,73.63,0,11.707,2.787,22.489,7.738,32.347l-372.369,209.797v70.241l-74.907-42.206c3.404-7.702,5.571-16.329,5.571-25.262s-2.167-17.56-5.571-24.954l385.369-217.19v-414.048l129.387-73.015,129.693,73.015v254.774h9.905v-249.229l138.053,77.941v-11.398l-138.053-77.635v-70.239l138.053-77.635v-11.398l-147.958,83.488v69.931l-129.693-72.704-129.387,72.704v-69.931l-2.475-1.54-298.082-167.591v-70.241l367.417-206.717c13.62,19.409,36.525,32.349,62.527,32.349s49.215-12.94,62.525-32.349l215.127,121.074v-11.398l-209.865-118.3c4.954-9.859,7.43-20.64,7.43-32.347,0-40.666-33.43-73.63-75.217-73.63-41.478,0-75.219,32.964-75.219,73.63,0,11.707,2.787,22.489,7.738,32.347l-372.369,209.797v69.933l-74.907-42.206c3.404-7.395,5.571-16.02,5.571-24.954s-2.167-17.56-5.571-24.954l385.369-217.192v-414.048l129.387-73.013,129.693,73.013v414.048l2.477,1.542,145.482,81.946v-11.398l-138.053-77.635v-402.958l138.053,77.943v-11.398l-138.053-77.943v-69.931l138.053-77.943v-11.09l-147.958,83.18v70.239l-129.693-73.013-129.387,73.013v-70.239l-2.475-1.233-298.082-167.898v-69.933l367.417-207.025c13.62,19.717,36.525,32.656,62.527,32.656s49.215-12.938,62.525-32.656l215.127,121.074v-11.092l-209.865-118.298c4.954-9.859,7.43-20.949,7.43-32.656ZM3298.426,607.405V254.971l80.168-45.288c10.835,15.404,29.096,25.262,49.527,25.262,33.119,0,60.358-26.185,60.358-58.841,0-8.933-2.167-17.252-5.881-24.954l240.819-135.552v402.65l-380.417,214.419c-9.905-14.172-26.002-23.722-44.573-25.262ZM2420.584,418.248V15.598l240.819,135.552c-3.714,7.702-5.881,16.02-5.881,24.954,0,32.656,27.239,58.841,60.36,58.841,20.428,0,38.692-9.859,49.525-25.262l80.17,45.288v352.434c-18.573,1.54-34.668,11.09-44.573,25.262l-380.419-214.419ZM702.359,5996.192c-18.573,1.54-34.67,11.09-44.573,24.954l-245.771-138.324v-70.239l290.344-163.279v346.889ZM5441.643,5649.304l290.344,163.279v70.239l-245.771,138.324c-9.905-13.864-26.002-23.414-44.573-24.954v-346.889ZM5307.304,254.971l79.86-45.288c10.833,15.404,29.096,25.262,49.525,25.262,33.43,0,60.36-26.185,60.36-58.841,0-8.933-2.167-17.252-5.881-24.954l240.819-135.552v402.65l-380.419,214.419c-9.905-14.172-26-23.722-44.263-25.262V254.971ZM5006.747,424.102l282.913-159.272,7.429-4.313v346.889c-18.261,1.54-34.358,11.09-44.263,25.262l-246.078-138.632v-69.933ZM5006.747,505.433l240.817,135.55c-3.404,7.702-5.571,16.02-5.571,25.262,0,32.349,26.929,58.534,60.36,58.534,20.428,0,38.382-9.859,49.215-25.262l80.17,45.288v352.434c-18.573,1.54-34.668,11.09-44.573,25.26l-380.417-214.417v-402.65ZM4737.761,913.936v-414.048l129.695-73.013,129.385,73.013v414.048l2.475,1.232,382.894,215.65c-3.714,7.702-5.879,16.329-5.879,25.262s2.165,17.252,5.879,24.954l-74.907,42.206v-69.933l-2.477-1.54-369.892-208.257c4.952-9.859,7.738-20.949,7.738-32.347,0-20.332-8.358-38.817-21.978-52.064-13.62-13.247-32.501-21.565-53.239-21.565-41.788,0-75.527,32.964-75.527,73.63,0,11.398,2.785,22.489,7.738,32.347l-372.371,209.797v69.933l-74.907-42.206c3.714-7.702,5.571-16.02,5.571-24.954s-1.857-17.56-5.571-25.262l385.371-216.882ZM4996.842,1398.224v69.933l-129.385-73.013-129.695,73.013v-69.933l-2.477-1.54-297.772-167.899v-69.931l367.108-207.025c13.62,19.717,36.525,32.656,62.836,32.656,26,0,48.905-12.938,62.525-32.656l367.108,207.025v69.931l-300.247,169.439ZM5297.089,1240.183v347.197c-18.261,1.232-34.358,11.09-44.263,24.954l-246.078-138.324v-70.241l290.342-163.586ZM5382.211,2160.701l-74.907,42.514v-70.239l-2.477-1.542-369.892-208.255c4.952-9.859,7.738-20.642,7.738-32.349,0-40.666-33.74-73.628-75.217-73.628-21.05,0-39.931,8.317-53.551,21.564-13.62,13.555-21.976,31.732-21.976,52.064,0,11.707,2.785,22.491,7.738,32.349l-372.371,209.797v70.239l-74.907-42.514c3.714-7.393,5.571-16.018,5.571-24.954s-1.857-17.56-5.571-24.954l385.371-217.19v-414.048l129.695-73.013,129.385,73.013v414.048l2.475,1.54,382.894,215.65c-3.714,7.393-5.879,16.02-5.879,24.954s2.165,17.56,5.879,24.954ZM5269.541,2224.164l-272.7,153.727v69.933l-129.385-72.704-129.695,72.704v-69.933l-2.477-1.54-270.223-152.187-27.549-15.404v-70.239l367.108-206.717c13.62,19.717,36.525,32.656,62.836,32.656,26,0,48.905-12.938,62.525-32.656l367.108,206.717v70.239l-27.547,15.404ZM5297.089,2220.159v346.889c-18.261,1.54-34.358,11.09-44.263,24.954l-246.078-138.324v-70.239l282.913-159.274,7.429-4.005ZM5382.211,3140.677l-74.907,42.206v-70.239l-2.477-1.233-369.892-208.563c4.952-9.55,7.738-20.642,7.738-32.347,0-20.334-8.358-38.509-21.978-51.758-13.62-13.555-32.501-21.564-53.239-21.564-41.788,0-75.527,32.964-75.527,73.321,0,11.705,2.785,22.797,7.738,32.347l-372.371,209.797v70.239l-74.907-42.206c3.714-7.702,5.571-16.327,5.571-25.262s-1.857-17.252-5.571-24.954l385.371-217.19v-414.048l129.695-73.013,129.385,73.013v414.048l2.475,1.54,382.894,215.65c-3.714,7.702-5.879,16.02-5.879,24.954s2.165,17.56,5.879,25.262ZM4996.842,3357.56v70.239l-129.385-73.013-129.695,73.013v-70.239l-2.477-1.233-297.772-167.899v-70.239l367.108-206.717c13.62,19.717,36.525,32.656,62.836,32.656,26,0,48.905-12.938,62.525-32.656l367.108,206.717v70.239l-300.247,169.133ZM5297.089,3199.828v346.887c-18.261,1.542-34.358,11.092-44.263,25.262l-246.078-138.632v-69.931l290.342-163.586ZM5382.211,4120.344l-74.907,42.208v-69.933l-2.477-1.54-369.892-208.257c4.952-9.859,7.738-20.949,7.738-32.347,0-40.666-33.74-73.63-75.217-73.63-21.05,0-39.931,8.319-53.551,21.565-13.62,13.247-21.976,31.73-21.976,52.064,0,11.398,2.785,22.489,7.738,32.347l-372.371,209.797v69.933l-74.907-42.208c3.714-7.702,5.571-16.018,5.571-24.954s-1.857-17.558-5.571-25.26l385.371-216.884v-414.048l129.695-73.013,129.385,73.013v414.048l2.475,1.233,382.894,215.65c-3.714,7.702-5.879,16.327-5.879,25.26s2.165,17.252,5.879,24.954ZM5269.541,4183.807l-272.7,153.421v70.239l-129.385-73.013-129.695,73.013v-70.239l-2.477-1.233-270.223-152.187-27.549-15.71v-69.933l367.108-207.025c13.62,19.717,36.525,32.657,62.836,32.657,26,0,48.905-12.94,62.525-32.657l367.108,207.025v69.933l-27.547,15.71ZM5297.089,4179.495v347.195c-18.261,1.233-34.358,11.092-44.263,24.954l-246.078-138.324v-70.239l282.913-159.274,7.429-4.312ZM5382.211,5100.013l-74.907,42.514v-70.241l-2.477-1.54-369.892-208.257c4.952-9.859,7.738-20.64,7.738-32.347,0-20.334-8.358-38.817-21.978-52.064-13.62-13.247-32.501-21.565-53.239-21.565-41.788,0-75.527,32.964-75.527,73.63,0,11.707,2.785,22.489,7.738,32.347l-372.371,209.797v70.241l-74.907-42.514c3.714-7.395,5.571-16.02,5.571-24.954s-1.857-17.56-5.571-24.954l385.371-217.192v-414.048l129.695-73.013,129.385,73.013v414.048l2.475,1.542,382.894,215.65c-3.714,7.393-5.879,16.018-5.879,24.954s2.165,17.558,5.879,24.954ZM4996.842,5317.203v69.933l-129.385-72.706-129.695,72.706v-69.933l-2.477-1.54-297.772-167.591v-70.241l367.108-206.715c13.62,19.407,36.525,32.347,62.836,32.347,26,0,48.905-12.94,62.525-32.347l367.108,206.715v70.241l-300.247,169.131ZM5297.089,5159.471v346.889c-18.261,1.54-34.358,11.09-44.263,24.954l-246.078-138.326v-70.239l290.342-163.278ZM4727.546,5322.748v70.239l-245.771,138.326c-9.905-13.864-26.002-23.414-44.263-24.954v-346.889l290.034,163.278ZM3730.844,4825.829l-297.772-167.591v-70.239l367.417-206.717c13.31,19.409,36.525,32.347,62.527,32.347s48.905-12.938,62.525-32.347l367.419,206.717v70.239l-300.559,169.131v69.933l-129.385-72.704-129.695,72.704v-69.933l-2.477-1.54ZM3347.95,2600.628l385.371-217.19v-414.048l129.695-73.015,129.385,73.015v414.048l2.477,1.54,382.894,215.65c-3.714,7.393-5.571,16.018-5.571,24.954s1.857,17.56,5.571,25.262l-74.909,42.206v-70.241l-2.475-1.54-369.894-208.257c4.952-9.859,7.738-20.64,7.738-32.347,0-40.666-33.74-73.63-75.217-73.63-41.788,0-75.527,32.964-75.527,73.63,0,11.707,2.785,22.797,7.738,32.347l-372.061,209.797v70.241l-75.217-42.206c3.714-7.702,5.881-16.329,5.881-25.262s-2.167-17.56-5.881-24.954ZM4492.609,1645.915c0-8.935-1.857-17.56-5.571-24.954l240.509-135.861v402.958l-380.109,214.11c-10.213-13.864-26.31-23.414-44.573-24.954v-352.742l80.17-44.979c10.833,15.095,28.786,25.262,49.525,25.262,33.12,0,60.05-26.494,60.05-58.841ZM4437.512,1587.38v-347.197l290.034,163.586v70.241l-245.771,138.324c-9.905-13.864-26.002-23.722-44.263-24.954ZM4347.437,2169.328l79.86,44.977v352.742c-18.261,1.54-34.358,11.09-44.263,24.954l-380.417-214.11v-402.956l240.817,135.859c-3.714,7.393-5.881,16.02-5.881,24.954,0,32.347,26.929,58.843,60.36,58.843,20.428,0,38.382-10.167,49.525-25.262ZM4492.609,2625.582c0-8.935-1.857-17.56-5.571-24.954l240.509-135.552v402.65l-380.109,214.11c-10.213-13.864-26.31-23.414-44.573-24.954v-352.742l80.17-44.979c10.833,15.404,28.786,25.262,49.525,25.262,33.12,0,60.05-26.494,60.05-58.841ZM4437.512,2567.048v-346.889l7.429,4.005,282.605,159.274v70.239l-245.771,138.324c-9.905-13.864-26.002-23.414-44.263-24.954ZM4492.609,3605.249c0-8.933-1.857-17.252-5.571-24.954l240.509-135.552v402.65l-380.109,214.419c-10.213-14.172-26.31-23.722-44.573-24.954v-352.742l80.17-45.286c10.833,15.404,28.786,25.26,49.525,25.26,33.12,0,60.05-26.185,60.05-58.841ZM4437.512,3546.715v-346.887l290.034,163.586v69.931l-245.771,138.632c-9.905-14.17-26.002-23.72-44.263-25.262ZM4492.609,4585.225c0-8.933-1.857-17.56-5.571-25.262l240.509-135.55v402.956l-380.109,214.11c-10.213-13.864-26.31-23.414-44.573-24.954v-352.742l80.17-44.977c10.833,15.095,28.786,25.26,49.525,25.26,33.12,0,60.05-26.494,60.05-58.841ZM4437.512,4526.691v-347.195l7.429,4.312,282.605,159.274v70.239l-245.771,138.324c-9.905-13.862-26.002-23.72-44.263-24.954ZM4427.297,4526.691c-18.261,1.233-34.358,10.784-44.263,24.954l-380.417-214.417v-402.65l240.817,135.552c-3.714,7.702-5.881,16.327-5.881,25.26,0,32.349,26.929,58.843,60.36,58.843,20.428,0,38.382-10.167,49.525-25.262l79.86,44.979v352.74ZM3730.844,3846.161l-297.772-167.899v-69.933l367.417-207.023c13.31,19.717,36.525,32.656,62.527,32.656s48.905-12.938,62.525-32.656l367.419,207.023v69.933l-300.559,169.131v70.241l-129.385-73.013-129.695,73.013v-70.241l-2.477-1.232ZM3723.416,3853.247v69.933l-245.771,138.632c-10.215-14.172-26.002-23.722-44.573-24.954v-347.197l290.344,163.586ZM4292.96,3689.661v347.197c-18.573,1.232-34.67,10.782-44.573,24.954l-245.771-138.632v-69.933l290.344-163.586ZM4427.297,3546.715c-18.261,1.542-34.358,11.092-44.263,25.262l-380.417-214.417v-402.65l240.817,135.55c-3.714,7.702-5.881,16.02-5.881,24.954,0,32.656,26.929,58.843,60.36,58.843,20.428,0,38.692-9.859,49.525-25.262l79.86,44.979v352.74ZM3730.844,2866.186l-297.772-167.591v-70.241l367.417-206.715c13.31,19.715,36.215,32.656,62.527,32.656,26,0,48.905-12.94,62.525-32.656l367.419,206.715v70.241l-300.559,169.131v70.241l-129.385-73.015-129.695,73.015v-70.241l-2.477-1.54ZM3723.416,2873.271v70.241l-245.771,138.324c-10.215-13.864-26.002-23.414-44.573-24.954v-346.889l290.344,163.278ZM4292.96,2709.993v346.889c-18.573,1.54-34.67,11.09-44.573,24.954l-245.771-138.324v-70.241l290.344-163.278ZM4002.617,1963.843v-70.239l290.344-163.586v347.197c-18.573,1.54-34.67,11.09-44.573,24.954l-245.771-138.326ZM4292.96,1718.927l-300.559,169.131v69.931l-129.385-72.704-129.695,72.704v-69.931l-2.477-1.54-297.772-167.591v-70.241l367.417-206.717c13.31,19.409,36.525,32.349,62.527,32.349s48.905-12.94,62.525-32.349l367.419,206.717v70.241ZM3723.416,1893.604v70.239l-245.771,138.326c-10.215-13.864-26.002-23.414-44.573-24.954v-346.889l290.344,163.278ZM3428.121,3174.257c33.119,0,60.358-26.187,60.358-58.843,0-8.933-2.167-17.252-5.881-24.954l240.819-135.55v402.65l-380.417,214.417c-9.905-14.17-26.002-23.72-44.573-25.262v-352.74l80.168-44.979c10.835,15.404,29.096,25.262,49.527,25.262ZM3347.95,3580.296l385.371-216.882v-414.357l129.695-72.704,129.385,72.704v414.357l2.477,1.232,382.894,215.65c-3.714,7.702-5.571,16.02-5.571,24.954,0,9.242,1.857,17.56,5.571,25.262l-74.909,42.206v-70.241l-2.475-1.232-369.894-208.257c4.952-9.859,7.738-20.949,7.738-32.656,0-40.357-33.74-73.321-75.217-73.321-41.788,0-75.527,32.964-75.527,73.321,0,11.707,2.785,22.797,7.738,32.656l-372.061,209.488v70.241l-75.217-42.206c3.714-7.702,5.881-16.02,5.881-25.262,0-8.933-2.167-17.252-5.881-24.954ZM3428.121,4154.233c33.119,0,60.358-26.494,60.358-58.843,0-8.933-2.167-17.558-5.881-25.26l240.819-135.552v402.65l-380.417,214.417c-9.905-13.862-26.002-23.72-44.573-24.954v-352.74l80.168-44.979c10.835,15.095,29.096,25.262,49.527,25.262ZM3347.95,4559.963l385.371-216.882v-414.048l129.695-73.013,129.385,73.013v414.048l2.477,1.232,382.894,215.65c-3.714,7.702-5.571,16.329-5.571,25.262s1.857,17.252,5.571,24.954l-74.909,42.206v-69.933l-2.475-1.54-369.894-208.257c4.952-9.857,7.738-20.64,7.738-32.347,0-40.666-33.74-73.63-75.217-73.63-41.788,0-75.527,32.964-75.527,73.63,0,11.707,2.785,22.491,7.738,32.347l-372.061,209.797v69.933l-75.217-42.206c3.714-7.702,5.881-16.02,5.881-24.954s-2.167-17.56-5.881-25.262ZM3428.121,5133.9c33.119,0,60.358-26.494,60.358-58.841,0-8.935-2.167-17.56-5.881-24.954l240.819-135.861v402.958l-380.417,214.11c-9.905-13.864-26.002-23.414-44.573-24.954v-352.742l80.168-44.979c10.835,15.095,29.096,25.262,49.527,25.262ZM3477.645,5041.479c-10.215-13.864-26.002-23.414-44.573-24.954v-347.197l290.344,163.586v70.241l-245.771,138.324ZM4292.96,4669.328v347.197c-18.573,1.54-34.67,11.09-44.573,24.954l-245.771-138.324v-70.241l290.344-163.586ZM4002.617,4914.245l240.817,135.861c-3.714,7.393-5.881,16.018-5.881,24.954,0,32.347,26.929,58.841,60.36,58.841,20.428,0,38.382-10.167,49.525-25.262l79.86,44.979v352.742c-18.261,1.54-34.358,11.09-44.263,24.954l-380.417-214.11v-402.958ZM4437.512,260.516l7.429,4.313,282.605,159.272v69.933l-245.771,138.632c-9.905-14.172-26.002-23.722-44.263-25.262v-346.889ZM4002.617,418.248V15.598l240.817,135.552c-3.714,7.702-5.881,16.02-5.881,24.954,0,32.656,26.929,58.841,60.36,58.841,20.428,0,38.382-9.859,49.525-25.262l79.86,45.288v352.434c-18.261,1.54-34.358,11.09-44.263,25.262l-380.417-214.419ZM4302.864,744.805l80.17-45.288c10.833,15.404,28.786,25.262,49.525,25.262,33.12,0,60.05-26.185,60.05-58.534,0-9.242-1.857-17.56-5.571-25.262l240.509-135.55v402.65l-380.109,214.417c-10.213-14.17-26.31-23.72-44.573-25.26v-352.434ZM4347.437,1189.661l79.86,44.977v352.742c-18.261,1.232-34.358,11.09-44.263,24.954l-380.417-214.11v-402.958l240.817,135.552c-3.714,7.702-5.881,16.329-5.881,25.262,0,32.347,26.929,58.841,60.36,58.841,20.428,0,38.382-10.165,49.525-25.26ZM4002.617,983.867v-69.931l290.344-163.586v346.889c-18.573,1.54-34.67,11.09-44.573,25.26l-245.771-138.632ZM3433.072,669.019l367.417-207.025c13.31,19.717,36.525,32.656,62.527,32.656s48.905-12.938,62.525-32.656l367.419,207.025v69.933l-300.559,169.131v70.239l-129.385-73.013-129.695,73.013v-70.239l-2.477-1.233-297.772-167.898v-69.933ZM3433.072,750.35l290.344,163.586v69.931l-245.771,138.632c-10.215-14.17-26.002-23.72-44.573-25.26v-346.889ZM3298.426,1587.38v-352.742l80.168-44.977c10.835,15.095,29.096,25.26,49.527,25.26,33.119,0,60.358-26.494,60.358-58.841,0-8.933-2.167-17.56-5.881-25.262l240.819-135.552v402.958l-380.417,214.11c-9.905-13.864-26.002-23.722-44.573-24.954ZM3347.95,1670.868c3.714-7.395,5.881-16.02,5.881-24.954s-2.167-17.56-5.881-24.954l385.371-217.192v-414.048l129.695-73.013,129.385,73.013v414.048l2.477,1.542,382.894,215.342c-3.714,7.702-5.571,16.327-5.571,25.262s1.857,17.558,5.571,24.954l-74.909,42.206v-69.933l-2.475-1.54-369.894-208.257c4.952-9.859,7.738-20.64,7.738-32.347,0-40.666-33.74-73.63-75.217-73.63-41.788,0-75.527,32.964-75.527,73.63,0,11.707,2.785,22.489,7.738,32.347l-372.061,209.797v69.933l-75.217-42.206ZM3428.121,2194.59c33.119,0,60.358-26.496,60.358-58.843,0-8.933-2.167-17.56-5.881-24.954l240.819-135.859v402.956l-380.417,214.11c-9.905-13.864-26.002-23.414-44.573-24.954v-352.742l80.168-44.977c10.835,15.095,29.096,25.262,49.527,25.262ZM2765.406,2169.328l80.17,44.977v352.742c-18.573,1.54-34.668,11.09-44.573,24.954l-380.419-214.11v-402.956l240.819,135.859c-3.714,7.393-5.881,16.02-5.881,24.954,0,32.347,27.239,58.843,60.36,58.843,20.428,0,38.692-10.167,49.525-25.262ZM2796.05,2650.844l-75.217,42.206v-70.241l-372.061-209.797c4.954-9.55,7.738-20.64,7.738-32.347,0-40.666-33.738-73.63-75.525-73.63-41.478,0-75.219,32.964-75.219,73.63,0,11.707,2.787,22.489,7.738,32.347l-369.892,208.257-2.477,1.54v70.241l-74.907-42.206c3.714-7.702,5.571-16.329,5.571-25.262s-1.857-17.56-5.571-24.954l382.894-215.65,2.475-1.54v-414.048l129.387-73.015,129.693,73.015v414.048l385.371,217.19c-3.714,7.393-5.881,16.018-5.881,24.954s2.167,17.56,5.881,25.262ZM2796.05,3630.511l-75.217,42.206v-70.241l-372.061-209.488c4.954-9.859,7.738-20.949,7.738-32.656,0-40.357-33.738-73.321-75.525-73.321-41.478,0-75.219,32.964-75.219,73.321,0,11.707,2.787,22.797,7.738,32.656l-369.892,208.257-2.477,1.232v70.241l-74.907-42.206c3.714-7.702,5.571-16.02,5.571-25.262,0-8.933-1.857-17.252-5.571-24.954l382.894-215.65,2.475-1.232v-414.357l129.387-72.704,129.693,72.704v414.357l385.371,216.882c-3.714,7.702-5.881,16.02-5.881,24.954,0,9.242,2.167,17.56,5.881,25.262ZM2796.05,4610.179l-75.217,42.206v-69.933l-372.061-209.797c4.954-9.857,7.738-20.64,7.738-32.347,0-40.666-33.738-73.63-75.525-73.63-41.478,0-75.219,32.964-75.219,73.63,0,11.707,2.787,22.491,7.738,32.347l-369.892,208.257-2.477,1.54v69.933l-74.907-42.206c3.714-7.702,5.571-16.02,5.571-24.954s-1.857-17.56-5.571-25.262l382.894-215.65,2.475-1.232v-414.048l129.387-73.013,129.693,73.013v414.048l385.371,216.882c-3.714,7.702-5.881,16.329-5.881,25.262s2.167,17.252,5.881,24.954ZM1851.042,4658.238v-70.239l367.417-206.717c13.62,19.409,36.525,32.347,62.527,32.347s49.215-12.938,62.525-32.347l367.417,206.717v70.239l-297.772,167.591-2.477,1.54v69.933l-129.693-72.704-129.387,72.704v-69.933l-300.557-169.131ZM1408.716,5315.663l-2.475,1.54v69.933l-129.385-72.706-129.695,72.706v-69.933l-300.249-169.131v-70.241l367.108-206.715c13.62,19.407,36.525,32.347,62.836,32.347,26,0,48.905-12.94,62.525-32.347l367.108,206.715v70.241l-297.772,167.591ZM1706.488,5159.471v346.889c-18.261,1.54-34.358,11.09-44.263,24.954l-246.078-138.326v-70.239l290.342-163.278ZM1137.255,5322.748v70.239l-246.08,138.326c-9.905-13.864-26.002-23.414-44.263-24.954v-346.889l290.344,163.278ZM1344.334,4862.489c4.952-9.859,7.738-20.64,7.738-32.347,0-40.666-33.74-73.63-75.217-73.63-21.05,0-39.931,8.319-53.551,21.565-13.62,13.247-21.976,31.73-21.976,52.064,0,11.707,2.785,22.489,7.738,32.347l-369.584,208.257-2.787,1.54v70.241l-74.907-42.514c3.714-7.395,5.881-16.02,5.881-24.954s-2.167-17.56-5.881-24.954l382.894-215.65,2.477-1.542v-414.048l129.695-73.013,129.385,73.013v414.048l385.369,217.192c-3.714,7.393-5.571,16.018-5.571,24.954s1.857,17.558,5.571,24.954l-74.907,42.514v-70.241l-372.369-209.797ZM761.789,4070.13l382.894-215.65,2.477-1.233v-414.048l129.695-73.013,129.385,73.013v414.048l385.369,216.884c-3.714,7.702-5.571,16.327-5.571,25.26s1.857,17.252,5.571,24.954l-74.907,42.208v-69.933l-372.369-209.797c4.952-9.859,7.738-20.949,7.738-32.347,0-20.334-8.358-38.817-21.978-52.064-13.62-13.247-32.501-21.565-53.239-21.565-41.788,0-75.527,32.964-75.527,73.63,0,11.398,2.785,22.489,7.738,32.347l-369.584,208.257-2.787,1.54v69.933l-74.907-42.208c3.714-7.702,5.881-16.018,5.881-24.954s-2.167-17.558-5.881-25.26ZM761.789,3090.461l382.894-215.65,2.477-1.54v-414.048l129.695-73.013,129.385,73.013v414.048l385.369,217.19c-3.714,7.702-5.571,16.02-5.571,24.954s1.857,17.56,5.571,25.262l-74.907,42.206v-70.239l-372.369-209.797c4.952-9.55,7.738-20.642,7.738-32.347,0-40.357-33.74-73.321-75.217-73.321-21.05,0-39.931,8.008-53.551,21.564-13.62,13.249-21.976,31.424-21.976,51.758,0,11.705,2.785,22.797,7.738,32.347l-369.584,208.563-2.787,1.233v70.239l-74.907-42.206c3.714-7.702,5.881-16.327,5.881-25.262s-2.167-17.252-5.881-24.954ZM761.789,2110.794l382.894-215.65,2.477-1.54v-414.048l129.695-73.013,129.385,73.013v414.048l385.369,217.19c-3.714,7.393-5.571,16.02-5.571,24.954s1.857,17.56,5.571,24.954l-74.907,42.514v-70.239l-372.369-209.797c4.952-9.859,7.738-20.642,7.738-32.349,0-20.332-8.358-38.509-21.978-52.064-13.62-13.247-32.501-21.564-53.239-21.564-41.788,0-75.527,32.962-75.527,73.628,0,11.707,2.785,22.491,7.738,32.349l-369.584,208.255-2.787,1.542v70.239l-74.907-42.514c3.714-7.393,5.881-16.018,5.881-24.954s-2.167-17.56-5.881-24.954ZM2413.156,1886.519l-2.477,1.54v69.931l-129.693-72.704-129.387,72.704v-69.931l-300.557-169.131v-70.241l367.417-206.717c13.62,19.409,36.525,32.349,62.527,32.349s49.215-12.94,62.525-32.349l367.417,206.717v70.241l-297.772,167.591ZM2710.928,1730.326v346.889c-18.571,1.54-34.358,11.09-44.573,24.954l-245.771-138.326v-70.239l290.344-163.278ZM2141.385,1893.604v70.239l-245.771,138.326c-9.905-13.864-26.002-23.414-44.573-24.954v-347.197l290.344,163.586ZM1906.448,2135.747c0-8.933-2.167-17.56-5.881-24.954l240.819-135.859v402.956l-380.109,214.11c-10.215-13.864-26.31-23.414-44.573-24.954v-352.742l79.86-44.977c10.833,15.095,29.096,25.262,49.525,25.262,33.43,0,60.36-26.496,60.36-58.843ZM2413.156,2866.186l-2.477,1.54v70.241l-129.693-73.015-129.387,73.015v-70.241l-300.557-169.131v-70.241l367.417-206.715c13.62,19.715,36.525,32.656,62.527,32.656s49.215-12.94,62.525-32.656l367.417,206.715v70.241l-297.772,167.591ZM2710.928,2709.993v346.889c-18.571,1.54-34.358,11.09-44.573,24.954l-245.771-138.324v-70.241l290.344-163.278ZM2141.385,2873.271v70.241l-245.771,138.324c-9.905-13.864-26.002-23.414-44.573-24.954v-346.889l290.344,163.278ZM1906.448,3115.415c0-8.933-2.167-17.252-5.881-24.954l240.819-135.55v402.65l-380.109,214.417c-10.215-14.17-26.31-23.72-44.573-25.262v-352.74l79.86-44.979c10.833,15.404,29.096,25.262,49.525,25.262,33.43,0,60.36-26.187,60.36-58.843ZM2413.156,3846.161l-2.477,1.232v70.241l-129.693-73.013-129.387,73.013v-70.241l-300.557-169.131v-69.933l367.417-207.023c13.62,19.717,36.525,32.656,62.527,32.656s49.215-12.938,62.525-32.656l367.417,207.023v69.933l-297.772,167.899ZM2710.928,3689.661v347.197c-18.571,1.232-34.358,10.782-44.573,24.954l-245.771-138.632v-69.933l290.344-163.586ZM2141.385,3853.247v69.933l-245.771,138.632c-9.905-14.172-26.002-23.722-44.573-24.954v-347.197l290.344,163.586ZM1906.448,4095.39c0-8.933-2.167-17.558-5.881-25.26l240.819-135.552v402.65l-380.109,214.417c-10.215-14.17-26.31-23.72-44.573-24.954v-352.74l79.86-44.979c10.833,15.095,29.096,25.262,49.525,25.262,33.43,0,60.36-26.494,60.36-58.843ZM874.46,4183.807l-27.549-15.71v-69.933l367.108-207.025c13.62,19.717,36.525,32.657,62.836,32.657,26,0,48.905-12.94,62.525-32.657l367.108,207.025v69.933l-27.547,15.71-270.225,152.187-2.475,1.233v70.239l-129.385-73.013-129.695,73.013v-70.239l-272.7-153.421ZM1706.488,4179.495v347.195c-18.261,1.233-34.358,11.092-44.263,24.954l-246.078-138.324v-70.239l282.913-159.274,7.429-4.312ZM1416.146,4424.412l240.817,135.55c-3.404,7.702-5.571,16.329-5.571,25.262,0,32.347,26.929,58.841,60.36,58.841,20.428,0,38.382-10.165,49.525-25.26l79.86,44.977v352.742c-18.573,1.54-34.358,11.09-44.573,24.954l-380.417-214.11v-402.956ZM1841.136,4036.858c-18.263,1.232-34.358,10.782-44.573,24.954l-380.417-214.419v-402.65l240.817,135.552c-3.404,7.702-5.571,16.02-5.571,24.954,0,32.656,26.929,58.841,60.36,58.841,20.428,0,38.382-9.857,49.525-25.26l79.86,45.286v352.742ZM846.911,3188.427v-70.239l367.108-206.717c13.62,19.717,36.525,32.656,62.836,32.656,26,0,48.905-12.938,62.525-32.656l367.108,206.717v70.239l-297.772,167.899-2.475,1.233v70.239l-129.385-73.013-129.695,73.013v-70.239l-300.249-169.133ZM1706.488,3199.828v346.887c-18.261,1.542-34.358,11.092-44.263,25.262l-246.078-138.632v-69.931l290.342-163.586ZM1841.136,3056.882c-18.263,1.54-34.358,11.09-44.573,24.954l-380.417-214.11v-402.65l240.817,135.552c-3.404,7.393-5.571,16.018-5.571,24.954,0,32.347,26.929,58.841,60.36,58.841,20.428,0,38.382-9.859,49.525-25.262l79.86,44.979v352.742ZM874.46,2224.164l-27.549-15.404v-70.239l367.108-206.717c13.62,19.717,36.525,32.656,62.836,32.656,26,0,48.905-12.938,62.525-32.656l367.108,206.717v70.239l-27.547,15.404-270.225,152.187-2.475,1.54v69.933l-129.385-72.704-129.695,72.704v-69.933l-272.7-153.727ZM1706.488,2220.159v346.889c-18.261,1.54-34.358,11.09-44.263,24.954l-246.078-138.324v-70.239l282.913-159.274,7.429-4.005ZM1841.136,2077.215c-18.573,1.54-34.358,11.09-44.573,24.954l-380.417-214.11v-402.958l240.817,135.861c-3.404,7.393-5.571,16.018-5.571,24.954,0,32.347,26.929,58.841,60.36,58.841,20.428,0,38.382-10.167,49.525-25.262l79.86,44.979v352.742ZM1416.146,1474.01v-70.241l290.342-163.586v347.197c-18.261,1.232-34.358,11.09-44.263,24.954l-246.078-138.324ZM1706.488,1228.785l-297.772,167.899-2.475,1.54v69.933l-129.385-73.013-129.695,73.013v-69.933l-300.249-169.439v-69.931l367.108-207.025c13.62,19.717,36.525,32.656,62.836,32.656,26,0,48.905-12.938,62.525-32.656l367.108,207.025v69.931ZM1137.255,1403.769v70.241l-246.08,138.324c-9.905-13.864-26.002-23.722-44.263-24.954v-347.197l290.344,163.586ZM846.911,2220.159l7.429,4.005,282.915,159.274v70.239l-246.08,138.324c-9.905-13.864-26.002-23.414-44.263-24.954v-346.889ZM846.911,3199.828l290.344,163.586v69.931l-246.08,138.632c-9.905-14.17-26.002-23.72-44.263-25.262v-346.887ZM846.911,4179.495l7.429,4.312,282.915,159.274v70.239l-246.08,138.324c-9.905-13.862-26.002-23.72-44.263-24.954v-347.195ZM1716.703,5153.617l79.86-44.979c10.833,15.095,29.096,25.262,49.525,25.262,33.43,0,60.36-26.494,60.36-58.841,0-8.935-2.167-17.56-5.881-24.954l240.819-135.861v402.958l-380.109,214.11c-10.215-13.864-26.31-23.414-44.573-24.954v-352.742ZM1895.615,5041.479c-9.905-13.864-26.002-23.414-44.573-24.954v-347.197l290.344,163.586v70.241l-245.771,138.324ZM2710.928,4669.328v347.197c-18.571,1.54-34.358,11.09-44.573,24.954l-245.771-138.324v-70.241l290.344-163.586ZM2420.584,4914.245l240.819,135.861c-3.714,7.393-5.881,16.018-5.881,24.954,0,32.347,27.239,58.841,60.36,58.841,20.428,0,38.692-10.167,49.525-25.262l80.17,44.979v352.742c-18.573,1.54-34.668,11.09-44.573,24.954l-380.419-214.11v-402.958ZM2420.584,4337.228v-402.65l240.819,135.552c-3.714,7.702-5.881,16.327-5.881,25.26,0,32.349,27.239,58.843,60.36,58.843,20.428,0,38.692-10.167,49.525-25.262l80.17,44.979v352.74c-18.573,1.233-34.668,11.092-44.573,24.954l-380.419-214.417ZM2420.584,3357.56v-402.65l240.819,135.55c-3.714,7.702-5.881,16.02-5.881,24.954,0,32.656,27.239,58.843,60.36,58.843,20.428,0,38.692-9.859,49.525-25.262l80.17,44.979v352.74c-18.573,1.542-34.668,11.092-44.573,25.262l-380.419-214.417ZM2796.05,1670.868l-75.217,42.206v-69.933l-372.061-209.797c4.954-9.859,7.738-20.64,7.738-32.347,0-40.666-33.738-73.63-75.525-73.63-41.478,0-75.219,32.964-75.219,73.63,0,11.707,2.787,22.489,7.738,32.347l-369.892,208.257-2.477,1.54v69.933l-74.907-42.206c3.714-7.395,5.571-16.02,5.571-24.954s-1.857-17.56-5.571-25.262l382.894-215.342,2.475-1.542v-414.048l129.387-73.013,129.693,73.013v414.048l385.371,217.192c-3.714,7.393-5.881,16.018-5.881,24.954s2.167,17.558,5.881,24.954ZM2765.406,1189.661l80.17,44.977v352.742c-18.573,1.232-34.668,11.09-44.573,24.954l-380.419-214.11v-402.958l240.819,135.552c-3.714,7.702-5.881,16.329-5.881,25.262,0,32.347,27.239,58.841,60.36,58.841,20.428,0,38.692-10.165,49.525-25.26ZM2420.584,983.867v-69.931l290.344-163.586v346.889c-18.571,1.54-34.358,11.09-44.573,25.26l-245.771-138.632ZM1851.042,669.019l367.417-207.025c13.62,19.717,36.525,32.656,62.527,32.656s49.215-12.938,62.525-32.656l367.417,207.025v69.933l-297.772,167.898-2.477,1.233v70.239l-129.693-73.013-129.387,73.013v-70.239l-300.557-169.131v-69.933ZM1851.042,750.35l290.344,163.586v69.931l-245.771,138.632c-9.905-14.17-26.002-23.72-44.573-25.26v-346.889ZM1846.088,1214.921c33.43,0,60.36-26.494,60.36-58.841,0-8.933-2.167-17.56-5.881-25.262l240.819-135.552v402.958l-380.109,214.11c-10.215-13.864-26.31-23.722-44.573-24.954v-352.742l79.86-44.977c10.833,15.095,29.096,25.26,49.525,25.26ZM1716.703,254.971l79.86-45.288c10.833,15.404,29.096,25.262,49.525,25.262,33.43,0,60.36-26.185,60.36-58.841,0-8.933-2.167-17.252-5.881-24.954l240.819-135.552v402.65l-380.109,214.419c-10.215-14.172-26.31-23.722-44.573-25.262V254.971ZM1416.146,424.102l282.913-159.272,7.429-4.313v346.889c-18.261,1.54-34.358,11.09-44.263,25.262l-246.078-138.632v-69.933ZM1416.146,505.433l240.817,135.55c-3.404,7.702-5.571,16.02-5.571,25.262,0,32.349,26.929,58.534,60.36,58.534,20.428,0,38.382-9.859,49.525-25.262l79.86,45.288v352.434c-18.573,1.54-34.358,11.09-44.573,25.26l-380.417-214.417v-402.65ZM1147.16,913.936v-414.048l129.695-73.013,129.385,73.013v414.048l385.369,216.882c-3.714,7.702-5.571,16.329-5.571,25.262s1.857,17.252,5.571,24.954l-74.907,42.206v-69.933l-372.369-209.797c4.952-9.859,7.738-20.949,7.738-32.347,0-40.666-33.74-73.63-75.217-73.63-21.05,0-39.931,8.319-53.551,21.565-13.62,13.247-21.976,31.732-21.976,52.064,0,11.398,2.785,22.489,7.738,32.347l-369.584,208.257-2.787,1.54v69.933l-74.907-42.206c3.714-7.702,5.881-16.02,5.881-24.954s-2.167-17.56-5.881-25.262l382.894-215.65,2.477-1.232ZM846.911,260.516l7.429,4.313,282.915,159.272v69.933l-246.08,138.632c-9.905-14.172-26.002-23.722-44.263-25.262v-346.889ZM412.016,418.248V15.598l240.817,135.552c-3.714,7.702-5.881,16.02-5.881,24.954,0,32.656,26.929,58.841,60.36,58.841,20.428,0,38.692-9.859,49.525-25.262l79.86,45.288v352.434c-18.261,1.54-34.358,11.09-44.263,25.262l-380.417-214.419ZM712.263,744.805l80.17-45.288c10.833,15.404,28.786,25.262,49.525,25.262,33.12,0,60.05-26.185,60.05-58.534,0-9.242-1.857-17.56-5.571-25.262l240.819-135.55v402.65l-380.419,214.417c-10.213-14.17-26-23.72-44.573-25.26v-352.434ZM412.016,913.936l290.344-163.586v346.889c-18.573,1.54-34.67,11.09-44.573,25.26l-245.771-138.632v-69.931ZM412.016,1398.224v-402.958l240.817,135.552c-3.714,7.702-5.881,16.329-5.881,25.262,0,32.347,26.929,58.841,60.36,58.841,20.428,0,38.692-10.165,49.525-25.26l79.86,44.977v352.742c-18.261,1.232-34.358,11.09-44.263,24.954l-380.417-214.11ZM712.263,1724.473l80.17-44.979c10.833,15.095,28.786,25.262,49.525,25.262,33.12,0,60.05-26.494,60.05-58.841,0-8.935-1.857-17.56-5.571-25.262l240.819-135.552v402.958l-380.419,214.11c-10.213-13.864-26-23.414-44.573-24.954v-352.742ZM412.016,1893.604l290.344-163.586v347.197c-18.573,1.54-34.67,11.09-44.573,24.954l-245.771-138.326v-70.239ZM412.016,2377.891v-402.956l240.817,135.859c-3.714,7.393-5.881,16.02-5.881,24.954,0,32.347,26.929,58.843,60.36,58.843,20.428,0,38.692-10.167,49.525-25.262l79.86,44.977v352.742c-18.261,1.54-34.358,11.09-44.263,24.954l-380.417-214.11ZM712.263,2704.14l80.17-44.979c10.833,15.404,28.786,25.262,49.525,25.262,33.12,0,60.05-26.494,60.05-58.841,0-8.935-1.857-17.56-5.571-24.954l240.819-135.552v402.65l-380.419,214.11c-10.213-13.864-26-23.414-44.573-24.954v-352.742ZM412.016,2873.271l290.344-163.278v346.889c-18.573,1.54-34.67,11.09-44.573,24.954l-245.771-138.324v-70.241ZM412.016,3357.56v-402.65l240.817,135.55c-3.714,7.702-5.881,16.02-5.881,24.954,0,32.656,26.929,58.843,60.36,58.843,20.428,0,38.692-9.859,49.525-25.262l79.86,44.979v352.74c-18.261,1.542-34.358,11.092-44.263,25.262l-380.417-214.417ZM712.263,3684.116l80.17-45.286c10.833,15.404,28.786,25.26,49.525,25.26,33.12,0,60.05-26.185,60.05-58.841,0-8.933-1.857-17.252-5.571-24.954l240.819-135.552v402.65l-380.419,214.419c-10.213-14.172-26-23.722-44.573-24.954v-352.742ZM412.016,3853.247l290.344-163.586v347.197c-18.573,1.232-34.67,10.782-44.573,24.954l-245.771-138.632v-69.933ZM412.016,4337.228v-402.65l240.817,135.552c-3.714,7.702-5.881,16.327-5.881,25.26,0,32.349,26.929,58.843,60.36,58.843,20.428,0,38.692-10.167,49.525-25.262l79.86,44.979v352.74c-18.261,1.233-34.358,11.092-44.263,24.954l-380.417-214.417ZM712.263,4663.783l80.17-44.977c10.833,15.095,28.786,25.26,49.525,25.26,33.12,0,60.05-26.494,60.05-58.841,0-8.933-1.857-17.56-5.571-25.262l240.819-135.55v402.956l-380.419,214.11c-10.213-13.864-26-23.414-44.573-24.954v-352.742ZM412.016,4832.914l290.344-163.586v347.197c-18.573,1.54-34.67,11.09-44.573,24.954l-245.771-138.324v-70.241ZM412.016,5317.203v-402.958l240.817,135.861c-3.714,7.393-5.881,16.018-5.881,24.954,0,32.347,26.929,58.841,60.36,58.841,20.428,0,38.692-10.167,49.525-25.262l79.86,44.979v352.742c-18.261,1.54-34.358,11.09-44.263,24.954l-380.417-214.11ZM712.263,5996.192v-352.742l80.17-44.977c10.833,15.404,28.786,25.262,49.525,25.262,33.12,0,60.05-26.496,60.05-58.843,0-8.933-1.857-17.56-5.571-24.954l240.819-135.55v402.648l-380.419,214.11c-10.213-13.864-26-23.414-44.573-24.954ZM1791.61,6079.989l-74.907,42.206v-70.241l-372.369-209.797c4.952-9.55,7.738-20.64,7.738-32.347,0-20.332-8.358-38.509-21.978-51.756-13.62-13.247-32.501-21.565-53.239-21.565-41.788,0-75.527,32.964-75.527,73.321,0,11.707,2.785,22.797,7.738,32.347l-369.584,208.565-2.787,1.232v70.241l-74.907-42.206c3.714-7.702,5.881-16.329,5.881-25.262s-2.167-17.252-5.881-24.954l382.894-215.65,2.477-1.54v-414.048l129.695-73.013,129.385,73.013v414.048l385.369,217.19c-3.714,7.702-5.571,16.018-5.571,24.954s1.857,17.56,5.571,25.262ZM1841.136,5996.192c-18.573,1.54-34.358,11.09-44.573,24.954l-380.417-214.11v-402.648l240.817,135.55c-3.404,7.702-5.571,16.02-5.571,24.954,0,32.347,26.929,58.843,60.36,58.843,20.428,0,38.382-9.859,49.525-25.262l79.86,44.977v352.742ZM2141.385,5882.822l-245.771,138.324c-9.905-13.864-26.002-23.414-44.573-24.954v-346.889l290.344,163.279v70.239ZM2710.928,5996.192c-18.571,1.54-34.358,11.09-44.573,24.954l-245.771-138.324v-70.239l290.344-163.279v346.889ZM2710.928,5637.905l-297.772,167.591-2.477,1.54v70.241l-129.693-73.013-129.387,73.013v-70.241l-300.557-169.131v-70.239l367.417-206.717c13.62,19.717,36.525,32.656,62.527,32.656s49.215-12.938,62.525-32.656l367.417,206.717v70.239ZM2348.772,5352.324c4.954-9.55,7.738-20.642,7.738-32.349,0-40.664-33.738-73.321-75.525-73.321-41.478,0-75.219,32.657-75.219,73.321,0,11.707,2.787,22.799,7.738,32.349l-369.892,208.255-2.477,1.542v70.239l-74.907-42.206c3.714-7.702,5.571-16.327,5.571-25.262s-1.857-17.252-5.571-24.954l382.894-215.65,2.475-1.54v-414.048l129.387-73.013,129.693,73.013v414.048l385.371,217.19c-3.714,7.702-5.881,16.02-5.881,24.954s2.167,17.56,5.881,25.262l-75.217,42.206v-70.239l-372.061-209.797ZM3423.167,5996.192c-18.571,1.54-34.668,11.09-44.573,24.954l-304.273-171.288-2.165-1.232-2.477,1.232-304.273,171.288c-9.905-13.864-26-23.414-44.573-24.954v-352.742l80.17-44.977c10.833,15.404,29.096,25.262,49.525,25.262,33.12,0,60.36-26.496,60.36-58.843,0-8.933-2.167-17.252-5.881-24.954l167.149-93.961-2.477-1.54v-8.627l-169.624,95.503c-10.215-13.864-26.002-23.414-44.573-24.954v-346.889l214.197,120.455v-8.625l2.477-1.233-216.674-121.995v-70.241l216.674-121.995-2.477-1.233v-8.625l-221.628,124.769-2.475,1.54v70.241l-75.217-42.514c3.714-7.395,5.881-16.02,5.881-24.954s-2.167-17.56-5.881-24.954l301.796-170.056-2.477-1.232v-8.627l-304.273,171.288c-9.905-13.864-26-23.414-44.573-24.954v-352.742l80.17-44.977c10.833,15.095,29.096,25.26,49.525,25.26,33.12,0,60.36-26.494,60.36-58.841,0-8.933-2.167-17.56-5.881-25.262l167.149-93.961-2.477-1.232v-8.627l-169.624,95.501c-10.215-13.862-26.002-23.72-44.573-24.954v-347.195l7.738,4.312,206.459,116.452v-8.627l2.477-1.54-188.817-106.285-27.857-15.71v-69.933l216.674-121.997-2.477-1.232v-8.627l-221.628,124.771-2.475,1.54v69.933l-75.217-42.208c3.714-7.702,5.881-16.018,5.881-24.954s-2.167-17.558-5.881-25.26l301.796-169.748-2.477-1.233v-8.625l-304.273,171.288c-9.905-14.172-26-23.722-44.573-24.954v-352.742l80.17-45.286c10.833,15.404,29.096,25.26,49.525,25.26,33.12,0,60.36-26.185,60.36-58.841,0-8.933-2.167-17.252-5.881-24.954l167.149-93.961-2.477-1.233v-8.933l-169.624,95.81c-10.215-14.17-26.002-23.72-44.573-25.262v-346.887l214.197,120.455v-8.627l2.477-1.232-216.674-121.997v-70.239l216.674-121.689-2.477-1.54v-8.627l-221.628,125.077-2.475,1.233v70.239l-75.217-42.206c3.714-7.702,5.881-16.327,5.881-25.262s-2.167-17.252-5.881-24.954l301.796-169.748-2.477-1.54v-8.625l-304.273,171.288c-9.905-13.864-26-23.414-44.573-24.954v-352.742l80.17-44.979c10.833,15.404,29.096,25.262,49.525,25.262,33.12,0,60.36-26.494,60.36-58.841,0-8.935-2.167-17.252-5.881-24.954l167.149-93.961-2.477-1.542v-8.625l-169.624,95.501c-10.215-13.864-26.002-23.414-44.573-24.954v-346.889l7.738,4.005h20.119l-27.857-15.404v-70.239l216.674-121.997-2.477-1.232v-8.627l-221.628,124.769-2.475,1.542v70.239l-75.217-42.514c3.714-7.393,5.881-16.018,5.881-24.954s-2.167-17.56-5.881-24.954l301.796-170.056,301.486,170.056c-3.714,7.393-5.881,16.02-5.881,24.954s2.167,17.56,5.881,24.954l-75.217,42.514v-70.239l-2.477-1.542-221.628-124.769v8.627l-2.165,1.232,216.364,121.997v70.239l-27.859,15.404h20.121l7.738-4.005v346.889c-18.573,1.54-34.668,11.09-44.573,24.954l-169.626-95.501v8.625l-2.165,1.542,166.838,93.961c-3.714,7.702-5.881,16.018-5.881,24.954,0,32.347,27.239,58.841,60.36,58.841,20.43,0,38.692-9.859,49.527-25.262l80.168,44.979v352.742c-18.571,1.54-34.668,11.09-44.573,24.954l-304.273-171.288v8.625l-2.165,1.54,301.486,169.748c-3.714,7.702-5.881,16.02-5.881,24.954s2.167,17.56,5.881,25.262l-75.217,42.206v-70.239l-2.477-1.233-221.628-125.077v8.627l-2.165,1.54,216.364,121.689v70.239l-216.364,121.997,2.165,1.232v8.627l214.199-120.455v346.887c-18.573,1.542-34.668,11.092-44.573,25.262l-169.626-95.81v8.933l-2.165,1.233,166.838,93.961c-3.714,7.702-5.881,16.02-5.881,24.954,0,32.656,27.239,58.841,60.36,58.841,20.43,0,38.692-9.857,49.527-25.26l80.168,45.286v352.742c-18.571,1.232-34.668,10.782-44.573,24.954l-304.273-171.288v8.625l-2.165,1.233,301.486,169.748c-3.714,7.702-5.881,16.327-5.881,25.26s2.167,17.252,5.881,24.954l-75.217,42.208v-69.933l-2.477-1.54-221.628-124.771v8.627l-2.165,1.232,216.364,121.997v69.933l-27.859,15.71-188.505,106.285,2.165,1.54v8.627l206.461-116.452,7.738-4.312v347.195c-18.573,1.233-34.668,11.092-44.573,24.954l-169.626-95.501v8.627l-2.165,1.232,166.838,93.961c-3.714,7.702-5.881,16.329-5.881,25.262,0,32.347,27.239,58.841,60.36,58.841,20.43,0,38.692-10.165,49.527-25.26l80.168,44.977v352.742c-18.571,1.54-34.668,11.09-44.573,24.954l-304.273-171.288v8.627l-2.165,1.232,301.486,170.056c-3.714,7.393-5.881,16.018-5.881,24.954s2.167,17.558,5.881,24.954l-75.217,42.514v-70.241l-2.477-1.54-221.628-124.769v8.625l-2.165,1.233,216.364,121.995v70.241l-216.364,121.995,2.165,1.233v8.625l214.199-120.455v346.889c-18.573,1.54-34.668,11.09-44.573,24.954l-169.626-95.503v8.627l-2.165,1.54,166.838,93.961c-3.714,7.702-5.881,16.02-5.881,24.954,0,32.347,27.239,58.843,60.36,58.843,20.43,0,38.692-9.859,49.527-25.262l80.168,44.977v352.742ZM3723.416,5882.822l-245.771,138.324c-10.215-13.864-26.002-23.414-44.573-24.954v-346.889l290.344,163.279v70.239ZM4292.96,5996.192c-18.573,1.54-34.67,11.09-44.573,24.954l-245.771-138.324v-70.239l290.344-163.279v346.889ZM4292.96,5637.905l-300.559,169.131v70.241l-129.385-73.013-129.695,73.013v-70.241l-2.477-1.54-297.772-167.591v-70.239l367.417-206.717c13.31,19.717,36.525,32.656,62.527,32.656s48.905-12.938,62.525-32.656l367.419,206.717v70.239ZM3930.495,5352.324c4.952-9.55,7.738-20.642,7.738-32.349,0-40.664-33.74-73.321-75.217-73.321-41.788,0-75.527,32.657-75.527,73.321,0,11.707,2.785,22.799,7.738,32.349l-372.061,209.797v70.239l-75.217-42.206c3.714-7.702,5.881-16.327,5.881-25.262s-2.167-17.252-5.881-24.954l385.371-217.19v-414.048l129.695-73.013,129.385,73.013v414.048l2.477,1.54,382.894,215.65c-3.714,7.702-5.571,16.02-5.571,24.954s1.857,17.56,5.571,25.262l-74.909,42.206v-70.239l-2.475-1.542-369.894-208.255ZM4302.864,5996.192v-352.742l80.17-44.977c10.833,15.404,28.786,25.262,49.525,25.262,33.12,0,60.05-26.496,60.05-58.843,0-8.933-1.857-17.252-5.571-24.954l240.509-135.55v402.648l-380.109,214.11c-10.213-13.864-26.31-23.414-44.573-24.954ZM5382.211,6079.989l-74.907,42.206v-70.241l-2.477-1.232-369.892-208.565c4.952-9.55,7.738-20.64,7.738-32.347,0-40.357-33.74-73.321-75.217-73.321-21.05,0-39.931,8.319-53.551,21.565-13.62,13.247-21.976,31.424-21.976,51.756,0,11.707,2.785,22.797,7.738,32.347l-372.371,209.797v70.241l-74.907-42.206c3.714-7.702,5.571-16.329,5.571-25.262s-1.857-17.252-5.571-24.954l385.371-217.19v-414.048l129.695-73.013,129.385,73.013v414.048l2.475,1.54,382.894,215.65c-3.714,7.702-5.879,16.018-5.879,24.954s2.165,17.56,5.879,25.262ZM5431.737,5643.45v352.742c-18.573,1.54-34.668,11.09-44.573,24.954l-380.417-214.11v-402.648l240.817,135.55c-3.404,7.393-5.571,16.02-5.571,24.954,0,32.347,26.929,58.843,60.36,58.843,20.428,0,38.382-9.859,49.215-25.262l80.17,44.977ZM5441.643,4669.328l290.344,163.586v70.241l-245.771,138.324c-9.905-13.864-26.002-23.414-44.573-24.954v-347.197ZM5436.689,5133.9c33.43,0,60.36-26.494,60.36-58.841,0-8.935-2.167-17.56-5.881-24.954l240.819-135.861v402.958l-380.419,214.11c-9.905-13.864-26-23.414-44.263-24.954v-352.742l79.86-44.979c10.833,15.095,29.096,25.262,49.525,25.262ZM5431.737,4663.783v352.742c-18.573,1.54-34.668,11.09-44.573,24.954l-380.417-214.11v-402.956l240.817,135.55c-3.404,7.702-5.571,16.329-5.571,25.262,0,32.347,26.929,58.841,60.36,58.841,20.428,0,38.382-10.165,49.215-25.26l80.17,44.977ZM5441.643,3689.661l290.344,163.586v69.933l-245.771,138.632c-9.905-14.172-26.002-23.722-44.573-24.954v-347.197ZM5436.689,4154.233c33.43,0,60.36-26.494,60.36-58.843,0-8.933-2.167-17.558-5.881-25.26l240.819-135.552v402.65l-380.419,214.417c-9.905-13.862-26-23.72-44.263-24.954v-352.74l79.86-44.979c10.833,15.095,29.096,25.262,49.525,25.262ZM5431.737,3684.116v352.742c-18.573,1.232-34.358,10.782-44.573,24.954l-380.417-214.419v-402.65l240.817,135.552c-3.404,7.702-5.571,16.02-5.571,24.954,0,32.656,26.929,58.841,60.36,58.841,20.428,0,38.382-9.857,49.215-25.26l80.17,45.286ZM5441.643,2709.993l290.344,163.278v70.241l-245.771,138.324c-9.905-13.864-26.002-23.414-44.573-24.954v-346.889ZM5436.689,3174.257c33.43,0,60.36-26.187,60.36-58.843,0-8.933-2.167-17.252-5.881-24.954l240.819-135.55v402.65l-380.419,214.417c-9.905-14.17-26-23.72-44.263-25.262v-352.74l79.86-44.979c10.833,15.404,29.096,25.262,49.525,25.262ZM5431.737,2704.14v352.742c-18.573,1.54-34.358,11.09-44.573,24.954l-380.417-214.11v-402.65l240.817,135.552c-3.404,7.393-5.571,16.018-5.571,24.954,0,32.347,26.929,58.841,60.36,58.841,20.428,0,38.382-9.859,49.215-25.262l80.17,44.979ZM5441.643,1730.018l290.344,163.586v70.239l-245.771,138.326c-9.905-13.864-26.002-23.414-44.573-24.954v-347.197ZM5436.689,2194.59c33.43,0,60.36-26.496,60.36-58.843,0-8.933-2.167-17.56-5.881-24.954l240.819-135.859v402.956l-380.419,214.11c-9.905-13.864-26-23.414-44.263-24.954v-352.742l79.86-44.977c10.833,15.095,29.096,25.262,49.525,25.262ZM5431.737,1724.473v352.742c-18.573,1.54-34.668,11.09-44.573,24.954l-380.417-214.11v-402.958l240.817,135.552c-3.404,7.702-5.571,16.327-5.571,25.262,0,32.347,26.929,58.841,60.36,58.841,20.428,0,38.382-10.167,49.215-25.262l80.17,44.979ZM5731.986,1398.224l-380.419,214.11c-9.905-13.864-26-23.722-44.263-24.954v-352.742l79.86-44.977c10.833,15.095,29.096,25.26,49.525,25.26,33.43,0,60.36-26.494,60.36-58.841,0-8.933-2.167-17.56-5.881-25.262l240.819-135.552v402.958ZM5731.986,913.936v69.931l-245.771,138.632c-9.905-14.17-26.002-23.72-44.573-25.26v-346.889l290.344,163.586ZM6149.238,93.233v-11.398l-138.053-77.635v-.615h-21.048l11.143,6.16v414.357l2.477,1.232,145.482,81.948v-11.09l-138.053-77.943V15.598l138.053,77.635ZM4880.146,3.585h-25.382c4.024.923,8.358,1.232,12.692,1.232s8.666-.308,12.69-1.232ZM1289.545,3.585h-25.382c4.024.923,8.358,1.232,12.692,1.232s8.666-.308,12.69-1.232ZM142.72,424.102V9.745l11.143-6.16h-21.048v.615L-5.238,81.835v11.398L132.815,15.598v402.65L-5.238,496.191v11.09l145.482-81.948,2.477-1.232Z" fill-rule="evenodd"/>
</svg>