<?xml version="1.0" encoding="utf-8"?>
<!-- Generator: Adobe Illustrator 22.0.0, SVG Export Plug-In . SVG Version: 6.00 Build 0)  -->
<svg version="1.1" id="Layer_1" xmlns="http://www.w3.org/2000/svg" xmlns:xlink="http://www.w3.org/1999/xlink" x="0px" y="0px"
	 viewBox="0 0 864 864" style="enable-background:new 0 0 864 864;" xml:space="preserve">
<path d="M223.9,473.2C223.5,473.6,223.2,473.9,223.9,473.2L223.9,473.2z M862.8,714.6c1.7,7.6,0.9,15.3,0.8,22.9
	c0,3.3-1.1,6.3-3.3,8.8c-2.1,2.4-4.2,4.8-6.3,7.2c-1.3,1.4-1.1,3,0.5,4.9c2.1,2.4,4.2,4.8,6.3,7.2c1.8,2,2.6,4.5,2.7,7
	c0.1,8.3,0,16.6-0.1,24.9c0,0.6-0.2,1.2-0.5,1.8c-0.3,0.6-0.8,1.6-1,1.5c-1.4-0.2-2.3-1.1-2.5-2.5c-0.3-2.5-0.6-5.1-0.7-7.6
	c-0.2-4.6-1.6-8.8-3.7-12.8c-5.2-9.8-13.6-15.2-24.4-16.4c-11.2-1.2-23.2,5.8-28.2,16.2c-2,4-3.5,8.2-4.2,12.7
	c-0.4,2.5-0.5,5.1-0.9,7.6c-1.1,7.8-4.2,14.7-9.3,20.7c-1.2,1.5-2.7,2.7-4,4.2c-4.2,4.6-3.2,5.3-0.9,8c2,2.5,4.4,4.7,6.4,7.1
	c3.3,4,5.5,8.6,7,13.5c0.8,2.4,1.1,5,0.7,7.6c-0.3,1.9-1.8,3.6-3.6,3.8c-2.9,0.4-5.6-0.8-6.5-2.9c-1.4-3.6-2.6-7.2-4.3-10.7
	c-3.6-7.2-9.5-12.2-17.1-14.5c-11.2-3.3-21.6-1.3-30,7.4c-3.2,3.3-5.5,7-7.1,11.3c-0.9,2.4-1.6,4.8-3.1,7c-1.2,1.7-5,3-6.9,2.1
	c-1.2-0.6-2.6-3.5-2.5-4.9c0.3-6.6,2.8-12.5,6.4-17.8c2.1-3.2,4.8-5.9,7.3-8.9c2.2-2.6,2.3-4.2,0.2-6.6c-2.1-2.4-4.4-4.7-6.4-7.2
	c-4.1-5.1-6.8-10.8-7.9-17.2c-0.8-4.4-1.2-8.9-1.9-13.3c-1.7-11.1-8.1-18.3-18.1-23c-13.1-6.1-28.6,0.1-35.4,10.8
	c-2.4,3.8-4.4,7.8-5.2,12.3c-0.8,5-1.8,10.1-2.8,15.1c-1.2,6.4-4.2,12-8.4,17c-1.7,1.9-3.5,3.7-5.2,5.7c-1.6,1.9-1.8,3.7-0.6,5.1
	c2.1,2.4,4.3,4.7,6.4,7.1c5.2,6,8,13,9.1,20.8c0.2,1.4-1.1,4.3-2.4,4.9c-1.8,0.8-3.7,0.8-5.5,0.2c-0.6-0.2-1.1-0.7-1.5-1.2
	c-2-2.6-2.8-5.7-3.9-8.7c-2.6-6.9-7.3-11.9-13.6-15.5c-12.7-7.3-31.4-4-39.8,11.4c-2.1,3.9-3.6,8.2-5.5,12.3c-0.7,1.7-4.7,2.8-6.9,2
	c-1.5-0.6-3.1-3-3-4.5c0.1-1.3,0.1-2.6,0.4-3.8c2.3-8.1,5.8-15.5,12-21.5c1.4-1.3,2.5-2.9,3.6-4.5c0.3-0.4,0.1-1.2-0.1-1.7
	c-1.2-3.1-3.9-5-6-7.4c-3.5-3.8-6.1-8.2-8-13c-1.2-3-2.1-6-2.4-9.2c-0.3-3.2-0.2-6.4-0.8-9.6c-2.1-12.4-10.5-23.9-26.8-26.2
	c-11.4-1.7-24.1,5.3-29.6,17.1c-2.5,5.2-4,10.8-4.3,16.6c-0.3,3.8-1,7.6-2.4,11.2c-2.1,5.4-5,10.3-9.1,14.5c-1.8,1.8-3.9,3.4-4.6,6
	c-0.2,0.5-0.3,1.4,0,1.7c2.4,2.9,5.1,5.8,7.5,8.7c3.7,4.5,6.3,9.6,7.9,15.2c0.7,2.5,0.9,5,0.2,7.6c-0.4,1.4-2.8,3.1-4.4,3
	c-2.7-0.2-4.9-1.1-5.9-3.9c-1.1-3-2.1-6.1-3.4-8.9c-3.4-7.3-9.3-12.1-16.7-15.1c-3-1.2-6.2-1.5-9.4-1.6c-11.3-0.4-19.6,4.8-25.6,14
	c-2.2,3.2-3.2,6.9-4.7,10.5c-0.5,1.1-1.4,2.1-2.1,3.1c-0.4,0.5-1,0.8-1.5,1.1c-1.4,1-3.7,0.8-5.3-0.4c-1.1-0.8-1.6-2-1.7-3.3
	c-0.3-3.9,0.8-7.6,2.2-11.2c2.7-6.7,7-12.1,12-17.2c1.3-1.4,1.3-3.8,0.2-5.1c-1.3-1.4-2.6-2.8-3.8-4.3c-1.7-1.9-3.4-3.9-4.8-6
	c-2.5-3.7-4.4-7.7-5.6-12.1c-1.3-5-1.9-10-2.4-15.1c-1.2-12.5-10.7-23-24.7-25.9c-3.2-0.7-6.4-0.7-9.5,0
	c-14.4,3-21.9,13.4-24.4,24.2c-1,4.4-1.6,8.8-2.4,13.2c-1.4,8.5-5,15.8-11,21.9c-1.8,1.8-3.9,3.4-4.6,6c-0.1,0.5-0.1,1.3,0.2,1.7
	c2.4,2.9,5,5.8,7.5,8.7c5,6.1,7.8,13.1,8.4,21c0.1,1.4-0.6,2.5-1.7,3.3c-2.8,2.2-6.9,1.7-8.2-1.2c-1.3-2.9-2.4-5.9-3.6-8.8
	c-2.6-6-6.8-10.7-12.5-14.1c-4.5-2.7-9.3-4-14.6-4c-12.1-0.1-20.6,5.6-26.5,15.9c-2.2,3.9-2.9,8.5-5.7,12.1c-0.4,0.5-0.9,1-1.5,1.2
	c-1.8,0.6-3.7,0.6-5.5-0.3c-1.2-0.6-2.4-3.5-2.1-5c1.2-7.7,4.3-14.7,9.3-20.8c2-2.5,4.2-4.8,6.3-7.2c1-1.1,1-2.2-0.1-3.4
	c-2.5-2.9-5.2-5.7-7.5-8.7c-4.8-6.2-8-13.1-8.6-21c-0.2-2.5-0.2-5.1-0.5-7.7c-1.6-13.8-12.2-25-26-27.1c-8.7-1.3-16.4,1.5-23.1,7.1
	c-5.6,4.8-8.6,11.1-10.4,18c-0.8,3.1-1.1,6.3-1.5,9.5c-1,9.2-4.5,17.3-10.9,24c-1.3,1.4-2.7,2.8-3.9,4.2c-1.7,1.9-2,3.8-0.8,5.1
	c2.2,2.4,4.3,4.7,6.4,7.1c3.8,4.4,6.5,9.5,8.2,15.1c0.8,2.4,1.1,5,0.6,7.6c-0.3,1.9-1.8,3.6-3.7,3.8c-3,0.3-5.6-0.9-6.4-2.9
	c-1.4-3.6-2.6-7.2-4.3-10.6c-3.6-7.2-9.6-12.2-17.2-14.4c-11.2-3.3-21.6-1.3-30,7.4c-3.2,3.3-5.5,7-7.1,11.3c-0.9,2.4-1.6,4.8-3.1,7
	c-1.1,1.6-5.1,2.9-6.9,2c-1.1-0.6-2.6-3.6-2.5-4.9c0.4-7.3,3.3-13.6,7.5-19.4c2.3-3.1,4.9-5.9,7.3-8.8c0.9-1.1,1-2.3,0-3.5
	c-2-2.4-4.1-4.8-6.2-7.3c-5.1-6-8.3-12.9-9.6-20.6c-0.6-3.8-0.8-7.6-1.4-11.4c-1.7-11.1-8.2-18.3-18.2-23
	c-13-6.1-28.6,0.1-35.4,10.9c-2.4,3.8-4.4,7.8-5.1,12.3c-0.8,5-1.8,10.1-2.8,15.1c-1.2,6.4-4.2,12-8.5,17c-1.7,1.9-3.5,3.7-5.2,5.7
	c-1.6,1.8-1.8,3.7-0.5,5.1c2.1,2.4,4.3,4.7,6.4,7.1c5.1,6,8,13,9.1,20.8c0.2,1.3-1.2,4.4-2.5,4.9c-1.8,0.8-3.7,0.8-5.5,0.1
	c-0.6-0.2-1.1-0.7-1.4-1.2c-1.9-2.6-2.7-5.7-3.9-8.7c-2.6-6.9-7.3-11.8-13.7-15.5c-12.5-7.2-31.3-4-39.7,11.5
	c-1.8,3.4-3.1,7-4.7,10.5c-0.6,1.4-1.7,1.9-2.8,1.5c-1.2-0.4-2.4-1.3-2.5-2.7c-0.3-3.8-0.4-7.7-0.3-11.5c0.1-3.3,1.4-6.3,3.4-8.8
	c1.9-2.5,4.2-4.8,6.3-7.2c1.6-1.8,1.8-3.6,0.5-5.1c-2.5-2.9-5.1-5.7-7.5-8.7c-1.1-1.5-2.1-3.4-2.4-5.2c-1.2-7.6-0.5-15.3-0.6-23
	c0-1.9-0.1-3.9,0.9-5.6c0.3-0.4,0.9-0.8,1.4-0.9c0.5-0.1,1.2,0,1.6,0.3c0.5,0.4,1,1,1.1,1.5c0.4,3.2,0.8,6.3,1,9.5
	c0.6,11.5,9.2,25.4,27.1,28c1.9,0.3,3.9,0.3,5.7,0c7.1-1.1,13.5-3.9,18.6-9.2c3.2-3.3,5.7-6.9,6.7-11.5c1.1-5,2.2-10,3.1-15
	c1.5-9.1,5.3-17,11.6-23.8c1.3-1.4,2.4-2.9,3.6-4.4c1-1.3,0.8-3.4-0.7-5.2c-2.1-2.4-4.4-4.7-6.3-7.2c-4.5-5.6-7.4-11.9-8.2-19.1
	c-0.5-4.4-1-8.9-1.9-13.3c-1.6-7.9-6-14.1-12.8-18.4c-6.1-3.9-12.8-5.7-20.1-4.6c-15.1,2.2-22.9,13.4-25.7,25.2
	c-0.9,3.7-1.1,7.6-1.8,11.4c-0.3,1.5-1.6,2-2.9,1.5c-0.5-0.2-1.1-0.8-1.1-1.3c-1.2-8.3-0.8-16.6-0.3-24.8c0.2-3.2,1.7-6.1,3.7-8.7
	c2-2.5,4.1-4.9,6.2-7.3c1-1.2,0.7-4-0.5-5.2c-1.8-1.9-3.6-3.6-5.3-5.6c-2.5-3-4.2-6.5-4.3-10.4c-0.1-8.3,0-16.6,0.1-24.9
	c0-1.5,1-2.4,2.3-2.4c1.2,0,2.2,0.9,2.5,2.3c0.4,1.9,0.6,3.8,0.8,5.7c0.2,1.9,0.1,3.9,0.3,5.7c1.6,11.8,8.2,19.9,18.9,24.6
	c3.6,1.6,7.4,1.7,11.3,1.7c9.6,0.1,17.3-3.9,23.3-11.3c2-2.5,3.6-5.3,4.3-8.5c0.8-3.7,1.9-7.5,2.4-11.3c1.5-11.8,6-22.1,14.5-30.6
	c0.9-0.8,1.4-2.1,1.9-3.2c0.2-0.5,0-1.3-0.2-1.9c-0.9-2.5-2.9-4.1-4.6-6c-3.1-3.3-5.6-6.9-7.6-11c-1.4-2.9-2.5-5.9-3-9.1
	c-0.6-4.4-0.9-8.9-1.7-13.3c-1.9-10.9-8-18.6-18.1-23.2c-1.2-0.5-2.3-1.1-3.6-1.3c-13.2-2.8-25.3,0.8-33.1,13.5
	c-2.7,4.4-4.5,9.1-5,14.4c-0.3,3.2-1,6.3-1.6,9.4c-0.1,0.5-0.8,1.1-1.3,1.3c-1.6,0.5-2.6-0.1-2.7-1.8c-0.2-4.5-0.3-8.9-0.4-13.4
	c0.1,0,0.2,0,0.2,0c0-3.2,0-6.4,0-9.6c0-4.7,1.9-8.7,4.9-12.2c2.1-2.4,4.1-4.8,6.1-7.3c0.3-0.3,0.2-1.2-0.1-1.7
	c-1-1.6-2-3.4-3.4-4.6c-6.3-5.5-8.4-12.5-7.8-20.7c0.4-5.7,0.2-11.5,0.4-17.3c0-1.5,1.1-2.4,2.4-2.4c1.2,0,2.1,0.8,2.4,2.3
	c0.3,1.2,0.5,2.5,0.6,3.8c0.2,1.9,0.2,3.8,0.3,5.7c0.8,11.9,9.8,25.4,27.4,27.7c1.9,0.2,3.9,0.2,5.7,0c7.1-1.1,13.4-4,18.5-9.3
	c3.1-3.3,5.6-7,6.5-11.5c1-5,2.2-10,3-15.1c1.4-8.4,4.9-15.8,10.4-22.3c1.7-1.9,3.2-3.9,4.8-5.9c0.9-1.2,0.9-2.4,0-3.5
	c-2.5-2.9-5-5.8-7.4-8.8c-4.4-5.7-7.3-12-8.1-19.2c-0.5-4.4-1-8.9-1.9-13.3c-1.7-7.9-6.2-14-13-18.3c-6.1-3.8-12.9-5.6-20.2-4.4
	c-15.7,2.4-23.1,14.7-25.5,25.4c-0.8,3.7-1.2,7.5-1.9,11.3c-0.1,0.5-0.7,1.3-1.2,1.4c-1.5,0.4-2.6-0.3-2.8-1.7
	c-1-7.6-0.5-15.3-0.3-23c0.1-4,1.7-7.5,4.1-10.5c2-2.5,4.2-4.8,6-7.4c0.6-0.8,0.7-2.7,0.2-3.5c-1.9-2.6-4.3-4.8-6.3-7.2
	c-2.5-3-4.1-6.5-4.1-10.5c0-8.3,0-16.6,0.1-24.9c0-1.6,1.1-2.4,2.6-2.1c1.2,0.2,2,1.3,2.3,2.6c0.3,1.9,0.6,3.8,0.7,5.7
	c0.2,1.9,0,3.9,0.3,5.7c1.8,11.7,8.4,19.8,19.2,24.4c3.6,1.5,7.5,1.6,11.3,1.6c8.8,0,16.1-3.4,21.9-10.1c2.5-2.9,4.6-6.2,5.4-10
	c0.8-3.7,1.9-7.5,2.4-11.3c1.5-11.8,6.1-22.1,14.7-30.5c0.8-0.8,1.2-2.1,1.6-3.3c0.2-0.5,0.1-1.4-0.2-1.9c-0.6-1.1-1.3-2.2-2.2-3.1
	c-1.7-1.9-3.5-3.7-5.1-5.7c-4.5-5.6-7.4-11.9-8.3-19.1c-0.5-4.4-0.9-8.9-1.9-13.3c-2.4-10.9-9.2-18.3-19.6-21.8
	c-12.4-4.1-25.6-0.6-33.7,11.5c-2.9,4.3-4.9,9-5.6,14.1c-0.4,3.2-0.8,6.3-1.3,9.5c-0.2,1.4-1,2.4-2.2,2.7c-1.4,0.3-2.5-0.5-2.5-2.1
	c0-8.3,0-16.6,0.1-24.9c0-2.6,1.2-5.1,2.7-7.1c2.3-3.1,4.9-5.9,7.4-8.8c1.2-1.4,1.1-3.3-0.3-5.1c-0.4-0.5-0.7-1.1-1.2-1.5
	c-7-5.7-9.7-13.1-9-22.1c0.4-5.7,0.2-11.5,0.5-17.2c0.1-1.6,1.2-2.4,2.6-2.1c1.2,0.2,1.9,1.2,2.2,2.6c0.3,1.2,0.5,2.5,0.6,3.8
	c0.2,1.9,0.1,3.9,0.3,5.7c1.6,11.7,7.6,20,18.4,25c13.6,6.3,28.7-0.2,35.8-10.2c1.5-2.1,2.9-4.3,3.4-6.8c1.1-5,2.4-10,3.2-15
	c1.5-9.8,5.4-18.3,12.2-25.5c0.9-0.9,1.7-1.9,2.5-2.9c1.5-1.9,1.8-3.8,0.6-5.1c-2.1-2.4-4.3-4.8-6.3-7.2c-4.9-6.1-8.2-12.9-9.1-20.8
	c-0.5-4.4-1-8.9-2-13.3c-1.7-7.9-6.3-14-13.2-18.1c-6.2-3.7-12.9-5.4-20.2-4.2c-15.6,2.6-23,15.1-25.2,25.7c-0.8,3.7-0.3,7.7-2,11.2
	c-0.2,0.5-0.8,1.1-1.3,1.2c-1.6,0.4-2.6-0.4-2.7-2c-0.1-7.7-0.2-15.3-0.1-23c0.1-4,1.8-7.4,4.3-10.5c2-2.5,4.1-4.9,6.1-7.4
	c0.3-0.4,0.4-1.3,0.3-1.9c-0.4-1.1-0.7-2.6-1.6-3.2C1.8,98-0.5,89.8,0.2,80.3C0.7,74.5,0.5,68.8,0.7,63c0.1-1.6,1.2-2.3,2.7-1.9
	c0.5,0.2,1.1,0.7,1.3,1.2c1.9,4.2,1.2,8.8,1.7,13.2c0.7,5.9,3.2,11.1,7.1,15.5c5.8,6.6,13,10.1,21.9,10.3c8.8,0.2,16.3-2.6,22.5-8.9
	c3.2-3.3,5.6-7,6.6-11.5c1.1-5,2.2-10,3-15c1.6-9.1,5.4-17,11.6-23.8c1.3-1.4,2.7-2.8,3.6-4.5c0.5-1,0.6-2.7,0-3.6
	c-1.8-2.6-4.1-4.9-6.2-7.3c-3.4-3.9-5.9-8.4-7.6-13.2c-1.1-3-1.7-6.2-1-9.4C68.1,3,69.1,1.6,70,1.2c2.8-1.3,7.1,0.4,8.1,3
	c1.2,3,2,6.1,3.4,8.9c2.5,5.3,6.5,9.5,11.6,12.4c5.7,3.2,11.9,4.7,18.4,3.8c12.5-1.8,21.1-8.5,25.1-20.7c0.4-1.2,0.7-2.5,1-3.7
	c0.8-2.9,3.1-3.8,5.7-4.2c2.5-0.4,4.9,2,5,4.4c0.3,7.5-2.8,13.7-7,19.5c-2.2,3.1-5,5.8-7.5,8.7c-0.9,1.1-0.6,3.9,0.5,5.3
	c2.1,2.4,4.4,4.7,6.3,7.2c4.5,5.6,7.4,11.9,8.3,19.1c0.6,4.4,1.1,8.9,1.9,13.3c2,10.2,8.5,17,17.7,21.2c1.7,0.8,3.7,1.2,5.6,1.4
	c2.5,0.3,5.1,0.4,7.7,0.4c12.7,0,24.5-10,27.2-23c0.1-0.6,0.2-1.3,0.3-1.9c0.2-1.3,0.4-2.5,0.5-3.8c1.4-13.2,6.4-24.7,16.1-33.9
	c1.3-1.2,1.3-4,0.2-5.2c-0.8-1-1.6-1.9-2.5-2.9c-0.9-1-1.7-1.9-2.6-2.8c-5.3-5.8-8.4-12.7-10.2-20.3c-1-4.3,2.1-7.5,6.5-6.6
	c1.2,0.2,2.7,0.8,3.2,1.7c1.5,2.8,2.6,5.8,3.7,8.8c2,4.9,5.1,8.9,9.3,12c7,5.3,14.8,7.2,23.5,5.7c6.6-1.1,12.1-4,16.6-8.9
	c2.2-2.3,4.1-4.9,5.2-8c1.1-3,2.2-6,3.4-9c0.5-1.3,3.1-2.7,4.8-2.5c3.9,0.3,6.2,2.8,5.6,6c-1.6,8.4-4.8,15.9-10.7,22.1
	c-1.7,1.8-3.9,3.4-4.7,5.9c-0.2,0.6-0.4,1.4-0.2,1.9c1.2,3.1,3.9,5,6,7.3c6.5,7.5,10.2,16.2,10.7,26.1c0.1,1.9,0.1,3.9,0.4,5.7
	c2,11.7,8.5,20.2,19.6,24c10.1,3.5,20.3,2.3,29-4.8c4.6-3.7,8-8.3,9.3-14.2c1.1-5,2.2-10,3-15c1.5-8.4,4.9-15.8,10.4-22.4
	c1.6-2,3.5-3.8,4.8-5.9c0.5-0.9,0.5-2.7-0.1-3.5c-1.8-2.6-4.1-4.9-6.2-7.3c-3.4-3.9-5.9-8.4-7.6-13.3c-1.1-3-1.7-6.2-1-9.4
	c0.2-1.1,1.3-2.4,2.3-2.8c2.9-1.3,7,0.5,8,3.1c0.5,1.2,0.8,2.4,1.2,3.7c0.8,3.1,2.4,5.9,4.2,8.6c6.9,10.5,20,14.5,30.1,12.5
	c10.9-2.2,18.5-8.4,22.5-18.7c0.7-1.8,1.1-3.7,1.7-5.5c0.9-2.8,3.2-3.8,5.8-4.1c2.6-0.3,4.9,2.1,4.9,4.6c0.2,7.4-2.9,13.7-7,19.5
	c-1.9,2.6-4.2,4.8-6.3,7.2c-2,2.2-2.2,4.9-0.4,6.8c1.7,1.9,3.5,3.7,5.1,5.7c5.1,6,8.4,12.8,9.4,20.6c0.7,5.1,1.1,10.2,2.4,15.1
	c2.7,10,9.5,16.5,19.1,19.9c3.6,1.3,7.5,1.3,11.4,1.2c6.7-0.2,12.4-2.6,17.5-6.9c5-4.3,8.1-9.8,9.6-16.2c0.1-0.6,0.2-1.3,0.3-1.9
	c0.2-1.3,0.4-2.5,0.5-3.8c1.4-13.2,6.5-24.6,16.2-33.9c1.2-1.2,1.2-3.9,0.1-5.2c-1.3-1.4-2.6-2.8-3.8-4.3c-1.6-2-3.4-3.9-4.8-6
	c-3.7-5.3-6.1-11.2-6.7-17.7C499,3.9,499.5,3,500.6,2c3.3-2.8,8.4-1.1,9.5,2.3c0.8,2.4,1.7,4.8,2.8,7.1
	c5.3,11.6,14.5,17.8,27.1,18.1c12,0.3,22.6-6.2,27.4-17.5c1-2.3,1.7-4.8,2.7-7.2c1.6-4.1,5.1-5.3,9.2-3.2c1.2,0.7,1.8,1.8,1.8,3.2
	c-0.3,7.2-2.9,13.7-7.1,19.5c-2.2,3.1-5,5.8-7.5,8.7c-1.2,1.4-1.2,4-0.1,5.3c2.1,2.4,4.4,4.7,6.4,7.1c5.4,6.6,8.5,14.2,9.3,22.7
	c0.2,2.5,0.1,5.1,0.6,7.7c2,11.7,8.5,20.2,19.7,23.9c10.1,3.4,20.3,2.2,29-4.9c4.5-3.7,8-8.3,9.2-14.2c0.8-3.8,1.9-7.5,2.4-11.3
	c1.5-11.9,6.5-22,15-30.4c0.4-0.4,1-1,1-1.6c0.1-1.2,0.3-2.8-0.3-3.6c-1.9-2.6-4.1-4.9-6.2-7.3c-3-3.4-5.1-7.4-6.9-11.5
	c-1.3-2.9-1.8-6.1-1.9-9.3c0-1.3,1.3-4.2,2.7-4.6c1.9-0.6,3.8-0.2,5.6,0.5c0.6,0.2,1.1,0.7,1.4,1.3c0.8,1.7,1.6,3.4,2.1,5.2
	c0.9,3.1,2.5,5.9,4.2,8.6c6.9,10.4,19.9,14.5,30.2,12.4c10.9-2.3,18.4-8.4,22.4-18.8c0.7-1.8,1-3.7,1.7-5.5c1-2.8,3.3-3.6,5.9-4
	c2.6-0.3,4.8,2.6,4.9,4.7c0.1,7.4-2.9,13.7-7.2,19.4c-2.3,3.1-5.1,5.7-7.4,8.8c-0.6,0.8-0.7,2.6-0.2,3.5c0.9,1.7,2.3,3,3.5,4.5
	c1.6,2,3.5,3.8,4.9,5.9c3.3,4.8,5.8,9.9,6.7,15.8c0.8,5.7,1.3,11.5,2.8,17c2.7,10,9.5,16.5,19.2,19.8c6.2,2.1,12.8,2.1,18.9-0.1
	c9.6-3.4,16.1-10.1,18.9-20.1c0.7-2.4,1-5,1.3-7.6c0.5-3.8,1.3-7.5,2.4-11.2c2-6.9,5.2-13,10-18.4c1.7-1.9,3.3-3.9,4.8-5.9
	c0.3-0.4-0.1-1.3-0.3-1.9c-1-3.2-3.8-5-5.9-7.4c-4.8-5.4-7.7-11.7-9.7-18.5c-0.3-1.2-0.3-2.5-0.4-3.8c-0.2-1.7,1-3.4,3.1-4.2
	c2.2-0.8,6.3,0.1,7,1.6c0.3,0.6,0.5,1.2,0.8,1.8c0.9,2.4,1.8,4.8,2.8,7.1c5.3,11.6,14.6,17.8,27.2,17.9c12.6,0.1,22.1-5.8,27.3-17.5
	c1.3-2.9,1.9-6.1,4.1-8.5c0.3-0.3,1.3-0.3,1.9-0.2c1,0.3,1.8,1.3,1.9,2.8c0.2,3.2,0.3,6.4,0.4,9.6c0,4.6-1.2,8.8-4.6,12.2
	c-0.9,0.9-1.7,1.9-2.6,2.8c-3.8,4.4-3.9,5.7-0.5,9.6c1.7,1.9,3.5,3.7,5,5.8c1.1,1.5,2,3.4,2.2,5.2c0.9,8.9,1,17.9-0.2,26.8
	c-0.1,0.6-0.6,1.4-1,1.5c-1.1,0.3-2.3-0.4-2.6-1.7c-0.5-3.1-0.6-6.4-1.1-9.5c-0.7-5.1-2.6-9.9-5.7-14.1c-5.6-7.7-13.1-12-22.8-12.3
	c-1.3,0-2.6,0-3.8,0.1c-11.3,0.6-19.1,6.6-24.1,16.4c-1.7,3.4-2.7,7.2-3.7,10.9c-0.6,2.5-0.7,5.1-1,7.6c-1,9.2-4.9,17.1-11.2,23.9
	c-1.7,1.8-3.3,3.8-4.8,5.8c-0.3,0.4,0,1.3,0.3,1.8c0.6,1.1,1.2,2.3,2,3.2c2.1,2.4,4.4,4.7,6.3,7.2c4.3,5.7,7.1,12.1,7.7,19.4
	c0.3,3.2,0.3,6.4,0.9,9.5c2.4,12.4,9.5,21,21.6,24.6c16.2,4.9,31.7-5.4,35.8-18c1.4-4.3,2.3-8.6,2.9-13.1c0.5-3.6,1.8-5.3,2.9-4.4
	c1.5,1.4,1.8,3.2,1.8,5.1c0.1,5.8,0.1,11.5,0.1,17.3c0,0.6,0,1.3-0.1,1.9c-0.2,3.3-1.1,6.3-3.3,8.8c-2.1,2.4-4.2,4.8-6.4,7.2
	c-1.3,1.4-1.2,3.1,0.4,5c2.1,2.4,4.2,4.8,6.3,7.2c1.8,2,2.7,4.5,2.7,7c0.1,8.3,0,16.6-0.1,24.9c0,0.6-0.2,1.3-0.5,1.8
	c-0.3,0.6-0.7,1.5-1,1.5c-1.4-0.1-2.3-1-2.5-2.3c-0.3-2.5-0.7-5.1-0.7-7.6c-0.2-4.6-1.6-8.8-3.7-12.8c-5.1-9.9-13.5-15.1-24.4-16.5
	c-10.8-1.3-23.7,5.4-29.1,17.9c-1.5,3.5-2.5,7.3-3.4,11c-0.6,2.5-0.6,5.1-1,7.6c-1.1,7.8-4.1,14.7-9.2,20.7
	c-2.1,2.4-4.2,4.8-6.3,7.2c-1,1.2-0.9,2.4,0,3.5c2.1,2.4,4.4,4.7,6.4,7.1c5.4,6.6,9,13.9,9.6,22.6c0.2,2.6,0.2,5.1,0.6,7.6
	c1.4,8.5,5.2,15.7,12.3,20.9c6.5,4.8,13.8,6.4,21.8,5.4c8-1,14.6-4.7,19.4-11.2c1.5-2,2.7-4.3,3.7-6.6c2.1-4.7,2.6-9.9,3.6-14.9
	c0.3-1.4,1.1-2.3,2.6-2.3c0.3,0,0.9,0.8,1,1.3c0.4,1.2,0.8,2.5,0.8,3.7c0.1,5.1,0.1,10.2,0.2,15.4c0.1,5.4-1.4,10.1-5.3,13.9
	c-1.4,1.3-2.6,2.8-3.8,4.3c-1.3,1.5-1.5,3.9-0.4,5.2c2.4,3,5,5.8,7.3,8.9c0.7,1,1.2,2.3,1.5,3.5c1.4,8.3,0.7,16.6,0.5,24.9
	c0,1.2-0.6,2.4-1.1,3.6c-0.2,0.4-0.8,0.8-1.2,0.8c-0.6-0.1-1.5-0.5-1.6-0.9c-0.5-3.1-0.8-6.3-1.2-9.5c-0.9-7.2-3.8-13.5-8.9-18.7
	c-5.2-5.2-11.4-8.2-18.8-8.5c-1.3-0.1-2.6-0.1-3.8-0.1c-12.2,0.4-20.4,6.7-25.4,17.4c-1.6,3.5-2.9,7.1-3.4,11
	c-0.3,1.9-0.5,3.8-0.7,5.7c-1,9.9-5,18.4-12,25.5c-1.3,1.4-2.8,2.7-3.7,4.3c-0.5,0.9-0.3,2.6,0.3,3.5c1.4,2.1,3.2,4,4.9,5.8
	c3.1,3.3,5.5,7,7.4,11.2c1.6,3.5,2.8,7.1,3.2,11c0.3,3.2,0.3,6.4,0.8,9.6c2.2,12.4,8.9,21.1,20.9,25.2c6.2,2.2,12.6,2.1,18.8-0.2
	c4.2-1.6,8.1-3.8,11.3-7.1c2.7-2.8,4.8-5.9,6.3-9.5c2.2-5.4,2.5-11.2,3.9-16.8c0.1-0.5,0.8-0.9,1.3-1.1c1.1-0.4,2.1,0.2,2.3,1.9
	c1,7.6,0.7,15.3,0.3,23c-0.2,3.3-1.5,6.2-3.8,8.6c-1.7,1.9-3.5,3.7-5.2,5.7c-1.7,1.9-1.9,3.4-0.6,4.9c0.4,0.5,0.7,1.1,1.1,1.5
	c9.1,9.5,8.6,10,8.7,22.1c0,5.1-0.1,10.2-0.3,15.4c-0.1,2.5-1.4,4.5-2.5,4c-1.2-0.5-1.8-1.6-1.9-3c-0.2-2.6-0.3-5.1-0.5-7.7
	c-0.3-4.6-1.9-8.8-4.1-12.7c-5-9-12.9-14-23-15.5c-11.4-1.7-24.1,5.3-29.7,17c-2.5,5.2-4,10.8-4.4,16.6c-0.3,3.8-1,7.6-2.4,11.2
	c-2.1,5.4-5,10.4-9.1,14.5c-1.8,1.8-3.9,3.4-4.6,6c-0.2,0.5-0.3,1.4-0.1,1.7c2,2.5,4.2,4.8,6.2,7.2c2.9,3.4,5.4,7.1,7.1,11.3
	c1.3,3,2.4,6,2.7,9.2c0.4,3.8,0.4,7.7,1.1,11.5c0.9,5.1,2.7,9.9,6,13.9c8,9.9,18.3,13.3,30.8,10.8c5.2-1,9.6-3.5,13.4-7.1
	c3.3-3.1,6.1-6.6,7.3-11.1c1.3-4.9,2.4-9.9,3.6-14.9c0.1-0.4,0.9-0.9,1.4-1c1.1-0.4,2.1,0.3,2.3,1.9c1,7,0.6,14,0.4,21.1
	c-0.2,4-1.7,7.4-4.5,10.3c-1.8,1.9-3.5,3.7-4.9,5.8c-0.6,0.9-0.4,2.4-0.3,3.6c0,0.6,0.6,1.1,1,1.6c9.2,9.8,9,9.9,8.9,24
	c0,5.1,0.4,10.2-0.8,15.3c-0.1,0.6-0.6,1.5-1,1.5c-1.2,0.2-2.3-0.6-2.5-1.9c-0.5-3.2-0.6-6.4-1-9.5c-0.8-5.1-2.7-9.9-5.8-14.1
	c-5.7-7.6-13.2-11.9-22.8-12.2c-0.6,0-1.3,0-1.9,0c-13.7-0.2-22.7,8.7-26.8,18.3c-2.3,5.4-3.3,11-3.8,16.8
	c-0.9,9.3-4.8,17.1-11.2,23.9c-1.3,1.4-2.6,2.8-3.9,4.2c-1,1-1.1,3.6,0.3,5.3c1.3,1.4,2.6,2.8,3.8,4.3c1.3,1.4,2.6,2.9,3.7,4.4
	c4.2,5.8,7.1,12.2,7.6,19.4c0.2,2.6,0.2,5.1,0.6,7.7c1.8,12.4,8.3,21.3,20.2,25.9c6.2,2.4,12.6,2.3,18.8,0.3c3.7-1.1,7.1-3,10.1-5.5
	c4-3.3,6.9-7.4,8.7-12.4c1.7-4.9,2.3-10,3.3-15c0.3-1.4,1.1-2.3,2.6-2.4C862.1,713.1,862.7,714,862.8,714.6z M755.9,545.8
	c-7.4,0-13.7,2.6-19.1,7.6c-4.3,4-7.3,8.8-9,14.5c-1.6,5.6-2.4,11.2-3.3,16.9c-1,6.5-3.8,12.2-7.9,17.2c-2,2.5-4.2,4.8-6.3,7.2
	c-1,1.2-0.9,4,0.3,5.3c1.3,1.4,2.6,2.8,3.9,4.3c6.3,6.8,10.1,14.6,11.1,23.9c0.5,4.4,1.2,8.9,2.1,13.3c0.6,3.2,2.1,6,3.9,8.7
	c6,8.4,14,12.9,25.9,12.8c2.4,0,6.3-0.2,9.8-1.8c9.4-4.1,15.6-11,17.9-21c0.6-2.5,0.8-5.1,1.1-7.6c1.7-11.7,5.7-22.3,14.5-30.6
	c0.5-0.4,0.9-0.9,1.3-1.4c1.2-1.3,1.5-4.1,0.6-5.2c-2.1-2.4-4.3-4.7-6.3-7.2c-5.9-7.1-9.1-15.3-9.9-24.5c-0.2-1.9-0.2-3.8-0.3-5.7
	c-0.3-3.9-1.5-7.5-3.5-10.9C776.6,551.2,767.9,545.8,755.9,545.8z M277.1,468c0.9,2.5,2.9,4.1,4.7,6c3.1,3.2,5.9,6.7,7.8,10.8
	c2.4,5.2,4.4,10.6,4.6,16.5c0.1,3.8,0.2,7.7,1.5,11.3c3.9,11.1,12.5,19.5,27.3,21.3c6.9,0.4,13.4-1.9,19.2-6.2
	c5.3-3.9,9.1-8.9,10.5-15.5c1.1-5.6,2.2-11.3,3.4-16.9c1.3-6.3,3.9-12.1,7.9-17.2c1.9-2.5,4.1-4.9,6.2-7.3c1.5-1.8,1.7-3.8,0.5-5.1
	c-1.3-1.4-2.4-3-3.7-4.3c-7.4-7.7-11.5-16.7-12-27.4c-0.2-3.8-0.9-7.6-2-11.3c-3.7-12.4-15.2-21.1-28.8-20.9
	c-10.2,0.1-18.4,4.7-24,13.4c-2.8,4.3-4.8,9-5.5,14.1c-0.4,3.2-0.6,6.4-1.2,9.5c-1.7,8.2-4.9,15.8-10.9,22c-1.8,1.8-3.4,3.8-5,5.7
	C277,466.8,276.9,467.6,277.1,468z M279.9,442.6c1.7-4.9,2.4-9.9,3.1-14.9c1.4-9.7,5.3-18.3,11.9-25.6c1.3-1.4,2.5-2.9,3.7-4.4
	c0.9-1.2,0.6-4-0.6-5.2c-1.8-1.8-3.7-3.5-5.3-5.5c-5.7-7.1-9.6-15-10-24.3c-0.1-2.5-0.2-5.1-0.6-7.6c-2.5-13.4-13.4-25.3-29.2-25.2
	c-14-0.6-23.8,8-28,19c-1.1,3-2,6-2.7,9.1c-0.6,2.5-0.6,5.1-0.9,7.6c-1.1,8.4-4.5,15.8-10.2,22.2c-1.3,1.4-2.7,2.7-4,4.1
	c-2.1,2.3-2.2,4.6-0.3,6.7c1.3,1.4,2.6,2.8,3.9,4.2c6.7,7.2,10.7,15.7,11.2,25.7c0.1,1.9,0.2,3.8,0.4,5.7c0.4,3.9,1.7,7.5,3.4,10.9
	c4.3,8.5,11.3,13.8,20.4,15.8c10,2.2,18.9-0.5,26.5-7.3C276,450.6,278.4,447,279.9,442.6z M389.6,460.9c10.8,2.5,20.3-0.5,28.1-8.3
	c3.7-3.7,6.4-8,7.3-13.3c1-6.3,2.2-12.6,3.8-18.8c1.5-5.6,4.1-10.8,7.7-15.3c2-2.5,4.1-4.9,6.2-7.3c0.9-1.1,0.6-3.9-0.6-5.2
	c-1.3-1.4-2.6-2.8-4-4.2c-6.5-6.7-9.8-14.9-11.3-23.9c-0.6-3.8-0.8-7.6-1.4-11.4c-0.5-3.2-1.7-6.1-3.5-8.9
	c-5.9-9.4-14.4-14.3-27.8-14.3c-9-0.2-17.3,5-23.1,14.4c-2,3.3-3.5,6.8-4.1,10.7c-0.9,5-1.8,10.1-2.8,15.1c-1.2,6.4-4.2,12-8.5,16.9
	c-2.1,2.4-4.2,4.8-6.3,7.2c-0.3,0.3,0,1.2,0.1,1.8c0.6,2.7,2.7,4.3,4.4,6.1c7.4,7.7,11.2,17,12.3,27.5c0.3,2.5,0.3,5.1,0.7,7.6
	c0.3,1.9,0.7,3.8,1.5,5.5C372.6,452.3,379.6,458.6,389.6,460.9z M421.6,468.5c1.4,3.7,4.8,5.9,7.1,8.9c4.4,5.7,7.5,11.8,8.5,19
	c0.6,4.4,1.1,8.9,1.9,13.2c0.5,2.5,1.2,5,2.3,7.3c6.1,12.9,23.2,20.8,37.1,15c10.3-4.3,16.6-11.5,18.9-22.3c0.7-3.1,0.7-6.3,1.4-9.5
	c2-9.5,5.1-18.4,12.9-26.7c0.3-0.3,1.6-1.7,2.8-3.2c1.3-1.5,1.3-3.6,0-5c-1.7-1.9-3.5-3.7-5.2-5.6c-6.6-7.4-10.1-16.1-10.9-25.9
	c-0.2-2.5-0.3-5.1-0.6-7.6c-0.3-1.9-0.8-3.8-1.6-5.5c-4.2-9.2-10.9-15.3-20.9-18c-10-2.7-23.7,1.3-30.4,11.1
	c-2.2,3.2-4.2,6.4-5,10.3c-1.1,5-2.2,10-3,15c-1.1,7.8-4.4,14.6-9.5,20.5c-2.1,2.4-4.8,4.3-6,7.3C421.2,467.3,421.4,468,421.6,468.5
	z M548,460.7c10.4-2.9,17.7-9.7,20.7-20.5c1.2-4.3,1.6-8.7,2.4-13.1c1.5-9,5-17.1,11.1-23.9c1.3-1.4,2.6-2.8,3.8-4.3
	c1.8-2.1,1.7-4.4-0.4-6.8c-1.3-1.4-2.7-2.7-4-4.1c-6.5-7.4-10.5-15.9-10.9-25.8c-0.1-1.9-0.1-3.8-0.4-5.7c-2-14-13.4-26.9-30.5-26.4
	c-6.2-0.1-12.2,1.7-17.4,5.8c-3.5,2.8-6.4,6.3-8.3,10.3c-1.9,4-3.5,8.2-4.1,12.7c-0.3,2.5-0.5,5.1-0.9,7.6
	c-1.1,7.8-4.4,14.6-9.3,20.6c-1.6,2-3.6,3.6-5.3,5.5c-1.2,1.3-1.5,4-0.5,5.2c1.2,1.5,2.4,2.9,3.7,4.3c7.3,7.6,11.7,16.6,12.1,27.3
	c0.1,1.9,0.2,3.8,0.4,5.7c0.5,3.8,1.8,7.5,3.6,10.8C520.5,457.8,534,464.5,548,460.7z M565.3,468.5c1.7,3.5,5,5.7,7.4,8.7
	c5.2,6.7,8.5,14.2,9.3,22.7c0.3,2.5,0.2,5.1,0.5,7.6c0.2,1.9,0.6,3.8,1.3,5.6c4.2,11.5,13.3,19.3,28.8,20.9c5.7-0.3,12.3-2.2,18-6.7
	c5.1-4.1,8.9-9.1,10.1-15.7c0.9-5,2-10,3-15c1.4-7.7,4.7-14.5,9.6-20.5c2-2.4,4.7-4.3,5.7-7.5c0.2-0.5,0.3-1.4,0-1.7
	c-2.7-3.5-5.7-6.8-8.3-10.4c-3.8-5.2-6.6-10.9-7.4-17.4c-0.5-4.4-0.9-8.9-1.8-13.2c-1.5-7.8-5.7-14.1-12.2-18.7
	c-3.2-2.3-6.7-3.6-10.5-4.5c-10.1-2.3-19-0.1-26.5,7.1c-5.2,5-8.4,11.2-9.7,18.2c-0.6,3.1-0.7,6.3-1.3,9.5c-1.6,9-5,17.1-11.5,23.7
	c-1.8,1.8-3.4,3.8-4.9,5.8C564.8,467.2,565.1,468.1,565.3,468.5z M683.4,461.6c6,0.6,12-1.4,17.4-5.1c6.6-4.5,11-10.5,12.4-18.6
	c0.8-5,1.9-10,2.9-15.1c1.6-7.7,5.2-14.4,10.4-20.2c1.7-1.9,3.8-3.5,4.5-6.1c0.2-0.6,0.5-1.5,0.2-1.9c-1.5-2-3.1-4-4.9-5.9
	c-7-7.2-10.5-15.9-11.8-25.7c-0.4-3.2-0.6-6.4-1.1-9.5c-0.3-1.9-0.7-3.8-1.5-5.5c-5-10.7-13.1-17.1-25.1-18c-1.9-0.1-3.8-0.1-5.8,0
	c-6.7,0.3-12.3,3.2-17,7.8c-4.7,4.6-7.8,10.1-9,16.6c-1,5-1.9,10.1-2.8,15.1c-1.3,7.1-4.7,13.2-9.5,18.5c-1.7,1.9-3.6,3.7-5,5.8
	c-0.5,0.8-0.4,2.7,0.2,3.5c2.3,3.1,5,5.8,7.4,8.8c3.2,4,5.4,8.6,6.9,13.6c1.5,5,2,10,2.5,15.1c0.2,2.5,0.7,5.1,1.6,7.5
	C660,453,671.5,461.2,683.4,461.6z M707.7,306.3c2.4-3,4.3-6.4,5-10.2c1.3-6.2,2.4-12.5,3.8-18.7c1.4-6.3,4.4-11.9,8.5-16.9
	c2-2.5,4.1-4.9,6.1-7.3c0.3-0.4,0.2-1.1,0.3-1.7c-0.2-0.6-0.3-1.3-0.7-1.8c-2.5-2.9-5.1-5.7-7.5-8.7c-3.6-4.6-6-9.7-7.4-15.4
	c-1.2-5-1.4-10.1-2.2-15.1c-0.4-2.5-1-5-2.1-7.3c-5.1-10.6-13.8-16.7-25.4-17.6c-10.2-0.8-18.6,3.5-24.9,11.6
	c-3.1,4.1-5.4,8.6-6.2,13.8c-0.7,4.4-1.6,8.8-2.3,13.2c-1.3,7.8-4.8,14.5-10.1,20.2c-1.3,1.4-2.6,2.8-3.9,4.2
	c-1.7,1.9-1.9,3.7-0.8,5c1.7,1.9,3.4,3.8,5.1,5.7c6.4,6.7,9.5,15,11,23.9c0.5,3.1,0.6,6.3,0.9,9.5c0.4,3.9,1.9,7.3,4,10.6
	C669.5,320.9,694.9,322.4,707.7,306.3z M604,258.9c-7,1.9-12.5,6.4-16.3,12.6c-2.7,4.4-4.7,9.1-5.3,14.3c-0.3,2.5-0.5,5.1-0.9,7.6
	c-1.6,9-5,17.1-11.5,23.8c-1.3,1.4-2.6,2.8-3.8,4.3c-1,1.1-0.7,4,0.5,5.3c2.5,2.9,5.3,5.6,7.6,8.7c4.3,5.7,6.9,12.2,7.7,19.4
	c0.4,3.2,0.3,6.4,0.8,9.5c0.4,2.5,1.1,5,2.2,7.3c5.4,11.4,14.4,17.6,23.3,17.7c11.3,0,16.3-1.4,21.8-5.5c5.3-3.9,9.2-8.9,10.5-15.5
	c1.2-5.6,2.2-11.3,3.4-16.9c1.3-6.4,4-12.1,7.9-17.3c1.9-2.6,4.1-4.9,6.2-7.3c1.1-1.3,1.3-4.1,0.4-5.3c-1.2-1.5-2.4-3-3.7-4.4
	c-6.9-7.2-11-15.6-11.7-25.6c-0.3-3.8-0.7-7.6-1.7-11.4C637.4,264.9,621.6,254,604,258.9z M586.9,249.9c-1.7-1.9-3.3-3.9-5.1-5.7
	c-6.7-7.3-10.6-15.8-11.1-25.8c-0.1-1.9-0.2-3.8-0.4-5.7c-0.5-4.5-2.1-8.7-4.5-12.5c-5.9-9.3-14.6-14-25.6-14.8
	c-11.6,0.8-20.5,6.2-26,16.6c-2.1,3.9-3.5,8.2-4.2,12.7c-0.4,2.5-0.5,5.1-0.9,7.6c-1.1,7.8-4.1,14.7-9.2,20.7
	c-2.1,2.4-4.2,4.8-6.2,7.2c-1,1.2-0.9,2.4,0,3.5c2.9,3.4,6,6.6,8.6,10.2c3.9,5.2,6.4,11,7.1,17.5c0.3,3.2,0.4,6.4,0.8,9.5
	c0.9,5.8,3,11,6.7,15.6c8.8,11,23.5,14.1,36.3,8.2c7.2-3.3,12.3-8.9,14.9-16.7c1.6-4.9,2.1-10,3-15c1.5-9,4.9-17.1,11.1-23.9
	c1.3-1.4,2.6-2.8,3.9-4.2C587.9,252.9,588.2,251.3,586.9,249.9z M467,257.8c-5.3,0.1-10.1,1.6-14.4,4.6c-6,4.1-10.2,9.6-12.4,16.6
	c-1.7,5.5-2.7,11.2-3.4,16.9c-0.9,7.2-4.1,13.4-8.7,18.9c-2,2.5-4.3,4.7-6.2,7.3c-0.5,0.8-0.3,2.7,0.3,3.5c1.4,2.1,3.3,3.9,5,5.8
	c5.6,6.4,9.3,13.7,10.4,22.3c0.5,4.4,1.2,8.9,2,13.3c0.7,3.8,2.4,7.3,4.7,10.4c6.2,8.2,14.4,12.4,26.6,12c1.4-0.2,4.7-0.3,7.6-1.4
	c9.5-3.7,16-10.4,18.6-20.4c0.8-3.1,1-6.3,1.5-9.5c1.8-10.9,5.6-21,13.6-29c1.3-1.3,2.3-3,3.2-4.6c0.2-0.4,0-1.4-0.3-1.8
	c-1.5-2-3.1-4-4.8-5.9c-7.2-7.8-11.2-17-11.9-27.6c-0.2-2.5-0.3-5.1-0.7-7.6c-0.3-1.9-0.9-3.7-1.8-5.4
	C490,264,480.7,257.5,467,257.8z M443.1,250.8c-1.5-3.7-4.9-5.8-7.2-8.8c-4-5.1-6.8-10.7-8.2-17.1c-1-4.4-1.3-8.8-1.9-13.2
	c-0.4-2.5-0.8-5.1-1.7-7.4c-5-12.3-17.4-19.1-30.3-18.8c-5.4,0.5-11.9,3-17.2,8c-4.8,4.5-7.9,9.9-9.3,16.4c-0.7,3.1-1.1,6.3-1.6,9.4
	c-1.6,11.1-5.7,20.8-14.2,28.4c-0.9,0.8-1.4,2.1-2,3.2c-0.2,0.5-0.5,1.4-0.2,1.7c2,2.5,4,4.9,6.2,7.3c5.3,5.8,8.4,12.7,9.9,20.3
	c0.8,3.7,0.8,7.6,1.4,11.4c0.4,2.5,0.8,5.1,1.7,7.4c7.4,17.1,25.8,23,41.5,15.4c7.8-3.8,13-10.1,14.9-18.8
	c1.2-5.6,2.2-11.3,3.3-16.9c1.5-7,4.7-13.2,9.2-18.7c2-2.4,4-4.9,6-7.4C443.7,252.2,443.4,251.4,443.1,250.8z M315.7,259
	c-7,2-12.4,6.5-16.2,12.7c-2.6,4.4-4.7,9.1-5.2,14.3c-0.3,3.2-0.6,6.4-1.3,9.5c-1.7,7.6-4.6,14.6-10,20.4c-1.7,1.9-3.6,3.7-5,5.8
	c-0.6,0.9-0.8,2.8-0.3,3.5c1.8,2.6,4.1,4.8,6.2,7.3c5.9,7.1,9.4,15.1,10.1,24.4c0.2,2.5,0.1,5.1,0.6,7.6c0.5,2.5,1.2,5,2.3,7.3
	c5.5,11.4,14.5,17.5,28.5,17.6c1.4-0.2,4-0.2,6.4-0.8c9.8-2.8,17.1-8.7,20.2-18.6c1.5-4.9,2.3-10,3.2-15c1.5-9.1,5-17.1,11.1-24.1
	c1.7-1.9,3.3-3.9,4.8-6c0.3-0.4,0-1.3-0.2-1.9c-0.9-3.3-3.7-5.1-5.7-7.5c-5.6-6.5-9.2-13.8-10.1-22.4c-0.4-4.4-0.8-8.9-1.9-13.3
	C349.1,264.5,333.1,254,315.7,259z M299.3,250.8c-1.3-3-4-4.9-6.1-7.3c-6.1-6.9-9.8-14.9-10.4-24.1c-0.2-2.5-0.1-5.1-0.6-7.6
	c-2.3-12.6-11-23.7-26.9-26c-2.5-0.4-5.2-0.3-7.6,0.2c-10.7,2.3-18.4,8.4-22.7,18.6c-2,4.7-3.2,9.7-3.6,14.8
	c-0.8,10.6-5.1,19.7-12.8,27c-1.4,1.3-2.6,2.8-3.3,4.6c-0.2,0.5-0.3,1.3-0.1,1.7c1.4,2.9,4.1,4.8,6.2,7.2c5.9,7,9.8,14.9,10.3,24.2
	c0.1,2.5,0.2,5.1,0.6,7.6c1.4,7.8,5,14.4,11.2,19.5c4.6,3.8,10,5.5,17.5,6.6c4.7-0.1,11-0.8,16.6-4.3c6.8-4.2,11.4-10.2,13.2-18
	c0.9-3.7,1.4-7.5,2-11.3c1.5-9.7,5.2-18.3,11.9-25.6c1.7-1.9,3.3-3.9,4.8-5.9C299.9,252.2,299.6,251.3,299.3,250.8z M178.7,257.8
	c-4.6,0.1-8.8,1.3-12.7,3.7c-6.9,4.1-11.6,10-13.9,17.7c-1.3,4.3-2.3,8.7-2.8,13.1c-1.1,10-4.9,18.4-12,25.5
	c-0.9,0.9-1.7,1.9-2.6,2.8c-1.3,1.5-1.6,4-0.5,5.2c1.7,1.9,3.4,3.8,5.1,5.7c5.6,6.4,9.2,13.7,10.2,22.3c0.5,4.4,1.2,8.9,2,13.3
	c0.7,3.8,2.5,7.3,4.8,10.3c6.3,8.2,14.6,12.2,26.8,11.7c1.3-0.2,4.6-0.3,7.5-1.4c9.5-3.7,15.9-10.5,18.4-20.5
	c0.8-3.1,0.9-6.3,1.5-9.5c1.9-10.9,5.6-21,13.8-28.9c0.9-0.9,1.7-1.9,2.5-2.9c1-1.2,0.7-3.6-0.8-5.2c-1.7-1.9-3.5-3.7-5.2-5.7
	c-6-7-9.4-15.2-10.3-24.3c-0.3-3.2-0.4-6.4-0.9-9.5c-0.3-1.9-1-3.7-1.8-5.4C201.8,263.8,192.4,257.4,178.7,257.8z M151.9,423.9
	c-1.1,5-2.2,10-3,15c-1.1,7.8-4.3,14.6-9.4,20.5c-1.7,1.9-3.5,3.7-5.2,5.6c-1.1,1.3-1.1,3.8,0,5.2c2.5,2.9,5.1,5.7,7.5,8.7
	c4,5.1,6.5,10.9,7.4,17.4c0.6,4.4,1.1,8.9,1.9,13.2c0.5,2.5,1.2,5,2.3,7.3c6,12.9,23.2,20.9,37.1,15c10.3-4.3,16.6-11.5,18.9-22.2
	c0.7-3.1,0.7-6.3,1.4-9.5c1.9-9.5,5.1-18.4,13.1-27c0,0,0,0,0,0c0,0,0.1-0.1,0.1-0.1c0.9-0.9,1.7-1.9,2.5-2.9c1.3-1.6,1.4-3.6,0.1-5
	c-0.9-0.9-1.7-1.9-2.6-2.8c-8.7-8.4-13.2-18.6-13.7-30.6c-0.1-1.9-0.2-3.8-0.5-5.7c-0.3-1.9-0.8-3.8-1.6-5.5
	c-4.2-9.2-10.9-15.3-20.9-18c-10-2.7-23.8,1.3-30.4,11.1C154.7,416.8,152.7,420.1,151.9,423.9z M152.2,567c-1.3,4.9-2.4,10-3.1,15
	c-1.1,8.5-4.6,15.9-10.3,22.2c-1.3,1.4-2.6,2.8-3.9,4.2c-1.8,2-1.7,4.5,0.3,6.8c1.3,1.4,2.7,2.7,4,4.2c5.6,6.4,9.3,13.7,10.3,22.3
	c0.5,4.4,1.2,8.9,2,13.3c0.7,3.8,2.4,7.3,4.8,10.4c6.2,8.2,14.5,12.3,26.7,11.9c1.3-0.2,4.7-0.3,7.6-1.4c9.5-3.7,16-10.4,18.6-20.4
	c0.8-3.1,1-6.3,1.5-9.5c1.8-10.9,5.6-21,13.7-29c0.9-0.9,1.7-1.9,2.5-2.9c1.1-1.3,0.9-3.6-0.6-5.2c-1.3-1.4-2.6-2.8-3.9-4.2
	c-7.2-7.8-11.1-17-11.8-27.6c-0.2-2.5-0.3-5.1-0.7-7.6c-0.3-1.9-1-3.7-1.8-5.4c-5.9-12-15.2-18.5-29-18.1c-6,0.2-11.3,2.1-16,5.7
	C157.7,555.5,153.9,560.7,152.2,567z M247.3,605.1c8.7,1.4,16.5-0.5,23.4-5.8c5.2-4,8.7-9.3,10.2-15.7c0.8-3.7,1.5-7.5,2-11.3
	c1.6-10.4,5.6-19.5,13.1-27.1c1.3-1.3,2.5-2.9,3.6-4.5c0.2-0.4,0-1.2-0.2-1.7c-0.9-2.5-2.9-4.1-4.7-5.9c-7.4-7.7-11.6-16.7-12-27.4
	c0-1.3-0.1-2.5-0.2-3.8c-0.2-4.6-1.8-8.8-4-12.7c-5.4-9.7-14.1-14.4-23.4-15.6c-12.2-0.6-23.8,5.8-29.1,17c-1.9,4-3.4,8.3-4,12.7
	c-0.3,2.5-0.5,5.1-0.9,7.6c-1.2,7.7-4.4,14.6-9.6,20.5c-2.1,2.4-4.8,4.2-6,7.3c-0.2,0.6-0.6,1.4-0.3,1.7c2,2.5,4.1,4.9,6.2,7.3
	c6,7,9.9,14.8,10.5,24.1c0.2,2.5,0.2,5.1,0.6,7.6C224.5,592.2,233.7,602.9,247.3,605.1z M277.9,613.4c2.3,3.1,5,5.8,7.4,8.8
	c2.4,3,4.3,6.3,5.7,9.9c1.6,4.2,2.9,8.5,3.1,13c0.2,3.8,0.1,7.7,1.4,11.4c4.2,12.1,14.8,20.8,27.1,20.8c1.3,0,2.6,0,3.8,0
	c8.1-0.3,14.8-3.8,20.1-9.7c2.6-2.9,4.7-6.1,5.6-9.9c1.1-5,2.3-10,3.1-15c1.6-9.7,5.7-18.2,12.5-25.4c1.3-1.4,2.3-3,3.3-4.6
	c0.3-0.4,0-1.3-0.2-1.9c-1.1-3.2-3.8-5-5.8-7.4c-5.6-6.5-9.1-13.8-9.9-22.4c-0.4-4.5-0.8-8.9-1.9-13.3
	c-3.1-12.3-15.9-22.3-30.6-21.8c-0.8,0.1-4,0.2-7,1.1c-6.9,2.2-12.4,6.5-16.1,12.9c-2.6,4.4-4.6,9.1-5.1,14.3
	c-0.3,3.2-0.6,6.4-1.3,9.5c-1.8,7.6-4.6,14.6-10.1,20.4c-1.7,1.8-3.5,3.7-4.9,5.8C277.4,610.8,277.3,612.7,277.9,613.4z
	 M383.9,602.9c7.9,3.7,16.2,3.6,24.1,0.2c8.7-3.7,14.6-10.1,16.8-19.5c0.9-3.7,1.3-7.5,2-11.3c1.9-10.9,6.1-20.7,14.3-28.5
	c0.9-0.9,1.6-2,2.2-3.1c0.2-0.4,0.1-1.2-0.1-1.7c-1.1-3.2-3.8-5-5.9-7.4c-5.7-6.4-9-13.9-10.3-22.2c-0.6-3.8-0.8-7.6-1.4-11.4
	c-0.3-1.9-0.7-3.8-1.4-5.5c-4.9-12-16.8-19.1-29.9-19c-6.4,0.6-13.4,3.3-18.9,9.2c-4.5,4.8-7.3,10.4-8.4,16.8
	c-0.8,4.4-1.6,8.8-2.4,13.2c-1.3,7.8-4.9,14.4-10.3,20.1c-1.7,1.8-3.8,3.4-4.7,5.9c-0.2,0.6-0.6,1.4-0.3,1.7c1.5,2,3.1,4,4.9,5.8
	c7.4,7.7,11,17,12.2,27.4c0.3,2.5,0.3,5.1,0.7,7.6C368.8,591.4,374.7,598.6,383.9,602.9z M422.2,613.9c2.5,2.9,5.1,5.7,7.4,8.7
	c4,5.1,6.6,10.9,7.5,17.4c0.6,4.4,1.2,8.9,1.9,13.3c0.9,5.9,3.6,10.9,7.8,15.1c5.1,5.2,11.2,8.4,18.6,8.7c4.5,0.2,9,0.2,13.3-1.5
	c9.5-3.8,15.9-10.6,18.4-20.6c0.8-3.1,0.9-6.3,1.5-9.5c1.9-10.9,5.7-21,13.9-28.9c0.5-0.4,0.9-0.9,1.3-1.4c2.1-2.5,2.2-4.6,0.3-6.7
	c-2.1-2.4-4.4-4.6-6.4-7.1c-2.8-3.5-4.9-7.4-6.5-11.7c-1.8-4.9-2.7-9.8-2.8-15c-0.1-3.2-0.5-6.4-1.7-9.4
	c-4.8-12.3-16.3-20-28.4-19.6c-6.4-0.4-12.3,1.8-17.5,5.9c-5.1,4.1-9,9.2-10.6,15.6c-1.3,4.9-2.4,10-3.1,15
	c-1.2,8.5-4.7,15.9-10.5,22.2c-1.3,1.4-2.6,2.8-3.9,4.2C421.3,610.2,421.1,612.6,422.2,613.9z M533.1,604.6c6.5,1.7,12.8,1,18.8-1.4
	c7.4-3,12.8-8.2,15.7-15.8c1.9-4.8,2.6-9.8,3.3-14.9c1.4-10.4,5.4-19.6,12.9-27.1c0.9-0.9,1.7-1.9,2.6-2.8c1.4-1.6,1.5-3.5,0.2-5
	c-2.1-2.4-4.4-4.7-6.4-7.1c-5.4-6.6-8.8-14-9.5-22.6c-0.1-1.9-0.2-3.8-0.3-5.7c-0.2-4.6-1.7-8.8-3.9-12.7c-5.8-10.4-15-15.2-27-16.2
	c-11.2,1.1-20.1,6.5-25.5,17c-2.1,4-3.5,8.2-4.1,12.7c-0.4,2.5-0.5,5.1-0.9,7.6c-1.2,7.7-4.2,14.7-9.4,20.6
	c-1.7,1.9-3.5,3.7-5.2,5.6c-1.6,1.8-1.8,3.8-0.6,5.1c2.2,2.3,4.4,4.6,6.4,7.1c5.4,6.6,8.8,14,9.4,22.6c0.2,3.2,0.2,6.4,1,9.5
	C513.7,593.1,520.7,601.3,533.1,604.6z M566.1,613.9c1.7,1.9,3.4,3.8,5.1,5.7c6.6,7.4,10.3,16.1,11,26c0.2,2.6,0.2,5.1,0.6,7.6
	c0.3,1.9,1,3.7,1.7,5.5c3.8,10,14.5,19.4,28.7,18.6c8.7,0,16-3.5,21.8-10.1c2.5-2.9,4.6-6.2,5.4-10c1.2-5.6,2.3-11.3,3.4-16.9
	c1.4-7,4.3-13.4,8.6-19c1.6-2,3.4-3.8,5.1-5.8c2.4-2.8,2.2-4.9-0.8-8.3c-1.7-1.9-3.5-3.7-5.1-5.7c-4.5-5.6-7.4-11.9-8.3-19.1
	c-0.5-4.4-1-8.9-1.8-13.3c-1-5.1-3.3-9.7-6.9-13.5c-6-6.3-13.2-9.9-22.1-9.8c-12.1,0.1-20.6,5.8-26.2,16.2
	c-1.8,3.4-3.3,6.9-3.8,10.8c-0.2,1.9-0.4,3.8-0.7,5.7c-1.3,10.4-5,19.8-12.5,27.4c-0.9,0.9-1.8,1.8-2.6,2.8
	C565.3,610.2,565,612.7,566.1,613.9z M674.4,603.9c6.2,2.1,12.5,2.3,18.8,0.3c10.5-3.4,17.3-10.4,19.8-21.2c0.8-3.7,1.3-7.5,2-11.3
	c1.9-10.2,5.8-19.5,13.4-26.9c0.9-0.9,1.6-2,2.4-3c0.4-0.5,0.6-1.1,0.9-1.7c-0.2-0.6-0.3-1.3-0.7-1.8c-1.6-2-3.2-4-4.9-5.8
	c-6.3-6.7-9.9-14.8-11.2-23.8c-0.6-3.8-0.8-7.6-1.4-11.4c-0.5-3.9-2.2-7.3-4.4-10.5c-5-7.2-12-11.3-20.4-13
	c-3.1-0.6-6.4-0.6-9.5,0.1c-13.1,3.1-20.9,11.6-24,24.4c-1.3,5.6-2.2,11.3-3.2,16.9c-1,5.1-3.4,9.6-6.5,13.7c-2.3,3-5,5.8-7.5,8.6
	c-1.1,1.3-0.9,3.4,0.7,5.1c1.3,1.4,2.6,2.8,4,4.1c6.4,6.7,9.8,14.8,11.3,23.8c0.5,3.1,0.6,6.3,1,9.5c0.2,1.9,0.5,3.8,1.2,5.6
	C659.4,594.5,665.4,600.8,674.4,603.9z M756.9,401.7c-8.6-0.4-16.2,2.9-22.1,9.5c-3.4,3.9-6,8.2-7.1,13.3c-1.1,5-2.1,10-2.9,15
	c-1.1,7.2-4.1,13.4-8.5,18.9c-2,2.5-4.2,4.8-6.3,7.2c-1,1.1-1.1,2.3-0.1,3.5c2,2.4,4.1,4.8,6.1,7.3c5,6,8.4,12.7,9.4,20.6
	c0.5,4.4,1.1,8.8,1.9,13.2c0.6,3.1,1.7,6.1,3.4,8.9c5.5,8.7,13.5,13.3,23.5,14.6c2.5,0.3,5.1,0,7.6-0.5c2.5-0.5,4.9-1.4,7.2-2.5
	c8.7-4,14-10.8,16.3-20c0.8-3.1,0.9-6.3,1.4-9.4c1.9-10.9,5.7-20.9,13.9-28.7c0.9-0.9,1.6-1.9,2.4-3c0.4-0.5,0.5-1.2,0.8-1.7
	c-0.2-0.6-0.2-1.2-0.5-1.6c-2.1-2.4-4.2-4.8-6.3-7.1c-3.9-4.3-6.5-9.4-8.3-14.9c-1.5-4.3-2.1-8.6-2.2-13.1c-0.1-3.2-0.4-6.4-1.6-9.4
	C779,407.7,768.7,402.2,756.9,401.7z M780.1,269.6c-8.9-11.2-20.7-14-32.5-10.5c-9.8,2.9-16.1,10.1-19.4,19.7
	c-1.8,5.5-2.8,11.2-3.5,16.9c-0.9,7.2-4,13.4-8.6,18.9c-2,2.5-4.3,4.7-6.2,7.3c-0.6,0.8-0.5,2.7,0.1,3.5c1.8,2.6,4.1,4.9,6.2,7.3
	c5,6,8.2,12.9,9.2,20.7c0.5,4.4,1.2,8.9,2,13.3c0.7,3.8,2.3,7.3,4.7,10.4c6.2,8.3,14.4,12.4,26,12.2c2.6-0.2,6.4-0.4,10-2
	c9.3-4.3,15.3-11.4,17.4-21.5c0.6-3.1,0.7-6.4,1.3-9.5c2-10.2,5.6-19.6,13.2-27.2c1.3-1.3,2.4-2.9,3.4-4.5c0.3-0.4,0-1.3-0.3-1.9
	c-1.2-3.1-3.9-4.9-6-7.3c-6.4-7.6-10-16.2-10.7-26.1c-0.1-1.9-0.2-3.8-0.4-5.7C785.5,278.3,783.4,273.6,780.1,269.6z M733,125.5
	c-2.2,3.2-4.1,6.4-5.1,10.2c-1.5,5.5-2.5,11.2-3.3,16.9c-0.9,6.5-3.8,12.1-7.8,17.2c-2,2.5-4.3,4.7-6.4,7.1
	c-1.2,1.4-1.3,3.9-0.2,5.2c1.7,1.9,3.4,3.8,5.1,5.7c5.6,6.4,9.2,13.7,10.1,22.2c0.4,3.8,0.9,7.6,1.5,11.4c1.3,8,5.5,14.2,12.1,18.8
	c5.3,3.7,11.3,5.8,15.4,5.8c6.4,0,10-1.3,13.6-2.8c9.5-4.1,15.2-11.3,17.3-21.3c0.7-3.1,0.7-6.3,1.4-9.5c2-10.1,5.6-19.6,13.1-27.1
	c1.3-1.3,2.4-3,3.5-4.5c0.3-0.4,0.6-1.4,0.3-1.7c-2-2.5-4-4.9-6.2-7.3c-6.6-7.4-10.2-16.1-11-25.9c-0.2-2.5-0.2-5.1-0.6-7.6
	c-0.3-1.9-0.8-3.8-1.6-5.5c-4.1-9.2-10.8-15.4-20.8-18.2C753.4,111.8,739.7,115.9,733,125.5z M637.6,108.4c1,3.2,3.8,5.1,5.8,7.4
	c5.2,5.9,8.5,12.8,10,20.4c0.7,3.8,0.8,7.6,1.4,11.4c0.4,2.5,0.8,5.1,1.8,7.4c5.2,11.5,14.2,17.8,26.8,18.6
	c6.7,0.4,12.7-1.7,18.1-5.5c5.9-4.2,10.1-9.8,11.5-17.1c1.1-5.6,2.1-11.3,3.4-16.9c1.5-7,4.8-13.2,9.4-18.6c1.7-1.9,3.5-3.8,4.9-5.9
	c0.6-0.9,0.7-2.6,0.2-3.5c-0.9-1.7-2.2-3.1-3.6-4.4c-7.7-7.5-11.5-16.8-12.8-27.2c-0.4-3.2-0.6-6.4-1.1-9.5
	c-0.3-1.9-0.8-3.8-1.7-5.5c-5.3-10.5-13.5-16.9-25.6-17.4c-1.3-0.1-2.6,0-3.8,0c-9,0.2-15.9,4.4-21.2,11.3
	c-3.1,4.1-5.3,8.7-6.2,13.9c-0.9,5-1.8,10.1-2.8,15.1c-1.3,6.4-4.3,12-8.6,16.9c-2.1,2.4-4.2,4.8-6.2,7.3
	C637,106.9,637.4,107.8,637.6,108.4z M587.9,127.1c-2.8,4.3-4.8,9-5.5,14.1c-0.4,3.2-0.6,6.4-1.2,9.5c-1.7,8.2-4.9,15.8-10.9,22
	c-1.8,1.8-3.4,3.8-5,5.7c-0.3,0.4-0.4,1.2-0.3,1.6c0.9,2.5,2.9,4.1,4.7,6c3.1,3.2,5.9,6.7,7.8,10.8c2.4,5.2,4.4,10.6,4.6,16.5
	c0.1,3.8,0.2,7.7,1.5,11.3c3.9,11.1,12.5,19.5,27.3,21.3c6.9,0.4,13.4-1.9,19.2-6.2c5.3-3.9,9.1-8.9,10.5-15.5
	c1.1-5.6,2.2-11.3,3.4-16.9c1.3-6.3,3.9-12.1,7.9-17.2c1.9-2.5,4.1-4.9,6.2-7.3c1.5-1.8,1.7-3.8,0.5-5.1c-1.3-1.4-2.4-3-3.7-4.3
	c-7.4-7.7-11.5-16.7-12-27.4c-0.2-3.8-0.9-7.6-2-11.3c-3.7-12.4-15.2-21.1-28.8-20.9C601.8,113.8,593.6,118.5,587.9,127.1z
	 M494.6,110.7c1.3,1.4,2.6,2.8,3.9,4.2c6.8,7.2,10.8,15.7,11.3,25.6c0.1,2.5,0.2,5.1,0.7,7.6c3.1,17.2,17.6,25.7,29.5,25.5
	c7.7,0.4,14.5-2.6,20.5-7.9c3.4-3,5.8-6.7,7.3-11c1.7-4.8,2.4-9.9,3.2-14.9c1.4-9.7,5.2-18.3,11.9-25.6c1.3-1.4,2.5-2.9,3.7-4.4
	c1-1.2,0.7-4-0.4-5.2c-1.8-1.8-3.7-3.6-5.3-5.5c-5.8-7.1-9.6-15-10.1-24.2c-0.1-2.5-0.2-5.1-0.6-7.6C567.7,53.9,556.8,41.9,541,42
	c-1.9,0-3.8,0.1-5.7,0.3c-5.9,0.6-10.9,3.4-15.1,7.5c-3.2,3.1-5.6,6.9-7.3,11c-2.3,5.4-3,11-3.6,16.7c-1,8.5-4.5,15.8-10.1,22.2
	c-1.7,1.9-3.5,3.7-5.2,5.6C492.9,106.6,493.2,109.1,494.6,110.7z M440,135.5c-1.6,5.5-2.6,11.2-3.4,16.9c-0.9,6.5-3.7,12.2-7.7,17.3
	c-2,2.5-4.3,4.7-6.4,7.1c-1.4,1.6-1.6,3.8-0.5,5.1c2.5,2.9,5.1,5.7,7.4,8.7c4,5.1,6.7,10.8,7.6,17.3c0.6,4.4,1.2,8.8,1.9,13.2
	c1.3,8,5.4,14.2,11.9,18.9c5.3,3.8,11.3,5.8,17.6,5.9c1.6-0.2,2.9-0.1,4.1-0.4c2.5-0.6,4.9-1.3,7.3-2.3c9.6-3.9,15.3-11.2,17.5-21.2
	c0.7-3.1,0.8-6.3,1.4-9.5c2-10.2,5.5-19.6,12.9-27.2c0.9-0.9,1.7-1.8,2.6-2.8c1.7-2,1.9-3.6,0.6-5c-1.7-1.9-3.4-3.8-5.2-5.6
	c-6.7-7.3-10.2-16-11.2-25.8c-0.2-2.5-0.1-5.1-0.6-7.6c-0.5-2.5-1.2-5-2.3-7.2c-4.4-9.2-11.6-15-21.7-17c-8.7-1.8-16.5,0.3-23.4,5.5
	C445.3,123.8,441.9,129.2,440,135.5z M350.6,110.5c1.3,1.4,2.5,2.9,3.9,4.3c7.3,7.8,10.9,17.2,12,27.6c0.3,2.5,0.4,5.1,0.8,7.6
	c0.2,1.3,0.4,2.5,0.9,3.7c4.1,10.3,11.4,17,22.2,19.3c10,2.1,19-0.5,26.6-7.6c4.3-4.1,7.2-8.9,8.3-14.8c1.1-5.7,2.2-11.3,3.4-16.9
	c1.4-6.4,4.3-12,8.4-17c2-2.5,4.2-4.8,6.1-7.4c0.8-1.1,0.5-2.5-0.2-3.6c-0.7-1-1.6-2-2.4-3c-1.3-1.4-2.6-2.8-3.9-4.2
	c-4.8-5.4-7.7-11.8-8.9-18.8c-0.9-5-1.4-10.1-2.2-15.2c-0.5-3.2-1.9-6.1-3.7-8.8c-6.1-9.3-14.7-13.9-27.3-13.7
	c-9.1-0.1-16.9,4.7-22.6,13.3c-2.1,3.2-3.8,6.7-4.5,10.5c-0.3,1.9-0.6,3.8-1,5.7c-3,16.4-3.4,20.4-16.2,33.8
	C348.9,106.5,349.2,108.9,350.6,110.5z M299.3,128.1c-2.3,3.8-4.1,7.9-4.7,12.4c-0.3,2.5-0.6,5.1-0.9,7.6
	c-1.4,9.7-5.1,18.4-12.1,25.4c-1.8,1.8-3.4,3.8-5,5.5c1.3,3.4,3.8,5.5,5.9,7.8c7.2,7.8,11.1,16.9,11.7,27.5c0.2,3.2,0.3,6.4,1.2,9.4
	c4.2,14,16.6,22.1,30.1,22c0.6,0,1.3-0.1,1.9-0.2c8.5-1.5,15.6-5.2,20.9-12.2c1.5-2.1,3-4.2,3.5-6.7c1.4-6.2,2.7-12.5,3.9-18.7
	c1.4-7,4.3-13.3,8.7-18.9c1.9-2.5,4.1-4.9,6.1-7.3c1.1-1.3,0.7-3.4-0.7-5.1c-0.4-0.5-0.8-1-1.3-1.4c-8.6-8.4-13.6-18.3-14-30.5
	c-0.1-3.1-0.9-6.3-1.7-9.4c-3.3-12.5-14.4-21.4-28.3-21.7C313.7,113.6,305.1,118.6,299.3,128.1z M206.6,110.7
	c1.3,1.4,2.6,2.8,3.9,4.2c6.8,7.2,10.8,15.7,11.3,25.6c0.1,2.5,0.2,5.1,0.7,7.6c3.1,17.2,17.6,25.7,29.5,25.5
	c7.7,0.4,14.5-2.6,20.5-7.9c3.4-3,5.8-6.7,7.3-11c1.7-4.8,2.4-9.9,3.2-14.9c1.4-9.7,5.2-18.3,11.9-25.6c1.3-1.4,2.5-2.9,3.7-4.4
	c1-1.2,0.7-4-0.4-5.2c-1.8-1.8-3.7-3.6-5.3-5.5c-5.8-7.1-9.6-15-10.1-24.2c-0.1-2.5-0.2-5.1-0.6-7.6C279.7,53.9,268.8,41.9,253,42
	c-1.9,0-3.8,0.1-5.7,0.3c-5.9,0.6-10.9,3.4-15.1,7.5c-3.2,3.1-5.6,6.9-7.3,11c-2.3,5.4-3,11-3.6,16.7c-1,8.5-4.5,15.8-10.1,22.2
	c-1.7,1.9-3.5,3.7-5.2,5.6C204.9,106.6,205.2,109.1,206.6,110.7z M152.1,135.2c-1.4,4.9-2.4,9.9-3.1,15c-1.2,8.5-4.6,15.8-10.3,22.2
	c-1.3,1.4-2.7,2.8-3.9,4.2c-1.9,2.2-1.8,4.2,0.3,6.6c1.7,1.9,3.5,3.7,5.1,5.7c5,6,8.2,12.8,9.2,20.7c0.5,4.4,1.2,8.8,1.9,13.2
	c0.9,5.2,3.5,9.5,7,13.3c5.5,5.9,12.3,8.9,20.2,9.7c2.5,0.2,5.1-0.2,7.6-0.6c1.9-0.3,3.7-1.1,5.4-1.8c9.6-3.9,15.3-11.1,17.7-21
	c0.6-2.5,0.7-5,1.1-7.6c1.8-11.6,5.7-22.2,14.4-30.5c1.3-1.3,2.2-3.1,3.1-4.5c-1.3-3.3-3.9-5.2-6.1-7.5
	c-6.7-7.3-10.4-15.9-11.4-25.7c-0.2-2.5-0.1-5.1-0.6-7.6c-0.5-2.5-1.2-5-2.2-7.3c-4.3-9.2-11.4-15.1-21.5-17.2
	c-8.7-1.8-16.5,0.1-23.4,5.3C157.4,123.6,153.9,128.9,152.1,135.2z M104.9,173.6c10.7,0.1,16.5-2.2,21.7-6.3
	c5.8-4.5,9.5-10.2,10.7-17.6c0.9-5.7,2.2-11.3,3.4-16.9c1.3-5.7,4-10.8,7.6-15.4c2-2.5,4.1-4.9,6.2-7.3c1.1-1.3,0.9-3.9-0.3-5.2
	c-1.3-1.4-2.6-2.8-3.9-4.2c-6.5-6.7-9.9-14.8-11.5-23.8c-0.6-3.8-0.8-7.6-1.4-11.4c-0.3-1.9-0.8-3.8-1.6-5.5
	c-5.1-10.6-13.2-17.1-25.2-17.9c-1.9-0.1-3.8,0-5.7,0.1c-6.7,0.4-12.3,3.3-17,8c-4.6,4.7-7.7,10.2-8.9,16.7
	c-0.9,5-1.9,10.1-2.8,15.1c-1.2,6.5-4.1,12.1-8.4,17c-1.7,1.9-3.5,3.7-5.2,5.6c-1.3,1.3-1.6,4.1-0.6,5.2c1.7,1.9,3.3,3.9,5.1,5.7
	c6.3,6.8,9.6,15,11,24.1c0.5,3.2,0.4,6.4,1,9.5c0.4,2.5,1.1,5.1,2.2,7.3C86.9,167.6,96.2,173.4,104.9,173.6z M95.9,314.9
	c7.9,3.7,16.2,3.6,24.1,0.2c8.7-3.7,14.6-10.1,16.8-19.5c0.9-3.7,1.3-7.5,2-11.3c1.9-10.9,6.1-20.7,14.3-28.5c0.9-0.9,1.6-2,2.2-3.1
	c0.2-0.4,0.1-1.2-0.1-1.7c-1.1-3.2-3.8-5-5.9-7.4c-5.7-6.4-9-13.9-10.3-22.2c-0.6-3.8-0.8-7.6-1.4-11.4c-0.3-1.9-0.7-3.8-1.4-5.5
	c-4.9-12-16.8-19.1-29.9-19c-6.4,0.6-13.4,3.3-18.9,9.2c-4.5,4.8-7.3,10.4-8.4,16.8c-0.8,4.4-1.6,8.8-2.4,13.2
	c-1.3,7.8-4.9,14.4-10.3,20.1c-1.7,1.8-3.8,3.4-4.7,5.9c-0.2,0.6-0.6,1.4-0.3,1.7c1.5,2,3.1,4,4.9,5.8c7.4,7.7,11,17,12.2,27.4
	c0.3,2.5,0.3,5.1,0.7,7.6C80.8,303.4,86.7,310.6,95.9,314.9z M101.9,461c10.8,2.4,20.3-0.7,28-8.6c3.7-3.7,6.1-8.1,7.1-13.3
	c1.1-5.7,2.1-11.3,3.4-16.9c1.5-7,4.8-13.2,9.5-18.6c1.7-1.9,3.5-3.8,4.9-5.9c0.6-0.9,0.6-2.6,0.1-3.5c-0.9-1.6-2.3-3.1-3.6-4.4
	c-7.7-7.5-11.4-16.8-12.7-27.3c-0.4-3.2-0.6-6.4-1.1-9.5c-0.5-3.2-1.8-6.1-3.6-8.8c-6-9.3-14.5-14.1-27.9-14
	c-8.3-0.2-16.2,4.5-22,13c-2.5,3.7-4.3,7.8-5,12.3c-0.7,4.4-1.6,8.8-2.4,13.2c-1.3,7.8-4.9,14.5-10.3,20.2c-1.7,1.8-3.4,3.8-4.9,5.8
	c-0.3,0.3,0.1,1.2,0.3,1.8c0.8,2.6,2.8,4.2,4.6,6c7.4,7.7,11.1,17.1,12.2,27.6c0.3,2.5,0.3,5.1,0.7,7.6c0.3,1.9,0.8,3.8,1.5,5.5
	C84.8,452.5,91.9,458.8,101.9,461z M101.2,604.7c6.5,1.6,12.8,1,18.7-1.5c8.7-3.6,14.7-10,16.9-19.4c1.3-5.6,2.2-11.2,3.3-16.9
	c1.6-7.7,5.2-14.3,10.3-20.2c1.7-1.9,3.3-3.9,4.8-5.9c0.3-0.4,0-1.1,0-1.7c-0.6-1.1-1.2-2.3-2-3.2c-1.6-1.9-3.5-3.7-5.1-5.7
	c-4.7-5.5-7.5-11.8-8.8-18.8c-0.7-3.8-0.9-7.6-1.5-11.3c-0.4-2.5-0.7-5.1-1.7-7.4c-4.2-10.3-13.7-18.2-26.4-19.1
	c-8.8-0.6-16.2,2.8-22.3,9c-4.5,4.7-7.4,10.3-8.5,16.8c-0.8,4.4-1.6,8.8-2.4,13.2c-1.3,7.8-4.9,14.4-10.2,20.2
	c-1.7,1.9-3.8,3.4-4.8,5.8c-0.2,0.6-0.7,1.4-0.4,1.7c1.5,2,3,4.1,4.8,5.9c6.5,6.6,10,14.7,11.8,23.6c0.6,3.1,0.5,6.3,1,9.5
	c0.4,2.5,0.7,5.1,1.7,7.4C84.4,595.9,91.1,602.2,101.2,604.7z M130.8,739.4c3.1-3.4,5.3-7.2,6.1-11.8c1.1-6.3,2.2-12.6,3.8-18.8
	c1.5-5.7,4-10.8,7.6-15.3c2-2.5,4.1-4.9,6.2-7.3c1.1-1.3,0.9-3.9-0.3-5.2c-1.3-1.4-2.6-2.8-3.9-4.2c-6.5-6.7-9.9-14.8-11.5-23.8
	c-0.6-3.8-0.8-7.6-1.3-11.4c-0.5-3.9-2.2-7.3-4.4-10.5c-5.9-8.5-14-12.9-26-12.9c-9.6-0.2-18,4.7-23.8,14.2c-2,3.3-3.5,6.8-4.2,10.6
	c-0.9,5-1.9,10.1-2.8,15.1c-1.2,6.5-4.1,12.1-8.4,17c-1.7,1.9-3.5,3.7-5.2,5.6c-1.3,1.3-1.6,4.1-0.6,5.2c2.5,2.9,5.1,5.7,7.5,8.7
	c3.2,4,5.4,8.6,6.9,13.6c1.5,5,2,10,2.4,15.1c0.2,2.5,0.7,5.1,1.6,7.5c3.9,9.5,10.9,15.8,20.9,18.2
	C112.8,751.6,122.8,748.2,130.8,739.4z M227.6,756c-0.1-0.6-0.1-1.3-0.4-1.6c-2-2.4-4.2-4.8-6.3-7.2c-6.1-6.9-9.4-15.1-10.4-24.2
	c-0.3-2.5-0.3-5.1-0.5-7.6c-0.3-3.2-1.4-6.2-2.9-9c-4.4-8.4-11.1-13.8-20.4-15.8c-10.9-2.4-20.2,0.7-27.8,8.7
	c-3.6,3.7-6.1,8.2-7.2,13.3c-1.1,5-2.1,10-2.9,15c-1.2,7.8-4.5,14.5-9.7,20.4c-1.7,1.9-3.4,3.8-5.1,5.7c-1.1,1.3-0.9,3.3,0.7,5.1
	c1.2,1.4,2.6,2.8,3.9,4.2c6.2,6.8,10.1,14.6,11,23.9c0.5,4.4,1.1,8.9,2.1,13.2c0.5,2.4,1.6,4.9,2.9,7c5.3,8.8,13.4,13.4,23.4,14.8
	c2.5,0.3,5.1,0,7.6-0.5c2.5-0.5,4.9-1.4,7.2-2.4c8.7-3.9,14.1-10.7,16.4-19.9c0.8-3.1,0.9-6.3,1.4-9.4c1.9-10.9,5.7-20.9,13.8-28.8
	c0.9-0.9,1.7-1.9,2.4-2.9C227.2,757.2,227.4,756.6,227.6,756z M280.7,728.2c1.2-4.3,1.6-8.7,2.4-13.1c1.5-9,5-17.1,11-23.9
	c1.3-1.4,2.6-2.8,3.8-4.3c1.8-2.1,1.7-4.4-0.4-6.8c-1.3-1.4-2.7-2.7-4-4.1c-6.5-7.4-10.5-15.9-10.9-25.8c-0.1-1.9-0.1-3.8-0.4-5.7
	c-2-14-13.4-26.9-30.5-26.4c-10.1-0.1-18.1,4.3-23.8,12.9c-1.1,1.6-2.1,3.2-2.7,5c-1.3,3.6-2.4,7.2-3.3,10.9
	c-0.6,2.5-0.6,5.1-0.9,7.6c-1.1,7.8-4.4,14.6-9.3,20.6c-1.6,2-3.6,3.6-5.3,5.5c-1.2,1.3-1.5,4-0.5,5.2c1.2,1.5,2.4,2.9,3.7,4.3
	c7.3,7.6,11.7,16.6,12.1,27.3c0.1,1.9,0.2,3.8,0.4,5.7c0.5,3.8,1.8,7.5,3.6,10.8c6.5,12,20.1,18.7,34,14.8
	C270.4,745.8,277.7,739,280.7,728.2z M371.1,754.7c-2.7-3.5-5.7-6.8-8.4-10.4c-3.8-5.2-6.6-10.9-7.3-17.4c-0.5-4.4-0.9-8.9-1.8-13.2
	c-1.5-7.8-5.7-14-12.3-18.7c-3.2-2.3-6.7-3.6-10.5-4.4c-9.3-2.2-17.7,0-25,5.9c-6.1,5-9.6,11.8-11.1,19.5c-0.6,3.1-0.7,6.3-1.3,9.5
	c-1.6,9-5,17.1-11.5,23.7c-1.8,1.8-3.4,3.8-4.9,5.8c-0.2,0.3,0.1,1.1,0.3,1.6c1.8,3.5,5.1,5.7,7.4,8.7c5.2,6.7,8.5,14.2,9.3,22.7
	c0.2,2.5,0.2,5.1,0.5,7.6c0.2,1.9,0.6,3.8,1.3,5.6c4.3,11.6,13.6,19.3,27.5,20.7c6.5,0.2,12.5-1.9,17.8-5.5
	c6-4.1,10.3-9.5,11.6-16.8c0.9-5,2-10,3-15c1.5-7.7,4.7-14.5,9.7-20.5c2-2.4,4.7-4.3,5.7-7.5C371.3,755.9,371.4,755.1,371.1,754.7z
	 M418.9,739.2c3-3.4,5.3-7.3,6-11.8c1-6.3,2.2-12.6,3.8-18.8c1.5-5.6,4.1-10.8,7.7-15.3c2-2.5,4.1-4.9,6.2-7.3
	c1-1.1,0.7-3.9-0.5-5.2c-1.3-1.4-2.6-2.8-3.9-4.2c-6.5-6.7-9.8-14.9-11.3-23.9c-0.6-3.8-0.8-7.6-1.4-11.4c-0.3-1.9-0.8-3.8-1.6-5.5
	c-5.2-10.5-13.3-17-25.4-17.7c-1.9-0.1-3.8,0-5.7,0.1c-6,0.4-11.1,2.8-15.5,6.8c-5.4,4.9-8.8,10.9-10.2,18c-0.9,5-1.9,10.1-2.8,15.1
	c-1.2,6.4-4.2,12-8.5,17c-2.1,2.4-4.2,4.8-6.3,7.2c-0.3,0.3,0,1.2,0.1,1.8c0.5,2.7,2.6,4.3,4.4,6.1c7.4,7.7,11.3,16.9,12.4,27.5
	c0.3,2.5,0.3,5.1,0.7,7.6c0.3,1.9,0.7,3.8,1.4,5.5c5,12.2,17,18.9,26.7,18.8C404.8,750.1,412.6,746.3,418.9,739.2z M515.6,755
	c-2-2.5-4-4.9-6.2-7.2c-6.6-7.4-10.2-16.1-11-25.9c-0.2-2.5-0.2-5.1-0.6-7.6c-0.3-1.9-0.8-3.8-1.6-5.5c-4.1-9.2-10.8-15.4-20.8-18.1
	c-10.1-2.8-23.8,1.3-30.5,10.9c-2.2,3.2-4.1,6.5-5.1,10.2c-1.5,5.5-2.5,11.2-3.3,16.9c-0.9,6.5-3.8,12.1-7.8,17.2
	c-2,2.5-4.3,4.7-6.4,7.1c-1.2,1.3-1.3,3.9-0.1,5.2c1.7,1.9,3.4,3.8,5.1,5.7c5.6,6.4,9.2,13.7,10.1,22.3c0.4,3.8,0.9,7.6,1.5,11.4
	c1.3,8,5.6,14.2,12.1,18.8c5.3,3.7,11.3,5.7,15.6,5.8c6.2-0.1,9.8-1.3,13.4-2.8c9.5-4.1,15.2-11.3,17.3-21.4
	c0.7-3.1,0.7-6.3,1.4-9.5c2-10.1,5.6-19.6,13.1-27.1c1.3-1.3,2.4-3,3.4-4.5C515.6,756.2,515.9,755.3,515.6,755z M568.7,728.3
	c1.2-4.3,1.7-8.7,2.4-13.1c1.5-9,4.9-17.1,11-24c1.7-1.9,3.3-3.8,4.8-5.9c0.8-1.1,0.6-2.6-0.1-3.5c-1.6-2-3.4-3.8-5.1-5.7
	c-6.5-7.4-10.5-15.8-10.9-25.8c-0.1-1.9-0.1-3.8-0.4-5.7c-2-14-13.3-27-30.3-26.5c-5.5,0-11,1.2-15.9,4.6
	c-4.8,3.4-8.5,7.7-10.7,13.2c-1.4,3.5-2.4,7.2-3.3,10.9c-0.6,2.5-0.6,5.1-0.9,7.6c-1,7.8-4.4,14.6-9.2,20.7c-1.6,2-3.6,3.6-5.3,5.5
	c-1.7,1.8-1.5,4.7,0.3,6.8c0.8,0.9,1.8,1.8,2.7,2.7c7.3,7.6,11.8,16.5,12.2,27.2c0.1,1.9,0.2,3.8,0.4,5.7c0.5,3.8,1.8,7.5,3.6,10.8
	c6.5,12,20,18.8,34,15C558.3,745.9,565.6,739.1,568.7,728.3z M659.4,755.3c-1.3-3-3.8-5.1-5.9-7.5c-6.1-6.9-9.8-14.8-10.5-24.1
	c-0.3-4.5-0.9-8.9-2.2-13.2c-3.8-12.4-15.3-21-28.9-20.9c-10.2,0.1-18.4,4.8-24,13.4c-2.8,4.3-4.8,9-5.5,14.1
	c-0.4,3.2-0.6,6.4-1.2,9.5c-1.7,8.2-4.9,15.8-10.9,21.9c-1.8,1.8-3.4,3.8-5,5.8c-0.3,0.4-0.4,1.2-0.2,1.6c0.9,2.5,2.9,4.1,4.7,5.9
	c3.1,3.2,5.9,6.8,7.8,10.8c2.4,5.2,4.4,10.6,4.6,16.5c0.1,3.8,0.2,7.7,1.5,11.3c3.9,11.1,12.5,19.5,27.4,21.2
	c6.9,0.4,13.4-2,19.2-6.3c5.3-3.9,9.1-8.9,10.4-15.5c1-5,2.1-10,3-15c1.5-8.4,5.1-15.7,10.6-22.1c1.7-1.9,3.1-4,4.6-6
	C659.2,756.5,659.6,755.7,659.4,755.3z M709.6,735.5c1.3-2.1,2.4-4.6,3-7c1.2-5,2-10,2.9-15.1c1.7-9,5.5-17,11.9-23.7
	c0.9-0.9,1.7-1.9,2.5-2.9c1.9-2.2,1.8-4.3-0.4-6.8c-1.7-1.9-3.5-3.7-5.2-5.6c-4.2-4.9-7.2-10.6-8.5-17c-0.6-3.1-1.2-6.3-1.6-9.4
	c-0.4-2.5-0.4-5.1-1-7.6c-0.6-2.4-1.5-4.9-2.7-7.1c-5.9-10.3-14.8-15.6-26.8-15.4c-9,0.1-16.2,3.5-21.8,10.3
	c-3.3,4-5.7,8.5-6.8,13.6c-0.4,1.9-0.6,3.8-1,5.7c-3.1,16.5-3.2,20.1-16.2,33.8c-1.2,1.3-0.9,3.5,0.5,5.2c1.3,1.4,2.6,2.9,3.9,4.3
	c7.3,7.8,10.9,17.2,11.9,27.7c0.3,2.5,0.4,5.1,0.8,7.6c0.2,1.3,0.4,2.5,0.9,3.7c4.1,10.2,11.5,17,22.2,19.3
	C690.5,751.7,702.5,746.7,709.6,735.5z M803.7,755.2c-2-2.5-4-4.9-6.1-7.3c-6.7-7.3-10.2-16.1-11.1-25.9c-0.2-2.5-0.1-5.1-0.6-7.6
	c-0.5-2.5-1.3-4.9-2.4-7.2c-4.4-9.2-11.6-14.8-21.7-17c-8-1.7-15.2,0.3-21.8,4.6c-6.1,3.9-10.1,9.8-11.9,16.8c-1.3,4.9-2.3,9.9-3,15
	c-1.2,8.5-4.8,15.7-10.5,22.1c-1.7,1.9-3.3,3.8-4.8,5.9c-0.3,0.4-0.1,1.1-0.2,1.7c0.2,0.6,0.4,1.3,0.7,1.8c1.6,1.9,3.4,3.8,5.1,5.7
	c5.6,6.4,9.2,13.7,10.2,22.2c0.5,4.4,1.2,8.8,2,13.2c0.8,4.5,3,8.4,5.9,11.8c5.2,6.1,11.9,9.4,19.7,10.7c3.2,0.5,6.4,0.3,9.5-0.6
	c1.8-0.5,3.6-1.2,5.4-1.9c9.5-4,15.2-11.3,17.4-21.3c0.7-3.1,0.8-6.3,1.4-9.5c2-10.1,5.5-19.6,13-27.2c1.3-1.3,2.4-2.9,3.5-4.5
	C803.6,756.4,803.9,755.4,803.7,755.2z M2.6,10.2C4,10,4.9,9,5,7.6c0.1-1.3,0-2.5,0-4C4.8,3.3,4.5,2.5,4,2.4C2.5,2,1.4,2.7,1,4.1
	C0.7,5.3,0.5,6.6,0.5,7.9C0.4,9.4,1.2,10.3,2.6,10.2z M861.2,855.6c-1.2,0-1.7,1.5-1.8,2.9c0,1.4,0.5,2.8,1.8,2.8
	c1.2,0,1.8-1.5,1.8-2.8C863,857.1,862.4,855.6,861.2,855.6z"/>
</svg>
