<?xml version="1.0" encoding="utf-8"?>
<!-- Generator: Adobe Illustrator 22.0.0, SVG Export Plug-In . SVG Version: 6.00 Build 0)  -->
<svg version="1.1" id="Layer_1" xmlns="http://www.w3.org/2000/svg" xmlns:xlink="http://www.w3.org/1999/xlink" x="0px" y="0px"
	 viewBox="0 0 864 864" style="enable-background:new 0 0 864 864;" xml:space="preserve">
<path d="M378.9,864.7c0.2-2-0.5-3.8-1.9-5.1c-2.8-2.6-5.8-4.9-8.7-7.5c-0.4-0.3-0.5-1.2-0.4-1.8c0.1-1.3,0.9-2.4,2.2-2.6
	c2.5-0.4,5.1-0.6,7.6-0.6c9.6-0.1,19.1,0,28.7-0.2c1.9,0,3.8-0.4,5.6-0.8c1.9-0.5,3.6-1.4,4.4-3.3c1.8-4.8,3.5-9.6,5.1-14.4
	c2.7-7.8,5.3-15.7,8-23.5c0.5-1.4,1.6-2,2.8-1.8c1.3,0.1,2.4,0.8,3,2.1c0.5,1.1,0.9,2.4,1.3,3.6c2.6,7.9,5.1,15.8,7.8,23.6
	c1.2,3.6,2.8,7.1,4.1,10.7c0.8,2,2.6,2.8,4.4,3.3c4.4,1.2,8.9,0.7,13.3,0.8c9.5,0.3,19.1-0.6,28.6,0.6c1.3,0.2,2,1.3,2.1,2.6
	c0,0.6-0.1,1.5-0.5,1.8c-2.4,2.1-5,4-7.4,6.1c-0.9,0.8-1.7,1.9-2.4,2.9c-0.7,1.1-0.8,2.3-0.3,3.6
	C450.6,864.7,414.7,864.7,378.9,864.7z M774.4,864.7c-0.4-1.3-0.4-2.6,0.3-3.6c0.7-1,1.5-2.1,2.4-2.9c2.4-2.1,5-4,7.4-6.1
	c0.4-0.3,0.5-1.2,0.5-1.8c-0.1-1.3-0.9-2.5-2.1-2.6c-9.5-1.3-19.1-0.4-28.6-0.6c-4.5-0.1-9,0.4-13.3-0.8c-1.8-0.5-3.6-1.2-4.4-3.3
	c-1.4-3.6-2.9-7.1-4.1-10.7c-2.7-7.8-5.2-15.7-7.8-23.6c-0.4-1.2-0.8-2.4-1.3-3.6c-0.6-1.3-1.7-1.9-3-2.1c-1.2-0.1-2.4,0.5-2.8,1.8
	c-2.7,7.8-5.3,15.7-8,23.5c-1.7,4.8-3.3,9.6-5.1,14.4c-0.7,1.9-2.5,2.9-4.4,3.3c-1.8,0.5-3.8,0.8-5.6,0.8
	c-9.6,0.1-19.1,0.1-28.7,0.2c-2.5,0-5.1,0.2-7.6,0.6c-1.3,0.2-2,1.3-2.2,2.6c-0.1,0.6,0,1.5,0.4,1.8c2.9,2.5,5.9,4.9,8.7,7.5
	c1.4,1.3,2.1,3.1,1.9,5.1C702.7,864.7,738.6,864.7,774.4,864.7z M198.4,864.7c-0.4-1.3-0.4-2.6,0.3-3.6c0.7-1,1.5-2.1,2.4-2.9
	c2.4-2.1,5-4,7.4-6.1c0.4-0.3,0.5-1.2,0.5-1.8c-0.1-1.3-0.9-2.5-2.1-2.6c-9.5-1.3-19.1-0.4-28.6-0.6c-4.5-0.1-9,0.4-13.3-0.8
	c-1.8-0.5-3.6-1.2-4.4-3.3c-1.4-3.6-2.9-7.1-4.1-10.7c-2.7-7.8-5.2-15.7-7.8-23.6c-0.4-1.2-0.8-2.4-1.3-3.6c-0.6-1.3-1.7-1.9-3-2.1
	c-1.2-0.1-2.4,0.5-2.8,1.9c-2.7,7.8-5.3,15.7-8,23.5c-1.7,4.8-3.3,9.6-5.1,14.4c-0.7,1.9-2.5,2.9-4.4,3.3c-1.8,0.5-3.8,0.8-5.6,0.8
	c-9.6,0.1-19.1,0.1-28.7,0.2c-2.5,0-5.1,0.2-7.6,0.6c-1.3,0.2-2,1.3-2.2,2.6c-0.1,0.6,0,1.5,0.4,1.8c2.9,2.5,5.9,4.9,8.7,7.5
	c1.4,1.3,2.1,3.1,1.9,5.1C126.7,864.7,162.6,864.7,198.4,864.7z M391.2,347.3c-0.1,0.5,0.2,1.2,0.5,1.7c0.6,1.2,1.9,1.7,3.2,0.8
	c6.3-4.3,12.6-8.7,18.9-13.1c5.2-3.6,10.5-7.3,15.7-10.9c1.8-1.2,3.8-1,5.4,0c2.8,1.5,5.4,3.3,8,5.2c8.3,5.9,16.6,12,24.9,17.9
	c1,0.7,2.3,0.9,3.6,1.2c0.5,0.1,1.1-0.2,1.5-0.6c0.4-0.4,0.9-1.2,0.8-1.6c-2.4-9.9-5.9-19.5-9.1-29.3c-1.4-4.2-2.4-8.6-3.3-12.9
	c-0.2-1,0.5-2.6,1.3-3.5c1.7-1.9,3.7-3.5,5.7-5.1c8.7-6.5,17.5-12.9,26.3-19.3c1.1-0.8,2-1.7,2.2-2.9c0.3-1.3-0.1-2.8-1.4-3.1
	c-9.5-1.8-19.1-0.5-28.7-0.9c-4.5-0.2-8.9-0.3-13.4-0.7c-1.9-0.2-3.8-1.1-4.6-2.9c-1.6-3.5-3.1-7-4.3-10.6c-2.3-6.6-4.4-13.4-6.6-20
	c-0.8-2.4-1.5-4.9-2.5-7.3c-0.5-1.3-1.6-2-2.8-2.4c-1.3-0.4-2.5,0-3,1.5c-1.7,4.8-3.4,9.6-5,14.5c-2.7,7.8-5.4,15.7-8.2,23.5
	c-0.7,2-2.4,2.9-4.2,3.5c-1.8,0.5-3.8,0.9-5.6,0.9c-9.6,0.1-19.2,0.1-28.8,0.2c-2.5,0-5.1,0.3-7.6,0.6c-0.5,0.1-1.1,0.5-1.5,0.9
	c-1.1,1-1.4,2.4-0.3,3.4c6.9,6.7,15.2,11.6,22.8,17.4c3.6,2.7,7.2,5.4,10.5,8.3c0.8,0.7,1.2,2.3,1.3,3.5c0.2,1.2,0.1,2.6-0.3,3.8
	c-1.8,6.1-3.6,12.2-5.4,17.9C395,333.8,392.5,340.4,391.2,347.3z M679.2,633.9c-0.4,1.4-0.2,2.6,0.8,3.5c0.9,0.8,2.2,1,3.4,0.1
	c5.8-4,11.5-8,17.3-12.1c23.9-16.7,15.4-16.7,40.1,0.5c5.8,4,11.5,8,17.4,11.9c0.5,0.3,1.3,0.3,1.9,0.2c1.2-0.4,2-1.6,1.6-2.9
	c-2.8-9.2-5.7-18.3-8.6-27.4c-1.3-4.3-2.7-8.5-3.7-12.9c-0.5-1.9,0.2-3.9,1.6-5.3c1.8-1.8,3.8-3.4,5.9-4.9
	c7.2-5.3,14.5-10.5,21.7-15.8c2.1-1.5,4-3.1,6-4.8c0.4-0.4,0.6-1.2,0.5-1.8c-0.1-1.3-0.8-2.5-2.1-2.7c-9.5-1.3-19.1-0.4-28.7-0.7
	c-4.5-0.1-9,0.4-13.4-0.8c-1.8-0.5-3.6-1.3-4.4-3.3c-1.4-3.6-2.9-7.1-4.1-10.7c-2.9-8.5-5.6-17-8.4-25.5c-0.4-1.2-1.2-2.2-2-3.2
	c-0.3-0.4-1.1-0.5-1.7-0.5c-0.5,0-1.3,0.2-1.6,0.5c-2.7,3.7-3.6,8.1-5,12.3c-3,9.1-5.5,18.4-9.4,27.2c-0.8,1.8-2.6,2.8-4.5,3.2
	c-2.5,0.4-5.1,0.8-7.6,0.8c-9.6,0.1-19.2,0-28.8,0.1c-1.9,0-3.8,0.2-5.7,0.7c-1.3,0.3-1.8,1.6-1.7,2.9c0.1,0.6,0.2,1.4,0.6,1.7
	c8.7,6.5,17.4,13,26.1,19.5c2.5,1.9,5,3.9,7.3,6.2c0.8,0.8,1.3,2.4,1.1,3.5c-0.4,3.1-0.9,6.3-1.9,9.3c-2.7,8.5-5.6,17-7.6,23.2
	C680.3,630.3,679.8,632.1,679.2,633.9z M392.2,637.7c1,0.4,2.5,0.2,3.4-0.3c2.2-1.2,4.3-2.7,6.4-4.2c7.3-5.2,14.5-10.5,21.8-15.7
	c1.6-1.1,3.1-2.2,4.8-3.2c2.3-1.4,4.9-1.7,7.2-0.1c7.9,5.5,15.6,11.1,23.5,16.6c3.6,2.5,6.9,5.7,11.2,7.2c0.6,0.2,1.4,0.4,1.9,0.1
	c1.2-0.7,1.7-1.9,1.3-3.2c-2.6-8.5-5.3-17.1-8-25.6c-1.3-4.3-2.6-8.5-4-12.8c-0.2-0.6-0.5-1.2-0.5-1.9c0-2,0.5-4.1,1.9-5.2
	c7.6-5.9,15.4-11.5,23-17.3c3.5-2.7,7.6-4.8,10.4-8.3c0.4-0.5,0.6-1.3,0.5-1.8c-0.3-1.4-1.2-2.3-2.5-2.5c-6.4-1-12.8-0.4-19.1-0.5
	c-7-0.2-14.1-0.2-21.1-0.6c-2.6-0.1-5-1.2-6.1-3.9c-1.4-3.6-2.9-7.1-4.1-10.7c-2.9-8.5-5.6-17-8.4-25.5c-0.4-1.1-1.3-2.2-2.2-3.1
	c-0.4-0.4-1.2-0.4-1.8-0.3c-0.5,0.1-1.2,0.4-1.4,0.8c-3.9,6.7-5.1,14.4-7.9,21.5c-2.3,6-4.2,12.1-6.5,18c-0.4,1-1.7,2-2.8,2.4
	c-1.8,0.6-3.7,1.1-5.6,1.1c-9,0.2-17.9,0.1-26.9,0.2c-3.2,0-6.4,0.2-9.6,0.3c-1.5,0-2.5,0.7-3,2c-0.4,1.2-0.3,2.5,0.7,3.4
	c3,2.4,6,4.8,9.1,7.1c7.2,5.3,14.4,10.6,21.6,15.9c3.6,2.7,4.4,5.3,3,10.1c-0.9,3.1-1.8,6.1-2.8,9.2c-2.9,9.1-5.8,18.2-8.8,27.4
	C390.7,635.7,390.9,637.2,392.2,637.7z M680.2,349.7c1,0.4,2.5,0.2,3.4-0.3c2.2-1.2,4.3-2.7,6.4-4.2c7.3-5.2,14.5-10.5,21.8-15.7
	c1.6-1.1,3.1-2.2,4.8-3.2c2.3-1.4,4.9-1.7,7.2-0.1c7.9,5.5,15.6,11.1,23.5,16.6c3.6,2.5,6.9,5.7,11.2,7.2c0.6,0.2,1.4,0.4,1.9,0.1
	c1.2-0.7,1.7-1.9,1.3-3.2c-2.6-8.5-5.3-17.1-8-25.6c-1.3-4.3-2.6-8.5-4-12.8c-0.2-0.6-0.5-1.2-0.5-1.9c0-2,0.5-4.1,1.9-5.2
	c7.6-5.9,15.4-11.5,23-17.3c3.5-2.7,7.6-4.8,10.4-8.3c0.4-0.5,0.6-1.3,0.5-1.8c-0.3-1.4-1.2-2.3-2.5-2.5c-6.4-1-12.8-0.4-19.1-0.5
	c-7-0.2-14.1-0.3-21.1-0.5c-2.6-0.1-5.3-1.9-6.1-4c-1.4-3.6-2.8-7.1-4.1-10.7c-2.9-8.5-5.6-17-8.4-25.5c-0.4-1.1-1.3-2.2-2.2-3.1
	c-0.4-0.4-1.2-0.4-1.8-0.3c-0.5,0.1-1.2,0.4-1.4,0.8c-3.9,6.7-5.1,14.4-7.9,21.5c-2.3,6-4.2,12.1-6.5,18c-0.4,1-1.7,2-2.8,2.4
	c-1.8,0.6-3.7,1.1-5.6,1.1c-9,0.2-17.9,0.1-26.9,0.2c-3.2,0-6.4,0.2-9.6,0.3c-1.5,0-2.5,0.7-3,2c-0.4,1.2-0.3,2.5,0.7,3.4
	c2.9,2.4,6,4.8,9.1,7.1c7.2,5.3,14.4,10.6,21.6,15.9c3.6,2.7,4.4,5.3,3,10.1c-0.9,3.1-1.8,6.1-2.8,9.2c-2.9,9.1-5.8,18.2-8.8,27.4
	C678.7,347.7,678.9,349.2,680.2,349.7z M185.2,345c-2.7-8.5-5.5-17-8.3-25.5c-1.4-4.3-2.7-8.5-3.7-12.9c-0.4-1.8,0.5-3.9,1.9-5.2
	c1.8-1.8,3.9-3.3,5.9-4.8c7.2-5.3,14.5-10.5,21.7-15.8c2-1.5,3.9-3.2,5.7-5c0.4-0.4,0.6-1.2,0.5-1.8c-0.3-1.4-1.3-2.3-2.6-2.5
	c-7-1-14-0.3-21.1-0.5c-6.4-0.2-12.8-0.2-19.2-0.6c-2.6-0.1-5-1.3-6-4c-1.4-3.6-2.8-7.1-4.1-10.7c-2.9-8.5-5.6-17-8.4-25.5
	c-0.4-1.1-1.3-2.1-2.2-3c-0.4-0.4-1.2-0.4-1.8-0.3c-0.5,0.1-1.2,0.5-1.4,0.9c-2.7,4.4-3.8,9.4-5.4,14.2c-2.8,8.5-5.1,17.2-8.9,25.3
	c-0.5,1-1.8,2-2.9,2.4c-1.8,0.6-3.7,1-5.6,1.1c-6.4,0.2-12.8,0.1-19.2,0.2c-5.7,0.1-11.5,0.2-17.2,0.3c-1.5,0-2.5,0.7-3,2
	c-0.4,1.2-0.2,2.5,0.8,3.4c1.9,1.7,3.9,3.3,6,4.8c7.7,5.7,15.5,11.3,23.2,17c5.4,4,6.1,6.3,4,13.2c-0.7,2.5-1.6,4.9-2.3,7.3
	c-2.8,8.5-5.5,17-8.2,25.5c-0.4,1.2-0.4,2.5-0.4,3.8c0,0.5,0.6,1.2,1.1,1.5c0.4,0.3,1.2,0.3,1.7,0.2c1.2-0.4,2.5-0.7,3.5-1.5
	c6.2-4.5,12.4-9,18.6-13.5c4.2-3,8.3-5.9,12.6-8.8c2.3-1.5,4.9-1.7,7.2-0.1c8.4,5.9,16.7,11.9,25,17.7c3.1,2.2,6,4.8,9.7,6.1
	c0.6,0.2,1.4,0.3,1.9,0.1c0.5-0.2,0.8-0.9,1.1-1.4C185.4,347.4,185.5,346.1,185.2,345z M104.2,637.7c0.9,0.6,2.3,0.4,3.5-0.3
	c2.2-1.3,4.3-2.8,6.4-4.3c7.3-5.2,14.5-10.5,21.8-15.7c1.6-1.1,3.1-2.2,4.8-3.2c2.3-1.4,4.9-1.8,7.2-0.2
	c7.9,5.5,15.6,11.1,23.5,16.6c3.6,2.5,6.9,5.7,11.2,7.3c0.6,0.2,1.4,0.4,1.9,0.1c1.2-0.7,1.7-1.9,1.3-3.2c-1.4-4.9-2.9-9.8-4.5-14.7
	c-2.3-7.3-4.6-14.6-7-21.9c-0.4-1.2-0.9-2.5-1-3.7c-0.1-1.9,0.4-4.1,1.9-5.2c6.5-5.1,13.3-10,19.9-15c4.5-3.5,9.7-6.2,13.6-10.5
	c0.4-0.4,0.6-1.2,0.5-1.8c-0.2-1.4-1.1-2.4-2.4-2.5c-3.2-0.3-6.4-0.5-9.5-0.6c-9.6-0.1-19.2-0.1-28.8-0.3c-4-0.1-7.5-1.5-8.8-5.9
	c-1.2-3.7-2.5-7.2-3.7-10.9c-2.6-7.9-5.2-15.8-7.9-23.6c-0.4-1.1-1.3-2.2-2.1-3.1c-0.4-0.4-1.2-0.4-1.8-0.3
	c-0.5,0.1-1.2,0.4-1.5,0.8c-4,6.7-5.1,14.4-7.9,21.5c-2.3,6-4.2,12.1-6.5,18c-0.4,1-1.7,2-2.8,2.4c-1.8,0.7-3.7,1.1-5.6,1.1
	c-9,0.2-17.9,0.1-26.9,0.2c-3.2,0-6.4,0.2-9.6,0.3c-1.5,0-2.5,0.7-3,2c-0.5,1.2-0.4,2.5,0.7,3.4c2.9,2.5,6,4.8,9.1,7.1
	c7.2,5.3,14.4,10.6,21.6,15.9c3.6,2.7,4.4,5.4,3.1,10.1c-0.9,3.1-1.8,6.1-2.8,9.2c-2.9,9.1-5.9,18.2-8.8,27.4
	C102.7,635.7,103,637,104.2,637.7z M538.9,710c8.3-5.9,16.6-11.8,24.9-17.7c3.1-2.2,6.2-4.4,9.5-6.4c1.6-1,3.6-1.4,5.4-0.3
	c2.2,1.3,4.4,2.6,6.4,4.1c7.3,5.2,14.4,10.5,21.7,15.7c2.1,1.5,4.3,2.7,6.5,3.9c0.5,0.3,1.4,0.4,1.9,0.2c1-0.5,1.7-1.7,1.6-3
	c-0.3-2.5-0.7-5-1.5-7.5c-3.2-10.3-6.6-20.6-9.7-31c-0.7-2.5-0.1-5.1,2-7c1.9-1.7,3.9-3.3,5.9-4.8c6.7-4.9,13.4-9.7,20.1-14.6
	c2.1-1.5,4.1-3.1,6-4.8c1-0.9,1.2-2.2,1-3.4c-0.2-1.6-1.1-2.1-2.7-2.1c-8.3-0.1-16.6-0.2-24.8-0.3c-5.1-0.1-10.2-0.1-15.3-0.4
	c-2.7-0.2-4.6-2-5.8-4.4c-0.8-1.7-1.5-3.5-2.1-5.3c-2.8-8.5-5.4-17-8.3-25.5c-1-3-2.4-5.9-3.6-8.8c-0.2-0.5-1.2-1.4-1.2-1.3
	c-1,0.8-2.1,1.5-2.7,2.5c-1,1.6-1.8,3.4-2.4,5.2c-3,9.1-5.8,18.2-8.8,27.3c-0.8,2.4-1.9,4.7-3,7c-0.9,1.7-2.4,3.1-4.4,3.2
	c-3.8,0.3-7.6,0.5-11.4,0.5c-10.2,0.1-20.4,0.2-30.6,0.3c-1.7,0-2.7,0.6-2.4,2.3c0.2,1.1,0.7,2.5,1.6,3.2c5,3.9,10.2,7.7,15.3,11.5
	c5.6,4.2,11.2,8.4,16.9,12.6c2.3,1.7,3.1,4.3,2.4,6.8c-1.6,6.1-3.9,12.1-5.7,18.2c-2.1,7.4-5.3,14.4-6.5,22c-0.2,1.3,0.7,2.2,2,2.6
	C537.7,710.2,538.5,710.3,538.9,710z M250.9,710c8.3-5.9,16.6-11.8,24.9-17.7c3.1-2.2,6.2-4.4,9.5-6.4c1.6-1,3.6-1.4,5.4-0.3
	c2.2,1.3,4.4,2.6,6.4,4.1c7.3,5.2,14.4,10.5,21.7,15.7c2.1,1.5,4.3,2.7,6.5,3.9c0.5,0.3,1.4,0.4,1.9,0.2c1-0.5,1.7-1.7,1.6-3
	c-0.3-2.5-0.7-5-1.5-7.5c-3.2-10.3-6.6-20.6-9.7-31c-0.7-2.5-0.1-5.1,2-7c1.9-1.7,3.9-3.3,5.9-4.8c6.7-4.9,13.4-9.7,20.1-14.6
	c2.1-1.5,4.1-3.1,6-4.8c1-0.9,1.2-2.2,1-3.4c-0.2-1.6-1.1-2.1-2.7-2.1c-8.3-0.1-16.6-0.2-24.8-0.3c-5.1-0.1-10.2-0.1-15.3-0.4
	c-2.7-0.2-4.6-2-5.7-4.4c-0.8-1.7-1.5-3.5-2.1-5.3c-2.8-8.5-5.4-17-8.3-25.5c-1-3-2.4-5.9-3.6-8.8c-0.2-0.5-1.2-1.4-1.2-1.3
	c-1,0.8-2.1,1.5-2.7,2.5c-1,1.6-1.8,3.4-2.4,5.2c-3,9.1-5.8,18.2-8.8,27.3c-0.8,2.4-1.9,4.7-3,7c-0.9,1.7-2.4,3.1-4.4,3.2
	c-3.8,0.3-7.6,0.5-11.4,0.5c-10.2,0.1-20.4,0.2-30.6,0.3c-1.7,0-2.7,0.6-2.4,2.3c0.2,1.1,0.7,2.5,1.6,3.2c5,3.9,10.2,7.7,15.3,11.5
	c5.6,4.2,11.2,8.4,16.9,12.6c2.3,1.7,3.1,4.3,2.4,6.8c-1.6,6.1-3.9,12.1-5.7,18.2c-2.1,7.4-5.3,14.4-6.5,22c-0.2,1.3,0.7,2.2,2,2.6
	C249.7,710.2,250.5,710.3,250.9,710z M535,132.4c-0.1,0.5,0.6,1.2,1,1.5c0.5,0.3,1.3,0.6,1.7,0.4c6.9-3.3,12.6-8.5,18.9-12.8
	c4.2-2.9,8.2-6,12.4-9c1.6-1.1,3.2-2.1,4.9-3c1.8-0.9,3.8-0.8,5.4,0.4c9.4,6.6,18.7,13.3,28.1,19.9c2.1,1.5,4,3,6.6,3.6
	c1.5,0.3,2.5-0.1,2.5-1.8c0.1-1.9,0.1-3.9-0.4-5.6c-3-9.7-6.3-19.4-9.4-29.1c-0.6-1.8-1.1-3.7-1.3-5.6c-0.2-2.6,0.3-5.1,2.6-6.8
	c7.7-5.7,15.4-11.4,23-17.1c3-2.3,6-4.7,8.9-7.2c0.4-0.4,0.7-1.1,0.8-1.7c0-1.3-0.6-2.7-1.7-2.9c-8.9-1.3-17.8-0.4-26.7-0.7
	c-5.1-0.2-10.2-0.3-15.3-0.6c-2.1-0.1-3.4-1.7-4.5-3.2c-1-1.6-1.7-3.4-2.3-5.2c-3-9.1-5.8-18.2-8.8-27.3c-1-3-2.5-5.8-3.9-8.6
	c-0.2-0.3-1.1-0.7-1.3-0.5c-0.9,0.8-2,1.7-2.5,2.8c-4,9.4-6.3,19.4-9.9,28.9c-1.1,3-2.1,6-3.3,8.9c-1,2.5-3,4.3-5.7,4.4
	c-6.4,0.3-12.7,0.3-19.1,0.4c-7.6,0.1-15.3,0.3-22.9,0.5c-0.5,0-1.1,0.5-1.4,0.9c-0.8,1.2-0.7,2.5,0.5,3.5c2.4,2.1,4.9,4.1,7.4,6
	c6.7,4.9,13.4,9.8,20.1,14.7c2.1,1.5,4.1,3.1,6,4.8c2.1,1.9,2.5,4.5,1.8,7c-1.8,6.1-3.8,12.2-6.4,20.4
	C539.5,117.8,536,124.8,535,132.4z M328.8,130.5c0.1-5.9-3-11-4.5-16.5c-1.9-7.4-4.6-14.6-6.8-21.9c-0.7-2.5-0.1-5.1,1.9-7
	c1.9-1.7,3.9-3.3,5.9-4.8c7.2-5.3,14.4-10.5,21.6-15.8c1.5-1.1,3-2.3,4.4-3.7c1-0.9,1.3-2.2,1.1-3.4c-0.2-1.6-1.1-2.2-2.7-2.2
	c-7.6-0.1-15.3-0.2-22.9-0.3c-5.7-0.1-11.5-0.1-17.2-0.4c-2.7-0.1-4.6-2-5.8-4.4c-0.8-1.7-1.5-3.5-2.1-5.3c-2.8-8.5-5.4-17-8.3-25.5
	c-1-3-2.3-5.9-3.6-8.8c-0.2-0.5-1.2-1.4-1.2-1.3c-1,0.7-2.1,1.4-2.7,2.4c-1,1.6-1.8,3.4-2.4,5.2c-3,9.1-5.8,18.2-8.8,27.3
	c-0.8,2.4-1.8,4.8-3,7c-0.9,1.7-2.4,3-4.4,3.3c-2.5,0.3-5.1,0.5-7.6,0.5c-11.5,0.1-22.9,0.2-34.4,0.3c-1.6,0-2.5,0.6-2.5,2.2
	c0,1.2,0.5,2.4,1.5,3.2c2.5,2,5,3.9,7.6,5.8c8.2,6.1,16.4,12.1,24.6,18.2c2.3,1.7,3.1,4.3,2.5,6.8c-1.4,5.6-3.3,11-5,16.4
	c-1.9,6.1-3.9,12.1-5.9,18.2c-0.6,1.8-1,3.7-1.3,5.6c-0.2,1.4,0.6,2.3,1.9,2.6c0.6,0.1,1.4,0.2,1.8-0.1c8.9-6.2,17.7-12.6,26.5-18.8
	c2.1-1.5,4.1-3,6.2-4.4c3.3-2.3,5.9-2.4,8.8-0.4c7.8,5.5,15.5,11.2,23.3,16.7c3.1,2.2,6.4,4.2,9.6,6.2c0.5,0.3,1.2,0.2,1.9,0.2
	C328.1,132.9,328.8,131.9,328.8,130.5z M546.9,381.3c-1.5,4.9-3.1,9.7-4.7,14.6c-1.6,4.8-3.3,9.7-4.8,14.5c-0.9,3-1.6,6.2-2.4,9.3
	c-0.1,0.5,0.1,1.2,0.5,1.7c0.8,1,2.2,1.5,3.3,0.8c8.4-5.8,16.6-11.8,24.9-17.7c3.1-2.2,6.2-4.4,9.5-6.5c1.6-1,3.6-1.5,5.4-0.4
	c2.2,1.3,4.4,2.6,6.4,4.1c7.3,5.2,14.4,10.5,21.7,15.7c2.1,1.5,4.3,2.7,6.5,3.9c0.5,0.3,1.4,0.4,1.9,0.2c1-0.5,1.8-1.6,1.6-2.9
	c-0.3-2.5-0.7-5-1.5-7.5c-3.2-10.3-6.6-20.6-9.7-31c-0.7-2.5-0.1-5.1,1.9-7c1.9-1.7,3.9-3.3,5.9-4.8c6.7-4.9,13.4-9.7,20.1-14.6
	c2.1-1.5,4.1-3.1,6-4.8c1-0.9,1.3-2.2,1.1-3.4c-0.2-1.6-1.1-2.2-2.7-2.2c-7.6-0.1-15.3-0.2-22.9-0.3c-5.7-0.1-11.5-0.1-17.2-0.4
	c-2.7-0.1-4.6-2-5.8-4.4c-0.8-1.7-1.5-3.5-2.1-5.3c-2.8-8.5-5.4-17-8.3-25.5c-1-3-2.3-5.9-3.6-8.8c-0.2-0.5-1.2-1.4-1.2-1.3
	c-1,0.7-2.1,1.4-2.7,2.4c-1,1.6-1.8,3.4-2.4,5.2c-3,9.1-5.8,18.2-8.8,27.3c-0.8,2.4-1.8,4.8-3,7c-0.9,1.7-2.4,3-4.4,3.3
	c-8.3,1-16.5,0.4-24.8,0.6c-6.4,0.2-12.8-0.6-19.1,0.7c-0.3,0.1-0.7,1.2-0.6,1.7c0.3,1.1,0.7,2.6,1.5,3.2
	c9.2,6.9,18.4,13.7,27.6,20.5c2,1.5,4.1,3.1,5.8,4.9c0.8,0.8,0.8,2.3,1.2,3.5C547.2,378.8,547.3,380.1,546.9,381.3z M247,420.5
	c-0.1,0.5,0.6,1.2,1.1,1.5c0.5,0.3,1.3,0.5,1.8,0.3c3.1-0.9,5.5-3.2,8-5c8.3-5.9,16.5-12,24.8-17.9c4.7-3.4,6.6-3.3,12,0.5
	c3.1,2.2,6.2,4.5,9.3,6.7c5.7,4.1,11.4,8.2,17.1,12.3c1.5,1.1,3.1,2.1,5.1,2.5c1.5,0.3,2.4-0.2,2.5-1.9c0.1-1.9,0.1-3.9-0.4-5.6
	c-3.2-10.3-6.7-20.6-10-30.9c-2.1-6.6-0.1-9.1,3.4-11.8c7.6-5.7,15.4-11.3,23.1-17c2.5-1.9,4.9-4,7.3-6.1c0.4-0.4,0.8-1.1,0.8-1.7
	c0-1.3-0.7-2.6-1.8-2.8c-7.6-1.3-15.3-0.4-22.9-0.6c-6.4-0.2-12.7,0.4-19.1-0.6c-2.1-0.3-3.4-1.7-4.4-3.3c-1-1.6-1.7-3.4-2.3-5.2
	c-3-9.1-5.8-18.2-8.8-27.3c-1-3-1.9-6.1-3.9-8.6c-0.3-0.3-1-0.6-1.4-0.4c-1.8,0.9-2.7,2.7-3.3,4.5c-3.3,9.7-6.4,19.4-9.6,29
	c-0.8,2.4-1.7,4.8-2.7,7.1c-1.1,2.5-3,4.2-5.7,4.4c-6.4,0.3-12.7,0.3-19.1,0.4c-7.6,0.1-15.3,0.3-22.9,0.5c-0.5,0-1,0.5-1.3,1
	c-0.8,1.2-0.6,2.5,0.5,3.5c1.9,1.7,3.8,3.4,5.9,4.9c5.6,4.2,11.3,8.2,17,12.4c2.6,1.9,5.2,3.7,7.7,5.6c4.8,3.6,5.8,6.3,4.2,11.4
	c-1.7,5.5-3.6,10.9-5.9,18C251.6,405.9,248,412.8,247,420.5z M679.7,488c-0.4,1.9-1,3.7,0.1,5.5c0.6,1,2.9,0.6,4.9-0.8
	c7.8-5.5,15.5-11.2,23.3-16.7c3.1-2.2,6.3-4.3,9.6-6.3c1.7-1,3.8-0.9,5.5,0.1c4.8,3.1,9.5,6.4,14.2,9.7c6.8,4.7,13.2,10,20.4,14.2
	c1.3,0.8,2.5,0.5,3.2-0.5c0.3-0.5,0.7-1.2,0.6-1.7c-1.6-5.5-3.2-11-4.8-16.5c-2.4-7.9-4.9-15.8-7.3-23.7c-0.8-2.8,0.6-5,2.5-6.7
	c2.4-2.1,5-3.9,7.6-5.8c7.2-5.3,14.4-10.5,21.6-15.8c1.5-1.1,2.7-2.6,3.9-4.1c0.3-0.3,0-1.2-0.3-1.7c-0.2-0.5-0.7-1.1-1.2-1.1
	c-8.9-1.3-17.8-0.4-26.7-0.7c-5.1-0.2-10.2-0.2-15.3-0.5c-1.8-0.1-3.7-0.9-4.6-2.9c-1.1-2.3-2.2-4.6-3-7c-2.2-6.6-4.2-13.4-6.5-20
	c-1.5-4.2-2.3-8.6-4.9-12.4c-0.3-0.5-0.9-0.9-1.4-1.1c-1.4-0.7-2.6-0.4-3.2,0.9c-1.6,4.1-3.3,8.3-4.8,12.5c-2.9,8.4-5.6,17-8.5,25.4
	c-1.2,3.3-4,4.7-7.4,5c-1.9,0.1-3.8,0.2-5.7,0.2c-9.6,0-19.1,0-28.7,0.1c-1.9,0-3.8,0.3-5.7,0.7c-0.5,0.1-0.9,0.7-1.2,1.2
	c-0.3,0.5-0.5,1.3-0.3,1.7c0.7,1.1,1.4,2.2,2.4,2.9c9.2,6.9,18.5,13.6,27.7,20.5c1.5,1.1,3,2.4,4.2,3.9c0.7,0.9,1.4,2.4,1.2,3.5
	c-0.4,3.1-1,6.3-2,9.3c-2.9,9.1-5.9,18.2-8.9,27.2C680.1,486.8,679.9,487.4,679.7,488z M784.5,128.3c-10.1-2-20.3-0.5-30.5-0.9
	c-3.8-0.2-7.6-0.2-11.5-0.4c-2.7-0.1-5-1.2-6-3.9c-1.6-4.1-3.1-8.3-4.6-12.6c-2.7-7.8-5.2-15.7-7.9-23.6c-0.4-1.2-1.2-2.2-2-3.2
	c-0.3-0.4-1.1-0.5-1.7-0.5c-0.5,0-1.4,0-1.6,0.3c-2.4,3.1-3.2,6.9-4.5,10.5c-3.1,9-6,18.2-9,27.2c-1.3,3.9-4.2,5.8-8.8,5.9
	c-4.5,0.1-8.9,0.1-13.4,0.1c-8.3,0.1-16.6,0.3-24.8,0.4c-1.6,0-2.4,0.8-2.4,2.4c0,0.6,0.2,1.3,0.5,1.6c1.3,1.3,2.7,2.7,4.2,3.8
	c7.7,5.7,15.4,11.3,23.1,17c2,1.5,4,3.1,5.9,4.9c1.4,1.3,2.1,3.1,1.8,5.2c-1.1,7.6-4.3,14.7-6.5,22c-1.8,6.1-4.3,12-5.4,18.3
	c-0.2,1,0.6,2.3,1.1,3.4c0.1,0.2,1.3,0,1.8-0.3c2.7-1.6,5.5-3.1,8.1-4.9c8.9-6.2,17.6-12.6,26.5-18.8c2.2-1.5,4.9-1.2,7.2,0.1
	c1.1,0.6,2.2,1.3,3.2,2.1c8.3,6,16.5,12,24.8,17.9c2,1.5,4.4,2.5,6.6,3.7c0.5,0.3,1.5,0.4,1.8,0.1c1-1,1.3-2.3,0.9-3.5
	c-2.8-9.1-5.8-18.2-8.6-27.3c-1.3-4.3-2.5-8.5-3.5-12.9c-0.4-1.9,0.5-3.7,2-5.1c0.9-0.9,1.8-1.8,2.8-2.6
	c7.7-5.6,15.5-11.2,23.2-16.9c2.5-1.9,5.4-3.5,7.2-6.2c0.3-0.5,0.4-1.1,0.5-1.6C784.9,129.4,784.8,128.3,784.5,128.3z M473.5,491
	c-1.6-5.5-3.3-11-5-16.4c-2.4-7.9-4.8-15.8-7.2-23.8c-0.6-2,0.4-3.8,1.7-5.2c1.3-1.4,2.8-2.6,4.3-3.8c7.7-5.7,15.5-11.2,23.2-16.9
	c2-1.5,3.9-3.2,5.8-4.9c1.1-1,1.2-2.2,0.3-3.4c-0.3-0.4-1-0.7-1.6-0.8c-9.5-1-19.1-0.3-28.7-0.5c-4.5-0.1-8.9-0.2-13.4-0.6
	c-1.8-0.2-3.6-1.1-4.4-3.2c-1.3-3.6-2.9-7.1-4.1-10.7c-2.3-6.6-4.3-13.3-6.5-20c-0.8-2.4-1.6-4.8-2.6-7.2c-0.5-1.3-1.6-1.9-2.8-2.3
	c-1.5-0.5-2.4-0.1-3,1.5c-1.5,4.2-3.1,8.3-4.6,12.6c-2.3,6.6-4.4,13.3-6.6,20c-0.6,1.8-1.2,3.6-2,5.4c-1.1,2.4-3.1,4.2-5.8,4.2
	c-10.8,0.2-21.7,0.3-32.5,0.5c-3.2,0-6.4-0.3-9.5,0.9c-0.4,0.2-0.7,1-0.8,1.5c-0.1,0.5-0.1,1.3,0.2,1.7c3.6,4.6,8.8,7.3,13.3,10.8
	c6.5,5.1,13.3,9.9,19.8,15c1.6,1.2,2.3,3.1,2,5.1c-0.4,2.5-0.8,5-1.6,7.5c-3.1,9.7-6.4,19.4-9.5,29.1c-0.6,1.8-0.6,3.7-0.8,5.6
	c0,0.6,0.3,1.4,0.7,1.7c0.3,0.3,1.2,0.2,1.7-0.1c1.7-0.8,3.6-1.4,5.1-2.5c8.3-5.9,16.5-12,24.8-18c1.5-1.1,3.1-2.3,4.8-3.2
	c2.3-1.2,4.9-1.8,7.2-0.2c8.9,6.2,17.7,12.5,26.5,18.7c2.6,1.8,5.3,3.4,8.1,5c0.5,0.3,1.2,0.2,1.9,0.3
	C473.1,493.4,473.8,492.3,473.5,491z M143,371.1c-0.8,0.9-1.6,2-2,3.2c-2.9,8.4-5.6,16.9-8.5,25.4c-1.5,4.2-3.1,8.4-4.9,12.4
	c-0.5,1-1.8,1.9-2.9,2.3c-1.8,0.6-3.7,0.8-5.6,0.8c-10.8,0.1-21.7,0.1-32.5,0.2c-1.9,0-3.8,0.4-5.6,0.8c-0.4,0.1-0.8,0.9-0.9,1.4
	c-0.2,0.5-0.3,1.3,0,1.7c0.7,1,1.5,2.1,2.5,2.8c9.2,6.8,18.5,13.6,27.7,20.4c5.5,4.1,6.1,6.1,4,13.2c-0.7,2.4-1.5,4.9-2.3,7.3
	c-2.7,8.5-5.5,17-8.2,25.5c-0.4,1.2-0.3,2.5-0.3,3.8c0,0.6,0.3,1.3,0.7,1.7c0.3,0.3,1.1,0.3,1.6,0.1c1.7-0.7,3.6-1.4,5.1-2.5
	c4.7-3.3,9.3-6.7,14-10.1c4.1-3,8.3-6,12.4-8.9c6-4.3,8.2-4.4,13.7-0.5c8.3,5.9,16.5,11.9,24.9,17.8c2.1,1.5,4.3,2.7,6.5,4
	c1.4,0.8,2.5,0.4,3-0.9c0.2-0.6,0.5-1.3,0.4-1.8c-1.6-5.5-3.3-11-4.9-16.5c-2.4-7.9-4.8-15.8-7.2-23.8c-0.6-2.1,0.3-3.8,1.6-5.2
	c1.3-1.4,2.7-2.7,4.3-3.8c7.2-5.3,14.5-10.5,21.6-15.8c2.6-1.9,4.9-4,7.4-6c1.2-1,1.4-2.1,0.5-3.4c-0.3-0.4-0.9-0.8-1.4-0.9
	c-8.9-1.1-17.8-0.3-26.7-0.6c-5.1-0.1-10.2-0.2-15.3-0.6c-1.8-0.2-3.7-1-4.5-3.1c-1.5-4.2-3.2-8.3-4.7-12.5
	c-2.9-8.4-5.6-16.9-8.6-25.4c-0.4-1-1.7-1.6-2.6-2.4C144.2,371.2,143.2,370.9,143,371.1z M689.4,746.5c-2.9,9.1-6,18.2-8.9,27.3
	c-0.6,1.8-0.9,3.7-1.2,5.6c-0.1,0.6,0.2,1.2,0.4,1.8c0.4,1.2,1.4,1.4,3,0.8c4.1-1.9,7.5-4.8,11.1-7.4c7.8-5.5,15.6-11,23.5-16.5
	c1.7-1.2,3.8-1.1,5.5-0.3c2.3,1.1,4.5,2.5,6.5,3.9c8.3,5.9,16.5,12,24.8,17.9c1.5,1.1,3.4,1.7,5.1,2.4c0.4,0.2,1.2,0,1.5-0.3
	c0.4-0.4,0.9-1.2,0.8-1.7c-1.7-9.4-5.5-18.3-8.2-27.4c-1.4-4.9-2.9-9.8-4.1-14.7c-0.2-1,0.4-2.6,1.1-3.5c1.1-1.5,2.6-2.8,4.1-4
	c8.7-6.4,17.5-12.8,26.2-19.2c1.5-1.1,2.8-2.6,4.1-4c0.3-0.3,0.3-1.1,0.2-1.7c-0.1-0.5-0.5-1.4-0.8-1.5c-1.9-0.4-3.8-0.7-5.6-0.8
	c-10.2-0.1-20.4,0-30.6-0.1c-2.5,0-5.1-0.3-7.6-0.8c-1.1-0.2-2.5-1.1-3-2.1c-1.8-4-3.5-8.2-5-12.4c-2.9-8.4-5.6-16.9-8.5-25.4
	c-0.4-1.1-1.3-2.2-2.2-3.1c-0.3-0.4-1.2-0.3-1.8-0.3c-0.5,0.1-1.2,0.3-1.5,0.7c-0.7,1-1.3,2.2-1.7,3.4c-2.5,7.2-4.8,14.5-7.3,21.7
	c-1.7,4.8-3.4,9.6-5.2,14.4c-0.7,2-2.5,2.9-4.4,3.3c-2.5,0.5-5.1,0.6-7.6,0.6c-8.9,0.1-17.9,0-26.8,0.1c-2.5,0-5.1,0.3-7.6,0.5
	c-0.5,0.1-1.2,0.4-1.5,0.8c-1,1.2-0.8,2.4,0.3,3.4c7.6,6.9,16.3,12.2,24.4,18.4c3,2.3,6,4.7,8.9,7.2c0.9,0.8,1.1,2.2,1.8,3.7
	C690.9,740.3,690.3,743.4,689.4,746.5z M473.4,780.3c-0.6-5.7-2.7-11-4.4-16.5c-2.7-8.5-6-16.8-7.7-25.6c-0.2-1.1,0.2-2.6,0.9-3.6
	c1.1-1.5,2.5-2.9,4-4c5.6-4.2,11.4-8.2,17-12.4c4.1-3,8.2-6.1,12.2-9.2c1.1-0.8,1.6-2,1.6-3.2c0-1.6-0.9-2.2-2.5-2.3
	c-2.5,0-5.1-0.3-7.6-0.3c-7.7,0-15.3,0-23,0c-3.2,0-6.4-0.2-9.5-0.4c-2.7-0.2-4.9-1.3-6-4c-1.6-4.1-3.1-8.4-4.6-12.6
	c-2.7-7.8-5.2-15.7-7.9-23.6c-0.4-1.2-1.2-2.2-2.1-3.1c-0.3-0.4-1.1-0.4-1.7-0.5c-0.5,0-1.3,0-1.6,0.4c-2.6,3.7-3.7,8.1-5.1,12.3
	c-3,9.1-5.6,18.3-9.2,27.1c-0.8,2-2.5,3.1-4.3,3.5c-2.5,0.6-5,0.7-7.6,0.7c-8.9,0.1-17.9,0-26.8,0.1c-2.5,0-5.1,0.3-7.6,0.4
	c-1.5,0.1-2.4,0.9-2.3,2.5c0,0.6,0.2,1.3,0.6,1.6c5,5,11,8.6,16.5,12.9c5.6,4.2,11.6,7.9,16.6,12.8c1.4,1.3,2.2,3.2,1.7,5.2
	c-0.9,3.7-1.8,7.4-3,11.1c-2.7,8.5-5.5,17-8.3,25.5c-0.4,1.2-0.7,2.5-0.7,3.7c0.1,1.1,0.6,2.2,1.2,3.2c0.1,0.2,1.2-0.1,1.8-0.3
	c3.7-1.3,6.6-3.9,9.7-6.1c8.3-5.9,16.6-11.9,25-17.7c2.2-1.5,5-1.2,7.2,0.2c3.2,2,6.3,4.3,9.4,6.5c6.7,4.8,13.4,9.8,20.1,14.6
	c1.5,1.1,3.4,1.8,5.1,2.5c0.5,0.2,1.2,0,1.8,0C472.9,781.5,473.5,780.9,473.4,780.3z M392,205.7c0.7,0.7,2.1,0.6,3.3-0.2
	c9.8-6,18.7-13.2,28.1-19.9c8.5-6,9.5-6,18.4,0.4c6.7,4.8,13.4,9.8,20.1,14.6c2.6,1.8,5.3,3.5,8,5.2c1.4,0.8,2.5,0.4,3.1-0.7
	c0.2-0.6,0.6-1.2,0.5-1.8c-0.4-1.9-0.9-3.7-1.4-5.5c-3.2-10.3-6.5-20.7-9.7-31c-0.6-1.8-0.9-3.7-1.2-5.6c-0.1-0.6,0.3-1.3,0.6-1.8
	c1.2-1.5,2.3-3.1,3.7-4.2c8.2-6.1,16.5-12,24.7-18.1c1.5-1.1,3-2.3,4.5-3.5c2.1-1.6,3-3.9,2-4.8c-0.9-0.7-1.8-1.4-3.2-1.4
	c-10.2-0.1-20.4-0.1-30.6-0.2c-3.2,0-6.4-0.1-9.5-0.6c-1.8-0.2-3.7-1-4.5-3c-1.6-4.2-3.3-8.3-4.7-12.5c-2.7-7.8-5.2-15.7-7.9-23.6
	c-0.4-1.2-1.1-2.3-1.8-3.3c-0.3-0.5-0.9-0.7-1.5-1c-1.5-0.7-2.4-0.3-3.1,1.1c-3.8,8.1-5.8,16.9-8.8,25.2c-1.7,4.8-3.5,9.6-5.4,14.3
	c-0.4,1-1.7,2-2.8,2.3c-1.8,0.6-3.7,0.9-5.6,0.9c-10.8,0.1-21.7,0.1-32.5,0.2c-1.9,0-3.8,0.4-5.7,0.7c-0.4,0.1-0.8,0.8-1,1.3
	c-0.2,0.5-0.4,1.3-0.1,1.7c0.7,1,1.5,2.1,2.5,2.9c9.2,6.8,18.5,13.6,27.7,20.4c1.5,1.1,3,2.4,4.1,3.9c0.7,0.9,1.3,2.4,1.1,3.5
	c-0.7,3.7-1.5,7.5-2.7,11.1c-3,9.7-6.4,19.3-8.5,26.3C390.8,203.4,391.1,204.8,392,205.7z M206.3,703.6c-11.5-0.1-23-0.1-34.4-0.3
	c-2.5,0-5.1-0.3-7.6-0.8c-1.1-0.2-2.5-1.1-3-2.1c-1.8-4-3.5-8.2-5-12.4c-2.9-8.4-5.6-16.9-8.5-25.4c-0.4-1.1-1.3-2.2-2.1-3.1
	c-0.3-0.4-1.2-0.4-1.8-0.3c-0.5,0.1-1.2,0.3-1.5,0.7c-0.7,1-1.4,2.2-1.8,3.3c-2.5,7.2-4.8,14.5-7.3,21.7c-1.7,4.8-3.4,9.6-5.2,14.4
	c-0.7,2-2.5,2.9-4.4,3.3c-2.5,0.5-5.1,0.6-7.6,0.6c-8.9,0.1-17.9,0-26.8,0.1c-2.5,0-5.1,0.3-7.6,0.5c-0.5,0.1-1.2,0.4-1.5,0.8
	c-1,1.2-0.9,2.5,0.3,3.4c2.4,2,4.8,4.1,7.4,6c7.7,5.7,15.5,11.3,23.1,17c5.5,4,4.7,6.2,3.4,11.7c-0.6,2.5-1.4,4.9-2.2,7.3
	c-2.7,8.5-5.5,17-8.3,25.5c-0.4,1.2-0.5,2.5-0.6,3.7c-0.1,0.6,0.2,1.2,0.4,1.8c0.4,1.2,1.5,1.6,2.9,0.8c2.7-1.6,5.5-3.3,8-5.1
	c7.8-5.5,15.5-11.2,23.3-16.8c5-3.6,7.6-3.6,12.1-0.4c3.7,2.6,7.3,5.2,10.9,7.8c5.7,4.1,11.3,8.3,17.1,12.3c1.5,1.1,3.4,1.7,5.1,2.4
	c0.4,0.2,1.2,0,1.6-0.3c0.4-0.4,0.9-1.2,0.8-1.7c-1.7-9.4-5.5-18.3-8.2-27.4c-1.4-4.9-2.9-9.8-4.1-14.7c-0.3-1,0.4-2.6,1.1-3.5
	c1.1-1.5,2.6-2.9,4.1-4c8.7-6.4,17.5-12.8,26.2-19.2c1.5-1.1,2.8-2.6,4.1-3.9c0.3-0.3,0.2-1.1,0.2-1.7
	C208.7,704.3,207.8,703.6,206.3,703.6z M185.3,201.3c-3.6-11.6-7.3-23.1-10.9-34.6c-0.6-1.8-0.9-3.7-1.1-5.6
	c-0.1-0.6,0.3-1.3,0.7-1.8c1.2-1.5,2.3-3.1,3.8-4.2c7.1-5.4,14.4-10.5,21.6-15.8c3.1-2.3,6-4.7,9-7.1c1.2-1,1.4-2.1,0.5-3.4
	c-0.3-0.4-0.9-0.8-1.4-0.9c-8.9-1.1-17.8-0.3-26.7-0.6c-5.1-0.1-10.2-0.2-15.3-0.6c-1.8-0.2-3.7-1-4.5-3.1
	c-1.5-4.2-3.2-8.3-4.7-12.5c-2.7-7.8-5.2-15.7-7.9-23.6c-0.4-1.2-1.1-2.3-1.9-3.3c-0.3-0.4-1-0.6-1.5-0.9c-1.5-0.8-2.5-0.3-3,1.3
	c-1.5,4.2-3.2,8.3-4.6,12.5c-2.7,7.8-5.2,15.7-7.9,23.6c-0.4,1.2-0.9,2.4-1.7,3.4c-0.8,0.9-1.8,1.9-2.9,2.3
	c-1.8,0.6-3.7,0.8-5.6,0.8c-10.8,0.1-21.7,0.1-32.5,0.2c-1.9,0-3.8,0.4-5.6,0.8c-0.4,0.1-0.8,0.9-0.9,1.4c-0.2,0.5-0.2,1.2,0,1.7
	c1.2,2.4,3.5,3.6,5.6,5.1c8.2,6.1,16.5,12,24.7,18.1c5.5,4.1,6.1,6.1,4,13.2c-0.7,2.4-1.5,4.9-2.3,7.3c-2.7,8.5-5.5,17-8.2,25.5
	c-0.4,1.2-0.3,2.5-0.3,3.8c0,0.6,0.3,1.3,0.7,1.7c0.3,0.3,1.1,0.3,1.6,0.1c1.7-0.7,3.6-1.4,5.1-2.5c6.3-4.4,12.4-9,18.6-13.4
	c3.1-2.2,6.2-4.5,9.4-6.6c4-2.8,7-3,10.5-0.5c8.3,5.9,16.6,11.9,24.9,17.8c2.6,1.8,5.3,3.5,8,5.1c1.4,0.8,2.5,0.4,3-0.9
	C185.2,203.8,185.6,202.4,185.3,201.3z M536.1,564.9c1.9,0.6,3.9,0.4,5.5-0.7c7.3-5.2,14.5-10.5,21.9-15.6c3.1-2.2,6.3-4.4,9.6-6.4
	c2.4-1.4,5-1.3,7.2,0.3c4.8,3.2,9.5,6.6,14.2,9.9c6.3,4.4,12.5,8.9,18.8,13.2c1.2,0.8,2.5,0.5,3.3-0.4c0.4-0.4,0.7-1.2,0.7-1.7
	c-0.4-2.5-0.7-5.1-1.5-7.5c-2.9-9.1-6-18.2-9-27.3c-0.6-1.8-1-3.7-1.3-5.6c-0.2-1.9,0.1-3.9,1.5-5.3c1.3-1.4,2.7-2.7,4.3-3.8
	c8.2-6.1,16.5-12.1,24.7-18.2c1.5-1.1,2.8-2.6,4-4.1c0.3-0.3,0-1.2-0.1-1.7c-0.2-0.5-0.5-1.1-1-1.4c-1.7-1-3.7-1-5.6-1
	c-10.9-0.1-21.8-0.1-32.6-0.3c-5.1-0.1-7.9-2.3-9.8-7.6c-0.4-1.2-0.8-2.4-1.2-3.7c-2.6-7.9-5.1-15.8-7.7-23.7c-1-3-2.2-6-3.5-8.9
	c-0.6-1.5-1.7-1.9-2.7-1.4c-0.5,0.3-1.1,0.8-1.4,1.3c-1.1,2.3-2.3,4.6-3.1,7c-3,9.1-5.8,18.3-8.9,27.4c-0.8,2.4-2.3,4.5-3.5,6.8
	c-0.7,1.2-1.7,1.9-3.1,2.1c-2.5,0.3-5.1,0.8-7.6,0.8c-7.7,0.1-15.4,0-23,0.1c-3.2,0-6.4,0.2-9.6,0.4c-1.5,0.1-2.4,0.9-2.8,2.1
	c-0.5,1.3-0.3,2.4,0.9,3.3c7.7,5.8,15.4,11.5,23,17.3c3,2.3,6,4.7,8.9,7.2c1.5,1.3,2.1,3.4,1.6,5.3c-1.5,5.6-3.2,11-4.9,16.5
	c-2.1,6.7-4.2,13.4-6.2,20.1c-0.6,1.9-0.2,3.8,0.4,5.6L536.1,564.9z M248.1,276.9c1.9,0.6,3.9,0.4,5.5-0.7
	c7.3-5.2,14.5-10.5,21.8-15.6c3.1-2.2,6.3-4.4,9.6-6.4c2.4-1.4,5-1.3,7.2,0.3c4.8,3.2,9.5,6.6,14.2,9.9c6.3,4.4,12.5,8.9,18.8,13.2
	c1.2,0.8,2.5,0.5,3.3-0.4c0.4-0.4,0.7-1.2,0.7-1.7c-0.4-2.5-0.7-5.1-1.5-7.5c-2.9-9.1-6-18.2-9-27.3c-0.6-1.8-1-3.7-1.3-5.6
	c-0.2-1.9,0.1-3.9,1.5-5.3c1.3-1.4,2.7-2.7,4.3-3.8c8.2-6.1,16.5-12.1,24.7-18.2c1.5-1.1,2.8-2.6,4-4.1c0.3-0.3,0-1.2-0.1-1.7
	c-0.2-0.5-0.5-1.1-1-1.4c-1.7-1-3.7-1-5.6-1c-10.9-0.1-21.8-0.1-32.6-0.3c-5.1-0.1-7.9-2.3-9.8-7.6c-0.4-1.2-0.8-2.4-1.2-3.7
	c-2.6-7.9-5.1-15.8-7.7-23.7c-1-3-2.2-6-3.5-8.9c-0.6-1.5-1.7-1.9-2.7-1.4c-0.5,0.3-1.1,0.8-1.4,1.3c-1.1,2.3-2.3,4.6-3.1,7
	c-3,9.1-5.8,18.3-8.9,27.4c-0.8,2.4-2.3,4.5-3.5,6.8c-0.7,1.2-1.7,1.9-3.1,2.1c-2.5,0.3-5.1,0.8-7.6,0.8c-7.7,0.1-15.4,0-23,0.1
	c-3.2,0-6.4,0.2-9.6,0.4c-1.5,0.1-2.4,0.9-2.8,2.1c-0.5,1.3-0.3,2.4,0.9,3.3c7.7,5.8,15.4,11.5,23,17.3c3,2.3,6,4.7,8.9,7.2
	c1.5,1.3,2.1,3.4,1.6,5.3c-1.5,5.6-3.2,11-4.9,16.5c-2.1,6.7-4.2,13.4-6.2,20.1c-0.6,1.9-0.2,3.8,0.4,5.6L248.1,276.9z M536.1,852.9
	c1.9,0.6,3.9,0.4,5.5-0.7c7.3-5.2,14.5-10.5,21.9-15.6c3.1-2.2,6.3-4.4,9.6-6.4c2.4-1.4,5-1.3,7.2,0.3c4.8,3.2,9.5,6.6,14.2,9.9
	c6.3,4.4,12.5,8.9,18.8,13.2c1.2,0.8,2.5,0.5,3.3-0.4c0.4-0.4,0.7-1.2,0.7-1.7c-0.4-2.5-0.7-5.1-1.5-7.5c-2.9-9.1-6-18.2-9-27.3
	c-0.6-1.8-1-3.7-1.3-5.6c-0.2-1.9,0.1-3.9,1.5-5.3c1.3-1.4,2.7-2.7,4.3-3.8c8.2-6.1,16.5-12.1,24.7-18.2c1.5-1.1,2.8-2.6,4-4.1
	c0.3-0.3,0-1.2-0.1-1.7c-0.2-0.5-0.5-1.1-1-1.4c-1.7-1-3.7-1-5.6-1c-10.9-0.1-21.8-0.1-32.6-0.3c-5.1-0.1-7.9-2.3-9.8-7.6
	c-0.4-1.2-0.8-2.4-1.2-3.7c-2.6-7.9-5.1-15.8-7.7-23.7c-1-3-2.2-6-3.5-8.9c-0.6-1.5-1.7-1.9-2.7-1.4c-0.5,0.3-1.1,0.8-1.4,1.3
	c-1.1,2.3-2.3,4.6-3.1,7c-3,9.1-5.8,18.3-8.9,27.4c-0.8,2.4-2.3,4.5-3.5,6.8c-0.7,1.2-1.7,1.9-3.1,2.1c-2.5,0.3-5.1,0.8-7.6,0.8
	c-7.7,0.1-15.4,0-23,0.1c-3.2,0-6.4,0.2-9.6,0.4c-1.5,0.1-2.4,0.9-2.8,2.1c-0.5,1.3-0.3,2.4,0.9,3.3c7.7,5.8,15.4,11.5,23,17.3
	c3,2.3,6,4.7,8.9,7.2c1.5,1.3,2.1,3.4,1.6,5.3c-1.5,5.6-3.2,11-4.9,16.5c-2.1,6.7-4.2,13.4-6.2,20.1c-0.6,1.9-0.2,3.8,0.4,5.6
	L536.1,852.9z M536.1,276.9c1.9,0.6,3.9,0.4,5.5-0.7c7.3-5.2,14.5-10.5,21.9-15.6c3.1-2.2,6.3-4.4,9.6-6.4c2.4-1.4,5-1.3,7.2,0.3
	c4.8,3.2,9.5,6.6,14.2,9.9c6.3,4.4,12.5,8.9,18.8,13.2c1.2,0.8,2.5,0.5,3.3-0.4c0.4-0.4,0.7-1.2,0.7-1.7c-0.4-2.5-0.7-5.1-1.5-7.5
	c-2.9-9.1-6-18.2-9-27.3c-0.6-1.8-1-3.7-1.3-5.6c-0.2-1.9,0.1-3.9,1.5-5.3c1.3-1.4,2.7-2.7,4.3-3.8c8.2-6.1,16.5-12.1,24.7-18.2
	c1.5-1.1,2.8-2.6,4-4.1c0.3-0.3,0-1.2-0.1-1.7c-0.2-0.5-0.5-1.1-1-1.4c-1.7-1-3.7-1-5.6-1c-10.9-0.1-21.8-0.1-32.6-0.3
	c-5.1-0.1-7.9-2.3-9.8-7.6c-0.4-1.2-0.8-2.4-1.2-3.7c-2.6-7.9-5.1-15.8-7.7-23.7c-1-3-2.2-6-3.5-8.9c-0.6-1.5-1.7-1.9-2.7-1.4
	c-0.5,0.3-1.1,0.8-1.4,1.3c-1.1,2.3-2.3,4.6-3.1,7c-3,9.1-5.8,18.3-8.9,27.4c-0.8,2.4-2.3,4.5-3.5,6.8c-0.7,1.2-1.7,1.9-3.1,2.1
	c-2.5,0.3-5.1,0.8-7.6,0.8c-7.7,0.1-15.4,0-23,0.1c-3.2,0-6.4,0.2-9.6,0.4c-1.5,0.1-2.4,0.9-2.8,2.1c-0.5,1.3-0.3,2.4,0.9,3.3
	c7.7,5.8,15.4,11.5,23,17.3c3,2.3,6,4.7,8.9,7.2c1.5,1.3,2.1,3.4,1.6,5.3c-1.5,5.6-3.2,11-4.9,16.5c-2.1,6.7-4.2,13.4-6.2,20.1
	c-0.6,1.9-0.2,3.8,0.4,5.6L536.1,276.9z M248.1,564.9c1.9,0.6,3.9,0.4,5.5-0.7c7.3-5.2,14.5-10.5,21.9-15.6c3.1-2.2,6.3-4.4,9.6-6.4
	c2.4-1.4,5-1.3,7.2,0.3c4.8,3.2,9.5,6.6,14.2,9.9c6.3,4.4,12.5,8.9,18.8,13.2c1.2,0.8,2.5,0.5,3.3-0.4c0.4-0.4,0.7-1.2,0.7-1.7
	c-0.4-2.5-0.7-5.1-1.5-7.5c-2.9-9.1-6-18.2-9-27.3c-0.6-1.8-1-3.7-1.3-5.6c-0.2-1.9,0.1-3.9,1.5-5.3c1.3-1.4,2.7-2.7,4.3-3.8
	c8.2-6.1,16.5-12.1,24.7-18.2c1.5-1.1,2.8-2.6,4-4.1c0.3-0.3,0-1.2-0.1-1.7c-0.2-0.5-0.5-1.1-1-1.4c-1.7-1-3.7-1-5.6-1
	c-10.9-0.1-21.8-0.1-32.6-0.3c-5.1-0.1-7.9-2.3-9.8-7.6c-0.4-1.2-0.8-2.4-1.2-3.7c-2.6-7.9-5.1-15.8-7.7-23.7c-1-3-2.2-6-3.5-8.9
	c-0.6-1.5-1.7-1.9-2.7-1.4c-0.5,0.3-1.1,0.8-1.4,1.3c-1.1,2.3-2.3,4.6-3.1,7c-3,9.1-5.8,18.3-8.9,27.4c-0.8,2.4-2.3,4.5-3.5,6.8
	c-0.7,1.2-1.7,1.9-3.1,2.1c-2.5,0.3-5.1,0.8-7.6,0.8c-7.7,0.1-15.4,0-23,0.1c-3.2,0-6.4,0.2-9.6,0.4c-1.5,0.1-2.4,0.9-2.8,2.1
	c-0.5,1.3-0.3,2.4,0.9,3.3c7.7,5.8,15.4,11.5,23,17.3c3,2.3,6,4.7,8.9,7.2c1.5,1.3,2.1,3.4,1.6,5.3c-1.5,5.6-3.2,11-4.9,16.5
	c-2.1,6.7-4.2,13.4-6.2,20.1c-0.6,1.9-0.2,3.8,0.4,5.6L248.1,564.9z M248.1,852.9c1.9,0.6,3.9,0.4,5.5-0.7
	c7.3-5.2,14.5-10.5,21.9-15.6c3.1-2.2,6.3-4.4,9.6-6.4c2.4-1.4,5-1.3,7.2,0.3c4.8,3.2,9.5,6.6,14.2,9.9c6.3,4.4,12.5,8.9,18.8,13.2
	c1.2,0.8,2.5,0.5,3.3-0.4c0.4-0.4,0.7-1.2,0.7-1.7c-0.4-2.5-0.7-5.1-1.5-7.5c-2.9-9.1-6-18.2-9-27.3c-0.6-1.8-1-3.7-1.3-5.6
	c-0.2-1.9,0.1-3.9,1.5-5.3c1.3-1.4,2.7-2.7,4.3-3.8c8.2-6.1,16.5-12.1,24.7-18.2c1.5-1.1,2.8-2.6,4-4.1c0.3-0.3,0-1.2-0.1-1.7
	c-0.2-0.5-0.5-1.1-1-1.4c-1.7-1-3.7-1-5.6-1c-10.9-0.1-21.8-0.1-32.6-0.3c-5.1-0.1-7.9-2.3-9.8-7.6c-0.4-1.2-0.8-2.4-1.2-3.7
	c-2.6-7.9-5.1-15.8-7.7-23.7c-1-3-2.2-6-3.5-8.9c-0.6-1.5-1.7-1.9-2.7-1.4c-0.5,0.3-1.1,0.8-1.4,1.3c-1.1,2.3-2.3,4.6-3.1,7
	c-3,9.1-5.8,18.3-8.9,27.4c-0.8,2.4-2.3,4.5-3.5,6.8c-0.7,1.2-1.7,1.9-3.1,2.1c-2.5,0.3-5.1,0.8-7.6,0.8c-9.6,0.1-19.2,0.1-28.8,0.2
	c-1.9,0-3.8,0.5-5.6,1c-0.4,0.1-0.8,0.8-1,1.4c-0.2,0.5-0.4,1.3-0.2,1.7c0.7,1.1,1.5,2.2,2.5,2.9c7.7,5.7,15.5,11.3,23.2,17.1
	c2.6,1.9,5,4,7.3,6.1c1.5,1.4,2.1,3.4,1.6,5.3c-1.5,5.6-3.2,11-4.9,16.5c-2.1,6.7-4.2,13.4-6.2,20.1c-0.6,1.9-0.2,3.8,0.4,5.6
	L248.1,852.9z M433.1-0.7c-9.6,0-19.1,0-28.7,0c-3.2,0-6.4,0.2-9.6,0.2c-2.4,0.1-4.4,1.5-4.3,2.9c0.1,1.2,0.5,2.3,1.6,3.2
	c3,2.4,6,4.7,8.9,7.2c2.1,1.8,2.6,4.3,2,6.9c-0.7,3.1-1.5,6.2-2.5,9.2c-2.7,8.5-5.6,16.9-8.3,25.4c-0.4,1.2-0.7,2.5-1,3.7
	c-0.4,1.4-0.2,2.6,0.9,3.5c0.9,0.7,2.2,0.7,3.4-0.1c5.8-4,11.5-8,17.2-12c23.9-16.6,15.4-16.7,40,0.5c4.7,3.3,9.3,6.7,14,10
	c1,0.7,2.2,1.4,3.3,1.9c1.4,0.6,2.6,0.3,3.2-0.8c0.3-0.5,0.6-1.2,0.5-1.7c-2.4-7.9-4.8-15.8-7.2-23.7c-1.3-4.3-2.6-8.5-4.1-12.7
	c-2-5.9-1-8.4,3.1-11.7c3-2.4,6.4-4.3,8.6-7.5c0.3-0.4,0.2-1.2,0-1.7c-0.2-0.5-0.5-1.2-0.9-1.4c-1.7-1.1-3.6-1.1-5.5-1.2
	C456.1-0.6,444.6-0.6,433.1-0.7C433.1-0.6,433.1-0.6,433.1-0.7z M145.3-0.6c-12.1,0-24.2-0.1-36.3,0.1c-1.8,0-3.8,0.5-5.5,1.3
	c-1.1,0.6-1.2,2.3-0.5,3.2c2.6,3.8,6.9,5.6,10.1,8.7c2,2,2.6,4.3,2.1,6.9c-0.7,3.1-1.5,6.2-2.5,9.2c-2.9,9.1-6,18.2-8.9,27.2
	c-0.4,1.2-0.5,2.5-0.5,3.8c0,0.5,0.4,1.2,0.9,1.6c0.4,0.3,1.1,0.6,1.5,0.5c1.2-0.3,2.6-0.6,3.5-1.3c10.4-7.4,20.7-14.9,31.1-22.3
	c2.8-2,5.7-1.8,8.9,0.3c2.6,1.8,5.2,3.6,7.8,5.5c6.7,4.8,13.4,9.7,20.2,14.5c1.5,1.1,3.2,2.1,4.9,3c1.3,0.7,2.5,0.4,3.2-0.6
	c0.3-0.5,0.7-1.2,0.6-1.7c-3-9.7-6.1-19.4-9.1-29.2c-1.1-3.7-2.3-7.3-3.1-11c-0.6-2.6,0.4-4.9,2.5-6.8c3.3-3,7.5-5,10.1-8.7
	c0.3-0.4,0.2-1.2,0.1-1.7c-0.1-0.5-0.4-1.2-0.9-1.5c-1.7-1.1-3.6-1.2-5.5-1.2C168.2-0.6,156.7-0.6,145.3-0.6
	C145.3-0.6,145.3-0.6,145.3-0.6z M721-0.6c-10.8,0-21.7,0-32.5,0c-2.5,0-5,0.4-7.6,0.7c-1.6,0.1-2.4,1-2.3,2.6
	c0,0.6,0.2,1.2,0.5,1.6c2.3,3.2,5.7,5,8.7,7.4c3.5,2.8,4.1,6.2,2.9,10.2c-0.7,2.4-1.3,4.9-2.1,7.3c-2.8,8.5-5.6,16.9-8.3,25.4
	c-0.6,1.8-0.8,3.7-1,5.6c-0.1,0.5,0.5,1.2,1,1.5c0.4,0.3,1.1,0.4,1.6,0.3c1.2-0.4,2.5-0.7,3.5-1.4c9.8-7,19.6-14.2,29.5-21.3
	c4-2.9,6.8-3,10.5-0.4c4.7,3.3,9.3,6.7,14,10c5.2,3.7,10.3,7.5,15.5,11.1c1,0.7,2.2,1.3,3.3,1.8c0.6,0.2,1.3,0.3,1.9,0.2
	c1.2-0.4,2.1-1.5,1.7-2.8c-3.4-11-6.9-21.9-10.3-32.8c-0.8-2.4-1.5-4.9-2-7.4c-0.4-1.9,0.1-3.9,1.4-5.3c3.4-3.8,8.4-5.9,11.4-10.1
	c0.3-0.4,0.1-1.2-0.1-1.7c-0.2-0.5-0.6-1.2-1-1.4c-1.2-0.5-2.4-1-3.6-1c-12.1-0.1-24.2,0-36.3,0C721-0.5,721-0.6,721-0.6z M0.3,60.9
	c0,7.7,0,15.3,0,23c0,6.4,0.1,12.8,0.4,19.2c0.1,2.6,1.5,4.9,3.5,6.6c10.6,8.3,21.3,16.3,32.6,23.5c1.2,0.8,2.6,0.4,3.2-0.5
	c0.4-0.5,0.8-1.2,0.8-1.7c-0.3-2.5-0.6-5.1-1.4-7.5c-2.9-9.1-6-18.2-8.9-27.3c-0.6-1.8-0.8-3.7-1.1-5.6c-0.3-2,0.5-3.9,1.8-5.2
	c1.8-1.8,3.8-3.4,5.9-4.9c7.7-5.7,15.5-11.3,23.2-17c1.5-1.1,3.1-2.2,4-4c0.2-0.5,0.5-1.2,0.4-1.7c-0.2-1.5-1.1-2.3-2.5-2.4
	c-6.4-0.2-12.8-0.3-19.1-0.4c-7-0.1-14.1-0.1-21.1-0.4c-2.7-0.1-4.7-1.8-5.9-4.2c-0.8-1.7-1.5-3.5-2.1-5.3
	c-2.6-7.9-5.2-15.8-7.8-23.6c-0.4-1.1-1.2-2.2-1.9-3.1c-0.3-0.3-1.1-0.4-1.6-0.3c-0.5,0.1-1.2,0.5-1.5,0.9c-0.4,0.5-0.6,1.2-0.6,1.8
	c0,13.4,0,26.8,0,40.2C0.4,60.9,0.4,60.9,0.3,60.9z M0.6,308.3c0,27.5-0.1,54.9,0,82.4c0,2.6,1.3,5,3.4,6.6
	c10.5,8.4,21.3,16.3,32.5,23.6c1.2,0.8,2.6,0.7,3.4,0c1-0.9,1.2-2.3,0.9-3.6c-0.4-1.9-0.6-3.8-1.2-5.6c-2.9-9.1-6-18.2-8.9-27.3
	c-0.6-1.8-0.9-3.7-1.2-5.6c-0.3-2,0.3-3.9,1.6-5.3c1.2-1.4,2.7-2.7,4.3-3.8c6.2-4.5,12.4-9,18.6-13.5c2.6-1.9,5.2-3.8,7.7-5.7
	c1-0.8,1.8-1.7,2.6-2.7c0.4-0.5,0.8-1.2,0.7-1.7c-0.2-1.4-1-2.5-2.3-2.6c-9.6-1-19.1-0.4-28.7-0.5c-16.9-0.2-16.5,1-21.5-15.1
	c-1.9-6.1-4-12.1-6-18.2c-0.4-1.2-1.1-2.3-1.8-3.3c-0.3-0.4-1-0.5-1.6-0.7C1.5,305.9,0.6,306.8,0.6,308.3z M0.5,637.1
	c0,13.4,0,26.8,0,40.2c0,3.4,1.2,6.4,3.9,8.4c10.6,8.2,21.2,16.4,32.6,23.5c1.3,0.8,2.6,0.3,3.2-0.7c0.3-0.5,0.7-1.2,0.7-1.7
	c-0.2-1.9-0.2-3.9-0.8-5.7c-3.1-9.7-6.4-19.4-9.5-29.1c-0.6-1.8-0.8-3.7-1.1-5.6c-0.3-2,0.6-3.8,1.9-5.2c1.8-1.8,3.9-3.3,5.9-4.9
	c6.7-4.9,13.4-9.8,20.1-14.7c2.1-1.5,4.1-3,5.9-4.8c0.8-0.8,1.2-2.2,1.2-3.3c0.1-1.5-1-2.2-2.5-2.3c-7.7-0.1-15.3-0.2-23-0.4
	c-5.7-0.1-11.5-0.1-17.2-0.4c-2.7-0.1-4.6-1.9-5.8-4.3c-0.8-1.7-1.5-3.5-2.1-5.3c-2.9-8.5-5.6-17-8.5-25.4c-0.2-0.5-0.8-1-1.3-1.3
	c-0.5-0.2-1.1-0.3-1.6-0.2c-0.5,0.2-1.1,0.6-1.4,1c-0.3,0.5-0.6,1.2-0.6,1.8C0.5,610.3,0.5,623.7,0.5,637.1
	C0.5,637.1,0.5,637.1,0.5,637.1z M0.3,491.2c0,12.1,0,24.2,0,36.4c0,2.5,0.1,5.1,0.4,7.6c0.3,2.6,1.5,5,3.6,6.5
	c10.8,8,21.6,15.8,32.5,23.6c0.5,0.3,1.2,0.5,1.8,0.6c0.6,0,1.3,0,1.7-0.3c0.5-0.3,0.9-1.1,0.9-1.6c0.1-6.6-3.3-12.3-5-18.4
	c-2-7.4-5.1-14.4-6.7-21.9c-0.6-2.7,0.5-5,2.3-7c0.8-0.9,1.9-1.7,3-2.4c8.2-6,16.5-12.1,24.7-18.1c1.5-1.1,2.8-2.5,4.2-3.9
	c0.4-0.4,0.4-1.1,0.5-1.6c0.1-1.6-0.7-2.3-2.3-2.6c-6.3-1-12.7-0.4-19.1-0.6c-7-0.2-14-0.4-21-0.6c-2.1-0.1-3.5-1.6-4.6-3.1
	c-1.1-1.5-2-3.3-2.6-5.1c-3.3-9.6-6.5-19.3-9.8-28.9c-0.2-0.5-1-1-1.6-1c-1.6-0.1-2.5,0.7-2.5,2.2c-0.2,13.4-0.3,26.8-0.5,40.2
	C0.2,491.2,0.3,491.2,0.3,491.2z M0.3,789.5c0.1,10.8,0.1,21.7,0.3,32.5c0.1,3.4,1.7,6.2,4.3,8.2c10.6,8.1,21.4,16.2,32.6,23.4
	c1.2,0.8,2.5,0.3,3.2-0.7c0.3-0.5,0.6-1.2,0.5-1.7c-0.4-2.5-0.8-5-1.6-7.5c-2.9-9.1-6-18.2-8.9-27.3c-0.6-1.8-1-3.7-1.2-5.6
	c-0.2-1.9,0.1-3.9,1.6-5.3c1.8-1.7,3.8-3.4,5.8-4.9c7.7-5.7,15.5-11.3,23.1-17c1.5-1.1,2.8-2.6,4-4.1c0.3-0.3,0-1.2-0.2-1.7
	c-0.2-0.5-0.6-1.2-1-1.3c-1.2-0.4-2.4-0.9-3.7-0.9c-10.2-0.1-20.4-0.1-30.6-0.3c-2.5,0-5.1-0.3-7.6-0.8c-1.1-0.2-2.3-1.1-3.1-2
	c-1.2-1.5-2.3-3.1-2.9-4.9c-3.1-9.1-6-18.2-9-27.3c-0.4-1.1-1.2-2.2-1.9-3.1C3.8,737,3,736.9,2.4,737s-1.4,0.5-1.4,0.9
	c-1.7,14-0.2,28-0.7,39.4C0.3,783.1,0.3,786.3,0.3,789.5z M0.3,236.9c0,3.2,0.1,6.4,0.3,9.6c0.1,2.7,1.2,5.2,3.2,6.8
	c11,8.6,22.2,17.1,34.1,24.6c0.5,0.3,1.3,0.2,1.9,0c1.1-0.6,1.7-1.7,1.5-3.1c-0.3-1.9-0.5-3.8-1.1-5.6c-2.3-7.3-4.7-14.6-7.1-21.8
	c-5.7-17.1-5.6-15.6,8.9-26.3c2.1-1.5,4.1-3,6.2-4.5c1.5-1.1,3.1-2.2,4.7-3.4c11-8.1,13-10.2,11-11.7c-4.4-3.4-9.7-1.7-14.6-1.9
	c-6.4-0.3-12.8-0.1-19.1-0.1c-2.5,0-5.1-0.1-7.6-0.4c-2.7-0.3-4.7-1.9-5.9-4.2c-0.9-1.7-1.7-3.4-2.3-5.2c-3-9.1-6-18.2-9.1-27.2
	c-0.2-0.5-0.8-1-1.4-1.2c-0.5-0.2-1.2-0.2-1.7,0c-0.5,0.2-1.1,0.7-1.2,1.2c-1.3,14-0.1,28-0.6,39.2C0.3,215.2,0.3,226.1,0.3,236.9z
	 M863.8,638.7c0-7.7,0.1-15.3,0-23c-0.1-6.4-0.3-12.8-0.5-19.1c-0.1-1.6-1.2-2.3-2.5-1.9c-0.5,0.2-1.2,0.6-1.3,1
	c-2.6,7.2-5.1,14.4-7.6,21.7c-1.1,3-2.1,6-3.3,9c-1.1,2.5-3,4.2-5.8,4.3c-7,0.2-14,0.2-21.1,0.4c-7,0.1-14,0.3-21,0.5
	c-0.4,0-1,0.6-1.2,1.1c-0.2,0.5-0.5,1.3-0.2,1.7c0.6,1.1,1.3,2.2,2.3,3c8.7,6.5,17.5,12.9,26.2,19.3c1.5,1.1,3,2.3,4.6,3.5
	c2.8,2.2,3.9,5.3,2.9,8.4c-3.1,9.7-6.4,19.4-9.4,29.2c-1.1,3.6-1.8,7.4-2.5,11.1c-0.1,0.4,0.7,1.1,1.2,1.3c0.5,0.3,1.4,0.4,1.9,0.2
	c11.8-7.6,23.1-15.9,34.1-24.7c2.1-1.7,3-4.1,3.2-6.7c0.1-1.9,0.3-3.8,0.3-5.7C863.8,661.7,863.8,650.2,863.8,638.7
	C863.8,638.7,863.8,638.7,863.8,638.7z M863.8,61.2c0-12.1,0-24.3,0-36.4c0-1.9,0-3.9-1.1-5.5c-0.2-0.4-0.9-0.7-1.4-0.6
	c-0.5,0-1.4,0.3-1.6,0.7c-4.1,8.7-6.1,18.1-9.4,27.1c-2.5,6.9-4,8.4-10.9,8.5c-9.6,0.1-19.2,0-28.7,0.1c-3.2,0-6.4,0.2-9.6,0.4
	c-1.3,0.1-2.1,1.1-2.1,2.6c0,0.6,0.4,1.3,0.9,1.7c2.4,2.1,4.8,4.1,7.4,6c6.7,4.9,13.4,9.8,20.1,14.7c2.1,1.5,4.1,3.1,6,4.8
	c2.1,1.9,2.6,4.5,1.9,7c-2.8,9.2-5.8,18.2-8.6,27.4c-1.3,4.3-2.4,8.6-3.5,12.9c-0.1,0.4,0.5,1.2,1,1.5c0.5,0.3,1.4,0.6,1.7,0.4
	c9.5-5.6,29.7-20.2,35.5-25.8c0.9-0.8,1.5-2.1,1.7-3.3c0.5-2.5,0.7-5.1,0.8-7.6C863.8,85.5,863.8,73.4,863.8,61.2
	C863.8,61.2,863.8,61.2,863.8,61.2z M863.8,350.7c0-7.7,0.1-15.3,0-23c-0.1-6.4-0.3-12.8-0.5-19.1c-0.1-1.6-1.2-2.3-2.5-1.9
	c-0.5,0.2-1.2,0.5-1.4,1c-1.7,4.8-3.4,9.6-5.1,14.4c-1.9,5.4-3.8,10.8-5.9,16.2c-1,2.5-3,4.2-5.8,4.3c-7,0.2-14,0.3-21.1,0.4
	c-7,0.1-14,0.3-21,0.5c-0.4,0-1,0.6-1.2,1.1c-0.3,0.5-0.5,1.3-0.3,1.7c0.6,1.1,1.3,2.3,2.3,3c8.7,6.5,17.5,12.9,26.2,19.3
	c1.5,1.1,3,2.3,4.6,3.5c2.8,2.2,3.9,5.2,2.9,8.4c-3.1,9.7-6.4,19.4-9.4,29.2c-1.1,3.6-1.8,7.4-2.6,11.1c-0.1,0.4,0.7,1.1,1.2,1.4
	c0.5,0.3,1.4,0.4,1.9,0.2c11.8-7.6,23.1-15.9,34.1-24.6c2.1-1.6,3.1-4,3.2-6.7c0.1-1.9,0.3-3.8,0.3-5.7
	C863.8,373.7,863.8,362.2,863.8,350.7C863.8,350.7,863.8,350.7,863.8,350.7z M824.1,276.9c1.9,0.6,3.9,0.4,5.4-0.7
	c10.3-7.5,20.6-15.1,30.8-22.6c1.7-1.2,2.3-3,2.7-4.8c0.4-1.9,0.6-3.8,0.6-5.7c0-24.9,0-49.7,0-74.6c0-1.2-0.4-2.5-0.8-3.7
	c-0.2-0.5-0.6-1.3-1-1.4c-1.5-0.4-2.4,0.2-3,1.5c-3.4,7.6-5.4,15.7-8.1,23.5c-0.8,2.4-1.8,4.8-3.1,7c-0.9,1.6-2.3,3.1-4.4,3.3
	c-3.2,0.3-6.3,0.6-9.5,0.7c-8.9,0.1-17.8,0-26.8,0.2c-1.9,0-3.7,0.6-5.6,1.1c-0.4,0.1-0.6,1-0.8,1.6c-0.1,0.5-0.2,1.3,0.1,1.7
	c1.3,1.4,2.5,2.9,4,4c9.2,6.9,18.4,13.6,27.6,20.5c2.4,1.8,3.4,5.5,2.4,8.6c-2.9,9.1-5.9,18.2-8.8,27.3c-0.8,2.4-1.4,4.9-2,7.4
	c-0.5,1.9-0.2,3.8,0.4,5.6L824.1,276.9z M824.1,852.9c1.9,0.6,3.9,0.4,5.4-0.7c10.3-7.5,20.6-15.1,30.8-22.6c1.7-1.2,2.3-3,2.7-4.8
	c0.4-1.9,0.6-3.8,0.6-5.7c0-24.9,0-49.7,0-74.6c0-1.2-0.4-2.5-0.8-3.7c-0.2-0.5-0.6-1.3-1-1.4c-1.5-0.4-2.4,0.2-3,1.5
	c-3.4,7.6-5.4,15.7-8.1,23.5c-0.8,2.4-1.8,4.8-3.1,7c-0.9,1.6-2.3,3.1-4.4,3.3c-3.2,0.3-6.3,0.6-9.5,0.7c-8.9,0.1-17.8,0-26.8,0.2
	c-1.9,0-3.7,0.6-5.6,1.1c-0.4,0.1-0.6,1-0.8,1.6c-0.1,0.5-0.2,1.3,0.1,1.7c1.3,1.4,2.5,2.9,4,4c9.2,6.9,18.4,13.6,27.6,20.5
	c2.4,1.8,3.4,5.5,2.4,8.6c-2.9,9.1-5.9,18.2-8.8,27.3c-0.8,2.4-1.4,4.9-2,7.4c-0.5,1.9-0.2,3.8,0.4,5.6L824.1,852.9z M824.1,564.9
	c1.9,0.6,3.9,0.4,5.4-0.7c10.3-7.5,20.6-15.1,30.8-22.6c1.7-1.2,2.3-3,2.7-4.8c0.4-1.9,0.6-3.8,0.6-5.7c0-24.9,0-49.7,0-74.6
	c0-1.2-0.4-2.5-0.8-3.7c-0.2-0.5-0.6-1.3-1-1.4c-1.5-0.4-2.4,0.2-3,1.5c-3.4,7.6-5.4,15.7-8.1,23.5c-0.8,2.4-1.8,4.8-3.1,7
	c-0.9,1.6-2.3,3.1-4.4,3.3c-3.2,0.3-6.3,0.6-9.5,0.7c-8.9,0.1-17.8,0-26.8,0.2c-1.9,0-3.7,0.6-5.6,1.1c-0.4,0.1-0.6,1-0.8,1.6
	c-0.1,0.5-0.2,1.3,0.1,1.7c1.3,1.4,2.5,2.9,4,4c9.2,6.9,18.4,13.6,27.6,20.5c2.4,1.8,3.4,5.5,2.4,8.6c-2.9,9.1-5.9,18.2-8.8,27.3
	c-0.8,2.4-1.4,4.9-2,7.4c-0.5,1.9-0.2,3.8,0.4,5.6L824.1,564.9z M248.5,853.3c-0.4,0-0.9-0.1-1.3,0.1c-0.2,0.1-0.2,1-0.1,1
	c1.1,0.3,1.5-0.2,1.1-1.5C248.1,852.9,248.5,853.3,248.5,853.3z M536.5,853.3c-0.4,0-0.9-0.1-1.3,0.1c-0.2,0.1-0.2,1-0.1,1
	c1.1,0.3,1.5-0.2,1.1-1.5C536.1,852.9,536.5,853.3,536.5,853.3z M824.5,853.3c-0.4,0-0.9-0.1-1.3,0.1c-0.2,0.1-0.2,1-0.1,1
	c1.1,0.3,1.5-0.2,1.1-1.5C824.1,852.9,824.5,853.3,824.5,853.3z M824.5,565.3c-0.4,0-0.9-0.1-1.3,0.1c-0.2,0.1-0.2,1-0.1,1
	c1.1,0.3,1.5-0.2,1.1-1.5C824.1,564.9,824.5,565.3,824.5,565.3z M536.5,565.3c-0.4,0-0.9-0.1-1.3,0.1c-0.2,0.1-0.2,1-0.1,1
	c1.1,0.3,1.5-0.2,1.1-1.5C536.1,564.9,536.5,565.3,536.5,565.3z M248.5,565.3c-0.4,0-0.9-0.1-1.3,0.1c-0.2,0.1-0.2,1-0.1,1
	c1.1,0.3,1.5-0.2,1.1-1.5C248.1,564.9,248.5,565.3,248.5,565.3z M248.5,277.3c-0.4,0-0.9-0.1-1.3,0.1c-0.2,0.1-0.2,1-0.1,1
	c1.1,0.3,1.5-0.2,1.1-1.5C248.1,276.9,248.5,277.3,248.5,277.3z M536.5,277.3c-0.4,0-0.9-0.1-1.3,0.1c-0.2,0.1-0.2,1-0.1,1
	c1.1,0.3,1.5-0.2,1.1-1.5C536.1,276.9,536.5,277.3,536.5,277.3z M824.5,277.3c-0.4,0-0.9-0.1-1.3,0.1c-0.2,0.1-0.2,1-0.1,1
	c1.1,0.3,1.5-0.2,1.1-1.5C824.1,276.9,824.5,277.3,824.5,277.3z"/>
</svg>
