<?xml version="1.0" encoding="utf-8"?>
<!-- Generator: Adobe Illustrator 22.0.0, SVG Export Plug-In . SVG Version: 6.00 Build 0)  -->
<svg version="1.1" id="Layer_1" xmlns="http://www.w3.org/2000/svg" xmlns:xlink="http://www.w3.org/1999/xlink" x="0px" y="0px"
	 viewBox="0 0 864 864" style="enable-background:new 0 0 864 864;" xml:space="preserve">
<path d="M836.8,755.2c0.4-1.1,1.7-1.9,3.1-1.6c7,1.3,12.6,6.2,19.4,8c1.8,0.5,3.3-0.7,3.6-3.1c0.5-3.2-0.3-5.1-2.9-6.5
	c-5.1-2.7-10.2-5.3-15.3-8c-2.2-1.2-4.4-2.6-6.5-4.1c-0.9-0.7-1.7-2-1.8-3.2c-1.2-10.2-0.9-20.4-0.3-30.6c0.2-2.7,1.8-4.8,4.1-6.1
	c4.5-2.5,9-4.8,13.6-7.2c2.2-1.2,4.5-2.4,6.6-3.8c1.7-1.1,2.3-3,2.5-4.9c0.2-1.4-0.2-2.5-1.4-3.4c-1-0.7-2.2-1.1-3.5-0.6
	c-4.7,2.1-9.3,4.3-13.9,6.4c-1.1,0.5-2.5,0.7-3.7,1.1c-1.5,0.5-4.3-1.3-4.4-2.7c-0.3-6.4-0.5-12.8-1-19.1c-0.1-1.9-1-3.6-2.9-4.7
	c-5.1-2.7-10.1-5.5-15.1-8.3c-1.1-0.6-2.3-1.4-2.8-2.4c-0.5-0.9-0.4-2.5,0.1-3.5c0.6-1,1.8-1.7,2.9-2.3c5-2.8,10.1-5.5,15.1-8.3
	c1.7-1,2.6-2.8,2.7-4.8c0.4-6.4,0.8-12.7,1.1-19.1c0.1-1.5,2.8-2.9,4.5-2.4c1.2,0.4,2.5,0.6,3.7,1.1c4.7,2.1,9.3,4.3,13.9,6.4
	c1.3,0.6,2.5,0.1,3.4-0.8c0.9-1,1.4-2.1,1.2-3.5c-0.3-1.9-0.9-3.9-2.7-4.8c-6.7-3.7-13.5-7.2-20.2-11c-2.3-1.3-4-3.4-4-6.1
	c-0.1-9.6-0.1-19.2,0-28.8c0-0.6,0.2-1.2,0.4-1.9c0.2-1.4,0.9-2.4,2-3.1c2.1-1.4,4.2-2.9,6.5-4.1c5.1-2.7,10.2-5.3,15.3-8
	c2.2-1.2,3.3-3.9,2.7-6.6c-0.5-2.5-2-3.7-3.7-2.9c-4.1,1.8-8.1,3.7-12.2,5.4c-2.3,1-4.7,1.9-7.2,2.6c-1.4,0.4-2.6-0.4-3-1.6
	c-0.4-1.2-0.8-2.5-0.8-3.7c-0.2-4.5-0.3-9-0.3-13.4c0-5.1-2.6-8.2-7.1-10.3c-3.5-1.6-6.9-3.3-10.3-5.1c-1.7-0.9-3.1-2.2-4.6-3.4
	c-1.4-1-1.4-2.1,0-3.2c1-0.8,1.9-1.8,3-2.4c3.9-2.1,7.9-4.2,11.9-6.1c4.4-2.1,7.2-5.1,7.1-10.3c-0.1-4.5,0.1-9,0.3-13.4
	c0.1-1.2,0.4-2.5,0.9-3.7c0.4-1.1,1.6-1.9,3-1.6c7,1.3,12.6,6.2,19.4,8c1.8,0.5,3.3-0.6,3.6-3.1c0.5-3.1-0.3-5.1-2.9-6.5
	c-5.1-2.7-10.2-5.3-15.3-8c-2.2-1.2-4.4-2.6-6.5-4.1c-0.9-0.7-1.7-2-1.9-3.2c-1.2-10.2-0.9-20.4-0.3-30.6c0.2-2.7,1.8-4.8,4.1-6.1
	c4.5-2.5,9-4.8,13.6-7.2c2.2-1.2,4.5-2.4,6.6-3.8c1.7-1.1,2.3-2.9,2.6-4.9c0.2-1.4-0.2-2.5-1.4-3.4c-1-0.7-2.2-1.1-3.5-0.6
	c-4.7,2.1-9.3,4.3-13.9,6.4c-1.1,0.5-2.5,0.7-3.7,1.1c-1.5,0.5-4.3-1.3-4.4-2.7c-0.3-6.4-0.5-12.8-1-19.1c-0.1-1.9-1-3.7-2.9-4.7
	c-5.1-2.7-10.1-5.5-15.1-8.3c-1.1-0.6-2.3-1.4-2.8-2.4c-0.5-0.9-0.4-2.5,0.1-3.5c0.6-1,1.8-1.7,2.9-2.3c5-2.8,10.1-5.5,15.1-8.3
	c1.7-1,2.6-2.8,2.8-4.8c0.4-6.4,0.8-12.7,1.1-19.1c0.1-1.5,2.8-2.9,4.5-2.4c1.2,0.4,2.5,0.6,3.7,1.1c4.7,2.1,9.3,4.3,13.9,6.4
	c1.3,0.6,2.5,0.1,3.4-0.8c1-0.9,1.4-2.1,1.2-3.5c-0.3-1.9-0.9-3.9-2.7-4.8c-6.7-3.7-13.5-7.2-20.2-11c-2.3-1.3-4-3.4-4-6.1
	c-0.1-9.6-0.1-19.2,0-28.8c0-0.6,0.2-1.2,0.4-1.9c0.2-1.4,0.9-2.4,2-3.1c2.1-1.4,4.2-2.9,6.5-4.1c5.1-2.7,10.2-5.3,15.3-8
	c2.2-1.2,3.3-3.9,2.8-6.6c-0.5-2.5-2-3.7-3.7-3c-3.5,1.6-7,3.2-10.5,4.6c-2.9,1.2-5.9,2.4-8.9,3.4c-1.4,0.4-2.6-0.4-3-1.6
	c-0.4-1.2-0.8-2.5-0.8-3.7c-0.2-4.5-0.3-9-0.3-13.4c0-5.1-2.6-8.2-7.1-10.3c-3.5-1.6-6.9-3.3-10.3-5.1c-1.7-0.9-3.1-2.2-4.6-3.3
	c-1.4-1-1.4-2.1,0-3.2c1-0.8,1.9-1.8,3-2.4c3.9-2.1,7.9-4.2,11.9-6.1c4.4-2.1,7.2-5.1,7.1-10.3c-0.1-4.5,0.1-9,0.3-13.4
	c0.1-1.2,0.4-2.5,0.9-3.7c0.4-1.1,1.6-1.9,3-1.6c7,1.3,12.6,6.2,19.4,8c1.8,0.5,3.3-0.6,3.6-3.1c0.5-3.6-0.2-4.8-2.9-6.4
	c-5-2.9-10.2-5.3-15.2-8.1c-2.2-1.2-4.4-2.6-6.5-4.1c-0.9-0.7-1.7-2-1.9-3.2c-1.2-10.2-0.9-20.4-0.3-30.6c0.2-2.7,1.8-4.8,4.1-6.1
	c4.5-2.5,9-4.8,13.6-7.2c2.2-1.2,4.5-2.4,6.6-3.8c1.7-1.1,2.3-2.9,2.6-4.9c0.2-1.4-0.2-2.5-1.4-3.4c-1-0.7-2.2-1.2-3.5-0.6
	c-4.7,2.1-9.3,4.3-13.9,6.4c-1.1,0.5-2.5,0.7-3.7,1.1c-1.5,0.5-4.3-1.3-4.4-2.7c-0.3-6.4-0.5-12.8-1-19.1c-0.1-1.9-1-3.7-2.9-4.7
	c-5.1-2.7-10.1-5.5-15.1-8.3c-1.1-0.6-2.3-1.4-2.8-2.4c-0.5-0.9-0.4-2.5,0.1-3.5c0.6-1,1.8-1.7,2.9-2.3c5-2.8,10.1-5.5,15.1-8.3
	c1.7-1,2.6-2.8,2.8-4.8c0.4-6.4,0.7-12.7,1.1-19.1c0.1-1.5,2.8-2.9,4.5-2.4c1.2,0.4,2.5,0.6,3.7,1.1c4.7,2.1,9.3,4.3,13.9,6.4
	c1.3,0.6,2.5,0.1,3.4-0.8c1-0.9,1.4-2,1.2-3.4c-0.3-1.9-0.9-3.9-2.7-4.9c-6.7-3.7-13.5-7.2-20.2-11c-2.3-1.3-3.9-3.5-4.1-6.1
	c-0.3-5.1-0.2-10.2-0.3-15.3c-3.8,0-7.7,0-11.5,0c1,2.4,1.4,4.8,1,7.3c-0.4,2.5-3.2,4.7-5.2,4C814.2,9,808.7,6,803.2,2.8
	c-0.9-0.5-1.3-2-2-3c-9,0-17.9,0-26.9,0c-0.8,0.9-1.5,2.2-2.5,2.7c-6.1,3.3-12.4,6.3-18.5,9.6c-2.9,1.6-4.6,4.3-4.7,7.8
	c-0.1,3.8-0.1,7.6-0.3,11.4c-0.1,1.9-0.4,3.8-0.6,5.6c-0.2,1.5-2.9,3-4.5,2.4c-1.8-0.6-3.6-1.1-5.3-1.9c-4-1.9-7.9-4-11.9-5.9
	c-3.6-1.7-7.3-2-11-0.3c-5.2,2.4-10.3,4.9-15.4,7.3c-1.1,0.5-2.4,0.7-3.7,0.8c-1.2,0.1-2.3-0.6-3-1.8c-0.6-1.1-0.9-2.4-1-3.6
	c-0.3-5-0.4-10.1-0.8-15.1c-0.2-2.6-1.6-5-3.8-6.2c-6.1-3.4-12.3-6.4-18.4-9.8c-1-0.5-1.5-1.9-2.2-2.9c-9,0-17.9,0-26.9,0
	c-0.3,0.5-0.4,1.3-0.9,1.6c-5.9,4.5-12.6,7.3-19.5,9.9c-1.2,0.4-4-1.3-4.3-2.6c-0.3-1.2-0.6-2.3-0.9-3.5c-0.4-1.8-0.9-3.6-1.3-5.3
	c-2.6,0-5.1,0-7.7,0c-0.2,5.1-0.3,10.2-0.8,15.3c-0.2,2.7-1.8,4.8-4.1,6.1c-7.2,4.1-14.4,8.2-22.3,10.9c-1.3,0.4-2.4,0.4-3.7,0
	c-7.9-2.7-15.1-6.8-22.4-10.8c-2.3-1.3-3.9-3.5-4.1-6.1c-0.3-5.1-0.2-10.2-0.2-15.3c-3.8,0-7.7,0-11.5,0c1,2.4,1.4,4.8,1,7.3
	c-0.4,2.5-3.2,4.7-5.2,4C526.2,9,520.7,6,515.2,2.8c-0.9-0.5-1.3-2-2-3c-9,0-17.9,0-26.9,0c-0.8,0.9-1.5,2.2-2.5,2.7
	c-6.1,3.3-12.4,6.3-18.5,9.6c-2.9,1.6-4.6,4.3-4.7,7.8c-0.1,3.8-0.1,7.6-0.3,11.4c-0.1,1.9-0.4,3.8-0.6,5.6c-0.2,1.5-2.9,3-4.5,2.4
	c-1.8-0.6-3.6-1.1-5.3-1.9c-4-1.9-7.9-4-11.9-5.9c-3.6-1.7-7.3-2-11-0.3c-5.2,2.4-10.3,4.9-15.4,7.3c-1.1,0.5-2.4,0.7-3.7,0.8
	c-1.2,0.1-2.3-0.6-3-1.8c-0.6-1.1-0.9-2.4-1-3.6c-0.3-5-0.4-10.1-0.8-15.1c-0.2-2.6-1.6-5-3.8-6.2c-6.1-3.4-12.3-6.4-18.4-9.8
	c-1-0.5-1.5-1.9-2.2-2.9c-9,0-17.9,0-26.9,0c-0.3,0.5-0.4,1.3-0.9,1.6c-5.9,4.5-12.6,7.3-19.5,9.9c-1.2,0.4-4-1.3-4.3-2.6
	c-0.3-1.2-0.6-2.3-0.9-3.5c-0.4-1.8-0.9-3.6-1.3-5.3c-2.6,0-5.1,0-7.7,0c-0.2,5.1-0.3,10.2-0.8,15.3c-0.2,2.7-1.8,4.8-4.1,6.1
	c-7.2,4.1-14.4,8.2-22.3,10.9c-1.3,0.4-2.4,0.4-3.7,0c-7.9-2.7-15.1-6.8-22.4-10.8c-2.3-1.3-3.9-3.5-4.1-6.1
	c-0.3-5.1-0.2-10.2-0.2-15.3c-3.8,0-7.7,0-11.5,0c1,2.4,1.4,4.8,1,7.3c-0.4,2.5-3.2,4.7-5.2,4C238.2,9,232.7,6,227.2,2.8
	c-0.9-0.5-1.3-2-2-3c-9,0-17.9,0-26.9,0c-0.8,0.9-1.5,2.2-2.5,2.7c-6.1,3.3-12.4,6.3-18.5,9.6c-2.9,1.6-4.6,4.3-4.7,7.8
	c-0.1,3.8-0.1,7.6-0.3,11.4c-0.1,1.9-0.4,3.8-0.6,5.6c-0.2,1.5-2.9,3-4.5,2.4c-1.8-0.6-3.6-1.1-5.3-1.9c-4-1.9-7.9-4-11.9-5.9
	c-3.6-1.7-7.3-2-11-0.3c-5.2,2.4-10.3,4.9-15.4,7.3c-1.1,0.5-2.4,0.7-3.7,0.8c-1.2,0.1-2.3-0.6-3-1.8c-0.6-1.1-0.9-2.4-1-3.6
	c-0.3-5-0.4-10.1-0.8-15.1c-0.2-2.6-1.6-5-3.8-6.2c-6.1-3.4-12.3-6.4-18.4-9.8c-1-0.5-1.5-1.9-2.2-2.9c-9,0-17.9,0-26.9,0
	c-0.3,0.5-0.4,1.3-0.9,1.6c-5.9,4.5-12.6,7.3-19.5,9.9c-1.1,0.4-4-1.3-4.3-2.6c-0.3-1.2-0.6-2.3-0.9-3.5c-0.4-1.8-0.9-3.6-1.3-5.3
	c-2.6,0-5.1,0-7.7,0c-0.2,5.1-0.3,10.2-0.8,15.3c-0.2,2.7-1.8,4.8-4.1,6.1c-3.3,1.9-6.7,3.6-10.1,5.4c-3.4,1.8-7,3.3-10.1,5.4
	c-1.4,1-2.4,2.9-3.1,4.7c-0.5,1.2,0.1,2.5,1,3.5C3,41.2,4.3,42,5.5,41.5c4.1-1.7,8.1-3.7,12.2-5.5c1.7-0.8,3.6-1.4,5.3-2.1
	c2.6-1,5.5,0.8,5.6,3.4c0.2,5.7,0.3,11.5,0.7,17.2c0.2,2.5,1.1,4.9,3.7,6.3c5.6,3,11.1,6.2,16.7,9.3c1.5,0.8,1.3,4-0.1,4.9
	c-1.6,1-3.2,2.1-4.8,3.1c-3.9,2.2-7.9,4.3-11.8,6.4c-2.5,1.3-3.4,3.7-3.6,6.3c-0.4,5.7-0.7,11.5-1,17.2c-0.1,1.4-2.7,3.5-4.1,3.2
	c-1.2-0.3-2.6-0.3-3.7-0.8c-4.1-1.9-8-3.9-12.1-5.8c-1.1-0.5-2.5-0.5-3.7-0.7c-1.8-0.3-3.6,1.7-3.5,3.6c0.1,2,0.8,4,2.4,4.9
	c6.7,3.8,13.5,7.2,20.2,10.9c2.9,1.6,4.8,4.3,4.9,7.7c0.1,8.3,0,16.6,0.2,25c0.1,5.1-2.3,8.3-6.8,10.5c-5.2,2.5-10.3,5.1-15.3,7.9
	c-1.7,0.9-3.2,2.1-4.5,3.5c-0.8,0.9-1.2,2.2-1.4,3.4c-0.2,1.3,0.3,2.6,1.4,3.4c1,0.8,2.3,1.1,3.5,0.6c5.3-2.3,10.4-4.8,15.7-7.2
	c1.1-0.5,2.5-0.7,3.7-0.7c1.4,0,2.6,0.8,2.9,2c1.7,6.3,0.5,12.7,1.2,19.1c0.3,2.7,1.6,4.9,4,6.2c3.9,2.2,7.9,4.2,11.8,6.3
	c1.7,0.9,3.2,2,4.8,3.1c1.6,1,1.8,3.7,0.2,4.6c-2.2,1.3-4.3,2.7-6.5,3.9c-3.3,1.9-6.8,3.5-10.1,5.5c-2.3,1.3-3.8,3.4-4.1,6.1
	c-0.8,6.3,0.3,12.8-1.1,19.1c-0.3,1.5-2.8,2.9-4.5,2.1c-3.5-1.5-7-3.1-10.5-4.6c-2.9-1.3-5.6-3-8.8-3.5c-1.4-0.2-2.4,0.5-3,1.8
	c-1.1,2.5,0.1,5.8,1.8,7c4.7,3.4,10.1,5.5,15.1,8.3c2.8,1.5,5.5,3.3,8.2,5c1.1,0.7,1.7,1.8,1.9,3.2c1.1,10.2,0.8,20.4,0.2,30.6
	c-0.1,2.1-1.4,3.6-2.8,4.8c-1.4,1.2-3.1,2.2-4.8,3.1c-5.6,3-11.4,5.8-17,8.9c-1.6,0.9-2.5,2.9-2.9,4.8c-0.3,1.4,0.2,2.6,1.2,3.4
	c0.9,0.8,2.3,1.5,3.4,1c4.7-2,9.2-4.4,13.9-6.4c1.7-0.7,3.7-1,5.5-1.2c1.5-0.2,2.4,0.7,2.9,2c1.2,3.1,0.8,6.3,0.9,9.5
	c0.1,3.8-0.3,7.7,0.8,11.4c0.3,1.2,1,2.6,1.9,3.2c5.5,3.2,11.2,6.2,16.8,9.3c1.2,0.7,1.8,1.7,2.3,2.8c0.5,1.3-0.7,3.3-2.9,4.5
	c-2.2,1.2-4.5,2.5-6.7,3.7c-2.8,1.5-5.6,3.1-8.4,4.5c-1.9,1-2.7,2.7-3.1,4.6c-1.3,6.3,0.1,12.8-1.4,19.1c-0.3,1.3-2.9,3.2-4.3,2.9
	c-1.2-0.3-2.6-0.4-3.7-0.9c-4.7-2.1-9.3-4.3-14-6.3c-1-0.4-2.4,0.2-3.6,0.6c-1.5,0.5-2.1,3.3-1.1,5c0.6,1.1,1.2,2.5,2.2,3.1
	c5.6,3.1,11.3,6,16.9,9.1c1.7,0.9,3.4,1.8,4.9,3c1.5,1.2,2.8,2.7,2.9,4.7c0.8,10.2,0.9,20.4-0.1,30.6c-0.2,2-1.5,3.6-3.2,4.5
	c-5,2.8-10.2,5.4-15.2,8.1c-2.2,1.2-4.4,2.6-6.6,3.9c-1.8,1.1-2.9,4.4-2.1,6.8c0.5,1.3,1.6,2.1,2.9,1.9c1.2-0.1,2.5-0.4,3.6-0.9
	c4.7-2.1,9.3-4.3,13.9-6.5c3.6-1.6,6.8,0,6.9,3.4c0.2,5.8,0.3,11.5,0.6,17.3c0.2,2.7,1.8,4.8,4.1,6.1c3.9,2.2,7.9,4.1,11.8,6.3
	c1.7,0.9,3.2,2.1,4.8,3.1c1.6,1,1.4,3.5-0.1,4.7c-4.1,3.2-9,4.8-13.4,7.4c-1.6,1-3.2,2.1-4.8,3.2c-1.1,0.8-1.8,1.8-2,3.2
	c-0.3,1.9-0.6,3.8-0.7,5.7c-0.2,4.5-0.3,9-0.4,13.4c-0.1,2.8-2.8,4.7-5.2,3.7c-5.3-2.3-10.5-4.7-15.7-7c-1.1-0.5-2.4-0.9-3.6-1
	c-1.3-0.1-2.3,0.7-2.8,2c-1,2.8,0.4,5.7,2.1,6.9c2.1,1.5,4.3,2.7,6.6,3.9c4.5,2.4,9.1,4.7,13.6,7.1c3,1.6,5,3.9,5.1,7.4
	c0.3,9.6,0.6,19.2-0.2,28.8c-0.2,2.1-1.5,3.5-3,4.7c-1.4,1.2-3.2,2.2-4.8,3c-5.6,3-11.4,5.8-16.9,9c-1.6,0.9-2.4,2.9-2.7,4.9
	c-0.2,1.4,0.1,2.7,1.4,3.3c1.1,0.5,2.5,1.1,3.5,0.7c3.6-1.4,7-3.1,10.5-4.7c1.7-0.8,3.5-1.6,5.2-2.4c3.4-1.5,6.9,0.3,7,3.6
	c0.1,3.2,0.2,6.4,0.3,9.6c0.1,2.6,0.2,5.1,0.4,7.7c0.3,2.7,1.6,4.7,4.1,6c2.8,1.5,5.7,2.9,8.5,4.4c2.3,1.2,4.5,2.4,6.7,3.7
	c1.2,0.7,1.8,1.7,2,2.9c0.2,1.5-0.2,2.6-1.5,3.3c-5.6,3.1-11.1,6.3-16.7,9.3c-1.9,1-2.7,2.8-2.9,4.7c-0.4,3.8-0.4,7.7-0.6,11.5
	c-0.2,2.5-0.5,5.1-0.8,7.6c-0.2,1.4-2.9,3-4.4,2.7c-1.2-0.3-2.5-0.4-3.7-0.9c-4.7-2.1-9.3-4.3-14-6.2c-0.9-0.4-2.4,0.3-3.5,0.8
	c-1.2,0.6-1.6,1.9-1.4,3.3c0.3,1.9,1.3,3.8,2.8,4.8c3.2,2,6.7,3.8,10.1,5.5c16.4,8.1,14.7,6.9,14.9,24.8c0,5.7,0.5,11.5-0.7,17.2
	c-0.2,1.2-0.9,2.5-1.9,3.2c-2.6,1.9-5.3,3.5-8.1,5c-5,2.8-10.5,4.8-15.1,8.2c-1.7,1.2-2.7,4.4-1.7,7c0.5,1.4,1.7,1.9,3.1,1.7
	c3.2-0.5,6-2,8.8-3.5c3.4-1.7,6.8-3.5,10.5-4.5c1.7-0.4,4.2,0.9,4.4,2.4c1.2,6.3,0.2,12.8,1,19.1c0.3,1.9,1.2,3.5,2.7,4.9
	c3,2.6,6.7,3.7,10,5.7c2.7,1.6,5.8,2.7,8.2,4.9c1.3,1.2,1.2,3.6-0.6,4.6c-4.5,2.5-9,4.9-13.4,7.4c-1.6,0.9-3.2,2.1-4.7,3.2
	c-1.1,0.8-1.6,1.9-1.9,3.2c-1.1,5.1-0.4,10.2-0.7,15.3c-0.1,1.9-0.4,3.8-0.9,5.6c-0.3,1.1-1.6,2.1-2.9,1.8c-7-1.3-12.7-5.8-19.3-8.2
	c-1.3-0.5-2.5-0.1-3.5,0.7c-1,0.9-1.4,2.1-1.3,3.4c0.2,2,1,3.8,2.6,4.8c2.7,1.7,5.6,3.2,8.3,4.7c4.5,2.5,9,4.9,13.4,7.4
	c1.8,1,2.7,2.8,3,4.6c0.6,3.8,0.8,7.6,1.3,11.4c0.2,1.5,2.7,3,4.4,2.7c1.4-0.2,2.5-0.9,3-2c0.8-1.7,1.4-3.5,2.1-5.3
	c0.7-1.8,3.1-3,4.6-2.3c5.8,2.7,11.6,5.4,17.3,8.2c2.9,1.4,6,2.1,9.3,2.1c4.5,0.1,9,0.1,13.4,0c3.9,0,7.6-0.8,11-2.7
	c5.6-3.1,11.4-5.9,16.9-9c1.6-0.9,3-2.5,3.2-4.5c0.3-3.2,0.5-6.4,0.8-9.5c0.3-3.2,0.6-6.4,0.9-9.5c0.1-1.4,3.2-3.2,4.5-2.8
	c1.8,0.7,3.6,1.2,5.3,2c5.2,2.4,10.4,4.9,15.7,7.1c1.1,0.5,2.5,0.4,3.7,0.2c1.2-0.2,2.4-0.9,3.5-1.4c4.6-2.2,9.2-4.4,13.9-6.6
	c1.1-0.5,2.4-0.9,3.6-1.3c1.4-0.5,4.2,1,4.6,2.3c1.6,5.6,0.7,11.4,1.2,17.1c0.3,3.5,1.8,6.1,4.9,7.7c6.2,3.2,12.5,6.5,18.8,9.5
	c1.7,0.8,3.7,1.2,5.6,1.3c5.8,0.2,11.5,0.2,17.3,0c2.5-0.1,5.1-0.7,7.4-1.7c5.9-2.5,11.6-5.4,17.4-8.2c1.6-0.8,4.2,0,4.8,1.6
	c0.7,1.8,1.2,3.7,2,5.3c0.9,1.8,2.8,2.4,4.8,2.4c1.5,0,2.5-0.7,3-1.9c1.8-4.2,0.5-8.9,1.8-13.2c0.4-1.2,1.1-2.4,2.1-3.1
	c6.8-4.8,14.5-8,22.1-11.5c2.4-1.1,5.1-1.2,7.5,0c6.9,3.3,13.7,6.8,20.5,10.4c2.3,1.2,3.7,3.4,4.1,6.1c0.6,3.8-0.2,7.7,1.5,11.3
	c0.6,1.3,1.5,2.1,3,1.8c1.2-0.2,2.9-0.3,3.5-1c1.1-1.5,1.4-3.5,2.1-5.3c1.2-2.9,3.5-4.1,5.9-2.9c5.8,2.7,11.5,5.5,17.3,8.2
	c2.3,1.1,4.8,1.6,7.4,1.7c0.6,0,1.3,0.1,1.9,0.1c21.1,0,16,1,33-7.5c10.7-5.3,11.3-5.6,11.6-17.3c0.1-3.2,0.4-6.4,0.7-9.6
	c0.2-2.5,3.4-4.7,5.6-3.7c6.4,2.9,12.8,5.8,19.2,8.8c1.9,0.9,3.8,0.9,5.5,0.2c5.8-2.6,11.6-5.4,17.4-8.1c1.1-0.5,2.4-0.8,3.7-1
	c1.4-0.2,2.6,0.4,3.2,1.5c0.6,1.1,1,2.3,1.2,3.6c0.8,5.7-0.3,11.5,1.1,17.2c0.3,1.1,1.1,2.4,2,3.1c5,4.1,11.1,6.2,16.7,9.3
	c4.6,2.6,9.5,3.7,14.7,3.6c3.8-0.1,7.7,0,11.5-0.1c3.2-0.1,6.3-0.8,9.3-2.1c5.8-2.7,11.6-5.4,17.4-8.1c1.7-0.8,3.1,0.1,4.3,2.6
	c0.8,1.7,1.3,3.6,2.3,5.2c1.1,1.9,3.1,1.9,5,1.5c1.4-0.2,2.3-1,2.5-2.5c0.4-3.8,0.7-7.6,1.2-11.4c0.3-1.9,1.2-3.6,2.9-4.7
	c6.5-4.2,13.5-7.2,20.4-10.6c3-1.5,6.2-1.5,9.3-0.1c6.9,3.3,14,6.3,20.4,10.6c1.7,1.1,2.8,2.7,3.1,4.6c0.6,3.8,0.7,7.6,1.3,11.4
	c0.2,1.4,1.3,2.1,2.5,2.6c1.5,0.6,4.3-0.2,5-1.6c0.3-0.6,0.6-1.1,0.8-1.7c0.4-1.2,0.8-2.4,1.2-3.6c0.6-1.8,3.1-3.1,4.5-2.5
	c5.8,2.7,11.6,5.4,17.4,8.1c2.9,1.4,6,2.1,9.3,2.2c4.5,0.1,9,0.1,13.4,0c3.9,0,7.6-0.8,11.1-2.7c3.9-2.1,8-4.1,12-5.9
	c5.8-2.6,9.4-6.4,8.9-13.2c-0.1-1.9,0-3.8,0.1-5.8c0.1-1.9,0.2-3.8,0.4-5.7c0.1-0.6,0.3-1.2,0.4-1.9c0.2-1.4,3-3.2,4.4-2.9
	c6.3,1.5,11.6,5.2,17.4,7.7c3.7,1.6,7.2,2.5,10.9,0.3c2.2-1.3,4.6-2.3,6.9-3.4c2.9-1.4,5.8-2.8,8.7-4.1c1.8-0.8,3.9-0.9,5.5,0
	c0.9,0.5,1.5,2.2,1.6,3.4c0.4,5.7,0.6,11.5,1,17.2c0.2,1.9,1.1,3.7,2.9,4.7c2.8,1.6,5.5,3.3,8.3,4.7c17.2,8.6,11.9,7.5,32.9,7.5
	c3.9,0,7.6-0.8,11.1-2.6c5.1-2.6,10.4-5,15.6-7.5c2.5-1.2,4.3-0.1,5.6,3.2c0.5,1.2,0.7,2.5,1.3,3.6c1,1.8,2.8,2.5,4.8,2.6
	c1.4,0,2.5-0.7,3.1-1.8c1.8-3.6,0.9-7.6,1.4-11.3c0.4-2.7,1.5-4.8,3.9-6.2c3.9-2.2,7.9-4.2,11.8-6.4c2.8-1.5,5.6-3,8.4-4.5
	c2.2-1.2,3.3-3.9,2.7-6.6c-0.5-2.5-2-3.7-3.7-2.9c-4.1,1.8-8.1,3.7-12.2,5.4c-2.3,1-4.7,1.9-7.2,2.6c-1.4,0.4-2.6-0.4-3-1.6
	c-0.4-1.2-0.8-2.5-0.8-3.7c-0.2-4.5-0.3-9-0.3-13.4c0-5.2-2.7-8.2-7.1-10.3c-3.5-1.6-6.9-3.3-10.3-5.1c-1.7-0.9-3.1-2.2-4.6-3.4
	c-1.4-1-1.3-2.1,0-3.2c1-0.8,1.9-1.8,3-2.4c3.9-2.1,7.9-4.2,11.9-6.1c4.4-2.1,7.1-5.1,7.1-10.3c-0.1-4.5,0.1-9,0.3-13.4
	C836,757.6,836.4,756.3,836.8,755.2z M821.2,666.4c2.3,1.2,3.7,3.4,4.1,6c0.2,1.2,0.4,2.5,0.4,3.8c0.1,2.5,0,5.1,0,10.5
	c0-0.3,0.1,2.2-0.4,4.7c-0.4,2.5-1.5,5-3.9,6.2c-10.1,5.2-20.3,10.4-30.5,15.4c-2.3,1.2-5,1.3-7.3,0.1c-6.3-3-12.5-6.2-18.7-9.3
	c-1.1-0.6-2.2-1.3-3.2-2c-1.7-1.2-2.3-3-2.5-4.8c-0.7-7-0.9-13.9,0.3-20.8c0.2-1.1,1-2.4,1.9-3.2c1.4-1.2,3.1-2.2,4.8-3
	c8.5-4.3,17-8.6,25.5-12.7c3.6-1.7,7.4-2.1,11-0.3C808.9,659.9,815.1,663.1,821.2,666.4z M691.9,643.4c0-3.2,0.2-6.4,0.6-9.5
	c0.3-2.6,2-4.6,4.1-6.1c1-0.7,2.1-1.4,3.3-2c4.5-2.3,9.1-4.5,13.6-6.9c5-2.6,9.8-2.1,14.6,0.4c4.5,2.3,9.1,4.6,13.6,6.9
	c4.3,2.2,6.8,5.5,6.8,10.5c-0.1,4.4,0,8.9,0,13.3c0.1,0,0.2,0,0.3,0c-0.2,4.4-0.3,8.9-0.6,13.3c-0.2,2.7-1.7,4.8-4.1,6.1
	c-6.1,3.3-12.3,6.5-18.6,9.6c-3.6,1.7-7.5,1.4-11-0.4C689,665.9,692.1,671.1,691.9,643.4z M747.9,612c-0.1,1.1-0.9,2.7-1.8,3.2
	c-0.9,0.5-2.5,0.2-3.7-0.1c-1.8-0.5-3.6-1.3-5.3-2.1c-4-1.9-8-4.1-12.1-5.8c-1.7-0.7-3.7-0.8-5.5-1.2c-1.9,0.6-3.8,1-5.6,1.7
	c-5.8,2.5-11.1,6.4-17.5,7.6c-1.3,0.2-2.5-0.2-3.2-1.5c-0.6-1.1-1.1-2.3-1.2-3.6c-0.3-4.5-0.3-8.9-0.5-13.4
	c-0.2-4.1-1.7-7.3-5.5-9.3c-5.1-2.6-10.1-5.4-15.2-8.1c-1.4-0.7-1.9-1.9-1.4-3c0.5-1.1,1.1-2.4,2.1-3.1c2.1-1.4,4.4-2.5,6.7-3.7
	c3.4-1.8,6.8-3.6,10-5.6c1.6-1,2.6-2.8,2.9-4.7c1.2-6.3-0.2-12.8,1.7-19c0.4-1.2,3.5-2.9,4.7-2.4c1.2,0.5,2.4,0.8,3.6,1.3
	c4,1.9,8,3.9,12.1,5.8c1.7,0.8,3.5,1.6,5.3,2.1c1.2,0.3,2.6,0.4,3.7-0.1c7-3,14-6.2,21-9.3c1.2-0.5,4.2,1.3,4.4,2.7
	c0.2,1.2,0.6,2.5,0.7,3.7c0.1,3.2,0.1,6.4,0.2,9.6c0.1,1.9,0.2,3.8,0.5,5.7c0.3,2,1.5,3.6,3.1,4.6c5.5,3.1,11.2,6,16.8,9.2
	c1,0.6,1.6,1.9,2.1,3.1c0.5,1.1-0.1,2.3-1.4,3.1c-2.2,1.3-4.4,2.6-6.7,3.8c-3.4,1.8-6.9,3.4-10.1,5.4c-2.2,1.3-3.8,3.5-4,6.2
	C748.5,600.5,748.4,606.3,747.9,612z M681.8,763.3c-0.2,2.7-1.9,4.6-4.1,6.1c-0.5,0.4-1,0.8-1.6,1.1c-9.7,4.8-19.4,9.6-29.1,14.4
	c-2.4,1.2-4.9,1.4-7.3,0.3c-6.9-3.3-13.8-6.6-20.5-10.2c-3-1.6-4.5-4.5-4.6-7.9c-0.1-5.7,0-11.5,0.2-17.2c0.1-2.7,1.7-4.8,4-6.1
	c10.5-5.9,21.3-11.5,32.5-16.1c1.3-0.5,2.4-0.6,3.7-0.2c8.4,3,16.3,7.1,23.8,11.9c1.6,1,2.7,2.7,2.8,4.8c0.2,3.2,0.4,6.3,0.5,9.5
	c-0.1,0-0.3,0-0.4,0C681.9,757,682,760.2,681.8,763.3z M614.9,713.8c0.2-1.3,2.8-3.9,3.8-3.8c0.6,0.1,1.3,0.1,1.9,0.3
	c5.9,2.2,11.6,4.6,16.6,8.5c1.1,0.8,1.1,1.9,0.1,3.1c-0.4,0.5-0.7,1.1-1.2,1.4c-5.3,3.3-10.7,6.4-16.8,8.2c-1.5,0.4-3.8-1.2-4.2-2.8
	C614,723.7,614.3,718.8,614.9,713.8z M651.4,713.6c-0.6-0.1-1.2-0.3-1.8-0.6c-10.2-5.1-20.5-10.2-30.6-15.5
	c-2.2-1.2-3.8-3.4-4.1-6.1c-0.3-3.2-0.4-6.3-0.5-7.9c0.1-13.7-0.1-15.3,11.6-20.8c4-1.9,8-4,12-5.9c3.7-1.7,7.5-1.5,11.1,0.3
	c9.7,4.8,19.3,9.8,28.9,14.7c2.4,1.2,3.7,3.4,3.9,6.1c0.6,6.3,0.7,12.7-0.1,19c-0.2,1.9-0.9,3.7-2.7,4.8
	c-7.6,4.7-15.5,8.8-23.9,11.8C654,714,652.6,713.7,651.4,713.6z M604.2,684.6c-0.4,1.4-2.8,3-4.5,2.6c-1.2-0.3-2.5-0.4-3.7-0.9
	c-5.2-2.4-10.4-4.8-15.5-7.4c-3.2-1.6-6.2-1.1-9.1,0.3c-5.2,2.4-10.3,5-15.5,7.4c-1.1,0.5-2.4,0.7-3.7,1c-1.4,0.4-4.1-1.5-4.1-3
	c-0.3-6.4-0.5-12.7-1-19.1c-0.1-1.8-1-3.6-3-4.6c-5.1-2.7-10.1-5.4-15.1-8.2c-1.1-0.6-2.3-1.4-2.8-2.4c-0.5-0.9-0.4-2.5,0.2-3.5
	c0.6-1,1.8-1.7,2.9-2.3c5-2.8,10.1-5.5,15-8.3c1.8-1,2.7-2.8,2.8-4.7c0.4-6.3,0.7-12.7,1-19c0.1-1.5,2.8-3.1,4.4-2.6
	c1.8,0.6,3.7,1,5.4,1.8c4.6,2.1,9.1,4.5,13.8,6.6c3,1.4,6.2,1.4,9.2-0.1c5.2-2.5,10.3-5,15.5-7.4c1.1-0.5,2.5-0.6,3.7-0.9
	c1.7-0.4,4.2,1.2,4.3,2.7c0.3,6.3,0.6,12.7,1.1,19c0.1,1.9,1,3.8,2.7,4.8c5,2.8,10.1,5.5,15.1,8.3c1.1,0.6,2.1,1.4,3,2.3
	c0.3,0.3,0.3,1.1,0.4,1.7c-0.1,0.6,0,1.4-0.4,1.8c-0.9,0.9-1.8,1.8-2.9,2.4c-5,2.8-10,5.5-15.1,8.2c-1.9,1-2.5,2.8-2.8,4.7
	C604.3,671.9,605.8,678.4,604.2,684.6z M547.6,720c0.1-4.4,0.1-8.9,0.4-13.3c0.2-2.6,1.4-4.9,3.7-6.3c7-4.3,14.4-8,22.1-11.1
	c1.8-0.7,3.7-0.7,5.5,0.1c6.3,3,12.5,6.1,18.8,9.1c4.4,2.1,6.8,5.4,6.8,10.4c-0.1,8.3,0,16.5-0.1,24.8c0,3.4-1.4,6.1-4.6,7.7
	c-6.8,3.5-13.5,7-20.4,10.3c-1.7,0.8-3.7,1.1-5.6,0.4c-8.3-3.2-16.3-7.1-23.7-12c-1.1-0.7-1.8-1.7-2-3.1c-0.2-1.2-0.6-2.5-0.6-3.7
	c-0.1-4.4,0-8.9,0-13.3C547.8,720,547.7,720,547.6,720z M482,734.7c5.1-2.6,10-5.5,15.6-7c1.3-0.4,2.5-0.4,3.7,0.1
	c11.1,4.7,21.9,10.1,32.3,16.1c2.3,1.3,3.6,3.5,3.8,6.2c0.6,6.3,0.7,12.6-0.1,19c-0.1,0.6-0.2,1.3-0.5,1.8c-0.6,1.1-1.1,2.5-2.1,3.1
	c-7.6,4.6-15.5,8.7-23.8,11.9c-1.1,0.4-2.6,0.2-3.7-0.3c-11-4.8-21.9-10.1-32.3-16.1c-2.3-1.3-3.8-3.4-3.9-6.1c-0.2-3.2,0-6.3,0-9.5
	C470.7,740.4,470.8,740.3,482,734.7z M537.2,728.2c-0.1,1.5-2.9,3.5-4.1,3.1c-6-1.9-11.6-4.7-16.7-8.4c-1.4-1-1.6-3.7-0.4-4.6
	c4.6-3.3,9.8-5.6,15-7.8c3.1-1.3,6.2,0.8,6.4,4.5c0,0.6,0.2,1.2,0.2,1.9c0,1.3,0,2.5,0,6.6C537.7,723.3,537.5,725.8,537.2,728.2z
	 M537.5,691c-0.3,2.5-1.3,5.1-3.6,6.4c-10.5,5.9-21.2,11.3-32.3,16.1c-1.9,0.8-3.8,0.5-5.6-0.2c-7.5-3.3-15-6.7-22-11.2
	c-1.8-1.1-2.5-2.9-2.8-4.7c-0.9-6.9-0.9-13.9,0.1-20.8c0.3-1.8,1.3-3.4,3.1-4.5c9.9-5.7,20.2-10.6,30.5-15.4c3-1.4,6.3-1.3,9.2,0.1
	c6.3,3,12.5,6.1,18.6,9.4c3,1.6,4.5,4.3,4.7,7.7c0.1,2.5,0.2,5.1,0.4,7.6C537.8,684.7,537.8,687.8,537.5,691z M460.3,661.7
	c0,4.3-2.5,7.2-6,9c-25.6,12.6-18.4,13-45-0.8c-1.1-0.6-2.1-1.5-2.9-2.4c-0.8-1-1.6-2.1-1.7-3.3c-0.4-4.4-0.7-8.9-0.7-13.3
	c0.1-22.9-1.7-20.3,18.4-30.2c2.3-1.1,4.6-2,7-3c1.8-0.8,3.7-0.5,5.6-0.2c0.6,0.1,1.3,0.2,1.8,0.5c6.3,3.1,12.5,6.1,18.7,9.4
	c3,1.6,4.7,4.2,4.8,7.7c0.2,5.1,0.3,10.2,0.4,15.2c-0.1,0-0.2,0-0.3,0C460.3,654.1,460.3,657.9,460.3,661.7z M460.6,599
	c-0.3,4.5-0.4,8.9-0.7,13.4c-0.1,1.7-2.5,3.5-4,3c-1.8-0.6-3.7-1-5.4-1.7c-4.6-2.1-9.1-4.6-13.8-6.6c-3-1.3-6.3-1.2-9.3,0.2
	c-5.8,2.6-11.6,5.4-17.4,8c-2.4,1.1-5.3-0.8-5.6-3.4c-0.2-2.5-0.5-5.1-0.6-7.6c-0.2-3.2-0.2-6.4-0.5-9.6c-0.3-2.6-1.6-4.9-3.9-6.2
	c-5.5-3.2-11.2-6.1-16.8-9.2c-1.4-0.8-1.5-3.7-0.1-4.8c1-0.7,1.9-1.7,3-2.2c3.4-1.8,6.8-3.6,10.3-5.2c5.1-2.3,8.1-5.9,8-11.9
	c-0.1-4.4,0.4-8.9,0.7-13.4c0.2-2.4,3.4-4.4,5.5-3.8c7.9,2.4,14.4,8.3,22.8,9.4c7.5-1.8,13.8-6.6,21-9.1c0.6-0.2,1.2-0.2,1.8-0.4
	c1.3-0.4,4.1,1.5,4.2,3c0.4,6.3,0.9,12.7,1.3,19c0.1,1.3,0.9,2.4,1.9,3.2c4.4,3.8,10,5.6,14.9,8.5c1.7,0.9,3.4,1.7,4.6,3.3
	c0.3,0.5,0.4,1.2,0.7,1.8c-0.2,0.5-0.2,1.2-0.5,1.6c-4.3,4-10,5.5-14.8,8.6c-1.6,1-3.3,1.9-4.7,3.2c-0.9,0.8-1.6,2.1-1.9,3.2
	C460.8,595.2,460.7,597.1,460.6,599z M317,725.9c0,3.2-0.1,6.4-0.5,9.5c-0.2,1.8-0.8,3.7-2.6,4.8c-7.5,4.8-15.4,8.8-23.8,11.9
	c-1.1,0.4-2.6,0.4-3.7,0c-8.3-3.1-16.3-7.1-23.8-11.9c-1.8-1.1-2.4-3-2.5-4.9c-0.3-5.1-0.4-10.1-0.6-15.2c0.1,0,0.2,0,0.4,0
	c0-4.4-0.1-8.9,0-13.3c0.1-3.4,2.2-6,5.1-7.5c5.6-3,11.3-5.9,17-8.5c6.6-3.1,6.5-3,12.5,0C320.5,703.8,316.6,697.8,317,725.9z
	 M316.5,683.7c-0.2,2.4-3.3,4.3-5.7,3.4c-1.2-0.4-2.5-0.6-3.6-1.1c-4-1.9-8-4-12-5.9c-1.7-0.8-3.5-1.6-5.4-2
	c-1.2-0.3-2.5-0.2-3.7,0.2c-6.1,1.9-11.5,5.3-17.3,8c-1.7,0.8-3.6,0.9-5.5,1.2c-1.5,0.3-2.4-0.5-2.9-2c-1-3.1-0.6-6.3-0.8-9.4
	c-0.2-3.8-0.3-7.6-0.8-11.4c-0.1-1.1-1.1-2.4-2-3.1c-5.7-4.1-12.6-6.1-18.1-10.5c-1.2-1-1.2-4.1,0.1-5c1.6-1,3.2-2.1,4.8-3.1
	c3.9-2.1,7.9-4.2,11.8-6.3c2.5-1.3,3.6-3.6,3.8-6.2c0.4-5.7,0.5-11.4,0.7-17.2c0.1-2.5,3-4.3,5.5-3.4c2.4,0.9,4.7,2,7,2.9
	c4.7,1.9,8.9,5,13.9,6.2c1.3,0.3,2.5,0.5,3.7,0c2.4-0.9,4.8-1.8,7.1-2.8c4-1.9,8-3.9,12.1-5.7c1.1-0.5,2.5-0.6,3.7-0.7
	c1.4,0,2.6,0.7,3,1.8c0.5,1.8,0.8,3.7,0.9,5.6c0.2,4.4,0.1,8.9,0.4,13.4c0.2,2.5,1.1,4.9,3.6,6.3c5.6,3,11.1,6.1,16.6,9.3
	c1.2,0.7,1.5,1.9,1,3.3c-0.8,0.9-1.4,2.2-2.4,2.8c-3.9,2.2-7.9,4.2-11.8,6.3c-1.7,0.9-3.4,1.8-4.9,3c-0.9,0.8-1.8,2-1.9,3.1
	C317.2,671,316.9,677.3,316.5,683.7z M172.4,605.7c-0.2,2.5-0.5,5-0.9,7.5c-0.3,1.5-1.4,2.2-2.7,2c-1.2-0.1-2.6-0.2-3.7-0.7
	c-4.1-1.8-8.1-3.8-12.1-5.7c-1.7-0.8-3.5-1.6-5.3-2.3c-2.5-0.9-5.1-0.9-7.5,0.2c-5.9,2.5-11.6,5.4-17.4,8c-1.1,0.5-2.5,0.4-3.7,0.6
	c-0.8-0.9-2-1.8-2.3-2.9c-0.6-1.8-0.8-3.7-0.9-5.6c-0.3-4.5-0.2-9-0.8-13.4c-0.2-1.7-1.5-3.8-3-4.7c-5.8-3.9-12.7-5.9-18.2-10.4
	c-0.9-0.8-0.8-2,0-3.3c0.3-0.5,0.8-1.1,1.3-1.4c1.6-1,3.3-1.9,5-2.8c16.5-8.9,15.3-5.8,15.8-24.4c0-1.9,0.5-3.8,0.7-5.7
	c0.2-1.4,3.1-3.3,4.4-2.8c1.2,0.4,2.5,0.5,3.6,1c4,1.9,8,4,12,5.9c7.1,3.4,7.8,3.4,14.4,0.3c5.2-2.4,10.4-4.8,15.6-7.2
	c1.5-0.7,4.4,0.7,4.7,2c0.3,1.2,0.8,2.4,0.9,3.7c0.2,4.5,0.3,8.9,0.4,13.4c0.1,3.4,1.7,5.9,4.6,7.8c5.3,3.5,11.7,5.2,16.6,9.3
	c1.3,1.1,1.5,4.1,0.1,4.9c-2.2,1.3-4.4,2.6-6.6,3.8c-2.8,1.5-5.7,2.9-8.5,4.3c-3.7,1.8-6.1,4.6-6.2,8.8
	C172.6,599.4,172.6,602.6,172.4,605.7z M172.5,653.7c0,0.8-0.1,5.2-0.4,9.7c-0.2,2.7-1.8,4.7-4,6.1c-1.1,0.7-2.1,1.4-3.2,2
	c-4.5,2.3-9.1,4.5-13.6,6.8c-4.2,2.1-8.5,2.5-12.8,0.4c-5.1-2.5-10.3-5-15.4-7.6c-4.1-2.2-7.1-5.3-7.1-10.4c0-8.3,0-16.5,0.1-24.8
	c0.1-4.2,2.3-7.2,5.9-9.1c5.6-2.9,11.3-5.7,17-8.5c3.7-1.8,7.4-1.4,11.1,0.3c2.9,1.3,5.7,2.7,8.6,4.1c14,7.1,13.6,6.5,13.7,21.6
	C172.5,646.2,172.5,648.1,172.5,653.7z M116.2,255.5c0.1-1.2,0.7-2.4,1.1-3.6c0.5-1.4,1.6-2,3.1-1.8c0.5,0,1.2-0.2,1.8,0
	c2.4,0.9,4.7,2,7,3c17.6,8.3,12.4,8.4,29.8,0.2c1.7-0.8,3.4-1.7,5.2-2.5c4.7-2.2,7.8-0.5,8,4.1c0.2,5.1,0.4,10.2,0.6,15.3
	c0.1,2.7,1.5,4.9,3.8,6.2c5.5,3.1,11.2,6.1,16.7,9.2c1.2,0.7,1.9,1.9,1.8,3.2c0,1.1-0.8,2.2-2.1,2.8c-5.1,2.7-10.2,5.3-15.2,8.1
	c-1.1,0.6-2.2,1.4-3,2.4c-0.8,0.9-1.7,2.1-1.8,3.3c-0.4,4.4-0.5,8.9-0.8,13.4c-0.1,1.9-0.4,3.8-0.6,5.7c-0.2,1.6-2.7,3.4-4.2,2.8
	c-2.4-0.9-4.8-1.7-7.1-2.7c-3.5-1.6-6.9-3.4-10.3-5.1c-4.3-2.1-8.6-1.7-12.9,0.3c-5.2,2.4-10,5.6-15.6,7.3c-2.4,0.7-5.2-1-5.4-3.7
	c-0.2-1.9-0.4-3.8-0.5-5.7c-0.2-3.8-0.2-7.7-0.6-11.5c-0.3-2.6-1.7-4.8-4-6.2c-5.5-3.3-11.5-5.5-16.8-9.2c-1.3-0.9-1.1-3.6,0.2-4.8
	c1.4-1.4,3.1-2.1,4.8-3c3.9-2.1,7.9-4.2,11.8-6.4c2.4-1.3,3.9-3.5,4.1-6.1C115.8,265.8,115.8,260.6,116.2,255.5z M116.3,202.9
	c0.1-2.5,1.1-5,3.4-6.5c7-4.4,14.5-8,22.2-11.2c1.8-0.7,3.8-0.7,5.6,0.2c6.9,3.4,13.7,6.8,20.5,10.3c2.4,1.2,3.7,3.4,4.1,6
	c0.2,1.9,0.4,3.8,0.4,5.7c0.1,3.2,0,6.4,0,14.1c0,0.6-0.2,5.7-0.6,10.7c-0.2,1.9-1.1,3.6-2.9,4.7c-7.1,4.3-14.5,8-22.2,11.1
	c-1.1,0.5-2.7,0.7-3.7,0.3c-8.4-3.1-16.3-7.2-23.9-12c-1-0.6-1.6-2-2.1-3.1c-0.5-1.2-0.9-2.5-0.9-3.7
	C116.1,220.7,116,211.8,116.3,202.9z M259.7,143.2c0-3.8,0.1-7.6,0.2-11.4c0.1-3.4,1.5-6.3,4.4-7.9c7.8-4.3,15.5-8.7,24.1-11.4
	c8.6,2.8,16.3,7.1,24,11.5c2.2,1.2,3.9,3.3,4.1,6.1c0.7,9.5,0.6,19,0.1,28.5c-0.1,2.7-1.3,4.8-3.6,6.3c-1.1,0.7-2.1,1.4-3.3,2
	c-5.7,2.9-11.3,5.7-17,8.5c-3,1.5-6.1,1.4-9.2,0c-1.7-0.8-3.5-1.6-5.1-2.5C257.3,161.8,260,166.7,259.7,143.2z M260.3,180.6
	c0.1-1.5,1-2.3,2.1-2.7c0.6-0.1,1.3-0.5,1.9-0.3c1.8,0.6,3.6,1.2,5.3,2c4.6,2.2,9.2,4.4,13.8,6.6c3,1.5,6,1.8,9.1,0.3
	c5.7-2.8,11.5-5.6,17.2-8.2c1.1-0.5,2.4-0.5,3.7-0.5c1.5-0.1,2.3,0.7,2.7,2c1.1,3.7,0.6,7.6,0.9,11.4c0.2,3.2,0.5,6.3,0.7,9.5
	c0.1,1.3,0.9,2.3,2,3.1c1.6,1,3.1,2.2,4.7,3.1c4.4,2.6,9.3,4.2,13.3,7.4c1.7,1.3,1.9,3.6,0.3,4.6c-1.1,0.7-2,1.6-3.1,2.2
	c-3.4,1.8-6.7,3.7-10.2,5.2c-5.2,2.3-8,5.8-7.9,11.7c0.1,5.1,0.4,10.2-0.7,15.2c-0.3,1.4-2.8,3-4.3,2.5c-1.2-0.4-2.4-0.7-3.6-1.3
	c-2.3-1-4.6-2.2-6.9-3.3c-14.8-7.1-11.8-7.1-26.4-0.2c-3.4,1.6-7,3.1-10.5,4.6c-1.5,0.7-4-0.9-4.3-2.4c-1.2-6.3-0.2-12.7-1-19
	c-0.2-2-1.2-3.6-2.7-4.8c-1.5-1.2-3.2-2.1-4.8-3c-4.4-2.5-9.2-4.3-13.4-7.3c-1.7-1.2-2-3.5-0.4-4.6c1.1-0.7,2-1.6,3.1-2.2
	c3.4-1.8,6.8-3.4,10.2-5.2c1.7-0.9,3.4-1.8,4.9-2.9c1.5-1.1,2.9-2.5,3-4.6C259.7,193.3,259.9,186.9,260.3,180.6z M391.5,97.2
	c0.9,0.6,1.8,2,1.9,3.1c0.5,3.8,0.6,7.6,0.9,10.9c-0.2,3.7-0.3,6.9-0.7,10c-0.2,1.9-1,3.6-2.8,4.7c-7,4.5-14.6,7.8-22.1,11.3
	c-1.7,0.8-3.7,1.1-5.6,0.3c-11.2-4.6-21.8-10.3-32.4-16.1c-2.2-1.2-3.8-3.5-3.9-6.2c-0.2-5.7-0.2-11.4-0.2-17.1
	c0-3.4,1.7-6.2,4.7-7.8c6.2-3.3,12.4-6.4,18.7-9.5c3-1.4,6.2-1.7,9.3-0.3C370.3,85.6,381.2,90.7,391.5,97.2z M373,69.8
	c4.8-3.1,9.9-5.7,15.3-7.7c2.4-0.9,5.3,0.9,5.5,3.4c0.2,2.5,0.3,5.1,0.5,8c-0.2,2.2-0.5,4.7-0.7,7.2c-0.1,1.5-2.9,3.1-4.3,2.7
	c-5.6-1.6-10.5-4.6-15.5-7.4C371.5,74.9,370.9,71.1,373,69.8z M326.9,137.9c0.1-1.4,2.7-4,3.7-3.9c0.6,0.1,1.3,0,1.8,0.2
	c5.9,2.1,11.6,4.7,16.7,8.4c1.3,0.9,0.8,3.5-0.9,4.6c-5.3,3.4-10.7,6.4-16.7,8.3c-1.5,0.5-3.8-1.1-4.2-2.7
	C325.9,147.8,326.4,142.9,326.9,137.9z M326.8,173.8c0.3-2.7,1.9-4.7,4.2-6c11.1-6.2,22.4-12.1,34.3-16.8c9.2,3,17.6,7.4,25.7,12.6
	c1.6,1,2.7,2.8,2.7,4.8c0.1,6.4,0.2,12.7,0.1,19.1c-0.1,2.7-1.9,4.7-4.2,6c-10.6,5.9-21.3,11.4-32.5,16.1c-1.1,0.5-2.6,0.5-3.7,0.1
	c-8.3-3.2-16.4-7-23.8-12c-1.6-1.1-2.5-2.9-2.8-4.8C326,186.5,326.1,180.1,326.8,173.8z M404.5,253.6c0.2-2.4,3.6-4.4,5.7-3.5
	c2.9,1.3,5.9,2.5,8.7,3.9c15,7.1,11.4,7.5,26.3,0.1c2.3-1.1,4.6-2.2,6.9-3.3c4.6-2.2,7.8-0.5,8,4.1c0.2,5.1,0.4,10.2,0.6,15.3
	c0.1,2.7,1.5,4.9,3.8,6.2c5.5,3.1,11.2,6.1,16.7,9.2c1.2,0.7,1.7,1.9,1.9,3.2c-0.2,0.5-0.3,1.2-0.7,1.5c-3.3,3.1-7.6,4.6-11.5,6.7
	c-1.1,0.6-2.2,1.3-3.4,1.8c-4.5,2-7.1,5.2-7,10.3c0,3.8-0.1,7.7-0.2,11.5c0,1.3-0.3,2.5-0.5,3.8c-0.2,1.6-2.8,3.4-4.2,2.8
	c-2.4-0.9-4.8-1.7-7.1-2.7c-3.5-1.6-6.9-3.4-10.3-5.1c-4.3-2.1-8.6-1.7-12.9,0.3c-5.2,2.4-10,5.6-15.6,7.3c-2.4,0.7-5.2-1-5.4-3.7
	c-0.2-1.9-0.4-3.8-0.5-5.7c-0.2-3.8-0.2-7.7-0.6-11.5c-0.3-2.6-1.7-4.8-4-6.2c-5.5-3.3-11.5-5.5-16.8-9.2c-1.3-0.9-1-3.7,0.2-4.8
	c1.4-1.4,3.1-2.1,4.8-3c3.9-2.1,7.9-4.2,11.8-6.4c2.4-1.3,3.9-3.5,4.1-6.1c0.4-4.4,0.4-8.9,0.7-13.4
	C404.1,256.2,404.4,254.9,404.5,253.6z M404.2,203.6c0.1-3.2,1.3-6.3,4.5-7.9c28.4-14.4,18.8-14.7,48.3,0.6c1.9,1,2.5,2.8,2.9,4.7
	c0.4,1.9,0.5,3.8,0.6,5.7c0.1,3.8,0,7.7,0,16.1c0-0.1-0.1,4.3-0.5,8.8c-0.2,2.7-1.6,4.8-4,6.1c-28.8,14.6-19,14.4-48.3-0.7
	c-1.7-0.9-2.5-2.8-3-4.7c-0.2-0.6-0.5-1.2-0.5-1.9C404.1,221.5,404,212.5,404.2,203.6z M569.4,115c1.7-0.9,3.5-1.4,5.3-2
	c0.6-0.2,1.2-0.3,2-0.5c8.3,2.8,16.1,7.1,23.8,11.5c2.2,1.3,3.8,3.4,4,6.1c0.6,9.5,0.6,19,0.1,28.5c-0.2,2.7-1.4,4.8-3.7,6.2
	c-7.1,4.3-14.5,7.9-22.1,11c-1.8,0.8-3.9,0.6-5.6-0.2c-6.3-2.9-12.5-6.2-18.8-9.1c-4.5-2.1-6.8-5.4-6.6-10.4
	c0.1-2.5-0.1-5.1-0.1-7.6C548.1,121.8,544.5,127.8,569.4,115z M548.3,180.5c0.1-1.5,1-2.3,2.2-2.7c0.6-0.1,1.3-0.5,1.9-0.3
	c7.4,2.2,13.7,6.6,20.9,9.4c1.8,0.7,3.7,1,5.6,0.2c2.3-1,4.7-2,7-3.1c4-1.9,8-3.9,12.1-5.7c1.1-0.5,2.4-0.5,3.7-0.5
	c1.5-0.1,2.3,0.7,2.7,2.1c1.1,3.7,0.6,7.6,0.8,11.4c0.2,3.2,0.5,6.3,0.8,9.5c0.1,1.3,0.9,2.3,2,3.1c1.6,1,3.1,2.2,4.8,3.1
	c4.4,2.6,9.3,4.2,13.3,7.4c1.5,1.2,1.6,3.5,0.2,4.7c-4,3.3-8.9,4.9-13.3,7.4c-1.6,1-3.3,1.9-4.8,3c-1.6,1.2-2.4,3-2.7,4.9
	c-0.8,6.3,0.2,12.7-1,19c-0.3,1.4-2.8,3-4.3,2.5c-1.2-0.4-2.4-0.7-3.6-1.3c-4-1.9-8.2-3.5-12-5.8c-5.5-3.3-10.5-3.4-16.1-0.2
	c-4.9,2.8-10.4,4.8-15.6,7.1c-1.5,0.7-4-0.9-4.3-2.4c-1.2-6.3-0.2-12.7-1-19c-0.2-2-1.2-3.6-2.8-4.8c-1.5-1.1-3.2-2.1-4.8-3
	c-4.4-2.5-9.2-4.3-13.4-7.3c-1.7-1.2-1.9-3.5-0.3-4.6c1.1-0.7,2-1.6,3.1-2.2c3.4-1.8,6.8-3.4,10.2-5.2c1.7-0.9,3.3-1.8,4.9-3
	c1.5-1.1,2.9-2.6,3-4.6C547.7,193.2,547.9,186.9,548.3,180.5z M682.3,177.3c-0.3,3.8-0.5,7.6-0.8,11.4c-0.1,1.4-0.8,2.4-1.9,3.2
	c-1,0.7-1.9,1.8-3,2.3c-10.3,5.1-20.5,10.2-30.8,15.2c-1.7,0.8-3.7,0.8-5.5,0c-3.4-1.6-6.9-3.2-10.4-4.9
	c-16.4-8.1-15.7-6.5-15.4-26.2c0-1.9,0.4-3.8,0.7-5.7c0.2-1.3,0.8-2.4,1.9-3.2c0.5-0.4,0.9-0.9,1.4-1.2
	c10.5-6.1,21.3-11.4,32.4-16.2c1.8-0.8,3.7-0.6,5.5,0.1c7.2,2.7,13.8,6.5,20.6,10c2.9,1.5,4.9,4.1,5,7.6c0.1,2.5,0,5.1,0,7.6
	C682.1,177.3,682.2,177.3,682.3,177.3z M748.7,217.1c-0.3,5.1-0.4,10.2-0.9,15.3c-0.2,1.8-1.1,3.6-2.9,4.7
	c-7.1,4.3-14.6,7.9-22.2,11.1c-1.1,0.5-2.6,0.7-3.7,0.3c-8.4-3.1-16.3-7.2-23.9-12c-1-0.6-1.5-2-2-3.2c-0.5-1.2-0.8-2.5-0.8-3.7
	c0-8.9-0.1-17.9,0.2-26.8c0.1-2.5,1.1-5,3.5-6.5c7.1-4.3,14.5-8,22.2-11.1c1.1-0.4,2.7-0.7,3.7-0.3c8.4,3.1,16.4,7.1,23.9,12
	c1,0.6,1.6,2,2,3.1c0.5,1.2,0.7,2.5,0.7,3.7c0.1,4.5,0,8.9,0,13.4C748.5,217.1,748.6,217.1,748.7,217.1z M692.1,255.7
	c0.1-1.2,0.6-2.4,1.1-3.6c0.5-1.4,1.6-2,2.3-2c1.3,0,1.9-0.1,2.5,0c1.2,0.4,2.4,0.8,3.6,1.4c23.1,10.7,14.2,10.6,36.7,0.3
	c1.7-0.8,3.6-1.3,5.3-1.9c1.4-0.5,4.1,1.5,4.2,3.1c0.4,6.3,0.8,12.7,1.3,19c0.1,1.3,0.9,2.4,1.9,3.2c4.4,3.8,10,5.6,15,8.4
	c1.7,0.9,3.4,1.7,4.6,3.3c0.9,1.2,1,2.5,0,3.4c-4.3,4-10,5.5-14.9,8.5c-1.6,1-3.3,2-4.7,3.2c-0.9,0.8-1.6,2.1-1.9,3.2
	c-0.4,1.8-0.5,3.8-0.7,5.7c-0.3,4.5-0.4,8.9-0.7,13.4c-0.1,1.7-2.6,3.5-4.1,3c-1.8-0.6-3.7-1-5.4-1.8c-4.6-2.1-9.1-4.6-13.8-6.6
	c-3-1.3-6.3-1.2-9.3,0.2c-5.8,2.6-11.6,5.3-17.4,8c-2.3,1-5.4-0.9-5.5-3.5c-0.3-4.4-0.5-8.9-0.8-13.3c-0.1-1.9-0.4-3.8-0.9-5.6
	c-0.3-1.2-1.2-2.3-2-3.2c-0.9-0.9-2-1.5-3.1-2.1c-5-2.8-10.1-5.5-15.1-8.3c-1.4-0.8-1.4-3.8,0-4.7c1-0.7,2-1.6,3-2.2
	c3.9-2.1,7.9-4.2,11.9-6.2c3.7-1.9,5.9-4.7,6.1-9C691.7,264.6,691.8,260.1,692.1,255.7z M748.2,518.1c-0.2,3.3-1.5,6.2-4.6,7.8
	c-6.8,3.4-13.7,6.8-20.6,10.1c-1.7,0.8-3.7,0.9-5.5,0c-6.9-3.4-13.7-6.8-20.6-10.2c-3.2-1.6-4.6-4.5-4.7-7.8
	c-0.2-8.9-0.2-17.9,0-26.8c0.1-3.2,1.7-6.1,4.8-7.7c6.8-3.4,13.7-6.9,20.6-10.2c1.8-0.9,3.8-0.7,5.6,0c7.6,3.3,15.1,6.8,22.1,11.3
	c1.7,1.1,2.5,2.9,2.6,4.8c0.4,5.1,0.5,10.2,0.8,15.3c-0.1,0-0.3,0-0.4,0C748.3,509.2,748.4,513.6,748.2,518.1z M748.4,463.4
	c-0.1,1.9-0.6,3.7-0.8,5.6c-0.2,1.4-3.1,3-4.5,2.4c-1.8-0.7-3.5-1.4-5.3-2.2c-4.6-2.1-9.2-4.3-13.8-6.5c-2.5-1.2-4.9-1.2-7.3-0.1
	c-6.4,2.9-12.7,5.9-19.1,8.8c-0.5,0.2-1.3,0-1.9-0.1c-1.2-0.2-2.3-0.8-2.8-2.2c-0.4-1.2-0.8-2.4-0.9-3.7c-0.3-4.4-0.3-8.9-0.5-13.4
	c-0.2-3.4-1.6-6.1-4.6-7.8c-5-2.7-10.1-5.3-15.1-8.1c-1-0.6-1.7-1.9-2.4-2.9c-0.3-0.4-0.5-1.2-0.4-1.6c0.2-0.5,0.8-1,1.3-1.4
	c2.7-1.6,5.5-3.2,8.3-4.7c12.7-6.6,13.1-6,13.2-20c0-3.2-0.1-6.4,1.1-9.4c0.5-1.3,1.6-2.1,2.8-2.1c1.2,0,2.6,0.2,3.7,0.6
	c5.8,2.6,11.5,5.4,17.3,7.9c2.4,1,5,0.8,7.5-0.1c6.5-2.5,12.4-6.5,19.1-8.7c1.6-0.5,4.3,0.9,4.4,2.5c0.2,2.5,0.6,5,0.7,7.6
	c0.2,3.8,0.3,7.6,0.6,11.4c0.1,2.1,1.5,3.5,3,4.7c1.5,1.2,3.2,2,4.8,3c4.4,2.5,8.9,4.9,13.4,7.4c1.4,0.8,1.7,1.9,0.9,3.1
	c-0.8,1-1.4,2.2-2.5,2.8c-5.4,3.3-11.6,5.3-16.7,9.2c-1.6,1.2-2.8,2.8-2.9,4.7C748.6,454.5,748.7,458.9,748.4,463.4z M681.7,619.5
	c-0.2,2.7-1.7,4.8-4.1,6c-8.5,4.4-17,8.7-25.5,13c-1.7,0.9-3.4,1.7-5.2,2.3c-2.5,1-5.1,1.2-7.4,0.1c-6.9-3.2-13.7-6.7-20.4-10.3
	c-2.3-1.2-3.9-3.3-4.2-6c-0.7-6.3-0.8-12.7,0.1-19c0.4-2.7,1.9-4.9,4.2-6.1c10.2-5.3,20.4-10.3,30.7-15.3c2.4-1.2,5-1.2,7.4,0
	c6.9,3.3,13.6,6.8,20.4,10.3c3.2,1.6,4.2,4.6,4.4,7.9c0.1,2.5,0,5.1,0,12C682.1,613.2,682,616.4,681.7,619.5z M604.9,577.1
	c0,3.8-0.1,7.6,0,11.4c0.1,4.2-1.7,7.5-5.3,9.4c-6.1,3.3-12.5,6.2-18.7,9.3c-3.1,1.5-6.1,1.4-9.1,0c-3.4-1.6-6.9-3.1-10.3-4.9
	c-14.2-7.3-13.7-6.3-13.7-21.5c0-1.9,0-3.8,0-5.7c0.2-19.8-1.5-16.2,16.3-25.5c3.3-1.7,6.6-3.8,10.4-4.5c1.2-0.2,2.5-0.1,3.8,0
	c0.6,0,1.3,0.2,1.8,0.5c6.8,3.4,13.6,6.8,20.4,10.3c3.2,1.6,4.3,4.5,4.4,7.8C604.9,568.2,604.8,572.7,604.9,577.1
	C604.8,577.1,604.9,577.1,604.9,577.1z M604.7,538.9c-0.1,1.2-0.3,2.7-1,3.6c-0.7,0.8-2.2,1.5-3.2,1.3c-6.3-1.5-11.6-5.1-17.4-7.7
	c-1.7-0.8-3.5-1.5-5.3-2c-1.2-0.3-2.7-0.4-3.7,0.1c-5.8,2.5-11.5,5.3-17.3,7.9c-1.7,0.8-3.6,1.1-5.4,1.5c-1.6,0.4-2.3-0.4-2.8-1.9
	c-1-3.1-0.7-6.3-0.9-9.4c-0.2-3.8-0.3-7.6-0.8-11.4c-0.1-1.1-1.1-2.3-2-3.1c-3.2-3.2-7.6-4.5-11.5-6.6c-2.8-1.5-5.7-2.8-8-5.1
	c-1.1-1.1-1.1-2.1,0.3-3.2c1.5-1.2,3-2.4,4.6-3.3c3.4-1.8,6.8-3.5,10.2-5.1c4.4-2.1,7-5.1,7-10.2c0-5.1,0.3-10.2,0.5-15.3
	c0.1-2.6,3-4.3,5.5-3.1c4,1.9,8.1,3.8,12.1,5.6c2.9,1.3,5.8,2.6,8.8,3.7c1.1,0.4,2.6,0.4,3.7-0.1c5.8-2.5,11.5-5.3,17.4-7.9
	c1.7-0.8,3.6-1.4,5.4-1.7c1.4-0.2,2.5,0.6,3,1.7c0.3,0.6,0.6,1.2,0.6,1.8c0.2,2.5,0.4,5.1,0.4,7.6c0.2,15.7-0.6,13.7,13.9,21.4
	c2.8,1.5,5.9,2.5,7.9,5.2c0.3,0.5,0.6,1,0.9,1.6c-0.4,0.5-0.7,1.1-1.2,1.5c-1.5,1.2-3,2.4-4.6,3.3c-4.4,2.5-9,4.7-13.4,7.3
	c-1.6,1-2.8,2.7-2.9,4.7C605.2,527.4,605,533.1,604.7,538.9z M459.6,469c-0.3,1.4-3.1,3-4.5,2.4c-1.8-0.7-3.5-1.4-5.3-2.2
	c-4.6-2.1-9.2-4.3-13.8-6.5c-2.4-1.2-4.9-1.2-7.3-0.1c-6.4,2.9-12.7,5.9-19.1,8.8c-1.3,0.6-4.5-1-4.7-2.3c-0.1-0.6-0.4-1.2-0.5-1.8
	c-0.2-1.9-0.5-3.8-0.5-5.7c-0.3-16.8,0.2-14.7-15-22.8c-2.2-1.2-4.6-2-6.5-3.9c-1.3-1.3-1.5-3.8,0-4.6c2.8-1.5,5.5-3.2,8.3-4.6
	c12.7-6.6,13.1-6,13.2-20.1c0-3.2-0.1-6.4,1.1-9.4c0.5-1.3,1.6-1.9,2.8-2.1c1.2,0.2,2.6,0.2,3.7,0.7c5.8,2.6,11.5,5.4,17.3,7.9
	c2.4,1,5.1,0.9,7.5-0.1c4.1-1.8,8-3.9,12.1-5.7c2.3-1.1,4.7-2,7.1-2.9c1.5-0.6,4.3,0.9,4.4,2.4c0.2,2.5,0.6,5,0.7,7.6
	c0.2,3.8,0.3,7.6,0.6,11.4c0.1,2.1,1.5,3.5,3,4.7c1.5,1.2,3.2,2.1,4.8,3c4.4,2.5,8.9,4.9,13.4,7.3c1.4,0.8,1.2,3.5-0.1,4.7
	c-1.4,1.3-3.1,2.1-4.8,3c-4.4,2.5-9.3,4.2-13.4,7.3c-1.6,1.2-2.6,2.8-3,4.7C459.9,456.3,461.2,462.7,459.6,469z M460.7,504.2
	c-0.2,5.8-0.2,10.2-0.6,14.7c-0.2,2.5-1.1,4.9-3.6,6.4c-7.2,4.1-14.6,8-22.3,11c-1.1,0.4-2.6,0.4-3.7,0c-7.8-2.9-15.1-6.8-22.3-10.9
	c-2.5-1.4-3.6-3.8-3.8-6.3c-1-9.5-0.9-19.1,0-28.6c0.2-2.5,1.2-5,3.7-6.3c3.9-2.1,7.8-4.3,11.8-6.3c3.4-1.7,6.9-3.3,10.5-4.7
	c1.1-0.4,2.7-0.5,3.7-0.1c8.3,3.4,16.4,7.1,23.8,12.1c0.9,0.6,1.7,2.1,1.8,3.2C460.2,494,460.4,499.8,460.7,504.2z M393.9,552.3
	c-0.2,2.7-1.7,4.8-3.9,6.2c-7.1,4.2-14.4,8-22.2,10.9c-1.3,0.5-2.5,0.6-3.7,0.2c-0.6-0.2-1.3-0.3-1.8-0.5
	c-11.1-4.8-21.9-10.1-32.3-16.3c-1.7-1-2.7-2.8-2.9-4.7c-0.9-6.3-0.8-12.7-0.1-19c0.3-2.7,1.6-5,3.9-6.3c7.2-4.2,14.5-8,22.2-10.9
	c1.1-0.4,2.5-0.4,3.7-0.2c1.2,0.2,2.4,0.8,3.5,1.3c9.7,4.8,19.4,9.6,29,14.6c3,1.5,4.7,4.2,4.8,7.7c0,0.6,0.1,1.3,0.1,1.9
	c0,1.9,0,3.8,0,5.7c-0.1,0-0.1,0-0.2,0C393.9,546,394,549.2,393.9,552.3z M393.8,618.7c-0.3,2.6-1.1,5-3.5,6.4
	c-9.9,5.7-20.3,10.6-30.6,15.5c-3,1.4-6.2,1.4-9.3,0c-2.9-1.3-5.8-2.6-8.6-4.1c-16.8-8.6-15.5-6.5-15.4-26.2c0-0.6,0.1-1.3,0.1-1.9
	c0.2-4.1,1.7-7.4,5.5-9.4c9.6-4.9,19.3-9.7,29-14.5c3-1.5,6.2-1.4,9.2,0.1c3.4,1.6,6.9,3.3,10.3,5c14.3,7.3,13.6,5.8,13.7,22.9
	C394.1,613.6,394.1,616.2,393.8,618.7z M394.2,648.9c-0.2,2.8-0.1,4.7-0.5,6.6c-0.2,1.2-0.6,2.7-1.4,3.3c-0.9,0.6-2.6,0.8-3.6,0.4
	c-6-2.1-11.8-4.6-16.7-8.9c0-1.2-0.3-2.6,0.2-3.5c0.6-1,1.8-1.7,2.9-2.4c4.4-2.6,8.9-5,13.8-6.5c1.5-0.4,4.3,1,4.5,2.4
	C393.7,643.5,394,646.6,394.2,648.9z M326.3,577.8c0.2-4.2-0.3-7.4,1.4-10.3c0.5-0.9,2.1-2,2.9-1.8c6.2,1.3,11.5,4.7,16.9,7.8
	c0.9,0.5,1.5,1.9,2,3c0.5,1.1-0.1,2.1-1.4,2.9c-4.8,2.9-9.8,5.5-15,7.6c-2.2,0.9-5.6-0.8-5.9-3C326.8,581.6,326.5,579.2,326.3,577.8
	z M316.9,576.2c0,3.8-0.1,7.6,0,11.4c0.3,5.9-2.8,9.4-7.9,11.7c-6.3,2.9-12.2,6.7-18.9,8.8c-1.3,0.4-2.4,0.4-3.7,0
	c-8.4-3-16.3-7-23.7-11.9c-1.5-1-2.6-2.8-2.6-4.8c-0.1-9.5-0.1-19-0.1-28.5c0-3.5,2.1-5.9,5-7.4c6.2-3.2,12.4-6.4,18.7-9.4
	c3-1.5,6.2-1.4,9.2,0c6.3,3.1,12.4,6.3,18.7,9.4c3.8,1.9,5.3,5.2,5.3,9.3C316.9,568.6,316.9,572.4,316.9,576.2
	C316.9,576.2,316.9,576.2,316.9,576.2z M316.4,540.9c-0.1,1.5-2.7,3.3-4.1,2.8c-1.2-0.4-2.5-0.7-3.6-1.2c-4-1.9-8.1-3.8-12.1-5.7
	c-1.1-0.5-2.3-1.2-3.4-1.7c-3-1.5-6.1-1.8-9.2-0.3c-4.6,2.1-9.2,4.4-13.8,6.6c-1.7,0.8-3.5,1.4-5.3,2.1c-1.8,0.7-4.1-0.5-4.5-2
	c-1.4-6.3-0.3-12.7-1.1-19c-0.3-2.7-1.8-4.7-4.1-6.1c-1.6-1-3.3-1.9-5-2.7c-2.8-1.5-5.7-2.9-8.5-4.3c-0.6-0.3-1.1-0.7-1.6-1
	c-1.5-1-3.4-2-3.3-4c0-1,1.4-2.1,2.4-2.7c3.3-2,6.6-3.7,10-5.5c1.7-0.9,3.5-1.6,5.1-2.6c2.8-1.7,5-3.9,5-7.5
	c0.1-5.7,0.4-11.4,0.6-17.2c0.1-2.6,3.1-4.2,5.8-3c5.8,2.6,11.5,5.4,17.2,8.3c3.7,1.9,7.2,1.5,10.9-0.3c5.7-2.8,11.5-5.4,17.3-8
	c2.3-1,5.2,0.9,5.3,3.5c0.2,4.5,0.2,8.9,0.4,13.4c0.1,1.9,0.4,3.8,0.6,5.7c0.2,1.4,0.8,2.4,1.9,3.2c1.6,1.1,3.1,2.3,4.7,3.2
	c4.4,2.5,9.2,4.3,13.4,7.3c1.7,1.2,2,3.4,0.7,4.6c-3.4,3.1-7.7,4.4-11.5,6.7c-2.2,1.3-4.5,2.4-6.6,3.9c-1.6,1.1-2.7,2.8-2.8,4.8
	C317,528.3,316.7,534.6,316.4,540.9z M248.9,584.6c-0.2,1.2-3.4,3-4.5,2.5c-5.8-2.3-11.7-4.6-16.7-8.6c-0.9-0.7-0.8-2,0-3.3
	c0.3-0.5,0.7-1,1.2-1.4c4.6-3.3,9.8-5.6,15.1-7.7c2.2-0.9,5.1,0.9,5.3,3.4c0.1,0.6,0.3,1.2,0.3,1.9c0,1.9,0,3.8,0,8.5
	C249.6,579.6,249.3,582.1,248.9,584.6z M242.8,555.3c-7.9,4-15.8,8-23.8,11.9c-1.7,0.8-3.6,1.3-5.3,2.1c-1.9,0.8-3.8,0.5-5.5-0.2
	c-7.7-3-15.1-6.5-22-11.1c-1.5-1-2.8-2.6-2.9-4.7c-0.2-5.1-0.2-10.1-0.5-15.2c-0.3-5.7,1.9-9.7,7.1-12.2c8.6-4.1,17-8.5,25.5-12.7
	c1.1-0.6,2.3-1.1,3.5-1.5c1.8-0.7,3.7-0.7,5.5,0.1c7.6,3.3,15,6.8,22,11.2c1.6,1,2.6,2.8,2.8,4.8c0.4,3.8,0.6,7.6,0.5,6.9
	c0,6.3,0,8.2,0,10.1C249.8,550,247,553.1,242.8,555.3z M183,457.3c0.1-2.6,1.3-5,3.6-6.4c7-4.3,14.4-8.1,22.1-11
	c1.8-0.7,3.6-0.7,5.5,0.1c10.5,4.5,20.6,9.7,30.6,15.2c3,1.6,4.7,4.3,4.8,7.7c0.1,5.7,0.2,11.4,0,17.1c-0.1,2.5-1.1,5-3.5,6.4
	c-7.1,4.2-14.4,8-22.1,11c-1.8,0.7-3.7,0.7-5.5-0.2c-10.2-5.1-20.5-10.1-30.6-15.3c-3-1.5-4.7-4.1-4.8-7.6c0-0.6-0.1-1.3-0.1-1.9
	c0-1.9,0-3.8,0-5.7c0.1,0,0.1,0,0.2,0C182.9,463.6,182.8,460.5,183,457.3z M259.8,276.7c-0.2-5.1,2.6-8.2,6.9-10.3
	c5.7-2.8,11.3-5.7,17.1-8.4c3-1.4,6.2-1.4,9.2,0c6.3,3.1,12.4,6.3,18.7,9.4c3.8,1.9,5.3,5.2,5.3,9.3c0,8.2-0.1,16.5-0.1,24.7
	c0,3.5-1.6,6.3-4.5,7.9c-7.2,4-14.3,8.2-22.2,10.8c-1.3,0.4-2.4,0.4-3.7,0c-8.4-3-16.3-7-23.7-11.9c-1.5-1-2.6-2.8-2.7-4.8
	c-0.2-5.1-0.4-10.1-0.5-15.2c0.1,0,0.2,0,0.2,0C259.8,284.3,259.9,280.5,259.8,276.7z M259.8,330.7c0-1.9,0.2-3.8,0.3-5.7
	c0.1-2.5,3.1-4,5.8-2.9c1.2,0.5,2.4,0.7,3.6,1.3c2.9,1.4,5.7,2.8,8.6,4.2c10.5,5.1,10.3,5,21.3-0.4c3.4-1.7,6.9-3.3,10.4-4.8
	c1.1-0.5,2.5-0.4,3.7-0.4c1.5,0,2.4,0.8,2.8,2.1c1.2,3.7,0.6,7.6,0.8,11.4c0.2,3.2,0.3,6.4,0.8,9.5c0.2,1.1,1,2.6,1.9,3.1
	c5.5,3.2,11.2,6.1,16.7,9.3c1,0.6,1.5,1.8,2.3,2.7c0,0.6,0.2,1.5-0.2,1.9c-0.7,1-1.6,2-2.6,2.6c-5.5,3.2-11.2,6-16.6,9.4
	c-1.5,0.9-1.9,3.2-2,5.2c-0.2,5.1-0.4,10.2-0.6,15.3c0,0.6-0.3,1.2-0.4,1.9c-0.1,1.4-2.7,3.5-4.1,3.2c-1.2-0.2-2.5-0.4-3.7-0.8
	c-7.1-2.5-13.1-7.9-21-8.6c-7,1.6-12.8,5.7-19.2,8.5c-1.2,0.5-2.4,0.7-3.6,1.1c-1.6,0.5-4.4-0.9-4.5-2.4c-0.3-6.3-0.6-12.7-1.1-19
	c-0.1-1.9-0.9-3.7-2.7-4.8c-2.1-1.4-4.3-2.8-6.6-3.9c-4-1.9-8.2-3.6-11.4-6.8c-0.7-0.7-0.6-2.3-0.6-3.5c0-0.5,0.8-1,1.3-1.3
	c2.2-1.3,4.3-2.7,6.6-3.9C260.5,346.2,259.6,349.1,259.8,330.7z M348.6,274.7c-4.6-2.2-9.1-4.6-13.7-6.7c-5.8-2.6-9-6.7-8.5-13.4
	c0.3-4.4,0.2-8.9,0.4-13.3c0.2-2.6,1.4-5,3.7-6.4c7.1-4.3,14.5-7.9,22.2-11.1c1.9-0.8,3.8-0.6,5.5,0.3c10.3,5,20.6,10.1,30.8,15.3
	c2.9,1.5,4.8,4.1,5,7.6c0,1.3,0.1,2.5,0.2,3.8c0,1.3,0,2.5,0,7c0,0.7-0.3,4.5-0.6,8.3c-0.1,1.3-0.9,2.3-1.9,3.2
	c-0.5,0.4-0.9,0.9-1.4,1.3c-7.1,4.2-14.5,8-22.2,11c-1.9,0.7-3.8,0.6-5.5-0.2C357.8,279.1,353.2,276.9,348.6,274.7z M348.9,290.7
	c-5.2,3.6-10.7,6.3-16.6,8.4c-2,0.7-5.2-1.5-5.5-3.8c-0.5-5-0.9-10,0.3-14.9c0.3-1.4,1.1-2.3,2.5-2.6c0.6-0.1,1.2-0.3,1.7-0.1
	c6,1.9,11.5,4.8,16.7,8.3C349.7,287.2,350.4,289.7,348.9,290.7z M326.9,317.9c0.3-2.7,1.8-5,4-6.2c10.1-5.3,20.4-10.4,30.7-15.4
	c2.4-1.2,5-1.3,7.4-0.2c7.5,3.4,15.1,6.7,22,11.3c1.8,1.2,2.5,2.9,2.7,4.8c0.4,3.1,0.4,6.3,0.6,10.2c-0.2,3.1-0.4,6.9-0.9,10.7
	c-0.2,1.1-1.2,2.2-2,3.1c-0.4,0.5-1,0.9-1.5,1.1c-10.2,5.1-20.4,10.3-30.7,15.4c-2.3,1.1-5.1,1.3-7.4,0.2c-7.6-3.2-15.1-6.6-22-11.3
	c-1.6-1.1-2.6-2.9-2.9-4.8C326.1,330.6,326.1,324.3,326.9,317.9z M330.7,409.4c-2.3-1.2-3.8-3.6-3.9-6.2c-0.2-5.7-0.2-11.4-0.2-17.1
	c0-3.4,1.9-6,4.7-7.8c1.1-0.7,2.2-1.4,3.3-1.9c23-11.3,17.2-11.7,40.1-0.3c5.7,2.8,11.6,5.3,16.7,9.1c0.9,0.7,1.7,2,1.9,3.2
	c0.5,3.8,0.6,7.6,0.9,10.9c-0.2,3.7-0.3,6.8-0.7,10c-0.2,1.8-1,3.6-2.8,4.7c-7,4.5-14.6,7.8-22.1,11.3c-1.7,0.8-3.8,1.1-5.6,0.3
	C352,420.9,341.3,415.2,330.7,409.4z M348.8,434.5c-0.5,0.4-0.8,1-1.3,1.3c-4.9,2.9-9.8,5.5-15.1,7.5c-2.2,0.9-5.4-0.9-5.6-3.2
	c-0.2-2.5-0.4-5-0.5-7c0.2-2.3,0.3-4.2,0.4-6.1c0.3-3.4,3.7-5.8,6.5-4.6c5.2,2.2,10.3,4.6,15.1,7.6
	C349.8,430.9,350.2,433.4,348.8,434.5z M393.1,369.7c-0.3,1.3-1.4,1.8-2.9,1.8c-0.6,0-1.3,0-1.9-0.2c-5.4-2-10.5-4.5-15.3-7.8
	c-2-1.4-1.8-5,0.7-6.3c4.5-2.3,9.1-4.6,13.7-6.8c0.6-0.3,1.3-0.3,1.9-0.5c1.4-0.5,4.2,1.3,4.3,2.8c0,0.6,0.3,1.2,0.3,1.9
	c0,2.6,0,5.1,0,10.8C394,364.7,393.6,367.2,393.1,369.7z M259.6,432c0.1-4.4,0.1-8.9,0.4-13.3c0.2-2.6,1.4-4.9,3.7-6.3
	c7-4.3,14.4-8,22.1-11.1c1.8-0.7,3.7-0.7,5.5,0.1c6.3,3,12.5,6.1,18.8,9.1c4.4,2.1,6.8,5.4,6.8,10.4c-0.1,8.3,0,16.5-0.1,24.8
	c0,3.4-1.4,6.1-4.6,7.7c-6.8,3.5-13.5,7-20.4,10.3c-1.7,0.8-3.7,1.1-5.6,0.4c-8.3-3.2-16.3-7.1-23.7-12c-1.1-0.7-1.8-1.7-2-3.1
	c-0.2-1.2-0.6-2.5-0.6-3.7c-0.1-4.4,0-8.9,0-13.3C259.8,432,259.7,432,259.6,432z M246.7,312.5c1,0.6,1.5,2,2,3.1
	c0.5,1.2,0.8,2.4,0.8,3.7c0,5.7,0,11.4-0.2,17.1c-0.1,2.7-1.6,4.8-3.8,6.2c-6.4,4.1-13.3,7.3-20.3,10.3c-2.4,1-5.1,1.1-7.4,0
	c-11-4.9-21.8-10.1-32.2-16.3c-1.7-1-2.4-2.9-2.5-4.9c-0.2-3.2-0.4-6.3-0.6-10.1c0.2-3.1,0.4-6.9,0.9-10.7c0.1-1.1,1.1-2.3,1.9-3.1
	c0.9-0.9,2-1.6,3.1-2.2c6.2-3.1,12.4-6.3,18.7-9.3c2.4-1.2,5.1-1.3,7.4-0.2C225.4,301.3,236.4,306.3,246.7,312.5z M227.2,288.5
	c0.5-1.1,1.1-2.5,2-3c4.4-2.4,8.9-4.6,13.4-6.8c0.6-0.3,1.2-0.4,1.8-0.7c1.4-0.6,4.2,0.9,4.4,2.4c0.4,2.5,0.8,4.9,1.1,7.1
	c-0.2,2.9-0.3,5.4-0.7,7.9c-0.2,1.2-0.9,2.6-1.8,3.2c-0.9,0.6-2.5,0.7-3.6,0.4c-5.4-1.7-10.4-4.5-15.2-7.4
	C227.3,290.7,226.7,289.7,227.2,288.5z M203,364.1c-3.9,2.1-7.9,4.1-11.9,6.1c-1.1,0.6-2.4,0.8-3.6,1.3c-1.3,0.5-4.1-1.3-4.2-2.8
	c0-0.6-0.3-1.2-0.3-1.9c-0.1-2.5-0.2-5.1-0.4-8.5c0.3-1.6,0.7-4.1,1.2-6.5c0.3-1.3,1.4-1.9,2.9-1.8c0.6,0,1.3,0,1.8,0.2
	c5.4,2,10.5,4.5,15.2,7.7C205.6,359,205.7,362.6,203,364.1z M183.3,388.6c0.3-1.8,1.2-3.5,3-4.5c9.9-5.7,20.2-10.6,30.5-15.4
	c3-1.4,6.3-1.4,9.2,0c6.3,3,12.5,6.1,18.6,9.4c2.9,1.6,4.6,4.3,4.8,7.7c0.2,3.2,0.3,6.3,0.4,10.2c-0.3,2.4-0.5,5.6-0.9,8.7
	c-0.3,2-1.4,3.7-3.1,4.6c-10.5,5.9-21.2,11.3-32.3,16.2c-1.8,0.8-3.8,0.6-5.6-0.2c-7.5-3.3-15-6.7-22-11.1c-1.8-1.1-2.6-2.8-2.8-4.7
	C182.3,402.5,182.3,395.6,183.3,388.6z M249.8,431.4c-0.2,4.2,0.2,7.4-1.4,10.3c-0.6,1.2-1.6,1.9-3,1.6c-6.2-1.3-11.6-4.6-16.8-8
	c-1.6-1-2.1-3.8-0.9-4.7c5.1-3.8,10.8-6.3,16.8-8.3c1.2-0.4,4.2,1.5,4.4,2.8C249.3,427.5,249.6,429.9,249.8,431.4z M183.7,495.7
	c0.3-1.4,1.4-2,2.9-1.8c1.2,0.2,2.5,0.3,3.6,0.9c4.5,2.2,9,4.5,13.5,6.8c2.9,1.5,3.2,4,0.6,5.7c-5.3,3.4-10.8,6.5-17,8.2
	c-1.6,0.4-4-1.2-4.1-2.8c-0.2-3.2-0.4-6.3-0.6-10.1C182.8,500.6,183.2,498.1,183.7,495.7z M393.2,513.8c-0.5,1.2-1.6,1.8-3,1.6
	c-0.6-0.1-1.3-0.1-1.9-0.3c-6-2.1-11.8-4.8-16.8-8.7c-1.4-1.1-1.5-2.1-0.2-3.1c0.5-0.4,0.8-1,1.4-1.3c5.4-3.4,10.9-6.6,17.1-8.2
	c1.6-0.4,3.9,1.3,4,3c0.2,2.5,0.3,5.1,0.5,6.9C394,507.5,394.5,510.8,393.2,513.8z M393.4,477c-0.1,1.3-0.9,2.3-2,3.1
	c-1,0.7-1.9,1.8-3,2.3c-9.7,4.8-19.4,9.6-29.1,14.4c-3.1,1.6-6.1,1.2-9.1-0.3c-6.2-3.2-12.6-6.2-18.8-9.4c-3-1.6-4.7-4.4-4.8-7.8
	c-0.2-5.7-0.1-11.5,0.1-17.2c0.1-2.7,1.7-4.7,3.9-6.2c0.5-0.4,1-0.8,1.6-1.1c9.7-4.8,19.4-9.6,29.1-14.4c2.4-1.2,4.8-1.5,7.3-0.4
	c7.6,3.3,15.1,6.7,22.1,11.3c1.5,1,2.8,2.6,2.9,4.7c0.2,3.8,0.4,7.6,0.7,11.6C394,470.7,393.8,473.8,393.4,477z M404,349.3
	c0-5,2.2-8.6,6.5-10.8c25.2-12.6,18.4-12.5,43.5-0.2c1.1,0.6,2.1,1.4,3.1,2.2c1.5,1.2,2.7,2.8,2.9,4.7c0.4,5.7,0.5,11.4,0.6,13.1
	c-0.1,22.6,0.9,20.5-14.9,28.7c-2.3,1.2-4.6,2.2-6.8,3.3c-4.3,2.2-8.6,2.3-12.8,0c-6.2-3.3-12.8-5.6-18.4-9.9
	c-1.6-1.2-2.5-2.9-3.1-4.7c-0.4-1.2-0.5-2.5-0.5-3.8C403.9,364.6,404,357,404,349.3z M471.2,245c0.2-2,1.5-3.5,3-4.7
	c1.5-1.2,3.2-2.1,4.9-2.9c5.1-2.6,10.2-5.2,15.3-7.7c17.8-8.7,12.4-8.7,31.3,0.4c2.3,1.1,4.5,2.4,6.7,3.5c3.9,1.9,5.1,5.4,5.3,9.3
	c0.1,2.5,0,5.1,0,7.6c0.1,0,0.2,0,0.2,0c-0.1,2.5-0.2,5.1-0.4,7.6c-0.2,3.4-1.6,6.1-4.7,7.7c-5,2.6-10.1,5.3-15.2,7.8
	c-21.2,10.6-15.8,10.6-38.2-0.6c-1.7-0.8-3.4-1.7-4.9-2.9c-1.5-1.1-2.9-2.4-3.2-4.5C470.3,258.9,470.5,252,471.2,245z M470.6,215.4
	c0.1-1.6,0.3-4.1,0.5-6.7c0.1-1.7,2.6-3.3,4.1-2.9c6.1,1.8,11.7,4.7,17,8.2c3,2,2.8,3.6-0.5,5.6c-5.4,3.2-10.7,6.8-17.1,7.7
	c-1.5,0.2-2.4-0.4-3-1.7C470.4,222.6,470.8,219.4,470.6,215.4z M547.8,328.7c0-1.3,0.2-2.5,0.3-3.8c0.1-1.6,2.6-3.6,4-3.2
	c1.2,0.3,2.6,0.4,3.7,1c24.5,11.4,16.7,11.5,40.2,0.3c1.6-0.8,3.7-0.8,5.5-1c1.5-0.1,2.3,0.8,2.7,2.1c1.1,3.7,0.5,7.6,0.8,11.4
	c0.2,3.2,0.4,6.4,0.8,9.5c0.2,1.1,1,2.5,2,3.1c5.5,3.2,11.1,6.1,16.7,9.2c1.2,0.7,1.9,1.7,2.2,2.8c0,0.6,0.1,1.4-0.2,1.9
	c-1,1.7-2.7,2.6-4.4,3.5c-19,10.5-16.8,5-17.3,27c0,1.3-0.4,2.5-0.5,3.8c-0.1,1.4-2.7,3.4-4.1,3.1c-1.2-0.2-2.5-0.4-3.7-0.8
	c-7.1-2.5-13.1-7.9-21-8.6c-6.9,1.6-12.8,5.7-19.1,8.5c-1.2,0.5-2.4,0.7-3.6,1.1c-1.6,0.5-4.4-1-4.5-2.5c-0.3-6.3-0.6-12.7-1-19
	c-0.1-1.9-0.9-3.8-2.7-4.8c-5-2.8-10-5.5-15-8.3c-1.1-0.6-2.3-1.3-2.9-2.3c-0.6-0.9-0.6-2.3-0.5-3.5c0-0.5,0.8-1,1.3-1.3
	c1.6-1,3.2-2.1,4.9-3C549.2,345.7,547.5,349.9,547.8,328.7z M547.6,288.1c0.2-4.9,0.3-9.9,0.7-15c0.2-1.9,1.3-3.5,3.1-4.5
	c0.5-0.3,1-0.8,1.6-1.1c28-14.2,19.3-14.2,48.1,0.9c2.4,1.2,3.6,3.6,3.6,6.3c0.1,9.5,0,19-0.1,28.5c0,2.8-1.9,4.8-4.1,6.1
	c-7.2,4.1-14.3,8.1-22.2,10.8c-1.3,0.4-2.4,0.5-3.7,0.1c-8.4-2.9-16.3-7-23.7-11.9c-1.5-1-2.7-2.7-2.8-4.8
	C547.9,298.4,547.8,293.4,547.6,288.1z M677.1,239.4c2.9,1.5,4.7,4.2,4.8,7.7c0,1.3,0.1,2.5,0.2,3.8c0,1.3,0,2.5,0,6.9
	c-0.1,0.7-0.2,4.5-0.7,8.3c-0.2,1.1-1.2,2.1-1.9,3.1c-0.4,0.5-0.9,0.9-1.4,1.3c-6.6,3.9-13.4,7.3-20.4,10.3
	c-3.2,1.4-6.2,1.1-9.2-0.4c-8.6-4.1-17.1-8.4-25.7-12.6c-1.1-0.6-2.2-1.4-3.3-2c-3-1.7-4.8-4.2-4.8-7.7c-0.1-5.7,0-11.4,0.2-17.2
	c0.1-2.7,1.5-5,3.8-6.3c7.1-4.2,14.5-8,22.2-11c1.9-0.7,3.8-0.5,5.5,0.4C656.6,229.1,666.9,234.2,677.1,239.4z M659.2,215.3
	c0.5-0.4,0.8-1,1.3-1.3c5.4-3.4,10.9-6.6,17.1-8.2c1.5-0.4,4,1.3,4.1,2.9c0.2,2.5,0.3,5.1,0.4,6.8c-0.2,4,0.3,7.2-1,10.2
	c-0.5,1.3-1.5,1.8-3,1.7c-0.6-0.1-1.3-0.1-1.9-0.3c-6.1-2-11.7-4.8-16.9-8.7C658.1,217.4,658,216.4,659.2,215.3z M620.9,410.8
	c-4.5-2.2-6.4-5.9-6.4-10.7c0-5.1,0.1-10.2,0.4-15.2c0.2-2.7,1.8-4.7,4-6.1c6.5-4,13.4-7.3,20.4-10.3c2.4-1,5.1-1.1,7.4,0
	c8.1,3.8,16.1,7.7,24,11.6c2.8,1.4,5.6,3.1,8.3,4.7c1.7,1.1,2.4,2.9,2.6,4.8c0.3,3.2,0.4,6.3,0.6,9.4c-0.2,3.3-0.3,6.4-0.5,9.6
	c-0.2,2.7-1.6,4.7-4,6.1c-7.2,4.1-14.5,8-22.2,10.9c-1.1,0.4-2.5,0.3-3.7,0.1c-1.2-0.2-2.5-0.6-3.6-1.2
	C639.1,419.9,630,415.3,620.9,410.8z M637.3,433.9c-0.4,0.5-0.7,1.1-1.2,1.4c-5.3,3.3-10.7,6.4-16.8,8.2c-1.5,0.4-3.8-1.2-4.2-2.8
	c-1.1-5-0.8-9.9-0.2-14.9c0.2-1.3,2.8-3.9,3.8-3.8c0.6,0.1,1.3,0.1,1.9,0.3c5.9,2.2,11.6,4.6,16.6,8.5
	C638.2,431.6,638.3,432.6,637.3,433.9z M681.5,368.8c-0.1,1.4-2.9,3.2-4.3,2.6c-6-2.2-12-4.5-16.8-8.8c-0.7-0.7-0.7-2.3-0.7-3.5
	c0-0.4,0.8-1,1.3-1.3c4.7-3.3,9.9-5.8,15.3-7.7c2.4-0.9,5.3,0.9,5.4,3.5c0.1,2.5,0.3,5.1,0.5,8.1C682,363.8,681.7,366.3,681.5,368.8
	z M681.7,331.4c-0.2,2.7-1.7,4.8-4,6.1c-8.5,4.4-17,8.7-25.5,13c-1.7,0.9-3.4,1.7-5.2,2.4c-2.4,1-5.1,1.2-7.4,0.1
	c-6.9-3.2-13.7-6.7-20.4-10.2c-3-1.6-4.4-4.4-4.5-7.8c-0.3-5.7-0.5-11.4,0.3-17.1c0.4-2.7,1.9-5,4.1-6.1
	c10.2-5.3,20.4-10.3,30.7-15.4c2.4-1.2,5-1.2,7.4-0.1c7.5,3.5,15.1,6.7,22,11.4c1.7,1.2,2.4,3,2.6,4.8c0.3,3.2,0.4,6.3,0.6,9.5
	C682.1,325.1,682,328.3,681.7,331.4z M615.1,280.5c0.2-1.6,2.8-3.3,4.2-2.8c6,1.9,11.5,4.8,16.7,8.3c1.6,1,2.2,3.8,1,4.7
	c-5.1,3.7-10.7,6.3-16.6,8.5c-2.1,0.8-5.3-1.4-5.5-3.7c-0.1-0.6-0.2-1.2-0.2-1.9c-0.1-1.9-0.2-3.7-0.3-6.6
	C614.5,285.5,614.8,283,615.1,280.5z M547.7,436.7c0.4-26.8-3.3-20.9,21.7-33.6c2.2-1.1,4.7-1.8,7-2.6c8.7,3,16.5,7.2,24.2,11.7
	c2.2,1.3,3.8,3.4,4,6.1c0.6,9.5,0.6,19,0,28.5c-0.2,2.7-1.4,4.9-3.7,6.2c-7.1,4.3-14.5,7.9-22.1,11c-1.8,0.8-3.9,0.6-5.6-0.2
	c-6.3-2.9-12.5-6.2-18.8-9.1c-4.5-2.1-6.8-5.4-6.6-10.4C547.9,441.7,547.7,439.2,547.7,436.7z M470.8,392.6c0-1.3,0.1-2.6,0.5-3.8
	c0.5-1.8,1-3.5,2.9-4.6c9.9-5.8,20.2-10.6,30.5-15.5c3-1.4,6.3-1.5,9.2-0.2c5.8,2.6,11.5,5.4,17.1,8.3c4.2,2.2,6.9,5.4,6.8,10.5
	c-0.1,2.5,0,5.1,0,10.7c0,0.1-0.3,3.2-0.6,6.4c-0.2,2-1.4,3.8-3,4.7c-10.1,5.3-20.3,10.4-30.4,15.6c-3,1.5-6.1,1.4-9.1,0
	c-2.3-1.1-4.6-2.1-6.9-3.3C468.7,411.4,470.7,416,470.8,392.6z M470.6,360.2c0.2-3.5,0-6,1.1-8.4c0.6-1.2,1.5-1.8,3-1.8
	c0.6,0,1.3,0,1.8,0.2c5.4,2,10.5,4.4,15.2,7.7c1.9,1.3,1.5,5-0.9,6.2c-4.5,2.3-9.1,4.6-13.6,6.8c-0.6,0.3-1.2,0.3-1.8,0.6
	c-1.3,0.5-4.1-1.3-4.2-2.8C471.1,365.5,470.8,362.4,470.6,360.2z M537.7,435.5c0-0.1-0.3,2.4-0.5,4.9c-0.2,1.5-2.9,3.4-4.2,2.9
	c-6-2-11.6-4.7-16.7-8.5c-1.4-1-1.4-3.8-0.2-4.6c4.6-3.3,9.8-5.6,15-7.7c2.2-0.9,5.7,0.8,6,2.9c0.1,0.6,0.2,1.2,0.3,1.9
	c0.1,0.6,0.2,1.2,0.2,1.9C537.7,430.4,537.7,431.7,537.7,435.5z M497.6,439.6c1.3-0.4,2.5-0.3,3.7,0.2c11.1,4.7,21.9,10.1,32.3,16.1
	c2.3,1.3,3.6,3.6,3.8,6.2c0.2,3.2,0.4,6.3,0.6,9.8c-0.2,2.9-0.4,6-0.7,9.2c-0.2,1.9-1.1,3.9-2.6,4.9c-7.6,4.6-15.4,8.8-23.8,11.8
	c-1.1,0.4-2.6,0.1-3.7-0.3c-11-4.8-21.9-10.1-32.3-16.1c-2.3-1.3-3.6-3.5-3.9-6.2c-0.1-1.3-0.2-2.5-0.2-3.8
	c0-20.7-1.9-18.1,16.4-27.3C490.6,442.4,494,440.7,497.6,439.6z M538,288.1c-0.3,2.6-0.5,5.1-0.8,7.6c-0.2,2.1-3.7,3.9-5.8,3.1
	c-5.3-2.1-10.4-4.5-15.1-7.7c-1.3-0.9-1.3-3.6,0-4.7c0.5-0.4,0.8-1.1,1.3-1.3c5-2.7,9.9-5.5,15.3-7.3c1.2-0.4,4,1.5,4.2,2.9
	C537.4,283.2,537.7,285.7,538,288.1z M502.5,296.1c10.9,5.1,21.8,10.2,32.2,16.3c1,0.6,1.6,2,2,3.1c0.5,1.1,0.8,2.4,0.8,3.7
	c0,5.7,0,11.4-0.2,17.1c-0.1,2.7-1.6,4.8-3.8,6.2c-6.4,4.1-13.3,7.3-20.3,10.3c-2.4,1-5.1,1.1-7.4,0.1c-11-4.8-21.8-10.1-32.2-16.3
	c-1.7-1-2.4-2.9-2.5-4.8c-0.3-3.2-0.4-6.3-0.6-10.1c0.2-3.2,0.4-7,0.9-10.8c0.1-1.1,1.1-2.3,1.9-3.1c0.9-0.9,2-1.6,3.1-2.2
	c6.2-3.2,12.4-6.3,18.7-9.3C497.5,295.2,500.2,295.1,502.5,296.1z M471.2,496.7c0.1-0.6,0.4-1.2,0.8-1.7c0.3-0.4,0.9-0.7,1.3-1
	c0.6-0.1,1.3-0.3,1.9-0.2c6.2,1.7,11.7,4.8,17,8.2c2.7,1.7,2.5,3.9-0.4,5.7c-4.9,3-9.9,5.6-15.3,7.5c-2.7,0.9-5.2-0.6-5.5-3.2
	C470.5,506.8,470.5,501.7,471.2,496.7z M471,534c0.1-2.7,1.7-4.7,3.8-6.2c0.5-0.4,1-0.8,1.6-1.1c9.6-4.8,19.3-9.7,28.9-14.4
	c2.3-1.1,4.8-1.6,7.3-0.3c6.8,3.4,13.6,6.8,20.4,10.2c3.2,1.6,4.3,4.6,4.5,7.8c0.2,3.2,0,6.3,0,13.5c0.1-0.9-0.1,2.3-0.6,5.4
	c-0.2,1.1-1.1,2.3-1.9,3.2c-0.8,0.9-1.9,1.7-3,2.3c-9.6,4.8-19.3,9.6-28.9,14.4c-2.4,1.2-4.9,1.3-7.3,0.2
	c-7.6-3.2-15.1-6.5-21.9-11.2c-1.6-1.1-2.7-2.8-2.7-4.8C471,546.7,470.9,540.4,471,534z M515.7,575.1c0.3-0.5,0.8-1,1.3-1.4
	c4.7-3.2,9.8-5.7,15.2-7.6c1.1-0.4,2.7-0.3,3.6,0.3c0.9,0.6,1.4,2.1,1.6,3.3c0.4,2.5,0.5,5,0.7,8c-0.3,2-0.7,4.4-1.2,6.9
	c-0.2,1.3-3.3,2.9-4.6,2.4c-5.8-2.3-11.7-4.6-16.7-8.6C514.7,577.7,514.9,576.4,515.7,575.1z M614.3,575.3c0.2-2.2,0.3-4.1,0.5-5.9
	c0.2-2.4,3.4-4.4,5.5-3.4c5.1,2.4,10.2,4.8,15.1,7.4c1,0.5,1.5,1.9,2.1,3c0.6,1.2,0.1,2.2-1.2,3c-1.1,0.6-2.1,1.4-3.2,1.9
	c-3.9,2-7.8,3.9-11.8,5.8c-2.8,1.3-6.3-1.1-6.5-4.5C614.6,580,614.4,577.5,614.3,575.3z M648.8,568.6c-9.7-4.8-19.3-9.6-29-14.5
	c-3-1.5-5-4-5.1-7.5c-0.1-5.7-0.2-11.4,0.1-17.2c0.2-3.3,2-6,5.1-7.5c6.8-3.4,13.7-6.8,20.5-10.1c1.8-0.9,3.8-0.7,5.5,0.1
	c10.3,5,20.6,10,30.8,15.2c2.9,1.5,5,3.9,5.1,7.5c0.1,3.2,0,6.4,0,9.5c0,0,0,0,0,0c0,2.5,0.1,5.1,0,7.6c-0.1,3.6-2.3,6-5.1,7.5
	c-6.2,3.3-12.5,6.2-18.8,9.3C654.9,570.1,651.8,570.1,648.8,568.6z M681.2,513.8c-0.5,1.3-1.5,1.8-3,1.7c-0.6-0.1-1.3-0.1-1.9-0.3
	c-6.1-2-11.7-4.8-16.9-8.7c-1.4-1-1.5-2.1-0.3-3.1c0.5-0.4,0.8-1,1.3-1.3c5.4-3.4,10.9-6.6,17.1-8.2c1.5-0.4,4,1.3,4.1,2.9
	c0.2,2.5,0.3,5.1,0.4,6.8C682,507.5,682.5,510.7,681.2,513.8z M681.4,477c-0.1,1.3-0.9,2.3-2,3.1c-1,0.7-1.9,1.8-3,2.3
	c-9.7,4.8-19.4,9.6-29.1,14.4c-3.1,1.6-6.1,1.2-9.1-0.3c-6.2-3.2-12.6-6.2-18.8-9.4c-3-1.6-4.7-4.4-4.8-7.8
	c-0.2-5.7,0-11.5,0.1-17.2c0.1-2.7,1.7-4.7,3.9-6.2c0.5-0.4,1-0.8,1.6-1.1c9.7-4.8,19.4-9.6,29.1-14.4c2.4-1.2,4.8-1.5,7.3-0.4
	c7.6,3.3,15.1,6.7,22.1,11.3c1.5,1,2.8,2.6,2.9,4.7c0.2,3.2,0.4,6.3,0.7,10.2C682.1,469.4,681.8,473.2,681.4,477z M748.4,362
	c0.1,0,0.1,0,0.2,0c-0.2,4.4-0.2,8.9-0.6,13.3c-0.2,2.7-1.8,4.7-4,6.1c-6.5,3.9-13.3,7.4-20.4,10.1c-2.5,1-5.1,0.8-7.4-0.2
	c-6.3-3-12.5-6.1-18.7-9.4c-3.7-1.9-5.4-5.3-5.4-9.4c0-8.3,0-16.5,0.1-24.8c0.1-4.2,2.4-7.2,6-9c5.6-2.9,11.3-5.7,17.1-8.5
	c3.7-1.8,7.5-1.4,11,0.3c4.6,2.2,9,4.7,13.7,6.7c5.9,2.6,9,6.7,8.6,13.3C748.3,354.4,748.4,358.2,748.4,362z M636.8,146.6
	c-0.5,0.4-0.8,1-1.3,1.3c-4.9,2.8-9.8,5.5-15.2,7.4c-2.2,0.8-5.3-1-5.5-3.4c-0.2-2.5-0.4-5-0.6-8c0.3-2,0.7-4.4,1-6.9
	c0.2-1.5,2.9-3.3,4.2-2.9c0.6,0.1,1.3,0,1.9,0.3c5.2,2.2,10.3,4.6,15.1,7.6C637.9,143,638.1,145.4,636.8,146.6z M537.7,147.5
	c0,0-0.3,2.5-0.6,5c-0.2,1.5-3,3.3-4.2,2.9c-5.9-2.1-11.6-4.7-16.7-8.5c-1.4-1-1.4-3.7-0.1-4.6c4.7-3.3,9.8-5.5,15.1-7.7
	c2.2-0.9,5.7,0.8,5.9,2.9c0.1,0.6,0.2,1.2,0.3,1.9c0.1,0.6,0.2,1.2,0.2,1.9C537.7,142.5,537.7,143.7,537.7,147.5z M537.5,115
	c-0.3,2.5-1.3,5.1-3.6,6.4c-10.5,5.9-21.2,11.3-32.3,16.1c-1.9,0.8-3.8,0.5-5.6-0.2c-7.5-3.3-15-6.7-22-11.2
	c-1.8-1.1-2.5-2.9-2.8-4.7c-0.9-6.9-0.9-13.9,0.1-20.8c0.3-1.8,1.3-3.4,3.1-4.5c9.9-5.7,20.2-10.6,30.5-15.4c3-1.4,6.3-1.3,9.2,0.1
	c6.3,3,12.5,6.1,18.6,9.4c3,1.6,4.5,4.3,4.7,7.7c0.1,2.5,0.2,5.1,0.4,7.6C537.8,108.7,537.8,111.8,537.5,115z M508.8,155
	c6.9,3.2,13.6,6.8,20.4,10.2c1.1,0.6,2.2,1.2,3.3,1.9c2.8,1.8,4.9,4.1,5,7.6c0.1,5.7,0.3,11.4,0,17.1c-0.1,3.3-1.7,6-4.8,7.6
	c-6.7,3.5-13.4,7.2-20.5,10c-1.8,0.7-3.7,0.8-5.5,0c-10.2-5-20.5-10-30.7-15.2c-2.9-1.5-5-3.9-5.1-7.5c-0.1-3.2,0-6.3,0-9.5
	c-0.1,0-0.2,0-0.4,0c0.2-3.2,0.4-6.3,0.7-9.5c0.2-2.1,1.5-3.7,3-4.6c4.9-2.9,9.9-5.6,15.1-8.1C500.3,149.7,498.9,150.5,508.8,155z
	 M393.7,224.7c-0.1,1.6-2.7,3.1-4.3,2.7c-6.3-1.6-11.8-4.7-17.1-8.2c-1.9-1.2-2.3-3.5-0.7-4.5c8.9-5.7,11.9-7.1,18.8-8.8
	c1.5-0.4,2.6,0.4,2.8,1.8c0.4,3.1,0.7,6.3,1,8.9C394.1,219.6,393.9,222.2,393.7,224.7z M245.1,167.5c3,1.7,4.4,4.5,4.5,7.9
	c0.1,5.7,0.1,11.4-0.2,17.1c-0.1,2.5-1.3,4.9-3.7,6.3c-2.8,1.5-5.5,3.1-8.4,4.5c-4.6,2.2-9.1,4.4-13.8,6.4c-1.1,0.5-2.6,0.5-3.7,0.1
	c-3-1.1-5.9-2.3-8.7-3.8c-7.9-4-15.8-8-23.7-12.2c-3-1.6-4.5-4.3-4.5-7.8c0-0.6-0.1-1.3-0.1-1.9c0-1.9,0-3.8,0-9.1
	c0-0.4,0.2-4.2,0.8-7.9c0.2-1.1,1.2-2.2,1.9-3.2c0.4-0.5,0.9-0.9,1.4-1.2c7.2-4.1,14.4-8,22.2-10.8c1.1-0.4,2.5-0.2,3.7-0.2
	c0.6,0,1.2,0.3,1.8,0.6C224.9,156.8,235.1,161.9,245.1,167.5z M227.5,142.8c5-4,10.8-6.4,16.7-8.5c1.3-0.5,4.3,1.1,4.6,2.4
	c0.4,2.4,0.9,4.9,1.2,6.9c-0.2,3-0.3,5.5-0.7,8c-0.2,1.2-0.8,2.6-1.7,3.2c-0.9,0.6-2.5,0.5-3.6,0.2c-5.4-1.8-10.4-4.4-15.1-7.5
	c-0.5-0.3-0.9-0.9-1.3-1.4C226.7,144.8,226.6,143.6,227.5,142.8z M183.7,207.5c0.5-1.2,1.5-1.9,3-1.6c6.9,1.6,12.9,5,18.5,9.1
	c0.5,0.3,0.9,1,1,1.6c0.1,0.5-0.4,1.2-0.8,1.5c-0.9,0.9-1.8,1.8-2.9,2.4c-5.1,2.5-9.8,5.9-15.5,7.1c-1.5,0.3-3.9-1.4-4-3.1
	c-0.2-2.5-0.3-5-0.5-6.7C182.8,213.7,182.4,210.5,183.7,207.5z M183,246c0.2-2.7,1.7-4.7,3.9-6.2c0.5-0.4,1-0.8,1.6-1.1
	c9.6-4.8,19.3-9.6,29-14.4c2.3-1.1,4.8-1.5,7.3-0.3c7.5,3.4,15,6.8,21.9,11.3c1,0.6,1.5,2,2.1,3.1c0.3,0.5,0.4,1.2,0.5,1.8
	c0.9,6.3,0.8,12.6,0.1,19c-0.3,2.7-1.6,4.7-3.8,6.2c-0.5,0.4-1,0.8-1.6,1.1c-9.6,4.8-19.3,9.6-28.9,14.3c-2.4,1.2-4.9,1.2-7.3,0.2
	c-7.6-3.2-15.1-6.5-21.9-11.2c-1.6-1.1-2.6-2.9-2.7-4.8c-0.3-3.2-0.3-6.3-0.5-9.5c0.1,0,0.2,0,0.4,0C183,252.3,182.8,249.1,183,246z
	 M172.4,362c0.1,0,0.1,0,0.2,0c-0.2,4.4-0.2,8.9-0.6,13.3c-0.2,2.7-1.8,4.7-4,6.1c-6.5,3.9-13.3,7.4-20.4,10.1
	c-2.5,1-5.1,0.8-7.4-0.2c-6.3-3-12.5-6.1-18.7-9.4c-3.7-1.9-5.4-5.3-5.4-9.4c0-8.3,0-16.5,0.1-24.8c0.1-4.2,2.4-7.2,6-9
	c5.6-2.9,11.3-5.7,17.1-8.5c3.7-1.8,7.5-1.4,11,0.3c4.6,2.2,9,4.7,13.7,6.7c5.9,2.6,9,6.7,8.6,13.3
	C172.3,354.4,172.4,358.2,172.4,362z M115.7,411.4c0.2-5.1-0.5-10.2,1.1-15.2c0.4-1.3,1.6-2.1,2.8-2.1c1.2,0,2.6,0.1,3.7,0.6
	c5.8,2.6,11.5,5.4,17.3,7.9c2.4,1,5.1,1,7.5-0.1c4.1-1.8,8-3.9,12.1-5.7c2.3-1.1,4.7-2,7.1-2.9c1.6-0.6,4.4,0.8,4.5,2.3
	c0.2,2.5,0.6,5,0.7,7.6c0.2,3.8,0.3,7.6,0.5,11.4c0.1,2.1,1.5,3.5,2.9,4.7c1.5,1.2,3.2,2.1,4.8,3c4.4,2.5,8.9,4.9,13.4,7.3
	c1.5,0.8,1.4,3.6-0.1,4.7c-1,0.7-2,1.6-3,2.2c-4.5,2.4-9,4.7-13.5,7.1c-3,1.6-4.6,4.1-4.8,7.6c-0.4,5.7,0.3,11.4-1,17.1
	c-0.3,1.4-3.1,3.1-4.5,2.5c-3.5-1.5-7-3-10.5-4.6c-3.5-1.6-6.9-3.3-10.4-4.8c-0.5-0.2-1.2-0.2-1.9-0.2c-1.2,0.2-2.6,0.3-3.7,0.8
	c-6.4,2.9-12.7,5.9-19.1,8.8c-0.5,0.2-1.3,0-1.9-0.1c-1.3-0.1-2.3-0.8-2.8-2.1c-0.4-1.2-0.8-2.4-0.9-3.7c-0.2-3.8-0.4-7.6-0.4-11.5
	c0-4.9-1.8-8.6-6.3-10.8c-4-2-8-4-11.9-6.1c-1.1-0.6-2-1.5-3.1-2.2c-1.5-1.1-1.6-3.7-0.2-4.6c4.8-3.2,10-5.6,15.1-8.1
	C113.9,419.9,115.6,416.2,115.7,411.4z M172.5,509.2c-0.1,1.8-0.4,6.9-0.9,11.9c-0.1,1.1-0.9,2.6-1.9,3.2
	c-7.5,4.9-15.5,8.8-23.9,12.1c-1.1,0.4-2.6,0.2-3.7-0.2c-7.7-3-15.1-6.8-22.2-11.1c-2.4-1.4-3.4-3.9-3.6-6.4
	c-0.7-9.5-1-19.1,0.1-28.6c0.3-2.6,1.5-4.9,4-6.2c6.8-3.5,13.6-7,20.5-10.4c2.4-1.2,4.9-0.9,7.4,0.2c1.7,0.8,3.5,1.5,5.2,2.4
	C174.4,487.2,172.3,481.9,172.5,509.2z M183.4,599.1c0.1-1.1,1-2.4,1.8-3.2c1.4-1.2,3.1-2.3,4.7-3.1c5.1-2.6,10.2-5.1,15.3-7.7
	c3.6-1.8,7.2-2.2,10.9-0.3c9.6,4.8,19.2,9.7,28.8,14.6c2.4,1.2,3.8,3.4,4.2,5.9c1,6.9,1.1,13.9-0.2,20.8c-0.2,1.1-1.1,2.3-1.9,3.2
	c-0.8,0.9-1.9,1.8-3,2.3c-6.2,3.2-12.4,6.3-18.7,9.3c-2.3,1.1-5,1.2-7.4,0.1c-11-4.8-21.8-10.1-32.2-16.2c-1.7-1-2.4-2.9-2.6-4.8
	c-0.3-3.1-0.4-6.3-0.6-9.9C182.8,606.7,182.9,602.9,183.4,599.1z M204.8,649.9c-5,5-11.3,7.8-18.1,9.5c-1.4,0.4-2.5-0.4-2.9-1.7
	c-0.2-0.6-0.6-1.2-0.7-1.8c-0.5-5.1-0.7-10.1,0.2-15.1c0.3-1.5,1.1-2.3,2.3-2.6c0.6-0.1,1.3-0.5,1.9-0.3c6,2.1,11.9,4.5,16.8,8.6
	C205.2,647.2,205.7,649,204.8,649.9z M183.4,676.2c0.1-1.1,1-2.3,1.8-3.2c0.8-0.9,2-1.5,3.1-2.1c9-4.6,18.1-9.2,27.1-13.7
	c3.6-1.8,7.4-2.1,11-0.4c6.3,3,12.5,6.2,18.6,9.5c3,1.6,4.4,4.5,4.5,7.9c0.1,5.7,0.1,11.4-0.2,17.1c-0.1,2.5-1.4,5-3.8,6.2
	c-10.1,5.2-20.3,10.4-30.5,15.4c-2.3,1.2-4.9,1.3-7.3,0.2c-5.2-2.4-10.3-4.8-15.4-7.4c-2.3-1.1-4.4-2.5-6.5-3.9
	c-1.7-1.1-2.4-2.9-2.6-4.8c-0.3-3.1-0.4-6.3-0.6-10C182.8,683.8,182.9,680,183.4,676.2z M228.1,718.3c4.6-3.3,9.8-5.6,15-7.7
	c3.1-1.3,6.1,0.9,6.4,4.6c0,0.6,0.2,1.2,0.2,1.9c0,1.3,0,2.5,0,6.4c0-0.1-0.2,2.4-0.5,4.9c-0.2,1.6-2.8,3.4-4.1,3
	c-6-1.9-11.6-4.7-16.7-8.4C227,721.9,226.9,719.2,228.1,718.3z M326.8,749.8c0.3-2.7,1.9-4.7,4.2-6c11.1-6.2,22.4-12.1,34.3-16.8
	c9.2,3,17.6,7.4,25.7,12.6c1.6,1,2.7,2.8,2.7,4.8c0.1,6.4,0.2,12.7,0.1,19.1c-0.1,2.7-1.9,4.7-4.2,6c-10.6,5.9-21.3,11.4-32.5,16.1
	c-1.1,0.5-2.6,0.5-3.7,0.1c-8.3-3.2-16.4-7-23.8-12c-1.6-1.1-2.5-2.9-2.8-4.8C326,762.5,326.1,756.1,326.8,749.8z M326.9,713.8
	c0.2-1.3,2.8-3.9,3.8-3.8c0.6,0.1,1.3,0.1,1.9,0.3c5.9,2.2,11.6,4.6,16.6,8.5c1.1,0.8,1.1,1.9,0.1,3.1c-0.4,0.5-0.7,1.1-1.2,1.4
	c-5.3,3.3-10.7,6.4-16.8,8.2c-1.5,0.4-3.8-1.2-4.2-2.8C326,723.7,326.3,718.8,326.9,713.8z M360.9,712.8c-9.7-4.8-19.4-9.6-29-14.5
	c-3.7-1.9-5.3-5.3-5.4-9.4c0-2.5,0-5.1,0-12c-0.1,1.8,0-0.7,0.2-3.2c0.2-3.5,2.2-6,5.1-7.5c6.2-3.3,12.5-6.3,18.8-9.4
	c3-1.4,6.3-1.3,9.3,0.1c10.4,4.9,20.7,9.8,30.6,15.5c1.8,1,2.8,2.7,3.1,4.5c1,7,1,14,0,20.9c-0.3,1.8-1.3,3.4-3.1,4.5
	c-6.5,4-13.5,7.1-20.3,10.5C367,714.2,364,714.3,360.9,712.8z M471.1,600.5c0.2-1.9,0.8-3.8,2.4-4.9c7.4-4.9,15.4-8.7,23.7-11.9
	c1.1-0.4,2.5-0.1,3.7,0c0.6,0,1.3,0.2,1.8,0.5c10.2,5.1,20.4,10.2,30.5,15.4c2.5,1.3,3.6,3.6,3.9,6.1c0.8,6.3,0.8,12.6,0,19
	c-0.3,2.7-1.8,4.7-4,6.1c-6.5,4-13.3,7.3-20.3,10.2c-2.4,1-5.1,0.9-7.4-0.1c-11-4.9-21.8-10.2-32.1-16.4c-1-0.6-1.8-2-2-3.1
	c-0.5-3.8-0.7-7.6-0.9-10.5C470.8,606.8,470.8,603.7,471.1,600.5z M491.9,651.2c-5.2,3.7-10.8,6.5-17,8.1c-1.4,0.4-2.5-0.4-3.1-1.5
	c-0.3-0.6-0.7-1.1-0.7-1.7c-0.2-2.5-0.4-5.1-0.6-7.8c0.2-2.4,0.4-4.9,0.7-7.4c0.1-1.5,2.8-3.5,4.1-3.1c6,2,11.8,4.6,16.9,8.4
	C493.5,647.2,493.3,650.2,491.9,651.2z M681.6,656.7c-0.1,1.5-2.8,3.3-4.2,2.8c-6-2.2-11.9-4.5-16.9-8.7c-1.2-1-0.9-4,0.4-5
	c4.7-3.3,9.9-5.7,15.3-7.8c2.4-0.9,5.4,0.8,5.6,3.3c0.2,2.5,0.3,5.1,0.5,7.9C682,651.6,681.8,654.1,681.6,656.7z M758.6,647.5
	c0.2-2,0.6-4.5,0.9-7c0.2-1.4,3-3.1,4.4-2.5c5.9,2.3,11.9,4.4,16.7,8.8c0.6,0.6,0.4,2.3,0.3,3.5c0,0.5-0.7,1-1.3,1.4
	c-4.7,3.2-9.8,5.8-15.2,7.6c-1.1,0.4-2.7,0.3-3.6-0.3c-0.9-0.6-1.4-2.1-1.5-3.2C758.8,653.1,758.7,650.6,758.6,647.5z M825,626
	c-0.2,1.1-1,2.4-1.9,3.2c-1.4,1.3-2.9,2.5-4.6,3.4c-5.1,2.6-10.2,5.1-15.3,7.6c-3.6,1.7-7.4,2-11,0.2c-9.7-4.8-19.2-9.7-28.9-14.5
	c-0.6-0.3-1.1-0.7-1.6-1.1c-1.6-1.2-2.4-2.9-2.6-4.8c-0.8-6.9-0.8-13.9,0.2-20.8c0.2-1.1,1-2.4,1.8-3.2c1.4-1.2,3.1-2.3,4.7-3.2
	c5.1-2.6,10.2-5.1,15.3-7.7c3.6-1.8,7.2-2.2,10.9-0.4c9.6,4.8,19.2,9.7,28.8,14.6c3.2,1.6,4.3,4.5,4.6,7.8c0.2,3.1,0.1,6.3,0.1,13.8
	C825.7,619.8,825.5,622.9,825,626z M825.2,583.8c-0.2,2.1-3.7,3.9-5.8,3.1c-5.3-2.1-10.4-4.5-15.1-7.7c-1.3-0.9-1.3-3.6,0-4.7
	c0.5-0.4,0.8-1.1,1.3-1.3c5-2.7,9.9-5.5,15.3-7.3c1.2-0.4,4,1.5,4.2,2.9c0.3,2.5,0.6,5,0.9,7.4C825.7,578.8,825.5,581.3,825.2,583.8
	z M822.8,523.4c1,0.6,1.4,2,2,3.1c0.3,0.5,0.4,1.2,0.5,1.8c0.8,6.3,0.8,12.6,0.1,19c-0.3,2.7-1.6,4.8-3.9,6.2
	c-10.5,6-21.1,11.5-32.4,15.9c-1.1,0.4-2.5,0.2-3.7,0c-1.2-0.2-2.5-0.5-3.6-1.1c-6.2-3.1-12.5-6.2-18.6-9.5c-2.3-1.2-3.9-3.4-4.1-6
	c-0.3-3.1-0.3-6.3-0.4-9.4c0.1-3.3,0.1-6.5,0.4-9.6c0.3-2.6,1.7-4.8,4-6.1c10.5-5.9,21.3-11.3,32.3-16.1c1.1-0.5,2.6-0.6,3.7-0.2
	C807.3,514.7,815.3,518.6,822.8,523.4z M758.6,503.3c0.2-2,0.5-4.5,0.7-7c0.1-1.6,2.7-3,4.4-2.4c6,2,11.7,4.7,16.9,8.3
	c1.7,1.2,1.9,3.5,0.4,4.6c-5.2,3.6-10.8,6.5-16.9,8.4c-2.6,0.8-5-0.8-5.1-3.8C758.9,508.9,758.7,506.4,758.6,503.3z M825.1,481.7
	c-0.3,1.9-1.3,3.7-2.9,4.7c-7.1,4.2-14.4,8-22.1,11.1c-1.8,0.7-3.7,0.8-5.5-0.1c-8-3.9-16-7.7-23.9-11.6c-12.5-6.1-11.8-6.5-12-20.9
	c0.1-1.6,0.3-5.4,0.6-9.1c0.2-2.1,1.5-3.7,3.1-4.6c5.5-3.1,11.1-6.1,16.8-9c6.9-3.5,9.2-3.4,16.1,0c7.4,3.6,14.7,7.4,22.1,11.1
	c1.7,0.9,3.2,2,4.8,3c1.7,1.1,2.8,2.7,3.1,4.6C826.1,467.8,826.3,474.7,825.1,481.7z M803.5,430.9c5-4,10.7-6.4,16.7-8.5
	c1.3-0.5,4.3,1.1,4.6,2.4c0.1,0.6,0.5,1.2,0.5,1.8c0.2,2.5,0.4,5,0.6,7.2c-0.2,2.2-0.3,4.1-0.7,5.9c-0.3,1.2-0.8,2.6-1.7,3.2
	c-0.9,0.6-2.5,0.6-3.6,0.2c-5.4-1.8-10.4-4.4-15.1-7.5c-0.5-0.3-0.9-0.9-1.3-1.4C802.8,432.8,802.6,431.6,803.5,430.9z M821.3,378.4
	c2.2,1.3,3.8,3.4,4.1,6.1c0.3,3.1,0.4,6.3,0.6,9.4c-0.2,3.2-0.1,6.4-0.6,9.6c-0.4,2.5-1.5,4.9-3.9,6.2
	c-10.6,5.7-21.2,11.4-32.4,15.9c-1.1,0.4-2.6,0.5-3.7,0.1c-8.3-3.1-16.2-7.1-23.7-11.9c-1-0.6-1.9-1.9-2.1-3
	c-1.4-7.5-1.2-15.1-0.2-22.7c0.2-1.1,1.2-2.2,1.9-3.2c0.4-0.5,1-0.8,1.5-1.1c10.2-5.1,20.3-10.3,30.6-15.3c2.3-1.1,4.9-1.2,7.4-0.2
	C808,371,814.7,374.5,821.3,378.4z M758.6,359.2c0.2-1.5,0.5-4,0.7-6.5c0.1-1.4,3-3.2,4.3-2.8c5.5,1.7,10.5,4.5,15.4,7.3
	c2.4,1.4,2.7,4.9,0.6,6.2c-5.3,3.4-10.8,6.6-17,7.9c-1.5,0.3-2.4-0.5-2.9-1.8C758.5,366.5,758.8,363.4,758.6,359.2z M825,338.1
	c-0.2,1.1-1.1,2.3-1.9,3.2c-0.8,0.9-1.9,1.8-3,2.3c-6.2,3.2-12.4,6.3-18.7,9.3c-2.3,1.1-5,1.2-7.4,0.1c-11-4.8-21.8-10.1-32.2-16.2
	c-1.7-1-2.4-2.9-2.6-4.8c-0.3-3.1-0.4-6.3-0.6-9.9c0.2-3.4,0.4-7.2,0.8-10.9c0.1-1.1,1-2.4,1.8-3.2c1.4-1.2,3.1-2.3,4.7-3.1
	c5.1-2.6,10.2-5.1,15.3-7.7c3.6-1.8,7.2-2.2,10.9-0.3c9.6,4.8,19.2,9.7,28.8,14.6c2.4,1.2,3.8,3.4,4.2,5.9
	C826.2,324.2,826.3,331.2,825,338.1z M825.2,295.7c-0.2,2.1-3.7,3.9-5.8,3.1c-5.3-2.1-10.4-4.5-15.1-7.7c-1.3-0.9-1.4-3.6-0.1-4.7
	c0.5-0.4,0.8-1.1,1.3-1.3c5-2.7,9.9-5.5,15.3-7.3c1.3-0.4,4.1,1.4,4.2,2.9c0.3,2.5,0.6,5,0.9,7.4
	C825.7,290.7,825.5,293.2,825.2,295.7z M813.6,230.2c2.3,1.1,4.5,2.4,6.7,3.5c3.9,1.9,5.1,5.4,5.3,9.3c0.1,2.5,0,5.1,0,7.6
	c0.1,0,0.2,0,0.2,0c-0.1,2.5-0.2,5.1-0.4,7.6c-0.2,3.4-1.6,6.1-4.7,7.7c-5,2.6-10.1,5.3-15.2,7.8c-21.2,10.6-15.8,10.6-38.2-0.6
	c-1.7-0.8-3.4-1.7-4.9-2.9c-1.5-1.1-2.9-2.4-3.2-4.5c-1-6.9-0.8-13.9-0.1-20.8c0.2-2,1.5-3.5,3-4.7c1.5-1.2,3.2-2.1,4.9-2.9
	c5.1-2.6,10.1-5.2,15.3-7.7C800.1,221.1,794.7,221.1,813.6,230.2z M758.6,217.8c0.2-4.1-0.2-7.2,1-10.3c0.5-1.3,1.4-2,2.9-1.7
	c1.2,0.2,2.5,0.4,3.6,0.9c4.5,2.2,9,4.5,13.5,6.9c2.9,1.5,3.1,4,0.6,5.7c-5.3,3.4-10.8,6.5-17,8.1c-1.5,0.4-4-1.2-4.1-2.9
	C758.9,222,758.8,219.5,758.6,217.8z M824.7,194.9c-0.4,1.1-1.1,2.5-2,3.1c-7.6,4.6-15.5,8.7-23.8,11.9c-1.1,0.4-2.6,0.2-3.7-0.3
	c-11-4.8-21.9-10.1-32.3-16.1c-2.3-1.3-3.9-3.4-3.9-6.1c-0.1-6.3,0-12.7,0.1-19c0-2,1.1-3.9,2.7-4.8c7.5-4.8,15.4-8.8,23.8-11.8
	c1.3-0.5,2.5-0.4,3.7,0.1c11.1,4.6,21.9,10.1,32.3,16.1c2.3,1.3,3.6,3.5,3.8,6.2c0.3,3.2,0.4,6.3,0.5,8.3
	C825.7,187.4,826.1,191.2,824.7,194.9z M825.3,151.5c-0.2,1.2-0.7,2.7-1.6,3.3c-0.9,0.6-2.5,0.6-3.6,0.2c-5.8-2.3-11.8-4.3-16.4-8.9
	c-1-1-1-2.5-0.2-3.2c4.9-4.1,10.7-6.4,16.6-8.6c1.3-0.5,4.4,1,4.6,2.3c0.1,0.6,0.5,1.2,0.6,1.8c0.3,2.5,0.4,5,0.6,7.1
	C825.7,147.8,825.6,149.7,825.3,151.5z M820.8,90.1c2.9,1.6,4.6,4.3,4.7,7.7c0.1,5.7,0.2,11.4-0.1,17.1c-0.1,2.5-1.2,5.1-3.6,6.4
	c-10.5,5.9-21.2,11.3-32.3,16.1c-1.9,0.8-3.8,0.6-5.6-0.2c-7.5-3.3-15-6.7-22-11.2c-1.8-1.1-2.6-2.9-2.8-4.7
	c-0.4-3.8-0.5-7.6-0.7-11.2c0.2-3.3,0.3-6.5,0.8-9.6c0.3-1.8,1.3-3.5,3.1-4.5c9.9-5.7,20.2-10.6,30.5-15.4c3-1.4,6.3-1.3,9.2,0.1
	C808.5,83.7,814.7,86.8,820.8,90.1z M758.6,71.2c0.2-1.5,0.4-4,0.7-6.5c0.1-1.4,2.9-3.2,4.2-2.8c5.5,1.7,10.5,4.5,15.4,7.3
	c2.4,1.4,2.8,4.8,0.7,6.2c-5.3,3.5-10.8,6.6-17,7.9c-1.5,0.3-2.4-0.5-3-1.7C758.4,78.6,758.8,75.4,758.6,71.2z M759.5,22.8
	c0.2-1.1,1-2.4,2-3c7.4-4.9,15.4-8.8,23.7-11.9c1.1-0.4,2.5-0.1,3.7,0c0.6,0,1.3,0.2,1.8,0.4c10.2,5.1,20.4,10.2,30.6,15.4
	c2.5,1.3,3.6,3.6,4,6.1c0.9,6.3,0.8,12.6,0.1,19c-0.3,2.7-1.7,4.8-4,6.1c-6.5,4-13.3,7.3-20.3,10.2c-2.4,1-5.1,1-7.4-0.1
	c-11-4.9-21.8-10.2-32.1-16.4c-1-0.6-1.8-2-2-3.1c-0.5-3.7-0.7-7.5-1.1-11.4C758.8,30.3,759,26.5,759.5,22.8z M692.4,58.3
	c0.2-2.6,1.7-4.9,3.9-6.2c6.5-4,13.3-7.5,20.4-10.2c2.4-0.9,5-0.9,7.5,0c7.1,2.8,13.9,6.2,20.4,10.3c2.2,1.4,3.5,3.7,3.7,6.3
	c0.2,5.1,0.3,10.2,0.4,14c-0.3,6.3,0.4,11.4-0.9,16.4c-0.3,1.3-0.9,2.4-2,3.2c-0.5,0.4-0.9,0.9-1.4,1.2c-6.5,4-13.3,7.3-20.4,10.2
	c-2.4,1-5.1,0.9-7.5-0.1c-7-3-13.9-6.1-20.3-10.3c-2.2-1.5-3.6-3.6-3.8-6.3C691.5,77.3,691.5,67.8,692.4,58.3z M688.3,132.1
	c1.6-1.1,2.7-2.8,2.9-4.7c0.4-3.8,0.4-7.6,0.7-11.4c0.2-2.5,0.6-5,0.9-7.6c0.2-1.4,3.2-2.9,4.6-2.4c1.8,0.7,3.6,1.1,5.4,2
	c3.5,1.6,6.8,3.4,10.3,5.1c1.1,0.6,2.3,1.1,3.5,1.5c2.5,0.8,5,1,7.5,0c2.4-1,4.6-2.1,6.9-3.2c3.5-1.6,6.9-3.2,10.4-4.8
	c3.9-1.8,6.6-0.5,6.8,3.3c0.1,1.9,0.3,3.8,0.4,5.7c0.1,3.2,0.1,6.4,0.2,9.6c0.1,4.3,2.6,6.9,6.2,8.9c5.1,2.7,10.1,5.4,15.1,8.1
	c0.5,0.3,1,0.9,1.3,1.4c0.2,0.4,0,1.1-0.1,1.6c-0.8,1-1.3,2.3-2.3,2.9c-5.4,3.3-11.6,5.4-16.7,9.1c-1.6,1.1-2.9,2.6-3.1,4.6
	c-0.3,3.8-0.3,7.6-0.6,11.4c-0.2,2.5-0.5,5-0.7,7.6c-0.1,1.4-3.1,3.3-4.4,2.7c-1.8-0.7-3.5-1.4-5.3-2.2
	c-22.4-10.1-13.1-10.3-36.7,0.5c-1.2,0.5-2.3,1.1-3.5,1.4c-0.6,0.2-1.3,0-1.9,0c-1.3,0-2.4-0.6-2.9-2c-0.4-1.2-0.9-2.4-1-3.6
	c-0.3-5.1-0.4-10.2-0.8-15.3c-0.2-2.6-1.9-4.5-4.1-6.1c-5.3-3.6-11.6-5.2-16.6-9.3c-1.5-1.2-1.8-3.7-0.5-4.6c3.1-2.2,6.6-3.9,10-5.5
	C682.9,135.5,685.7,133.8,688.3,132.1z M681.7,120.9c-0.2,1.9-0.9,3.7-2.6,4.8c-7.6,4.7-15.5,8.8-23.8,11.9c-1.1,0.4-2.5,0.1-3.7,0
	c-0.6,0-1.3-0.3-1.8-0.5c-10.2-5.1-20.5-10.1-30.7-15.4c-2.2-1.2-3.8-3.4-4.1-6.1c-0.2-1.9-0.4-3.8-0.5-5.7
	c-0.1-18.2-0.9-16.8,14.8-24.7c3.4-1.7,6.9-3.3,10.4-4.7c2.4-1,5.1-0.9,7.5,0.2c11,5,21.9,10.1,32.2,16.5c1,0.6,1.9,1.9,2,3.1
	c0.5,3.8,0.7,7.6,1,10.6C682.1,114.6,682,117.8,681.7,120.9z M659.8,71.1c0-0.4,0.8-1,1.3-1.3c4.7-3.3,9.9-5.8,15.3-7.7
	c2.4-0.9,5.3,0.9,5.4,3.5c0.1,2.5,0.3,5.1,0.5,8.1c-0.2,2.1-0.5,4.6-0.7,7.2c-0.1,1.4-2.9,3.2-4.3,2.6c-6-2.2-12-4.5-16.8-8.8
	C659.7,74,659.8,72.3,659.8,71.1z M614.8,30.2c0.1-2.7,1.5-5.1,3.8-6.3c10.6-5.8,21.2-11.5,32.4-16.1c1.8-0.7,3.9-0.6,5.6,0.2
	c7.5,3.4,15.1,6.7,22.1,11.2c1.8,1.2,2.6,2.8,2.9,4.7c0.4,3.1,0.5,6.3,0.7,10.1c-0.2,3.2-0.4,7-0.9,10.8c-0.1,1.2-1.1,2.2-1.8,3.3
	c-0.3,0.5-1,0.9-1.5,1.1c-10.2,5.2-20.4,10.4-30.6,15.4c-3,1.4-6.3,1.3-9.2-0.2c-6.3-3.1-12.5-6.2-18.7-9.5c-3-1.6-4.8-4.2-4.8-7.6
	C614.6,41.7,614.6,35.9,614.8,30.2z M547.5,53.8c0.3-5.7,0.4-11.4,0.6-17.2c0.1-1.5,2.8-3.3,4.2-2.9c1.2,0.3,2.5,0.5,3.7,1
	c3.5,1.6,7,3,10.3,5c6.6,4,12.8,4.2,19.7,0.2c4.3-2.5,8.7-5.3,13.9-6.2c1.9-0.3,4.3,0.9,4.5,2.5c0.1,1.3,0.5,2.5,0.5,3.7
	c0.1,2.5,0.1,5.1,0.1,7.6c0,1.9,0,3.8,0.2,5.7c0.2,3.3,1.2,6.1,4.4,7.8c5.1,2.6,10.1,5.4,15.1,8.1c1.2,0.7,1.9,1.7,1.9,2.9
	c-0.1,0.6,0.1,1.5-0.2,1.8c-0.8,0.9-1.8,1.8-2.9,2.5c-5,2.8-10,5.6-15.1,8.2c-2,1-2.6,2.8-3,4.6c-1.3,6.3,0.2,12.7-1.3,19
	c-0.3,1.3-2.8,3.2-4.3,2.9c-1.2-0.3-2.6-0.4-3.7-0.9c-5.8-2.6-11.6-5.3-17.3-8c-1.9-0.9-3.8-0.6-5.5,0.1c-5.2,2.3-10.4,4.9-15.6,7.2
	c-1.7,0.8-3.6,1.2-5.4,1.8c-1.5,0.5-4.3-1.3-4.3-2.7c-0.2-3.8-0.3-7.6-0.5-11.4c-0.1-2.5-0.2-5.1-0.5-7.6c-0.2-1.9-1-3.7-2.8-4.7
	c-5-2.7-10.1-5.5-15.1-8.3c-1.1-0.6-2.3-1.4-2.9-2.4c-0.5-0.9-0.6-2.5-0.2-3.5c0.5-1,1.8-1.8,2.9-2.4c4.5-2.5,8.9-4.9,13.5-7.2
	C545.8,59.8,547.3,57.2,547.5,53.8z M470.7,29.4c0-1.9,0.1-3.8,0.5-5.7c0.4-1.8,1.1-3.5,2.9-4.6c5.9-3.8,12.3-6.4,18.5-9.7
	c4.3-2.3,8.4-2.3,12.7-0.1c7.9,4.1,15.7,8.3,23.8,11.9c6,2.6,8.9,6.7,8.7,13.2c-0.1,1.9,0,3.8,0,8.2c0,0.7-0.1,3.8-0.6,7
	c-0.3,1.8-1.3,3.5-3,4.6c-6.9,4.5-14.3,8.2-22,11c-1.7,0.6-3.7,0.2-5.6,0c-1.2-0.1-2.4-0.7-3.6-1.2c-5.7-2.8-11.4-5.6-17-8.5
	C469.2,46.8,470.8,50,470.7,29.4z M471.8,63.9c0.3-1.3,1.4-1.9,2.9-1.8c0.6,0,1.3-0.1,1.8,0.1c5.4,1.9,10.5,4.4,15.2,7.6
	c1.3,0.9,1.7,1.8,1.3,3.2c-0.3,1.2-0.8,2.4-2,3c-3.9,2.1-7.9,4.1-11.8,6.1c-1.1,0.6-2.4,0.9-3.6,1.3c-1.3,0.5-4.2-1.2-4.3-2.7
	c-0.2-3.1-0.5-6.3-0.8-9.9C470.9,68.8,471.2,66.3,471.8,63.9z M404.2,59c0.3-3.4,2.1-6.1,5-7.6c6.2-3.3,12.4-6.4,18.7-9.4
	c3-1.4,6.3-1.2,9.3,0.2c6.3,3,12.5,6.2,18.7,9.5c3,1.6,4.3,4.5,4.4,7.9c0,1.3,0.2,2.5,0.2,3.8c0,3.2,0,6.4,0,9.5c0.1,0,0.2,0,0.2,0
	c-0.2,5.1-0.4,10.1-0.8,15.2c-0.2,1.9-1.5,3.4-3,4.7c-3,2.5-6.6,3.8-10,5.6c-3.4,1.8-6.8,3.5-10.3,4.9c-3,1.3-6.3,1.2-9.3-0.2
	c-6.3-3.1-12.5-6.2-18.6-9.5c-3-1.6-4.4-4.5-4.6-7.8C403.7,76.8,403.5,67.9,404.2,59z M403.4,126.8c1-6.3-0.6-12.8,1.7-18.9
	c0.5-1.4,1.6-2,2.9-1.9c1.2,0.1,2.6,0.2,3.7,0.7c5.2,2.4,10.3,4.9,15.5,7.3c3,1.4,6.2,1.6,9.3,0.3c2.9-1.2,5.8-2.6,8.6-4.1
	c3.4-1.7,6.8-3.5,10.5-4.6c1.5-0.4,4.2,1.1,4.3,2.7c0.2,3.2,0.4,6.3,0.6,9.5c0.2,3.2,0.3,6.4,0.6,9.5c0.2,2,1.5,3.6,3.1,4.6
	c3.2,2,6.6,3.7,9.9,5.6c2.8,1.6,5.5,3.1,8.2,4.8c0.5,0.3,0.9,0.9,1.3,1.4c-0.6,1.1-1.1,2.3-1.9,3.2c-2.2,2.4-5.4,3.2-8.2,4.8
	c-3.3,1.9-6.9,3.3-9.9,5.7c-1.6,1.3-2.6,2.9-2.7,4.8c-0.3,5.1-0.3,10.2-0.7,15.3c-0.1,1.8-0.6,4.1-1.9,5.2c-1.3,1.2-3.6,0.8-5.4,0
	c-2.3-1.1-4.6-2.1-6.9-3.2c-3.4-1.6-6.9-3.3-10.3-5c-2.5-1.3-5-1-7.3,0.1c-4.6,2.1-9.2,4.4-13.8,6.6c-1.7,0.8-3.5,1.4-5.3,2.1
	c-1.3,0.5-4.5-1.2-4.6-2.5c-0.3-2.5-0.7-5-0.9-7.6c-0.3-3.8-0.4-7.6-0.7-11.4c-0.2-2-1.3-3.7-3-4.7c-5.5-3.2-11.1-6.1-16.6-9.3
	c-1-0.6-1.6-1.9-2.3-2.9c-0.2-0.4-0.3-1.3-0.1-1.5c0.9-0.9,1.9-1.7,3-2.3c5-2.7,10.2-5.2,15.1-8.1
	C401.5,131.7,402.9,129.5,403.4,126.8z M326.8,30.2c0.1-2.7,1.5-5.1,3.8-6.3c10.1-5.3,20.4-10.4,30.6-15.5c2.4-1.2,5-1.4,7.4-0.4
	c7.6,3.3,15.1,6.7,22.1,11.2c1.8,1.2,2.6,2.8,2.8,4.7c0.4,3.1,0.5,6.3,0.7,10.1c-0.2,3.2-0.4,7-0.9,10.8c-0.1,1.1-1.1,2.2-1.8,3.2
	c-0.3,0.5-1,0.9-1.5,1.1c-10.2,5.2-20.4,10.4-30.7,15.4c-3,1.4-6.3,1.3-9.2-0.2c-6.3-3.1-12.5-6.2-18.7-9.5c-3-1.6-4.8-4.2-4.8-7.7
	C326.6,41.6,326.6,35.9,326.8,30.2z M259.8,40.7c0-0.6,0.1-1.3,0.1-1.9c0.2-4.7,3.2-6.3,7.9-4.1c1.2,0.5,2.3,1.1,3.4,1.6
	c2.9,1.4,5.8,2.7,8.5,4.3c5.4,3,10.7,3.5,16.3,0.4c4.5-2.4,9.1-4.6,13.7-6.7c1.1-0.5,2.5-0.4,3.7-0.4c1.5,0,2.3,0.8,2.7,2.2
	c1.1,3.7,0.5,7.6,0.8,11.4c0.2,3.2,0.4,6.4,0.8,9.5c0.2,1.1,1,2.5,2,3.1c5.5,3.2,11.1,6.2,16.7,9.2c1.2,0.7,1.9,1.7,2.2,2.8
	c0,0.6,0.1,1.4-0.2,1.9c-1,1.7-2.7,2.6-4.4,3.5c-19,10.5-16.8,5-17.3,27c0,1.3-0.4,2.5-0.5,3.8c-0.1,1.4-2.7,3.4-4.1,3.1
	c-0.6-0.1-1.3-0.1-1.9-0.3c-1.2-0.4-2.5-0.7-3.6-1.3c-21.8-10.5-15.3-10.4-36.6-0.2c-1.7,0.8-3.6,1.3-5.4,1.9
	c-1.6,0.5-4.4-1-4.5-2.5c-0.3-6.3-0.6-12.7-1-19c-0.1-1.9-0.9-3.8-2.7-4.8c-5-2.8-10-5.5-15-8.3c-1.1-0.6-2.3-1.3-2.9-2.3
	c-0.6-0.9-0.6-2.3-0.5-3.5c0-0.5,0.8-1,1.3-1.3c1-0.7,2.1-1.4,3.2-2C261.6,57.2,259.4,62.5,259.8,40.7z M183.2,24.1
	c0.2-1.8,0.9-3.6,2.7-4.8c6.9-4.5,14.4-7.9,22-11.2c2.4-1.1,5-0.9,7.4,0.3c10.2,5.1,20.4,10.2,30.5,15.4c2.4,1.3,3.3,3.8,3.7,6.3
	c0.4,2.5,0.4,5.1,0.4,7.6c0,15.5,0.2,15.1-13.1,21.8c-16.1,8.1-14.3,8-29.8,0.3c-6.8-3.4-13.5-7-20.2-10.5c-2.5-1.3-3.4-3.7-3.6-6.3
	c-0.3-3.2-0.3-6.3-0.4-9.7C182.8,30.4,182.8,27.3,183.2,24.1z M204.8,74.2c0,0.5-0.7,1-1.3,1.4c-4.7,3.2-9.8,5.8-15.2,7.6
	c-1.1,0.4-2.7,0.3-3.6-0.3c-0.9-0.6-1.1-2.1-1.6-3.2c-0.2-0.6-0.2-1.3-0.2-1.9c0-1.9,0-3.8,0-8.4c0,0.2,0.3-2.3,0.6-4.8
	c0.2-1.4,3-3.1,4.4-2.5c5.9,2.3,11.9,4.4,16.7,8.8C205.1,71.3,204.9,73,204.8,74.2z M183.2,101.3c0.2-1.9,0.9-3.7,2.6-4.8
	c10.4-6.1,21.2-11.4,32.2-16.2c2.4-1,5.1-0.9,7.4,0.1c7,2.9,13.9,6.1,20.3,10.3c2.2,1.4,3.5,3.6,3.7,6.3c0.2,4.4,0.3,8.9,0.4,13.3
	c0.2,6.2-1.8,10.8-8.2,13.5c-7,2.9-13.6,6.8-20.4,10.2c-10.8,5.3-9.6,5.2-21.1-0.4c-4.6-2.2-9-4.7-13.4-7.1
	c-2.4-1.3-3.5-3.6-3.7-6.2c-0.2-3.2-0.3-6.3-0.4-9.7C182.8,107.6,182.8,104.5,183.2,101.3z M116.3,58.5c0.2-2.6,1.6-4.9,3.8-6.3
	c6.5-4.1,13.3-7.4,20.4-10.3c2.4-1,5-1,7.5-0.1c7.1,2.8,13.9,6.3,20.4,10.2c2.3,1.4,3.6,3.6,3.8,6.3c0.3,5.1,0.3,10.2,0.5,16.6
	c-0.2,3.7-0.5,8.8-0.9,13.8c-0.1,1.3-0.8,2.4-1.9,3.2c-0.5,0.4-0.9,0.9-1.4,1.3c-6.5,4-13.3,7.4-20.4,10.3c-2.4,1-5.1,1-7.5,0
	c-7-2.9-13.9-6.2-20.4-10.3c-2.2-1.4-3.7-3.5-3.9-6.2C115.5,77.5,115.5,68,116.3,58.5z M113.1,131.3c0.8-0.9,1.8-2.1,1.9-3.2
	c0.5-5.7,0.7-11.4,1.1-17.1c0.1-1.2,0.8-2.4,1.3-3.5c0.6-1.5,1.6-1.9,3.1-1.5c1.8,0.5,3.7,0.9,5.4,1.7c4.6,2.1,9.1,4.5,13.8,6.6
	c3,1.4,6.2,1.2,9.3,0c6.5-2.6,12.2-6.9,19.1-8.4c1.5-0.3,2.6,0.1,3,1.5c0.4,1.2,1,2.4,1,3.6c0.3,5.1,0.3,10.2,0.6,15.3
	c0.2,2.7,1.6,4.8,3.8,6.3c5.8,4,12.7,5.8,18.1,10.4c0.4,0.3,0.5,1,0.8,1.5c-0.7,1.1-1.1,2.5-2.1,3.1c-4.4,2.5-8.9,4.8-13.4,7.2
	c-1.1,0.6-2.2,1.4-3.2,2c-2.3,1.4-3.8,3.4-3.9,6.1c-0.3,5.7-0.6,11.4-0.9,17.2c-0.1,2.3-3.4,4.1-5.7,3.2c-0.6-0.2-1.2-0.4-1.8-0.6
	c-0.6-0.2-1.1-0.6-1.7-0.9c-23.2-10.6-13.9-10.6-36.6-0.3c-1.7,0.8-3.6,1.2-5.3,1.9c-1.3,0.5-3.9-1.5-4.2-3c-1-4.4-0.6-8.9-0.9-13.3
	c0-0.6-0.1-1.3-0.1-1.9c0.2-5.2-2.8-8.2-7-10.4c-4-2-8-4-11.9-6.1c-1.1-0.6-2-1.5-2.9-2.5c-1.1-1.2-1.2-2.4-0.3-3.2
	c4.9-4.2,11.1-6.1,16.6-9.4C111.2,133,112.3,132.3,113.1,131.3z M42.9,54.6c-2.3-1.2-3.8-3.4-4.1-6c-0.7-6.3-0.8-12.7,0.1-19
	c0.4-2.7,2-4.9,4.2-6c10.2-5.2,20.4-10.3,30.7-15.3c2.4-1.1,5-1.1,7.4,0.1c6.8,3.4,13.6,6.8,20.4,10.3c2.4,1.2,3.8,3.3,4,6
	c0.2,3.2,0.3,6.3,0.5,9.5c-0.1,0-0.2,0-0.2,0c0,2.5,0.1,5.1,0,7.6c-0.2,3.3-1.3,6.2-4.4,7.9c-5.6,3-11.3,5.8-17,8.7
	c-4.5,2.3-9.1,4.5-13.8,6.6c-2.4,1.1-5.1,1.1-7.4,0C56.5,61.7,49.7,58.2,42.9,54.6z M106.3,74.5c-0.3,2.1-0.7,4.6-1.2,7.1
	c-0.3,1.3-1.4,1.9-2.9,1.8c-0.6,0-1.3,0-1.9-0.2c-5.4-2-10.5-4.5-15.3-7.7c-2.1-1.4-1.8-5,0.6-6.3c4.5-2.3,9.1-4.6,13.7-6.9
	c0.6-0.3,1.3-0.3,1.9-0.5c1.4-0.5,4.2,1.3,4.3,2.7C105.7,67.8,106,70.9,106.3,74.5z M38.7,98.1c0-3.4,1.7-6.2,4.7-7.8
	c6.2-3.3,12.4-6.4,18.7-9.5c3-1.4,6.2-1.7,9.3-0.3c11,5,21.9,10.1,32.2,16.6c0.9,0.6,1.8,2,1.9,3.1c0.5,3.8,0.6,7.6,0.9,10.9
	c-0.2,3.7-0.3,6.9-0.7,10c-0.2,1.9-1,3.6-2.8,4.7c-7,4.5-14.6,7.8-22.1,11.3c-1.7,0.8-3.7,1.1-5.6,0.3
	c-11.2-4.6-21.8-10.3-32.4-16.1c-2.2-1.2-3.8-3.5-3.9-6.2C38.6,109.5,38.6,103.8,38.7,98.1z M39.1,137.3c0.3-2.2,3.7-3.9,5.9-3
	c5.2,2.1,10.3,4.6,15.1,7.5c1.3,0.8,2,1.8,1.6,2.8c-0.5,1.1-1.1,2.5-2,3c-5.4,3.2-10.7,6.5-16.9,7.9c-0.9,0.2-2.4-0.8-3-1.6
	c-1.8-2.8-1.2-6-1.4-10.2C38.5,142.3,38.8,139.8,39.1,137.3z M43,198.8c-2.2-1.2-3.8-3.4-4.1-6.1c-0.3-2.5-0.5-5.1-0.5-7.6
	c0-15.5-0.5-15.1,13.1-22c5.7-2.9,11.3-5.8,17.1-8.5c2.9-1.4,5.9-2.4,8.7-3.6c8.8,2.7,16.5,7.2,24.3,11.5c2.3,1.3,3.8,3.4,4.1,6.1
	c0.3,1.9,0.3,3.8,0.3,5.7c0,18.6,1.6,16.4-14.7,24.7c-7.4,3.8-14.9,7.2-22.4,10.7c-1,0.5-2.6,0.4-3.7,0
	C57.5,206.9,50.3,202.8,43,198.8z M106.3,217.4c-0.3,2.6-0.5,5.1-0.8,7.6c-0.1,1.6-2.7,2.8-4.5,2.3c-6.2-1.7-11.8-4.8-17.1-8.3
	c-1.7-1.2-1.8-3.4-0.1-4.6c5.2-3.7,10.9-6.6,17-8.5c2-0.6,4.4,0.3,4.5,2C105.7,211.2,106,214.3,106.3,217.4z M38.6,243.3
	c0.1-4,1.5-7.5,5.4-9.4c6.8-3.4,13.7-6.8,20.5-10.1c1.8-0.9,3.8-0.7,5.5,0.1c10.3,5,20.6,10,30.8,15.2c2.9,1.5,5,3.9,5.1,7.5
	c0.1,3.2,0,6.4,0,9.5c0,0,0,0,0,0c0,2.5,0.1,5.1,0,7.6c-0.1,3.6-2.3,6-5.2,7.5c-6.2,3.3-12.5,6.2-18.8,9.3c-3,1.5-6.2,1.4-9.2-0.1
	c-9.7-4.8-19.3-9.7-29-14.5c-3-1.5-5-4-5.1-7.5C38.6,253.5,38.5,248.4,38.6,243.3z M39.8,279.3c0.5-0.9,2.2-1.8,3.1-1.5
	c6.6,2,12.9,4.6,18.1,9.3c1,0.9,1.1,2.6,0.3,3.2c-5.5,4.2-11.5,7.5-18.3,8.9c-0.9,0.2-2.1-1-3.1-1.7c-0.4-0.3-0.7-1.1-0.8-1.7
	c-0.3-2.5-0.6-5-0.7-6.2C38.5,285.3,38.1,282,39.8,279.3z M49.3,346.1c-2.3-1.1-4.5-2.4-6.7-3.7c-2.3-1.4-3.8-3.5-3.9-6.2
	c-0.2-5.7-0.3-11.4-0.1-17.2c0.1-3.3,1.8-6.2,4.8-7.7c9.6-5,19.3-9.8,29-14.6c3-1.5,6.1-1.8,9.2-0.3c7.5,3.6,15.2,6.7,21.9,11.6
	c0.9,0.7,1.8,2,1.9,3.1c0.5,3.8,0.6,7.6,0.9,10.9c-0.2,3.7-0.3,6.8-0.7,10c-0.2,1.9-1,3.7-2.8,4.7c-10.5,6.1-21.3,11.5-32.3,16.3
	c-2.4,1-5.1,0.9-7.4-0.2C58.4,350.7,53.8,348.4,49.3,346.1z M106.3,362.1c-0.2,1.9-0.5,4.4-0.9,7c-0.2,1.4-3,2.9-4.4,2.3
	c-6-2.3-11.9-4.6-16.7-9c-0.7-0.6-0.4-2.3-0.3-3.5c0-0.5,0.8-1,1.3-1.3c4.5-2.4,8.9-4.9,13.5-7.1c1.7-0.8,3.9-1,5.5,0
	c0.9,0.5,1.3,2.1,1.5,3.3C106.1,356.4,106.1,358.9,106.3,362.1z M38.9,384.5c0.3-1.9,1.3-3.6,2.8-4.8c1-0.8,2-1.6,3.1-2.2
	c5.7-2.9,11.3-5.7,17.1-8.5c3.7-1.7,7.5-1.6,11.1,0.2c9.7,4.8,19.3,9.7,28.9,14.7c2.4,1.2,3.7,3.3,4,6.1c0.6,6.3,0.7,12.7-0.1,19
	c-0.2,1.9-0.9,3.7-2.6,4.8c-7.6,4.7-15.5,8.8-23.8,11.9c-1.1,0.4-2.5,0.1-3.7,0c-0.6,0-1.3-0.3-1.8-0.5
	c-10.2-5.1-20.5-10.1-30.7-15.4c-2.2-1.2-3.9-3.4-4.1-6.1c-0.3-3.8-0.4-7.6-0.6-11.1C38.4,389.5,38.5,387,38.9,384.5z M39.1,425.4
	c0.3-2.2,3.7-3.9,5.9-3.1c5.3,2,10.3,4.6,15.1,7.5c1.3,0.8,2.1,1.8,1.7,2.8c-0.4,1.1-1.1,2.5-2.1,3c-5.4,3.2-10.7,6.6-16.9,8
	c-0.9,0.2-2.5-0.7-3-1.6c-1.8-2.8-1.3-6-1.5-10.3C38.5,430.3,38.8,427.9,39.1,425.4z M49.1,490.1c-2.3-1.1-4.5-2.3-6.6-3.7
	c-2.2-1.5-3.6-3.8-3.7-6.4c-0.2-5.7-0.1-11.4-0.1-17.2c0-0.6,0.2-1.3,0.3-1.9c0.4-2,1.6-3.5,3.1-4.6c1.5-1.1,3.2-2.2,4.9-3
	c4-2,8-4,12-5.9c22.4-10.7,14.9-10.7,38.3,0.6c2.3,1.1,4.7,2.1,6.3,4.1c0.8,0.9,1.7,2.1,1.9,3.2c0.5,3.8,0.7,7.6,0.9,10.8
	c-0.2,3.8-0.4,7-0.7,10.1c-0.2,2.1-1.6,3.4-3.1,4.6c-1.5,1.1-3.2,2.1-4.9,3c-4.5,2.4-9,4.7-13.6,6.9
	C63.2,500.5,70.8,500.4,49.1,490.1z M106.2,506.5c-0.2,2.2-0.3,4.1-0.5,6c-0.1,1.6-2.7,3.3-4.2,2.8c-0.6-0.2-1.3-0.2-1.9-0.4
	c-5.4-2-10.5-4.5-15.3-7.7c-1.9-1.3-2.4-3.4-0.8-4.5c5.8-3.9,11.8-7.6,18.8-9c1.5-0.3,2.5,0.4,2.9,1.7c0.2,0.6,0.5,1.2,0.6,1.8
	C106,500.5,106.1,503.7,106.2,506.5z M38.4,533.1c0-1.3,0.1-2.5,0.3-3.8c0.4-2.6,1.4-5,3.7-6.4c7.1-4.3,14.5-7.9,22.1-11.1
	c1.9-0.8,3.8-0.6,5.5,0.2c7.5,3.5,15,7,22.3,10.8c14.5,7.4,13.6,6.2,13.4,21.6c0,2.5,0.1,5.1,0,7.6c-0.1,2.7-1.4,4.9-3.7,6.3
	c-7.1,4.3-14.5,8-22.2,11c-1.9,0.7-3.7,0.5-5.5-0.1c-1.8-0.6-3.6-1.3-5.3-2.1c-5.1-2.5-10.3-5.1-15.4-7.7
	C37,550.7,38.4,553,38.4,533.1z M39.8,567.3c0.5-0.9,2.2-1.8,3.1-1.5c6.6,2,12.9,4.6,18.1,9.3c1,0.9,1.1,2.6,0.3,3.2
	c-5.5,4.2-11.5,7.5-18.3,8.9c-0.9,0.2-2.1-1-3.1-1.7c-0.4-0.3-0.7-1.1-0.8-1.7c-0.3-2.5-0.6-5-0.7-6.2
	C38.5,573.3,38.1,570,39.8,567.3z M42.9,630.6c-2.3-1.2-3.8-3.4-4.1-6.1c-0.3-3.2-0.4-6.3-0.4-9.5c-0.1-13.2,0.6-13.6,11.6-19.1
	c7.9-4,16-7.9,24-11.7c2.4-1.1,5-1,7.4,0.1c6.8,3.4,13.6,6.8,20.4,10.3c2.4,1.2,3.8,3.3,4,6c0.2,3.2,0.3,6.3,0.5,9.5
	c-0.1,0-0.2,0-0.2,0c0,2.5,0.1,5.1,0,7.6c-0.2,3.3-1.4,6.2-4.5,7.9c-5.6,2.9-11.3,5.8-17,8.7c-4.5,2.3-9.1,4.5-13.8,6.6
	c-2.4,1.1-5.1,1.1-7.4,0C56.4,637.6,49.6,634.1,42.9,630.6z M106.2,647.5c-0.2,4.1,0.3,7.3-1.1,10.3c-0.5,1.1-1.6,1.7-3.1,1.6
	c-0.6,0-1.3-0.1-1.8-0.3c-5.3-2.1-10.6-4.4-15.2-7.8c-1.3-1-1.6-4.1-0.5-5c5.1-4,10.9-6.5,17-8.5c1.3-0.4,4,1.5,4.1,3
	C105.8,643.3,106,645.9,106.2,647.5z M39,671.9c0.3-2,1.6-3.5,3.1-4.6c5.7-4.1,12.3-6.6,18.5-9.8c4.2-2.2,8.6-2.2,12.8,0
	c9.1,4.6,18.1,9.3,27.2,13.8c4,2,5.3,5.2,5.3,9.3c0.1,2.5,0,5.1,0,11c0-0.2,0,3-0.5,6.2c-0.3,1.8-1.1,3.6-3,4.6
	c-4.5,2.4-8.9,5-13.4,7.2c-12.7,6.2-10.6,6.1-22.9,0.2c-8-3.9-15.9-8.1-23.7-12.3c-2.3-1.3-3.5-3.7-3.8-6.3
	C38.2,684.6,38,678.2,39,671.9z M38.7,714.9c0.3-3.4,3.7-5.8,6.5-4.6c5.2,2.2,10.3,4.6,15.1,7.6c1.6,1,1.9,3.4,0.6,4.5
	c-0.5,0.4-0.8,1-1.3,1.3c-5.5,3-10.8,6.4-17,7.9c-0.5,0.1-1.3-0.3-1.6-0.7c-0.8-0.9-1.9-1.9-2-2.9c-0.4-3.1-0.4-6.2-0.6-8.3
	C38.5,717.4,38.6,716.2,38.7,714.9z M106,831.2c0,2.5,0,5.1,0,7.6c0,3.5-1.5,6.3-4.4,7.9c-7.2,4-14.4,8.1-22.3,10.8
	c-1.3,0.4-2.5,0.6-3.7,0c-0.6-0.3-1.2-0.3-1.8-0.6c-10.5-4.6-20.7-9.7-30.7-15.4c-3.1-1.7-4.3-4.5-4.5-7.9
	c-0.1-3.8-0.2-7.6-0.2-11.5c0-1.9,0.2-3.8,0.5-5.7c0.4-2.7,1.8-4.9,4.1-6.1c7.2-4,14.5-8,22.3-10.8c1.1-0.4,2.7-0.5,3.7,0
	c11.1,4.8,21.9,10.3,32.5,16.1c0.5,0.3,1,0.8,1.5,1.2c1.5,1.3,2.5,2.9,2.7,4.8c0.3,3.2,0.3,6.4,0.5,9.5
	C106.1,831.2,106.1,831.2,106,831.2z M105.6,801.1c-0.1,1.6-2.7,2.8-4.5,2.3c-6.2-1.7-11.8-4.8-17.1-8.3c-1.7-1.2-1.8-3.4-0.1-4.6
	c5.2-3.7,10.9-6.6,17-8.5c2-0.6,4.4,0.3,4.6,2c0.3,3.2,0.6,6.3,0.9,9.4C106.1,796,105.8,798.5,105.6,801.1z M105.9,754.9
	c0,2.5,0,5.1,0,7.6c0,3.6-2.3,5.8-5,7.5c-1.1,0.7-2.2,1.2-3.4,1.8c-4,2-7.9,4.1-11.9,6c-22.8,10.9-14.7,10.5-36.6,0.2
	c-2.3-1.1-4.5-2.3-6.6-3.7c-2.2-1.5-3.5-3.8-3.6-6.4c-0.2-5.7-0.1-11.4-0.1-17.2c0-0.6,0.2-1.2,0.3-1.9c0.4-2,1.7-3.4,3.2-4.6
	c1.5-1.1,3.2-2.1,4.9-3c3.4-1.8,6.8-3.4,10.3-5.1c24.5-11.9,16-11.8,41.6,0.7c1.7,0.8,3.2,2,4.6,3.3c0.9,0.8,1.7,2.1,1.8,3.2
	c0.5,3.8,0.6,7.6,0.9,11.4C106.2,754.9,106.1,754.9,105.9,754.9z M171.6,809.1c-0.1,1.1-0.9,2.6-1.9,3.2
	c-7.5,4.9-15.5,8.8-23.9,12.1c-1.1,0.4-2.6,0.2-3.7-0.2c-7.7-3-15.1-6.8-22.2-11.1c-2.4-1.4-3.4-3.9-3.6-6.4
	c-0.7-9.5-1-19.1,0.1-28.6c0.3-2.6,1.5-4.9,4-6.2c6.8-3.5,13.6-7,20.5-10.4c2.4-1.2,4.9-0.9,7.4,0.2c1.7,0.8,3.5,1.5,5.2,2.4
	c21,11.1,18.8,5.8,19.1,33.1C172.4,799,172.2,804,171.6,809.1z M172.5,747.1c-0.1,3.2-0.4,6.3-0.7,9.5c-0.1,1.5-3,3.4-4.3,2.9
	c-2.9-1.2-5.9-2.3-8.8-3.7c-4.1-1.8-8-3.9-12.1-5.7c-1.7-0.7-3.7-0.7-5.5,0.2c-5.7,2.7-11.5,5.5-17.3,8.1c-1.1,0.5-2.4,0.6-3.7,0.7
	c-1.4,0.2-2.4-0.4-3-1.8c-0.4-1.2-1-2.4-1.1-3.6c-0.3-5.1-0.4-10.2-0.8-15.3c-0.2-2.6-1.8-4.6-4-6.1c-5.2-3.6-11.6-5.2-16.6-9.3
	c-1.5-1.2-2.1-3.8-0.7-4.6c2.7-1.6,5.5-3.2,8.2-4.8c3.3-1.9,6.7-3.6,10-5.6c1.7-1,2.8-2.8,3-4.7c0.4-3.8,0.4-7.6,0.7-11.4
	c0.2-2.5,0.5-5,0.9-7.6c0.2-1.4,3-3.1,4.4-2.5c1.8,0.7,3.7,1.1,5.4,1.9c3.5,1.6,6.8,3.4,10.3,5.1c1.1,0.6,2.3,1.2,3.5,1.6
	c2.5,0.8,5.1,1.2,7.5,0.1c5.2-2.3,10.3-4.9,15.5-7.3c1.7-0.8,3.5-1.5,5.5-1.5c1.4,0,2.4,0.5,2.7,2c0.4,1.8,0.8,3.7,0.9,5.6
	c0.3,4.4,0.3,8.9,0.5,13.3c0.2,2.8,2,4.8,4.2,6.1c4.9,2.9,10.1,5.4,15.1,8.1c1.1,0.6,2.1,1.5,2.9,2.4c0.3,0.3,0.1,1,0.1,1.6
	c-0.7,1-1.3,2.4-2.3,3c-2.7,1.7-5.6,3.1-8.4,4.5C172.1,734.7,172.8,734.6,172.5,747.1z M183.1,744.3c0.2-2,1.1-3.9,2.7-4.9
	c7.5-4.8,15.4-8.8,23.8-11.8c1.3-0.5,2.5-0.4,3.7,0.1c11.1,4.6,21.8,10.1,32.3,16.1c2.3,1.3,3.6,3.5,3.9,6.2
	c0.7,6.3,0.7,12.7-0.1,19c-0.3,1.9-1,4-2.6,4.9c-7.5,4.7-15.4,8.7-23.8,11.9c-1.1,0.4-2.6,0.2-3.7-0.3c-11-4.8-21.9-10.1-32.3-16.1
	c-2.3-1.3-3.8-3.4-3.9-6.1c-0.2-3.2,0-6.3,0-9.5c-0.1,0-0.2,0-0.4,0C182.8,750.7,182.9,747.5,183.1,744.3z M206.2,792.5
	c0.1,0.5-0.4,1.2-0.8,1.5c-0.9,0.9-1.8,1.8-2.9,2.4c-5.1,2.5-9.8,5.9-15.5,7.1c-1.5,0.3-3.9-1.4-4-3.1c-0.2-2.5-0.3-5-0.5-6.7
	c0.2-4-0.3-7.1,1.1-10.2c0.5-1.2,1.5-1.9,3-1.6c6.9,1.6,12.9,5,18.5,9.1C205.7,791.3,206.2,791.9,206.2,792.5z M249.4,835.4
	c-0.3,2.7-1.6,4.8-3.9,6.1c-9.9,5.7-20.1,10.7-30.5,15.4c-2.4,1.1-4.9,1-7.4,0.1c-7.1-2.7-13.8-6.4-20.4-10.1
	c-2.3-1.3-3.8-3.4-4.1-6.1c-0.3-3.1-0.3-6.3-0.4-9.5c0.1-3.2,0.1-6.4,0.4-9.5c0.3-2.6,1.8-4.8,4.1-6.1c10.5-5.9,21.3-11.3,32.3-16
	c1.1-0.5,2.6-0.6,3.7-0.1c8.3,3.3,16.2,7.1,23.7,11.9c0.9,0.6,1.4,2.1,2,3.2c0.3,0.5,0.4,1.2,0.5,1.8
	C250.1,822.8,250.1,829.1,249.4,835.4z M324.5,802.5c-1.1,0.6-2.2,1.2-3.3,1.9c-2.2,1.5-3.8,3.5-3.9,6.2c-0.3,5.7-0.4,11.4-0.7,17.2
	c-0.1,3.5-3.2,4.9-6.8,3.4c-1.7-0.8-3.5-1.5-5.2-2.3c-4.6-2.2-9.2-4.4-13.8-6.5c-1.8-0.8-3.8-0.5-5.6,0.1c-3,1.2-5.8,2.6-8.7,3.9
	c-4.1,1.8-8.1,3.6-12.2,5.4c-1.4,0.6-4-1.2-4.1-2.9c-0.3-6.3-0.6-12.7-1-19c-0.1-2-1.3-3.7-2.9-4.7c-5.5-3.2-11.1-6.1-16.6-9.3
	c-1.1-0.6-1.9-1.6-2.7-2.6c-0.2-0.3-0.1-1.2,0.2-1.5c1.4-1.3,2.7-2.8,4.3-3.7c5-2.8,10.4-4.8,15-8.2c1.6-1.2,2.6-2.8,2.8-4.7
	c0.8-6.3-0.2-12.7,1-19c0.3-1.5,2.9-3.1,4.3-2.6c1.2,0.4,2.4,0.8,3.6,1.3c4,1.9,8,3.8,12.1,5.7c1.7,0.8,3.4,1.8,5.2,2.4
	c1.8,0.6,3.8,0.7,5.6,0c7.1-2.8,13.5-7.2,20.9-9.4c1.5-0.4,4.2,1.1,4.3,2.5c0.2,1.9,0.6,3.8,0.6,5.7c0.2,4.5,0.1,8.9,0.5,13.4
	c0.1,1.9,1,3.7,2.7,4.8c1.6,1.1,3.1,2.1,4.8,3c3.9,2.1,7.9,4.1,11.8,6.3c1,0.6,1.7,1.8,2.6,2.7c0.2,1.1-0.1,2.3-1.4,3
	C333.5,797.6,329,800,324.5,802.5z M394.1,833.8c-0.1,0.7-0.2,4.5-0.7,8.3c-0.2,1.1-1.2,2.1-1.9,3.1c-0.4,0.5-0.9,0.9-1.4,1.3
	c-6.6,3.9-13.4,7.3-20.4,10.3c-3.2,1.4-6.2,1.1-9.2-0.4c-8.6-4.1-17.1-8.4-25.7-12.6c-1.1-0.6-2.2-1.4-3.3-2c-3-1.7-4.8-4.2-4.8-7.7
	c-0.1-5.7,0-11.4,0.2-17.2c0.1-2.7,1.5-5,3.8-6.3c7.1-4.2,14.5-8,22.2-11c1.9-0.7,3.8-0.5,5.5,0.4c10.3,5.1,20.6,10.1,30.7,15.3
	c2.9,1.5,4.7,4.2,4.8,7.7c0,1.3,0.1,2.5,0.2,3.8C394.1,828.2,394.1,829.4,394.1,833.8z M393.4,801.3c-0.2,1.6-1.2,2.3-2.8,2
	c-1.2-0.2-2.6-0.1-3.7-0.6c-5.2-2.3-10.5-4.5-15.2-7.9c-1.5-1.1-1.3-3.4,0.4-4.6c5.3-3.6,10.9-6.5,17.1-8.4c1.8-0.5,4.2,0.8,4.4,2.4
	c0.2,2.5,0.5,5.1,0.7,7.7C394,795,393.7,798.2,393.4,801.3z M460.1,806.9c-0.2,2.5-1.1,4.9-3.6,6.4c-7.2,4.1-14.6,8-22.3,11
	c-1.1,0.4-2.6,0.4-3.7,0c-7.8-2.9-15.1-6.8-22.3-10.9c-2.5-1.4-3.6-3.8-3.8-6.3c-1-9.5-0.9-19.1,0-28.6c0.2-2.5,1.2-5,3.7-6.3
	c3.9-2.1,7.8-4.3,11.8-6.3c3.4-1.7,6.9-3.3,10.5-4.7c1.1-0.4,2.7-0.5,3.7-0.1c8.3,3.4,16.4,7.1,23.8,12.1c0.9,0.6,1.7,2.1,1.8,3.2
	c0.5,5.7,0.7,11.4,1,15.9C460.5,798,460.4,802.4,460.1,806.9z M460.7,740.3c-0.1,3.2-0.1,6.4-0.2,9.5c-0.1,1.9-0.1,3.8-0.5,5.7
	c-0.2,1.2-0.7,2.7-1.6,3.3c-0.9,0.6-2.6,0.7-3.6,0.3c-6.4-2.8-12.8-5.7-19.1-8.7c-2.5-1.2-4.9-0.8-7.3,0.2
	c-6.5,2.6-12.3,6.7-19.1,8.7c-1.3,0.4-4.3-1.3-4.6-2.6c-0.2-1.3-0.6-2.5-0.7-3.8c-0.2-3.2-0.2-6.4-0.3-9.5c-0.1-1.9-0.4-3.8-0.6-5.7
	c-0.2-2.1-1.4-3.7-3-4.6c-5.5-3.2-11.1-6.1-16.6-9.3c-1-0.6-1.6-1.9-2.3-3c-0.2-0.4-0.2-1.2,0-1.5c2.2-2.4,5.2-3.7,8-5.1
	c3.4-1.8,6.9-3.3,10.1-5.3c2.1-1.3,3.8-3.4,4-6.2c0.3-5.1,0.4-10.2,0.7-15.3c0.1-1.2,0.6-2.5,1-3.6c0.6-1.4,1.6-2,2.9-1.8
	c1.2,0.2,2.6,0.3,3.7,0.8c4.6,2.1,9.2,4.3,13.8,6.6c4.2,2.1,8.4,2.4,12.8,0.3c5.7-2.7,11.2-6.1,17.3-7.9c1.5-0.4,4.1,1.2,4.2,2.8
	c0.2,1.9,0.5,3.8,0.6,5.7c0.2,3.8,0.1,7.6,0.3,11.5c0.2,3.5,2.2,5.9,5,7.6c1.6,1,3.4,1.7,5.1,2.6c3.9,2.2,8.1,3.7,11.6,6.5
	c1.3,1.1,1.6,2,0.4,3.2c-0.9,0.9-1.6,2.1-2.6,2.7c-5,2.8-10.1,5.4-15.1,8.1C462,734.2,460.7,736.9,460.7,740.3z M471.6,783.8
	c0.2-1.5,1.2-2.1,2.8-1.9c0.6,0.1,1.3,0.1,1.8,0.2c6,2,11.7,4.7,16.8,8.5c1.5,1.1,1.1,3.4-0.7,4.6c-5.3,3.5-10.8,6.5-17,8.2
	c-1.6,0.4-4.1-1.1-4.2-2.7c-0.2-2.5-0.4-5-0.6-8C470.8,790,471.2,786.9,471.6,783.8z M537.2,836.3c-0.3,1.8-1.1,3.6-2.9,4.7
	c-1.6,1-3.1,2.1-4.8,3c-3.4,1.8-6.8,3.4-10.2,5.1c-23.8,11.6-16.5,11.6-41.6-0.7c-1.1-0.6-2.2-1.2-3.2-2c-1.4-1.2-2.9-2.4-3.2-4.5
	c-0.9-6.9-0.8-13.9,0-20.8c0.2-2,1.6-3.4,3.1-4.6c0.9-0.8,2.1-1.5,3.2-2.1c4.5-2.3,9-4.7,13.6-6.9c22.6-10.7,14.2-10.9,38.1,0.7
	c1.7,0.8,3.3,1.8,4.9,2.8c1.7,1.1,2.7,2.7,3,4.6c0.5,3.8,0.7,7.5,1,10.8C537.7,830,537.6,833.1,537.2,836.3z M605,820.7
	c0,2.5-0.2,5.1-0.4,7.6c-0.1,2.6-3,4.2-5.6,3.3c-6.3-3-12.6-6.1-18.9-9c-2.4-1.1-4.9-1-7.4-0.1c-7.1,2.7-13.3,7.5-20.9,9.1
	c-1.5,0.3-2.6-0.4-3-1.6c-0.4-1.2-0.8-2.4-0.8-3.7c-0.2-5.1-0.3-10.2-0.4-15.3c-0.1-3.6-2.3-5.9-5.1-7.5c-3.9-2.2-8-3.9-11.9-6
	c-1.7-0.9-3.1-2.2-4.7-3.3c-1.4-1-1.5-2.1-0.2-3.1c1.5-1.2,2.9-2.5,4.5-3.5c4.4-2.5,9-4.6,13.5-7.1c2.3-1.3,3.8-3.4,3.9-6.1
	c0.2-3.8,0.2-7.6,0.3-11.5c0.1-1.9,0.1-3.8,0.4-5.7c0.2-1.2,0.6-2.7,1.5-3.3c0.9-0.6,2.6-0.7,3.6-0.3c4.7,1.9,9.3,4.2,13.9,6.3
	c1.7,0.8,3.5,1.6,5.2,2.4c2.4,1.1,5,1.3,7.4,0.2c3.5-1.5,6.9-3.3,10.3-5c2.9-1.3,5.8-2.6,8.7-3.9c2.6-1.1,5.6,0.3,5.8,2.8
	c0.3,6.3,0.6,12.7,1,19c0.1,2,1.4,3.6,3.1,4.6c3.2,2,6.6,3.8,10,5.6c2.8,1.5,5.8,2.6,8,5c1.2,1.3,1.4,2.1,0.1,3.2
	c-1,0.8-1.8,1.8-2.9,2.5c-1.6,1-3.4,1.7-5.1,2.6C604.5,806.8,605.1,805.1,605,820.7z M681.9,839.8c-0.1,3.6-2.3,6-5.1,7.5
	c-6.2,3.3-12.5,6.2-18.8,9.3c-3,1.5-6.2,1.4-9.2,0c-9.7-4.8-19.3-9.6-29-14.5c-3-1.5-5-4-5.1-7.4c-0.1-5.7-0.2-11.4,0-17.2
	c0.1-3.3,2-6,5.1-7.5c6.8-3.4,13.7-6.8,20.5-10.1c1.8-0.9,3.8-0.7,5.5,0.1c10.3,5,20.6,10,30.8,15.2c2.9,1.5,5.1,3.9,5.1,7.5
	c0.1,3.2,0,6.4,0,9.5c0,0,0,0,0,0C681.9,834.7,682,837.3,681.9,839.8z M681.7,800.8c-0.1,1.6-2.7,3-4.3,2.6
	c-6.3-1.6-11.8-4.7-17.1-8.2c-1.8-1.2-2.1-3.5-0.6-4.6c5.2-3.8,10.8-6.6,16.9-8.6c2.6-0.9,5,0.8,5.2,3.5c0.1,2.5,0.3,5.1,0.4,7.9
	C682.1,795.7,681.9,798.2,681.7,800.8z M748.5,797.3c-0.1,1-0.2,6.1-0.7,11.2c-0.2,1.8-1.2,3.6-3,4.6c-7.1,4.2-14.6,7.9-22.2,11.1
	c-1.1,0.5-2.6,0.6-3.7,0.2c-8.4-3.2-16.3-7.2-23.9-12c-1-0.6-1.4-2.1-2-3.2c-0.3-0.5-0.4-1.2-0.5-1.8c-1.1-9.5-0.7-19.1-0.2-28.7
	c0-0.6,0.2-1.3,0.4-1.9c0.6-1.8,1.4-3.5,3.1-4.6c7.1-4.3,14.5-8,22.2-11.1c1.1-0.4,2.7-0.7,3.7-0.3c8.4,3.1,16.4,7.1,23.9,12
	c1,0.6,1.8,2,2,3.1c0.5,3.1,0.7,6.3,0.9,9.5C748.6,788.1,748.5,790.6,748.5,797.3z M751.6,733.6c-1.8,1.1-2.4,2.9-2.7,4.8
	c-1,6.3,0.5,12.7-1.5,18.9c-0.5,1.5-1.3,2.2-2.8,2c-1.2-0.2-2.6-0.2-3.7-0.7c-5.8-2.6-11.5-5.4-17.3-8.2c-2.5-1.2-4.9-0.8-7.3,0.2
	c-6.5,2.6-12.3,6.7-19.1,8.7c-1.3,0.4-4.3-1.3-4.5-2.6c-0.2-1.3-0.6-2.5-0.7-3.8c-0.2-3.2-0.2-6.4-0.3-9.5c-0.1-1.9-0.4-3.8-0.6-5.7
	c-0.2-2.1-1.4-3.7-3-4.6c-5.5-3.2-11.1-6.1-16.6-9.3c-1-0.6-1.6-1.9-2.3-3c-0.2-0.4-0.2-1.3,0-1.5c2-1.5,4.1-3,6.3-4.3
	c3.9-2.1,8.1-3.9,11.9-6.2c2.1-1.3,3.8-3.4,4-6.2c0.3-5.1,0.4-10.2,0.7-15.3c0.1-1.2,0.6-2.4,1-3.6c0.6-1.4,1.6-2,3-1.8
	c1.2,0.2,2.6,0.3,3.7,0.8c4.6,2.1,9.2,4.3,13.8,6.6c4.3,2.1,8.4,2.3,12.8,0.3c5.7-2.7,11.1-6.2,17.3-7.9c1.5-0.4,4,1.2,4.2,2.8
	c0.2,1.9,0.5,3.8,0.5,5.7c0.2,3.8,0.1,7.6,0.3,11.5c0.2,3.5,2.2,5.9,5.1,7.6c5.5,3.2,11.6,5.3,16.7,9.2c0.5,0.4,0.8,0.9,1.2,1.4
	c-0.6,1.1-1,2.6-2,3.2c-3.2,2.1-6.6,3.8-9.9,5.7C757.1,730.4,754.3,732,751.6,733.6z M815.5,807.1c2.3,1.1,4.4,2.4,6.6,3.8
	c1.7,1,2.6,2.8,3,4.6c1.3,6.9,1.1,13.9,0.1,20.8c-0.3,1.8-1.2,3.6-3,4.6c-1.6,1-3.1,2.2-4.8,3c-6.8,3.4-13.8,6.5-20.4,10.3
	c-6.7,3.9-12.9,4.2-19.6,0c-3.8-2.3-7.9-4.1-11.9-6c-4.4-2.1-6.9-5.4-6.8-10.4c0-1.9,0-3.8,0-9.7c0,0.2,0.2-3.6,0.5-7.4
	c0.2-2.1,1.7-3.4,3.1-4.6c0.9-0.8,2.1-1.5,3.2-2.1c4.5-2.3,9-4.7,13.6-6.9C801.6,796.6,793.5,796.7,815.5,807.1z M758.6,791.3
	c0.1-1.6,0.3-4.1,0.5-6.7c0.1-1.7,2.6-3.3,4.1-2.8c6.1,1.8,11.7,4.8,17,8.2c2,1.3,2.5,3.5,0.9,4.5c-5.8,3.9-11.7,7.4-18.6,8.8
	c-1.5,0.3-2.4-0.4-2.9-1.8C758.4,798.5,758.8,795.3,758.6,791.3z M819.3,776.2c-1.7,0.7-3.3,1.9-5,2.7c-20,9.3-13.3,9.7-33.1,0.2
	c-6.3-3-12.4-6.4-18.5-9.7c-2.3-1.3-3.7-3.5-3.7-6.2c-0.1-3.2,0-6.3,0-9.5c-0.1,0-0.1,0-0.2,0c0-1.9,0-3.8,0-5.7
	c-0.1-4.9,1.8-8.6,6.4-10.7c0.6-0.3,1.1-0.6,1.7-0.8c24.3-11.9,16.4-11.7,39.8-0.4c5.1,2.5,10.4,4.8,15.1,8c2.2,1.5,3.6,3.6,3.7,6.3
	c0.2,5.1,0.3,10.1,0.3,15.2C825.7,770.3,824.1,774.2,819.3,776.2z M825.2,727.6c-0.2,1.2-0.8,2.6-1.7,3.2c-0.9,0.6-2.5,0.5-3.6,0.2
	c-5.4-1.8-10.4-4.4-15.1-7.5c-0.5-0.3-0.9-0.9-1.3-1.4c-0.8-1.3-1-2.5-0.1-3.2c5-4,10.8-6.4,16.7-8.5c1.2-0.5,4.3,1.1,4.5,2.4
	c0.5,2.4,0.9,4.9,1.2,6.9C825.7,722.6,825.6,725.1,825.2,727.6z"/>
</svg>
