<?xml version="1.0" encoding="UTF-8" standalone="no"?>
<!-- Created with Inkscape (http://www.inkscape.org/) -->

<svg
   width="305.62509"
   height="226.3008"
   viewBox="0 0 305.62509 226.3008"
   version="1.1"
   id="svg5"
   xml:space="preserve"
   xmlns="http://www.w3.org/2000/svg"
   xmlns:svg="http://www.w3.org/2000/svg"
   xmlns:rdf="http://www.w3.org/1999/02/22-rdf-syntax-ns#"
   xmlns:cc="http://creativecommons.org/ns#"
   xmlns:dc="http://purl.org/dc/elements/1.1/"><defs
     id="defs2" /><g
     id="layer1"
     transform="translate(-3235.9432,-1488.7921)"><g
       id="g11358"
       transform="matrix(7.6937627,0,0,7.6937627,-12659.335,-5877.6319)"
       class="UnoptimicedTransforms"><path
         style="fill:#000000;stroke-width:0.303531"
         d="m 2085.7849,986.48399 c -0.8174,-0.29746 -0.86,-0.39608 -0.694,-1.6075 0.1674,-1.22112 0.1361,-1.29063 -0.5809,-1.29063 -1.2567,0 -2.0371,-0.94737 -1.8612,-2.25915 0.3247,-2.42092 -1.3403,-2.81621 -4.7956,-1.13857 -3.9342,1.91018 -9.9501,1.28706 -11.1818,-1.15822 -2.954,-5.8646 4.201,-10.13069 13.1471,-7.83881 1.0557,0.27048 1.9404,0.45524 1.9661,0.41056 0.6698,-1.16739 1.1827,-1.74325 1.6979,-1.90679 0.373,-0.11841 0.5711,-0.37401 0.4781,-0.61663 -0.088,-0.22792 -0.021,-1.26955 0.1471,-2.31474 2.1244,-13.19149 21.8926,-12.00738 21.6084,1.29433 -0.2356,11.0149 -13.1055,15.73676 -19.4523,7.13679 -0.5207,-0.70558 -0.89,-0.91694 -1.4695,-0.84114 -1.1473,0.15006 -2.5211,-0.52818 -2.7263,-1.34583 -0.6144,-2.44793 -11.9016,-1.47905 -13.8963,1.19285 -3.1616,4.23457 3.0101,7.33314 9.1254,4.58144 2.6044,-1.17196 3.3085,-1.32992 4.4825,-1.00575 1.5002,0.4142 2.3927,1.64827 2.2059,3.04984 -0.2478,1.85845 1.1856,2.43323 2.5217,1.01112 0.9443,-1.00524 2.5244,-1.39753 4.2462,-1.0542 0.7512,0.14976 1.4578,0.27828 1.5703,0.28553 0.5689,0.0368 2.072,1.6684 2.072,2.24917 0,2.47819 -5.2235,4.399 -8.6108,3.16633 z m 5.5871,-1.83576 c 1.8289,-0.92225 1.8894,-1.54871 0.2117,-2.18947 -2.6146,-0.99847 -5.9904,0.46249 -5.9904,2.59246 0,0.61157 4.3714,0.30669 5.7787,-0.40299 z m 6.5828,-6.75695 c 6.1055,-1.81316 8.7953,-7.97142 5.9454,-13.61181 -3.6243,-7.17263 -13.8979,-7.19595 -17.421,-0.0395 -3.7539,7.62521 3.3423,16.06667 11.4756,13.65133 z m -13.2857,-5.38433 c -0.013,-0.20868 -0.1956,-0.78918 -0.4181,-1.29001 l -0.4044,-0.9106 -0.3472,0.87162 c -0.2607,0.65423 -0.2607,0.97601 -2e-4,1.29002 0.4334,0.52216 1.1883,0.5473 1.1699,0.0389 z"
         id="path2245038" /></g></g><metadata
     id="metadata3764"><rdf:RDF><cc:Work
         rdf:about=""><dc:creator><cc:Agent><dc:title>Fatihartt</dc:title></cc:Agent></dc:creator></cc:Work></rdf:RDF></metadata></svg>
