<?xml version="1.0" encoding="utf-8"?>
<!-- Generator: Adobe Illustrator 22.0.0, SVG Export Plug-In . SVG Version: 6.00 Build 0)  -->
<svg version="1.1" id="Layer_1" xmlns="http://www.w3.org/2000/svg" xmlns:xlink="http://www.w3.org/1999/xlink" x="0px" y="0px"
	 viewBox="0 0 864 864" style="enable-background:new 0 0 864 864;" xml:space="preserve">
<path d="M7.6,115.2c-3,2.5-6.6,3.9-10.4,4.6c0-12.8,0-25.6,0-38.4c3.2,1.3,6.3,0.9,9-1.2c3-2.3,6-4.7,9-7.2
	c16.3-13.4,32.6-26.9,48.9-40.2c2.5-2,5.1-3.8,7.7-5.6c1.4-1,4.3-1.1,5.5-0.2c2.6,1.9,5.2,3.7,7.7,5.7
	c17.3,14.2,34.6,28.4,51.9,42.6c2.5,2,4.7,4.4,7.8,5.5c1.1,0.4,2.7,0.6,3.7,0.1c2.3-1.1,4.4-2.6,6.4-4.2
	c14.4-11.7,28.7-23.6,43-35.3c5.9-4.8,12-9.5,18-14.3c1.2-1,4.1-1,5.4,0c3.6,2.6,7.3,5.2,10.7,8c16.3,13.4,32.6,26.8,48.9,40.2
	c2.5,2,5.1,3.8,7.8,5.6c1.1,0.8,2.5,0.8,3.7,0.1c2.2-1.3,4.4-2.6,6.4-4.2c15.9-12.9,31.6-26,47.5-39c3.5-2.8,6.9-5.7,10.4-8.5
	c5.6-4.4,7.8-3.8,11.9-0.4c15.9,12.9,31.6,26,47.5,39c4.9,4.1,10,8,15,12c1.9,1.5,5.4,1.6,7.2,0.2c7-5.6,14-11.2,21-16.8
	c14.9-12.1,29.8-24.2,44.7-36.2c1.3-1.1,4-1.1,5.4-0.2c1.1,0.7,2.2,1.2,3.2,2c4.5,3.6,9,7.2,13.4,10.9c14.3,11.8,28.7,23.6,43,35.3
	c2,1.6,4,3.2,6.1,4.7c2.2,1.7,5.2,1.9,7.1,0.5c3-2.3,6.1-4.6,9.1-7.1c15.8-13,31.6-26,47.5-39c3-2.4,6.1-4.7,9.1-7
	c1.8-1.4,5.2-1.1,7.2,0.4c2,1.6,4.1,3.1,6,4.7c15.3,12.6,30.6,25.2,45.9,37.8c3,2.4,5.9,4.9,8.9,7.3c6,4.8,7.9,4.9,13.3,0.5
	c5.5-4.4,10.9-8.9,16.4-13.3c13.3-11,26.7-22,40-32.9c2-1.6,4.1-3.1,6.1-4.6c1.5-1.1,4-1.3,5.4-0.4c1.6,1.1,3.3,2,4.8,3.2
	c19.3,15.8,38.6,31.6,57.8,47.5c1.5,1.2,2.8,2.7,4.2,3.9c1.5,1.4,2.2,3.2,2.4,5.1c0.8,8.3,0.9,16.6-0.1,24.9c-0.2,1.5-1,2.2-2.2,2.7
	c-1.4,0.6-2.4,0.4-3.5-0.6c-4.5-3.6-9.1-7-13.6-10.7c-14.4-11.7-28.7-23.6-43-35.3c-2-1.6-4.1-3-6.2-4.5c-1.2-0.9-4.4-1-5.5-0.2
	c-3.1,2.3-6.2,4.5-9.2,6.9c-16.8,13.8-33.6,27.6-50.4,41.4c-2.5,2-5.2,3.8-7.9,5.3c-1,0.5-2.6,0.5-3.7,0.1c-1.8-0.7-3.5-1.7-4.9-2.9
	c-8.9-7.2-17.8-14.6-26.7-21.9c-9.4-7.7-18.7-15.5-28.2-23.2c-2.5-2-5.1-3.8-7.7-5.7c-1.2-0.9-4.3-0.8-5.5,0
	c-2.6,1.9-5.2,3.7-7.7,5.7c-17.8,14.6-35.6,29.2-53.4,43.8c-2,1.6-3.9,3.3-6.3,4.3c-1.3,0.5-2.4,0.5-3.7-0.1c-3-1.3-5.4-3.5-7.8-5.5
	c-17.8-14.6-35.6-29.2-53.4-43.8c-2-1.6-4.1-3-6.2-4.5c-1.2-0.8-4.4-0.9-5.5,0c-3.1,2.3-6.2,4.5-9.1,7
	c-16.8,13.8-33.6,27.6-50.4,41.4c-2.5,2-4.9,4.3-7.9,5.3c-1.1,0.4-2.7,0.4-3.7-0.1c-2.3-1.1-4.5-2.5-6.4-4.1
	c-17.3-14.2-34.6-28.4-51.9-42.6c-3-2.4-6.1-4.6-9.2-6.9c-1.2-0.9-4.2-0.8-5.5,0.2c-3.6,2.7-7.2,5.3-10.7,8.1
	c-16.8,13.8-33.6,27.6-50.4,41.4c-2,1.6-3.9,3.3-6.3,4.2c-1.2,0.5-2.5,0.6-3.6-0.2c-2.6-1.8-5.3-3.5-7.8-5.5
	c-17.8-14.6-35.6-29.2-53.4-43.8c-2-1.6-4.1-3-6.2-4.5c-1.1-0.8-4.4-0.7-5.5,0.1c-3.1,2.3-6.2,4.6-9.1,7
	c-16.8,13.8-33.6,27.6-50.4,41.4c-2.5,2-4.9,4.2-8,5.2c-1.1,0.4-2.7,0.3-3.7-0.2c-2.3-1.1-4.4-2.5-6.4-4.1
	c-17.3-14.2-34.6-28.4-51.9-42.6c-3-2.4-6.1-4.6-9.2-6.8c-1.2-0.9-4.1-0.7-5.5,0.3c-2.1,1.5-4.2,2.9-6.2,4.5
	C53.1,77.8,40.7,88,28.4,98.1C21.5,103.8,14.5,109.5,7.6,115.2z M28.4,674.1c12.4-10.2,24.7-20.3,37.1-30.4c2-1.6,4.1-3,6.2-4.5
	c1.3-1,4.3-1.1,5.5-0.3c3.1,2.2,6.3,4.4,9.2,6.8c17.3,14.2,34.6,28.4,51.9,42.6c2,1.6,4.1,3,6.4,4.1c1,0.5,2.6,0.5,3.7,0.2
	c3.1-1,5.5-3.2,8-5.2c16.8-13.8,33.6-27.6,50.4-41.4c3-2.4,6.1-4.7,9.1-7c1.1-0.8,4.4-0.9,5.5-0.1c2.1,1.5,4.2,2.9,6.2,4.5
	c17.8,14.6,35.6,29.2,53.4,43.8c2.5,2,5.2,3.7,7.8,5.5c1.2,0.8,2.4,0.6,3.6,0.2c2.5-0.9,4.4-2.6,6.3-4.2
	c16.8-13.8,33.6-27.6,50.4-41.4c3.5-2.8,7.1-5.4,10.7-8.1c1.3-1,4.3-1,5.5-0.2c3.1,2.3,6.2,4.4,9.2,6.9
	c17.3,14.2,34.6,28.4,51.9,42.6c2,1.6,4.1,3,6.4,4.1c1,0.5,2.6,0.4,3.7,0.1c3.1-1,5.5-3.3,7.9-5.3c16.8-13.8,33.6-27.6,50.4-41.4
	c3-2.4,6.1-4.7,9.1-7c1.1-0.8,4.3-0.8,5.5,0c2.1,1.5,4.2,2.9,6.2,4.5c17.8,14.6,35.6,29.2,53.4,43.8c2.5,2,4.8,4.2,7.8,5.5
	c1.3,0.6,2.4,0.6,3.7,0.1c2.4-1,4.3-2.7,6.3-4.3c17.8-14.6,35.6-29.2,53.4-43.8c2.5-2,5.1-3.8,7.7-5.7c1.2-0.9,4.3-0.9,5.5,0
	c2.6,1.9,5.2,3.7,7.7,5.7c9.4,7.7,18.8,15.4,28.2,23.2c8.9,7.3,17.8,14.7,26.7,21.9c1.5,1.2,3.2,2.2,4.9,2.9
	c1.1,0.4,2.7,0.5,3.7-0.1c2.8-1.6,5.5-3.3,7.9-5.3c16.8-13.8,33.6-27.6,50.4-41.4c3-2.4,6.1-4.6,9.2-6.9c1.1-0.8,4.3-0.7,5.5,0.2
	c2.1,1.5,4.2,2.9,6.2,4.5c14.3,11.8,28.6,23.6,43,35.3c4.5,3.6,9.1,7.1,13.6,10.7c1.2,0.9,2.2,1.2,3.5,0.6c1.2-0.5,2-1.3,2.2-2.7
	c1-8.3,0.9-16.6,0.1-24.9c-0.2-1.9-0.9-3.7-2.4-5.1c-1.4-1.3-2.7-2.7-4.2-3.9c-19.3-15.9-38.5-31.7-57.8-47.5
	c-1.5-1.2-3.2-2.1-4.8-3.2c-1.3-0.9-3.9-0.7-5.4,0.4c-2,1.5-4.1,3-6.1,4.6c-13.4,10.9-26.7,21.9-40,32.9
	c-5.4,4.5-10.9,8.9-16.4,13.3c-5.4,4.4-7.3,4.3-13.3-0.5c-3-2.4-6-4.8-8.9-7.3c-15.3-12.6-30.6-25.2-45.9-37.8c-2-1.6-4-3.1-6-4.7
	c-2-1.5-5.4-1.8-7.2-0.4c-3.1,2.3-6.2,4.5-9.1,7c-15.8,13-31.6,26-47.5,39c-3,2.4-6,4.7-9.1,7.1c-1.9,1.5-4.9,1.2-7.1-0.5
	c-2-1.6-4.1-3.1-6.1-4.7c-14.3-11.8-28.7-23.6-43-35.3c-4.4-3.7-8.9-7.3-13.4-10.9c-1-0.8-2.2-1.3-3.2-2c-1.4-0.9-4.1-0.8-5.4,0.2
	c-14.9,12.1-29.8,24.2-44.7,36.2c-7,5.6-14,11.2-21,16.8c-1.8,1.4-5.3,1.3-7.2-0.2c-5-4-10-8-15-12c-15.8-13-31.5-26.1-47.5-39
	c-4.2-3.4-6.3-4-11.9,0.4c-3.5,2.8-6.9,5.7-10.4,8.5c-15.8,13-31.6,26-47.5,39c-2,1.6-4.2,2.9-6.4,4.2c-1.1,0.7-2.5,0.6-3.7-0.1
	c-2.6-1.8-5.3-3.6-7.8-5.6c-16.3-13.4-32.6-26.8-48.9-40.2c-3.5-2.8-7.1-5.4-10.7-8c-1.3-1-4.2-0.9-5.4,0c-6,4.7-12.1,9.4-18,14.3
	c-14.4,11.7-28.7,23.6-43,35.3c-2,1.6-4.1,3.1-6.4,4.2c-1,0.5-2.5,0.3-3.7-0.1c-3.1-1.1-5.4-3.4-7.8-5.5
	c-17.3-14.2-34.6-28.4-51.9-42.6c-2.5-2-5.1-3.8-7.7-5.7c-1.2-0.9-4.1-0.8-5.5,0.2c-2.6,1.8-5.3,3.6-7.7,5.6
	c-16.3,13.4-32.6,26.8-48.9,40.2c-3,2.4-6,4.8-9,7.2c-2.7,2.1-5.8,2.6-9,1.2c0,12.8,0,25.6,0,38.4c3.8-0.7,7.3-2.1,10.4-4.6
	C14.5,685.5,21.5,679.8,28.4,674.1z M28.4,386.1c12.4-10.2,24.7-20.3,37.1-30.4c2-1.6,4.1-3,6.2-4.5c1.3-1,4.3-1.1,5.5-0.3
	c3.1,2.2,6.3,4.4,9.2,6.8c17.3,14.2,34.6,28.4,51.9,42.6c2,1.6,4.1,3,6.4,4.1c1,0.5,2.6,0.5,3.7,0.2c3.1-1,5.5-3.2,8-5.2
	c16.8-13.8,33.6-27.6,50.4-41.4c3-2.4,6.1-4.7,9.1-7c1.1-0.8,4.4-0.9,5.5-0.1c2.1,1.5,4.2,2.9,6.2,4.5
	c17.8,14.6,35.6,29.2,53.4,43.8c2.5,2,5.2,3.7,7.8,5.5c1.2,0.8,2.4,0.6,3.6,0.2c2.5-0.9,4.4-2.6,6.3-4.2
	c16.8-13.8,33.6-27.6,50.4-41.4c3.5-2.8,7.1-5.4,10.7-8.1c1.3-1,4.3-1,5.5-0.2c3.1,2.3,6.2,4.4,9.2,6.9
	c17.3,14.2,34.6,28.4,51.9,42.6c2,1.6,4.1,3,6.4,4.1c1,0.5,2.6,0.4,3.7,0.1c3.1-1,5.5-3.3,7.9-5.3c16.8-13.8,33.6-27.6,50.4-41.4
	c3-2.4,6.1-4.6,9.1-7c1.1-0.8,4.3-0.8,5.5,0c2.1,1.5,4.2,2.9,6.2,4.5c17.8,14.6,35.6,29.2,53.4,43.8c2.5,2,4.8,4.2,7.8,5.5
	c1.3,0.6,2.4,0.6,3.7,0.1c2.4-1,4.3-2.7,6.3-4.3c17.8-14.6,35.6-29.2,53.4-43.8c2.5-2,5.1-3.8,7.7-5.7c1.2-0.9,4.3-0.9,5.5,0
	c2.6,1.9,5.2,3.7,7.7,5.7c9.4,7.7,18.8,15.4,28.2,23.2c8.9,7.3,17.8,14.7,26.7,21.9c1.5,1.2,3.2,2.2,4.9,2.9
	c1.1,0.4,2.7,0.5,3.7-0.1c2.8-1.6,5.5-3.3,7.9-5.3c16.8-13.8,33.6-27.6,50.4-41.4c3-2.4,6.1-4.6,9.2-6.9c1.1-0.8,4.2-0.7,5.5,0.2
	c2.1,1.5,4.2,2.9,6.2,4.5c14.3,11.8,28.6,23.6,43,35.3c4.5,3.6,9.1,7.1,13.6,10.7c1.2,0.9,2.2,1.2,3.5,0.6c1.2-0.5,2-1.3,2.2-2.7
	c1-8.3,0.9-16.6,0.1-24.9c-0.2-1.9-0.9-3.7-2.4-5.1c-1.4-1.3-2.7-2.7-4.2-3.9c-19.3-15.9-38.5-31.7-57.8-47.5
	c-1.5-1.2-3.2-2.1-4.8-3.2c-1.3-0.9-3.9-0.7-5.4,0.4c-2,1.5-4.1,3-6.1,4.6c-13.4,10.9-26.7,21.9-40,32.9
	c-5.4,4.5-10.9,8.9-16.4,13.3c-5.4,4.4-7.3,4.3-13.3-0.5c-3-2.4-6-4.8-8.9-7.3c-15.3-12.6-30.6-25.2-45.9-37.8c-2-1.6-4-3.2-6-4.7
	c-2-1.5-5.4-1.7-7.2-0.4c-3.1,2.3-6.2,4.5-9.1,7c-15.8,13-31.6,26-47.5,39c-3,2.4-6,4.7-9.1,7.1c-1.9,1.5-4.9,1.2-7.1-0.5
	c-2-1.6-4.1-3.1-6.1-4.7c-14.3-11.8-28.7-23.6-43-35.3c-4.4-3.7-8.9-7.3-13.4-10.9c-1-0.8-2.2-1.3-3.2-2c-1.4-0.9-4.1-0.8-5.4,0.2
	c-14.9,12.1-29.8,24.2-44.7,36.2c-7,5.6-14,11.2-21,16.8c-1.8,1.4-5.3,1.3-7.2-0.2c-5-4-10-8-15-12c-15.8-13-31.5-26.1-47.5-39
	c-4.2-3.4-6.3-4-11.9,0.4c-3.5,2.8-6.9,5.7-10.4,8.5c-15.8,13-31.6,26-47.5,39c-2,1.6-4.2,2.9-6.4,4.2c-1.1,0.7-2.5,0.6-3.7-0.1
	c-2.6-1.8-5.3-3.6-7.8-5.6c-16.3-13.4-32.6-26.8-48.9-40.2c-3.5-2.8-7.1-5.4-10.7-8c-1.3-1-4.1-0.9-5.4,0c-6,4.7-12.1,9.4-18,14.3
	c-14.4,11.7-28.7,23.6-43,35.3c-2,1.6-4.1,3.1-6.4,4.2c-1,0.5-2.5,0.3-3.7-0.1c-3.1-1.1-5.4-3.4-7.8-5.5
	c-17.3-14.2-34.6-28.4-51.9-42.6c-2.5-2-5.1-3.8-7.7-5.7c-1.2-0.9-4.1-0.8-5.5,0.2c-2.6,1.8-5.3,3.6-7.7,5.6
	c-16.3,13.4-32.6,26.8-48.9,40.2c-3,2.4-6,4.8-9,7.2c-2.7,2.1-5.8,2.6-9,1.2c0,12.8,0,25.6,0,38.4c3.8-0.7,7.3-2.1,10.4-4.6
	C14.5,397.5,21.5,391.8,28.4,386.1z M22.6,318.9c14.3-11.8,28.6-23.6,43-35.3c2-1.6,4.1-3.1,6.1-4.6c1.5-1.1,4.1-1.3,5.4-0.3
	c4.6,3.5,9.2,6.9,13.6,10.6c15.8,12.9,31.6,26,47.4,39c2,1.6,4.1,3,6.2,4.5c1.3,0.9,3.8,0.8,5.4-0.4c2.6-1.9,5.2-3.8,7.6-5.8
	c16.8-13.8,33.6-27.7,50.4-41.4c2.9-2.4,6.1-4.5,9.3-6.7c1-0.7,2.5-0.7,3.6,0.1c2.6,1.8,5.3,3.6,7.7,5.6
	c16.3,13.4,32.6,26.8,48.9,40.2c3.5,2.8,7.1,5.5,10.7,8.1c1.5,1.1,3.9,1.2,5.3,0.1c5-3.9,10.1-7.8,15.1-11.8
	c15.3-12.5,30.6-25.2,46-37.7c2-1.6,4-3.2,6.3-4.4c1-0.5,2.7-0.7,3.6-0.2c2.3,1.1,4.4,2.6,6.4,4.2c16.8,13.8,33.6,27.6,50.4,41.4
	c3,2.4,5.9,4.9,8.9,7.2c3.3,2.4,5.5,3.4,10.3-0.5c2-1.6,4-3.2,5.9-4.9c15.3-12.6,30.6-25.2,45.9-37.8c4-3.2,8.1-6.3,12.1-9.4
	c1.2-0.9,4-0.8,5.4,0.2c2.5,1.9,5.1,3.8,7.6,5.8c16.3,13.4,32.6,26.8,48.9,40.2c3.5,2.8,6.7,5.9,10.8,8c1.3,0.7,2.3,0.7,3.6,0.1
	c4.1-2,7.3-5.2,10.7-8c16.3-13.3,32.6-26.8,48.9-40.1c2.5-2,5-3.9,7.6-5.8c1.5-1.1,4.1-1.3,5.4-0.3c4.6,3.5,9.2,6.9,13.6,10.6
	c15.8,12.9,31.6,26,47.4,39c2,1.6,4.1,3,6.2,4.5c1.3,0.9,3.8,0.7,5.4-0.4c2.6-1.9,5.2-3.8,7.6-5.8c16.8-13.8,33.6-27.6,50.4-41.4
	c3-2.4,5.7-5.1,9.3-6.7c1.2-0.5,2.5-0.6,3.7,0.1c2.6,1.8,5.2,3.6,7.7,5.7c14.8,12.1,29.6,24.4,44.5,36.5c3,2.4,5.9,4.8,9,7.2
	c1,0.8,2.2,1.3,3.3,2c1.3,0.8,4.3-0.5,4.5-2c1.6-8.9,1.3-17.8,0.1-26.7c-0.2-1.2-0.9-2.4-1.6-3.4c-1.2-1.5-2.6-2.8-4.1-4
	c-19.3-15.8-38.6-31.6-57.9-47.4c-1.5-1.2-3.1-2.2-4.7-3.3c-1.2-0.8-4.4-0.9-5.5-0.1c-2.6,1.9-5.2,3.7-7.7,5.7
	c-17.3,14.2-34.6,28.4-51.9,42.6c-2.5,2-4.8,4.3-7.9,5.3c-1.1,0.4-2.7,0.5-3.7,0c-2.3-1.1-4.4-2.5-6.4-4.1
	c-15.9-12.9-31.6-25.9-47.5-38.9c-3-2.4-5.9-4.9-8.9-7.3c-1.5-1.2-3.2-2.1-4.7-3.2c-1.2-0.8-4.3-0.8-5.5,0.1
	c-3.6,2.7-7.2,5.2-10.7,8.1c-16.8,13.8-33.6,27.6-50.4,41.4c-2,1.6-3.9,3.3-6.4,4.2c-1.2,0.5-2.5,0.6-3.7-0.1
	c-2.1-1.4-4.4-2.6-6.3-4.2c-17.8-14.5-35.6-29.2-53.4-43.7c-2.5-2-5.1-3.8-7.7-5.7c-1.1-0.8-4.4-0.7-5.5,0.1
	c-2.6,1.9-5.2,3.7-7.7,5.7c-14.8,12.2-29.6,24.4-44.5,36.5c-4,3.2-7.9,6.5-12,9.6c-1,0.8-2.2,1.5-3.4,1.8c-1.2,0.3-2.7,0.4-3.7-0.1
	c-2.2-1.2-4.4-2.6-6.4-4.2c-17.3-14.2-34.6-28.4-51.9-42.6c-3-2.4-6.1-4.6-9.2-6.8c-1.2-0.8-4.2-0.7-5.5,0.2
	c-4.1,3.1-8.2,6.1-12.1,9.3c-15.8,13-31.6,26-47.4,39c-2,1.6-4.1,3.1-6.1,4.6c-1.8,1.3-5.2,1.2-7.1-0.4c-6-4.8-12-9.5-18-14.4
	c-13.9-11.3-27.7-22.7-41.5-34.1c-2-1.6-4.1-3-6.2-4.4c-1.1-0.7-4.4-0.6-5.5,0.2c-2.6,1.9-5.2,3.8-7.6,5.8
	c-15.3,12.6-30.6,25.2-45.9,37.8c-3.9,3.2-8.1,6.3-12.1,9.3c-1.7,1.3-5.4,1.2-7.2-0.3c-3-2.4-6.1-4.7-9-7.1
	c-16.8-13.8-33.6-27.6-50.4-41.4c-7.7-6.3-9.2-6.4-16.5-0.6c-5,4-9.9,8.1-14.9,12.1c-14.3,11.8-28.7,23.5-43,35.3
	c-3.5,2.9-7.4,4.9-11.8,6.1c0,11.5,0,23,0,34.6c3.3,0,6.3-0.5,9-2.6C11.6,327.7,17.1,323.4,22.6,318.9z M22.6,606.9
	c14.3-11.8,28.6-23.6,43-35.3c2-1.6,4.1-3.1,6.1-4.6c1.5-1.1,4.1-1.3,5.4-0.3c4.6,3.5,9.2,6.9,13.6,10.5c15.8,12.9,31.6,26,47.4,39
	c2,1.6,4.1,3,6.2,4.5c1.3,0.9,3.8,0.8,5.4-0.4c2.6-1.9,5.2-3.8,7.6-5.8c16.8-13.8,33.6-27.7,50.4-41.4c2.9-2.4,6.1-4.5,9.3-6.7
	c1-0.7,2.5-0.7,3.6,0.1c2.6,1.8,5.3,3.6,7.7,5.6c16.3,13.4,32.6,26.8,48.9,40.2c3.5,2.8,7.1,5.5,10.7,8.1c1.5,1.1,3.9,1.2,5.3,0.1
	c5-3.9,10.1-7.8,15.1-11.8c15.3-12.5,30.6-25.2,46-37.7c2-1.6,4-3.2,6.3-4.4c1-0.5,2.7-0.7,3.6-0.2c2.3,1.1,4.4,2.6,6.4,4.2
	c16.8,13.8,33.6,27.6,50.4,41.4c3,2.4,5.9,4.9,8.9,7.2c3.3,2.4,5.5,3.4,10.3-0.5c2-1.6,4-3.2,5.9-4.9c15.3-12.6,30.6-25.2,45.9-37.8
	c4-3.2,8.1-6.3,12.1-9.4c1.2-0.9,4-0.8,5.4,0.2c2.5,1.9,5.1,3.8,7.6,5.8c16.3,13.4,32.6,26.8,48.9,40.2c3.5,2.8,6.7,5.9,10.8,8
	c1.3,0.7,2.3,0.7,3.6,0.1c4.1-2,7.3-5.2,10.7-8c16.3-13.3,32.6-26.8,48.9-40.2c2.5-2,5-3.9,7.6-5.8c1.5-1.1,4.1-1.3,5.4-0.3
	c4.6,3.5,9.2,6.9,13.6,10.6c15.8,12.9,31.6,26,47.4,39c2,1.6,4.1,3,6.2,4.5c1.3,0.9,3.8,0.7,5.4-0.4c2.6-1.9,5.2-3.8,7.6-5.8
	c16.8-13.8,33.6-27.6,50.4-41.4c3-2.4,5.7-5.1,9.3-6.7c1.2-0.5,2.5-0.6,3.7,0.1c2.6,1.8,5.2,3.6,7.7,5.7
	c14.8,12.1,29.6,24.4,44.5,36.5c3,2.4,5.9,4.8,9,7.2c1,0.8,2.2,1.3,3.3,2c1.3,0.8,4.3-0.5,4.5-2c1.6-8.9,1.3-17.8,0.1-26.7
	c-0.2-1.2-0.9-2.4-1.6-3.4c-1.2-1.5-2.6-2.8-4.1-4c-19.3-15.8-38.6-31.6-57.9-47.4c-1.5-1.2-3.1-2.2-4.7-3.3
	c-1.2-0.8-4.4-0.9-5.5-0.1c-2.6,1.9-5.2,3.7-7.7,5.7c-17.3,14.2-34.6,28.4-51.9,42.6c-2.5,2-4.8,4.3-7.9,5.3c-1.1,0.4-2.7,0.5-3.7,0
	c-2.3-1.1-4.4-2.5-6.4-4.1c-15.9-12.9-31.6-25.9-47.5-38.9c-3-2.4-5.9-4.9-8.9-7.3c-1.5-1.2-3.2-2.1-4.7-3.2
	c-1.2-0.8-4.3-0.8-5.5,0.1c-3.1,2.3-6.2,4.5-9.2,6.9c-17.3,14.2-34.6,28.4-51.9,42.6c-2,1.6-3.9,3.3-6.4,4.2
	c-1.2,0.5-2.5,0.6-3.7-0.1c-2.1-1.4-4.4-2.6-6.3-4.2c-17.8-14.5-35.6-29.2-53.4-43.7c-2.5-2-5.1-3.8-7.7-5.7
	c-1.1-0.8-4.4-0.7-5.5,0.1c-2.6,1.9-5.2,3.7-7.7,5.7c-14.8,12.2-29.6,24.4-44.5,36.5c-4,3.2-7.9,6.5-12,9.6c-1,0.8-2.2,1.5-3.4,1.8
	c-1.2,0.3-2.7,0.4-3.7-0.1c-2.2-1.2-4.4-2.6-6.4-4.2c-17.3-14.2-34.6-28.4-51.9-42.6c-3-2.4-6.1-4.6-9.2-6.8
	c-1.2-0.8-4.2-0.7-5.5,0.2c-4.1,3.1-8.2,6.1-12.1,9.3c-15.8,13-31.6,26-47.4,39c-2,1.6-4.1,3.1-6.1,4.6c-1.8,1.3-5.2,1.2-7.1-0.4
	c-6-4.8-12-9.5-18-14.3c-13.9-11.3-27.7-22.7-41.5-34.1c-2-1.6-4.1-3-6.2-4.4c-1.1-0.7-4.4-0.6-5.5,0.2c-2.6,1.9-5.2,3.8-7.6,5.8
	c-15.3,12.6-30.6,25.2-45.9,37.8c-3.9,3.2-8.1,6.3-12.1,9.3c-1.7,1.3-5.4,1.2-7.2-0.3c-3-2.4-6.1-4.7-9-7.1
	c-16.8-13.8-33.6-27.6-50.4-41.4c-7.7-6.3-9.2-6.4-16.5-0.6c-5,4-9.9,8.1-14.9,12.1c-14.3,11.8-28.7,23.5-43,35.3
	c-3.5,2.9-7.4,4.9-11.8,6.1c0,11.5,0,23,0,34.6c3.3,0,6.3-0.5,9-2.6C11.6,615.7,17.1,611.4,22.6,606.9z M17.7,466.9
	c15.8-13,31.6-26,47.4-39c2.5-2,4.8-4.2,8-5.2c1.1-0.3,2.7-0.4,3.7,0.1c2.2,1.2,4.4,2.6,6.3,4.2c16.8,13.8,33.6,27.6,50.4,41.4
	c3.5,2.8,7.1,5.4,10.7,8c1.2,0.9,4.1,0.8,5.5-0.2c3.6-2.7,7.2-5.3,10.6-8.1c16.3-13.4,32.6-26.8,48.9-40.2c2-1.6,4-3.1,6.1-4.7
	c1.9-1.5,5-1.4,7.1,0.3c4.5,3.6,9,7.1,13.5,10.7c15.3,12.6,30.6,25.2,45.9,37.8c2,1.6,4.1,3,6.2,4.5c1.1,0.8,4.4,0.8,5.5-0.1
	c3-2.3,6.1-4.6,9.1-7c16.8-13.8,33.6-27.6,50.4-41.4c2.5-2,4.9-4.2,7.9-5.3c1.1-0.4,2.7-0.4,3.7,0.1c2.2,1.2,4.4,2.6,6.4,4.2
	c16.8,13.8,33.6,27.6,50.4,41.4c3.5,2.8,7.1,5.4,10.7,8c1.2,0.9,4.2,0.8,5.5-0.1c5.1-3.9,10.2-7.7,15.1-11.8
	c15.9-12.9,31.6-26,47.5-38.9c1.5-1.2,3.1-2.1,4.8-3.1c1.1-0.6,2.4-0.5,3.6,0.1c3.5,1.6,6.3,4.3,9.3,6.7
	c16.8,13.8,33.6,27.6,50.4,41.4c2.5,2,5.1,3.9,7.6,5.8c1.1,0.8,4.4,0.9,5.5,0c2.6-1.9,5.2-3.7,7.7-5.7
	c17.3-14.2,34.5-28.5,51.9-42.6c2.5-2,5.2-3.8,7.9-5.3c0.9-0.5,2.7-0.5,3.6,0c2.3,1.1,4.4,2.6,6.4,4.2
	c16.3,13.3,32.6,26.8,48.9,40.1c3.9,3.2,8.1,6.2,12.2,9.3c1.2,0.9,4.3,0.9,5.5,0c4.1-3.1,8.2-6.1,12.2-9.3
	c16.3-13.4,32.6-26.8,48.9-40.2c2-1.6,4.1-2.9,6.3-4.3c1.1-0.7,2.4-0.6,3.6,0c5.7,3,10.3,7.5,15.2,11.5c14.4,11.7,28.7,23.5,43,35.3
	c2,1.6,4.1,3.1,6.2,4.5c1.1,0.7,2.5,0.9,3.5,0c0.9-0.7,1.7-2,1.8-3.1c0.2-7.7,0.2-15.3,0.1-23c0-2.6-1.3-4.9-3-6.8
	c-0.4-0.5-0.9-0.9-1.4-1.3c-20.7-17.1-41.5-34.1-62.2-51.2c-1-0.8-2.2-1.3-3.3-1.9c-1.3-0.7-2.5-0.7-3.6,0.1
	c-3.1,2.2-6.3,4.4-9.2,6.8c-16.8,13.8-33.6,27.6-50.4,41.4c-2.5,2-5.1,3.9-7.6,5.8c-1.5,1.1-4,1.2-5.4,0.2c-3.1-2.3-6.2-4.5-9.1-7
	c-16.3-13.4-32.6-26.8-48.9-40.2c-2.5-2-5-4-7.5-5.9c-2.8-2.1-5.4-2-8.7,0.6c-2.5,2-5,4-7.5,6c-16.3,13.4-32.6,26.8-48.9,40.2
	c-3,2.4-6.2,4.5-9.3,6.7c-1.1,0.7-2.5,0.7-3.6-0.2c-3.1-2.2-6.2-4.4-9.2-6.9c-16.3-13.4-32.6-26.8-48.9-40.2c-3-2.4-6.1-4.7-9.2-6.9
	c-1.4-1.1-4-1.1-5.3-0.1c-12.9,10.4-25.9,20.9-38.8,31.3c-8.9,7.2-17.8,14.5-26.8,21.8c-2.1,1.7-5.1,1.9-7.1,0.3
	c-6-4.8-12-9.5-18-14.4c-13.4-10.9-26.7-21.9-40-32.9c-2.5-2-5-3.9-7.6-5.9c-1.9-1.5-4.9-1.3-7.1,0.4c-2.5,2-5.1,3.9-7.5,5.9
	c-15.3,12.6-30.6,25.2-45.9,37.8c-4,3.2-8,6.3-12.1,9.4c-1.2,1-4.1,0.9-5.4-0.1c-3-2.3-6.1-4.6-9.1-7
	c-16.3-13.4-32.6-26.8-48.9-40.2c-3-2.4-6.1-4.6-9.3-6.8c-1.1-0.8-2.5-0.9-3.6-0.2c-2.6,1.8-5.3,3.5-7.8,5.5
	c-16.8,13.8-33.6,27.6-50.4,41.4c-3,2.4-6,4.7-9.1,7.1c-1.5,1.2-4.1,1.4-5.4,0.4c-2.6-1.9-5.2-3.7-7.7-5.7
	c-16.8-13.8-33.6-27.6-50.4-41.3c-3-2.4-6.1-4.6-9.1-6.9c-1.3-1-3.8-0.9-5.4,0.2c-2.1,1.5-4.2,2.9-6.1,4.6
	c-15.3,12.6-30.6,25.2-45.9,37.8c-4.4,3.7-9,7.2-13.4,10.8c-2.7,2.2-5.7,2.6-9,2.2c0,12.8,0,25.6,0,38.4c5.7-2.9,11.4-5.6,16-10.2
	C14.6,469.2,16.2,468.1,17.7,466.9z M17.7,178.9c15.8-13,31.6-26,47.4-39c2.5-2,4.8-4.2,8-5.2c1.1-0.3,2.7-0.4,3.7,0.1
	c2.2,1.2,4.4,2.6,6.3,4.2c16.8,13.8,33.6,27.6,50.4,41.4c3.5,2.8,7.1,5.4,10.7,8c1.2,0.9,4.1,0.8,5.5-0.2c3.6-2.7,7.2-5.3,10.6-8.1
	c16.3-13.4,32.6-26.8,48.9-40.2c2-1.6,4-3.1,6.1-4.7c1.9-1.5,5-1.4,7.1,0.3c4.5,3.6,9,7.1,13.5,10.7c15.3,12.6,30.6,25.2,45.9,37.8
	c2,1.6,4.1,3,6.2,4.5c1.1,0.8,4.4,0.8,5.5-0.1c3-2.3,6.1-4.6,9.1-7c16.8-13.8,33.6-27.6,50.4-41.4c2.5-2,4.9-4.2,7.9-5.3
	c1.1-0.4,2.7-0.4,3.7,0.1c2.2,1.2,4.4,2.6,6.4,4.2c16.8,13.8,33.6,27.6,50.4,41.4c3.5,2.8,7.1,5.4,10.7,8c1.2,0.9,4.2,0.8,5.5-0.1
	c5.1-3.9,10.2-7.7,15.1-11.8c15.9-12.9,31.6-26,47.5-38.9c1.5-1.2,3.1-2.1,4.8-3.1c1.1-0.6,2.4-0.5,3.6,0.1c3.5,1.6,6.3,4.3,9.3,6.7
	c16.8,13.8,33.6,27.6,50.4,41.4c2.5,2,5.1,3.9,7.6,5.8c1.1,0.8,4.4,0.9,5.5,0c2.6-1.9,5.2-3.7,7.7-5.7
	c17.3-14.2,34.5-28.5,51.9-42.6c2.5-2,5.2-3.8,7.9-5.3c0.9-0.5,2.7-0.5,3.6,0c2.3,1.1,4.4,2.6,6.4,4.2
	c16.3,13.3,32.6,26.8,48.9,40.1c3.9,3.2,8.1,6.2,12.2,9.3c1.2,0.9,4.3,0.9,5.5,0c4.1-3.1,8.2-6.1,12.2-9.3
	c16.3-13.4,32.6-26.8,48.9-40.2c2-1.6,4.1-2.9,6.3-4.3c1.1-0.7,2.4-0.6,3.6,0c5.7,3,10.3,7.5,15.2,11.5c14.4,11.7,28.7,23.5,43,35.3
	c2,1.6,4.1,3.1,6.2,4.5c1.1,0.7,2.5,0.9,3.5,0c0.9-0.7,1.7-2,1.8-3.1c0.2-7.7,0.2-15.3,0.1-23c0-2.6-1.3-4.9-3-6.8
	c-0.4-0.5-0.9-0.9-1.4-1.3c-20.7-17.1-41.5-34.1-62.2-51.2c-1-0.8-2.2-1.3-3.3-1.9c-1.3-0.7-2.5-0.7-3.6,0.1
	c-3.1,2.2-6.3,4.4-9.2,6.8c-16.8,13.8-33.6,27.6-50.4,41.4c-2.5,2-5.1,3.9-7.6,5.8c-1.5,1.1-4,1.2-5.4,0.2c-3.1-2.3-6.2-4.5-9.1-7
	c-16.3-13.4-32.6-26.8-48.9-40.2c-2.5-2-5-4-7.5-5.9c-2.8-2.1-5.4-2-8.7,0.6c-2.5,2-5,4-7.5,6c-16.3,13.4-32.6,26.8-48.9,40.2
	c-3,2.4-6.2,4.5-9.3,6.7c-1.1,0.7-2.5,0.7-3.6-0.2c-3.1-2.2-6.2-4.4-9.2-6.9c-16.3-13.4-32.6-26.8-48.9-40.2c-3-2.4-6.1-4.7-9.2-6.9
	c-1.4-1.1-4-1.1-5.3-0.1c-12.9,10.4-25.9,20.9-38.8,31.3c-8.9,7.2-17.8,14.5-26.8,21.8c-2.1,1.7-5.1,1.9-7.1,0.3
	c-6-4.8-12-9.5-18-14.4c-13.4-10.9-26.7-21.9-40-32.9c-2.5-2-5-3.9-7.6-5.9c-1.9-1.5-4.9-1.3-7.1,0.4c-2.5,2-5.1,3.9-7.5,5.9
	c-15.3,12.6-30.6,25.2-45.9,37.8c-4,3.2-8,6.3-12.1,9.4c-1.2,1-4.1,0.9-5.4-0.1c-3-2.3-6.1-4.6-9.1-7
	c-16.3-13.4-32.6-26.8-48.9-40.2c-3-2.4-6.1-4.6-9.3-6.8c-1.1-0.8-2.5-0.9-3.6-0.2c-2.6,1.8-5.3,3.5-7.8,5.5
	c-16.8,13.8-33.6,27.6-50.4,41.4c-3,2.4-6,4.7-9.1,7.1c-1.5,1.2-4.1,1.4-5.4,0.4c-2.6-1.9-5.2-3.7-7.7-5.7
	c-16.8-13.8-33.6-27.6-50.4-41.3c-3-2.4-6.1-4.6-9.1-6.9c-1.3-1-3.8-0.9-5.4,0.2c-2.1,1.5-4.2,2.9-6.1,4.6
	c-15.3,12.6-30.6,25.2-45.9,37.8c-4.4,3.7-9,7.2-13.4,10.8c-2.7,2.2-5.7,2.6-9,2.2c0,12.8,0,25.6,0,38.4c5.7-2.9,11.4-5.6,16-10.2
	C14.6,181.2,16.2,180.1,17.7,178.9z M17.7,754.9c15.8-13,31.6-26,47.4-39c2.5-2,4.8-4.2,8-5.2c1.1-0.3,2.7-0.4,3.7,0.1
	c2.2,1.2,4.4,2.6,6.3,4.2c16.8,13.8,33.6,27.6,50.4,41.4c3.5,2.8,7.1,5.4,10.7,8c1.2,0.9,4.1,0.8,5.5-0.2c3.6-2.7,7.2-5.3,10.6-8.1
	c16.3-13.4,32.6-26.8,48.9-40.2c2-1.6,4-3.1,6.1-4.7c1.9-1.4,5-1.4,7.1,0.3c4.5,3.6,9,7.1,13.5,10.7c15.3,12.6,30.6,25.2,45.9,37.8
	c2,1.6,4.1,3,6.2,4.5c1.1,0.8,4.4,0.8,5.5-0.1c3-2.3,6.1-4.6,9.1-7c16.8-13.8,33.6-27.6,50.4-41.4c2.5-2,4.9-4.2,7.9-5.3
	c1.1-0.4,2.7-0.4,3.7,0.1c2.2,1.2,4.4,2.6,6.4,4.2c16.8,13.8,33.6,27.6,50.4,41.4c3.5,2.8,7.1,5.4,10.7,8c1.2,0.9,4.2,0.8,5.5-0.1
	c5.1-3.9,10.2-7.7,15.1-11.8c15.9-12.9,31.6-26,47.5-38.9c1.5-1.2,3.1-2.1,4.8-3.1c1.1-0.6,2.4-0.5,3.6,0.1c3.5,1.6,6.3,4.3,9.3,6.7
	c16.8,13.8,33.6,27.6,50.4,41.4c2.5,2,5.1,3.9,7.6,5.8c1.1,0.8,4.4,0.9,5.5,0c2.6-1.9,5.2-3.7,7.7-5.7
	c17.3-14.2,34.5-28.5,51.9-42.6c2.5-2,5.2-3.8,7.9-5.3c0.9-0.5,2.7-0.5,3.6,0c2.3,1.1,4.4,2.6,6.4,4.2
	c16.3,13.3,32.6,26.8,48.9,40.1c3.9,3.2,8.1,6.2,12.2,9.3c1.2,0.9,4.3,0.9,5.5,0c4.1-3.1,8.2-6.1,12.2-9.3
	c16.3-13.4,32.6-26.8,48.9-40.2c2-1.6,4.1-2.9,6.3-4.3c1.1-0.7,2.4-0.6,3.6,0c5.7,3,10.3,7.5,15.2,11.5c14.4,11.7,28.7,23.5,43,35.3
	c2,1.6,4.1,3.1,6.2,4.5c1.1,0.7,2.5,0.9,3.5,0c0.9-0.7,1.7-2,1.8-3.1c0.2-7.7,0.2-15.3,0.1-23c0-2.6-1.3-4.9-3-6.8
	c-0.4-0.5-0.9-0.9-1.4-1.3c-20.7-17.1-41.5-34.1-62.2-51.2c-1-0.8-2.2-1.3-3.3-1.9c-1.3-0.7-2.5-0.7-3.6,0.1
	c-3.1,2.2-6.3,4.4-9.2,6.8c-16.8,13.8-33.6,27.6-50.4,41.4c-2.5,2-5.1,3.9-7.6,5.8c-1.5,1.1-4,1.2-5.4,0.2c-3.1-2.3-6.2-4.5-9.1-7
	c-16.3-13.4-32.6-26.8-48.9-40.2c-2.5-2-5-4-7.5-5.9c-2.8-2.1-5.4-2-8.7,0.6c-2.5,2-5,4-7.5,6c-16.3,13.4-32.6,26.8-48.9,40.2
	c-3,2.4-6.2,4.5-9.3,6.7c-1.1,0.7-2.5,0.7-3.6-0.2c-3.1-2.2-6.2-4.4-9.2-6.9c-16.3-13.4-32.6-26.8-48.9-40.2c-3-2.4-6.1-4.7-9.2-6.9
	c-1.4-1.1-4-1.1-5.3-0.1c-12.9,10.4-25.9,20.9-38.8,31.3c-8.9,7.2-17.8,14.5-26.8,21.8c-2.1,1.7-5.1,1.9-7.1,0.3
	c-6-4.8-12-9.5-18-14.4c-13.4-10.9-26.7-21.9-40-32.9c-2.5-2-5-3.9-7.6-5.9c-1.9-1.5-4.9-1.3-7.1,0.4c-2.5,2-5.1,3.9-7.5,5.9
	c-15.3,12.6-30.6,25.2-45.9,37.8c-4,3.2-8,6.3-12.1,9.4c-1.2,1-4.1,0.9-5.4-0.1c-3-2.3-6.1-4.6-9.1-7
	c-16.3-13.4-32.6-26.8-48.9-40.2c-3-2.4-6.1-4.6-9.3-6.8c-1.1-0.8-2.5-0.9-3.6-0.2c-2.6,1.8-5.3,3.5-7.8,5.5
	c-16.8,13.8-33.6,27.6-50.4,41.4c-3,2.4-6,4.7-9.1,7.1c-1.5,1.2-4.1,1.4-5.4,0.4c-2.6-1.9-5.2-3.7-7.7-5.7
	c-16.8-13.8-33.6-27.6-50.4-41.3c-3-2.4-6.1-4.6-9.1-6.9c-1.3-1-3.8-0.9-5.4,0.2c-2.1,1.5-4.2,2.9-6.1,4.6
	c-15.3,12.6-30.6,25.2-45.9,37.8c-4.4,3.7-9,7.2-13.4,10.8c-2.7,2.2-5.7,2.6-9,2.2c0,12.8,0,25.6,0,38.4c5.7-2.9,11.4-5.6,16-10.2
	C14.6,757.2,16.2,756.1,17.7,754.9z M6.3,260.1c3.5-2.8,7-5.6,10.5-8.4c15.8-13,31.6-26,47.4-39c2.5-2,5.1-3.9,7.6-5.8
	c1.6-1.1,4-1.2,5.4-0.2c2.5,1.9,5.2,3.8,7.6,5.8c13.4,10.9,26.7,21.9,40.1,32.9c5.9,4.9,11.9,9.7,17.9,14.5c2.1,1.7,5.2,1.8,7.1,0.3
	c2.5-1.9,5.1-3.8,7.6-5.9c13.4-10.9,26.7-21.9,40.1-32.9c4.9-4.1,9.9-8.1,14.9-12.1c5.7-4.5,7-4.5,13.2,0.4c3,2.4,5.9,4.9,8.9,7.3
	c15.3,12.6,30.6,25.2,46,37.8c2.5,2,5.1,3.9,7.7,5.8c1.2,0.9,4.2,0.8,5.4-0.2c3.5-2.7,7.1-5.4,10.6-8.3
	c16.3-13.4,32.6-26.9,48.9-40.2c2.5-2,5.1-3.9,7.8-5.5c0.9-0.5,2.6-0.5,3.6,0c2.2,1.2,4.3,2.7,6.3,4.3
	c18.8,15.4,37.6,30.9,56.4,46.2c2,1.6,4.2,2.9,6.4,4.2c0.5,0.3,1.3,0.2,1.9-0.1c1.7-0.8,3.5-1.5,5-2.7c15.4-12.5,30.7-25.2,46-37.7
	c5.4-4.5,10.9-8.8,16.5-13.2c2.8-2.2,5.2-2,8.5,0.6c2.5,2,5,4,7.5,6c15.8,13,31.6,26,47.5,39c3,2.4,6,4.7,9.1,7.1
	c2,1.5,4.8,1.4,7-0.3c3.5-2.7,7.1-5.5,10.5-8.3c15.8-13,31.6-26,47.4-39c2.5-2,5.1-3.8,7.7-5.7c1.4-1,4-1,5.4,0.1
	c2.5,2,5.1,3.8,7.6,5.8c13.4,10.9,26.7,21.9,40.1,32.9c5.9,4.9,11.9,9.7,17.9,14.5c2,1.6,5.2,1.6,7.1,0.1c7.5-6,15-12,22.4-18.1
	c12.9-10.5,25.7-21.1,38.6-31.6c2-1.6,4.2-2.9,6.3-4.3c0.4-0.3,1.2-0.2,1.8,0c2.6,0.6,4.6,2.3,6.5,3.9
	c17.8,14.6,35.6,29.3,53.4,43.9c2,1.6,4.2,2.9,6.3,4.4c1.2,0.8,4.3-0.8,4.5-2.2c1.2-8.3,0.8-16.6,0.3-24.9c-0.1-2.5-1.4-4.9-3.4-6.7
	c-0.5-0.4-0.9-0.9-1.4-1.3c-20.3-16.7-40.5-33.3-60.8-50c-1-0.8-2.1-1.4-3.2-2.2c-1.3-0.9-4.3-1-5.4-0.1c-3.6,2.7-7.2,5.3-10.6,8.2
	c-15.4,12.6-30.7,25.2-46,37.8c-1.5,1.2-3,2.4-4.4,3.7c-1,0.8-2,1.6-3,2.4c-3.9,3.1-6.7,3.2-10.3,0.3c-16.3-13.4-32.6-26.8-49-40.2
	c-4.9-4-10-8-15-11.9c-1.2-0.9-4.4-1.1-5.4-0.3c-2.1,1.5-4.2,2.9-6.2,4.5c-15.4,12.6-30.6,25.2-46,37.8c-4.9,4-10.1,7.9-15.1,11.8
	c-1.4,1.1-3.5,0.9-5.2-0.4c-4.1-3.1-8.2-6.2-12.1-9.4c-16.3-13.4-32.6-26.8-48.9-40.2c-2-1.6-4.2-2.9-6.3-4.2
	c-1.2-0.7-2.5-0.7-3.7,0.1c-3.6,2.6-7.3,5.2-10.7,8c-16.3,13.4-32.6,26.9-48.9,40.2c-2.5,2-5.1,3.8-7.7,5.7c-1.4,1-4.1,1-5.4,0
	c-2.5-1.9-5.2-3.8-7.6-5.8c-14.8-12.2-29.7-24.4-44.5-36.6c-4.5-3.7-9-7.2-13.5-10.8c-1.9-1.5-5.2-1.5-7.1,0c-7.5,6-15,12-22.4,18.1
	c-12.9,10.5-25.7,21.1-38.6,31.6c-2,1.6-4.2,2.9-6.4,4.2c-0.4,0.3-1.3,0.3-1.7,0.1c-2.2-1.2-4.5-2.4-6.5-4
	c-17.4-14.2-34.6-28.4-52-42.6c-3-2.4-6-4.8-9-7.1c-2.1-1.7-5.3-1.9-7.1-0.5c-3.5,2.7-7.1,5.5-10.6,8.3c-15.8,13-31.6,26-47.5,39
	c-2.5,2-5.1,3.9-7.6,5.8c-2,1.5-4.8,1.4-7.1-0.4c-2-1.6-4.1-3.1-6-4.7c-14.3-11.8-28.7-23.6-43-35.4c-4-3.3-7.9-6.5-11.9-9.7
	c-1.5-1.2-3.1-2.2-4.7-3.3c-1.3-0.9-4-0.8-5.4,0.3c-7.5,6-15,11.9-22.5,18c-14.4,11.7-28.7,23.5-43.1,35.3c-2.6,2.2-5.7,2.7-8.9,3
	c0,11.5,0,23,0,34.6C0.5,262.6,3.6,262.3,6.3,260.1z M6.3,548.1c3.5-2.8,7-5.6,10.5-8.4c15.8-13,31.6-26,47.4-39
	c2.5-2,5.1-3.9,7.6-5.8c1.6-1.1,4-1.2,5.4-0.2c2.5,1.9,5.2,3.8,7.6,5.8c13.4,10.9,26.7,21.9,40.1,32.9c5.9,4.9,11.9,9.7,17.9,14.5
	c2.1,1.7,5.2,1.8,7.1,0.3c2.5-1.9,5.1-3.8,7.6-5.9c13.4-10.9,26.7-21.9,40.1-32.9c4.9-4.1,9.9-8.1,14.9-12.1c5.7-4.5,7-4.5,13.2,0.4
	c3,2.4,5.9,4.9,8.9,7.3c15.3,12.6,30.6,25.2,46,37.8c2.5,2,5.1,3.9,7.7,5.8c1.2,0.9,4.2,0.8,5.4-0.2c3.5-2.7,7.1-5.4,10.6-8.3
	c16.3-13.4,32.6-26.9,48.9-40.2c2.5-2,5.1-3.9,7.8-5.5c0.9-0.5,2.6-0.5,3.6,0c2.2,1.2,4.3,2.7,6.3,4.3
	c18.8,15.4,37.6,30.9,56.4,46.2c2,1.6,4.2,2.9,6.4,4.2c0.5,0.3,1.3,0.2,1.9-0.1c1.7-0.8,3.5-1.5,5-2.7c15.4-12.5,30.7-25.2,46-37.7
	c5.4-4.5,10.9-8.8,16.5-13.2c2.8-2.2,5.2-2,8.5,0.6c2.5,2,5,4,7.5,6c15.8,13,31.6,26,47.5,39c3,2.4,6,4.7,9.1,7.1
	c2.1,1.6,4.8,1.5,7-0.3c3.5-2.8,7.1-5.5,10.5-8.3c15.8-13,31.6-26,47.4-39c2.5-2,5.1-3.8,7.7-5.7c1.4-1,4-1,5.4,0.1
	c2.5,2,5.1,3.8,7.6,5.8c13.4,10.9,26.7,21.9,40.1,32.9c5.9,4.9,11.9,9.7,17.9,14.5c2,1.6,5.2,1.6,7.1,0.1c7.5-6,15-12,22.4-18.1
	c12.9-10.5,25.7-21.1,38.6-31.6c2-1.6,4.2-2.9,6.3-4.3c0.4-0.3,1.2-0.2,1.8,0c2.6,0.6,4.6,2.3,6.5,3.9
	c17.8,14.6,35.6,29.3,53.4,43.9c2,1.6,4.2,2.9,6.3,4.4c1.2,0.8,4.3-0.8,4.5-2.2c1.2-8.3,0.8-16.6,0.3-24.9c-0.1-2.5-1.4-4.9-3.4-6.7
	c-0.5-0.4-0.9-0.9-1.4-1.3c-20.3-16.7-40.5-33.3-60.8-50c-1-0.8-2.1-1.5-3.2-2.2c-1.2-0.8-4.3-1.1-5.5-0.1
	c-3.5,2.8-7.2,5.4-10.6,8.2c-15.4,12.6-30.7,25.2-46,37.8c-1.5,1.2-3,2.4-4.4,3.7c-1,0.8-2,1.6-3,2.4c-3.9,3.1-6.7,3.2-10.3,0.3
	c-16.3-13.4-32.6-26.8-49-40.2c-4.9-4-10-8-15-11.9c-1.2-0.9-4.4-1.1-5.4-0.3c-2.1,1.5-4.2,2.9-6.2,4.5
	c-15.4,12.6-30.6,25.2-46,37.8c-4.9,4-10.1,7.9-15.1,11.8c-1.4,1.1-3.5,0.9-5.2-0.4c-4.1-3.1-8.2-6.2-12.1-9.4
	c-16.3-13.4-32.6-26.8-48.9-40.2c-2-1.6-4.2-2.9-6.3-4.2c-1.2-0.7-2.5-0.7-3.7,0.1c-3.6,2.6-7.3,5.2-10.7,8
	c-16.3,13.4-32.6,26.9-48.9,40.2c-2.5,2-5.1,3.8-7.7,5.7c-1.4,1-4.1,1-5.4,0c-2.5-1.9-5.2-3.8-7.6-5.8
	c-14.8-12.2-29.7-24.4-44.5-36.6c-4.5-3.7-9-7.2-13.5-10.8c-1.9-1.5-5.2-1.5-7.1,0c-7.5,6-15,12-22.4,18.1
	c-12.9,10.5-25.7,21.1-38.6,31.6c-2,1.6-4.2,2.9-6.4,4.2c-0.4,0.3-1.3,0.3-1.7,0.1c-2.2-1.2-4.5-2.4-6.5-4
	c-17.4-14.2-34.6-28.4-52-42.6c-3-2.4-6-4.8-9-7.1c-2.1-1.7-5.3-1.9-7.1-0.5c-3.5,2.7-7.1,5.5-10.6,8.3c-15.8,13-31.6,26-47.5,39
	c-2.5,2-5.1,3.9-7.6,5.8c-2,1.5-4.8,1.4-7.1-0.4c-2-1.6-4.1-3.1-6-4.7c-14.3-11.8-28.7-23.6-43-35.4c-4-3.3-7.9-6.5-11.9-9.7
	c-1.5-1.2-3.1-2.2-4.7-3.3c-1.3-0.9-4-0.8-5.4,0.3c-7.5,6-15,11.9-22.5,18c-14.4,11.7-28.7,23.5-43.1,35.3c-2.6,2.2-5.7,2.7-8.9,3
	c0,11.5,0,23,0,34.6C0.5,550.6,3.6,550.3,6.3,548.1z M862.9,800.4c-0.5-0.4-0.9-0.9-1.4-1.3c-20.3-16.7-40.5-33.3-60.8-50
	c-1-0.8-2.1-1.4-3.2-2.2c-1.3-0.9-4.3-1-5.4-0.1c-3.6,2.7-7.2,5.3-10.6,8.2c-15.4,12.6-30.7,25.2-46,37.8c-1.5,1.2-3,2.4-4.4,3.7
	c-1,0.8-2,1.6-3,2.4c-3.9,3.1-6.7,3.2-10.3,0.3c-16.3-13.4-32.6-26.8-49-40.2c-4.9-4-10-8-15-11.9c-1.2-0.9-4.4-1.1-5.4-0.3
	c-2.1,1.5-4.2,2.9-6.2,4.5c-15.4,12.6-30.6,25.2-46,37.8c-4.9,4-10.1,7.9-15.1,11.8c-1.4,1.1-3.5,0.9-5.2-0.4
	c-4.1-3.1-8.2-6.2-12.1-9.4c-16.3-13.4-32.6-26.8-48.9-40.2c-2-1.6-4.2-2.9-6.3-4.2c-1.2-0.7-2.5-0.7-3.7,0.1
	c-3.6,2.6-7.3,5.2-10.7,8c-16.3,13.4-32.6,26.9-48.9,40.2c-2.5,2-5.1,3.8-7.7,5.7c-1.4,1-4.1,1-5.4,0c-2.5-1.9-5.2-3.8-7.6-5.8
	c-14.8-12.2-29.7-24.4-44.5-36.6c-4.5-3.7-9-7.2-13.5-10.8c-1.9-1.5-5.2-1.5-7.1,0c-7.5,6-15,12-22.4,18.1
	c-12.9,10.5-25.7,21.1-38.6,31.6c-2,1.6-4.2,2.9-6.4,4.2c-0.4,0.3-1.3,0.3-1.7,0.1c-2.2-1.2-4.5-2.4-6.5-4
	c-17.4-14.2-34.6-28.4-52-42.6c-3-2.4-6-4.8-9-7.1c-2.1-1.7-5.3-1.9-7.1-0.5c-3.5,2.7-7.1,5.5-10.6,8.3c-15.8,13-31.6,26-47.5,39
	c-2.5,2-5.1,3.9-7.6,5.8c-2,1.5-4.8,1.4-7.1-0.4c-2-1.6-4.1-3.1-6-4.7c-14.3-11.8-28.7-23.6-43-35.4c-4-3.3-7.9-6.5-11.9-9.7
	c-1.5-1.2-3.1-2.2-4.7-3.3c-1.3-0.9-4-0.8-5.4,0.3c-7.5,6-15,11.9-22.5,18c-14.4,11.7-28.7,23.5-43.1,35.3c-2.6,2.2-5.7,2.7-8.9,3
	c0,11.5,0,23,0,34.6c3.3,0.7,6.3,0.4,9-1.8c3.5-2.8,7-5.6,10.5-8.4c15.8-13,31.6-26,47.4-39c2.5-2,5.1-3.9,7.6-5.8
	c1.6-1.1,4-1.2,5.4-0.2c2.5,1.9,5.2,3.8,7.6,5.8c13.4,10.9,26.7,21.9,40.1,32.9c5.9,4.9,11.9,9.7,17.9,14.5c2.1,1.7,5.2,1.8,7.1,0.3
	c2.5-1.9,5.1-3.8,7.6-5.9c13.4-10.9,26.7-21.9,40.1-32.9c4.9-4.1,9.9-8.1,14.9-12.1c5.7-4.5,7-4.5,13.2,0.4c3,2.4,5.9,4.9,8.9,7.3
	c15.3,12.6,30.6,25.2,46,37.8c2.5,2,5.1,3.9,7.7,5.8c1.2,0.9,4.2,0.8,5.4-0.2c3.5-2.7,7.1-5.4,10.6-8.3
	c16.3-13.4,32.6-26.9,48.9-40.2c2.5-2,5.1-3.9,7.8-5.5c0.9-0.5,2.6-0.5,3.6,0c2.2,1.2,4.3,2.7,6.3,4.3
	c18.8,15.4,37.6,30.9,56.4,46.2c2,1.6,4.2,2.9,6.4,4.2c0.5,0.3,1.3,0.2,1.9-0.1c1.7-0.8,3.5-1.5,5-2.7c15.4-12.5,30.7-25.2,46-37.7
	c5.4-4.5,10.9-8.8,16.5-13.2c2.8-2.2,5.2-2,8.5,0.6c2.5,2,5,4,7.5,6c15.8,13,31.6,26,47.5,39c3,2.4,6,4.7,9.1,7.1
	c2.1,1.6,4.8,1.5,7-0.3c3.5-2.8,7.1-5.5,10.5-8.3c15.8-13,31.6-26,47.4-39c2.5-2,5.1-3.8,7.7-5.7c1.4-1,4-1,5.4,0.1
	c2.5,2,5.1,3.8,7.6,5.8c13.4,10.9,26.7,21.9,40.1,32.9c5.9,4.9,11.9,9.7,17.9,14.5c2,1.6,5.2,1.6,7.1,0.1c7.5-6,15-12,22.4-18.1
	c12.9-10.5,25.7-21.1,38.6-31.6c2-1.6,4.2-2.9,6.3-4.3c0.4-0.3,1.2-0.2,1.8,0c2.6,0.6,4.6,2.3,6.5,3.9
	c17.8,14.6,35.6,29.3,53.4,43.9c2,1.6,4.2,2.9,6.3,4.4c1.2,0.8,4.3-0.8,4.5-2.2c1.2-8.3,0.8-16.6,0.3-24.9
	C866.1,804.5,864.9,802.2,862.9,800.4z M50.6,7.6c1-0.8,1.7-1.9,2.4-2.9c0.3-0.4,0.4-1.1,0.4-1.6c-0.1-1.5-0.9-2.4-2.3-2.6
	c-10.8-1.2-21.7-1-32.5-0.1c-1.2,0.1-2.6,0.5-3.6,1.2C12,3.8,8.9,6.1,5.9,8.5c-2.6,2.1-5.7,2.7-8.7,3.8c0,11.5,0,23,0,34.6
	c3.3,0,6.3-0.5,8.9-2.6C21,32,35.8,19.8,50.6,7.6z M80,820.7c-0.5-0.4-1-0.7-1.6-1.1c-1.9-1.4-5.4-1.5-7.2-0.1
	c-15.8,12-30.8,24.8-46,37.5c-0.5,0.4-1,0.8-1.3,1.4c-0.8,1.2-0.9,2.4-0.5,3.5c0.4,1.4,1.3,2,2.8,2c6.4,0.1,12.8,0.3,19.1,0.3
	c16.3,0,13,0.6,24.5-8c1-0.8,2.1-1.5,3.3-1.8c1.1-0.3,2.5-0.1,3.6,0.3c1.2,0.4,2.3,1.2,3.2,2c10.9,8.6,10.5,7.4,22.7,7.6
	c1.9,0,3.8,0,5.7,0c0-0.1,0-0.2,0-0.2c5.1,0,10.2,0,15.3,0c1.5,0,2.5-0.7,2.8-2c0.3-1.2,0.2-2.7-0.8-3.5
	C110.6,845.9,95.3,833.3,80,820.7z M404.4,850.5c-10.8-9-21.7-17.9-32.5-26.8c-1.5-1.2-3-2.3-4.6-3.5c-2.7-2-6.5-2.3-8.8-0.3
	c-15.3,12.6-30.5,25.2-45.8,37.8c-0.5,0.4-0.8,1-1.1,1.5c-0.3,0.6-0.7,1.2-0.6,1.8c0.2,1.4,1,2.5,2.2,2.7
	c10.2,1.2,20.4,0.6,30.6,0.4c2.6-0.1,5-1,7.1-2.6c3.1-2.2,6.2-4.5,9.3-6.7c1.1-0.8,4.1-0.6,5.4,0.3c3.1,2.2,6.2,4.5,9.3,6.7
	c2.1,1.5,4.5,2.4,7.1,2.4c5.1,0.1,10.2,0,15.3,0c0,0.1,0,0.2,0,0.3c5.1-0.2,10.2-0.4,15.3-0.6c1.4-0.1,2.2-1,2.1-2.6
	c0-0.6-0.2-1.3-0.5-1.8C411.6,855.7,407.8,853.3,404.4,850.5z M656.1,820.8c-1-0.8-2.1-1.5-3.3-1.9c-1.2-0.4-2.6-0.6-3.7-0.2
	c-1.7,0.7-3.4,1.7-4.9,2.9c-13.9,11.3-27.7,22.7-41.5,34c-0.5,0.4-0.9,0.9-1.4,1.3c-0.5,0.4-1,0.8-1.3,1.4c-0.8,1.1-0.9,2.3-0.7,3.5
	c0.3,1.5,1.2,2.1,2.7,2.1c7,0.1,14,0.3,21,0.3c14.2,0,11.6,0.4,22.6-7.9c1-0.8,2.1-1.6,3.3-1.9c1.1-0.3,2.5-0.2,3.7,0.2
	c1.2,0.4,2.3,1.2,3.3,1.9c11.1,8.7,10.7,7.5,22.7,7.7c1.9,0,3.8,0,5.7,0c0-0.1,0-0.1,0-0.2c5.1,0,10.2,0,15.3,0
	c1.5,0,2.5-0.7,2.9-1.9c0.4-1.2,0.4-2.7-0.6-3.5C686.7,846,671.4,833.4,656.1,820.8z M509.9,819.4c-0.5-0.4-1.2-0.5-1.7-0.7
	c-1.3-0.6-2.5-0.5-3.7,0.2c-1.1,0.6-2.3,1.1-3.3,1.9c-15.3,12.6-30.6,25.2-45.8,37.8c-1,0.8-0.9,2.4-0.4,3.6c0.2,0.5,0.6,1.2,1,1.3
	c6.9,1.5,14,0.8,21,0.7c14.4,0,12.9,1.2,24.6-7.8c1-0.8,2.2-1.3,3.3-1.9c1.2-0.6,2.4-0.6,3.6,0c1.1,0.6,2.3,1.2,3.3,1.9
	c11.2,8.4,8,7.7,22.6,7.8c1.9,0,3.8,0,5.7,0c0,0,0,0,0,0c3.2,0,6.4,0,9.6,0c1.9,0,3.8-0.3,5.7-0.3c1.6,0,2.4-0.7,2.7-2.2
	c0.2-1.2,0.2-2.6-0.8-3.5C541.8,844.9,526.2,831.8,509.9,819.4z M223.5,820.3c-0.9-0.8-2.3-1.1-3.4-1.6c-1.3-0.6-2.5-0.5-3.7,0.3
	c-2.1,1.4-4.3,2.7-6.3,4.3c-13.8,11.3-27.6,22.7-41.4,34.1c-1,0.9-1.8,1.8-1.9,3.2c-0.1,1.4,0.3,2.8,1.5,3
	c7.6,1.6,15.3,0.7,22.9,0.7c11.5,0,11.4,0.8,21.1-6.7c1.5-1.2,3.2-2.1,4.8-3c1.1-0.6,2.4-0.5,3.6,0.1c1.1,0.6,2.2,1.3,3.2,2
	c3.1,2.2,6,5,9.4,6.6c4.1,1.9,8.8,1.1,13.2,1.2c1.9,0,3.8,0,5.7,0c0,0,0,0,0,0c3.8,0,7.7,0,11.5,0c1.3,0,2.5-0.3,3.8-0.3
	c1.6,0,2.6-0.7,2.5-2.3c0-1.2-0.2-2.8-1-3.4C254,845.5,238.7,832.9,223.5,820.3z M843.6,856.6c-14.8-12.2-29.6-24.3-44.4-36.5
	c-0.5-0.4-1.1-0.6-1.7-0.9c-1.2-0.8-4.4-0.9-5.5-0.1c-1,0.7-2.2,1.2-3.2,2.1c-14.8,12.2-29.6,24.3-44.4,36.5
	c-0.5,0.4-0.8,0.9-1.2,1.4c-0.8,1.2-0.9,2.4,0,3.6c0.3,0.4,0.9,1,1.4,1c10.8,1.1,21.7,0.8,32.5,0.2c1.2-0.1,2.5-0.5,3.6-1.2
	c3.7-2.5,7.3-5.1,11-7.6c1.3-0.9,4.4-1.2,5.4-0.4c3.1,2.2,6.2,4.5,9.3,6.8c2.1,1.6,4.4,2.6,7,2.7c5.1,0.1,10.2,0,15.3,0
	c0,0.1,0,0.3,0,0.4c5.1-0.2,10.2-0.4,15.3-0.7c1.4-0.1,2.2-1,2.3-2.5c0-0.6-0.1-1.3-0.4-1.8C845.2,858.4,844.5,857.3,843.6,856.6z
	 M104.1,12.3c12.3,10.2,24.6,20.3,37,30.4c4,3.2,6.8,3.4,10.3,0.6c14.8-12.1,29.6-24.3,44.3-36.5c0.5-0.4,0.8-1,1.3-1.4
	c1.2-1,1.4-2.1,0.5-3.4c-0.7-1-1.6-1.8-3-1.8c-9.6-0.1-19.1-0.2-28.7-0.1c-3.2,0-6.2,1.1-8.8,3.2c-1,0.8-2.1,1.5-3.1,2.3
	c-6.8,5.3-8.9,4.2-15.1-0.5c-1-0.8-2.1-1.5-3.1-2.3c-2.1-1.7-4.5-2.5-7.1-2.5C123.5-0.1,118.4,0,113.3,0c0,0,0,0,0,0
	c-4.5,0-8.9-0.1-13.4,0c-1.2,0-2.7,0.3-3.6,1.1c-1,0.9-1.1,2.4-0.5,3.4C97.9,7.8,101.2,9.9,104.1,12.3z M241.1,6.2
	c14.7,12.2,29.4,24.4,44.2,36.6c1,0.8,2.2,1.3,3.2,2c1.4,0.9,3.5,0.7,5.3-0.6c1-0.7,2.1-1.4,3.1-2.2c10.4-8.5,20.7-16.9,31.1-25.4
	c2.5-2,4.9-4.1,7.3-6.1c1.5-1.2,2.9-2.5,4.3-3.8c1.8-1.6,2.5-4.1,1.3-4.9c-1-0.7-2.1-1.6-3.1-1.6c-7.6-0.2-15.3-0.2-22.9-0.4
	c-6.6-0.2-12.6,1-17.5,6c-1.3,1.3-3.2,2-4.9,2.9c-1.2,0.7-2.3,0.5-3.7,0c-3-1.2-5.4-3.3-7.9-5.3c-3.2-2.5-6.8-3.5-10.7-3.5
	c-3.8,0-7.7,0-11.5,0c0,0,0,0,0,0c-3.8,0-7.7,0-11.5,0c-1.3,0-2.5,0.1-3.8,0.2c-2.4,0.1-4.7,1.7-4,3C239.9,4.1,240.3,5.4,241.1,6.2z
	 M386.6,7.7c14.3,11.8,28.6,23.5,42.9,35.3c0.5,0.4,1.1,0.7,1.6,1.1c2.1,1.5,5.1,1.7,7.1,0c15.3-12.5,30.6-25,45.9-37.6
	c0.5-0.4,0.8-1,1.2-1.5c0.9-1,1-2.2,0.1-3.4c-0.3-0.4-1-0.9-1.5-0.9c-7.8-1-24.4-1.2-32.4-0.3c-1.8,0.2-3.7,1.1-5.3,2
	c-3.3,2-6.3,4.3-9.6,6.2c-0.9,0.6-2.7,0.6-3.7,0.1c-2.8-1.5-5.5-3.2-8-5.2c-3.2-2.6-6.7-3.5-10.6-3.6c-3.8-0.1-7.7,0-13.9,0
	c-3.3,0.2-9-0.7-14.7,0.7c-0.6,0.1-1.2,0.4-1.5,0.9c-0.9,1.2-0.9,2.4-0.1,3.4C384.9,5.8,385.6,6.9,386.6,7.7z M575.3,44
	c0.5,0.4,1.2,0.5,1.7,0.9c1.2,0.8,2.4,0.8,3.6-0.1c7.5-5.2,37.4-29.5,47.4-38.6c0.5-0.4,0.8-1,1.1-1.6c0.2-0.5,0.4-1.1,0.4-1.6
	c-0.1-1.5-0.9-2.4-2.3-2.6C617-0.8,606.8-0.3,596.6,0c-2.6,0.1-5,1-7.1,2.5c-2.6,1.8-5.1,3.9-7.8,5.6c-1.6,1-3.6,1.2-5.4,0.3
	c-1.7-0.9-3.4-1.8-4.8-3.1c-4.5-4.1-9.7-6-15.7-5.6c-3.2,0.2-6.4,0-9.6,0c0,0,0,0.1,0,0.1c-4.5,0-8.9-0.1-13.4,0
	c-1.2,0-2.5,0.4-3.7,0.7c-0.5,0.2-1.1,0.6-1.4,1c-0.9,1.3-0.7,2.4,0.4,3.4C543.3,18.8,559.3,31.5,575.3,44z M674.6,7.7
	c14.3,11.8,28.6,23.5,42.9,35.3c0.5,0.4,1.1,0.7,1.6,1.1c2.1,1.6,5.1,1.7,7.1,0c15.3-12.5,30.6-25,45.9-37.6c0.5-0.4,0.8-1,1.2-1.5
	c0.9-1,1-2.2,0.1-3.4c-0.3-0.4-0.9-0.9-1.5-0.9c-7.7-1-24.4-1.2-32.4-0.3c-1.8,0.2-3.7,1.1-5.3,2c-3.3,2-6.3,4.3-9.6,6.2
	c-1,0.6-2.6,0.5-3.7,0.1c-3.6-1.4-6.4-4.1-9.5-6.3c-2.1-1.5-4.6-2.3-7.2-2.4c-4.5-0.2-8.9,0-17.6,0c-1.5,0.1-7.3-0.8-12.9,0.6
	c-1.3,0.3-2.2,1.2-2.2,2.7c0,0.5,0.2,1.2,0.6,1.6C672.9,5.8,673.6,6.9,674.6,7.7z M817,6.1c13.7,11.3,27.4,22.7,41.2,34
	c1,0.8,2.2,1.3,3.3,1.9c1.1,0.7,4.1-1,4.3-2.4c1.5-8.2,1.1-16.4,0.3-24.7c-0.2-1.8-0.9-3.9-2.1-5.2c-5.7-6.3-12.2-11.1-21.5-10.1
	c-3.1,0.4-6.4,0.1-9.5,0.1c0,0,0,0,0,0c-3.2,0-6.4,0-9.5,0c-1.3,0-2.5,0.1-3.8,0.2c-2.5,0.1-4.4,1.5-4.2,2.9
	C815.6,4,815.9,5.2,817,6.1z"/>
</svg>
